<svg width="250" height="250" viewBox="0 0 250 250" fill="none" xmlns="http://www.w3.org/2000/svg">
<circle cx="125" cy="125" r="125" fill="#00C1BA"/>
<path d="M74.1265 59.32C70.5212 59.32 67.7692 58.4027 65.8705 56.568C63.9932 54.712 63.0545 52.1413 63.0545 48.856C63.0545 45.4213 63.9718 42.7653 65.8065 40.888C67.6625 39.0107 70.4252 38.072 74.0945 38.072C75.3532 38.072 76.4732 38.168 77.4545 38.36C78.4572 38.552 79.4172 38.808 80.3345 39.128V43.64C78.4785 42.872 76.5265 42.488 74.4785 42.488C72.3452 42.488 70.7772 43 69.7745 44.024C68.7932 45.048 68.3025 46.6587 68.3025 48.856C68.3025 50.9467 68.8252 52.4827 69.8705 53.464C70.9158 54.4453 72.4732 54.936 74.5425 54.936C75.5452 54.936 76.5372 54.8507 77.5185 54.68C78.4998 54.488 79.4492 54.2 80.3665 53.816V58.36C79.4705 58.6587 78.5212 58.8933 77.5185 59.064C76.5158 59.2347 75.3852 59.32 74.1265 59.32ZM83.9998 41.432V37.56H89.5998V41.432H83.9998ZM84.4158 59V47.64H82.1758L82.6238 43.832H89.5677V59H84.4158ZM99.0908 59.32C97.2134 59.32 95.8268 58.84 94.9308 57.88C94.0561 56.92 93.6188 55.5973 93.6188 53.912V47.736H91.5708V43.832H93.6188V40.664L98.7708 39.288V43.832H102.451L102.227 47.736H98.7708V53.56C98.7708 54.2853 98.9521 54.7973 99.3148 55.096C99.6774 55.3733 100.221 55.512 100.947 55.512C101.565 55.512 102.195 55.4053 102.835 55.192V58.68C101.832 59.1067 100.584 59.32 99.0908 59.32ZM107.894 64.632C107.126 64.632 106.465 64.5893 105.91 64.504C105.377 64.44 104.843 64.3013 104.31 64.088V60.504C104.673 60.632 105.003 60.7173 105.302 60.76C105.622 60.8027 105.942 60.824 106.262 60.824C107.137 60.824 107.787 60.664 108.214 60.344C108.662 60.0453 109.11 59.5013 109.558 58.712L102.742 43.832H108.15L112.15 53.464L116.086 43.832H121.462L115.67 57.752C115.094 59.1387 114.454 60.344 113.75 61.368C113.046 62.4133 112.225 63.2133 111.286 63.768C110.347 64.344 109.217 64.632 107.894 64.632ZM123.445 59V38.392H132.373C134.463 38.392 136.223 38.744 137.653 39.448C139.082 40.1307 140.17 41.24 140.917 42.776C141.663 44.2907 142.037 46.3067 142.037 48.824C142.037 52.3653 141.215 54.9467 139.573 56.568C137.951 58.1893 135.551 59 132.373 59H123.445ZM128.597 55.032H131.669C132.778 55.032 133.706 54.872 134.453 54.552C135.221 54.2107 135.797 53.592 136.181 52.696C136.586 51.8 136.789 50.5093 136.789 48.824C136.789 47.1173 136.607 45.8053 136.245 44.888C135.903 43.9493 135.349 43.2987 134.581 42.936C133.834 42.552 132.863 42.36 131.669 42.36H128.597V55.032ZM144.663 59V38.392H149.079L157.847 50.712V38.392H163.031V59H158.583L149.815 46.712V59H144.663ZM165.648 59L173.52 38.392H179.088L186.96 59H181.584L179.728 54.328H172.848L171.024 59H165.648ZM173.552 50.52H179.024L176.272 43.352L173.552 50.52Z" fill="white"/>
<path d="M70.8689 86.16C69.4503 86.16 68.3463 85.8187 67.5569 85.136C66.7783 84.4533 66.3889 83.4667 66.3889 82.176V75.696H68.1329V82.112C68.1329 82.976 68.3676 83.6213 68.8369 84.048C69.3169 84.4747 69.9943 84.688 70.8689 84.688C71.7329 84.688 72.3996 84.4747 72.8689 84.048C73.3489 83.6213 73.5889 82.976 73.5889 82.112V75.696H75.3169V82.176C75.3169 83.4667 74.9276 84.4533 74.1489 85.136C73.3703 85.8187 72.2769 86.16 70.8689 86.16ZM76.3677 86L80.0477 80.864L76.4477 75.696H78.4637L81.0877 79.52L83.7117 75.696H85.7437L82.1277 80.864L85.8077 86H83.7597L81.0877 82.224L78.4157 86H76.3677ZM87.1958 86L90.9398 75.408H92.7158L88.9718 86H87.1958ZM98.8064 86.16C97.3878 86.16 96.2838 85.8187 95.4944 85.136C94.7158 84.4533 94.3264 83.4667 94.3264 82.176V75.696H96.0704V82.112C96.0704 82.976 96.3051 83.6213 96.7744 84.048C97.2544 84.4747 97.9318 84.688 98.8064 84.688C99.6704 84.688 100.337 84.4747 100.806 84.048C101.286 83.6213 101.526 82.976 101.526 82.112V75.696H103.254V82.176C103.254 83.4667 102.865 84.4533 102.086 85.136C101.308 85.8187 100.214 86.16 98.8064 86.16ZM105.188 86V75.696H106.932V86H105.188ZM112.641 86V75.696H114.385V86H112.641ZM116.406 86V78.416H118.006L118.086 79.216C118.428 78.9493 118.833 78.7253 119.302 78.544C119.782 78.352 120.31 78.256 120.886 78.256C121.868 78.256 122.582 78.4853 123.03 78.944C123.478 79.4027 123.702 80.1173 123.702 81.088V86H121.974V81.168C121.974 80.5813 121.852 80.1707 121.606 79.936C121.372 79.7013 120.924 79.584 120.262 79.584C119.868 79.584 119.478 79.664 119.094 79.824C118.721 79.984 118.406 80.192 118.15 80.448V86H116.406ZM128.552 86.16C127.742 86.16 127.134 85.9467 126.728 85.52C126.334 85.0827 126.136 84.4907 126.136 83.744V79.776H125.016V78.416H126.136V76.672L127.864 76.144V78.416H129.88L129.768 79.776H127.864V83.648C127.864 84.0853 127.966 84.3947 128.168 84.576C128.371 84.7467 128.702 84.832 129.16 84.832C129.448 84.832 129.752 84.7787 130.072 84.672V85.904C129.656 86.0747 129.15 86.16 128.552 86.16ZM135.246 86.16C133.924 86.16 132.9 85.8347 132.174 85.184C131.449 84.5333 131.086 83.536 131.086 82.192C131.086 80.976 131.396 80.016 132.014 79.312C132.633 78.608 133.572 78.256 134.83 78.256C135.982 78.256 136.846 78.56 137.422 79.168C138.009 79.7653 138.302 80.5387 138.302 81.488V82.896H132.75C132.836 83.632 133.102 84.1387 133.55 84.416C133.998 84.6933 134.681 84.832 135.598 84.832C135.982 84.832 136.377 84.7947 136.782 84.72C137.188 84.6453 137.54 84.5493 137.838 84.432V85.712C137.497 85.8613 137.102 85.9733 136.654 86.048C136.217 86.1227 135.748 86.16 135.246 86.16ZM132.75 81.76H136.766V81.232C136.766 80.7093 136.622 80.304 136.334 80.016C136.046 79.7173 135.561 79.568 134.878 79.568C134.068 79.568 133.508 79.744 133.198 80.096C132.9 80.448 132.75 81.0027 132.75 81.76ZM140 86V78.416H141.6L141.696 79.296C142.059 79.0613 142.491 78.848 142.992 78.656C143.494 78.464 143.99 78.3307 144.48 78.256V79.584C144.182 79.6373 143.856 79.7173 143.504 79.824C143.163 79.92 142.838 80.032 142.528 80.16C142.219 80.2773 141.958 80.4 141.744 80.528V86H140ZM145.75 86V78.416H147.35L147.43 79.216C147.772 78.9493 148.177 78.7253 148.646 78.544C149.126 78.352 149.654 78.256 150.23 78.256C151.212 78.256 151.926 78.4853 152.374 78.944C152.822 79.4027 153.046 80.1173 153.046 81.088V86H151.318V81.168C151.318 80.5813 151.196 80.1707 150.95 79.936C150.716 79.7013 150.268 79.584 149.606 79.584C149.212 79.584 148.822 79.664 148.438 79.824C148.065 79.984 147.75 80.192 147.494 80.448V86H145.75ZM157.528 86.16C157.006 86.16 156.504 86.1227 156.024 86.048C155.555 85.9733 155.166 85.8827 154.856 85.776V84.304C155.219 84.4427 155.619 84.5493 156.056 84.624C156.494 84.6987 156.91 84.736 157.304 84.736C157.902 84.736 158.328 84.6827 158.584 84.576C158.84 84.4693 158.968 84.2613 158.968 83.952C158.968 83.728 158.888 83.552 158.728 83.424C158.579 83.296 158.35 83.1787 158.04 83.072C157.742 82.9653 157.358 82.8373 156.888 82.688C156.44 82.5387 156.051 82.3787 155.72 82.208C155.39 82.0267 155.134 81.7973 154.952 81.52C154.771 81.2427 154.68 80.88 154.68 80.432C154.68 79.7387 154.931 79.2053 155.432 78.832C155.934 78.448 156.739 78.256 157.848 78.256C158.286 78.256 158.702 78.288 159.096 78.352C159.491 78.416 159.827 78.496 160.104 78.592V80.048C159.806 79.9307 159.475 79.84 159.112 79.776C158.76 79.712 158.43 79.68 158.12 79.68C157.566 79.68 157.144 79.728 156.856 79.824C156.579 79.92 156.44 80.112 156.44 80.4C156.44 80.6987 156.584 80.912 156.872 81.04C157.171 81.1573 157.646 81.3227 158.296 81.536C158.894 81.7173 159.368 81.9093 159.72 82.112C160.072 82.3147 160.323 82.56 160.472 82.848C160.632 83.1253 160.712 83.488 160.712 83.936C160.712 84.6827 160.44 85.2427 159.896 85.616C159.352 85.9787 158.563 86.16 157.528 86.16ZM162.422 86V75.216H164.166V79.152C164.497 78.8853 164.891 78.672 165.35 78.512C165.809 78.3413 166.326 78.256 166.902 78.256C167.862 78.256 168.571 78.4853 169.03 78.944C169.489 79.4027 169.718 80.1173 169.718 81.088V86H167.99V81.168C167.99 80.5813 167.862 80.1707 167.606 79.936C167.361 79.7013 166.929 79.584 166.31 79.584C165.926 79.584 165.537 79.6693 165.142 79.84C164.747 80 164.422 80.2133 164.166 80.48V86H162.422ZM172.312 76.832V75.392H174.216V76.832H172.312ZM172.456 86V79.744H171.304L171.464 78.416H174.2V86H172.456ZM176.235 89.456V78.416H177.739L177.835 79.168C178.176 78.8587 178.549 78.6293 178.955 78.48C179.36 78.3307 179.84 78.256 180.395 78.256C181.483 78.256 182.331 78.5547 182.939 79.152C183.547 79.7387 183.851 80.7147 183.851 82.08C183.851 83.4453 183.536 84.4693 182.907 85.152C182.277 85.824 181.419 86.16 180.331 86.16C179.413 86.16 178.629 85.9467 177.979 85.52V89.456H176.235ZM179.883 84.848C181.355 84.848 182.091 83.92 182.091 82.064C182.091 81.168 181.925 80.5333 181.595 80.16C181.264 79.776 180.709 79.584 179.931 79.584C179.152 79.584 178.501 79.8507 177.979 80.384V84.176C178.224 84.3787 178.496 84.544 178.795 84.672C179.104 84.7893 179.467 84.848 179.883 84.848Z" fill="white"/>
</svg>
