<svg width="400" height="400" viewBox="0 0 400 400" fill="none" xmlns="http://www.w3.org/2000/svg">
<circle cx="200" cy="200" r="200" fill="#E9C300"/>
<path d="M135.547 76V48.5H146.547V53.8125H141.141V59.1719H146.328V64.3438H141.141V70.6406H146.906V76H135.547ZM148.641 76V52.5625H154.109V55.2812C154.359 54.3229 154.786 53.5885 155.391 53.0781C155.995 52.5677 156.88 52.3125 158.047 52.3125C158.984 52.3125 159.781 52.5312 160.438 52.9688C161.104 53.3958 161.573 53.9635 161.844 54.6719C162.271 53.901 162.771 53.3177 163.344 52.9219C163.927 52.5156 164.755 52.3125 165.828 52.3125C167.13 52.3125 168.13 52.5938 168.828 53.1562C169.536 53.7083 170.026 54.4792 170.297 55.4688C170.578 56.4479 170.719 57.5833 170.719 58.875V76H165.141V58.7812C165.141 57.2708 164.755 56.5156 163.984 56.5156C163.578 56.5156 163.266 56.6562 163.047 56.9375C162.828 57.2083 162.677 57.5469 162.594 57.9531C162.51 58.3594 162.469 58.7656 162.469 59.1719V76H156.891V58.7812C156.891 58.2917 156.828 57.8021 156.703 57.3125C156.589 56.8229 156.286 56.5781 155.797 56.5781C155.38 56.5781 155.057 56.7292 154.828 57.0312C154.599 57.3333 154.443 57.7083 154.359 58.1562C154.276 58.5938 154.234 59.026 154.234 59.4531V76H148.641ZM179.734 76.25C175.068 76.25 172.734 73.8281 172.734 68.9844V59.5781C172.734 57.3698 173.354 55.6094 174.594 54.2969C175.833 52.974 177.547 52.3125 179.734 52.3125C181.932 52.3125 183.651 52.974 184.891 54.2969C186.13 55.6094 186.75 57.3698 186.75 59.5781V68.9844C186.75 73.8281 184.411 76.25 179.734 76.25ZM179.734 71.9375C180.203 71.9375 180.536 71.7708 180.734 71.4375C180.943 71.0938 181.047 70.6615 181.047 70.1406V58.6875C181.047 57.3229 180.609 56.6406 179.734 56.6406C178.859 56.6406 178.422 57.3229 178.422 58.6875V70.1406C178.422 70.6615 178.521 71.0938 178.719 71.4375C178.927 71.7708 179.266 71.9375 179.734 71.9375ZM188.922 76V48.5H196.375C198.375 48.5 199.828 48.9896 200.734 49.9688C201.651 50.9375 202.109 52.5417 202.109 54.7812V55.9844C202.109 57.276 201.875 58.3229 201.406 59.125C200.948 59.9271 200.245 60.4531 199.297 60.7031C200.536 61.0156 201.365 61.75 201.781 62.9062C202.208 64.0521 202.422 65.4531 202.422 67.1094C202.422 68.8906 202.255 70.4479 201.922 71.7812C201.589 73.1146 200.984 74.151 200.109 74.8906C199.234 75.6302 197.99 76 196.375 76H188.922ZM194.297 58.8594H195.422C195.932 58.8594 196.26 58.6615 196.406 58.2656C196.552 57.8698 196.625 57.3958 196.625 56.8438V54.0781C196.625 53.1927 196.234 52.75 195.453 52.75H194.297V58.8594ZM194.844 71.1562C196.271 71.1562 196.984 70.4792 196.984 69.125V65.6875C196.984 64.9062 196.865 64.2917 196.625 63.8438C196.396 63.3854 195.958 63.1562 195.312 63.1562H194.297V71.125C194.526 71.1458 194.708 71.1562 194.844 71.1562ZM208.656 76.25C207.406 76.25 206.448 75.9896 205.781 75.4688C205.125 74.9479 204.677 74.224 204.438 73.2969C204.198 72.3594 204.078 71.2656 204.078 70.0156V52.5625H209.703V69.3594C209.703 70.2969 209.776 70.9531 209.922 71.3281C210.068 71.6927 210.411 71.875 210.953 71.875C211.536 71.875 211.901 71.6146 212.047 71.0938C212.203 70.5729 212.281 69.901 212.281 69.0781V52.5625H217.859V76H212.266V73.5C211.911 74.3958 211.484 75.0781 210.984 75.5469C210.495 76.0156 209.719 76.25 208.656 76.25ZM220.109 76V52.5625H225.703V55.5469C225.911 54.651 226.297 53.8906 226.859 53.2656C227.432 52.6302 228.224 52.3125 229.234 52.3125C230.859 52.3125 232.036 52.8125 232.766 53.8125C233.505 54.8125 233.875 56.1823 233.875 57.9219V76H228.359V58.5C228.359 58.0417 228.266 57.6198 228.078 57.2344C227.891 56.8385 227.568 56.6406 227.109 56.6406C226.682 56.6406 226.365 56.7917 226.156 57.0938C225.958 57.3854 225.833 57.7552 225.781 58.2031C225.729 58.6406 225.703 59.0781 225.703 59.5156V76H220.109ZM236.078 76V52.5625H241.672V55.5469C241.88 54.651 242.266 53.8906 242.828 53.2656C243.401 52.6302 244.193 52.3125 245.203 52.3125C246.828 52.3125 248.005 52.8125 248.734 53.8125C249.474 54.8125 249.844 56.1823 249.844 57.9219V76H244.328V58.5C244.328 58.0417 244.234 57.6198 244.047 57.2344C243.859 56.8385 243.536 56.6406 243.078 56.6406C242.651 56.6406 242.333 56.7917 242.125 57.0938C241.927 57.3854 241.802 57.7552 241.75 58.2031C241.698 58.6406 241.672 59.0781 241.672 59.5156V76H236.078ZM251.594 79.9062V76.3594H254.281C254.688 76.3594 254.891 76.2188 254.891 75.9375C254.891 75.7917 254.875 75.6406 254.844 75.4844L251.172 52.5625H256.531L258.094 69.8125L259.938 52.5625H265.328L260.984 77.2188C260.828 78.1042 260.526 78.7708 260.078 79.2188C259.641 79.6771 258.917 79.9062 257.906 79.9062H251.594Z" fill="black"/>
</svg>
