<svg width="401" height="400" viewBox="0 0 401 400" fill="none" xmlns="http://www.w3.org/2000/svg">
<circle cx="200" cy="200" r="200" fill="#E9C300"/>
<path d="M121.335 73V52.392H136.535V56.36H126.487V60.68H135.351V64.712H126.487V69.032H136.535V73H121.335ZM138.991 73V57.832H143.759L143.919 59.176C144.602 58.6853 145.37 58.2907 146.223 57.992C147.077 57.672 147.994 57.512 148.975 57.512C149.999 57.512 150.799 57.672 151.375 57.992C151.951 58.2907 152.399 58.7173 152.719 59.272C153.423 58.76 154.213 58.344 155.087 58.024C155.983 57.6827 157.029 57.512 158.223 57.512C159.994 57.512 161.295 57.9707 162.127 58.888C162.959 59.8053 163.375 61.2027 163.375 63.08V73H158.287V63.688C158.287 62.856 158.106 62.2587 157.743 61.896C157.402 61.512 156.837 61.32 156.047 61.32C155.557 61.32 155.077 61.4267 154.607 61.64C154.138 61.832 153.743 62.1093 153.423 62.472C153.466 62.7067 153.487 62.9307 153.487 63.144C153.509 63.3573 153.519 63.6133 153.519 63.912V73H148.719V63.624C148.719 62.856 148.581 62.28 148.303 61.896C148.047 61.512 147.546 61.32 146.799 61.32C146.266 61.32 145.765 61.4587 145.295 61.736C144.826 62.0133 144.399 62.3333 144.015 62.696V73H138.991ZM174.208 73.32C171.285 73.32 169.131 72.648 167.744 71.304C166.357 69.9387 165.664 67.976 165.664 65.416C165.664 62.8773 166.357 60.9253 167.744 59.56C169.152 58.1947 171.307 57.512 174.208 57.512C177.131 57.512 179.285 58.1947 180.672 59.56C182.08 60.9253 182.784 62.8773 182.784 65.416C182.784 67.976 182.091 69.9387 180.704 71.304C179.317 72.648 177.152 73.32 174.208 73.32ZM174.208 69.288C175.403 69.288 176.256 68.9893 176.768 68.392C177.28 67.7947 177.536 66.8027 177.536 65.416C177.536 64.0293 177.28 63.0373 176.768 62.44C176.256 61.8427 175.403 61.544 174.208 61.544C173.035 61.544 172.192 61.8427 171.68 62.44C171.168 63.0373 170.912 64.0293 170.912 65.416C170.912 66.8027 171.168 67.7947 171.68 68.392C172.192 68.9893 173.035 69.288 174.208 69.288ZM185.398 73V52.392H196.278C198.347 52.392 199.904 52.8827 200.95 53.864C202.016 54.8453 202.55 56.232 202.55 58.024C202.55 59.112 202.336 60.0293 201.91 60.776C201.504 61.5013 200.96 62.0667 200.278 62.472C201.216 62.8133 201.952 63.3147 202.486 63.976C203.019 64.6373 203.286 65.6293 203.286 66.952C203.286 68.9147 202.71 70.4187 201.558 71.464C200.406 72.488 198.752 73 196.598 73H185.398ZM190.55 60.776H194.742C195.638 60.776 196.288 60.5733 196.694 60.168C197.099 59.7627 197.302 59.1973 197.302 58.472C197.302 57.6827 197.099 57.096 196.694 56.712C196.288 56.3067 195.552 56.104 194.486 56.104H190.55V60.776ZM190.55 69.32H195.254C196.192 69.32 196.886 69.128 197.334 68.744C197.803 68.36 198.038 67.6773 198.038 66.696C198.038 65.9067 197.814 65.32 197.366 64.936C196.918 64.5307 196.15 64.328 195.062 64.328H190.55V69.32ZM211.114 73.32C209.322 73.32 207.924 72.8187 206.922 71.816C205.919 70.792 205.418 69.3093 205.418 67.368V57.832H210.57V67.08C210.57 67.9333 210.772 68.5627 211.178 68.968C211.604 69.352 212.234 69.544 213.066 69.544C213.684 69.544 214.271 69.416 214.826 69.16C215.38 68.904 215.839 68.584 216.202 68.2V57.832H221.354V73H216.554L216.394 71.72C215.775 72.1893 215.028 72.5733 214.154 72.872C213.279 73.1707 212.266 73.32 211.114 73.32ZM224.616 73V57.832H229.416L229.576 59.144C230.195 58.7173 230.974 58.344 231.912 58.024C232.851 57.6827 233.854 57.512 234.92 57.512C236.883 57.512 238.312 57.9813 239.208 58.92C240.104 59.8587 240.552 61.3093 240.552 63.272V73H235.4V63.688C235.4 62.8347 235.219 62.2267 234.856 61.864C234.494 61.5013 233.843 61.32 232.904 61.32C232.35 61.32 231.784 61.448 231.208 61.704C230.632 61.96 230.152 62.28 229.768 62.664V73H224.616ZM243.648 73V57.832H248.448L248.608 59.144C249.226 58.7173 250.005 58.344 250.944 58.024C251.882 57.6827 252.885 57.512 253.952 57.512C255.914 57.512 257.344 57.9813 258.24 58.92C259.136 59.8587 259.584 61.3093 259.584 63.272V73H254.432V63.688C254.432 62.8347 254.25 62.2267 253.888 61.864C253.525 61.5013 252.874 61.32 251.936 61.32C251.381 61.32 250.816 61.448 250.24 61.704C249.664 61.96 249.184 62.28 248.8 62.664V73H243.648ZM266.378 78.632C265.61 78.632 264.949 78.5893 264.394 78.504C263.861 78.44 263.328 78.3013 262.794 78.088V74.504C263.157 74.632 263.488 74.7173 263.786 74.76C264.106 74.8027 264.426 74.824 264.746 74.824C265.621 74.824 266.272 74.664 266.698 74.344C267.146 74.0453 267.594 73.5013 268.042 72.712L261.226 57.832H266.634L270.634 67.464L274.57 57.832H279.946L274.154 71.752C273.578 73.1387 272.938 74.344 272.234 75.368C271.53 76.4133 270.709 77.2133 269.77 77.768C268.832 78.344 267.701 78.632 266.378 78.632Z" fill="black"/>
<path d="M8.26 364.2C6.14 364.2 4.54 363.627 3.46 362.48C2.39333 361.333 1.86 359.78 1.86 357.82C1.86 356.407 2.09333 355.187 2.56 354.16C3.02667 353.12 3.73333 352.32 4.68 351.76C5.64 351.2 6.85333 350.92 8.32 350.92C9.08 350.92 9.76667 350.973 10.38 351.08C11.0067 351.173 11.5933 351.313 12.14 351.5V353.38C11.0467 352.98 9.83333 352.78 8.5 352.78C6.86 352.78 5.70667 353.213 5.04 354.08C4.38667 354.947 4.06 356.193 4.06 357.82C4.06 359.3 4.40667 360.427 5.1 361.2C5.79333 361.973 6.86667 362.36 8.32 362.36C9.46667 362.36 10.3933 362.227 11.1 361.96V358.36H7.88V356.94H12.96V363.14C12.5467 363.407 11.9533 363.653 11.18 363.88C10.42 364.093 9.44667 364.2 8.26 364.2ZM18.0325 364.2C17.4325 364.2 16.8725 364.093 16.3525 363.88C15.8458 363.667 15.4392 363.347 15.1325 362.92C14.8258 362.48 14.6725 361.94 14.6725 361.3C14.6725 360.393 14.9792 359.667 15.5925 359.12C16.2192 358.56 17.1792 358.28 18.4725 358.28H21.5125V357.86C21.5125 357.407 21.4392 357.047 21.2925 356.78C21.1592 356.513 20.9058 356.32 20.5325 356.2C20.1725 356.08 19.6392 356.02 18.9325 356.02C17.8125 356.02 16.7658 356.187 15.7925 356.52V354.9C16.2192 354.727 16.7392 354.587 17.3525 354.48C17.9658 354.373 18.6258 354.32 19.3325 354.32C20.7192 354.32 21.7725 354.6 22.4925 355.16C23.2258 355.72 23.5925 356.633 23.5925 357.9V364H21.7325L21.5925 363.04C21.2058 363.413 20.7258 363.7 20.1525 363.9C19.5925 364.1 18.8858 364.2 18.0325 364.2ZM18.6125 362.64C19.2658 362.64 19.8325 362.533 20.3125 362.32C20.8058 362.093 21.2058 361.793 21.5125 361.42V359.76H18.5125C17.8725 359.76 17.4058 359.887 17.1125 360.14C16.8325 360.38 16.6925 360.753 16.6925 361.26C16.6925 361.753 16.8592 362.107 17.1925 362.32C17.5258 362.533 17.9992 362.64 18.6125 362.64ZM26.01 364V354.52H28.01L28.11 355.52C28.5767 355.147 29.09 354.853 29.65 354.64C30.21 354.427 30.81 354.32 31.45 354.32C32.13 354.32 32.6567 354.433 33.03 354.66C33.4167 354.873 33.71 355.173 33.91 355.56C34.35 355.2 34.8567 354.907 35.43 354.68C36.0033 354.44 36.69 354.32 37.49 354.32C38.5833 354.32 39.39 354.6 39.91 355.16C40.43 355.72 40.69 356.58 40.69 357.74V364H38.55V357.96C38.55 357.227 38.3967 356.713 38.09 356.42C37.7833 356.127 37.2833 355.98 36.59 355.98C36.1367 355.98 35.7033 356.06 35.29 356.22C34.89 356.38 34.5433 356.62 34.25 356.94C34.29 357.087 34.3167 357.24 34.33 357.4C34.3433 357.56 34.35 357.733 34.35 357.92V364H32.33V357.98C32.33 357.287 32.21 356.78 31.97 356.46C31.73 356.14 31.2767 355.98 30.61 355.98C30.1433 355.98 29.6967 356.093 29.27 356.32C28.8567 356.533 28.4833 356.793 28.15 357.1V364H26.01ZM43.9389 352.54V350.74H46.3189V352.54H43.9389ZM44.1189 364V356.18H42.6789L42.8789 354.52H46.2989V364H44.1189ZM49.422 364V356.22H48.042V354.52H49.422V353.54C49.422 352.887 49.5754 352.313 49.882 351.82C50.202 351.313 50.642 350.92 51.202 350.64C51.7754 350.347 52.442 350.2 53.202 350.2C53.6687 350.2 54.1087 350.233 54.522 350.3C54.9354 350.353 55.2754 350.433 55.542 350.54V352.16C55.3687 352.08 55.1154 352.02 54.782 351.98C54.4487 351.94 54.1354 351.92 53.842 351.92C53.0687 351.92 52.4954 352.053 52.122 352.32C51.762 352.587 51.582 353.007 51.582 353.58V354.52H56.922V364H54.742V356.22H51.582V364H49.422ZM64.2475 364.2C62.5942 364.2 61.3142 363.793 60.4075 362.98C59.5008 362.167 59.0475 360.92 59.0475 359.24C59.0475 357.72 59.4342 356.52 60.2075 355.64C60.9808 354.76 62.1542 354.32 63.7275 354.32C65.1675 354.32 66.2475 354.7 66.9675 355.46C67.7008 356.207 68.0675 357.173 68.0675 358.36V360.12H61.1275C61.2342 361.04 61.5675 361.673 62.1275 362.02C62.6875 362.367 63.5408 362.54 64.6875 362.54C65.1675 362.54 65.6608 362.493 66.1675 362.4C66.6742 362.307 67.1142 362.187 67.4875 362.04V363.64C67.0608 363.827 66.5675 363.967 66.0075 364.06C65.4608 364.153 64.8742 364.2 64.2475 364.2ZM61.1275 358.7H66.1475V358.04C66.1475 357.387 65.9675 356.88 65.6075 356.52C65.2475 356.147 64.6408 355.96 63.7875 355.96C62.7742 355.96 62.0742 356.18 61.6875 356.62C61.3142 357.06 61.1275 357.753 61.1275 358.7ZM74.1097 364.2C73.2564 364.2 72.503 364.053 71.8497 363.76C71.1964 363.467 70.6897 362.98 70.3297 362.3C69.9697 361.62 69.7897 360.707 69.7897 359.56C69.7897 358.427 69.983 357.473 70.3697 356.7C70.7564 355.913 71.2897 355.32 71.9697 354.92C72.663 354.52 73.443 354.32 74.3097 354.32C74.883 354.32 75.3897 354.387 75.8297 354.52C76.283 354.653 76.7164 354.86 77.1297 355.14V350.52H79.3097V364H77.4497L77.3097 363.06C76.883 363.447 76.4164 363.733 75.9097 363.92C75.403 364.107 74.803 364.2 74.1097 364.2ZM74.6897 362.56C75.663 362.56 76.4764 362.227 77.1297 361.56V356.82C76.503 356.26 75.7164 355.98 74.7697 355.98C73.8497 355.98 73.1564 356.287 72.6897 356.9C72.223 357.513 71.9897 358.407 71.9897 359.58C71.9897 360.713 72.203 361.493 72.6297 361.92C73.0697 362.347 73.7564 362.56 74.6897 362.56ZM91.2397 364.2C89.5864 364.2 88.3064 363.793 87.3997 362.98C86.493 362.167 86.0397 360.92 86.0397 359.24C86.0397 357.72 86.4264 356.52 87.1997 355.64C87.973 354.76 89.1464 354.32 90.7197 354.32C92.1597 354.32 93.2397 354.7 93.9597 355.46C94.693 356.207 95.0597 357.173 95.0597 358.36V360.12H88.1197C88.2264 361.04 88.5597 361.673 89.1197 362.02C89.6797 362.367 90.533 362.54 91.6797 362.54C92.1597 362.54 92.653 362.493 93.1597 362.4C93.6664 362.307 94.1064 362.187 94.4797 362.04V363.64C94.053 363.827 93.5597 363.967 92.9997 364.06C92.453 364.153 91.8664 364.2 91.2397 364.2ZM88.1197 358.7H93.1397V358.04C93.1397 357.387 92.9597 356.88 92.5997 356.52C92.2397 356.147 91.633 355.96 90.7797 355.96C89.7664 355.96 89.0664 356.18 88.6797 356.62C88.3064 357.06 88.1197 357.753 88.1197 358.7ZM97.1819 364V354.52H99.1819L99.2819 355.52C99.7485 355.147 100.262 354.853 100.822 354.64C101.382 354.427 101.982 354.32 102.622 354.32C103.302 354.32 103.829 354.433 104.202 354.66C104.589 354.873 104.882 355.173 105.082 355.56C105.522 355.2 106.029 354.907 106.602 354.68C107.175 354.44 107.862 354.32 108.662 354.32C109.755 354.32 110.562 354.6 111.082 355.16C111.602 355.72 111.862 356.58 111.862 357.74V364H109.722V357.96C109.722 357.227 109.569 356.713 109.262 356.42C108.955 356.127 108.455 355.98 107.762 355.98C107.309 355.98 106.875 356.06 106.462 356.22C106.062 356.38 105.715 356.62 105.422 356.94C105.462 357.087 105.489 357.24 105.502 357.4C105.515 357.56 105.522 357.733 105.522 357.92V364H103.502V357.98C103.502 357.287 103.382 356.78 103.142 356.46C102.902 356.14 102.449 355.98 101.782 355.98C101.315 355.98 100.869 356.093 100.442 356.32C100.029 356.533 99.6552 356.793 99.3219 357.1V364H97.1819ZM118.655 364.2C116.949 364.2 115.695 363.773 114.895 362.92C114.109 362.067 113.715 360.847 113.715 359.26C113.715 357.673 114.115 356.453 114.915 355.6C115.715 354.747 116.962 354.32 118.655 354.32C120.362 354.32 121.615 354.747 122.415 355.6C123.215 356.453 123.615 357.673 123.615 359.26C123.615 360.847 123.215 362.067 122.415 362.92C121.629 363.773 120.375 364.2 118.655 364.2ZM118.655 362.36C119.655 362.36 120.362 362.12 120.775 361.64C121.202 361.147 121.415 360.353 121.415 359.26C121.415 358.167 121.202 357.38 120.775 356.9C120.362 356.42 119.655 356.18 118.655 356.18C117.669 356.18 116.962 356.42 116.535 356.9C116.122 357.38 115.915 358.167 115.915 359.26C115.915 360.353 116.122 361.147 116.535 361.64C116.962 362.12 117.669 362.36 118.655 362.36ZM129.357 364.2C128.343 364.2 127.583 363.933 127.077 363.4C126.583 362.853 126.337 362.113 126.337 361.18V356.22H124.937V354.52H126.337V352.34L128.497 351.68V354.52H131.017L130.877 356.22H128.497V361.06C128.497 361.607 128.623 361.993 128.877 362.22C129.13 362.433 129.543 362.54 130.117 362.54C130.477 362.54 130.857 362.473 131.257 362.34V363.88C130.737 364.093 130.103 364.2 129.357 364.2ZM133.724 352.54V350.74H136.104V352.54H133.724ZM133.904 364V356.18H132.464L132.664 354.52H136.084V364H133.904ZM143.167 364.2C141.461 364.2 140.207 363.773 139.407 362.92C138.621 362.067 138.227 360.847 138.227 359.26C138.227 357.673 138.627 356.453 139.427 355.6C140.227 354.747 141.474 354.32 143.167 354.32C144.874 354.32 146.127 354.747 146.927 355.6C147.727 356.453 148.127 357.673 148.127 359.26C148.127 360.847 147.727 362.067 146.927 362.92C146.141 363.773 144.887 364.2 143.167 364.2ZM143.167 362.36C144.167 362.36 144.874 362.12 145.287 361.64C145.714 361.147 145.927 360.353 145.927 359.26C145.927 358.167 145.714 357.38 145.287 356.9C144.874 356.42 144.167 356.18 143.167 356.18C142.181 356.18 141.474 356.42 141.047 356.9C140.634 357.38 140.427 358.167 140.427 359.26C140.427 360.353 140.634 361.147 141.047 361.64C141.474 362.12 142.181 362.36 143.167 362.36ZM150.248 364V354.52H152.248L152.348 355.52C152.775 355.187 153.282 354.907 153.868 354.68C154.468 354.44 155.128 354.32 155.848 354.32C157.075 354.32 157.968 354.607 158.528 355.18C159.088 355.753 159.368 356.647 159.368 357.86V364H157.208V357.96C157.208 357.227 157.055 356.713 156.748 356.42C156.455 356.127 155.895 355.98 155.068 355.98C154.575 355.98 154.088 356.08 153.608 356.28C153.142 356.48 152.748 356.74 152.428 357.06V364H150.248ZM167.68 352.54V350.74H170.06V352.54H167.68ZM166.98 368.68C166.207 368.68 165.547 368.573 165 368.36V366.78C165.227 366.847 165.44 366.893 165.64 366.92C165.853 366.96 166.047 366.98 166.22 366.98C166.847 366.98 167.28 366.867 167.52 366.64C167.773 366.413 167.9 366.04 167.9 365.52V356.18H166.46L166.66 354.52H170.06V365.72C170.06 366.613 169.8 367.327 169.28 367.86C168.773 368.407 168.007 368.68 166.98 368.68ZM177.113 364.2C175.406 364.2 174.153 363.773 173.353 362.92C172.566 362.067 172.173 360.847 172.173 359.26C172.173 357.673 172.573 356.453 173.373 355.6C174.173 354.747 175.419 354.32 177.113 354.32C178.819 354.32 180.073 354.747 180.873 355.6C181.673 356.453 182.073 357.673 182.073 359.26C182.073 360.847 181.673 362.067 180.873 362.92C180.086 363.773 178.833 364.2 177.113 364.2ZM177.113 362.36C178.113 362.36 178.819 362.12 179.233 361.64C179.659 361.147 179.873 360.353 179.873 359.26C179.873 358.167 179.659 357.38 179.233 356.9C178.819 356.42 178.113 356.18 177.113 356.18C176.126 356.18 175.419 356.42 174.993 356.9C174.579 357.38 174.373 358.167 174.373 359.26C174.373 360.353 174.579 361.147 174.993 361.64C175.419 362.12 176.126 362.36 177.113 362.36ZM187.614 364.2C186.48 364.2 185.607 363.887 184.994 363.26C184.394 362.633 184.094 361.713 184.094 360.5V354.52H186.274V360.5C186.274 361.207 186.447 361.727 186.794 362.06C187.14 362.393 187.674 362.56 188.394 362.56C188.927 362.56 189.42 362.46 189.874 362.26C190.327 362.06 190.72 361.793 191.054 361.46V354.52H193.214V364H191.234L191.134 363.02C190.707 363.353 190.2 363.633 189.614 363.86C189.027 364.087 188.36 364.2 187.614 364.2ZM195.756 364V354.52H197.756L197.876 355.62C198.329 355.327 198.869 355.06 199.496 354.82C200.123 354.58 200.743 354.413 201.356 354.32V355.98C200.983 356.047 200.576 356.147 200.136 356.28C199.709 356.4 199.303 356.54 198.916 356.7C198.529 356.847 198.203 357 197.936 357.16V364H195.756ZM202.944 364V354.52H204.944L205.044 355.52C205.47 355.187 205.977 354.907 206.564 354.68C207.164 354.44 207.824 354.32 208.544 354.32C209.77 354.32 210.664 354.607 211.224 355.18C211.784 355.753 212.064 356.647 212.064 357.86V364H209.904V357.96C209.904 357.227 209.75 356.713 209.444 356.42C209.15 356.127 208.59 355.98 207.764 355.98C207.27 355.98 206.784 356.08 206.304 356.28C205.837 356.48 205.444 356.74 205.124 357.06V364H202.944ZM217.173 364.2C216.573 364.2 216.013 364.093 215.493 363.88C214.986 363.667 214.58 363.347 214.273 362.92C213.966 362.48 213.813 361.94 213.813 361.3C213.813 360.393 214.12 359.667 214.733 359.12C215.36 358.56 216.32 358.28 217.613 358.28H220.653V357.86C220.653 357.407 220.58 357.047 220.433 356.78C220.3 356.513 220.046 356.32 219.673 356.2C219.313 356.08 218.78 356.02 218.073 356.02C216.953 356.02 215.906 356.187 214.933 356.52V354.9C215.36 354.727 215.88 354.587 216.493 354.48C217.106 354.373 217.766 354.32 218.473 354.32C219.86 354.32 220.913 354.6 221.633 355.16C222.366 355.72 222.733 356.633 222.733 357.9V364H220.873L220.733 363.04C220.346 363.413 219.866 363.7 219.293 363.9C218.733 364.1 218.026 364.2 217.173 364.2ZM217.753 362.64C218.406 362.64 218.973 362.533 219.453 362.32C219.946 362.093 220.346 361.793 220.653 361.42V359.76H217.653C217.013 359.76 216.546 359.887 216.253 360.14C215.973 360.38 215.833 360.753 215.833 361.26C215.833 361.753 216 362.107 216.333 362.32C216.666 362.533 217.14 362.64 217.753 362.64ZM227.511 364.2C226.737 364.2 226.151 364.013 225.751 363.64C225.351 363.253 225.151 362.62 225.151 361.74V350.52H227.331V361.54C227.331 361.913 227.397 362.167 227.531 362.3C227.664 362.433 227.864 362.5 228.131 362.5C228.451 362.5 228.757 362.46 229.051 362.38V363.96C228.797 364.053 228.551 364.113 228.311 364.14C228.084 364.18 227.817 364.2 227.511 364.2ZM1.88 394L6.8 381.12H9.24L14.12 394H11.88L10.6 390.68H5.42L4.14 394H1.88ZM5.76 389H10.24L8 383.1L5.76 389ZM16.2639 394V381.12H22.1839C23.6239 381.12 24.6706 381.493 25.3239 382.24C25.9906 382.973 26.3239 383.973 26.3239 385.24C26.3239 386.147 26.0972 386.92 25.6439 387.56C25.1906 388.2 24.5372 388.647 23.6839 388.9C23.9239 389.073 24.1106 389.26 24.2439 389.46C24.3772 389.66 24.5106 389.927 24.6439 390.26L26.2639 394H24.0239L22.4439 390.4C22.2972 390.053 22.1172 389.807 21.9039 389.66C21.7039 389.513 21.3572 389.44 20.8639 389.44H18.4439V394H16.2639ZM18.4439 387.68H21.6039C22.3906 387.68 23.0106 387.487 23.4639 387.1C23.9172 386.713 24.1439 386.093 24.1439 385.24C24.1439 383.627 23.3639 382.82 21.8039 382.82H18.4439V387.68ZM36.0403 394.2C35.4403 394.2 34.8803 394.093 34.3603 393.88C33.8536 393.667 33.447 393.347 33.1403 392.92C32.8336 392.48 32.6803 391.94 32.6803 391.3C32.6803 390.393 32.987 389.667 33.6003 389.12C34.227 388.56 35.187 388.28 36.4803 388.28H39.5203V387.86C39.5203 387.407 39.447 387.047 39.3003 386.78C39.167 386.513 38.9136 386.32 38.5403 386.2C38.1803 386.08 37.647 386.02 36.9403 386.02C35.8203 386.02 34.7736 386.187 33.8003 386.52V384.9C34.227 384.727 34.747 384.587 35.3603 384.48C35.9736 384.373 36.6336 384.32 37.3403 384.32C38.727 384.32 39.7803 384.6 40.5003 385.16C41.2336 385.72 41.6003 386.633 41.6003 387.9V394H39.7403L39.6003 393.04C39.2136 393.413 38.7336 393.7 38.1603 393.9C37.6003 394.1 36.8936 394.2 36.0403 394.2ZM36.6203 392.64C37.2736 392.64 37.8403 392.533 38.3203 392.32C38.8136 392.093 39.2136 391.793 39.5203 391.42V389.76H36.5203C35.8803 389.76 35.4136 389.887 35.1203 390.14C34.8403 390.38 34.7003 390.753 34.7003 391.26C34.7003 391.753 34.867 392.107 35.2003 392.32C35.5336 392.533 36.007 392.64 36.6203 392.64ZM44.0178 398.32V384.52H45.8978L46.0178 385.46C46.4445 385.073 46.9111 384.787 47.4178 384.6C47.9245 384.413 48.5245 384.32 49.2178 384.32C50.5778 384.32 51.6378 384.693 52.3978 385.44C53.1578 386.173 53.5378 387.393 53.5378 389.1C53.5378 390.807 53.1445 392.087 52.3578 392.94C51.5711 393.78 50.4978 394.2 49.1378 394.2C47.9911 394.2 47.0111 393.933 46.1978 393.4V398.32H44.0178ZM48.5778 392.56C50.4178 392.56 51.3378 391.4 51.3378 389.08C51.3378 387.96 51.1311 387.167 50.7178 386.7C50.3045 386.22 49.6111 385.98 48.6378 385.98C47.6645 385.98 46.8511 386.313 46.1978 386.98V391.72C46.5045 391.973 46.8445 392.18 47.2178 392.34C47.6045 392.487 48.0578 392.56 48.5778 392.56ZM55.6584 398.32V384.52H57.5384L57.6584 385.46C58.0851 385.073 58.5518 384.787 59.0584 384.6C59.5651 384.413 60.1651 384.32 60.8584 384.32C62.2184 384.32 63.2784 384.693 64.0384 385.44C64.7984 386.173 65.1784 387.393 65.1784 389.1C65.1784 390.807 64.7851 392.087 63.9984 392.94C63.2118 393.78 62.1384 394.2 60.7784 394.2C59.6318 394.2 58.6518 393.933 57.8384 393.4V398.32H55.6584ZM60.2184 392.56C62.0584 392.56 62.9784 391.4 62.9784 389.08C62.9784 387.96 62.7718 387.167 62.3584 386.7C61.9451 386.22 61.2518 385.98 60.2784 385.98C59.3051 385.98 58.4918 386.313 57.8384 386.98V391.72C58.1451 391.973 58.4851 392.18 58.8584 392.34C59.2451 392.487 59.6984 392.56 60.2184 392.56ZM69.6591 394.2C68.8857 394.2 68.2991 394.013 67.8991 393.64C67.4991 393.253 67.2991 392.62 67.2991 391.74V380.52H69.4791V391.54C69.4791 391.913 69.5457 392.167 69.6791 392.3C69.8124 392.433 70.0124 392.5 70.2791 392.5C70.5991 392.5 70.9057 392.46 71.1991 392.38V393.96C70.9457 394.053 70.6991 394.113 70.4591 394.14C70.2324 394.18 69.9657 394.2 69.6591 394.2ZM73.0014 382.54V380.74H75.3814V382.54H73.0014ZM73.1814 394V386.18H71.7414L71.9414 384.52H75.3614V394H73.1814ZM82.5645 394.2C80.8979 394.2 79.6379 393.78 78.7845 392.94C77.9312 392.087 77.5045 390.86 77.5045 389.26C77.5045 387.593 77.9712 386.353 78.9045 385.54C79.8512 384.727 81.1112 384.32 82.6845 384.32C83.3379 384.32 83.8845 384.367 84.3245 384.46C84.7779 384.553 85.2112 384.7 85.6245 384.9V386.52C84.9312 386.173 84.0912 386 83.1045 386C82.0112 386 81.1712 386.247 80.5845 386.74C79.9979 387.22 79.7045 388.06 79.7045 389.26C79.7045 390.393 79.9645 391.227 80.4845 391.76C81.0045 392.28 81.8645 392.54 83.0645 392.54C84.0112 392.54 84.8712 392.36 85.6445 392V393.66C85.2045 393.833 84.7312 393.967 84.2245 394.06C83.7312 394.153 83.1779 394.2 82.5645 394.2ZM90.3372 394.2C89.7372 394.2 89.1772 394.093 88.6572 393.88C88.1505 393.667 87.7439 393.347 87.4372 392.92C87.1305 392.48 86.9772 391.94 86.9772 391.3C86.9772 390.393 87.2839 389.667 87.8972 389.12C88.5239 388.56 89.4839 388.28 90.7772 388.28H93.8172V387.86C93.8172 387.407 93.7439 387.047 93.5972 386.78C93.4639 386.513 93.2105 386.32 92.8372 386.2C92.4772 386.08 91.9439 386.02 91.2372 386.02C90.1172 386.02 89.0705 386.187 88.0972 386.52V384.9C88.5239 384.727 89.0439 384.587 89.6572 384.48C90.2705 384.373 90.9305 384.32 91.6372 384.32C93.0239 384.32 94.0772 384.6 94.7972 385.16C95.5305 385.72 95.8972 386.633 95.8972 387.9V394H94.0372L93.8972 393.04C93.5105 393.413 93.0305 393.7 92.4572 393.9C91.8972 394.1 91.1905 394.2 90.3372 394.2ZM90.9172 392.64C91.5705 392.64 92.1372 392.533 92.6172 392.32C93.1105 392.093 93.5105 391.793 93.8172 391.42V389.76H90.8172C90.1772 389.76 89.7105 389.887 89.4172 390.14C89.1372 390.38 88.9972 390.753 88.9972 391.26C88.9972 391.753 89.1639 392.107 89.4972 392.32C89.8305 392.533 90.3039 392.64 90.9172 392.64ZM101.935 394.2C100.921 394.2 100.161 393.933 99.6547 393.4C99.1614 392.853 98.9147 392.113 98.9147 391.18V386.22H97.5147V384.52H98.9147V382.34L101.075 381.68V384.52H103.595L103.455 386.22H101.075V391.06C101.075 391.607 101.201 391.993 101.455 392.22C101.708 392.433 102.121 392.54 102.695 392.54C103.055 392.54 103.435 392.473 103.835 392.34V393.88C103.315 394.093 102.681 394.2 101.935 394.2ZM106.302 382.54V380.74H108.682V382.54H106.302ZM106.482 394V386.18H105.042L105.242 384.52H108.662V394H106.482ZM115.745 394.2C114.039 394.2 112.785 393.773 111.985 392.92C111.199 392.067 110.805 390.847 110.805 389.26C110.805 387.673 111.205 386.453 112.005 385.6C112.805 384.747 114.052 384.32 115.745 384.32C117.452 384.32 118.705 384.747 119.505 385.6C120.305 386.453 120.705 387.673 120.705 389.26C120.705 390.847 120.305 392.067 119.505 392.92C118.719 393.773 117.465 394.2 115.745 394.2ZM115.745 392.36C116.745 392.36 117.452 392.12 117.865 391.64C118.292 391.147 118.505 390.353 118.505 389.26C118.505 388.167 118.292 387.38 117.865 386.9C117.452 386.42 116.745 386.18 115.745 386.18C114.759 386.18 114.052 386.42 113.625 386.9C113.212 387.38 113.005 388.167 113.005 389.26C113.005 390.353 113.212 391.147 113.625 391.64C114.052 392.12 114.759 392.36 115.745 392.36ZM122.826 394V384.52H124.826L124.926 385.52C125.353 385.187 125.86 384.907 126.446 384.68C127.046 384.44 127.706 384.32 128.426 384.32C129.653 384.32 130.546 384.607 131.106 385.18C131.666 385.753 131.946 386.647 131.946 387.86V394H129.786V387.96C129.786 387.227 129.633 386.713 129.326 386.42C129.033 386.127 128.473 385.98 127.646 385.98C127.153 385.98 126.666 386.08 126.186 386.28C125.72 386.48 125.326 386.74 125.006 387.06V394H122.826ZM133.989 394V392.3H135.829V394H133.989Z" fill="black"/>
</svg>
