<svg width="400" height="400" viewBox="0 0 400 400" fill="none" xmlns="http://www.w3.org/2000/svg">
<circle cx="200" cy="200" r="200" fill="#E9C300"/>
<path d="M127.49 70V39.0625H139.865V45.0391H133.783V51.0684H139.619V56.8867H133.783V63.9707H140.27V70H127.49ZM142.221 70V43.6328H148.373V46.6914C148.654 45.6133 149.135 44.7871 149.814 44.2129C150.494 43.6387 151.49 43.3516 152.803 43.3516C153.857 43.3516 154.754 43.5977 155.492 44.0898C156.242 44.5703 156.77 45.209 157.074 46.0059C157.555 45.1387 158.117 44.4824 158.762 44.0371C159.418 43.5801 160.35 43.3516 161.557 43.3516C163.021 43.3516 164.146 43.668 164.932 44.3008C165.729 44.9219 166.279 45.7891 166.584 46.9023C166.9 48.0039 167.059 49.2812 167.059 50.7344V70H160.783V50.6289C160.783 48.9297 160.35 48.0801 159.482 48.0801C159.025 48.0801 158.674 48.2383 158.428 48.5547C158.182 48.8594 158.012 49.2402 157.918 49.6973C157.824 50.1543 157.777 50.6113 157.777 51.0684V70H151.502V50.6289C151.502 50.0781 151.432 49.5273 151.291 48.9766C151.162 48.4258 150.822 48.1504 150.271 48.1504C149.803 48.1504 149.439 48.3203 149.182 48.6602C148.924 49 148.748 49.4219 148.654 49.9258C148.561 50.418 148.514 50.9043 148.514 51.3848V70H142.221ZM177.201 70.2812C171.951 70.2812 169.326 67.5566 169.326 62.1074V51.5254C169.326 49.041 170.023 47.0605 171.418 45.584C172.812 44.0957 174.74 43.3516 177.201 43.3516C179.674 43.3516 181.607 44.0957 183.002 45.584C184.396 47.0605 185.094 49.041 185.094 51.5254V62.1074C185.094 67.5566 182.463 70.2812 177.201 70.2812ZM177.201 65.4297C177.729 65.4297 178.104 65.2422 178.326 64.8672C178.561 64.4805 178.678 63.9941 178.678 63.4082V50.5234C178.678 48.9883 178.186 48.2207 177.201 48.2207C176.217 48.2207 175.725 48.9883 175.725 50.5234V63.4082C175.725 63.9941 175.836 64.4805 176.059 64.8672C176.293 65.2422 176.674 65.4297 177.201 65.4297ZM187.537 70V39.0625H195.922C198.172 39.0625 199.807 39.6133 200.826 40.7148C201.857 41.8047 202.373 43.6094 202.373 46.1289V47.4824C202.373 48.9355 202.109 50.1133 201.582 51.0156C201.066 51.918 200.275 52.5098 199.209 52.791C200.604 53.1426 201.535 53.9688 202.004 55.2695C202.484 56.5586 202.725 58.1348 202.725 59.998C202.725 62.002 202.537 63.7539 202.162 65.2539C201.787 66.7539 201.107 67.9199 200.123 68.752C199.139 69.584 197.738 70 195.922 70H187.537ZM193.584 50.7168H194.85C195.424 50.7168 195.793 50.4941 195.957 50.0488C196.121 49.6035 196.203 49.0703 196.203 48.4492V45.3379C196.203 44.3418 195.764 43.8438 194.885 43.8438H193.584V50.7168ZM194.199 64.5508C195.805 64.5508 196.607 63.7891 196.607 62.2656V58.3984C196.607 57.5195 196.473 56.8281 196.203 56.3242C195.945 55.8086 195.453 55.5508 194.727 55.5508H193.584V64.5156C193.842 64.5391 194.047 64.5508 194.199 64.5508ZM209.738 70.2812C208.332 70.2812 207.254 69.9883 206.504 69.4023C205.766 68.8164 205.262 68.002 204.992 66.959C204.723 65.9043 204.588 64.6738 204.588 63.2676V43.6328H210.916V62.5293C210.916 63.584 210.998 64.3223 211.162 64.7441C211.326 65.1543 211.713 65.3594 212.322 65.3594C212.979 65.3594 213.389 65.0664 213.553 64.4805C213.729 63.8945 213.816 63.1387 213.816 62.2129V43.6328H220.092V70H213.799V67.1875C213.4 68.1953 212.92 68.9629 212.357 69.4902C211.807 70.0176 210.934 70.2812 209.738 70.2812ZM222.623 70V43.6328H228.916V46.9902C229.15 45.9824 229.584 45.127 230.217 44.4238C230.861 43.709 231.752 43.3516 232.889 43.3516C234.717 43.3516 236.041 43.9141 236.861 45.0391C237.693 46.1641 238.109 47.7051 238.109 49.6621V70H231.904V50.3125C231.904 49.7969 231.799 49.3223 231.588 48.8887C231.377 48.4434 231.014 48.2207 230.498 48.2207C230.018 48.2207 229.66 48.3906 229.426 48.7305C229.203 49.0586 229.062 49.4746 229.004 49.9785C228.945 50.4707 228.916 50.9629 228.916 51.4551V70H222.623ZM240.588 70V43.6328H246.881V46.9902C247.115 45.9824 247.549 45.127 248.182 44.4238C248.826 43.709 249.717 43.3516 250.854 43.3516C252.682 43.3516 254.006 43.9141 254.826 45.0391C255.658 46.1641 256.074 47.7051 256.074 49.6621V70H249.869V50.3125C249.869 49.7969 249.764 49.3223 249.553 48.8887C249.342 48.4434 248.979 48.2207 248.463 48.2207C247.982 48.2207 247.625 48.3906 247.391 48.7305C247.168 49.0586 247.027 49.4746 246.969 49.9785C246.91 50.4707 246.881 50.9629 246.881 51.4551V70H240.588ZM258.043 74.3945V70.4043H261.066C261.523 70.4043 261.752 70.2461 261.752 69.9297C261.752 69.7656 261.734 69.5957 261.699 69.4199L257.568 43.6328H263.598L265.355 63.0391L267.43 43.6328H273.494L268.607 71.3711C268.432 72.3672 268.092 73.1172 267.588 73.6211C267.096 74.1367 266.281 74.3945 265.145 74.3945H258.043Z" fill="black"/>
<path d="M14.1582 352.92V358.125C13.9824 358.385 13.7025 358.678 13.3184 359.004C12.9342 359.323 12.4036 359.603 11.7266 359.844C11.056 360.078 10.1901 360.195 9.12891 360.195C8.26302 360.195 7.46549 360.046 6.73633 359.746C6.01367 359.44 5.38542 358.997 4.85156 358.418C4.32422 357.832 3.91406 357.122 3.62109 356.289C3.33464 355.449 3.19141 354.499 3.19141 353.438V352.334C3.19141 351.273 3.3151 350.326 3.5625 349.492C3.81641 348.659 4.1875 347.952 4.67578 347.373C5.16406 346.787 5.76302 346.344 6.47266 346.045C7.18229 345.739 7.99609 345.586 8.91406 345.586C10.0013 345.586 10.9095 345.775 11.6387 346.152C12.3743 346.523 12.9473 347.038 13.3574 347.695C13.7741 348.353 14.041 349.102 14.1582 349.941H12.2734C12.1888 349.427 12.0195 348.958 11.7656 348.535C11.5182 348.112 11.1634 347.773 10.7012 347.52C10.2389 347.259 9.64323 347.129 8.91406 347.129C8.25651 347.129 7.68685 347.249 7.20508 347.49C6.72331 347.731 6.32617 348.076 6.01367 348.525C5.70117 348.975 5.4668 349.518 5.31055 350.156C5.16081 350.794 5.08594 351.514 5.08594 352.314V353.438C5.08594 354.258 5.18034 354.99 5.36914 355.635C5.56445 356.279 5.84115 356.829 6.19922 357.285C6.55729 357.734 6.98372 358.076 7.47852 358.311C7.97982 358.545 8.5332 358.662 9.13867 358.662C9.80924 358.662 10.3529 358.607 10.7695 358.496C11.1862 358.379 11.5117 358.242 11.7461 358.086C11.9805 357.923 12.1595 357.77 12.2832 357.627V354.443H8.99219V352.92H14.1582ZM23.2402 358.193V352.754C23.2402 352.337 23.1556 351.976 22.9863 351.67C22.8236 351.357 22.5762 351.117 22.2441 350.947C21.9121 350.778 21.502 350.693 21.0137 350.693C20.5579 350.693 20.1576 350.771 19.8125 350.928C19.474 351.084 19.207 351.289 19.0117 351.543C18.8229 351.797 18.7285 352.07 18.7285 352.363H16.9219C16.9219 351.986 17.0195 351.611 17.2148 351.24C17.4102 350.869 17.6901 350.534 18.0547 350.234C18.4258 349.928 18.8685 349.688 19.3828 349.512C19.9036 349.329 20.4831 349.238 21.1211 349.238C21.8893 349.238 22.5664 349.368 23.1523 349.629C23.7448 349.889 24.207 350.283 24.5391 350.811C24.8776 351.331 25.0469 351.986 25.0469 352.773V357.695C25.0469 358.047 25.0762 358.421 25.1348 358.818C25.1999 359.215 25.2943 359.557 25.418 359.844V360H23.5332C23.4421 359.792 23.3704 359.515 23.3184 359.17C23.2663 358.818 23.2402 358.493 23.2402 358.193ZM23.5527 353.594L23.5723 354.863H21.7461C21.2318 354.863 20.7728 354.906 20.3691 354.99C19.9655 355.068 19.627 355.189 19.3535 355.352C19.0801 355.514 18.8717 355.719 18.7285 355.967C18.5853 356.208 18.5137 356.491 18.5137 356.816C18.5137 357.148 18.5885 357.451 18.7383 357.725C18.888 357.998 19.1126 358.216 19.4121 358.379C19.7181 358.535 20.0924 358.613 20.5352 358.613C21.0885 358.613 21.5768 358.496 22 358.262C22.4232 358.027 22.7585 357.741 23.0059 357.402C23.2598 357.064 23.3965 356.735 23.416 356.416L24.1875 357.285C24.1419 357.559 24.0182 357.861 23.8164 358.193C23.6146 358.525 23.3444 358.844 23.0059 359.15C22.6738 359.45 22.2767 359.701 21.8145 359.902C21.3587 360.098 20.8444 360.195 20.2715 360.195C19.5553 360.195 18.9271 360.055 18.3867 359.775C17.8529 359.495 17.4362 359.121 17.1367 358.652C16.8438 358.177 16.6973 357.646 16.6973 357.061C16.6973 356.494 16.8079 355.996 17.0293 355.566C17.2507 355.13 17.5697 354.769 17.9863 354.482C18.403 354.189 18.9043 353.968 19.4902 353.818C20.0762 353.669 20.7305 353.594 21.4531 353.594H23.5527ZM29.6855 351.533V360H27.8691V349.434H29.5879L29.6855 351.533ZM29.3145 354.316L28.4746 354.287C28.4811 353.564 28.5755 352.897 28.7578 352.285C28.9401 351.667 29.2103 351.13 29.5684 350.674C29.9264 350.218 30.3724 349.867 30.9062 349.619C31.4401 349.365 32.0586 349.238 32.7617 349.238C33.2565 349.238 33.7122 349.31 34.1289 349.453C34.5456 349.59 34.9069 349.808 35.2129 350.107C35.5189 350.407 35.7565 350.791 35.9258 351.26C36.0951 351.729 36.1797 352.295 36.1797 352.959V360H34.373V353.047C34.373 352.493 34.2786 352.051 34.0898 351.719C33.9076 351.387 33.6471 351.146 33.3086 350.996C32.9701 350.84 32.5729 350.762 32.1172 350.762C31.5833 350.762 31.1374 350.856 30.7793 351.045C30.4212 351.234 30.1348 351.494 29.9199 351.826C29.7051 352.158 29.5488 352.539 29.4512 352.969C29.36 353.392 29.3145 353.841 29.3145 354.316ZM36.1602 353.32L34.9492 353.691C34.9557 353.112 35.0501 352.555 35.2324 352.021C35.4212 351.488 35.6914 351.012 36.043 350.596C36.401 350.179 36.8405 349.85 37.3613 349.609C37.8822 349.362 38.4779 349.238 39.1484 349.238C39.7148 349.238 40.2161 349.313 40.6523 349.463C41.0951 349.613 41.4661 349.844 41.7656 350.156C42.0716 350.462 42.3027 350.856 42.459 351.338C42.6152 351.82 42.6934 352.393 42.6934 353.057V360H40.877V353.037C40.877 352.445 40.7826 351.986 40.5938 351.66C40.4115 351.328 40.151 351.097 39.8125 350.967C39.4805 350.83 39.0833 350.762 38.6211 350.762C38.224 350.762 37.8724 350.83 37.5664 350.967C37.2604 351.104 37.0033 351.292 36.7949 351.533C36.5866 351.768 36.4271 352.038 36.3164 352.344C36.2122 352.65 36.1602 352.975 36.1602 353.32ZM47.3906 349.434V360H45.5742V349.434H47.3906ZM45.4375 346.631C45.4375 346.338 45.5254 346.09 45.7012 345.889C45.8835 345.687 46.1504 345.586 46.502 345.586C46.847 345.586 47.1107 345.687 47.293 345.889C47.4818 346.09 47.5762 346.338 47.5762 346.631C47.5762 346.911 47.4818 347.152 47.293 347.354C47.1107 347.549 46.847 347.646 46.502 347.646C46.1504 347.646 45.8835 347.549 45.7012 347.354C45.5254 347.152 45.4375 346.911 45.4375 346.631ZM52.7031 360H50.8965V348.516C50.8965 347.715 51.0527 347.038 51.3652 346.484C51.6777 345.931 52.1237 345.511 52.7031 345.225C53.2826 344.938 53.9694 344.795 54.7637 344.795C55.2324 344.795 55.6914 344.854 56.1406 344.971C56.5898 345.081 57.0521 345.221 57.5273 345.391L57.2246 346.914C56.9251 346.797 56.5768 346.686 56.1797 346.582C55.7891 346.471 55.3594 346.416 54.8906 346.416C54.1159 346.416 53.556 346.592 53.2109 346.943C52.8724 347.288 52.7031 347.812 52.7031 348.516V360ZM54.8613 349.434V350.82H49.2266V349.434H54.8613ZM58.416 349.434V360H56.6094V349.434H58.416ZM65.7695 360.195C65.0339 360.195 64.3665 360.072 63.7676 359.824C63.1751 359.57 62.6641 359.215 62.2344 358.76C61.8112 358.304 61.4857 357.764 61.2578 357.139C61.0299 356.514 60.916 355.83 60.916 355.088V354.678C60.916 353.818 61.043 353.053 61.2969 352.383C61.5508 351.706 61.8958 351.133 62.332 350.664C62.7682 350.195 63.263 349.84 63.8164 349.6C64.3698 349.359 64.9427 349.238 65.5352 349.238C66.2904 349.238 66.9414 349.368 67.4883 349.629C68.0417 349.889 68.4941 350.254 68.8457 350.723C69.1973 351.185 69.4577 351.732 69.627 352.363C69.7962 352.988 69.8809 353.672 69.8809 354.414V355.225H61.9902V353.75H68.0742V353.613C68.0482 353.145 67.9505 352.689 67.7812 352.246C67.6185 351.803 67.3581 351.439 67 351.152C66.6419 350.866 66.1536 350.723 65.5352 350.723C65.125 350.723 64.7474 350.811 64.4023 350.986C64.0573 351.156 63.7611 351.41 63.5137 351.748C63.2663 352.087 63.0742 352.5 62.9375 352.988C62.8008 353.477 62.7324 354.04 62.7324 354.678V355.088C62.7324 355.589 62.8008 356.061 62.9375 356.504C63.0807 356.94 63.2858 357.324 63.5527 357.656C63.8262 357.988 64.1549 358.249 64.5391 358.438C64.9297 358.626 65.3724 358.721 65.8672 358.721C66.5052 358.721 67.0456 358.59 67.4883 358.33C67.931 358.07 68.3184 357.721 68.6504 357.285L69.7441 358.154C69.5163 358.499 69.2266 358.828 68.875 359.141C68.5234 359.453 68.0905 359.707 67.5762 359.902C67.0684 360.098 66.4661 360.195 65.7695 360.195ZM78.6504 357.949V345H80.4668V360H78.8066L78.6504 357.949ZM71.541 354.834V354.629C71.541 353.822 71.6387 353.089 71.834 352.432C72.0358 351.768 72.319 351.198 72.6836 350.723C73.0547 350.247 73.4941 349.883 74.002 349.629C74.5163 349.368 75.0892 349.238 75.7207 349.238C76.3848 349.238 76.9642 349.355 77.459 349.59C77.9603 349.818 78.3835 350.153 78.7285 350.596C79.0801 351.032 79.3568 351.559 79.5586 352.178C79.7604 352.796 79.9004 353.496 79.9785 354.277V355.176C79.9069 355.951 79.7669 356.647 79.5586 357.266C79.3568 357.884 79.0801 358.411 78.7285 358.848C78.3835 359.284 77.9603 359.619 77.459 359.854C76.9577 360.081 76.3717 360.195 75.7012 360.195C75.0827 360.195 74.5163 360.062 74.002 359.795C73.4941 359.528 73.0547 359.154 72.6836 358.672C72.319 358.19 72.0358 357.624 71.834 356.973C71.6387 356.315 71.541 355.602 71.541 354.834ZM73.3574 354.629V354.834C73.3574 355.361 73.4095 355.856 73.5137 356.318C73.6243 356.781 73.7936 357.188 74.0215 357.539C74.2493 357.891 74.5391 358.167 74.8906 358.369C75.2422 358.564 75.6621 358.662 76.1504 358.662C76.7493 358.662 77.2409 358.535 77.625 358.281C78.0156 358.027 78.3281 357.692 78.5625 357.275C78.7969 356.859 78.9792 356.406 79.1094 355.918V353.564C79.0312 353.206 78.9173 352.861 78.7676 352.529C78.6243 352.191 78.4355 351.891 78.2012 351.631C77.9733 351.364 77.6901 351.152 77.3516 350.996C77.0195 350.84 76.6257 350.762 76.1699 350.762C75.6751 350.762 75.2487 350.866 74.8906 351.074C74.5391 351.276 74.2493 351.556 74.0215 351.914C73.7936 352.266 73.6243 352.676 73.5137 353.145C73.4095 353.607 73.3574 354.102 73.3574 354.629ZM92.625 360.195C91.8893 360.195 91.222 360.072 90.623 359.824C90.0306 359.57 89.5195 359.215 89.0898 358.76C88.6667 358.304 88.3411 357.764 88.1133 357.139C87.8854 356.514 87.7715 355.83 87.7715 355.088V354.678C87.7715 353.818 87.8984 353.053 88.1523 352.383C88.4062 351.706 88.7513 351.133 89.1875 350.664C89.6237 350.195 90.1185 349.84 90.6719 349.6C91.2253 349.359 91.7982 349.238 92.3906 349.238C93.1458 349.238 93.7969 349.368 94.3438 349.629C94.8971 349.889 95.3496 350.254 95.7012 350.723C96.0527 351.185 96.3132 351.732 96.4824 352.363C96.6517 352.988 96.7363 353.672 96.7363 354.414V355.225H88.8457V353.75H94.9297V353.613C94.9036 353.145 94.806 352.689 94.6367 352.246C94.474 351.803 94.2135 351.439 93.8555 351.152C93.4974 350.866 93.0091 350.723 92.3906 350.723C91.9805 350.723 91.6029 350.811 91.2578 350.986C90.9128 351.156 90.6165 351.41 90.3691 351.748C90.1217 352.087 89.9297 352.5 89.793 352.988C89.6562 353.477 89.5879 354.04 89.5879 354.678V355.088C89.5879 355.589 89.6562 356.061 89.793 356.504C89.9362 356.94 90.1413 357.324 90.4082 357.656C90.6816 357.988 91.0104 358.249 91.3945 358.438C91.7852 358.626 92.2279 358.721 92.7227 358.721C93.3607 358.721 93.901 358.59 94.3438 358.33C94.7865 358.07 95.1738 357.721 95.5059 357.285L96.5996 358.154C96.3717 358.499 96.082 358.828 95.7305 359.141C95.3789 359.453 94.946 359.707 94.4316 359.902C93.9238 360.098 93.3216 360.195 92.625 360.195ZM100.643 351.533V360H98.8262V349.434H100.545L100.643 351.533ZM100.271 354.316L99.4316 354.287C99.4382 353.564 99.5326 352.897 99.7148 352.285C99.8971 351.667 100.167 351.13 100.525 350.674C100.883 350.218 101.329 349.867 101.863 349.619C102.397 349.365 103.016 349.238 103.719 349.238C104.214 349.238 104.669 349.31 105.086 349.453C105.503 349.59 105.864 349.808 106.17 350.107C106.476 350.407 106.714 350.791 106.883 351.26C107.052 351.729 107.137 352.295 107.137 352.959V360H105.33V353.047C105.33 352.493 105.236 352.051 105.047 351.719C104.865 351.387 104.604 351.146 104.266 350.996C103.927 350.84 103.53 350.762 103.074 350.762C102.54 350.762 102.094 350.856 101.736 351.045C101.378 351.234 101.092 351.494 100.877 351.826C100.662 352.158 100.506 352.539 100.408 352.969C100.317 353.392 100.271 353.841 100.271 354.316ZM107.117 353.32L105.906 353.691C105.913 353.112 106.007 352.555 106.189 352.021C106.378 351.488 106.648 351.012 107 350.596C107.358 350.179 107.798 349.85 108.318 349.609C108.839 349.362 109.435 349.238 110.105 349.238C110.672 349.238 111.173 349.313 111.609 349.463C112.052 349.613 112.423 349.844 112.723 350.156C113.029 350.462 113.26 350.856 113.416 351.338C113.572 351.82 113.65 352.393 113.65 353.057V360H111.834V353.037C111.834 352.445 111.74 351.986 111.551 351.66C111.368 351.328 111.108 351.097 110.77 350.967C110.438 350.83 110.04 350.762 109.578 350.762C109.181 350.762 108.829 350.83 108.523 350.967C108.217 351.104 107.96 351.292 107.752 351.533C107.544 351.768 107.384 352.038 107.273 352.344C107.169 352.65 107.117 352.975 107.117 353.32ZM115.906 354.834V354.609C115.906 353.848 116.017 353.141 116.238 352.49C116.46 351.833 116.779 351.263 117.195 350.781C117.612 350.293 118.117 349.915 118.709 349.648C119.301 349.375 119.965 349.238 120.701 349.238C121.443 349.238 122.111 349.375 122.703 349.648C123.302 349.915 123.81 350.293 124.227 350.781C124.65 351.263 124.972 351.833 125.193 352.49C125.415 353.141 125.525 353.848 125.525 354.609V354.834C125.525 355.596 125.415 356.302 125.193 356.953C124.972 357.604 124.65 358.174 124.227 358.662C123.81 359.144 123.305 359.521 122.713 359.795C122.127 360.062 121.463 360.195 120.721 360.195C119.979 360.195 119.311 360.062 118.719 359.795C118.126 359.521 117.618 359.144 117.195 358.662C116.779 358.174 116.46 357.604 116.238 356.953C116.017 356.302 115.906 355.596 115.906 354.834ZM117.713 354.609V354.834C117.713 355.361 117.775 355.859 117.898 356.328C118.022 356.79 118.208 357.201 118.455 357.559C118.709 357.917 119.025 358.2 119.402 358.408C119.78 358.61 120.219 358.711 120.721 358.711C121.215 358.711 121.648 358.61 122.02 358.408C122.397 358.2 122.71 357.917 122.957 357.559C123.204 357.201 123.39 356.79 123.514 356.328C123.644 355.859 123.709 355.361 123.709 354.834V354.609C123.709 354.089 123.644 353.597 123.514 353.135C123.39 352.666 123.201 352.253 122.947 351.895C122.7 351.53 122.387 351.243 122.01 351.035C121.639 350.827 121.202 350.723 120.701 350.723C120.206 350.723 119.77 350.827 119.393 351.035C119.021 351.243 118.709 351.53 118.455 351.895C118.208 352.253 118.022 352.666 117.898 353.135C117.775 353.597 117.713 354.089 117.713 354.609ZM132.215 349.434V350.82H126.502V349.434H132.215ZM128.436 346.865H130.242V357.383C130.242 357.741 130.298 358.011 130.408 358.193C130.519 358.376 130.662 358.496 130.838 358.555C131.014 358.613 131.202 358.643 131.404 358.643C131.554 358.643 131.71 358.63 131.873 358.604C132.042 358.571 132.169 358.545 132.254 358.525L132.264 360C132.12 360.046 131.932 360.088 131.697 360.127C131.469 360.173 131.193 360.195 130.867 360.195C130.424 360.195 130.018 360.107 129.646 359.932C129.275 359.756 128.979 359.463 128.758 359.053C128.543 358.636 128.436 358.076 128.436 357.373V346.865ZM136.297 349.434V360H134.48V349.434H136.297ZM134.344 346.631C134.344 346.338 134.432 346.09 134.607 345.889C134.79 345.687 135.057 345.586 135.408 345.586C135.753 345.586 136.017 345.687 136.199 345.889C136.388 346.09 136.482 346.338 136.482 346.631C136.482 346.911 136.388 347.152 136.199 347.354C136.017 347.549 135.753 347.646 135.408 347.646C135.057 347.646 134.79 347.549 134.607 347.354C134.432 347.152 134.344 346.911 134.344 346.631ZM138.719 354.834V354.609C138.719 353.848 138.829 353.141 139.051 352.49C139.272 351.833 139.591 351.263 140.008 350.781C140.424 350.293 140.929 349.915 141.521 349.648C142.114 349.375 142.778 349.238 143.514 349.238C144.256 349.238 144.923 349.375 145.516 349.648C146.115 349.915 146.622 350.293 147.039 350.781C147.462 351.263 147.785 351.833 148.006 352.49C148.227 353.141 148.338 353.848 148.338 354.609V354.834C148.338 355.596 148.227 356.302 148.006 356.953C147.785 357.604 147.462 358.174 147.039 358.662C146.622 359.144 146.118 359.521 145.525 359.795C144.939 360.062 144.275 360.195 143.533 360.195C142.791 360.195 142.124 360.062 141.531 359.795C140.939 359.521 140.431 359.144 140.008 358.662C139.591 358.174 139.272 357.604 139.051 356.953C138.829 356.302 138.719 355.596 138.719 354.834ZM140.525 354.609V354.834C140.525 355.361 140.587 355.859 140.711 356.328C140.835 356.79 141.02 357.201 141.268 357.559C141.521 357.917 141.837 358.2 142.215 358.408C142.592 358.61 143.032 358.711 143.533 358.711C144.028 358.711 144.461 358.61 144.832 358.408C145.21 358.2 145.522 357.917 145.77 357.559C146.017 357.201 146.202 356.79 146.326 356.328C146.456 355.859 146.521 355.361 146.521 354.834V354.609C146.521 354.089 146.456 353.597 146.326 353.135C146.202 352.666 146.014 352.253 145.76 351.895C145.512 351.53 145.2 351.243 144.822 351.035C144.451 350.827 144.015 350.723 143.514 350.723C143.019 350.723 142.583 350.827 142.205 351.035C141.834 351.243 141.521 351.53 141.268 351.895C141.02 352.253 140.835 352.666 140.711 353.135C140.587 353.597 140.525 354.089 140.525 354.609ZM152.41 351.689V360H150.604V349.434H152.312L152.41 351.689ZM151.98 354.316L151.229 354.287C151.235 353.564 151.342 352.897 151.551 352.285C151.759 351.667 152.052 351.13 152.43 350.674C152.807 350.218 153.257 349.867 153.777 349.619C154.305 349.365 154.887 349.238 155.525 349.238C156.046 349.238 156.515 349.31 156.932 349.453C157.348 349.59 157.703 349.811 157.996 350.117C158.296 350.423 158.523 350.82 158.68 351.309C158.836 351.79 158.914 352.38 158.914 353.076V360H157.098V353.057C157.098 352.503 157.016 352.061 156.854 351.729C156.691 351.39 156.453 351.146 156.141 350.996C155.828 350.84 155.444 350.762 154.988 350.762C154.539 350.762 154.129 350.856 153.758 351.045C153.393 351.234 153.077 351.494 152.811 351.826C152.55 352.158 152.345 352.539 152.195 352.969C152.052 353.392 151.98 353.841 151.98 354.316ZM166.668 349.434H168.484V361.26C168.484 361.904 168.38 362.451 168.172 362.9C167.97 363.35 167.664 363.688 167.254 363.916C166.85 364.15 166.339 364.268 165.721 364.268C165.558 364.268 165.369 364.251 165.154 364.219C164.933 364.186 164.747 364.147 164.598 364.102L164.607 362.646C164.731 362.673 164.871 362.692 165.027 362.705C165.184 362.725 165.32 362.734 165.438 362.734C165.704 362.734 165.929 362.686 166.111 362.588C166.294 362.49 166.43 362.334 166.521 362.119C166.619 361.904 166.668 361.618 166.668 361.26V349.434ZM166.482 346.631C166.482 346.338 166.574 346.09 166.756 345.889C166.938 345.687 167.202 345.586 167.547 345.586C167.898 345.586 168.165 345.687 168.348 345.889C168.53 346.09 168.621 346.338 168.621 346.631C168.621 346.911 168.53 347.152 168.348 347.354C168.165 347.549 167.898 347.646 167.547 347.646C167.202 347.646 166.938 347.549 166.756 347.354C166.574 347.152 166.482 346.911 166.482 346.631ZM170.926 354.834V354.609C170.926 353.848 171.036 353.141 171.258 352.49C171.479 351.833 171.798 351.263 172.215 350.781C172.632 350.293 173.136 349.915 173.729 349.648C174.321 349.375 174.985 349.238 175.721 349.238C176.463 349.238 177.13 349.375 177.723 349.648C178.322 349.915 178.829 350.293 179.246 350.781C179.669 351.263 179.992 351.833 180.213 352.49C180.434 353.141 180.545 353.848 180.545 354.609V354.834C180.545 355.596 180.434 356.302 180.213 356.953C179.992 357.604 179.669 358.174 179.246 358.662C178.829 359.144 178.325 359.521 177.732 359.795C177.146 360.062 176.482 360.195 175.74 360.195C174.998 360.195 174.331 360.062 173.738 359.795C173.146 359.521 172.638 359.144 172.215 358.662C171.798 358.174 171.479 357.604 171.258 356.953C171.036 356.302 170.926 355.596 170.926 354.834ZM172.732 354.609V354.834C172.732 355.361 172.794 355.859 172.918 356.328C173.042 356.79 173.227 357.201 173.475 357.559C173.729 357.917 174.044 358.2 174.422 358.408C174.799 358.61 175.239 358.711 175.74 358.711C176.235 358.711 176.668 358.61 177.039 358.408C177.417 358.2 177.729 357.917 177.977 357.559C178.224 357.201 178.41 356.79 178.533 356.328C178.663 355.859 178.729 355.361 178.729 354.834V354.609C178.729 354.089 178.663 353.597 178.533 353.135C178.41 352.666 178.221 352.253 177.967 351.895C177.719 351.53 177.407 351.243 177.029 351.035C176.658 350.827 176.222 350.723 175.721 350.723C175.226 350.723 174.79 350.827 174.412 351.035C174.041 351.243 173.729 351.53 173.475 351.895C173.227 352.253 173.042 352.666 172.918 353.135C172.794 353.597 172.732 354.089 172.732 354.609ZM189.275 357.559V349.434H191.092V360H189.363L189.275 357.559ZM189.617 355.332L190.369 355.312C190.369 356.016 190.294 356.667 190.145 357.266C190.001 357.858 189.767 358.372 189.441 358.809C189.116 359.245 188.689 359.587 188.162 359.834C187.635 360.075 186.993 360.195 186.238 360.195C185.724 360.195 185.252 360.12 184.822 359.971C184.399 359.821 184.035 359.59 183.729 359.277C183.423 358.965 183.185 358.558 183.016 358.057C182.853 357.555 182.771 356.953 182.771 356.25V349.434H184.578V356.27C184.578 356.745 184.63 357.139 184.734 357.451C184.845 357.757 184.992 358.001 185.174 358.184C185.363 358.359 185.571 358.483 185.799 358.555C186.033 358.626 186.274 358.662 186.521 358.662C187.29 358.662 187.898 358.516 188.348 358.223C188.797 357.923 189.119 357.523 189.314 357.021C189.516 356.514 189.617 355.951 189.617 355.332ZM195.652 351.094V360H193.846V349.434H195.604L195.652 351.094ZM198.953 349.375L198.943 351.055C198.794 351.022 198.65 351.003 198.514 350.996C198.383 350.983 198.234 350.977 198.064 350.977C197.648 350.977 197.28 351.042 196.961 351.172C196.642 351.302 196.372 351.484 196.15 351.719C195.929 351.953 195.753 352.233 195.623 352.559C195.499 352.878 195.418 353.229 195.379 353.613L194.871 353.906C194.871 353.268 194.933 352.669 195.057 352.109C195.187 351.549 195.385 351.055 195.652 350.625C195.919 350.189 196.258 349.85 196.668 349.609C197.085 349.362 197.579 349.238 198.152 349.238C198.283 349.238 198.432 349.255 198.602 349.287C198.771 349.313 198.888 349.342 198.953 349.375ZM202.43 351.689V360H200.623V349.434H202.332L202.43 351.689ZM202 354.316L201.248 354.287C201.255 353.564 201.362 352.897 201.57 352.285C201.779 351.667 202.072 351.13 202.449 350.674C202.827 350.218 203.276 349.867 203.797 349.619C204.324 349.365 204.907 349.238 205.545 349.238C206.066 349.238 206.535 349.31 206.951 349.453C207.368 349.59 207.723 349.811 208.016 350.117C208.315 350.423 208.543 350.82 208.699 351.309C208.855 351.79 208.934 352.38 208.934 353.076V360H207.117V353.057C207.117 352.503 207.036 352.061 206.873 351.729C206.71 351.39 206.473 351.146 206.16 350.996C205.848 350.84 205.464 350.762 205.008 350.762C204.559 350.762 204.148 350.856 203.777 351.045C203.413 351.234 203.097 351.494 202.83 351.826C202.57 352.158 202.365 352.539 202.215 352.969C202.072 353.392 202 353.841 202 354.316ZM217.908 358.193V352.754C217.908 352.337 217.824 351.976 217.654 351.67C217.492 351.357 217.244 351.117 216.912 350.947C216.58 350.778 216.17 350.693 215.682 350.693C215.226 350.693 214.826 350.771 214.48 350.928C214.142 351.084 213.875 351.289 213.68 351.543C213.491 351.797 213.396 352.07 213.396 352.363H211.59C211.59 351.986 211.688 351.611 211.883 351.24C212.078 350.869 212.358 350.534 212.723 350.234C213.094 349.928 213.536 349.688 214.051 349.512C214.572 349.329 215.151 349.238 215.789 349.238C216.557 349.238 217.234 349.368 217.82 349.629C218.413 349.889 218.875 350.283 219.207 350.811C219.546 351.331 219.715 351.986 219.715 352.773V357.695C219.715 358.047 219.744 358.421 219.803 358.818C219.868 359.215 219.962 359.557 220.086 359.844V360H218.201C218.11 359.792 218.038 359.515 217.986 359.17C217.934 358.818 217.908 358.493 217.908 358.193ZM218.221 353.594L218.24 354.863H216.414C215.9 354.863 215.441 354.906 215.037 354.99C214.633 355.068 214.295 355.189 214.021 355.352C213.748 355.514 213.54 355.719 213.396 355.967C213.253 356.208 213.182 356.491 213.182 356.816C213.182 357.148 213.257 357.451 213.406 357.725C213.556 357.998 213.781 358.216 214.08 358.379C214.386 358.535 214.76 358.613 215.203 358.613C215.757 358.613 216.245 358.496 216.668 358.262C217.091 358.027 217.426 357.741 217.674 357.402C217.928 357.064 218.064 356.735 218.084 356.416L218.855 357.285C218.81 357.559 218.686 357.861 218.484 358.193C218.283 358.525 218.012 358.844 217.674 359.15C217.342 359.45 216.945 359.701 216.482 359.902C216.027 360.098 215.512 360.195 214.939 360.195C214.223 360.195 213.595 360.055 213.055 359.775C212.521 359.495 212.104 359.121 211.805 358.652C211.512 358.177 211.365 357.646 211.365 357.061C211.365 356.494 211.476 355.996 211.697 355.566C211.919 355.13 212.238 354.769 212.654 354.482C213.071 354.189 213.572 353.968 214.158 353.818C214.744 353.669 215.398 353.594 216.121 353.594H218.221ZM224.52 345V360H222.703V345H224.52ZM8.91406 370.041L4.20703 383H2.2832L7.70312 368.781H8.94336L8.91406 370.041ZM12.8594 383L8.14258 370.041L8.11328 368.781H9.35352L14.793 383H12.8594ZM12.6152 377.736V379.279H4.62695V377.736H12.6152ZM16.6973 368.781H21.4043C22.472 368.781 23.3737 368.944 24.1094 369.27C24.8516 369.595 25.4147 370.077 25.7988 370.715C26.1895 371.346 26.3848 372.124 26.3848 373.049C26.3848 373.7 26.2513 374.296 25.9844 374.836C25.724 375.37 25.3464 375.826 24.8516 376.203C24.3633 376.574 23.7773 376.851 23.0938 377.033L22.5664 377.238H18.1426L18.123 375.705H21.4629C22.14 375.705 22.7031 375.588 23.1523 375.354C23.6016 375.113 23.9401 374.79 24.168 374.387C24.3958 373.983 24.5098 373.537 24.5098 373.049C24.5098 372.502 24.4023 372.023 24.1875 371.613C23.9727 371.203 23.6341 370.887 23.1719 370.666C22.7161 370.438 22.127 370.324 21.4043 370.324H18.582V383H16.6973V368.781ZM25.0078 383L21.5508 376.555L23.5137 376.545L27.0195 382.883V383H25.0078ZM39.9395 381.193V375.754C39.9395 375.337 39.8548 374.976 39.6855 374.67C39.5228 374.357 39.2754 374.117 38.9434 373.947C38.6113 373.778 38.2012 373.693 37.7129 373.693C37.2572 373.693 36.8568 373.771 36.5117 373.928C36.1732 374.084 35.9062 374.289 35.7109 374.543C35.5221 374.797 35.4277 375.07 35.4277 375.363H33.6211C33.6211 374.986 33.7188 374.611 33.9141 374.24C34.1094 373.869 34.3893 373.534 34.7539 373.234C35.125 372.928 35.5677 372.688 36.082 372.512C36.6029 372.329 37.1823 372.238 37.8203 372.238C38.5885 372.238 39.2656 372.368 39.8516 372.629C40.444 372.889 40.9062 373.283 41.2383 373.811C41.5768 374.331 41.7461 374.986 41.7461 375.773V380.695C41.7461 381.047 41.7754 381.421 41.834 381.818C41.8991 382.215 41.9935 382.557 42.1172 382.844V383H40.2324C40.1413 382.792 40.0697 382.515 40.0176 382.17C39.9655 381.818 39.9395 381.493 39.9395 381.193ZM40.252 376.594L40.2715 377.863H38.4453C37.931 377.863 37.472 377.906 37.0684 377.99C36.6647 378.068 36.3262 378.189 36.0527 378.352C35.7793 378.514 35.571 378.719 35.4277 378.967C35.2845 379.208 35.2129 379.491 35.2129 379.816C35.2129 380.148 35.2878 380.451 35.4375 380.725C35.5872 380.998 35.8118 381.216 36.1113 381.379C36.4173 381.535 36.7917 381.613 37.2344 381.613C37.7878 381.613 38.276 381.496 38.6992 381.262C39.1224 381.027 39.4577 380.741 39.7051 380.402C39.959 380.064 40.0957 379.735 40.1152 379.416L40.8867 380.285C40.8411 380.559 40.7174 380.861 40.5156 381.193C40.3138 381.525 40.0436 381.844 39.7051 382.15C39.373 382.45 38.9759 382.701 38.5137 382.902C38.0579 383.098 37.5436 383.195 36.9707 383.195C36.2546 383.195 35.6263 383.055 35.0859 382.775C34.5521 382.495 34.1354 382.121 33.8359 381.652C33.543 381.177 33.3965 380.646 33.3965 380.061C33.3965 379.494 33.5072 378.996 33.7285 378.566C33.9499 378.13 34.2689 377.769 34.6855 377.482C35.1022 377.189 35.6035 376.968 36.1895 376.818C36.7754 376.669 37.4297 376.594 38.1523 376.594H40.252ZM46.3945 374.465V387.062H44.5781V372.434H46.2383L46.3945 374.465ZM53.5137 377.629V377.834C53.5137 378.602 53.4225 379.315 53.2402 379.973C53.0579 380.624 52.791 381.19 52.4395 381.672C52.0944 382.154 51.668 382.528 51.1602 382.795C50.6523 383.062 50.0697 383.195 49.4121 383.195C48.7415 383.195 48.1491 383.085 47.6348 382.863C47.1204 382.642 46.6842 382.32 46.3262 381.896C45.9681 381.473 45.6816 380.965 45.4668 380.373C45.2585 379.781 45.1152 379.113 45.0371 378.371V377.277C45.1152 376.496 45.2617 375.796 45.4766 375.178C45.6914 374.559 45.9746 374.032 46.3262 373.596C46.6842 373.153 47.1172 372.818 47.625 372.59C48.1328 372.355 48.7188 372.238 49.3828 372.238C50.0469 372.238 50.6361 372.368 51.1504 372.629C51.6647 372.883 52.0977 373.247 52.4492 373.723C52.8008 374.198 53.0645 374.768 53.2402 375.432C53.4225 376.089 53.5137 376.822 53.5137 377.629ZM51.6973 377.834V377.629C51.6973 377.102 51.6419 376.607 51.5312 376.145C51.4206 375.676 51.248 375.266 51.0137 374.914C50.7858 374.556 50.4928 374.276 50.1348 374.074C49.7767 373.866 49.3503 373.762 48.8555 373.762C48.3997 373.762 48.0026 373.84 47.6641 373.996C47.332 374.152 47.0488 374.364 46.8145 374.631C46.5801 374.891 46.388 375.191 46.2383 375.529C46.0951 375.861 45.9876 376.206 45.916 376.564V379.094C46.0462 379.549 46.2285 379.979 46.4629 380.383C46.6973 380.78 47.0098 381.102 47.4004 381.35C47.791 381.59 48.2826 381.711 48.875 381.711C49.3633 381.711 49.7832 381.61 50.1348 381.408C50.4928 381.2 50.7858 380.917 51.0137 380.559C51.248 380.201 51.4206 379.79 51.5312 379.328C51.6419 378.859 51.6973 378.361 51.6973 377.834ZM57.625 374.465V387.062H55.8086V372.434H57.4688L57.625 374.465ZM64.7441 377.629V377.834C64.7441 378.602 64.653 379.315 64.4707 379.973C64.2884 380.624 64.0215 381.19 63.6699 381.672C63.3249 382.154 62.8984 382.528 62.3906 382.795C61.8828 383.062 61.3001 383.195 60.6426 383.195C59.972 383.195 59.3796 383.085 58.8652 382.863C58.3509 382.642 57.9147 382.32 57.5566 381.896C57.1986 381.473 56.9121 380.965 56.6973 380.373C56.4889 379.781 56.3457 379.113 56.2676 378.371V377.277C56.3457 376.496 56.4922 375.796 56.707 375.178C56.9219 374.559 57.2051 374.032 57.5566 373.596C57.9147 373.153 58.3477 372.818 58.8555 372.59C59.3633 372.355 59.9492 372.238 60.6133 372.238C61.2773 372.238 61.8665 372.368 62.3809 372.629C62.8952 372.883 63.3281 373.247 63.6797 373.723C64.0312 374.198 64.2949 374.768 64.4707 375.432C64.653 376.089 64.7441 376.822 64.7441 377.629ZM62.9277 377.834V377.629C62.9277 377.102 62.8724 376.607 62.7617 376.145C62.651 375.676 62.4785 375.266 62.2441 374.914C62.0163 374.556 61.7233 374.276 61.3652 374.074C61.0072 373.866 60.5807 373.762 60.0859 373.762C59.6302 373.762 59.2331 373.84 58.8945 373.996C58.5625 374.152 58.2793 374.364 58.0449 374.631C57.8105 374.891 57.6185 375.191 57.4688 375.529C57.3255 375.861 57.2181 376.206 57.1465 376.564V379.094C57.2767 379.549 57.459 379.979 57.6934 380.383C57.9277 380.78 58.2402 381.102 58.6309 381.35C59.0215 381.59 59.513 381.711 60.1055 381.711C60.5938 381.711 61.0137 381.61 61.3652 381.408C61.7233 381.2 62.0163 380.917 62.2441 380.559C62.4785 380.201 62.651 379.79 62.7617 379.328C62.8724 378.859 62.9277 378.361 62.9277 377.834ZM69.0117 368V383H67.1953V368H69.0117ZM73.875 372.434V383H72.0586V372.434H73.875ZM71.9219 369.631C71.9219 369.338 72.0098 369.09 72.1855 368.889C72.3678 368.687 72.6348 368.586 72.9863 368.586C73.3314 368.586 73.5951 368.687 73.7773 368.889C73.9661 369.09 74.0605 369.338 74.0605 369.631C74.0605 369.911 73.9661 370.152 73.7773 370.354C73.5951 370.549 73.3314 370.646 72.9863 370.646C72.6348 370.646 72.3678 370.549 72.1855 370.354C72.0098 370.152 71.9219 369.911 71.9219 369.631ZM81.0039 381.711C81.4336 381.711 81.8307 381.623 82.1953 381.447C82.5599 381.271 82.8594 381.031 83.0938 380.725C83.3281 380.412 83.4616 380.057 83.4941 379.66H85.2129C85.1803 380.285 84.9688 380.868 84.5781 381.408C84.194 381.942 83.6895 382.375 83.0645 382.707C82.4395 383.033 81.7526 383.195 81.0039 383.195C80.2096 383.195 79.5163 383.055 78.9238 382.775C78.3379 382.495 77.8496 382.111 77.459 381.623C77.0749 381.135 76.7852 380.575 76.5898 379.943C76.401 379.305 76.3066 378.632 76.3066 377.922V377.512C76.3066 376.802 76.401 376.132 76.5898 375.5C76.7852 374.862 77.0749 374.299 77.459 373.811C77.8496 373.322 78.3379 372.938 78.9238 372.658C79.5163 372.378 80.2096 372.238 81.0039 372.238C81.8307 372.238 82.5534 372.408 83.1719 372.746C83.7904 373.078 84.2754 373.534 84.627 374.113C84.985 374.686 85.1803 375.337 85.2129 376.066H83.4941C83.4616 375.63 83.3379 375.236 83.123 374.885C82.9147 374.533 82.6283 374.253 82.2637 374.045C81.9056 373.83 81.4857 373.723 81.0039 373.723C80.4505 373.723 79.985 373.833 79.6074 374.055C79.2363 374.27 78.9401 374.562 78.7188 374.934C78.5039 375.298 78.3477 375.705 78.25 376.154C78.1589 376.597 78.1133 377.049 78.1133 377.512V377.922C78.1133 378.384 78.1589 378.84 78.25 379.289C78.3411 379.738 78.4941 380.145 78.709 380.51C78.9303 380.874 79.2266 381.167 79.5977 381.389C79.9753 381.604 80.444 381.711 81.0039 381.711ZM93.4746 381.193V375.754C93.4746 375.337 93.39 374.976 93.2207 374.67C93.0579 374.357 92.8105 374.117 92.4785 373.947C92.1465 373.778 91.7363 373.693 91.248 373.693C90.7923 373.693 90.3919 373.771 90.0469 373.928C89.7083 374.084 89.4414 374.289 89.2461 374.543C89.0573 374.797 88.9629 375.07 88.9629 375.363H87.1562C87.1562 374.986 87.2539 374.611 87.4492 374.24C87.6445 373.869 87.9245 373.534 88.2891 373.234C88.6602 372.928 89.1029 372.688 89.6172 372.512C90.138 372.329 90.7174 372.238 91.3555 372.238C92.1237 372.238 92.8008 372.368 93.3867 372.629C93.9792 372.889 94.4414 373.283 94.7734 373.811C95.112 374.331 95.2812 374.986 95.2812 375.773V380.695C95.2812 381.047 95.3105 381.421 95.3691 381.818C95.4342 382.215 95.5286 382.557 95.6523 382.844V383H93.7676C93.6764 382.792 93.6048 382.515 93.5527 382.17C93.5007 381.818 93.4746 381.493 93.4746 381.193ZM93.7871 376.594L93.8066 377.863H91.9805C91.4661 377.863 91.0072 377.906 90.6035 377.99C90.1999 378.068 89.8613 378.189 89.5879 378.352C89.3145 378.514 89.1061 378.719 88.9629 378.967C88.8197 379.208 88.748 379.491 88.748 379.816C88.748 380.148 88.8229 380.451 88.9727 380.725C89.1224 380.998 89.347 381.216 89.6465 381.379C89.9525 381.535 90.3268 381.613 90.7695 381.613C91.3229 381.613 91.8112 381.496 92.2344 381.262C92.6576 381.027 92.9928 380.741 93.2402 380.402C93.4941 380.064 93.6309 379.735 93.6504 379.416L94.4219 380.285C94.3763 380.559 94.2526 380.861 94.0508 381.193C93.849 381.525 93.5788 381.844 93.2402 382.15C92.9082 382.45 92.5111 382.701 92.0488 382.902C91.5931 383.098 91.0788 383.195 90.5059 383.195C89.7897 383.195 89.1615 383.055 88.6211 382.775C88.0872 382.495 87.6706 382.121 87.3711 381.652C87.0781 381.177 86.9316 380.646 86.9316 380.061C86.9316 379.494 87.0423 378.996 87.2637 378.566C87.485 378.13 87.804 377.769 88.2207 377.482C88.6374 377.189 89.1387 376.968 89.7246 376.818C90.3105 376.669 90.9648 376.594 91.6875 376.594H93.7871ZM102.547 372.434V373.82H96.834V372.434H102.547ZM98.7676 369.865H100.574V380.383C100.574 380.741 100.63 381.011 100.74 381.193C100.851 381.376 100.994 381.496 101.17 381.555C101.346 381.613 101.535 381.643 101.736 381.643C101.886 381.643 102.042 381.63 102.205 381.604C102.374 381.571 102.501 381.545 102.586 381.525L102.596 383C102.452 383.046 102.264 383.088 102.029 383.127C101.801 383.173 101.525 383.195 101.199 383.195C100.757 383.195 100.35 383.107 99.9785 382.932C99.6074 382.756 99.3112 382.463 99.0898 382.053C98.875 381.636 98.7676 381.076 98.7676 380.373V369.865ZM106.629 372.434V383H104.812V372.434H106.629ZM104.676 369.631C104.676 369.338 104.764 369.09 104.939 368.889C105.122 368.687 105.389 368.586 105.74 368.586C106.085 368.586 106.349 368.687 106.531 368.889C106.72 369.09 106.814 369.338 106.814 369.631C106.814 369.911 106.72 370.152 106.531 370.354C106.349 370.549 106.085 370.646 105.74 370.646C105.389 370.646 105.122 370.549 104.939 370.354C104.764 370.152 104.676 369.911 104.676 369.631ZM109.051 377.834V377.609C109.051 376.848 109.161 376.141 109.383 375.49C109.604 374.833 109.923 374.263 110.34 373.781C110.757 373.293 111.261 372.915 111.854 372.648C112.446 372.375 113.11 372.238 113.846 372.238C114.588 372.238 115.255 372.375 115.848 372.648C116.447 372.915 116.954 373.293 117.371 373.781C117.794 374.263 118.117 374.833 118.338 375.49C118.559 376.141 118.67 376.848 118.67 377.609V377.834C118.67 378.596 118.559 379.302 118.338 379.953C118.117 380.604 117.794 381.174 117.371 381.662C116.954 382.144 116.45 382.521 115.857 382.795C115.271 383.062 114.607 383.195 113.865 383.195C113.123 383.195 112.456 383.062 111.863 382.795C111.271 382.521 110.763 382.144 110.34 381.662C109.923 381.174 109.604 380.604 109.383 379.953C109.161 379.302 109.051 378.596 109.051 377.834ZM110.857 377.609V377.834C110.857 378.361 110.919 378.859 111.043 379.328C111.167 379.79 111.352 380.201 111.6 380.559C111.854 380.917 112.169 381.2 112.547 381.408C112.924 381.61 113.364 381.711 113.865 381.711C114.36 381.711 114.793 381.61 115.164 381.408C115.542 381.2 115.854 380.917 116.102 380.559C116.349 380.201 116.535 379.79 116.658 379.328C116.788 378.859 116.854 378.361 116.854 377.834V377.609C116.854 377.089 116.788 376.597 116.658 376.135C116.535 375.666 116.346 375.253 116.092 374.895C115.844 374.53 115.532 374.243 115.154 374.035C114.783 373.827 114.347 373.723 113.846 373.723C113.351 373.723 112.915 373.827 112.537 374.035C112.166 374.243 111.854 374.53 111.6 374.895C111.352 375.253 111.167 375.666 111.043 376.135C110.919 376.597 110.857 377.089 110.857 377.609ZM122.742 374.689V383H120.936V372.434H122.645L122.742 374.689ZM122.312 377.316L121.561 377.287C121.567 376.564 121.674 375.897 121.883 375.285C122.091 374.667 122.384 374.13 122.762 373.674C123.139 373.218 123.589 372.867 124.109 372.619C124.637 372.365 125.219 372.238 125.857 372.238C126.378 372.238 126.847 372.31 127.264 372.453C127.68 372.59 128.035 372.811 128.328 373.117C128.628 373.423 128.855 373.82 129.012 374.309C129.168 374.79 129.246 375.38 129.246 376.076V383H127.43V376.057C127.43 375.503 127.348 375.061 127.186 374.729C127.023 374.39 126.785 374.146 126.473 373.996C126.16 373.84 125.776 373.762 125.32 373.762C124.871 373.762 124.461 373.856 124.09 374.045C123.725 374.234 123.41 374.494 123.143 374.826C122.882 375.158 122.677 375.539 122.527 375.969C122.384 376.392 122.312 376.841 122.312 377.316ZM132.02 382.043C132.02 381.737 132.114 381.48 132.303 381.271C132.498 381.057 132.778 380.949 133.143 380.949C133.507 380.949 133.784 381.057 133.973 381.271C134.168 381.48 134.266 381.737 134.266 382.043C134.266 382.342 134.168 382.596 133.973 382.805C133.784 383.013 133.507 383.117 133.143 383.117C132.778 383.117 132.498 383.013 132.303 382.805C132.114 382.596 132.02 382.342 132.02 382.043Z" fill="black"/>
</svg>
