<svg width="400" height="400" viewBox="0 0 400 400" fill="none" xmlns="http://www.w3.org/2000/svg">
<circle cx="200" cy="200" r="200" fill="#E9635C"/>
<path d="M132.306 54V37.36H126.258V33.392H143.506V37.36H137.458V54H132.306ZM145.82 54V32.432H150.972V39.952C151.548 39.5253 152.262 39.184 153.116 38.928C153.969 38.6507 154.886 38.512 155.868 38.512C157.894 38.512 159.377 38.992 160.316 39.952C161.276 40.912 161.756 42.384 161.756 44.368V54H156.604V44.72C156.604 43.8453 156.422 43.2267 156.06 42.864C155.697 42.5013 155.046 42.32 154.108 42.32C153.553 42.32 152.988 42.448 152.411 42.704C151.836 42.96 151.356 43.28 150.972 43.664V54H145.82ZM172.791 54.32C170.146 54.32 168.023 53.6693 166.423 52.368C164.823 51.0453 164.023 49.0613 164.023 46.416C164.023 44.0053 164.685 42.0853 166.007 40.656C167.33 39.2267 169.314 38.512 171.959 38.512C174.37 38.512 176.237 39.1307 177.559 40.368C178.882 41.6053 179.543 43.2693 179.543 45.36V48.08H168.791C169.026 49.0827 169.57 49.7867 170.423 50.192C171.298 50.576 172.482 50.768 173.975 50.768C174.807 50.768 175.65 50.6933 176.503 50.544C177.378 50.3947 178.103 50.2027 178.679 49.968V53.328C177.954 53.6693 177.09 53.9147 176.087 54.064C175.085 54.2347 173.986 54.32 172.791 54.32ZM168.791 45.104H175.063V44.432C175.063 43.6853 174.839 43.0987 174.391 42.672C173.943 42.224 173.186 42 172.119 42C170.882 42 170.018 42.256 169.527 42.768C169.037 43.2587 168.791 44.0373 168.791 45.104ZM196.942 54.32C194.02 54.32 191.865 53.648 190.478 52.304C189.092 50.9387 188.398 48.976 188.398 46.416C188.398 43.8773 189.092 41.9253 190.478 40.56C191.886 39.1947 194.041 38.512 196.942 38.512C199.865 38.512 202.02 39.1947 203.406 40.56C204.814 41.9253 205.518 43.8773 205.518 46.416C205.518 48.976 204.825 50.9387 203.438 52.304C202.052 53.648 199.886 54.32 196.942 54.32ZM196.942 50.288C198.137 50.288 198.99 49.9893 199.502 49.392C200.014 48.7947 200.27 47.8027 200.27 46.416C200.27 45.0293 200.014 44.0373 199.502 43.44C198.99 42.8427 198.137 42.544 196.942 42.544C195.769 42.544 194.926 42.8427 194.414 43.44C193.902 44.0373 193.646 45.0293 193.646 46.416C193.646 47.8027 193.902 48.7947 194.414 49.392C194.926 49.9893 195.769 50.288 196.942 50.288ZM214.372 54.32C212.495 54.32 211.108 53.84 210.212 52.88C209.337 51.92 208.9 50.5973 208.9 48.912V42.736H206.852V38.832H208.9V35.664L214.052 34.288V38.832H217.732L217.508 42.736H214.052V48.56C214.052 49.2853 214.233 49.7973 214.596 50.096C214.959 50.3733 215.503 50.512 216.228 50.512C216.847 50.512 217.476 50.4053 218.116 50.192V53.68C217.113 54.1067 215.865 54.32 214.372 54.32ZM220.101 54V32.432H225.253V39.952C225.829 39.5253 226.543 39.184 227.397 38.928C228.25 38.6507 229.167 38.512 230.149 38.512C232.175 38.512 233.658 38.992 234.597 39.952C235.557 40.912 236.037 42.384 236.037 44.368V54H230.885V44.72C230.885 43.8453 230.703 43.2267 230.341 42.864C229.978 42.5013 229.327 42.32 228.389 42.32C227.834 42.32 227.269 42.448 226.693 42.704C226.117 42.96 225.637 43.28 225.253 43.664V54H220.101ZM247.073 54.32C244.427 54.32 242.305 53.6693 240.705 52.368C239.105 51.0453 238.305 49.0613 238.305 46.416C238.305 44.0053 238.966 42.0853 240.289 40.656C241.611 39.2267 243.595 38.512 246.241 38.512C248.651 38.512 250.518 39.1307 251.841 40.368C253.163 41.6053 253.825 43.2693 253.825 45.36V48.08H243.073C243.307 49.0827 243.851 49.7867 244.705 50.192C245.579 50.576 246.763 50.768 248.257 50.768C249.089 50.768 249.931 50.6933 250.785 50.544C251.659 50.3947 252.385 50.2027 252.961 49.968V53.328C252.235 53.6693 251.371 53.9147 250.369 54.064C249.366 54.2347 248.267 54.32 247.073 54.32ZM243.073 45.104H249.345V44.432C249.345 43.6853 249.121 43.0987 248.673 42.672C248.225 42.224 247.467 42 246.401 42C245.163 42 244.299 42.256 243.809 42.768C243.318 43.2587 243.073 44.0373 243.073 45.104ZM256.445 54V38.832H261.341L261.501 40.24C262.162 39.8347 262.983 39.472 263.965 39.152C264.946 38.8107 265.927 38.5973 266.909 38.512V42.384C266.354 42.448 265.735 42.5547 265.053 42.704C264.391 42.832 263.751 42.992 263.133 43.184C262.535 43.376 262.023 43.5787 261.597 43.792V54H256.445ZM98.8265 86.32C97.6105 86.32 96.4585 86.2347 95.3705 86.064C94.2825 85.8933 93.4185 85.68 92.7785 85.424V81.488C93.5252 81.808 94.3892 82.0533 95.3705 82.224C96.3518 82.3947 97.2265 82.48 97.9945 82.48C98.9118 82.48 99.5732 82.4373 99.9785 82.352C100.405 82.2667 100.619 82.032 100.619 81.648C100.619 81.2213 100.277 80.9013 99.5945 80.688C98.9118 80.4747 97.9732 80.1653 96.7785 79.76C95.3918 79.2693 94.3358 78.704 93.6105 78.064C92.9065 77.4027 92.5545 76.432 92.5545 75.152C92.5545 73.6587 93.1092 72.5173 94.2185 71.728C95.3492 70.9173 97.1412 70.512 99.5945 70.512C100.555 70.512 101.504 70.5867 102.443 70.736C103.381 70.8853 104.149 71.056 104.747 71.248V75.12C104.149 74.8427 103.467 74.64 102.699 74.512C101.931 74.384 101.237 74.32 100.619 74.32C99.8292 74.32 99.1572 74.3733 98.6025 74.48C98.0692 74.5653 97.8025 74.7893 97.8025 75.152C97.8025 75.5573 98.1012 75.8453 98.6985 76.016C99.2958 76.1653 100.16 76.4213 101.291 76.784C102.485 77.1467 103.413 77.5413 104.075 77.968C104.736 78.3733 105.205 78.864 105.483 79.44C105.76 80.016 105.899 80.7413 105.899 81.616C105.899 83.1307 105.301 84.2933 104.107 85.104C102.912 85.9147 101.152 86.32 98.8265 86.32ZM109.531 68.432V64.56H115.131V68.432H109.531ZM109.947 86V74.64H107.707L108.155 70.832H115.099V86H109.947ZM124.75 86.32C123.278 86.32 122.019 86.0853 120.974 85.616C119.929 85.1467 119.129 84.3787 118.574 83.312C118.019 82.224 117.742 80.7733 117.742 78.96C117.742 77.1253 118.062 75.5893 118.702 74.352C119.342 73.0933 120.217 72.144 121.326 71.504C122.457 70.8427 123.747 70.512 125.198 70.512C125.987 70.512 126.691 70.5973 127.31 70.768C127.95 70.9387 128.547 71.1947 129.102 71.536V64.432H134.254V86H129.806L129.518 84.72C128.899 85.2533 128.206 85.6587 127.438 85.936C126.67 86.192 125.774 86.32 124.75 86.32ZM126.222 82.576C127.353 82.576 128.313 82.192 129.102 81.424V75.28C128.377 74.6187 127.449 74.288 126.318 74.288C125.23 74.288 124.398 74.704 123.822 75.536C123.267 76.3467 122.99 77.4987 122.99 78.992C122.99 80.4427 123.257 81.4027 123.79 81.872C124.345 82.3413 125.155 82.576 126.222 82.576ZM145.323 86.32C142.677 86.32 140.555 85.6693 138.955 84.368C137.355 83.0453 136.555 81.0613 136.555 78.416C136.555 76.0053 137.216 74.0853 138.539 72.656C139.861 71.2267 141.845 70.512 144.491 70.512C146.901 70.512 148.768 71.1307 150.091 72.368C151.413 73.6053 152.075 75.2693 152.075 77.36V80.08H141.323C141.557 81.0827 142.101 81.7867 142.955 82.192C143.829 82.576 145.013 82.768 146.507 82.768C147.339 82.768 148.181 82.6933 149.035 82.544C149.909 82.3947 150.635 82.2027 151.211 81.968V85.328C150.485 85.6693 149.621 85.9147 148.619 86.064C147.616 86.2347 146.517 86.32 145.323 86.32ZM141.323 77.104H147.595V76.432C147.595 75.6853 147.371 75.0987 146.923 74.672C146.475 74.224 145.717 74 144.651 74C143.413 74 142.549 74.256 142.059 74.768C141.568 75.2587 141.323 76.0373 141.323 77.104ZM169.474 86.32C166.551 86.32 164.396 85.648 163.01 84.304C161.623 82.9387 160.93 80.976 160.93 78.416C160.93 75.8773 161.623 73.9253 163.01 72.56C164.418 71.1947 166.572 70.512 169.474 70.512C172.396 70.512 174.551 71.1947 175.938 72.56C177.346 73.9253 178.05 75.8773 178.05 78.416C178.05 80.976 177.356 82.9387 175.97 84.304C174.583 85.648 172.418 86.32 169.474 86.32ZM169.474 82.288C170.668 82.288 171.522 81.9893 172.034 81.392C172.546 80.7947 172.802 79.8027 172.802 78.416C172.802 77.0293 172.546 76.0373 172.034 75.44C171.522 74.8427 170.668 74.544 169.474 74.544C168.3 74.544 167.458 74.8427 166.946 75.44C166.434 76.0373 166.178 77.0293 166.178 78.416C166.178 79.8027 166.434 80.7947 166.946 81.392C167.458 81.9893 168.3 82.288 169.474 82.288ZM181.367 86V74.736H179.351V70.832H181.367V69.584C181.367 67.9413 181.837 66.5867 182.775 65.52C183.714 64.4533 185.111 63.92 186.967 63.92C187.735 63.92 188.418 63.984 189.015 64.112C189.613 64.2187 190.178 64.3787 190.711 64.592V68.048C190.391 67.9413 190.082 67.856 189.783 67.792C189.485 67.728 189.154 67.696 188.791 67.696C187.959 67.696 187.373 67.856 187.031 68.176C186.69 68.4747 186.519 68.976 186.519 69.68V70.832H190.263L190.039 74.736H186.519V86H181.367ZM200.242 86V74.736H198.226V70.832H200.242V69.584C200.242 67.9413 200.712 66.5867 201.65 65.52C202.589 64.4533 203.986 63.92 205.842 63.92C206.61 63.92 207.293 63.984 207.89 64.112C208.488 64.2187 209.053 64.3787 209.586 64.592V68.048C209.266 67.9413 208.957 67.856 208.658 67.792C208.36 67.728 208.029 67.696 207.666 67.696C206.834 67.696 206.248 67.856 205.906 68.176C205.565 68.4747 205.394 68.976 205.394 69.68V70.832H209.138L208.914 74.736H205.394V86H200.242ZM214.524 86.32C213.564 86.32 212.668 86.1493 211.836 85.808C211.026 85.4667 210.375 84.944 209.884 84.24C209.394 83.5147 209.148 82.6187 209.148 81.552C209.148 79.9947 209.671 78.7787 210.716 77.904C211.783 77.008 213.372 76.56 215.484 76.56H219.708V76.208C219.708 75.44 219.452 74.896 218.94 74.576C218.428 74.2347 217.468 74.064 216.06 74.064C214.332 74.064 212.636 74.3307 210.972 74.864V71.536C211.719 71.2373 212.626 70.992 213.692 70.8C214.78 70.608 215.922 70.512 217.116 70.512C219.463 70.512 221.298 70.992 222.62 71.952C223.964 72.912 224.636 74.4373 224.636 76.528V86H220.124L219.868 84.72C219.314 85.232 218.599 85.6267 217.724 85.904C216.871 86.1813 215.804 86.32 214.524 86.32ZM216.156 83.152C216.967 83.152 217.671 83.0133 218.268 82.736C218.866 82.4587 219.346 82.1067 219.708 81.68V79.536H216.06C214.546 79.536 213.788 80.144 213.788 81.36C213.788 81.9147 213.98 82.352 214.364 82.672C214.748 82.992 215.346 83.152 216.156 83.152ZM233.358 86.32C232.142 86.32 230.99 86.2347 229.902 86.064C228.814 85.8933 227.95 85.68 227.31 85.424V81.488C228.056 81.808 228.92 82.0533 229.902 82.224C230.883 82.3947 231.758 82.48 232.526 82.48C233.443 82.48 234.104 82.4373 234.51 82.352C234.936 82.2667 235.15 82.032 235.15 81.648C235.15 81.2213 234.808 80.9013 234.126 80.688C233.443 80.4747 232.504 80.1653 231.31 79.76C229.923 79.2693 228.867 78.704 228.142 78.064C227.438 77.4027 227.086 76.432 227.086 75.152C227.086 73.6587 227.64 72.5173 228.75 71.728C229.88 70.9173 231.672 70.512 234.126 70.512C235.086 70.512 236.035 70.5867 236.974 70.736C237.912 70.8853 238.68 71.056 239.278 71.248V75.12C238.68 74.8427 237.998 74.64 237.23 74.512C236.462 74.384 235.768 74.32 235.15 74.32C234.36 74.32 233.688 74.3733 233.134 74.48C232.6 74.5653 232.334 74.7893 232.334 75.152C232.334 75.5573 232.632 75.8453 233.23 76.016C233.827 76.1653 234.691 76.4213 235.822 76.784C237.016 77.1467 237.944 77.5413 238.606 77.968C239.267 78.3733 239.736 78.864 240.014 79.44C240.291 80.016 240.43 80.7413 240.43 81.616C240.43 83.1307 239.832 84.2933 238.638 85.104C237.443 85.9147 235.683 86.32 233.358 86.32ZM243.038 86V64.432H248.19V71.952C248.766 71.5253 249.481 71.184 250.334 70.928C251.188 70.6507 252.105 70.512 253.086 70.512C255.113 70.512 256.596 70.992 257.534 71.952C258.494 72.912 258.974 74.384 258.974 76.368V86H253.822V76.72C253.822 75.8453 253.641 75.2267 253.278 74.864C252.916 74.5013 252.265 74.32 251.326 74.32C250.772 74.32 250.206 74.448 249.63 74.704C249.054 74.96 248.574 75.28 248.19 75.664V86H243.038ZM263.094 68.432V64.56H268.694V68.432H263.094ZM263.51 86V74.64H261.27L261.718 70.832H268.661V86H263.51ZM279.849 86.32C276.926 86.32 274.771 85.648 273.385 84.304C271.998 82.9387 271.305 80.976 271.305 78.416C271.305 75.8773 271.998 73.9253 273.385 72.56C274.793 71.1947 276.947 70.512 279.849 70.512C282.771 70.512 284.926 71.1947 286.312 72.56C287.721 73.9253 288.425 75.8773 288.425 78.416C288.425 80.976 287.731 82.9387 286.345 84.304C284.958 85.648 282.793 86.32 279.849 86.32ZM279.849 82.288C281.043 82.288 281.897 81.9893 282.409 81.392C282.921 80.7947 283.177 79.8027 283.177 78.416C283.177 77.0293 282.921 76.0373 282.409 75.44C281.897 74.8427 281.043 74.544 279.849 74.544C278.675 74.544 277.833 74.8427 277.321 75.44C276.809 76.0373 276.553 77.0293 276.553 78.416C276.553 79.8027 276.809 80.7947 277.321 81.392C277.833 81.9893 278.675 82.288 279.849 82.288ZM291.038 86V70.832H295.838L295.998 72.144C296.617 71.7173 297.396 71.344 298.334 71.024C299.273 70.6827 300.276 70.512 301.342 70.512C303.305 70.512 304.734 70.9813 305.63 71.92C306.526 72.8587 306.974 74.3093 306.974 76.272V86H301.822V76.688C301.822 75.8347 301.641 75.2267 301.278 74.864C300.916 74.5013 300.265 74.32 299.326 74.32C298.772 74.32 298.206 74.448 297.63 74.704C297.054 74.96 296.574 75.28 296.19 75.664V86H291.038Z" fill="black"/>
</svg>
