<svg width="250" height="250" viewBox="0 0 250 250" fill="none" xmlns="http://www.w3.org/2000/svg">
<circle cx="125" cy="125" r="125" fill="#EFB459"/>
<path d="M71.132 57V36.392H86.108V40.36H76.284V44.68H84.924V48.712H76.284V57H71.132ZM95.036 57.32C92.1133 57.32 89.9587 56.648 88.572 55.304C87.1853 53.9387 86.492 51.976 86.492 49.416C86.492 46.8773 87.1853 44.9253 88.572 43.56C89.98 42.1947 92.1347 41.512 95.036 41.512C97.9587 41.512 100.113 42.1947 101.5 43.56C102.908 44.9253 103.612 46.8773 103.612 49.416C103.612 51.976 102.919 53.9387 101.532 55.304C100.145 56.648 97.98 57.32 95.036 57.32ZM95.036 53.288C96.2307 53.288 97.084 52.9893 97.596 52.392C98.108 51.7947 98.364 50.8027 98.364 49.416C98.364 48.0293 98.108 47.0373 97.596 46.44C97.084 45.8427 96.2307 45.544 95.036 45.544C93.8627 45.544 93.02 45.8427 92.508 46.44C91.996 47.0373 91.74 48.0293 91.74 49.416C91.74 50.8027 91.996 51.7947 92.508 52.392C93.02 52.9893 93.8627 53.288 95.036 53.288ZM110.898 57.32C109.234 57.32 108.039 56.9573 107.314 56.232C106.588 55.5067 106.226 54.344 106.226 52.744V35.432H111.378V52.232C111.378 52.7227 111.474 53.064 111.666 53.256C111.879 53.4267 112.188 53.512 112.594 53.512C113.17 53.512 113.682 53.4373 114.13 53.288V56.776C113.639 56.968 113.148 57.1067 112.658 57.192C112.188 57.2773 111.602 57.32 110.898 57.32ZM122.438 57.32C120.966 57.32 119.707 57.0853 118.661 56.616C117.616 56.1467 116.816 55.3787 116.262 54.312C115.707 53.224 115.43 51.7733 115.43 49.96C115.43 48.1253 115.75 46.5893 116.39 45.352C117.03 44.0933 117.904 43.144 119.014 42.504C120.144 41.8427 121.435 41.512 122.885 41.512C123.675 41.512 124.379 41.5973 124.998 41.768C125.638 41.9387 126.235 42.1947 126.79 42.536V35.432H131.942V57H127.494L127.206 55.72C126.587 56.2533 125.894 56.6587 125.126 56.936C124.358 57.192 123.462 57.32 122.438 57.32ZM123.91 53.576C125.04 53.576 126 53.192 126.79 52.424V46.28C126.064 45.6187 125.136 45.288 124.006 45.288C122.918 45.288 122.086 45.704 121.51 46.536C120.955 47.3467 120.678 48.4987 120.678 49.992C120.678 51.4427 120.944 52.4027 121.478 52.872C122.032 53.3413 122.843 53.576 123.91 53.576ZM136.219 39.432V35.56H141.819V39.432H136.219ZM136.635 57V45.64H134.395L134.843 41.832H141.786V57H136.635ZM145.07 57V41.832H149.87L150.03 43.144C150.648 42.7173 151.427 42.344 152.366 42.024C153.304 41.6827 154.307 41.512 155.374 41.512C157.336 41.512 158.766 41.9813 159.662 42.92C160.558 43.8587 161.006 45.3093 161.006 47.272V57H155.854V47.688C155.854 46.8347 155.672 46.2267 155.31 45.864C154.947 45.5013 154.296 45.32 153.358 45.32C152.803 45.32 152.238 45.448 151.661 45.704C151.086 45.96 150.606 46.28 150.222 46.664V57H145.07ZM170.629 62.632C169.882 62.632 169.093 62.6 168.261 62.536C167.429 62.472 166.639 62.376 165.893 62.248C165.146 62.12 164.506 61.9707 163.973 61.8V58.28C164.826 58.5573 165.85 58.7707 167.045 58.92C168.239 59.0693 169.338 59.144 170.341 59.144C171.642 59.144 172.613 59.0693 173.253 58.92C173.914 58.792 174.245 58.5573 174.245 58.216C174.245 57.9173 174.117 57.7147 173.861 57.608C173.605 57.5013 173.103 57.448 172.357 57.448H168.165C166.799 57.448 165.733 57.2027 164.965 56.712C164.218 56.2213 163.845 55.5067 163.845 54.568C163.845 53.928 164.037 53.32 164.421 52.744C164.826 52.168 165.413 51.7413 166.181 51.464C165.306 51.016 164.645 50.4507 164.197 49.768C163.749 49.0853 163.525 48.2213 163.525 47.176C163.525 45.2133 164.154 43.784 165.413 42.888C166.693 41.9707 168.559 41.512 171.013 41.512C171.525 41.512 172.09 41.5547 172.709 41.64C173.349 41.704 173.818 41.768 174.117 41.832H179.941L179.813 45.032H177.605C178.138 45.5653 178.405 46.3547 178.405 47.4C178.405 48.872 177.925 50.056 176.965 50.952C176.026 51.848 174.597 52.296 172.677 52.296C172.357 52.296 172.037 52.2853 171.717 52.264C171.418 52.2213 171.119 52.1893 170.821 52.168C170.266 52.232 169.786 52.3493 169.381 52.52C168.997 52.6907 168.805 52.936 168.805 53.256C168.805 53.512 168.901 53.6827 169.093 53.768C169.306 53.8533 169.615 53.896 170.021 53.896H173.893C175.45 53.896 176.655 54.2587 177.509 54.984C178.383 55.688 178.821 56.7227 178.821 58.088C178.821 61.1173 176.09 62.632 170.629 62.632ZM171.045 49.448C172.175 49.448 172.954 49.256 173.381 48.872C173.807 48.488 174.021 47.848 174.021 46.952C174.021 46.056 173.797 45.4053 173.349 45C172.922 44.5947 172.154 44.392 171.045 44.392C169.999 44.392 169.242 44.5947 168.773 45C168.325 45.384 168.101 46.0347 168.101 46.952C168.101 47.8053 168.314 48.4347 168.741 48.84C169.167 49.2453 169.935 49.448 171.045 49.448ZM72.4445 89V68.392H82.5885C84.2312 68.392 85.5858 68.7227 86.6525 69.384C87.7192 70.024 88.5085 70.8987 89.0205 72.008C89.5538 73.1173 89.8205 74.3653 89.8205 75.752C89.8205 77.16 89.5218 78.408 88.9245 79.496C88.3272 80.584 87.4738 81.4373 86.3645 82.056C85.2765 82.6533 83.9752 82.952 82.4605 82.952H77.5965V89H72.4445ZM77.5965 78.984H81.3085C82.3965 78.984 83.2072 78.6853 83.7405 78.088C84.2952 77.4907 84.5725 76.7013 84.5725 75.72C84.5725 74.6533 84.3165 73.832 83.8045 73.256C83.3138 72.6587 82.5352 72.36 81.4685 72.36H77.5965V78.984ZM97.0668 89.32C95.2748 89.32 93.8774 88.8187 92.8748 87.816C91.8721 86.792 91.3708 85.3093 91.3708 83.368V73.832H96.5228V83.08C96.5228 83.9333 96.7254 84.5627 97.1308 84.968C97.5574 85.352 98.1868 85.544 99.0188 85.544C99.6374 85.544 100.224 85.416 100.779 85.16C101.333 84.904 101.792 84.584 102.155 84.2V73.832H107.307V89H102.507L102.347 87.72C101.728 88.1893 100.981 88.5733 100.107 88.872C99.2321 89.1707 98.2188 89.32 97.0668 89.32ZM110.57 89V73.832H115.466L115.626 75.24C116.287 74.8347 117.108 74.472 118.09 74.152C119.071 73.8107 120.052 73.5973 121.034 73.512V77.384C120.479 77.448 119.86 77.5547 119.178 77.704C118.516 77.832 117.876 77.992 117.258 78.184C116.66 78.376 116.148 78.5787 115.722 78.792V89H110.57ZM124 71.432V67.56H129.6V71.432H124ZM124.416 89V77.64H122.176L122.624 73.832H129.568V89H124.416ZM133.587 89V77.736H131.571V73.832H133.587V72.648C133.587 71.56 133.843 70.5787 134.355 69.704C134.888 68.8293 135.656 68.136 136.659 67.624C137.661 67.0907 138.877 66.824 140.307 66.824C142.056 66.824 143.475 67.0373 144.563 67.464V71.112C144.307 70.984 143.923 70.888 143.411 70.824C142.92 70.7387 142.472 70.696 142.067 70.696C140.829 70.696 139.965 70.8667 139.475 71.208C138.984 71.5493 138.739 72.072 138.739 72.776V73.832H147.635V89H142.483V77.736H138.739V89H133.587ZM159.041 89.32C156.396 89.32 154.273 88.6693 152.673 87.368C151.073 86.0453 150.273 84.0613 150.273 81.416C150.273 79.0053 150.935 77.0853 152.257 75.656C153.58 74.2267 155.564 73.512 158.209 73.512C160.62 73.512 162.487 74.1307 163.809 75.368C165.132 76.6053 165.793 78.2693 165.793 80.36V83.08H155.041C155.276 84.0827 155.82 84.7867 156.673 85.192C157.548 85.576 158.732 85.768 160.225 85.768C161.057 85.768 161.9 85.6933 162.753 85.544C163.628 85.3947 164.353 85.2027 164.929 84.968V88.328C164.204 88.6693 163.34 88.9147 162.337 89.064C161.335 89.2347 160.236 89.32 159.041 89.32ZM155.041 80.104H161.313V79.432C161.313 78.6853 161.089 78.0987 160.641 77.672C160.193 77.224 159.436 77 158.369 77C157.132 77 156.268 77.256 155.777 77.768C155.287 78.2587 155.041 79.0373 155.041 80.104ZM168.413 89V73.832H173.309L173.469 75.24C174.131 74.8347 174.952 74.472 175.933 74.152C176.915 73.8107 177.896 73.5973 178.877 73.512V77.384C178.323 77.448 177.704 77.5547 177.021 77.704C176.36 77.832 175.72 77.992 175.101 78.184C174.504 78.376 173.992 78.5787 173.565 78.792V89H168.413Z" fill="white"/>
</svg>
