<svg width="400" height="400" viewBox="0 0 400 400" fill="none" xmlns="http://www.w3.org/2000/svg">
<circle cx="200" cy="200" r="200" fill="#160763"/>
<path d="M117.148 66V45.392H122.3V66H117.148ZM125.554 66V50.832H130.354L130.514 52.144C131.133 51.7173 131.911 51.344 132.85 51.024C133.789 50.6827 134.791 50.512 135.858 50.512C137.821 50.512 139.25 50.9813 140.146 51.92C141.042 52.8587 141.49 54.3093 141.49 56.272V66H136.338V56.688C136.338 55.8347 136.157 55.2267 135.794 54.864C135.431 54.5013 134.781 54.32 133.842 54.32C133.287 54.32 132.722 54.448 132.146 54.704C131.57 54.96 131.09 55.28 130.706 55.664V66H125.554ZM150.217 66.32C149.001 66.32 147.849 66.2347 146.761 66.064C145.673 65.8933 144.809 65.68 144.169 65.424V61.488C144.916 61.808 145.78 62.0533 146.761 62.224C147.742 62.3947 148.617 62.48 149.385 62.48C150.302 62.48 150.964 62.4373 151.369 62.352C151.796 62.2667 152.009 62.032 152.009 61.648C152.009 61.2213 151.668 60.9013 150.985 60.688C150.302 60.4747 149.364 60.1653 148.169 59.76C146.782 59.2693 145.726 58.704 145.001 58.064C144.297 57.4027 143.945 56.432 143.945 55.152C143.945 53.6587 144.5 52.5173 145.609 51.728C146.74 50.9173 148.532 50.512 150.985 50.512C151.945 50.512 152.894 50.5867 153.833 50.736C154.772 50.8853 155.54 51.056 156.137 51.248V55.12C155.54 54.8427 154.857 54.64 154.089 54.512C153.321 54.384 152.628 54.32 152.009 54.32C151.22 54.32 150.548 54.3733 149.993 54.48C149.46 54.5653 149.193 54.7893 149.193 55.152C149.193 55.5573 149.492 55.8453 150.089 56.016C150.686 56.1653 151.55 56.4213 152.681 56.784C153.876 57.1467 154.804 57.5413 155.465 57.968C156.126 58.3733 156.596 58.864 156.873 59.44C157.15 60.016 157.289 60.7413 157.289 61.616C157.289 63.1307 156.692 64.2933 155.497 65.104C154.302 65.9147 152.542 66.32 150.217 66.32ZM165.669 66.32C163.792 66.32 162.405 65.84 161.509 64.88C160.634 63.92 160.197 62.5973 160.197 60.912V54.736H158.149V50.832H160.197V47.664L165.349 46.288V50.832H169.029L168.805 54.736H165.349V60.56C165.349 61.2853 165.53 61.7973 165.893 62.096C166.256 62.3733 166.8 62.512 167.525 62.512C168.144 62.512 168.773 62.4053 169.413 62.192V65.68C168.41 66.1067 167.162 66.32 165.669 66.32ZM176.134 66.32C175.174 66.32 174.278 66.1493 173.446 65.808C172.635 65.4667 171.984 64.944 171.494 64.24C171.003 63.5147 170.758 62.6187 170.758 61.552C170.758 59.9947 171.28 58.7787 172.326 57.904C173.392 57.008 174.982 56.56 177.094 56.56H181.318V56.208C181.318 55.44 181.062 54.896 180.55 54.576C180.038 54.2347 179.078 54.064 177.67 54.064C175.942 54.064 174.246 54.3307 172.582 54.864V51.536C173.328 51.2373 174.235 50.992 175.302 50.8C176.39 50.608 177.531 50.512 178.726 50.512C181.072 50.512 182.907 50.992 184.23 51.952C185.574 52.912 186.246 54.4373 186.246 56.528V66H181.734L181.478 64.72C180.923 65.232 180.208 65.6267 179.334 65.904C178.48 66.1813 177.414 66.32 176.134 66.32ZM177.766 63.152C178.576 63.152 179.28 63.0133 179.878 62.736C180.475 62.4587 180.955 62.1067 181.318 61.68V59.536H177.67C176.155 59.536 175.398 60.144 175.398 61.36C175.398 61.9147 175.59 62.352 175.974 62.672C176.358 62.992 176.955 63.152 177.766 63.152ZM194.007 66.32C192.343 66.32 191.148 65.9573 190.423 65.232C189.698 64.5067 189.335 63.344 189.335 61.744V44.432H194.487V61.232C194.487 61.7227 194.583 62.064 194.775 62.256C194.988 62.4267 195.298 62.512 195.703 62.512C196.279 62.512 196.791 62.4373 197.239 62.288V65.776C196.748 65.968 196.258 66.1067 195.767 66.192C195.298 66.2773 194.711 66.32 194.007 66.32ZM203.038 66.32C201.374 66.32 200.18 65.9573 199.454 65.232C198.729 64.5067 198.366 63.344 198.366 61.744V44.432H203.518V61.232C203.518 61.7227 203.614 62.064 203.806 62.256C204.02 62.4267 204.329 62.512 204.734 62.512C205.31 62.512 205.822 62.4373 206.27 62.288V65.776C205.78 65.968 205.289 66.1067 204.798 66.192C204.329 66.2773 203.742 66.32 203.038 66.32ZM212.946 66.32C211.986 66.32 211.09 66.1493 210.258 65.808C209.447 65.4667 208.797 64.944 208.306 64.24C207.815 63.5147 207.57 62.6187 207.57 61.552C207.57 59.9947 208.093 58.7787 209.138 57.904C210.205 57.008 211.794 56.56 213.906 56.56H218.13V56.208C218.13 55.44 217.874 54.896 217.362 54.576C216.85 54.2347 215.89 54.064 214.482 54.064C212.754 54.064 211.058 54.3307 209.394 54.864V51.536C210.141 51.2373 211.047 50.992 212.114 50.8C213.202 50.608 214.343 50.512 215.538 50.512C217.885 50.512 219.719 50.992 221.042 51.952C222.386 52.912 223.058 54.4373 223.058 56.528V66H218.546L218.29 64.72C217.735 65.232 217.021 65.6267 216.146 65.904C215.293 66.1813 214.226 66.32 212.946 66.32ZM214.578 63.152C215.389 63.152 216.093 63.0133 216.69 62.736C217.287 62.4587 217.767 62.1067 218.13 61.68V59.536H214.482C212.967 59.536 212.21 60.144 212.21 61.36C212.21 61.9147 212.402 62.352 212.786 62.672C213.17 62.992 213.767 63.152 214.578 63.152ZM232.388 66.32C230.51 66.32 229.124 65.84 228.228 64.88C227.353 63.92 226.916 62.5973 226.916 60.912V54.736H224.868V50.832H226.916V47.664L232.068 46.288V50.832H235.748L235.524 54.736H232.068V60.56C232.068 61.2853 232.249 61.7973 232.612 62.096C232.974 62.3733 233.518 62.512 234.244 62.512C234.862 62.512 235.492 62.4053 236.132 62.192V65.68C235.129 66.1067 233.881 66.32 232.388 66.32ZM239.14 48.432V44.56H244.74V48.432H239.14ZM239.556 66V54.64H237.316L237.764 50.832H244.708V66H239.556ZM255.895 66.32C252.973 66.32 250.818 65.648 249.431 64.304C248.045 62.9387 247.351 60.976 247.351 58.416C247.351 55.8773 248.045 53.9253 249.431 52.56C250.839 51.1947 252.994 50.512 255.895 50.512C258.818 50.512 260.973 51.1947 262.359 52.56C263.767 53.9253 264.471 55.8773 264.471 58.416C264.471 60.976 263.778 62.9387 262.391 64.304C261.005 65.648 258.839 66.32 255.895 66.32ZM255.895 62.288C257.09 62.288 257.943 61.9893 258.455 61.392C258.967 60.7947 259.223 59.8027 259.223 58.416C259.223 57.0293 258.967 56.0373 258.455 55.44C257.943 54.8427 257.09 54.544 255.895 54.544C254.722 54.544 253.879 54.8427 253.367 55.44C252.855 56.0373 252.599 57.0293 252.599 58.416C252.599 59.8027 252.855 60.7947 253.367 61.392C253.879 61.9893 254.722 62.288 255.895 62.288ZM267.085 66V50.832H271.885L272.045 52.144C272.664 51.7173 273.442 51.344 274.381 51.024C275.32 50.6827 276.322 50.512 277.389 50.512C279.352 50.512 280.781 50.9813 281.677 51.92C282.573 52.8587 283.021 54.3093 283.021 56.272V66H277.869V56.688C277.869 55.8347 277.688 55.2267 277.325 54.864C276.962 54.5013 276.312 54.32 275.373 54.32C274.818 54.32 274.253 54.448 273.677 54.704C273.101 54.96 272.621 55.28 272.237 55.664V66H267.085ZM161.258 98L157.258 82.832H162.314L164.362 91.536L166.506 84.912V82.832H170.378L172.874 91.536L174.858 82.832H179.914L175.914 98H171.242L168.65 90.128L165.994 98H161.258ZM188.989 98.32C186.066 98.32 183.912 97.648 182.525 96.304C181.138 94.9387 180.445 92.976 180.445 90.416C180.445 87.8773 181.138 85.9253 182.525 84.56C183.933 83.1947 186.088 82.512 188.989 82.512C191.912 82.512 194.066 83.1947 195.453 84.56C196.861 85.9253 197.565 87.8773 197.565 90.416C197.565 92.976 196.872 94.9387 195.485 96.304C194.098 97.648 191.933 98.32 188.989 98.32ZM188.989 94.288C190.184 94.288 191.037 93.9893 191.549 93.392C192.061 92.7947 192.317 91.8027 192.317 90.416C192.317 89.0293 192.061 88.0373 191.549 87.44C191.037 86.8427 190.184 86.544 188.989 86.544C187.816 86.544 186.973 86.8427 186.461 87.44C185.949 88.0373 185.693 89.0293 185.693 90.416C185.693 91.8027 185.949 92.7947 186.461 93.392C186.973 93.9893 187.816 94.288 188.989 94.288ZM200.179 98V82.832H205.075L205.235 84.24C205.896 83.8347 206.718 83.472 207.699 83.152C208.68 82.8107 209.662 82.5973 210.643 82.512V86.384C210.088 86.448 209.47 86.5547 208.787 86.704C208.126 86.832 207.486 86.992 206.867 87.184C206.27 87.376 205.758 87.5787 205.331 87.792V98H200.179ZM212.585 98V76.432H217.737V87.696L222.697 82.832H228.553L222.473 89.136L228.905 98H223.433L219.241 91.856L217.737 93.328V98H212.585ZM235.686 98.32C234.47 98.32 233.318 98.2347 232.23 98.064C231.142 97.8933 230.278 97.68 229.638 97.424V93.488C230.385 93.808 231.249 94.0533 232.23 94.224C233.211 94.3947 234.086 94.48 234.854 94.48C235.771 94.48 236.433 94.4373 236.838 94.352C237.265 94.2667 237.478 94.032 237.478 93.648C237.478 93.2213 237.137 92.9013 236.454 92.688C235.771 92.4747 234.833 92.1653 233.638 91.76C232.251 91.2693 231.195 90.704 230.47 90.064C229.766 89.4027 229.414 88.432 229.414 87.152C229.414 85.6587 229.969 84.5173 231.078 83.728C232.209 82.9173 234.001 82.512 236.454 82.512C237.414 82.512 238.363 82.5867 239.302 82.736C240.241 82.8853 241.009 83.056 241.606 83.248V87.12C241.009 86.8427 240.326 86.64 239.558 86.512C238.79 86.384 238.097 86.32 237.478 86.32C236.689 86.32 236.017 86.3733 235.462 86.48C234.929 86.5653 234.662 86.7893 234.662 87.152C234.662 87.5573 234.961 87.8453 235.558 88.016C236.155 88.1653 237.019 88.4213 238.15 88.784C239.345 89.1467 240.273 89.5413 240.934 89.968C241.595 90.3733 242.065 90.864 242.342 91.44C242.619 92.016 242.758 92.7413 242.758 93.616C242.758 95.1307 242.161 96.2933 240.966 97.104C239.771 97.9147 238.011 98.32 235.686 98.32Z" fill="white"/>
<path d="M143.906 127V116.696H150.914V118.056H145.65V121.176H150.322V122.52H145.65V127H143.906ZM151.735 127V119.416H153.335L153.431 120.296C153.793 120.061 154.225 119.848 154.727 119.656C155.228 119.464 155.724 119.331 156.215 119.256V120.584C155.916 120.637 155.591 120.717 155.239 120.824C154.897 120.92 154.572 121.032 154.263 121.16C153.953 121.277 153.692 121.4 153.479 121.528V127H151.735ZM161.012 127.16C159.689 127.16 158.665 126.835 157.94 126.184C157.215 125.533 156.852 124.536 156.852 123.192C156.852 121.976 157.161 121.016 157.78 120.312C158.399 119.608 159.337 119.256 160.596 119.256C161.748 119.256 162.612 119.56 163.188 120.168C163.775 120.765 164.068 121.539 164.068 122.488V123.896H158.516C158.601 124.632 158.868 125.139 159.316 125.416C159.764 125.693 160.447 125.832 161.364 125.832C161.748 125.832 162.143 125.795 162.548 125.72C162.953 125.645 163.305 125.549 163.604 125.432V126.712C163.263 126.861 162.868 126.973 162.42 127.048C161.983 127.123 161.513 127.16 161.012 127.16ZM158.516 122.76H162.532V122.232C162.532 121.709 162.388 121.304 162.1 121.016C161.812 120.717 161.327 120.568 160.644 120.568C159.833 120.568 159.273 120.744 158.964 121.096C158.665 121.448 158.516 122.003 158.516 122.76ZM169.606 127.16C168.283 127.16 167.259 126.835 166.534 126.184C165.808 125.533 165.446 124.536 165.446 123.192C165.446 121.976 165.755 121.016 166.374 120.312C166.992 119.608 167.931 119.256 169.19 119.256C170.342 119.256 171.206 119.56 171.782 120.168C172.368 120.765 172.662 121.539 172.662 122.488V123.896H167.11C167.195 124.632 167.462 125.139 167.91 125.416C168.358 125.693 169.04 125.832 169.958 125.832C170.342 125.832 170.736 125.795 171.142 125.72C171.547 125.645 171.899 125.549 172.198 125.432V126.712C171.856 126.861 171.462 126.973 171.014 127.048C170.576 127.123 170.107 127.16 169.606 127.16ZM167.11 122.76H171.126V122.232C171.126 121.709 170.982 121.304 170.694 121.016C170.406 120.717 169.92 120.568 169.238 120.568C168.427 120.568 167.867 120.744 167.558 121.096C167.259 121.448 167.11 122.003 167.11 122.76ZM176.248 127.16C175.629 127.16 175.16 127.011 174.84 126.712C174.52 126.403 174.36 125.896 174.36 125.192V116.216H176.104V125.032C176.104 125.331 176.157 125.533 176.264 125.64C176.37 125.747 176.53 125.8 176.744 125.8C177 125.8 177.245 125.768 177.48 125.704V126.968C177.277 127.043 177.08 127.091 176.888 127.112C176.706 127.144 176.493 127.16 176.248 127.16ZM182.684 127.16C181.361 127.16 180.337 126.835 179.612 126.184C178.887 125.533 178.524 124.536 178.524 123.192C178.524 121.976 178.833 121.016 179.452 120.312C180.071 119.608 181.009 119.256 182.268 119.256C183.42 119.256 184.284 119.56 184.86 120.168C185.447 120.765 185.74 121.539 185.74 122.488V123.896H180.188C180.273 124.632 180.54 125.139 180.988 125.416C181.436 125.693 182.119 125.832 183.036 125.832C183.42 125.832 183.815 125.795 184.22 125.72C184.625 125.645 184.977 125.549 185.276 125.432V126.712C184.935 126.861 184.54 126.973 184.092 127.048C183.655 127.123 183.185 127.16 182.684 127.16ZM180.188 122.76H184.204V122.232C184.204 121.709 184.06 121.304 183.772 121.016C183.484 120.717 182.999 120.568 182.316 120.568C181.505 120.568 180.945 120.744 180.636 121.096C180.337 121.448 180.188 122.003 180.188 122.76ZM187.438 127V119.416H189.038L189.118 120.216C189.459 119.949 189.864 119.725 190.334 119.544C190.814 119.352 191.342 119.256 191.918 119.256C192.899 119.256 193.614 119.485 194.062 119.944C194.51 120.403 194.734 121.117 194.734 122.088V127H193.006V122.168C193.006 121.581 192.883 121.171 192.638 120.936C192.403 120.701 191.955 120.584 191.294 120.584C190.899 120.584 190.51 120.664 190.126 120.824C189.752 120.984 189.438 121.192 189.182 121.448V127H187.438ZM200.259 127.16C198.926 127.16 197.918 126.824 197.235 126.152C196.553 125.469 196.211 124.488 196.211 123.208C196.211 121.875 196.585 120.883 197.331 120.232C198.089 119.581 199.097 119.256 200.355 119.256C200.878 119.256 201.315 119.293 201.667 119.368C202.03 119.443 202.377 119.56 202.707 119.72V121.016C202.153 120.739 201.481 120.6 200.691 120.6C199.817 120.6 199.145 120.797 198.675 121.192C198.206 121.576 197.971 122.248 197.971 123.208C197.971 124.115 198.179 124.781 198.595 125.208C199.011 125.624 199.699 125.832 200.659 125.832C201.417 125.832 202.105 125.688 202.723 125.4V126.728C202.371 126.867 201.993 126.973 201.587 127.048C201.193 127.123 200.75 127.16 200.259 127.16ZM207.95 127.16C206.627 127.16 205.603 126.835 204.878 126.184C204.152 125.533 203.79 124.536 203.79 123.192C203.79 121.976 204.099 121.016 204.718 120.312C205.336 119.608 206.275 119.256 207.534 119.256C208.686 119.256 209.55 119.56 210.126 120.168C210.712 120.765 211.006 121.539 211.006 122.488V123.896H205.454C205.539 124.632 205.806 125.139 206.254 125.416C206.702 125.693 207.384 125.832 208.302 125.832C208.686 125.832 209.08 125.795 209.486 125.72C209.891 125.645 210.243 125.549 210.542 125.432V126.712C210.2 126.861 209.806 126.973 209.358 127.048C208.92 127.123 208.451 127.16 207.95 127.16ZM205.454 122.76H209.47V122.232C209.47 121.709 209.326 121.304 209.038 121.016C208.75 120.717 208.264 120.568 207.582 120.568C206.771 120.568 206.211 120.744 205.902 121.096C205.603 121.448 205.454 122.003 205.454 122.76ZM218.071 127L216.071 119.416H217.815L219.127 124.936L220.615 120.344V119.416H221.943L223.591 124.936L224.903 119.416H226.631L224.647 127H222.999L221.383 122.04L219.735 127H218.071ZM231.242 127.16C229.876 127.16 228.874 126.819 228.234 126.136C227.604 125.453 227.29 124.477 227.29 123.208C227.29 121.939 227.61 120.963 228.25 120.28C228.89 119.597 229.887 119.256 231.242 119.256C232.607 119.256 233.61 119.597 234.25 120.28C234.89 120.963 235.21 121.939 235.21 123.208C235.21 124.477 234.89 125.453 234.25 126.136C233.62 126.819 232.618 127.16 231.242 127.16ZM231.242 125.688C232.042 125.688 232.607 125.496 232.938 125.112C233.279 124.717 233.45 124.083 233.45 123.208C233.45 122.333 233.279 121.704 232.938 121.32C232.607 120.936 232.042 120.744 231.242 120.744C230.452 120.744 229.887 120.936 229.546 121.32C229.215 121.704 229.05 122.333 229.05 123.208C229.05 124.083 229.215 124.717 229.546 125.112C229.887 125.496 230.452 125.688 231.242 125.688ZM236.906 127V119.416H238.506L238.602 120.296C238.965 120.061 239.397 119.848 239.898 119.656C240.4 119.464 240.896 119.331 241.386 119.256V120.584C241.088 120.637 240.762 120.717 240.41 120.824C240.069 120.92 239.744 121.032 239.434 121.16C239.125 121.277 238.864 121.4 238.65 121.528V127H236.906ZM242.656 127V116.216H244.4V122.456L247.584 119.416H249.584L246.496 122.472L249.76 127H247.92L245.408 123.4L244.4 124.36V127H242.656ZM253.216 127.16C252.693 127.16 252.192 127.123 251.712 127.048C251.242 126.973 250.853 126.883 250.544 126.776V125.304C250.906 125.443 251.306 125.549 251.744 125.624C252.181 125.699 252.597 125.736 252.992 125.736C253.589 125.736 254.016 125.683 254.272 125.576C254.528 125.469 254.656 125.261 254.656 124.952C254.656 124.728 254.576 124.552 254.416 124.424C254.266 124.296 254.037 124.179 253.728 124.072C253.429 123.965 253.045 123.837 252.576 123.688C252.128 123.539 251.738 123.379 251.408 123.208C251.077 123.027 250.821 122.797 250.64 122.52C250.458 122.243 250.368 121.88 250.368 121.432C250.368 120.739 250.618 120.205 251.12 119.832C251.621 119.448 252.426 119.256 253.536 119.256C253.973 119.256 254.389 119.288 254.784 119.352C255.178 119.416 255.514 119.496 255.792 119.592V121.048C255.493 120.931 255.162 120.84 254.8 120.776C254.448 120.712 254.117 120.68 253.808 120.68C253.253 120.68 252.832 120.728 252.544 120.824C252.266 120.92 252.128 121.112 252.128 121.4C252.128 121.699 252.272 121.912 252.56 122.04C252.858 122.157 253.333 122.323 253.984 122.536C254.581 122.717 255.056 122.909 255.408 123.112C255.76 123.315 256.01 123.56 256.16 123.848C256.32 124.125 256.4 124.488 256.4 124.936C256.4 125.683 256.128 126.243 255.584 126.616C255.04 126.979 254.25 127.16 253.216 127.16Z" fill="white"/>
</svg>
