<svg width="400" height="400" viewBox="0 0 400 400" fill="none" xmlns="http://www.w3.org/2000/svg">
<circle cx="200" cy="200" r="200" fill="#309659"/>
<path d="M41.632 63V42.392H46.784V59.032H56.512V63H41.632ZM63.243 63.32C62.283 63.32 61.387 63.1493 60.555 62.808C59.7443 62.4667 59.0937 61.944 58.603 61.24C58.1123 60.5147 57.867 59.6187 57.867 58.552C57.867 56.9947 58.3897 55.7787 59.435 54.904C60.5017 54.008 62.091 53.56 64.203 53.56H68.427V53.208C68.427 52.44 68.171 51.896 67.659 51.576C67.147 51.2347 66.187 51.064 64.779 51.064C63.051 51.064 61.355 51.3307 59.691 51.864V48.536C60.4377 48.2373 61.3443 47.992 62.411 47.8C63.499 47.608 64.6403 47.512 65.835 47.512C68.1817 47.512 70.0163 47.992 71.339 48.952C72.683 49.912 73.355 51.4373 73.355 53.528V63H68.843L68.587 61.72C68.0323 62.232 67.3177 62.6267 66.443 62.904C65.5897 63.1813 64.523 63.32 63.243 63.32ZM64.875 60.152C65.6857 60.152 66.3897 60.0133 66.987 59.736C67.5843 59.4587 68.0643 59.1067 68.427 58.68V56.536H64.779C63.2643 56.536 62.507 57.144 62.507 58.36C62.507 58.9147 62.699 59.352 63.083 59.672C63.467 59.992 64.0643 60.152 64.875 60.152ZM76.4445 63V47.832H81.2445L81.4045 49.144C82.0232 48.7173 82.8018 48.344 83.7405 48.024C84.6792 47.6827 85.6818 47.512 86.7485 47.512C88.7112 47.512 90.1405 47.9813 91.0365 48.92C91.9325 49.8587 92.3805 51.3093 92.3805 53.272V63H87.2285V53.688C87.2285 52.8347 87.0472 52.2267 86.6845 51.864C86.3218 51.5013 85.6712 51.32 84.7325 51.32C84.1778 51.32 83.6125 51.448 83.0365 51.704C82.4605 51.96 81.9805 52.28 81.5965 52.664V63H76.4445ZM101.656 63.32C100.184 63.32 98.9256 63.0853 97.8802 62.616C96.8349 62.1467 96.0349 61.3787 95.4803 60.312C94.9256 59.224 94.6483 57.7733 94.6483 55.96C94.6483 54.1253 94.9683 52.5893 95.6083 51.352C96.2483 50.0933 97.1229 49.144 98.2323 48.504C99.3629 47.8427 100.654 47.512 102.104 47.512C102.894 47.512 103.598 47.5973 104.216 47.768C104.856 47.9387 105.454 48.1947 106.008 48.536V41.432H111.16V63H106.712L106.424 61.72C105.806 62.2533 105.112 62.6587 104.344 62.936C103.576 63.192 102.68 63.32 101.656 63.32ZM103.128 59.576C104.259 59.576 105.219 59.192 106.008 58.424V52.28C105.283 51.6187 104.355 51.288 103.224 51.288C102.136 51.288 101.304 51.704 100.728 52.536C100.174 53.3467 99.8963 54.4987 99.8963 55.992C99.8963 57.4427 100.163 58.4027 100.696 58.872C101.251 59.3413 102.062 59.576 103.128 59.576ZM120.045 63.32C118.829 63.32 117.677 63.2347 116.589 63.064C115.501 62.8933 114.637 62.68 113.997 62.424V58.488C114.744 58.808 115.608 59.0533 116.589 59.224C117.571 59.3947 118.445 59.48 119.213 59.48C120.131 59.48 120.792 59.4373 121.197 59.352C121.624 59.2667 121.837 59.032 121.837 58.648C121.837 58.2213 121.496 57.9013 120.813 57.688C120.131 57.4747 119.192 57.1653 117.997 56.76C116.611 56.2693 115.555 55.704 114.829 55.064C114.125 54.4027 113.773 53.432 113.773 52.152C113.773 50.6587 114.328 49.5173 115.437 48.728C116.568 47.9173 118.36 47.512 120.813 47.512C121.773 47.512 122.723 47.5867 123.661 47.736C124.6 47.8853 125.368 48.056 125.965 48.248V52.12C125.368 51.8427 124.685 51.64 123.917 51.512C123.149 51.384 122.456 51.32 121.837 51.32C121.048 51.32 120.376 51.3733 119.821 51.48C119.288 51.5653 119.021 51.7893 119.021 52.152C119.021 52.5573 119.32 52.8453 119.917 53.016C120.515 53.1653 121.379 53.4213 122.509 53.784C123.704 54.1467 124.632 54.5413 125.293 54.968C125.955 55.3733 126.424 55.864 126.701 56.44C126.979 57.016 127.117 57.7413 127.117 58.616C127.117 60.1307 126.52 61.2933 125.325 62.104C124.131 62.9147 122.371 63.32 120.045 63.32ZM137.257 63.32C134.548 63.32 132.425 62.6587 130.889 61.336C129.374 60.0133 128.617 58.04 128.617 55.416C128.617 52.7493 129.406 50.7653 130.985 49.464C132.585 48.1627 134.708 47.512 137.353 47.512C138.462 47.512 139.422 47.5973 140.233 47.768C141.065 47.9173 141.865 48.1733 142.633 48.536V52.184C141.438 51.608 140.041 51.32 138.441 51.32C136.948 51.32 135.806 51.6187 135.017 52.216C134.249 52.8133 133.865 53.88 133.865 55.416C133.865 56.8453 134.228 57.8907 134.953 58.552C135.678 59.192 136.83 59.512 138.409 59.512C139.966 59.512 141.385 59.192 142.665 58.552V62.36C141.897 62.7013 141.065 62.9467 140.169 63.096C139.294 63.2453 138.324 63.32 137.257 63.32ZM150.024 63.32C149.064 63.32 148.168 63.1493 147.336 62.808C146.526 62.4667 145.875 61.944 145.384 61.24C144.894 60.5147 144.648 59.6187 144.648 58.552C144.648 56.9947 145.171 55.7787 146.216 54.904C147.283 54.008 148.872 53.56 150.984 53.56H155.208V53.208C155.208 52.44 154.952 51.896 154.44 51.576C153.928 51.2347 152.968 51.064 151.56 51.064C149.832 51.064 148.136 51.3307 146.472 51.864V48.536C147.219 48.2373 148.126 47.992 149.192 47.8C150.28 47.608 151.422 47.512 152.616 47.512C154.963 47.512 156.798 47.992 158.12 48.952C159.464 49.912 160.136 51.4373 160.136 53.528V63H155.624L155.368 61.72C154.814 62.232 154.099 62.6267 153.224 62.904C152.371 63.1813 151.304 63.32 150.024 63.32ZM151.656 60.152C152.467 60.152 153.171 60.0133 153.768 59.736C154.366 59.4587 154.846 59.1067 155.208 58.68V56.536H151.56C150.046 56.536 149.288 57.144 149.288 58.36C149.288 58.9147 149.48 59.352 149.864 59.672C150.248 59.992 150.846 60.152 151.656 60.152ZM163.226 69.912V47.832H167.706L167.962 49.144C168.58 48.632 169.274 48.2373 170.042 47.96C170.81 47.6613 171.706 47.512 172.73 47.512C174.884 47.512 176.591 48.0987 177.85 49.272C179.108 50.424 179.738 52.3653 179.738 55.096C179.738 57.8053 179.087 59.8533 177.786 61.24C176.506 62.6267 174.735 63.32 172.474 63.32C170.874 63.32 169.508 62.9893 168.378 62.328V69.912H163.226ZM171.162 59.544C173.38 59.544 174.49 58.0293 174.49 55C174.49 53.5493 174.234 52.568 173.722 52.056C173.21 51.544 172.388 51.288 171.258 51.288C170.17 51.288 169.21 51.672 168.378 52.44V58.584C168.783 58.8827 169.188 59.1173 169.594 59.288C170.02 59.4587 170.543 59.544 171.162 59.544ZM190.479 63.32C187.833 63.32 185.711 62.6693 184.111 61.368C182.511 60.0453 181.711 58.0613 181.711 55.416C181.711 53.0053 182.372 51.0853 183.695 49.656C185.017 48.2267 187.001 47.512 189.647 47.512C192.057 47.512 193.924 48.1307 195.247 49.368C196.569 50.6053 197.231 52.2693 197.231 54.36V57.08H186.479C186.713 58.0827 187.257 58.7867 188.111 59.192C188.985 59.576 190.169 59.768 191.663 59.768C192.495 59.768 193.337 59.6933 194.191 59.544C195.065 59.3947 195.791 59.2027 196.367 58.968V62.328C195.641 62.6693 194.777 62.9147 193.775 63.064C192.772 63.2347 191.673 63.32 190.479 63.32ZM186.479 54.104H192.751V53.432C192.751 52.6853 192.527 52.0987 192.079 51.672C191.631 51.224 190.873 51 189.807 51C188.569 51 187.705 51.256 187.215 51.768C186.724 52.2587 186.479 53.0373 186.479 54.104ZM40.992 95L48.864 74.392H54.432L62.304 95H56.928L55.072 90.328H48.192L46.368 95H40.992ZM48.896 86.52H54.368L51.616 79.352L48.896 86.52ZM64.9133 95V79.832H69.8093L69.9693 81.24C70.6306 80.8347 71.4519 80.472 72.4333 80.152C73.4146 79.8107 74.3959 79.5973 75.3773 79.512V83.384C74.8226 83.448 74.2039 83.5547 73.5213 83.704C72.8599 83.832 72.2199 83.992 71.6013 84.184C71.0039 84.376 70.4919 84.5787 70.0653 84.792V95H64.9133ZM84.6945 95.32C81.9852 95.32 79.8625 94.6587 78.3265 93.336C76.8118 92.0133 76.0545 90.04 76.0545 87.416C76.0545 84.7493 76.8438 82.7653 78.4225 81.464C80.0225 80.1627 82.1452 79.512 84.7905 79.512C85.8998 79.512 86.8598 79.5973 87.6705 79.768C88.5025 79.9173 89.3025 80.1733 90.0705 80.536V84.184C88.8758 83.608 87.4785 83.32 85.8785 83.32C84.3852 83.32 83.2438 83.6187 82.4545 84.216C81.6865 84.8133 81.3025 85.88 81.3025 87.416C81.3025 88.8453 81.6652 89.8907 82.3905 90.552C83.1158 91.192 84.2678 91.512 85.8465 91.512C87.4038 91.512 88.8225 91.192 90.1025 90.552V94.36C89.3345 94.7013 88.5025 94.9467 87.6065 95.096C86.7318 95.2453 85.7612 95.32 84.6945 95.32ZM92.7258 95V73.432H97.8778V80.952C98.4538 80.5253 99.1684 80.184 100.022 79.928C100.875 79.6507 101.792 79.512 102.774 79.512C104.8 79.512 106.283 79.992 107.222 80.952C108.182 81.912 108.662 83.384 108.662 85.368V95H103.51V85.72C103.51 84.8453 103.328 84.2267 102.966 83.864C102.603 83.5013 101.952 83.32 101.014 83.32C100.459 83.32 99.8938 83.448 99.3177 83.704C98.7418 83.96 98.2618 84.28 97.8778 84.664V95H92.7258ZM112.781 77.432V73.56H118.381V77.432H112.781ZM113.197 95V83.64H110.957L111.405 79.832H118.349V95H113.197ZM127.872 95.32C125.995 95.32 124.608 94.84 123.712 93.88C122.837 92.92 122.4 91.5973 122.4 89.912V83.736H120.352V79.832H122.4V76.664L127.552 75.288V79.832H131.232L131.008 83.736H127.552V89.56C127.552 90.2853 127.733 90.7973 128.096 91.096C128.459 91.3733 129.003 91.512 129.728 91.512C130.347 91.512 130.976 91.4053 131.616 91.192V94.68C130.613 95.1067 129.365 95.32 127.872 95.32ZM141.729 95.32C139.083 95.32 136.961 94.6693 135.361 93.368C133.761 92.0453 132.961 90.0613 132.961 87.416C132.961 85.0053 133.622 83.0853 134.945 81.656C136.267 80.2267 138.251 79.512 140.897 79.512C143.307 79.512 145.174 80.1307 146.497 81.368C147.819 82.6053 148.481 84.2693 148.481 86.36V89.08H137.729C137.963 90.0827 138.507 90.7867 139.361 91.192C140.235 91.576 141.419 91.768 142.913 91.768C143.745 91.768 144.587 91.6933 145.441 91.544C146.315 91.3947 147.041 91.2027 147.617 90.968V94.328C146.891 94.6693 146.027 94.9147 145.025 95.064C144.022 95.2347 142.923 95.32 141.729 95.32ZM137.729 86.104H144.001V85.432C144.001 84.6853 143.777 84.0987 143.329 83.672C142.881 83.224 142.123 83 141.057 83C139.819 83 138.955 83.256 138.465 83.768C137.974 84.2587 137.729 85.0373 137.729 86.104ZM159.101 95.32C156.391 95.32 154.269 94.6587 152.733 93.336C151.218 92.0133 150.461 90.04 150.461 87.416C150.461 84.7493 151.25 82.7653 152.829 81.464C154.429 80.1627 156.551 79.512 159.197 79.512C160.306 79.512 161.266 79.5973 162.077 79.768C162.909 79.9173 163.709 80.1733 164.477 80.536V84.184C163.282 83.608 161.885 83.32 160.285 83.32C158.791 83.32 157.65 83.6187 156.861 84.216C156.093 84.8133 155.709 85.88 155.709 87.416C155.709 88.8453 156.071 89.8907 156.797 90.552C157.522 91.192 158.674 91.512 160.253 91.512C161.81 91.512 163.229 91.192 164.509 90.552V94.36C163.741 94.7013 162.909 94.9467 162.013 95.096C161.138 95.2453 160.167 95.32 159.101 95.32ZM173.372 95.32C171.495 95.32 170.108 94.84 169.212 93.88C168.337 92.92 167.9 91.5973 167.9 89.912V83.736H165.852V79.832H167.9V76.664L173.052 75.288V79.832H176.732L176.508 83.736H173.052V89.56C173.052 90.2853 173.233 90.7973 173.596 91.096C173.959 91.3733 174.503 91.512 175.228 91.512C175.847 91.512 176.476 91.4053 177.116 91.192V94.68C176.113 95.1067 174.865 95.32 173.372 95.32ZM184.317 95.32C182.525 95.32 181.127 94.8187 180.125 93.816C179.122 92.792 178.621 91.3093 178.621 89.368V79.832H183.773V89.08C183.773 89.9333 183.975 90.5627 184.381 90.968C184.807 91.352 185.437 91.544 186.269 91.544C186.887 91.544 187.474 91.416 188.029 91.16C188.583 90.904 189.042 90.584 189.405 90.2V79.832H194.557V95H189.757L189.597 93.72C188.978 94.1893 188.231 94.5733 187.357 94.872C186.482 95.1707 185.469 95.32 184.317 95.32ZM197.82 95V79.832H202.716L202.876 81.24C203.537 80.8347 204.358 80.472 205.34 80.152C206.321 79.8107 207.302 79.5973 208.284 79.512V83.384C207.729 83.448 207.11 83.5547 206.428 83.704C205.766 83.832 205.126 83.992 204.508 84.184C203.91 84.376 203.398 84.5787 202.972 84.792V95H197.82ZM217.729 95.32C215.083 95.32 212.961 94.6693 211.361 93.368C209.761 92.0453 208.961 90.0613 208.961 87.416C208.961 85.0053 209.622 83.0853 210.945 81.656C212.267 80.2267 214.251 79.512 216.897 79.512C219.307 79.512 221.174 80.1307 222.497 81.368C223.819 82.6053 224.481 84.2693 224.481 86.36V89.08H213.729C213.963 90.0827 214.507 90.7867 215.361 91.192C216.235 91.576 217.419 91.768 218.913 91.768C219.745 91.768 220.587 91.6933 221.441 91.544C222.315 91.3947 223.041 91.2027 223.617 90.968V94.328C222.891 94.6693 222.027 94.9147 221.025 95.064C220.022 95.2347 218.923 95.32 217.729 95.32ZM213.729 86.104H220.001V85.432C220.001 84.6853 219.777 84.0987 219.329 83.672C218.881 83.224 218.123 83 217.057 83C215.819 83 214.955 83.256 214.465 83.768C213.974 84.2587 213.729 85.0373 213.729 86.104ZM41.632 127V106.392H51.776C53.4187 106.392 54.7733 106.723 55.84 107.384C56.9067 108.024 57.696 108.899 58.208 110.008C58.7413 111.117 59.008 112.365 59.008 113.752C59.008 115.16 58.7093 116.408 58.112 117.496C57.5147 118.584 56.6613 119.437 55.552 120.056C54.464 120.653 53.1627 120.952 51.648 120.952H46.784V127H41.632ZM46.784 116.984H50.496C51.584 116.984 52.3947 116.685 52.928 116.088C53.4827 115.491 53.76 114.701 53.76 113.72C53.76 112.653 53.504 111.832 52.992 111.256C52.5013 110.659 51.7227 110.36 50.656 110.36H46.784V116.984ZM61.0383 127V111.832H65.9343L66.0943 113.24C66.7556 112.835 67.5769 112.472 68.5583 112.152C69.5396 111.811 70.5209 111.597 71.5023 111.512V115.384C70.9476 115.448 70.3289 115.555 69.6463 115.704C68.9849 115.832 68.3449 115.992 67.7263 116.184C67.1289 116.376 66.6169 116.579 66.1903 116.792V127H61.0383ZM80.7235 127.32C77.8008 127.32 75.6462 126.648 74.2595 125.304C72.8728 123.939 72.1795 121.976 72.1795 119.416C72.1795 116.877 72.8728 114.925 74.2595 113.56C75.6675 112.195 77.8222 111.512 80.7235 111.512C83.6462 111.512 85.8008 112.195 87.1875 113.56C88.5955 114.925 89.2995 116.877 89.2995 119.416C89.2995 121.976 88.6062 123.939 87.2195 125.304C85.8328 126.648 83.6675 127.32 80.7235 127.32ZM80.7235 123.288C81.9182 123.288 82.7715 122.989 83.2835 122.392C83.7955 121.795 84.0515 120.803 84.0515 119.416C84.0515 118.029 83.7955 117.037 83.2835 116.44C82.7715 115.843 81.9182 115.544 80.7235 115.544C79.5502 115.544 78.7075 115.843 78.1955 116.44C77.6835 117.037 77.4275 118.029 77.4275 119.416C77.4275 120.803 77.6835 121.795 78.1955 122.392C78.7075 122.989 79.5502 123.288 80.7235 123.288ZM93.0528 109.432V105.56H98.6528V109.432H93.0528ZM93.1168 134.488C91.6021 134.488 90.3434 134.275 89.3407 133.848V130.36C89.9808 130.573 90.6208 130.68 91.2608 130.68C92.7541 130.68 93.5008 130.04 93.5008 128.76V115.64H91.2608L91.7088 111.832H98.6528V129.208C98.6528 130.765 98.2048 132.035 97.3088 133.016C96.4128 133.997 95.0154 134.488 93.1168 134.488ZM110.041 127.32C107.396 127.32 105.273 126.669 103.673 125.368C102.073 124.045 101.273 122.061 101.273 119.416C101.273 117.005 101.935 115.085 103.257 113.656C104.58 112.227 106.564 111.512 109.209 111.512C111.62 111.512 113.487 112.131 114.809 113.368C116.132 114.605 116.793 116.269 116.793 118.36V121.08H106.041C106.276 122.083 106.82 122.787 107.673 123.192C108.548 123.576 109.732 123.768 111.225 123.768C112.057 123.768 112.9 123.693 113.753 123.544C114.628 123.395 115.353 123.203 115.929 122.968V126.328C115.204 126.669 114.34 126.915 113.337 127.064C112.335 127.235 111.236 127.32 110.041 127.32ZM106.041 118.104H112.313V117.432C112.313 116.685 112.089 116.099 111.641 115.672C111.193 115.224 110.436 115 109.369 115C108.132 115 107.268 115.256 106.777 115.768C106.287 116.259 106.041 117.037 106.041 118.104ZM127.413 127.32C124.704 127.32 122.581 126.659 121.045 125.336C119.531 124.013 118.773 122.04 118.773 119.416C118.773 116.749 119.563 114.765 121.141 113.464C122.741 112.163 124.864 111.512 127.509 111.512C128.619 111.512 129.579 111.597 130.389 111.768C131.221 111.917 132.021 112.173 132.789 112.536V116.184C131.595 115.608 130.197 115.32 128.597 115.32C127.104 115.32 125.963 115.619 125.173 116.216C124.405 116.813 124.021 117.88 124.021 119.416C124.021 120.845 124.384 121.891 125.109 122.552C125.835 123.192 126.987 123.512 128.565 123.512C130.123 123.512 131.541 123.192 132.821 122.552V126.36C132.053 126.701 131.221 126.947 130.325 127.096C129.451 127.245 128.48 127.32 127.413 127.32ZM141.685 127.32C139.807 127.32 138.421 126.84 137.525 125.88C136.65 124.92 136.213 123.597 136.213 121.912V115.736H134.165V111.832H136.213V108.664L141.365 107.288V111.832H145.045L144.821 115.736H141.365V121.56C141.365 122.285 141.546 122.797 141.909 123.096C142.271 123.373 142.815 123.512 143.541 123.512C144.159 123.512 144.789 123.405 145.429 123.192V126.68C144.426 127.107 143.178 127.32 141.685 127.32ZM153.045 127.32C151.829 127.32 150.677 127.235 149.589 127.064C148.501 126.893 147.637 126.68 146.997 126.424V122.488C147.744 122.808 148.608 123.053 149.589 123.224C150.571 123.395 151.445 123.48 152.213 123.48C153.131 123.48 153.792 123.437 154.197 123.352C154.624 123.267 154.837 123.032 154.837 122.648C154.837 122.221 154.496 121.901 153.813 121.688C153.131 121.475 152.192 121.165 150.997 120.76C149.611 120.269 148.555 119.704 147.829 119.064C147.125 118.403 146.773 117.432 146.773 116.152C146.773 114.659 147.328 113.517 148.437 112.728C149.568 111.917 151.36 111.512 153.813 111.512C154.773 111.512 155.723 111.587 156.661 111.736C157.6 111.885 158.368 112.056 158.965 112.248V116.12C158.368 115.843 157.685 115.64 156.917 115.512C156.149 115.384 155.456 115.32 154.837 115.32C154.048 115.32 153.376 115.373 152.821 115.48C152.288 115.565 152.021 115.789 152.021 116.152C152.021 116.557 152.32 116.845 152.917 117.016C153.515 117.165 154.379 117.421 155.509 117.784C156.704 118.147 157.632 118.541 158.293 118.968C158.955 119.373 159.424 119.864 159.701 120.44C159.979 121.016 160.117 121.741 160.117 122.616C160.117 124.131 159.52 125.293 158.325 126.104C157.131 126.915 155.371 127.32 153.045 127.32Z" fill="black"/>
<path d="M45.408 154.16C43.9893 154.16 42.8853 153.819 42.096 153.136C41.3173 152.453 40.928 151.467 40.928 150.176V143.696H42.672V150.112C42.672 150.976 42.9067 151.621 43.376 152.048C43.856 152.475 44.5333 152.688 45.408 152.688C46.272 152.688 46.9387 152.475 47.408 152.048C47.888 151.621 48.128 150.976 48.128 150.112V143.696H49.856V150.176C49.856 151.467 49.4667 152.453 48.688 153.136C47.9093 153.819 46.816 154.16 45.408 154.16ZM51.7893 154V146.416H53.3893L53.4693 147.216C53.8106 146.949 54.2159 146.725 54.6853 146.544C55.1653 146.352 55.6933 146.256 56.2693 146.256C57.2506 146.256 57.9653 146.485 58.4133 146.944C58.8613 147.403 59.0853 148.117 59.0853 149.088V154H57.3573V149.168C57.3573 148.581 57.2346 148.171 56.9893 147.936C56.7546 147.701 56.3066 147.584 55.6453 147.584C55.2506 147.584 54.8613 147.664 54.4773 147.824C54.1039 147.984 53.7893 148.192 53.5333 148.448V154H51.7893ZM64.019 154.16C63.3363 154.16 62.7337 154.043 62.211 153.808C61.6883 153.573 61.283 153.184 60.995 152.64C60.707 152.096 60.563 151.365 60.563 150.448C60.563 149.541 60.7177 148.779 61.027 148.16C61.3363 147.531 61.763 147.056 62.307 146.736C62.8617 146.416 63.4857 146.256 64.179 146.256C64.6377 146.256 65.043 146.309 65.395 146.416C65.7577 146.523 66.1043 146.688 66.435 146.912V143.216H68.179V154H66.691L66.579 153.248C66.2377 153.557 65.8643 153.787 65.459 153.936C65.0537 154.085 64.5737 154.16 64.019 154.16ZM64.483 152.848C65.2617 152.848 65.9123 152.581 66.435 152.048V148.256C65.9337 147.808 65.3043 147.584 64.547 147.584C63.811 147.584 63.2563 147.829 62.883 148.32C62.5097 148.811 62.323 149.525 62.323 150.464C62.323 151.371 62.4937 151.995 62.835 152.336C63.187 152.677 63.7363 152.848 64.483 152.848ZM73.8793 154.16C72.5566 154.16 71.5326 153.835 70.8073 153.184C70.0819 152.533 69.7193 151.536 69.7193 150.192C69.7193 148.976 70.0286 148.016 70.6473 147.312C71.2659 146.608 72.2046 146.256 73.4633 146.256C74.6153 146.256 75.4793 146.56 76.0553 147.168C76.6419 147.765 76.9353 148.539 76.9353 149.488V150.896H71.3832C71.4686 151.632 71.7353 152.139 72.1833 152.416C72.6313 152.693 73.3139 152.832 74.2313 152.832C74.6153 152.832 75.0099 152.795 75.4153 152.72C75.8206 152.645 76.1726 152.549 76.4713 152.432V153.712C76.1299 153.861 75.7353 153.973 75.2873 154.048C74.8499 154.123 74.3806 154.16 73.8793 154.16ZM71.3832 149.76H75.3993V149.232C75.3993 148.709 75.2553 148.304 74.9673 148.016C74.6793 147.717 74.1939 147.568 73.5113 147.568C72.7006 147.568 72.1406 147.744 71.8313 148.096C71.5326 148.448 71.3832 149.003 71.3832 149.76ZM78.633 154V146.416H80.233L80.329 147.296C80.6917 147.061 81.1237 146.848 81.625 146.656C82.1263 146.464 82.6223 146.331 83.113 146.256V147.584C82.8143 147.637 82.489 147.717 82.137 147.824C81.7957 147.92 81.4703 148.032 81.161 148.16C80.8517 148.277 80.5903 148.4 80.377 148.528V154H78.633ZM87.455 156.816C86.8897 156.816 86.3243 156.779 85.759 156.704C85.1937 156.64 84.7137 156.539 84.319 156.4V155.056C84.7457 155.195 85.2363 155.301 85.791 155.376C86.3457 155.451 86.8737 155.488 87.375 155.488C88.143 155.488 88.703 155.445 89.055 155.36C89.407 155.275 89.583 155.083 89.583 154.784C89.583 154.56 89.4977 154.4 89.327 154.304C89.1563 154.219 88.831 154.176 88.351 154.176H86.303C84.927 154.176 84.239 153.691 84.239 152.72C84.239 152.411 84.3297 152.123 84.511 151.856C84.6923 151.589 84.9803 151.387 85.375 151.248C84.9377 151.035 84.6123 150.741 84.399 150.368C84.1963 149.995 84.095 149.547 84.095 149.024C84.095 148.053 84.383 147.349 84.959 146.912C85.5457 146.475 86.4203 146.256 87.583 146.256C87.8283 146.256 88.0843 146.277 88.351 146.32C88.6177 146.352 88.8257 146.384 88.975 146.416H91.759L91.711 147.552H90.431C90.6337 147.723 90.783 147.936 90.879 148.192C90.975 148.448 91.023 148.725 91.023 149.024C91.023 149.835 90.7777 150.475 90.287 150.944C89.7963 151.403 89.055 151.632 88.063 151.632C87.8923 151.632 87.7323 151.627 87.583 151.616C87.4443 151.595 87.2897 151.573 87.119 151.552C86.799 151.584 86.511 151.669 86.255 151.808C85.999 151.947 85.871 152.133 85.871 152.368C85.871 152.528 85.935 152.645 86.063 152.72C86.191 152.784 86.4043 152.816 86.703 152.816H88.831C89.5883 152.816 90.1697 152.981 90.575 153.312C90.991 153.632 91.199 154.101 91.199 154.72C91.199 155.467 90.8737 156 90.223 156.32C89.583 156.651 88.6603 156.816 87.455 156.816ZM87.583 150.528C88.2763 150.528 88.7563 150.411 89.023 150.176C89.3003 149.941 89.439 149.541 89.439 148.976C89.439 148.411 89.3003 148 89.023 147.744C88.7563 147.488 88.2763 147.36 87.583 147.36C86.9323 147.36 86.4577 147.483 86.159 147.728C85.8603 147.973 85.711 148.389 85.711 148.976C85.711 149.52 85.8497 149.915 86.127 150.16C86.415 150.405 86.9003 150.528 87.583 150.528ZM92.8361 154V146.416H94.4361L94.5321 147.296C94.8948 147.061 95.3268 146.848 95.8281 146.656C96.3295 146.464 96.8255 146.331 97.3161 146.256V147.584C97.0175 147.637 96.6921 147.717 96.3401 147.824C95.9988 147.92 95.6735 148.032 95.3641 148.16C95.0548 148.277 94.7935 148.4 94.5801 148.528V154H92.8361ZM100.47 154.16C99.9898 154.16 99.5418 154.075 99.1258 153.904C98.7204 153.733 98.3951 153.477 98.1497 153.136C97.9044 152.784 97.7818 152.352 97.7818 151.84C97.7818 151.115 98.0271 150.533 98.5178 150.096C99.0191 149.648 99.7871 149.424 100.822 149.424H103.254V149.088C103.254 148.725 103.195 148.437 103.078 148.224C102.971 148.011 102.768 147.856 102.47 147.76C102.182 147.664 101.755 147.616 101.19 147.616C100.294 147.616 99.4564 147.749 98.6778 148.016V146.72C99.0191 146.581 99.4351 146.469 99.9258 146.384C100.416 146.299 100.944 146.256 101.51 146.256C102.619 146.256 103.462 146.48 104.038 146.928C104.624 147.376 104.918 148.107 104.918 149.12V154H103.43L103.318 153.232C103.008 153.531 102.624 153.76 102.166 153.92C101.718 154.08 101.152 154.16 100.47 154.16ZM100.934 152.912C101.456 152.912 101.91 152.827 102.294 152.656C102.688 152.475 103.008 152.235 103.254 151.936V150.608H100.854C100.342 150.608 99.9684 150.709 99.7338 150.912C99.5098 151.104 99.3978 151.403 99.3978 151.808C99.3978 152.203 99.5311 152.485 99.7978 152.656C100.064 152.827 100.443 152.912 100.934 152.912ZM109.988 154.16C109.305 154.16 108.702 154.043 108.18 153.808C107.657 153.573 107.252 153.184 106.964 152.64C106.676 152.096 106.532 151.365 106.532 150.448C106.532 149.541 106.686 148.779 106.996 148.16C107.305 147.531 107.732 147.056 108.276 146.736C108.83 146.416 109.454 146.256 110.148 146.256C110.606 146.256 111.012 146.309 111.364 146.416C111.726 146.523 112.073 146.688 112.404 146.912V143.216H114.148V154H112.66L112.548 153.248C112.206 153.557 111.833 153.787 111.428 153.936C111.022 154.085 110.542 154.16 109.988 154.16ZM110.452 152.848C111.23 152.848 111.881 152.581 112.404 152.048V148.256C111.902 147.808 111.273 147.584 110.516 147.584C109.78 147.584 109.225 147.829 108.852 148.32C108.478 148.811 108.292 149.525 108.292 150.464C108.292 151.371 108.462 151.995 108.804 152.336C109.156 152.677 109.705 152.848 110.452 152.848ZM118.9 154.16C117.994 154.16 117.295 153.909 116.804 153.408C116.324 152.907 116.084 152.171 116.084 151.2V146.416H117.828V151.2C117.828 151.765 117.967 152.181 118.244 152.448C118.522 152.715 118.948 152.848 119.524 152.848C119.951 152.848 120.346 152.768 120.708 152.608C121.071 152.448 121.386 152.235 121.652 151.968V146.416H123.38V154H121.796L121.716 153.216C121.375 153.483 120.97 153.707 120.5 153.888C120.031 154.069 119.498 154.16 118.9 154.16ZM127.548 154.16C127.068 154.16 126.62 154.075 126.204 153.904C125.799 153.733 125.473 153.477 125.228 153.136C124.983 152.784 124.86 152.352 124.86 151.84C124.86 151.115 125.105 150.533 125.596 150.096C126.097 149.648 126.865 149.424 127.9 149.424H130.332V149.088C130.332 148.725 130.273 148.437 130.156 148.224C130.049 148.011 129.847 147.856 129.548 147.76C129.26 147.664 128.833 147.616 128.268 147.616C127.372 147.616 126.535 147.749 125.756 148.016V146.72C126.097 146.581 126.513 146.469 127.004 146.384C127.495 146.299 128.023 146.256 128.588 146.256C129.697 146.256 130.54 146.48 131.116 146.928C131.703 147.376 131.996 148.107 131.996 149.12V154H130.508L130.396 153.232C130.087 153.531 129.703 153.76 129.244 153.92C128.796 154.08 128.231 154.16 127.548 154.16ZM128.012 152.912C128.535 152.912 128.988 152.827 129.372 152.656C129.767 152.475 130.087 152.235 130.332 151.936V150.608H127.932C127.42 150.608 127.047 150.709 126.812 150.912C126.588 151.104 126.476 151.403 126.476 151.808C126.476 152.203 126.609 152.485 126.876 152.656C127.143 152.827 127.521 152.912 128.012 152.912ZM136.826 154.16C136.015 154.16 135.407 153.947 135.002 153.52C134.607 153.083 134.41 152.491 134.41 151.744V147.776H133.29V146.416H134.41V144.672L136.138 144.144V146.416H138.154L138.042 147.776H136.138V151.648C136.138 152.085 136.239 152.395 136.442 152.576C136.645 152.747 136.975 152.832 137.434 152.832C137.722 152.832 138.026 152.779 138.346 152.672V153.904C137.93 154.075 137.423 154.16 136.826 154.16ZM143.52 154.16C142.197 154.16 141.173 153.835 140.448 153.184C139.723 152.533 139.36 151.536 139.36 150.192C139.36 148.976 139.669 148.016 140.288 147.312C140.907 146.608 141.845 146.256 143.104 146.256C144.256 146.256 145.12 146.56 145.696 147.168C146.283 147.765 146.576 148.539 146.576 149.488V150.896H141.024C141.109 151.632 141.376 152.139 141.824 152.416C142.272 152.693 142.955 152.832 143.872 152.832C144.256 152.832 144.651 152.795 145.056 152.72C145.461 152.645 145.813 152.549 146.112 152.432V153.712C145.771 153.861 145.376 153.973 144.928 154.048C144.491 154.123 144.021 154.16 143.52 154.16ZM141.024 149.76H145.04V149.232C145.04 148.709 144.896 148.304 144.608 148.016C144.32 147.717 143.835 147.568 143.152 147.568C142.341 147.568 141.781 147.744 141.472 148.096C141.173 148.448 141.024 149.003 141.024 149.76ZM154.329 154.16C153.849 154.16 153.401 154.075 152.985 153.904C152.58 153.733 152.254 153.477 152.009 153.136C151.764 152.784 151.641 152.352 151.641 151.84C151.641 151.115 151.886 150.533 152.377 150.096C152.878 149.648 153.646 149.424 154.681 149.424H157.113V149.088C157.113 148.725 157.054 148.437 156.937 148.224C156.83 148.011 156.628 147.856 156.329 147.76C156.041 147.664 155.614 147.616 155.049 147.616C154.153 147.616 153.316 147.749 152.537 148.016V146.72C152.878 146.581 153.294 146.469 153.785 146.384C154.276 146.299 154.804 146.256 155.369 146.256C156.478 146.256 157.321 146.48 157.897 146.928C158.484 147.376 158.777 148.107 158.777 149.12V154H157.289L157.177 153.232C156.868 153.531 156.484 153.76 156.025 153.92C155.577 154.08 155.012 154.16 154.329 154.16ZM154.793 152.912C155.316 152.912 155.769 152.827 156.153 152.656C156.548 152.475 156.868 152.235 157.113 151.936V150.608H154.713C154.201 150.608 153.828 150.709 153.593 150.912C153.369 151.104 153.257 151.403 153.257 151.808C153.257 152.203 153.39 152.485 153.657 152.656C153.924 152.827 154.302 152.912 154.793 152.912ZM164.439 154.16C163.106 154.16 162.098 153.824 161.415 153.152C160.732 152.469 160.391 151.488 160.391 150.208C160.391 148.875 160.764 147.883 161.511 147.232C162.268 146.581 163.276 146.256 164.535 146.256C165.058 146.256 165.495 146.293 165.847 146.368C166.21 146.443 166.556 146.56 166.887 146.72V148.016C166.332 147.739 165.66 147.6 164.871 147.6C163.996 147.6 163.324 147.797 162.855 148.192C162.386 148.576 162.151 149.248 162.151 150.208C162.151 151.115 162.359 151.781 162.775 152.208C163.191 152.624 163.879 152.832 164.839 152.832C165.596 152.832 166.284 152.688 166.903 152.4V153.728C166.551 153.867 166.172 153.973 165.767 154.048C165.372 154.123 164.93 154.16 164.439 154.16ZM170.657 154.16C170.177 154.16 169.729 154.075 169.313 153.904C168.908 153.733 168.583 153.477 168.337 153.136C168.092 152.784 167.969 152.352 167.969 151.84C167.969 151.115 168.215 150.533 168.705 150.096C169.207 149.648 169.975 149.424 171.009 149.424H173.441V149.088C173.441 148.725 173.383 148.437 173.265 148.224C173.159 148.011 172.956 147.856 172.657 147.76C172.369 147.664 171.943 147.616 171.377 147.616C170.481 147.616 169.644 147.749 168.865 148.016V146.72C169.207 146.581 169.623 146.469 170.113 146.384C170.604 146.299 171.132 146.256 171.697 146.256C172.807 146.256 173.649 146.48 174.225 146.928C174.812 147.376 175.105 148.107 175.105 149.12V154H173.617L173.505 153.232C173.196 153.531 172.812 153.76 172.353 153.92C171.905 154.08 171.34 154.16 170.657 154.16ZM171.121 152.912C171.644 152.912 172.097 152.827 172.481 152.656C172.876 152.475 173.196 152.235 173.441 151.936V150.608H171.041C170.529 150.608 170.156 150.709 169.921 150.912C169.697 151.104 169.585 151.403 169.585 151.808C169.585 152.203 169.719 152.485 169.985 152.656C170.252 152.827 170.631 152.912 171.121 152.912ZM180.175 154.16C179.493 154.16 178.89 154.043 178.367 153.808C177.845 153.573 177.439 153.184 177.151 152.64C176.863 152.096 176.719 151.365 176.719 150.448C176.719 149.541 176.874 148.779 177.183 148.16C177.493 147.531 177.919 147.056 178.463 146.736C179.018 146.416 179.642 146.256 180.335 146.256C180.794 146.256 181.199 146.309 181.551 146.416C181.914 146.523 182.261 146.688 182.591 146.912V143.216H184.335V154H182.847L182.735 153.248C182.394 153.557 182.021 153.787 181.615 153.936C181.21 154.085 180.73 154.16 180.175 154.16ZM180.639 152.848C181.418 152.848 182.069 152.581 182.591 152.048V148.256C182.09 147.808 181.461 147.584 180.703 147.584C179.967 147.584 179.413 147.829 179.039 148.32C178.666 148.811 178.479 149.525 178.479 150.464C178.479 151.371 178.65 151.995 178.991 152.336C179.343 152.677 179.893 152.848 180.639 152.848ZM190.036 154.16C188.713 154.16 187.689 153.835 186.964 153.184C186.238 152.533 185.876 151.536 185.876 150.192C185.876 148.976 186.185 148.016 186.804 147.312C187.422 146.608 188.361 146.256 189.62 146.256C190.772 146.256 191.636 146.56 192.212 147.168C192.798 147.765 193.092 148.539 193.092 149.488V150.896H187.539C187.625 151.632 187.892 152.139 188.34 152.416C188.788 152.693 189.47 152.832 190.388 152.832C190.772 152.832 191.166 152.795 191.572 152.72C191.977 152.645 192.329 152.549 192.628 152.432V153.712C192.286 153.861 191.892 153.973 191.444 154.048C191.006 154.123 190.537 154.16 190.036 154.16ZM187.539 149.76H191.556V149.232C191.556 148.709 191.412 148.304 191.124 148.016C190.836 147.717 190.35 147.568 189.668 147.568C188.857 147.568 188.297 147.744 187.988 148.096C187.689 148.448 187.539 149.003 187.539 149.76ZM194.789 154V146.416H196.389L196.469 147.216C196.843 146.917 197.253 146.683 197.701 146.512C198.149 146.341 198.629 146.256 199.141 146.256C199.685 146.256 200.107 146.347 200.405 146.528C200.715 146.699 200.949 146.939 201.109 147.248C201.461 146.96 201.867 146.725 202.325 146.544C202.784 146.352 203.333 146.256 203.973 146.256C204.848 146.256 205.493 146.48 205.909 146.928C206.325 147.376 206.533 148.064 206.533 148.992V154H204.821V149.168C204.821 148.581 204.699 148.171 204.453 147.936C204.208 147.701 203.808 147.584 203.253 147.584C202.891 147.584 202.544 147.648 202.213 147.776C201.893 147.904 201.616 148.096 201.381 148.352C201.413 148.469 201.435 148.592 201.445 148.72C201.456 148.848 201.461 148.987 201.461 149.136V154H199.845V149.184C199.845 148.629 199.749 148.224 199.557 147.968C199.365 147.712 199.003 147.584 198.469 147.584C198.096 147.584 197.739 147.675 197.397 147.856C197.067 148.027 196.768 148.235 196.501 148.48V154H194.789ZM209.132 144.832V143.392H211.036V144.832H209.132ZM209.276 154V147.744H208.124L208.284 146.416H211.02V154H209.276ZM216.783 154.16C215.45 154.16 214.442 153.824 213.759 153.152C213.076 152.469 212.735 151.488 212.735 150.208C212.735 148.875 213.108 147.883 213.855 147.232C214.612 146.581 215.62 146.256 216.879 146.256C217.402 146.256 217.839 146.293 218.191 146.368C218.554 146.443 218.9 146.56 219.231 146.72V148.016C218.676 147.739 218.004 147.6 217.215 147.6C216.34 147.6 215.668 147.797 215.199 148.192C214.73 148.576 214.495 149.248 214.495 150.208C214.495 151.115 214.703 151.781 215.119 152.208C215.535 152.624 216.223 152.832 217.183 152.832C217.94 152.832 218.628 152.688 219.247 152.4V153.728C218.895 153.867 218.516 153.973 218.111 154.048C217.716 154.123 217.274 154.16 216.783 154.16ZM226.001 154L224.001 146.416H225.745L227.057 151.936L228.545 147.344V146.416H229.873L231.521 151.936L232.833 146.416H234.561L232.577 154H230.929L229.313 149.04L227.665 154H226.001ZM239.171 154.16C237.806 154.16 236.803 153.819 236.163 153.136C235.534 152.453 235.219 151.477 235.219 150.208C235.219 148.939 235.539 147.963 236.179 147.28C236.819 146.597 237.817 146.256 239.171 146.256C240.537 146.256 241.539 146.597 242.179 147.28C242.819 147.963 243.139 148.939 243.139 150.208C243.139 151.477 242.819 152.453 242.179 153.136C241.55 153.819 240.547 154.16 239.171 154.16ZM239.171 152.688C239.971 152.688 240.537 152.496 240.867 152.112C241.209 151.717 241.379 151.083 241.379 150.208C241.379 149.333 241.209 148.704 240.867 148.32C240.537 147.936 239.971 147.744 239.171 147.744C238.382 147.744 237.817 147.936 237.475 148.32C237.145 148.704 236.979 149.333 236.979 150.208C236.979 151.083 237.145 151.717 237.475 152.112C237.817 152.496 238.382 152.688 239.171 152.688ZM244.836 154V146.416H246.436L246.532 147.296C246.895 147.061 247.327 146.848 247.828 146.656C248.329 146.464 248.825 146.331 249.316 146.256V147.584C249.017 147.637 248.692 147.717 248.34 147.824C247.999 147.92 247.673 148.032 247.364 148.16C247.055 148.277 246.793 148.4 246.58 148.528V154H244.836ZM250.586 154V143.216H252.33V149.456L255.514 146.416H257.514L254.426 149.472L257.69 154H255.85L253.338 150.4L252.33 151.36V154H250.586ZM261.145 154.16C260.623 154.16 260.121 154.123 259.641 154.048C259.172 153.973 258.783 153.883 258.473 153.776V152.304C258.836 152.443 259.236 152.549 259.673 152.624C260.111 152.699 260.527 152.736 260.921 152.736C261.519 152.736 261.945 152.683 262.201 152.576C262.457 152.469 262.585 152.261 262.585 151.952C262.585 151.728 262.505 151.552 262.345 151.424C262.196 151.296 261.967 151.179 261.657 151.072C261.359 150.965 260.975 150.837 260.505 150.688C260.057 150.539 259.668 150.379 259.337 150.208C259.007 150.027 258.751 149.797 258.569 149.52C258.388 149.243 258.297 148.88 258.297 148.432C258.297 147.739 258.548 147.205 259.049 146.832C259.551 146.448 260.356 146.256 261.465 146.256C261.903 146.256 262.319 146.288 262.713 146.352C263.108 146.416 263.444 146.496 263.721 146.592V148.048C263.423 147.931 263.092 147.84 262.729 147.776C262.377 147.712 262.047 147.68 261.737 147.68C261.183 147.68 260.761 147.728 260.473 147.824C260.196 147.92 260.057 148.112 260.057 148.4C260.057 148.699 260.201 148.912 260.489 149.04C260.788 149.157 261.263 149.323 261.913 149.536C262.511 149.717 262.985 149.909 263.337 150.112C263.689 150.315 263.94 150.56 264.089 150.848C264.249 151.125 264.329 151.488 264.329 151.936C264.329 152.683 264.057 153.243 263.513 153.616C262.969 153.979 262.18 154.16 261.145 154.16Z" fill="white"/>
</svg>
