<svg width="400" height="400" viewBox="0 0 400 400" fill="none" xmlns="http://www.w3.org/2000/svg">
<circle cx="200" cy="200" r="200" fill="#309659"/>
<path d="M33.596 53V33.4H40.204V47.876H49.052V53H33.596ZM60.2227 53V50.284L59.7747 49.556V44.404C59.7747 43.6573 59.5414 43.088 59.0747 42.696C58.6267 42.304 57.8894 42.108 56.8627 42.108C56.172 42.108 55.472 42.22 54.7627 42.444C54.0534 42.6493 53.4467 42.9387 52.9427 43.312L50.9267 39.14C51.8227 38.58 52.896 38.1507 54.1467 37.852C55.3974 37.5533 56.62 37.404 57.8147 37.404C60.4467 37.404 62.4814 37.992 63.9187 39.168C65.3747 40.344 66.1027 42.2107 66.1027 44.768V53H60.2227ZM55.8827 53.28C54.632 53.28 53.5867 53.0653 52.7467 52.636C51.9067 52.2067 51.272 51.6373 50.8427 50.928C50.4134 50.2 50.1987 49.3973 50.1987 48.52C50.1987 47.5307 50.4507 46.6907 50.9547 46C51.4587 45.3093 52.224 44.7867 53.2507 44.432C54.296 44.0773 55.612 43.9 57.1987 43.9H60.3907V46.952H58.2067C57.5347 46.952 57.04 47.064 56.7227 47.288C56.424 47.4933 56.2747 47.8107 56.2747 48.24C56.2747 48.5947 56.4054 48.8933 56.6667 49.136C56.9467 49.36 57.32 49.472 57.7867 49.472C58.216 49.472 58.608 49.36 58.9627 49.136C59.336 48.8933 59.6067 48.52 59.7747 48.016L60.5867 49.892C60.344 51.0307 59.8307 51.88 59.0467 52.44C58.2627 53 57.208 53.28 55.8827 53.28ZM79.4775 37.404C80.6535 37.404 81.7175 37.6467 82.6695 38.132C83.6215 38.5987 84.3682 39.336 84.9095 40.344C85.4695 41.352 85.7495 42.6587 85.7495 44.264V53H79.4215V45.356C79.4215 44.404 79.2535 43.732 78.9175 43.34C78.5815 42.9293 78.1242 42.724 77.5455 42.724C77.1162 42.724 76.7148 42.8267 76.3415 43.032C75.9868 43.2187 75.6975 43.536 75.4735 43.984C75.2682 44.432 75.1655 45.0387 75.1655 45.804V53H68.8375V37.684H74.8575V42.164L73.6535 40.876C74.2508 39.7187 75.0535 38.8507 76.0615 38.272C77.0882 37.6933 78.2268 37.404 79.4775 37.404ZM95.4911 53.28C94.1658 53.28 92.9338 52.9627 91.7951 52.328C90.6751 51.6747 89.7791 50.76 89.1071 49.584C88.4351 48.3893 88.0991 46.9707 88.0991 45.328C88.0991 43.6853 88.4351 42.276 89.1071 41.1C89.7791 39.9053 90.6751 38.9907 91.7951 38.356C92.9338 37.7213 94.1658 37.404 95.4911 37.404C96.8351 37.404 97.9364 37.6933 98.7951 38.272C99.6538 38.832 100.288 39.7 100.699 40.876C101.11 42.0333 101.315 43.5173 101.315 45.328C101.315 47.1573 101.119 48.66 100.727 49.836C100.354 51.012 99.7378 51.88 98.8791 52.44C98.0391 53 96.9098 53.28 95.4911 53.28ZM97.0031 48.352C97.4698 48.352 97.8898 48.24 98.2631 48.016C98.6364 47.792 98.9351 47.456 99.1591 47.008C99.3831 46.5413 99.4951 45.9813 99.4951 45.328C99.4951 44.656 99.3831 44.1053 99.1591 43.676C98.9351 43.228 98.6364 42.892 98.2631 42.668C97.8898 42.444 97.4698 42.332 97.0031 42.332C96.5364 42.332 96.1164 42.444 95.7431 42.668C95.3698 42.892 95.0711 43.228 94.8471 43.676C94.6231 44.1053 94.5111 44.656 94.5111 45.328C94.5111 45.9813 94.6231 46.5413 94.8471 47.008C95.0711 47.456 95.3698 47.792 95.7431 48.016C96.1164 48.24 96.5364 48.352 97.0031 48.352ZM99.6911 53V50.928L99.6631 45.328L99.3831 39.728V32.224H105.711V53H99.6911ZM114.505 53.28C113.199 53.28 111.911 53.14 110.641 52.86C109.372 52.58 108.345 52.216 107.561 51.768L109.297 47.596C110.025 48.0253 110.865 48.3613 111.817 48.604C112.788 48.8467 113.731 48.968 114.645 48.968C115.411 48.968 115.924 48.9027 116.185 48.772C116.465 48.6413 116.605 48.464 116.605 48.24C116.605 48.016 116.447 47.8573 116.129 47.764C115.812 47.652 115.392 47.568 114.869 47.512C114.347 47.456 113.768 47.3907 113.133 47.316C112.517 47.2227 111.892 47.092 111.257 46.924C110.623 46.756 110.044 46.504 109.521 46.168C108.999 45.832 108.579 45.384 108.261 44.824C107.944 44.2453 107.785 43.5173 107.785 42.64C107.785 41.6693 108.075 40.792 108.653 40.008C109.251 39.224 110.128 38.5987 111.285 38.132C112.461 37.6467 113.908 37.404 115.625 37.404C116.745 37.404 117.865 37.5067 118.985 37.712C120.105 37.9173 121.067 38.2347 121.869 38.664L120.133 42.836C119.349 42.4067 118.575 42.1173 117.809 41.968C117.063 41.8 116.363 41.716 115.709 41.716C114.907 41.716 114.356 41.7907 114.057 41.94C113.777 42.0893 113.637 42.2573 113.637 42.444C113.637 42.668 113.796 42.836 114.113 42.948C114.431 43.06 114.851 43.144 115.373 43.2C115.896 43.256 116.465 43.3307 117.081 43.424C117.716 43.4987 118.341 43.6293 118.957 43.816C119.592 43.984 120.171 44.236 120.693 44.572C121.216 44.908 121.636 45.3653 121.953 45.944C122.271 46.504 122.429 47.2227 122.429 48.1C122.429 49.0147 122.14 49.8733 121.561 50.676C120.983 51.46 120.105 52.0947 118.929 52.58C117.753 53.0467 116.279 53.28 114.505 53.28ZM132.577 53.28C130.823 53.28 129.264 52.944 127.901 52.272C126.539 51.6 125.465 50.6667 124.681 49.472C123.916 48.2587 123.533 46.8773 123.533 45.328C123.533 43.7787 123.916 42.4067 124.681 41.212C125.465 40.0173 126.539 39.084 127.901 38.412C129.264 37.74 130.823 37.404 132.577 37.404C134.444 37.404 136.04 37.8053 137.365 38.608C138.691 39.4107 139.605 40.5213 140.109 41.94L135.209 44.348C134.892 43.6387 134.5 43.1253 134.033 42.808C133.585 42.4907 133.091 42.332 132.549 42.332C132.083 42.332 131.644 42.444 131.233 42.668C130.841 42.892 130.524 43.228 130.281 43.676C130.057 44.1053 129.945 44.656 129.945 45.328C129.945 46 130.057 46.56 130.281 47.008C130.524 47.456 130.841 47.792 131.233 48.016C131.644 48.24 132.083 48.352 132.549 48.352C133.091 48.352 133.585 48.1933 134.033 47.876C134.5 47.5587 134.892 47.0453 135.209 46.336L140.109 48.744C139.605 50.1627 138.691 51.2733 137.365 52.076C136.04 52.8787 134.444 53.28 132.577 53.28ZM150.84 53V50.284L150.392 49.556V44.404C150.392 43.6573 150.159 43.088 149.692 42.696C149.244 42.304 148.507 42.108 147.48 42.108C146.789 42.108 146.089 42.22 145.38 42.444C144.671 42.6493 144.064 42.9387 143.56 43.312L141.544 39.14C142.44 38.58 143.513 38.1507 144.764 37.852C146.015 37.5533 147.237 37.404 148.432 37.404C151.064 37.404 153.099 37.992 154.536 39.168C155.992 40.344 156.72 42.2107 156.72 44.768V53H150.84ZM146.5 53.28C145.249 53.28 144.204 53.0653 143.364 52.636C142.524 52.2067 141.889 51.6373 141.46 50.928C141.031 50.2 140.816 49.3973 140.816 48.52C140.816 47.5307 141.068 46.6907 141.572 46C142.076 45.3093 142.841 44.7867 143.868 44.432C144.913 44.0773 146.229 43.9 147.816 43.9H151.008V46.952H148.824C148.152 46.952 147.657 47.064 147.34 47.288C147.041 47.4933 146.892 47.8107 146.892 48.24C146.892 48.5947 147.023 48.8933 147.284 49.136C147.564 49.36 147.937 49.472 148.404 49.472C148.833 49.472 149.225 49.36 149.58 49.136C149.953 48.8933 150.224 48.52 150.392 48.016L151.204 49.892C150.961 51.0307 150.448 51.88 149.664 52.44C148.88 53 147.825 53.28 146.5 53.28ZM169.675 53.28C168.349 53.28 167.248 53 166.371 52.44C165.512 51.8613 164.877 50.9933 164.467 49.836C164.056 48.66 163.851 47.1667 163.851 45.356C163.851 43.508 164.037 42.0053 164.411 40.848C164.803 39.672 165.428 38.804 166.287 38.244C167.145 37.684 168.275 37.404 169.675 37.404C171.019 37.404 172.251 37.7307 173.371 38.384C174.491 39.0187 175.387 39.9333 176.059 41.128C176.731 42.304 177.067 43.7133 177.067 45.356C177.067 46.9987 176.731 48.4173 176.059 49.612C175.387 50.788 174.491 51.6933 173.371 52.328C172.251 52.9627 171.019 53.28 169.675 53.28ZM159.455 58.432V37.684H165.475V39.756L165.503 45.356L165.783 50.956V58.432H159.455ZM168.163 48.352C168.629 48.352 169.049 48.24 169.423 48.016C169.796 47.792 170.095 47.456 170.319 47.008C170.543 46.56 170.655 46.0093 170.655 45.356C170.655 44.684 170.543 44.124 170.319 43.676C170.095 43.228 169.796 42.892 169.423 42.668C169.049 42.444 168.629 42.332 168.163 42.332C167.696 42.332 167.276 42.444 166.903 42.668C166.529 42.892 166.231 43.228 166.007 43.676C165.783 44.124 165.671 44.684 165.671 45.356C165.671 46.0093 165.783 46.56 166.007 47.008C166.231 47.456 166.529 47.792 166.903 48.016C167.276 48.24 167.696 48.352 168.163 48.352ZM187.516 53.28C185.649 53.28 184.016 52.9347 182.616 52.244C181.235 51.5533 180.161 50.6107 179.396 49.416C178.631 48.2027 178.248 46.84 178.248 45.328C178.248 43.7787 178.621 42.4067 179.368 41.212C180.133 40.0173 181.169 39.084 182.476 38.412C183.801 37.74 185.285 37.404 186.928 37.404C188.44 37.404 189.831 37.7027 191.1 38.3C192.388 38.8973 193.415 39.784 194.18 40.96C194.964 42.136 195.356 43.592 195.356 45.328C195.356 45.552 195.347 45.804 195.328 46.084C195.309 46.3453 195.291 46.588 195.272 46.812H183.484V43.76H191.912L189.532 44.572C189.532 43.9747 189.42 43.4707 189.196 43.06C188.991 42.6307 188.701 42.304 188.328 42.08C187.955 41.8373 187.507 41.716 186.984 41.716C186.461 41.716 186.004 41.8373 185.612 42.08C185.239 42.304 184.949 42.6307 184.744 43.06C184.539 43.4707 184.436 43.9747 184.436 44.572V45.524C184.436 46.1773 184.567 46.7373 184.828 47.204C185.089 47.6707 185.463 48.0253 185.948 48.268C186.433 48.492 187.021 48.604 187.712 48.604C188.421 48.604 189 48.5107 189.448 48.324C189.915 48.1373 190.4 47.8573 190.904 47.484L194.208 50.816C193.461 51.6187 192.537 52.2347 191.436 52.664C190.353 53.0747 189.047 53.28 187.516 53.28ZM31.468 87L40.036 67.4H46.532L55.1 87H48.268L41.94 70.536H44.516L38.188 87H31.468ZM36.564 83.584L38.244 78.824H47.26L48.94 83.584H36.564ZM55.9586 87V71.684H61.9786V76.304L60.9986 74.988C61.4653 73.7933 62.2119 72.8973 63.2386 72.3C64.2653 71.7027 65.4973 71.404 66.9346 71.404V77.004C66.6546 76.9667 66.4026 76.9387 66.1786 76.92C65.9733 76.9013 65.7586 76.892 65.5346 76.892C64.5826 76.892 63.7986 77.144 63.1826 77.648C62.5853 78.1333 62.2866 78.9827 62.2866 80.196V87H55.9586ZM76.8234 87.28C75.0687 87.28 73.5101 86.944 72.1474 86.272C70.7847 85.6 69.7114 84.6667 68.9274 83.472C68.1621 82.2587 67.7794 80.8773 67.7794 79.328C67.7794 77.7787 68.1621 76.4067 68.9274 75.212C69.7114 74.0173 70.7847 73.084 72.1474 72.412C73.5101 71.74 75.0687 71.404 76.8234 71.404C78.6901 71.404 80.2861 71.8053 81.6114 72.608C82.9367 73.4107 83.8514 74.5213 84.3554 75.94L79.4554 78.348C79.1381 77.6387 78.7461 77.1253 78.2794 76.808C77.8314 76.4907 77.3367 76.332 76.7954 76.332C76.3287 76.332 75.8901 76.444 75.4794 76.668C75.0874 76.892 74.7701 77.228 74.5274 77.676C74.3034 78.1053 74.1914 78.656 74.1914 79.328C74.1914 80 74.3034 80.56 74.5274 81.008C74.7701 81.456 75.0874 81.792 75.4794 82.016C75.8901 82.24 76.3287 82.352 76.7954 82.352C77.3367 82.352 77.8314 82.1933 78.2794 81.876C78.7461 81.5587 79.1381 81.0453 79.4554 80.336L84.3554 82.744C83.8514 84.1627 82.9367 85.2733 81.6114 86.076C80.2861 86.8787 78.6901 87.28 76.8234 87.28ZM96.458 71.404C97.634 71.404 98.698 71.6467 99.65 72.132C100.602 72.5987 101.349 73.336 101.89 74.344C102.45 75.352 102.73 76.6587 102.73 78.264V87H96.402V79.356C96.402 78.404 96.234 77.732 95.898 77.34C95.562 76.9293 95.1046 76.724 94.526 76.724C94.0966 76.724 93.6953 76.8267 93.322 77.032C92.9673 77.2187 92.678 77.536 92.454 77.984C92.2486 78.432 92.146 79.0387 92.146 79.804V87H85.818V66.224H92.146V76.164L90.634 74.876C91.2313 73.7187 92.034 72.8507 93.042 72.272C94.0686 71.6933 95.2073 71.404 96.458 71.404ZM105.478 87V71.684H111.806V87H105.478ZM108.642 70.452C107.485 70.452 106.561 70.144 105.87 69.528C105.179 68.912 104.834 68.1467 104.834 67.232C104.834 66.3173 105.179 65.552 105.87 64.936C106.561 64.32 107.485 64.012 108.642 64.012C109.799 64.012 110.723 64.3013 111.414 64.88C112.105 65.4587 112.45 66.2053 112.45 67.12C112.45 68.0907 112.105 68.8933 111.414 69.528C110.723 70.144 109.799 70.452 108.642 70.452ZM122.003 87.28C119.894 87.28 118.251 86.776 117.075 85.768C115.899 84.7413 115.311 83.1733 115.311 81.064V68.24H121.639V81.008C121.639 81.4747 121.76 81.8387 122.003 82.1C122.264 82.3613 122.582 82.492 122.955 82.492C123.496 82.492 123.972 82.352 124.383 82.072L125.895 86.468C125.41 86.748 124.822 86.9533 124.131 87.084C123.459 87.2147 122.75 87.28 122.003 87.28ZM113.211 77.144V72.524H124.775V77.144H113.211ZM135.536 87.28C133.669 87.28 132.036 86.9347 130.636 86.244C129.254 85.5533 128.181 84.6107 127.416 83.416C126.65 82.2027 126.268 80.84 126.268 79.328C126.268 77.7787 126.641 76.4067 127.388 75.212C128.153 74.0173 129.189 73.084 130.496 72.412C131.821 71.74 133.305 71.404 134.948 71.404C136.46 71.404 137.85 71.7027 139.12 72.3C140.408 72.8973 141.434 73.784 142.2 74.96C142.984 76.136 143.376 77.592 143.376 79.328C143.376 79.552 143.366 79.804 143.348 80.084C143.329 80.3453 143.31 80.588 143.292 80.812H131.504V77.76H139.932L137.552 78.572C137.552 77.9747 137.44 77.4707 137.216 77.06C137.01 76.6307 136.721 76.304 136.348 76.08C135.974 75.8373 135.526 75.716 135.004 75.716C134.481 75.716 134.024 75.8373 133.632 76.08C133.258 76.304 132.969 76.6307 132.764 77.06C132.558 77.4707 132.456 77.9747 132.456 78.572V79.524C132.456 80.1773 132.586 80.7373 132.848 81.204C133.109 81.6707 133.482 82.0253 133.968 82.268C134.453 82.492 135.041 82.604 135.732 82.604C136.441 82.604 137.02 82.5107 137.468 82.324C137.934 82.1373 138.42 81.8573 138.924 81.484L142.228 84.816C141.481 85.6187 140.557 86.2347 139.456 86.664C138.373 87.0747 137.066 87.28 135.536 87.28ZM153.605 87.28C151.85 87.28 150.291 86.944 148.929 86.272C147.566 85.6 146.493 84.6667 145.709 83.472C144.943 82.2587 144.561 80.8773 144.561 79.328C144.561 77.7787 144.943 76.4067 145.709 75.212C146.493 74.0173 147.566 73.084 148.929 72.412C150.291 71.74 151.85 71.404 153.605 71.404C155.471 71.404 157.067 71.8053 158.393 72.608C159.718 73.4107 160.633 74.5213 161.137 75.94L156.237 78.348C155.919 77.6387 155.527 77.1253 155.061 76.808C154.613 76.4907 154.118 76.332 153.577 76.332C153.11 76.332 152.671 76.444 152.261 76.668C151.869 76.892 151.551 77.228 151.309 77.676C151.085 78.1053 150.973 78.656 150.973 79.328C150.973 80 151.085 80.56 151.309 81.008C151.551 81.456 151.869 81.792 152.261 82.016C152.671 82.24 153.11 82.352 153.577 82.352C154.118 82.352 154.613 82.1933 155.061 81.876C155.527 81.5587 155.919 81.0453 156.237 80.336L161.137 82.744C160.633 84.1627 159.718 85.2733 158.393 86.076C157.067 86.8787 155.471 87.28 153.605 87.28ZM170.265 87.28C168.155 87.28 166.513 86.776 165.337 85.768C164.161 84.7413 163.573 83.1733 163.573 81.064V68.24H169.901V81.008C169.901 81.4747 170.022 81.8387 170.265 82.1C170.526 82.3613 170.843 82.492 171.217 82.492C171.758 82.492 172.234 82.352 172.645 82.072L174.157 86.468C173.671 86.748 173.083 86.9533 172.393 87.084C171.721 87.2147 171.011 87.28 170.265 87.28ZM161.473 77.144V72.524H173.037V77.144H161.473ZM182.136 87.28C180.922 87.28 179.821 87.0373 178.832 86.552C177.861 86.048 177.096 85.2733 176.536 84.228C175.976 83.164 175.696 81.8013 175.696 80.14V71.684H182.024V79.048C182.024 80.1307 182.201 80.8867 182.556 81.316C182.91 81.7453 183.396 81.96 184.012 81.96C184.385 81.96 184.73 81.8667 185.048 81.68C185.384 81.4747 185.654 81.148 185.86 80.7C186.065 80.2333 186.168 79.6267 186.168 78.88V71.684H192.496V87H186.476V82.576L187.68 83.78C187.138 84.9747 186.364 85.8613 185.356 86.44C184.366 87 183.293 87.28 182.136 87.28ZM195.302 87V71.684H201.322V76.304L200.342 74.988C200.809 73.7933 201.556 72.8973 202.582 72.3C203.609 71.7027 204.841 71.404 206.278 71.404V77.004C205.998 76.9667 205.746 76.9387 205.522 76.92C205.317 76.9013 205.102 76.892 204.878 76.892C203.926 76.892 203.142 77.144 202.526 77.648C201.929 78.1333 201.63 78.9827 201.63 80.196V87H195.302ZM216.391 87.28C214.524 87.28 212.891 86.9347 211.491 86.244C210.11 85.5533 209.036 84.6107 208.271 83.416C207.506 82.2027 207.123 80.84 207.123 79.328C207.123 77.7787 207.496 76.4067 208.243 75.212C209.008 74.0173 210.044 73.084 211.351 72.412C212.676 71.74 214.16 71.404 215.803 71.404C217.315 71.404 218.706 71.7027 219.975 72.3C221.263 72.8973 222.29 73.784 223.055 74.96C223.839 76.136 224.231 77.592 224.231 79.328C224.231 79.552 224.222 79.804 224.203 80.084C224.184 80.3453 224.166 80.588 224.147 80.812H212.359V77.76H220.787L218.407 78.572C218.407 77.9747 218.295 77.4707 218.071 77.06C217.866 76.6307 217.576 76.304 217.203 76.08C216.83 75.8373 216.382 75.716 215.859 75.716C215.336 75.716 214.879 75.8373 214.487 76.08C214.114 76.304 213.824 76.6307 213.619 77.06C213.414 77.4707 213.311 77.9747 213.311 78.572V79.524C213.311 80.1773 213.442 80.7373 213.703 81.204C213.964 81.6707 214.338 82.0253 214.823 82.268C215.308 82.492 215.896 82.604 216.587 82.604C217.296 82.604 217.875 82.5107 218.323 82.324C218.79 82.1373 219.275 81.8573 219.779 81.484L223.083 84.816C222.336 85.6187 221.412 86.2347 220.311 86.664C219.228 87.0747 217.922 87.28 216.391 87.28ZM234.819 87V67.4H244.255C246.084 67.4 247.661 67.6987 248.987 68.296C250.331 68.8933 251.367 69.752 252.095 70.872C252.823 71.9733 253.187 73.28 253.187 74.792C253.187 76.304 252.823 77.6107 252.095 78.712C251.367 79.8133 250.331 80.672 248.987 81.288C247.661 81.8853 246.084 82.184 244.255 82.184H238.487L241.427 79.356V87H234.819ZM241.427 80.084L238.487 77.088H243.835C244.749 77.088 245.421 76.8827 245.851 76.472C246.299 76.0613 246.523 75.5013 246.523 74.792C246.523 74.0827 246.299 73.5227 245.851 73.112C245.421 72.7013 244.749 72.496 243.835 72.496H238.487L241.427 69.5V80.084ZM255.431 87V71.684H261.451V76.304L260.471 74.988C260.938 73.7933 261.685 72.8973 262.711 72.3C263.738 71.7027 264.97 71.404 266.407 71.404V77.004C266.127 76.9667 265.875 76.9387 265.651 76.92C265.446 76.9013 265.231 76.892 265.007 76.892C264.055 76.892 263.271 77.144 262.655 77.648C262.058 78.1333 261.759 78.9827 261.759 80.196V87H255.431ZM276.156 87.28C274.42 87.28 272.88 86.944 271.536 86.272C270.211 85.5813 269.165 84.6387 268.4 83.444C267.635 82.2493 267.252 80.8773 267.252 79.328C267.252 77.7787 267.635 76.4067 268.4 75.212C269.165 74.0173 270.211 73.084 271.536 72.412C272.88 71.74 274.42 71.404 276.156 71.404C277.892 71.404 279.432 71.74 280.776 72.412C282.12 73.084 283.165 74.0173 283.912 75.212C284.677 76.4067 285.06 77.7787 285.06 79.328C285.06 80.8773 284.677 82.2493 283.912 83.444C283.165 84.6387 282.12 85.5813 280.776 86.272C279.432 86.944 277.892 87.28 276.156 87.28ZM276.156 82.352C276.623 82.352 277.043 82.24 277.416 82.016C277.789 81.792 278.088 81.456 278.312 81.008C278.536 80.5413 278.648 79.9813 278.648 79.328C278.648 78.656 278.536 78.1053 278.312 77.676C278.088 77.228 277.789 76.892 277.416 76.668C277.043 76.444 276.623 76.332 276.156 76.332C275.689 76.332 275.269 76.444 274.896 76.668C274.523 76.892 274.224 77.228 274 77.676C273.776 78.1053 273.664 78.656 273.664 79.328C273.664 79.9813 273.776 80.5413 274 81.008C274.224 81.456 274.523 81.792 274.896 82.016C275.269 82.24 275.689 82.352 276.156 82.352ZM286.901 92.712C286.154 92.712 285.445 92.6467 284.773 92.516C284.082 92.3853 283.494 92.1987 283.009 91.956L284.521 87.56C284.969 87.8027 285.445 87.924 285.949 87.924C286.322 87.924 286.63 87.784 286.873 87.504C287.134 87.224 287.265 86.776 287.265 86.16V71.684H293.593V86.216C293.593 88.1947 293.005 89.772 291.829 90.948C290.653 92.124 289.01 92.712 286.901 92.712ZM290.429 70.452C289.271 70.452 288.347 70.144 287.657 69.528C286.966 68.912 286.621 68.1467 286.621 67.232C286.621 66.3173 286.966 65.552 287.657 64.936C288.347 64.32 289.271 64.012 290.429 64.012C291.586 64.012 292.51 64.3013 293.201 64.88C293.891 65.4587 294.237 66.2053 294.237 67.12C294.237 68.0907 293.891 68.8933 293.201 69.528C292.51 70.144 291.586 70.452 290.429 70.452ZM304.848 87.28C302.982 87.28 301.348 86.9347 299.948 86.244C298.567 85.5533 297.494 84.6107 296.728 83.416C295.963 82.2027 295.58 80.84 295.58 79.328C295.58 77.7787 295.954 76.4067 296.7 75.212C297.466 74.0173 298.502 73.084 299.808 72.412C301.134 71.74 302.618 71.404 304.26 71.404C305.772 71.404 307.163 71.7027 308.432 72.3C309.72 72.8973 310.747 73.784 311.512 74.96C312.296 76.136 312.688 77.592 312.688 79.328C312.688 79.552 312.679 79.804 312.66 80.084C312.642 80.3453 312.623 80.588 312.604 80.812H300.816V77.76H309.244L306.864 78.572C306.864 77.9747 306.752 77.4707 306.528 77.06C306.323 76.6307 306.034 76.304 305.66 76.08C305.287 75.8373 304.839 75.716 304.316 75.716C303.794 75.716 303.336 75.8373 302.944 76.08C302.571 76.304 302.282 76.6307 302.076 77.06C301.871 77.4707 301.768 77.9747 301.768 78.572V79.524C301.768 80.1773 301.899 80.7373 302.16 81.204C302.422 81.6707 302.795 82.0253 303.28 82.268C303.766 82.492 304.354 82.604 305.044 82.604C305.754 82.604 306.332 82.5107 306.78 82.324C307.247 82.1373 307.732 81.8573 308.236 81.484L311.54 84.816C310.794 85.6187 309.87 86.2347 308.768 86.664C307.686 87.0747 306.379 87.28 304.848 87.28ZM322.917 87.28C321.162 87.28 319.604 86.944 318.241 86.272C316.878 85.6 315.805 84.6667 315.021 83.472C314.256 82.2587 313.873 80.8773 313.873 79.328C313.873 77.7787 314.256 76.4067 315.021 75.212C315.805 74.0173 316.878 73.084 318.241 72.412C319.604 71.74 321.162 71.404 322.917 71.404C324.784 71.404 326.38 71.8053 327.705 72.608C329.03 73.4107 329.945 74.5213 330.449 75.94L325.549 78.348C325.232 77.6387 324.84 77.1253 324.373 76.808C323.925 76.4907 323.43 76.332 322.889 76.332C322.422 76.332 321.984 76.444 321.573 76.668C321.181 76.892 320.864 77.228 320.621 77.676C320.397 78.1053 320.285 78.656 320.285 79.328C320.285 80 320.397 80.56 320.621 81.008C320.864 81.456 321.181 81.792 321.573 82.016C321.984 82.24 322.422 82.352 322.889 82.352C323.43 82.352 323.925 82.1933 324.373 81.876C324.84 81.5587 325.232 81.0453 325.549 80.336L330.449 82.744C329.945 84.1627 329.03 85.2733 327.705 86.076C326.38 86.8787 324.784 87.28 322.917 87.28ZM339.577 87.28C337.468 87.28 335.825 86.776 334.649 85.768C333.473 84.7413 332.885 83.1733 332.885 81.064V68.24H339.213V81.008C339.213 81.4747 339.334 81.8387 339.577 82.1C339.838 82.3613 340.156 82.492 340.529 82.492C341.07 82.492 341.546 82.352 341.957 82.072L343.469 86.468C342.984 86.748 342.396 86.9533 341.705 87.084C341.033 87.2147 340.324 87.28 339.577 87.28ZM330.785 77.144V72.524H342.349V77.144H330.785ZM351.056 87.28C349.749 87.28 348.461 87.14 347.192 86.86C345.923 86.58 344.896 86.216 344.112 85.768L345.848 81.596C346.576 82.0253 347.416 82.3613 348.368 82.604C349.339 82.8467 350.281 82.968 351.196 82.968C351.961 82.968 352.475 82.9027 352.736 82.772C353.016 82.6413 353.156 82.464 353.156 82.24C353.156 82.016 352.997 81.8573 352.68 81.764C352.363 81.652 351.943 81.568 351.42 81.512C350.897 81.456 350.319 81.3907 349.684 81.316C349.068 81.2227 348.443 81.092 347.808 80.924C347.173 80.756 346.595 80.504 346.072 80.168C345.549 79.832 345.129 79.384 344.812 78.824C344.495 78.2453 344.336 77.5173 344.336 76.64C344.336 75.6693 344.625 74.792 345.204 74.008C345.801 73.224 346.679 72.5987 347.836 72.132C349.012 71.6467 350.459 71.404 352.176 71.404C353.296 71.404 354.416 71.5067 355.536 71.712C356.656 71.9173 357.617 72.2347 358.42 72.664L356.684 76.836C355.9 76.4067 355.125 76.1173 354.36 75.968C353.613 75.8 352.913 75.716 352.26 75.716C351.457 75.716 350.907 75.7907 350.608 75.94C350.328 76.0893 350.188 76.2573 350.188 76.444C350.188 76.668 350.347 76.836 350.664 76.948C350.981 77.06 351.401 77.144 351.924 77.2C352.447 77.256 353.016 77.3307 353.632 77.424C354.267 77.4987 354.892 77.6293 355.508 77.816C356.143 77.984 356.721 78.236 357.244 78.572C357.767 78.908 358.187 79.3653 358.504 79.944C358.821 80.504 358.98 81.2227 358.98 82.1C358.98 83.0147 358.691 83.8733 358.112 84.676C357.533 85.46 356.656 86.0947 355.48 86.58C354.304 87.0467 352.829 87.28 351.056 87.28Z" fill="black"/>
<path d="M37.408 110.16C35.9893 110.16 34.8853 109.819 34.096 109.136C33.3173 108.453 32.928 107.467 32.928 106.176V99.696H34.672V106.112C34.672 106.976 34.9067 107.621 35.376 108.048C35.856 108.475 36.5333 108.688 37.408 108.688C38.272 108.688 38.9387 108.475 39.408 108.048C39.888 107.621 40.128 106.976 40.128 106.112V99.696H41.856V106.176C41.856 107.467 41.4667 108.453 40.688 109.136C39.9093 109.819 38.816 110.16 37.408 110.16ZM43.7893 110V102.416H45.3893L45.4693 103.216C45.8106 102.949 46.2159 102.725 46.6853 102.544C47.1653 102.352 47.6933 102.256 48.2693 102.256C49.2506 102.256 49.9653 102.485 50.4133 102.944C50.8613 103.403 51.0853 104.117 51.0853 105.088V110H49.3573V105.168C49.3573 104.581 49.2346 104.171 48.9893 103.936C48.7546 103.701 48.3066 103.584 47.6453 103.584C47.2506 103.584 46.8613 103.664 46.4773 103.824C46.1039 103.984 45.7893 104.192 45.5333 104.448V110H43.7893ZM56.019 110.16C55.3363 110.16 54.7337 110.043 54.211 109.808C53.6883 109.573 53.283 109.184 52.995 108.64C52.707 108.096 52.563 107.365 52.563 106.448C52.563 105.541 52.7177 104.779 53.027 104.16C53.3363 103.531 53.763 103.056 54.307 102.736C54.8617 102.416 55.4857 102.256 56.179 102.256C56.6377 102.256 57.043 102.309 57.395 102.416C57.7577 102.523 58.1043 102.688 58.435 102.912V99.216H60.179V110H58.691L58.579 109.248C58.2377 109.557 57.8643 109.787 57.459 109.936C57.0537 110.085 56.5737 110.16 56.019 110.16ZM56.483 108.848C57.2617 108.848 57.9123 108.581 58.435 108.048V104.256C57.9337 103.808 57.3043 103.584 56.547 103.584C55.811 103.584 55.2563 103.829 54.883 104.32C54.5097 104.811 54.323 105.525 54.323 106.464C54.323 107.371 54.4937 107.995 54.835 108.336C55.187 108.677 55.7363 108.848 56.483 108.848ZM65.8793 110.16C64.5566 110.16 63.5326 109.835 62.8073 109.184C62.0819 108.533 61.7193 107.536 61.7193 106.192C61.7193 104.976 62.0286 104.016 62.6473 103.312C63.2659 102.608 64.2046 102.256 65.4633 102.256C66.6153 102.256 67.4793 102.56 68.0553 103.168C68.6419 103.765 68.9353 104.539 68.9353 105.488V106.896H63.3832C63.4686 107.632 63.7353 108.139 64.1833 108.416C64.6313 108.693 65.3139 108.832 66.2313 108.832C66.6153 108.832 67.0099 108.795 67.4153 108.72C67.8206 108.645 68.1726 108.549 68.4713 108.432V109.712C68.1299 109.861 67.7353 109.973 67.2873 110.048C66.8499 110.123 66.3806 110.16 65.8793 110.16ZM63.3832 105.76H67.3993V105.232C67.3993 104.709 67.2553 104.304 66.9673 104.016C66.6793 103.717 66.1939 103.568 65.5113 103.568C64.7006 103.568 64.1406 103.744 63.8313 104.096C63.5326 104.448 63.3832 105.003 63.3832 105.76ZM70.633 110V102.416H72.233L72.329 103.296C72.6917 103.061 73.1237 102.848 73.625 102.656C74.1263 102.464 74.6223 102.331 75.113 102.256V103.584C74.8143 103.637 74.489 103.717 74.137 103.824C73.7957 103.92 73.4703 104.032 73.161 104.16C72.8517 104.277 72.5903 104.4 72.377 104.528V110H70.633ZM79.455 112.816C78.8897 112.816 78.3243 112.779 77.759 112.704C77.1937 112.64 76.7137 112.539 76.319 112.4V111.056C76.7457 111.195 77.2363 111.301 77.791 111.376C78.3457 111.451 78.8737 111.488 79.375 111.488C80.143 111.488 80.703 111.445 81.055 111.36C81.407 111.275 81.583 111.083 81.583 110.784C81.583 110.56 81.4977 110.4 81.327 110.304C81.1563 110.219 80.831 110.176 80.351 110.176H78.303C76.927 110.176 76.239 109.691 76.239 108.72C76.239 108.411 76.3297 108.123 76.511 107.856C76.6923 107.589 76.9803 107.387 77.375 107.248C76.9377 107.035 76.6123 106.741 76.399 106.368C76.1963 105.995 76.095 105.547 76.095 105.024C76.095 104.053 76.383 103.349 76.959 102.912C77.5457 102.475 78.4203 102.256 79.583 102.256C79.8283 102.256 80.0843 102.277 80.351 102.32C80.6177 102.352 80.8257 102.384 80.975 102.416H83.759L83.711 103.552H82.431C82.6337 103.723 82.783 103.936 82.879 104.192C82.975 104.448 83.023 104.725 83.023 105.024C83.023 105.835 82.7777 106.475 82.287 106.944C81.7963 107.403 81.055 107.632 80.063 107.632C79.8923 107.632 79.7323 107.627 79.583 107.616C79.4443 107.595 79.2897 107.573 79.119 107.552C78.799 107.584 78.511 107.669 78.255 107.808C77.999 107.947 77.871 108.133 77.871 108.368C77.871 108.528 77.935 108.645 78.063 108.72C78.191 108.784 78.4043 108.816 78.703 108.816H80.831C81.5883 108.816 82.1697 108.981 82.575 109.312C82.991 109.632 83.199 110.101 83.199 110.72C83.199 111.467 82.8737 112 82.223 112.32C81.583 112.651 80.6603 112.816 79.455 112.816ZM79.583 106.528C80.2763 106.528 80.7563 106.411 81.023 106.176C81.3003 105.941 81.439 105.541 81.439 104.976C81.439 104.411 81.3003 104 81.023 103.744C80.7563 103.488 80.2763 103.36 79.583 103.36C78.9323 103.36 78.4577 103.483 78.159 103.728C77.8603 103.973 77.711 104.389 77.711 104.976C77.711 105.52 77.8497 105.915 78.127 106.16C78.415 106.405 78.9003 106.528 79.583 106.528ZM84.8361 110V102.416H86.4361L86.5321 103.296C86.8948 103.061 87.3268 102.848 87.8281 102.656C88.3295 102.464 88.8255 102.331 89.3161 102.256V103.584C89.0175 103.637 88.6921 103.717 88.3401 103.824C87.9988 103.92 87.6735 104.032 87.3641 104.16C87.0548 104.277 86.7935 104.4 86.5801 104.528V110H84.8361ZM92.4698 110.16C91.9898 110.16 91.5418 110.075 91.1258 109.904C90.7204 109.733 90.3951 109.477 90.1497 109.136C89.9044 108.784 89.7818 108.352 89.7818 107.84C89.7818 107.115 90.0271 106.533 90.5178 106.096C91.0191 105.648 91.7871 105.424 92.8218 105.424H95.2538V105.088C95.2538 104.725 95.1951 104.437 95.0778 104.224C94.9711 104.011 94.7684 103.856 94.4698 103.76C94.1818 103.664 93.7551 103.616 93.1898 103.616C92.2938 103.616 91.4564 103.749 90.6778 104.016V102.72C91.0191 102.581 91.4351 102.469 91.9258 102.384C92.4164 102.299 92.9444 102.256 93.5098 102.256C94.6191 102.256 95.4618 102.48 96.0378 102.928C96.6244 103.376 96.9178 104.107 96.9178 105.12V110H95.4298L95.3178 109.232C95.0084 109.531 94.6244 109.76 94.1658 109.92C93.7178 110.08 93.1524 110.16 92.4698 110.16ZM92.9338 108.912C93.4564 108.912 93.9098 108.827 94.2938 108.656C94.6884 108.475 95.0084 108.235 95.2538 107.936V106.608H92.8538C92.3418 106.608 91.9684 106.709 91.7338 106.912C91.5098 107.104 91.3978 107.403 91.3978 107.808C91.3978 108.203 91.5311 108.485 91.7978 108.656C92.0644 108.827 92.4431 108.912 92.9338 108.912ZM101.988 110.16C101.305 110.16 100.702 110.043 100.18 109.808C99.6571 109.573 99.2518 109.184 98.9638 108.64C98.6758 108.096 98.5318 107.365 98.5318 106.448C98.5318 105.541 98.6864 104.779 98.9958 104.16C99.3051 103.531 99.7318 103.056 100.276 102.736C100.83 102.416 101.454 102.256 102.148 102.256C102.606 102.256 103.012 102.309 103.364 102.416C103.726 102.523 104.073 102.688 104.404 102.912V99.216H106.148V110H104.66L104.548 109.248C104.206 109.557 103.833 109.787 103.428 109.936C103.022 110.085 102.542 110.16 101.988 110.16ZM102.452 108.848C103.23 108.848 103.881 108.581 104.404 108.048V104.256C103.902 103.808 103.273 103.584 102.516 103.584C101.78 103.584 101.225 103.829 100.852 104.32C100.478 104.811 100.292 105.525 100.292 106.464C100.292 107.371 100.462 107.995 100.804 108.336C101.156 108.677 101.705 108.848 102.452 108.848ZM110.9 110.16C109.994 110.16 109.295 109.909 108.804 109.408C108.324 108.907 108.084 108.171 108.084 107.2V102.416H109.828V107.2C109.828 107.765 109.967 108.181 110.244 108.448C110.522 108.715 110.948 108.848 111.524 108.848C111.951 108.848 112.346 108.768 112.708 108.608C113.071 108.448 113.386 108.235 113.652 107.968V102.416H115.38V110H113.796L113.716 109.216C113.375 109.483 112.97 109.707 112.5 109.888C112.031 110.069 111.498 110.16 110.9 110.16ZM119.548 110.16C119.068 110.16 118.62 110.075 118.204 109.904C117.799 109.733 117.473 109.477 117.228 109.136C116.983 108.784 116.86 108.352 116.86 107.84C116.86 107.115 117.105 106.533 117.596 106.096C118.097 105.648 118.865 105.424 119.9 105.424H122.332V105.088C122.332 104.725 122.273 104.437 122.156 104.224C122.049 104.011 121.847 103.856 121.548 103.76C121.26 103.664 120.833 103.616 120.268 103.616C119.372 103.616 118.535 103.749 117.756 104.016V102.72C118.097 102.581 118.513 102.469 119.004 102.384C119.495 102.299 120.023 102.256 120.588 102.256C121.697 102.256 122.54 102.48 123.116 102.928C123.703 103.376 123.996 104.107 123.996 105.12V110H122.508L122.396 109.232C122.087 109.531 121.703 109.76 121.244 109.92C120.796 110.08 120.231 110.16 119.548 110.16ZM120.012 108.912C120.535 108.912 120.988 108.827 121.372 108.656C121.767 108.475 122.087 108.235 122.332 107.936V106.608H119.932C119.42 106.608 119.047 106.709 118.812 106.912C118.588 107.104 118.476 107.403 118.476 107.808C118.476 108.203 118.609 108.485 118.876 108.656C119.143 108.827 119.521 108.912 120.012 108.912ZM128.826 110.16C128.015 110.16 127.407 109.947 127.002 109.52C126.607 109.083 126.41 108.491 126.41 107.744V103.776H125.29V102.416H126.41V100.672L128.138 100.144V102.416H130.154L130.042 103.776H128.138V107.648C128.138 108.085 128.239 108.395 128.442 108.576C128.645 108.747 128.975 108.832 129.434 108.832C129.722 108.832 130.026 108.779 130.346 108.672V109.904C129.93 110.075 129.423 110.16 128.826 110.16ZM135.52 110.16C134.197 110.16 133.173 109.835 132.448 109.184C131.723 108.533 131.36 107.536 131.36 106.192C131.36 104.976 131.669 104.016 132.288 103.312C132.907 102.608 133.845 102.256 135.104 102.256C136.256 102.256 137.12 102.56 137.696 103.168C138.283 103.765 138.576 104.539 138.576 105.488V106.896H133.024C133.109 107.632 133.376 108.139 133.824 108.416C134.272 108.693 134.955 108.832 135.872 108.832C136.256 108.832 136.651 108.795 137.056 108.72C137.461 108.645 137.813 108.549 138.112 108.432V109.712C137.771 109.861 137.376 109.973 136.928 110.048C136.491 110.123 136.021 110.16 135.52 110.16ZM133.024 105.76H137.04V105.232C137.04 104.709 136.896 104.304 136.608 104.016C136.32 103.717 135.835 103.568 135.152 103.568C134.341 103.568 133.781 103.744 133.472 104.096C133.173 104.448 133.024 105.003 133.024 105.76ZM146.329 110.16C145.849 110.16 145.401 110.075 144.985 109.904C144.58 109.733 144.254 109.477 144.009 109.136C143.764 108.784 143.641 108.352 143.641 107.84C143.641 107.115 143.886 106.533 144.377 106.096C144.878 105.648 145.646 105.424 146.681 105.424H149.113V105.088C149.113 104.725 149.054 104.437 148.937 104.224C148.83 104.011 148.628 103.856 148.329 103.76C148.041 103.664 147.614 103.616 147.049 103.616C146.153 103.616 145.316 103.749 144.537 104.016V102.72C144.878 102.581 145.294 102.469 145.785 102.384C146.276 102.299 146.804 102.256 147.369 102.256C148.478 102.256 149.321 102.48 149.897 102.928C150.484 103.376 150.777 104.107 150.777 105.12V110H149.289L149.177 109.232C148.868 109.531 148.484 109.76 148.025 109.92C147.577 110.08 147.012 110.16 146.329 110.16ZM146.793 108.912C147.316 108.912 147.769 108.827 148.153 108.656C148.548 108.475 148.868 108.235 149.113 107.936V106.608H146.713C146.201 106.608 145.828 106.709 145.593 106.912C145.369 107.104 145.257 107.403 145.257 107.808C145.257 108.203 145.39 108.485 145.657 108.656C145.924 108.827 146.302 108.912 146.793 108.912ZM156.439 110.16C155.106 110.16 154.098 109.824 153.415 109.152C152.732 108.469 152.391 107.488 152.391 106.208C152.391 104.875 152.764 103.883 153.511 103.232C154.268 102.581 155.276 102.256 156.535 102.256C157.058 102.256 157.495 102.293 157.847 102.368C158.21 102.443 158.556 102.56 158.887 102.72V104.016C158.332 103.739 157.66 103.6 156.871 103.6C155.996 103.6 155.324 103.797 154.855 104.192C154.386 104.576 154.151 105.248 154.151 106.208C154.151 107.115 154.359 107.781 154.775 108.208C155.191 108.624 155.879 108.832 156.839 108.832C157.596 108.832 158.284 108.688 158.903 108.4V109.728C158.551 109.867 158.172 109.973 157.767 110.048C157.372 110.123 156.93 110.16 156.439 110.16ZM162.657 110.16C162.177 110.16 161.729 110.075 161.313 109.904C160.908 109.733 160.583 109.477 160.337 109.136C160.092 108.784 159.969 108.352 159.969 107.84C159.969 107.115 160.215 106.533 160.705 106.096C161.207 105.648 161.975 105.424 163.009 105.424H165.441V105.088C165.441 104.725 165.383 104.437 165.265 104.224C165.159 104.011 164.956 103.856 164.657 103.76C164.369 103.664 163.943 103.616 163.377 103.616C162.481 103.616 161.644 103.749 160.865 104.016V102.72C161.207 102.581 161.623 102.469 162.113 102.384C162.604 102.299 163.132 102.256 163.697 102.256C164.807 102.256 165.649 102.48 166.225 102.928C166.812 103.376 167.105 104.107 167.105 105.12V110H165.617L165.505 109.232C165.196 109.531 164.812 109.76 164.353 109.92C163.905 110.08 163.34 110.16 162.657 110.16ZM163.121 108.912C163.644 108.912 164.097 108.827 164.481 108.656C164.876 108.475 165.196 108.235 165.441 107.936V106.608H163.041C162.529 106.608 162.156 106.709 161.921 106.912C161.697 107.104 161.585 107.403 161.585 107.808C161.585 108.203 161.719 108.485 161.985 108.656C162.252 108.827 162.631 108.912 163.121 108.912ZM172.175 110.16C171.493 110.16 170.89 110.043 170.367 109.808C169.845 109.573 169.439 109.184 169.151 108.64C168.863 108.096 168.719 107.365 168.719 106.448C168.719 105.541 168.874 104.779 169.183 104.16C169.493 103.531 169.919 103.056 170.463 102.736C171.018 102.416 171.642 102.256 172.335 102.256C172.794 102.256 173.199 102.309 173.551 102.416C173.914 102.523 174.261 102.688 174.591 102.912V99.216H176.335V110H174.847L174.735 109.248C174.394 109.557 174.021 109.787 173.615 109.936C173.21 110.085 172.73 110.16 172.175 110.16ZM172.639 108.848C173.418 108.848 174.069 108.581 174.591 108.048V104.256C174.09 103.808 173.461 103.584 172.703 103.584C171.967 103.584 171.413 103.829 171.039 104.32C170.666 104.811 170.479 105.525 170.479 106.464C170.479 107.371 170.65 107.995 170.991 108.336C171.343 108.677 171.893 108.848 172.639 108.848ZM182.036 110.16C180.713 110.16 179.689 109.835 178.964 109.184C178.238 108.533 177.876 107.536 177.876 106.192C177.876 104.976 178.185 104.016 178.804 103.312C179.422 102.608 180.361 102.256 181.62 102.256C182.772 102.256 183.636 102.56 184.212 103.168C184.798 103.765 185.092 104.539 185.092 105.488V106.896H179.539C179.625 107.632 179.892 108.139 180.34 108.416C180.788 108.693 181.47 108.832 182.388 108.832C182.772 108.832 183.166 108.795 183.572 108.72C183.977 108.645 184.329 108.549 184.628 108.432V109.712C184.286 109.861 183.892 109.973 183.444 110.048C183.006 110.123 182.537 110.16 182.036 110.16ZM179.539 105.76H183.556V105.232C183.556 104.709 183.412 104.304 183.124 104.016C182.836 103.717 182.35 103.568 181.668 103.568C180.857 103.568 180.297 103.744 179.988 104.096C179.689 104.448 179.539 105.003 179.539 105.76ZM186.789 110V102.416H188.389L188.469 103.216C188.843 102.917 189.253 102.683 189.701 102.512C190.149 102.341 190.629 102.256 191.141 102.256C191.685 102.256 192.107 102.347 192.405 102.528C192.715 102.699 192.949 102.939 193.109 103.248C193.461 102.96 193.867 102.725 194.325 102.544C194.784 102.352 195.333 102.256 195.973 102.256C196.848 102.256 197.493 102.48 197.909 102.928C198.325 103.376 198.533 104.064 198.533 104.992V110H196.821V105.168C196.821 104.581 196.699 104.171 196.453 103.936C196.208 103.701 195.808 103.584 195.253 103.584C194.891 103.584 194.544 103.648 194.213 103.776C193.893 103.904 193.616 104.096 193.381 104.352C193.413 104.469 193.435 104.592 193.445 104.72C193.456 104.848 193.461 104.987 193.461 105.136V110H191.845V105.184C191.845 104.629 191.749 104.224 191.557 103.968C191.365 103.712 191.003 103.584 190.469 103.584C190.096 103.584 189.739 103.675 189.397 103.856C189.067 104.027 188.768 104.235 188.501 104.48V110H186.789ZM201.132 100.832V99.392H203.036V100.832H201.132ZM201.276 110V103.744H200.124L200.284 102.416H203.02V110H201.276ZM208.783 110.16C207.45 110.16 206.442 109.824 205.759 109.152C205.076 108.469 204.735 107.488 204.735 106.208C204.735 104.875 205.108 103.883 205.855 103.232C206.612 102.581 207.62 102.256 208.879 102.256C209.402 102.256 209.839 102.293 210.191 102.368C210.554 102.443 210.9 102.56 211.231 102.72V104.016C210.676 103.739 210.004 103.6 209.215 103.6C208.34 103.6 207.668 103.797 207.199 104.192C206.73 104.576 206.495 105.248 206.495 106.208C206.495 107.115 206.703 107.781 207.119 108.208C207.535 108.624 208.223 108.832 209.183 108.832C209.94 108.832 210.628 108.688 211.247 108.4V109.728C210.895 109.867 210.516 109.973 210.111 110.048C209.716 110.123 209.274 110.16 208.783 110.16ZM218.001 110L216.001 102.416H217.745L219.057 107.936L220.545 103.344V102.416H221.873L223.521 107.936L224.833 102.416H226.561L224.577 110H222.929L221.313 105.04L219.665 110H218.001ZM231.171 110.16C229.806 110.16 228.803 109.819 228.163 109.136C227.534 108.453 227.219 107.477 227.219 106.208C227.219 104.939 227.539 103.963 228.179 103.28C228.819 102.597 229.817 102.256 231.171 102.256C232.537 102.256 233.539 102.597 234.179 103.28C234.819 103.963 235.139 104.939 235.139 106.208C235.139 107.477 234.819 108.453 234.179 109.136C233.55 109.819 232.547 110.16 231.171 110.16ZM231.171 108.688C231.971 108.688 232.537 108.496 232.867 108.112C233.209 107.717 233.379 107.083 233.379 106.208C233.379 105.333 233.209 104.704 232.867 104.32C232.537 103.936 231.971 103.744 231.171 103.744C230.382 103.744 229.817 103.936 229.475 104.32C229.145 104.704 228.979 105.333 228.979 106.208C228.979 107.083 229.145 107.717 229.475 108.112C229.817 108.496 230.382 108.688 231.171 108.688ZM236.836 110V102.416H238.436L238.532 103.296C238.895 103.061 239.327 102.848 239.828 102.656C240.329 102.464 240.825 102.331 241.316 102.256V103.584C241.017 103.637 240.692 103.717 240.34 103.824C239.999 103.92 239.673 104.032 239.364 104.16C239.055 104.277 238.793 104.4 238.58 104.528V110H236.836ZM242.586 110V99.216H244.33V105.456L247.514 102.416H249.514L246.426 105.472L249.69 110H247.85L245.338 106.4L244.33 107.36V110H242.586ZM253.145 110.16C252.623 110.16 252.121 110.123 251.641 110.048C251.172 109.973 250.783 109.883 250.473 109.776V108.304C250.836 108.443 251.236 108.549 251.673 108.624C252.111 108.699 252.527 108.736 252.921 108.736C253.519 108.736 253.945 108.683 254.201 108.576C254.457 108.469 254.585 108.261 254.585 107.952C254.585 107.728 254.505 107.552 254.345 107.424C254.196 107.296 253.967 107.179 253.657 107.072C253.359 106.965 252.975 106.837 252.505 106.688C252.057 106.539 251.668 106.379 251.337 106.208C251.007 106.027 250.751 105.797 250.569 105.52C250.388 105.243 250.297 104.88 250.297 104.432C250.297 103.739 250.548 103.205 251.049 102.832C251.551 102.448 252.356 102.256 253.465 102.256C253.903 102.256 254.319 102.288 254.713 102.352C255.108 102.416 255.444 102.496 255.721 102.592V104.048C255.423 103.931 255.092 103.84 254.729 103.776C254.377 103.712 254.047 103.68 253.737 103.68C253.183 103.68 252.761 103.728 252.473 103.824C252.196 103.92 252.057 104.112 252.057 104.4C252.057 104.699 252.201 104.912 252.489 105.04C252.788 105.157 253.263 105.323 253.913 105.536C254.511 105.717 254.985 105.909 255.337 106.112C255.689 106.315 255.94 106.56 256.089 106.848C256.249 107.125 256.329 107.488 256.329 107.936C256.329 108.683 256.057 109.243 255.513 109.616C254.969 109.979 254.18 110.16 253.145 110.16Z" fill="white"/>
</svg>
