<svg width="400" height="400" viewBox="0 0 400 400" fill="none" xmlns="http://www.w3.org/2000/svg">
<circle cx="200" cy="200" r="200" fill="#309659"/>
<path d="M33.632 53V32.392H38.784V49.032H48.512V53H33.632ZM55.243 53.32C54.283 53.32 53.387 53.1493 52.555 52.808C51.7443 52.4667 51.0937 51.944 50.603 51.24C50.1123 50.5147 49.867 49.6187 49.867 48.552C49.867 46.9947 50.3897 45.7787 51.435 44.904C52.5017 44.008 54.091 43.56 56.203 43.56H60.427V43.208C60.427 42.44 60.171 41.896 59.659 41.576C59.147 41.2347 58.187 41.064 56.779 41.064C55.051 41.064 53.355 41.3307 51.691 41.864V38.536C52.4377 38.2373 53.3443 37.992 54.411 37.8C55.499 37.608 56.6403 37.512 57.835 37.512C60.1817 37.512 62.0163 37.992 63.339 38.952C64.683 39.912 65.355 41.4373 65.355 43.528V53H60.843L60.587 51.72C60.0323 52.232 59.3177 52.6267 58.443 52.904C57.5897 53.1813 56.523 53.32 55.243 53.32ZM56.875 50.152C57.6857 50.152 58.3897 50.0133 58.987 49.736C59.5843 49.4587 60.0643 49.1067 60.427 48.68V46.536H56.779C55.2643 46.536 54.507 47.144 54.507 48.36C54.507 48.9147 54.699 49.352 55.083 49.672C55.467 49.992 56.0643 50.152 56.875 50.152ZM68.4445 53V37.832H73.2445L73.4045 39.144C74.0232 38.7173 74.8018 38.344 75.7405 38.024C76.6792 37.6827 77.6818 37.512 78.7485 37.512C80.7112 37.512 82.1405 37.9813 83.0365 38.92C83.9325 39.8587 84.3805 41.3093 84.3805 43.272V53H79.2285V43.688C79.2285 42.8347 79.0472 42.2267 78.6845 41.864C78.3218 41.5013 77.6712 41.32 76.7325 41.32C76.1778 41.32 75.6125 41.448 75.0365 41.704C74.4605 41.96 73.9805 42.28 73.5965 42.664V53H68.4445ZM93.6562 53.32C92.1843 53.32 90.9256 53.0853 89.8802 52.616C88.8349 52.1467 88.0349 51.3787 87.4803 50.312C86.9256 49.224 86.6483 47.7733 86.6483 45.96C86.6483 44.1253 86.9683 42.5893 87.6083 41.352C88.2483 40.0933 89.1229 39.144 90.2323 38.504C91.3629 37.8427 92.6536 37.512 94.1042 37.512C94.8936 37.512 95.5976 37.5973 96.2163 37.768C96.8563 37.9387 97.4536 38.1947 98.0083 38.536V31.432H103.16V53H98.7123L98.4243 51.72C97.8056 52.2533 97.1123 52.6587 96.3443 52.936C95.5763 53.192 94.6803 53.32 93.6562 53.32ZM95.1283 49.576C96.2589 49.576 97.2189 49.192 98.0083 48.424V42.28C97.2829 41.6187 96.3549 41.288 95.2243 41.288C94.1363 41.288 93.3043 41.704 92.7283 42.536C92.1736 43.3467 91.8963 44.4987 91.8963 45.992C91.8963 47.4427 92.1629 48.4027 92.6963 48.872C93.2509 49.3413 94.0616 49.576 95.1283 49.576ZM112.045 53.32C110.829 53.32 109.677 53.2347 108.589 53.064C107.501 52.8933 106.637 52.68 105.997 52.424V48.488C106.744 48.808 107.608 49.0533 108.589 49.224C109.571 49.3947 110.445 49.48 111.213 49.48C112.131 49.48 112.792 49.4373 113.197 49.352C113.624 49.2667 113.837 49.032 113.837 48.648C113.837 48.2213 113.496 47.9013 112.813 47.688C112.131 47.4747 111.192 47.1653 109.997 46.76C108.611 46.2693 107.555 45.704 106.829 45.064C106.125 44.4027 105.773 43.432 105.773 42.152C105.773 40.6587 106.328 39.5173 107.437 38.728C108.568 37.9173 110.36 37.512 112.813 37.512C113.773 37.512 114.723 37.5867 115.661 37.736C116.6 37.8853 117.368 38.056 117.965 38.248V42.12C117.368 41.8427 116.685 41.64 115.917 41.512C115.149 41.384 114.456 41.32 113.837 41.32C113.048 41.32 112.376 41.3733 111.821 41.48C111.288 41.5653 111.021 41.7893 111.021 42.152C111.021 42.5573 111.32 42.8453 111.917 43.016C112.515 43.1653 113.379 43.4213 114.509 43.784C115.704 44.1467 116.632 44.5413 117.293 44.968C117.955 45.3733 118.424 45.864 118.701 46.44C118.979 47.016 119.117 47.7413 119.117 48.616C119.117 50.1307 118.52 51.2933 117.325 52.104C116.131 52.9147 114.371 53.32 112.045 53.32ZM129.257 53.32C126.548 53.32 124.425 52.6587 122.889 51.336C121.374 50.0133 120.617 48.04 120.617 45.416C120.617 42.7493 121.406 40.7653 122.985 39.464C124.585 38.1627 126.708 37.512 129.353 37.512C130.462 37.512 131.422 37.5973 132.233 37.768C133.065 37.9173 133.865 38.1733 134.633 38.536V42.184C133.438 41.608 132.041 41.32 130.441 41.32C128.948 41.32 127.806 41.6187 127.017 42.216C126.249 42.8133 125.865 43.88 125.865 45.416C125.865 46.8453 126.228 47.8907 126.953 48.552C127.678 49.192 128.83 49.512 130.409 49.512C131.966 49.512 133.385 49.192 134.665 48.552V52.36C133.897 52.7013 133.065 52.9467 132.169 53.096C131.294 53.2453 130.324 53.32 129.257 53.32ZM142.024 53.32C141.064 53.32 140.168 53.1493 139.336 52.808C138.526 52.4667 137.875 51.944 137.384 51.24C136.894 50.5147 136.648 49.6187 136.648 48.552C136.648 46.9947 137.171 45.7787 138.216 44.904C139.283 44.008 140.872 43.56 142.984 43.56H147.208V43.208C147.208 42.44 146.952 41.896 146.44 41.576C145.928 41.2347 144.968 41.064 143.56 41.064C141.832 41.064 140.136 41.3307 138.472 41.864V38.536C139.219 38.2373 140.126 37.992 141.192 37.8C142.28 37.608 143.422 37.512 144.616 37.512C146.963 37.512 148.798 37.992 150.12 38.952C151.464 39.912 152.136 41.4373 152.136 43.528V53H147.624L147.368 51.72C146.814 52.232 146.099 52.6267 145.224 52.904C144.371 53.1813 143.304 53.32 142.024 53.32ZM143.656 50.152C144.467 50.152 145.171 50.0133 145.768 49.736C146.366 49.4587 146.846 49.1067 147.208 48.68V46.536H143.56C142.046 46.536 141.288 47.144 141.288 48.36C141.288 48.9147 141.48 49.352 141.864 49.672C142.248 49.992 142.846 50.152 143.656 50.152ZM155.226 59.912V37.832H159.706L159.962 39.144C160.58 38.632 161.274 38.2373 162.042 37.96C162.81 37.6613 163.706 37.512 164.73 37.512C166.884 37.512 168.591 38.0987 169.85 39.272C171.108 40.424 171.738 42.3653 171.738 45.096C171.738 47.8053 171.087 49.8533 169.786 51.24C168.506 52.6267 166.735 53.32 164.474 53.32C162.874 53.32 161.508 52.9893 160.378 52.328V59.912H155.226ZM163.162 49.544C165.38 49.544 166.49 48.0293 166.49 45C166.49 43.5493 166.234 42.568 165.722 42.056C165.21 41.544 164.388 41.288 163.258 41.288C162.17 41.288 161.21 41.672 160.378 42.44V48.584C160.783 48.8827 161.188 49.1173 161.594 49.288C162.02 49.4587 162.543 49.544 163.162 49.544ZM182.479 53.32C179.833 53.32 177.711 52.6693 176.111 51.368C174.511 50.0453 173.711 48.0613 173.711 45.416C173.711 43.0053 174.372 41.0853 175.695 39.656C177.017 38.2267 179.001 37.512 181.647 37.512C184.057 37.512 185.924 38.1307 187.247 39.368C188.569 40.6053 189.231 42.2693 189.231 44.36V47.08H178.479C178.713 48.0827 179.257 48.7867 180.111 49.192C180.985 49.576 182.169 49.768 183.663 49.768C184.495 49.768 185.337 49.6933 186.191 49.544C187.065 49.3947 187.791 49.2027 188.367 48.968V52.328C187.641 52.6693 186.777 52.9147 185.775 53.064C184.772 53.2347 183.673 53.32 182.479 53.32ZM178.479 44.104H184.751V43.432C184.751 42.6853 184.527 42.0987 184.079 41.672C183.631 41.224 182.873 41 181.807 41C180.569 41 179.705 41.256 179.215 41.768C178.724 42.2587 178.479 43.0373 178.479 44.104ZM32.992 85L40.864 64.392H46.432L54.304 85H48.928L47.072 80.328H40.192L38.368 85H32.992ZM40.896 76.52H46.368L43.616 69.352L40.896 76.52ZM56.9133 85V69.832H61.8093L61.9693 71.24C62.6306 70.8347 63.4519 70.472 64.4333 70.152C65.4146 69.8107 66.3959 69.5973 67.3773 69.512V73.384C66.8226 73.448 66.2039 73.5547 65.5213 73.704C64.8599 73.832 64.2199 73.992 63.6013 74.184C63.0039 74.376 62.4919 74.5787 62.0653 74.792V85H56.9133ZM76.6945 85.32C73.9852 85.32 71.8625 84.6587 70.3265 83.336C68.8118 82.0133 68.0545 80.04 68.0545 77.416C68.0545 74.7493 68.8438 72.7653 70.4225 71.464C72.0225 70.1627 74.1452 69.512 76.7905 69.512C77.8998 69.512 78.8598 69.5973 79.6705 69.768C80.5025 69.9173 81.3025 70.1733 82.0705 70.536V74.184C80.8758 73.608 79.4785 73.32 77.8785 73.32C76.3852 73.32 75.2438 73.6187 74.4545 74.216C73.6865 74.8133 73.3025 75.88 73.3025 77.416C73.3025 78.8453 73.6652 79.8907 74.3905 80.552C75.1158 81.192 76.2678 81.512 77.8465 81.512C79.4038 81.512 80.8225 81.192 82.1025 80.552V84.36C81.3345 84.7013 80.5025 84.9467 79.6065 85.096C78.7318 85.2453 77.7612 85.32 76.6945 85.32ZM84.7258 85V63.432H89.8778V70.952C90.4538 70.5253 91.1684 70.184 92.0218 69.928C92.8751 69.6507 93.7924 69.512 94.7738 69.512C96.8004 69.512 98.2831 69.992 99.2218 70.952C100.182 71.912 100.662 73.384 100.662 75.368V85H95.5098V75.72C95.5098 74.8453 95.3284 74.2267 94.9658 73.864C94.6031 73.5013 93.9524 73.32 93.0138 73.32C92.4591 73.32 91.8938 73.448 91.3177 73.704C90.7418 73.96 90.2618 74.28 89.8778 74.664V85H84.7258ZM104.781 67.432V63.56H110.381V67.432H104.781ZM105.197 85V73.64H102.957L103.405 69.832H110.349V85H105.197ZM119.872 85.32C117.995 85.32 116.608 84.84 115.712 83.88C114.837 82.92 114.4 81.5973 114.4 79.912V73.736H112.352V69.832H114.4V66.664L119.552 65.288V69.832H123.232L123.008 73.736H119.552V79.56C119.552 80.2853 119.733 80.7973 120.096 81.096C120.459 81.3733 121.003 81.512 121.728 81.512C122.347 81.512 122.976 81.4053 123.616 81.192V84.68C122.613 85.1067 121.365 85.32 119.872 85.32ZM133.729 85.32C131.083 85.32 128.961 84.6693 127.361 83.368C125.761 82.0453 124.961 80.0613 124.961 77.416C124.961 75.0053 125.622 73.0853 126.945 71.656C128.267 70.2267 130.251 69.512 132.897 69.512C135.307 69.512 137.174 70.1307 138.497 71.368C139.819 72.6053 140.481 74.2693 140.481 76.36V79.08H129.729C129.963 80.0827 130.507 80.7867 131.361 81.192C132.235 81.576 133.419 81.768 134.913 81.768C135.745 81.768 136.587 81.6933 137.441 81.544C138.315 81.3947 139.041 81.2027 139.617 80.968V84.328C138.891 84.6693 138.027 84.9147 137.025 85.064C136.022 85.2347 134.923 85.32 133.729 85.32ZM129.729 76.104H136.001V75.432C136.001 74.6853 135.777 74.0987 135.329 73.672C134.881 73.224 134.123 73 133.057 73C131.819 73 130.955 73.256 130.465 73.768C129.974 74.2587 129.729 75.0373 129.729 76.104ZM151.101 85.32C148.391 85.32 146.269 84.6587 144.733 83.336C143.218 82.0133 142.461 80.04 142.461 77.416C142.461 74.7493 143.25 72.7653 144.829 71.464C146.429 70.1627 148.551 69.512 151.197 69.512C152.306 69.512 153.266 69.5973 154.077 69.768C154.909 69.9173 155.709 70.1733 156.477 70.536V74.184C155.282 73.608 153.885 73.32 152.285 73.32C150.791 73.32 149.65 73.6187 148.861 74.216C148.093 74.8133 147.709 75.88 147.709 77.416C147.709 78.8453 148.071 79.8907 148.797 80.552C149.522 81.192 150.674 81.512 152.253 81.512C153.81 81.512 155.229 81.192 156.509 80.552V84.36C155.741 84.7013 154.909 84.9467 154.013 85.096C153.138 85.2453 152.167 85.32 151.101 85.32ZM165.372 85.32C163.495 85.32 162.108 84.84 161.212 83.88C160.337 82.92 159.9 81.5973 159.9 79.912V73.736H157.852V69.832H159.9V66.664L165.052 65.288V69.832H168.732L168.508 73.736H165.052V79.56C165.052 80.2853 165.233 80.7973 165.596 81.096C165.959 81.3733 166.503 81.512 167.228 81.512C167.847 81.512 168.476 81.4053 169.116 81.192V84.68C168.113 85.1067 166.865 85.32 165.372 85.32ZM176.317 85.32C174.525 85.32 173.127 84.8187 172.125 83.816C171.122 82.792 170.621 81.3093 170.621 79.368V69.832H175.773V79.08C175.773 79.9333 175.975 80.5627 176.381 80.968C176.807 81.352 177.437 81.544 178.269 81.544C178.887 81.544 179.474 81.416 180.029 81.16C180.583 80.904 181.042 80.584 181.405 80.2V69.832H186.557V85H181.757L181.597 83.72C180.978 84.1893 180.231 84.5733 179.357 84.872C178.482 85.1707 177.469 85.32 176.317 85.32ZM189.82 85V69.832H194.716L194.876 71.24C195.537 70.8347 196.358 70.472 197.34 70.152C198.321 69.8107 199.302 69.5973 200.284 69.512V73.384C199.729 73.448 199.11 73.5547 198.428 73.704C197.766 73.832 197.126 73.992 196.508 74.184C195.91 74.376 195.398 74.5787 194.972 74.792V85H189.82ZM209.729 85.32C207.083 85.32 204.961 84.6693 203.361 83.368C201.761 82.0453 200.961 80.0613 200.961 77.416C200.961 75.0053 201.622 73.0853 202.945 71.656C204.267 70.2267 206.251 69.512 208.897 69.512C211.307 69.512 213.174 70.1307 214.497 71.368C215.819 72.6053 216.481 74.2693 216.481 76.36V79.08H205.729C205.963 80.0827 206.507 80.7867 207.361 81.192C208.235 81.576 209.419 81.768 210.913 81.768C211.745 81.768 212.587 81.6933 213.441 81.544C214.315 81.3947 215.041 81.2027 215.617 80.968V84.328C214.891 84.6693 214.027 84.9147 213.025 85.064C212.022 85.2347 210.923 85.32 209.729 85.32ZM205.729 76.104H212.001V75.432C212.001 74.6853 211.777 74.0987 211.329 73.672C210.881 73.224 210.123 73 209.057 73C207.819 73 206.955 73.256 206.465 73.768C205.974 74.2587 205.729 75.0373 205.729 76.104ZM225.976 85V64.392H236.12C237.762 64.392 239.117 64.7227 240.184 65.384C241.25 66.024 242.04 66.8987 242.552 68.008C243.085 69.1173 243.352 70.3653 243.352 71.752C243.352 73.16 243.053 74.408 242.456 75.496C241.858 76.584 241.005 77.4373 239.896 78.056C238.808 78.6533 237.506 78.952 235.992 78.952H231.128V85H225.976ZM231.128 74.984H234.84C235.928 74.984 236.738 74.6853 237.272 74.088C237.826 73.4907 238.104 72.7013 238.104 71.72C238.104 70.6533 237.848 69.832 237.336 69.256C236.845 68.6587 236.066 68.36 235 68.36H231.128V74.984ZM245.382 85V69.832H250.278L250.438 71.24C251.099 70.8347 251.921 70.472 252.902 70.152C253.883 69.8107 254.865 69.5973 255.846 69.512V73.384C255.291 73.448 254.673 73.5547 253.99 73.704C253.329 73.832 252.689 73.992 252.07 74.184C251.473 74.376 250.961 74.5787 250.534 74.792V85H245.382ZM265.067 85.32C262.145 85.32 259.99 84.648 258.603 83.304C257.217 81.9387 256.523 79.976 256.523 77.416C256.523 74.8773 257.217 72.9253 258.603 71.56C260.011 70.1947 262.166 69.512 265.067 69.512C267.99 69.512 270.145 70.1947 271.531 71.56C272.939 72.9253 273.643 74.8773 273.643 77.416C273.643 79.976 272.95 81.9387 271.563 83.304C270.177 84.648 268.011 85.32 265.067 85.32ZM265.067 81.288C266.262 81.288 267.115 80.9893 267.627 80.392C268.139 79.7947 268.395 78.8027 268.395 77.416C268.395 76.0293 268.139 75.0373 267.627 74.44C267.115 73.8427 266.262 73.544 265.067 73.544C263.894 73.544 263.051 73.8427 262.539 74.44C262.027 75.0373 261.771 76.0293 261.771 77.416C261.771 78.8027 262.027 79.7947 262.539 80.392C263.051 80.9893 263.894 81.288 265.067 81.288ZM277.397 67.432V63.56H282.997V67.432H277.397ZM277.461 92.488C275.946 92.488 274.687 92.2747 273.684 91.848V88.36C274.325 88.5733 274.965 88.68 275.605 88.68C277.098 88.68 277.845 88.04 277.845 86.76V73.64H275.605L276.053 69.832H282.997V87.208C282.997 88.7653 282.549 90.0347 281.653 91.016C280.757 91.9973 279.359 92.488 277.461 92.488ZM294.385 85.32C291.74 85.32 289.617 84.6693 288.017 83.368C286.417 82.0453 285.617 80.0613 285.617 77.416C285.617 75.0053 286.278 73.0853 287.601 71.656C288.924 70.2267 290.908 69.512 293.553 69.512C295.964 69.512 297.83 70.1307 299.153 71.368C300.476 72.6053 301.137 74.2693 301.137 76.36V79.08H290.385C290.62 80.0827 291.164 80.7867 292.017 81.192C292.892 81.576 294.076 81.768 295.569 81.768C296.401 81.768 297.244 81.6933 298.097 81.544C298.972 81.3947 299.697 81.2027 300.273 80.968V84.328C299.548 84.6693 298.684 84.9147 297.681 85.064C296.678 85.2347 295.58 85.32 294.385 85.32ZM290.385 76.104H296.657V75.432C296.657 74.6853 296.433 74.0987 295.985 73.672C295.537 73.224 294.78 73 293.713 73C292.476 73 291.612 73.256 291.121 73.768C290.63 74.2587 290.385 75.0373 290.385 76.104ZM311.757 85.32C309.048 85.32 306.925 84.6587 305.389 83.336C303.874 82.0133 303.117 80.04 303.117 77.416C303.117 74.7493 303.906 72.7653 305.485 71.464C307.085 70.1627 309.208 69.512 311.853 69.512C312.962 69.512 313.922 69.5973 314.733 69.768C315.565 69.9173 316.365 70.1733 317.133 70.536V74.184C315.938 73.608 314.541 73.32 312.941 73.32C311.448 73.32 310.306 73.6187 309.517 74.216C308.749 74.8133 308.365 75.88 308.365 77.416C308.365 78.8453 308.728 79.8907 309.453 80.552C310.178 81.192 311.33 81.512 312.909 81.512C314.466 81.512 315.885 81.192 317.165 80.552V84.36C316.397 84.7013 315.565 84.9467 314.669 85.096C313.794 85.2453 312.824 85.32 311.757 85.32ZM326.028 85.32C324.151 85.32 322.764 84.84 321.868 83.88C320.994 82.92 320.556 81.5973 320.556 79.912V73.736H318.508V69.832H320.556V66.664L325.708 65.288V69.832H329.388L329.164 73.736H325.708V79.56C325.708 80.2853 325.89 80.7973 326.252 81.096C326.615 81.3733 327.159 81.512 327.884 81.512C328.503 81.512 329.132 81.4053 329.772 81.192V84.68C328.77 85.1067 327.522 85.32 326.028 85.32ZM337.389 85.32C336.173 85.32 335.021 85.2347 333.933 85.064C332.845 84.8933 331.981 84.68 331.341 84.424V80.488C332.088 80.808 332.952 81.0533 333.933 81.224C334.914 81.3947 335.789 81.48 336.557 81.48C337.474 81.48 338.136 81.4373 338.541 81.352C338.968 81.2667 339.181 81.032 339.181 80.648C339.181 80.2213 338.84 79.9013 338.157 79.688C337.474 79.4747 336.536 79.1653 335.341 78.76C333.954 78.2693 332.898 77.704 332.173 77.064C331.469 76.4027 331.117 75.432 331.117 74.152C331.117 72.6587 331.672 71.5173 332.781 70.728C333.912 69.9173 335.704 69.512 338.157 69.512C339.117 69.512 340.066 69.5867 341.005 69.736C341.944 69.8853 342.712 70.056 343.309 70.248V74.12C342.712 73.8427 342.029 73.64 341.261 73.512C340.493 73.384 339.8 73.32 339.181 73.32C338.392 73.32 337.72 73.3733 337.165 73.48C336.632 73.5653 336.365 73.7893 336.365 74.152C336.365 74.5573 336.664 74.8453 337.261 75.016C337.858 75.1653 338.722 75.4213 339.853 75.784C341.048 76.1467 341.976 76.5413 342.637 76.968C343.298 77.3733 343.768 77.864 344.045 78.44C344.322 79.016 344.461 79.7413 344.461 80.616C344.461 82.1307 343.864 83.2933 342.669 84.104C341.474 84.9147 339.714 85.32 337.389 85.32Z" fill="black"/>
<path d="M37.408 104.16C35.9893 104.16 34.8853 103.819 34.096 103.136C33.3173 102.453 32.928 101.467 32.928 100.176V93.696H34.672V100.112C34.672 100.976 34.9067 101.621 35.376 102.048C35.856 102.475 36.5333 102.688 37.408 102.688C38.272 102.688 38.9387 102.475 39.408 102.048C39.888 101.621 40.128 100.976 40.128 100.112V93.696H41.856V100.176C41.856 101.467 41.4667 102.453 40.688 103.136C39.9093 103.819 38.816 104.16 37.408 104.16ZM43.7893 104V96.416H45.3893L45.4693 97.216C45.8106 96.9493 46.2159 96.7253 46.6853 96.544C47.1653 96.352 47.6933 96.256 48.2693 96.256C49.2506 96.256 49.9653 96.4853 50.4133 96.944C50.8613 97.4027 51.0853 98.1173 51.0853 99.088V104H49.3573V99.168C49.3573 98.5813 49.2346 98.1707 48.9893 97.936C48.7546 97.7013 48.3066 97.584 47.6453 97.584C47.2506 97.584 46.8613 97.664 46.4773 97.824C46.1039 97.984 45.7893 98.192 45.5333 98.448V104H43.7893ZM56.019 104.16C55.3363 104.16 54.7337 104.043 54.211 103.808C53.6883 103.573 53.283 103.184 52.995 102.64C52.707 102.096 52.563 101.365 52.563 100.448C52.563 99.5413 52.7177 98.7787 53.027 98.16C53.3363 97.5307 53.763 97.056 54.307 96.736C54.8617 96.416 55.4857 96.256 56.179 96.256C56.6377 96.256 57.043 96.3093 57.395 96.416C57.7577 96.5227 58.1043 96.688 58.435 96.912V93.216H60.179V104H58.691L58.579 103.248C58.2377 103.557 57.8643 103.787 57.459 103.936C57.0537 104.085 56.5737 104.16 56.019 104.16ZM56.483 102.848C57.2617 102.848 57.9123 102.581 58.435 102.048V98.256C57.9337 97.808 57.3043 97.584 56.547 97.584C55.811 97.584 55.2563 97.8293 54.883 98.32C54.5097 98.8107 54.323 99.5253 54.323 100.464C54.323 101.371 54.4937 101.995 54.835 102.336C55.187 102.677 55.7363 102.848 56.483 102.848ZM65.8793 104.16C64.5566 104.16 63.5326 103.835 62.8073 103.184C62.0819 102.533 61.7193 101.536 61.7193 100.192C61.7193 98.976 62.0286 98.016 62.6473 97.312C63.2659 96.608 64.2046 96.256 65.4633 96.256C66.6153 96.256 67.4793 96.56 68.0553 97.168C68.6419 97.7653 68.9353 98.5387 68.9353 99.488V100.896H63.3832C63.4686 101.632 63.7353 102.139 64.1833 102.416C64.6313 102.693 65.3139 102.832 66.2313 102.832C66.6153 102.832 67.0099 102.795 67.4153 102.72C67.8206 102.645 68.1726 102.549 68.4713 102.432V103.712C68.1299 103.861 67.7353 103.973 67.2873 104.048C66.8499 104.123 66.3806 104.16 65.8793 104.16ZM63.3832 99.76H67.3993V99.232C67.3993 98.7093 67.2553 98.304 66.9673 98.016C66.6793 97.7173 66.1939 97.568 65.5113 97.568C64.7006 97.568 64.1406 97.744 63.8313 98.096C63.5326 98.448 63.3832 99.0027 63.3832 99.76ZM70.633 104V96.416H72.233L72.329 97.296C72.6917 97.0613 73.1237 96.848 73.625 96.656C74.1263 96.464 74.6223 96.3307 75.113 96.256V97.584C74.8143 97.6373 74.489 97.7173 74.137 97.824C73.7957 97.92 73.4703 98.032 73.161 98.16C72.8517 98.2773 72.5903 98.4 72.377 98.528V104H70.633ZM79.455 106.816C78.8897 106.816 78.3243 106.779 77.759 106.704C77.1937 106.64 76.7137 106.539 76.319 106.4V105.056C76.7457 105.195 77.2363 105.301 77.791 105.376C78.3457 105.451 78.8737 105.488 79.375 105.488C80.143 105.488 80.703 105.445 81.055 105.36C81.407 105.275 81.583 105.083 81.583 104.784C81.583 104.56 81.4977 104.4 81.327 104.304C81.1563 104.219 80.831 104.176 80.351 104.176H78.303C76.927 104.176 76.239 103.691 76.239 102.72C76.239 102.411 76.3297 102.123 76.511 101.856C76.6923 101.589 76.9803 101.387 77.375 101.248C76.9377 101.035 76.6123 100.741 76.399 100.368C76.1963 99.9947 76.095 99.5467 76.095 99.024C76.095 98.0533 76.383 97.3493 76.959 96.912C77.5457 96.4747 78.4203 96.256 79.583 96.256C79.8283 96.256 80.0843 96.2773 80.351 96.32C80.6177 96.352 80.8257 96.384 80.975 96.416H83.759L83.711 97.552H82.431C82.6337 97.7227 82.783 97.936 82.879 98.192C82.975 98.448 83.023 98.7253 83.023 99.024C83.023 99.8347 82.7777 100.475 82.287 100.944C81.7963 101.403 81.055 101.632 80.063 101.632C79.8923 101.632 79.7323 101.627 79.583 101.616C79.4443 101.595 79.2897 101.573 79.119 101.552C78.799 101.584 78.511 101.669 78.255 101.808C77.999 101.947 77.871 102.133 77.871 102.368C77.871 102.528 77.935 102.645 78.063 102.72C78.191 102.784 78.4043 102.816 78.703 102.816H80.831C81.5883 102.816 82.1697 102.981 82.575 103.312C82.991 103.632 83.199 104.101 83.199 104.72C83.199 105.467 82.8737 106 82.223 106.32C81.583 106.651 80.6603 106.816 79.455 106.816ZM79.583 100.528C80.2763 100.528 80.7563 100.411 81.023 100.176C81.3003 99.9413 81.439 99.5413 81.439 98.976C81.439 98.4107 81.3003 98 81.023 97.744C80.7563 97.488 80.2763 97.36 79.583 97.36C78.9323 97.36 78.4577 97.4827 78.159 97.728C77.8603 97.9733 77.711 98.3893 77.711 98.976C77.711 99.52 77.8497 99.9147 78.127 100.16C78.415 100.405 78.9003 100.528 79.583 100.528ZM84.8361 104V96.416H86.4361L86.5321 97.296C86.8948 97.0613 87.3268 96.848 87.8281 96.656C88.3295 96.464 88.8255 96.3307 89.3161 96.256V97.584C89.0175 97.6373 88.6921 97.7173 88.3401 97.824C87.9988 97.92 87.6735 98.032 87.3641 98.16C87.0548 98.2773 86.7935 98.4 86.5801 98.528V104H84.8361ZM92.4698 104.16C91.9898 104.16 91.5418 104.075 91.1258 103.904C90.7204 103.733 90.3951 103.477 90.1497 103.136C89.9044 102.784 89.7818 102.352 89.7818 101.84C89.7818 101.115 90.0271 100.533 90.5178 100.096C91.0191 99.648 91.7871 99.424 92.8218 99.424H95.2538V99.088C95.2538 98.7253 95.1951 98.4373 95.0778 98.224C94.9711 98.0107 94.7684 97.856 94.4698 97.76C94.1818 97.664 93.7551 97.616 93.1898 97.616C92.2938 97.616 91.4564 97.7493 90.6778 98.016V96.72C91.0191 96.5813 91.4351 96.4693 91.9258 96.384C92.4164 96.2987 92.9444 96.256 93.5098 96.256C94.6191 96.256 95.4618 96.48 96.0378 96.928C96.6244 97.376 96.9178 98.1067 96.9178 99.12V104H95.4298L95.3178 103.232C95.0084 103.531 94.6244 103.76 94.1658 103.92C93.7178 104.08 93.1524 104.16 92.4698 104.16ZM92.9338 102.912C93.4564 102.912 93.9098 102.827 94.2938 102.656C94.6884 102.475 95.0084 102.235 95.2538 101.936V100.608H92.8538C92.3418 100.608 91.9684 100.709 91.7338 100.912C91.5098 101.104 91.3978 101.403 91.3978 101.808C91.3978 102.203 91.5311 102.485 91.7978 102.656C92.0644 102.827 92.4431 102.912 92.9338 102.912ZM101.988 104.16C101.305 104.16 100.702 104.043 100.18 103.808C99.6571 103.573 99.2518 103.184 98.9638 102.64C98.6758 102.096 98.5318 101.365 98.5318 100.448C98.5318 99.5413 98.6864 98.7787 98.9958 98.16C99.3051 97.5307 99.7318 97.056 100.276 96.736C100.83 96.416 101.454 96.256 102.148 96.256C102.606 96.256 103.012 96.3093 103.364 96.416C103.726 96.5227 104.073 96.688 104.404 96.912V93.216H106.148V104H104.66L104.548 103.248C104.206 103.557 103.833 103.787 103.428 103.936C103.022 104.085 102.542 104.16 101.988 104.16ZM102.452 102.848C103.23 102.848 103.881 102.581 104.404 102.048V98.256C103.902 97.808 103.273 97.584 102.516 97.584C101.78 97.584 101.225 97.8293 100.852 98.32C100.478 98.8107 100.292 99.5253 100.292 100.464C100.292 101.371 100.462 101.995 100.804 102.336C101.156 102.677 101.705 102.848 102.452 102.848ZM110.9 104.16C109.994 104.16 109.295 103.909 108.804 103.408C108.324 102.907 108.084 102.171 108.084 101.2V96.416H109.828V101.2C109.828 101.765 109.967 102.181 110.244 102.448C110.522 102.715 110.948 102.848 111.524 102.848C111.951 102.848 112.346 102.768 112.708 102.608C113.071 102.448 113.386 102.235 113.652 101.968V96.416H115.38V104H113.796L113.716 103.216C113.375 103.483 112.97 103.707 112.5 103.888C112.031 104.069 111.498 104.16 110.9 104.16ZM119.548 104.16C119.068 104.16 118.62 104.075 118.204 103.904C117.799 103.733 117.473 103.477 117.228 103.136C116.983 102.784 116.86 102.352 116.86 101.84C116.86 101.115 117.105 100.533 117.596 100.096C118.097 99.648 118.865 99.424 119.9 99.424H122.332V99.088C122.332 98.7253 122.273 98.4373 122.156 98.224C122.049 98.0107 121.847 97.856 121.548 97.76C121.26 97.664 120.833 97.616 120.268 97.616C119.372 97.616 118.535 97.7493 117.756 98.016V96.72C118.097 96.5813 118.513 96.4693 119.004 96.384C119.495 96.2987 120.023 96.256 120.588 96.256C121.697 96.256 122.54 96.48 123.116 96.928C123.703 97.376 123.996 98.1067 123.996 99.12V104H122.508L122.396 103.232C122.087 103.531 121.703 103.76 121.244 103.92C120.796 104.08 120.231 104.16 119.548 104.16ZM120.012 102.912C120.535 102.912 120.988 102.827 121.372 102.656C121.767 102.475 122.087 102.235 122.332 101.936V100.608H119.932C119.42 100.608 119.047 100.709 118.812 100.912C118.588 101.104 118.476 101.403 118.476 101.808C118.476 102.203 118.609 102.485 118.876 102.656C119.143 102.827 119.521 102.912 120.012 102.912ZM128.826 104.16C128.015 104.16 127.407 103.947 127.002 103.52C126.607 103.083 126.41 102.491 126.41 101.744V97.776H125.29V96.416H126.41V94.672L128.138 94.144V96.416H130.154L130.042 97.776H128.138V101.648C128.138 102.085 128.239 102.395 128.442 102.576C128.645 102.747 128.975 102.832 129.434 102.832C129.722 102.832 130.026 102.779 130.346 102.672V103.904C129.93 104.075 129.423 104.16 128.826 104.16ZM135.52 104.16C134.197 104.16 133.173 103.835 132.448 103.184C131.723 102.533 131.36 101.536 131.36 100.192C131.36 98.976 131.669 98.016 132.288 97.312C132.907 96.608 133.845 96.256 135.104 96.256C136.256 96.256 137.12 96.56 137.696 97.168C138.283 97.7653 138.576 98.5387 138.576 99.488V100.896H133.024C133.109 101.632 133.376 102.139 133.824 102.416C134.272 102.693 134.955 102.832 135.872 102.832C136.256 102.832 136.651 102.795 137.056 102.72C137.461 102.645 137.813 102.549 138.112 102.432V103.712C137.771 103.861 137.376 103.973 136.928 104.048C136.491 104.123 136.021 104.16 135.52 104.16ZM133.024 99.76H137.04V99.232C137.04 98.7093 136.896 98.304 136.608 98.016C136.32 97.7173 135.835 97.568 135.152 97.568C134.341 97.568 133.781 97.744 133.472 98.096C133.173 98.448 133.024 99.0027 133.024 99.76ZM146.329 104.16C145.849 104.16 145.401 104.075 144.985 103.904C144.58 103.733 144.254 103.477 144.009 103.136C143.764 102.784 143.641 102.352 143.641 101.84C143.641 101.115 143.886 100.533 144.377 100.096C144.878 99.648 145.646 99.424 146.681 99.424H149.113V99.088C149.113 98.7253 149.054 98.4373 148.937 98.224C148.83 98.0107 148.628 97.856 148.329 97.76C148.041 97.664 147.614 97.616 147.049 97.616C146.153 97.616 145.316 97.7493 144.537 98.016V96.72C144.878 96.5813 145.294 96.4693 145.785 96.384C146.276 96.2987 146.804 96.256 147.369 96.256C148.478 96.256 149.321 96.48 149.897 96.928C150.484 97.376 150.777 98.1067 150.777 99.12V104H149.289L149.177 103.232C148.868 103.531 148.484 103.76 148.025 103.92C147.577 104.08 147.012 104.16 146.329 104.16ZM146.793 102.912C147.316 102.912 147.769 102.827 148.153 102.656C148.548 102.475 148.868 102.235 149.113 101.936V100.608H146.713C146.201 100.608 145.828 100.709 145.593 100.912C145.369 101.104 145.257 101.403 145.257 101.808C145.257 102.203 145.39 102.485 145.657 102.656C145.924 102.827 146.302 102.912 146.793 102.912ZM156.439 104.16C155.106 104.16 154.098 103.824 153.415 103.152C152.732 102.469 152.391 101.488 152.391 100.208C152.391 98.8747 152.764 97.8827 153.511 97.232C154.268 96.5813 155.276 96.256 156.535 96.256C157.058 96.256 157.495 96.2933 157.847 96.368C158.21 96.4427 158.556 96.56 158.887 96.72V98.016C158.332 97.7387 157.66 97.6 156.871 97.6C155.996 97.6 155.324 97.7973 154.855 98.192C154.386 98.576 154.151 99.248 154.151 100.208C154.151 101.115 154.359 101.781 154.775 102.208C155.191 102.624 155.879 102.832 156.839 102.832C157.596 102.832 158.284 102.688 158.903 102.4V103.728C158.551 103.867 158.172 103.973 157.767 104.048C157.372 104.123 156.93 104.16 156.439 104.16ZM162.657 104.16C162.177 104.16 161.729 104.075 161.313 103.904C160.908 103.733 160.583 103.477 160.337 103.136C160.092 102.784 159.969 102.352 159.969 101.84C159.969 101.115 160.215 100.533 160.705 100.096C161.207 99.648 161.975 99.424 163.009 99.424H165.441V99.088C165.441 98.7253 165.383 98.4373 165.265 98.224C165.159 98.0107 164.956 97.856 164.657 97.76C164.369 97.664 163.943 97.616 163.377 97.616C162.481 97.616 161.644 97.7493 160.865 98.016V96.72C161.207 96.5813 161.623 96.4693 162.113 96.384C162.604 96.2987 163.132 96.256 163.697 96.256C164.807 96.256 165.649 96.48 166.225 96.928C166.812 97.376 167.105 98.1067 167.105 99.12V104H165.617L165.505 103.232C165.196 103.531 164.812 103.76 164.353 103.92C163.905 104.08 163.34 104.16 162.657 104.16ZM163.121 102.912C163.644 102.912 164.097 102.827 164.481 102.656C164.876 102.475 165.196 102.235 165.441 101.936V100.608H163.041C162.529 100.608 162.156 100.709 161.921 100.912C161.697 101.104 161.585 101.403 161.585 101.808C161.585 102.203 161.719 102.485 161.985 102.656C162.252 102.827 162.631 102.912 163.121 102.912ZM172.175 104.16C171.493 104.16 170.89 104.043 170.367 103.808C169.845 103.573 169.439 103.184 169.151 102.64C168.863 102.096 168.719 101.365 168.719 100.448C168.719 99.5413 168.874 98.7787 169.183 98.16C169.493 97.5307 169.919 97.056 170.463 96.736C171.018 96.416 171.642 96.256 172.335 96.256C172.794 96.256 173.199 96.3093 173.551 96.416C173.914 96.5227 174.261 96.688 174.591 96.912V93.216H176.335V104H174.847L174.735 103.248C174.394 103.557 174.021 103.787 173.615 103.936C173.21 104.085 172.73 104.16 172.175 104.16ZM172.639 102.848C173.418 102.848 174.069 102.581 174.591 102.048V98.256C174.09 97.808 173.461 97.584 172.703 97.584C171.967 97.584 171.413 97.8293 171.039 98.32C170.666 98.8107 170.479 99.5253 170.479 100.464C170.479 101.371 170.65 101.995 170.991 102.336C171.343 102.677 171.893 102.848 172.639 102.848ZM182.036 104.16C180.713 104.16 179.689 103.835 178.964 103.184C178.238 102.533 177.876 101.536 177.876 100.192C177.876 98.976 178.185 98.016 178.804 97.312C179.422 96.608 180.361 96.256 181.62 96.256C182.772 96.256 183.636 96.56 184.212 97.168C184.798 97.7653 185.092 98.5387 185.092 99.488V100.896H179.539C179.625 101.632 179.892 102.139 180.34 102.416C180.788 102.693 181.47 102.832 182.388 102.832C182.772 102.832 183.166 102.795 183.572 102.72C183.977 102.645 184.329 102.549 184.628 102.432V103.712C184.286 103.861 183.892 103.973 183.444 104.048C183.006 104.123 182.537 104.16 182.036 104.16ZM179.539 99.76H183.556V99.232C183.556 98.7093 183.412 98.304 183.124 98.016C182.836 97.7173 182.35 97.568 181.668 97.568C180.857 97.568 180.297 97.744 179.988 98.096C179.689 98.448 179.539 99.0027 179.539 99.76ZM186.789 104V96.416H188.389L188.469 97.216C188.843 96.9173 189.253 96.6827 189.701 96.512C190.149 96.3413 190.629 96.256 191.141 96.256C191.685 96.256 192.107 96.3467 192.405 96.528C192.715 96.6987 192.949 96.9387 193.109 97.248C193.461 96.96 193.867 96.7253 194.325 96.544C194.784 96.352 195.333 96.256 195.973 96.256C196.848 96.256 197.493 96.48 197.909 96.928C198.325 97.376 198.533 98.064 198.533 98.992V104H196.821V99.168C196.821 98.5813 196.699 98.1707 196.453 97.936C196.208 97.7013 195.808 97.584 195.253 97.584C194.891 97.584 194.544 97.648 194.213 97.776C193.893 97.904 193.616 98.096 193.381 98.352C193.413 98.4693 193.435 98.592 193.445 98.72C193.456 98.848 193.461 98.9867 193.461 99.136V104H191.845V99.184C191.845 98.6293 191.749 98.224 191.557 97.968C191.365 97.712 191.003 97.584 190.469 97.584C190.096 97.584 189.739 97.6747 189.397 97.856C189.067 98.0267 188.768 98.2347 188.501 98.48V104H186.789ZM201.132 94.832V93.392H203.036V94.832H201.132ZM201.276 104V97.744H200.124L200.284 96.416H203.02V104H201.276ZM208.783 104.16C207.45 104.16 206.442 103.824 205.759 103.152C205.076 102.469 204.735 101.488 204.735 100.208C204.735 98.8747 205.108 97.8827 205.855 97.232C206.612 96.5813 207.62 96.256 208.879 96.256C209.402 96.256 209.839 96.2933 210.191 96.368C210.554 96.4427 210.9 96.56 211.231 96.72V98.016C210.676 97.7387 210.004 97.6 209.215 97.6C208.34 97.6 207.668 97.7973 207.199 98.192C206.73 98.576 206.495 99.248 206.495 100.208C206.495 101.115 206.703 101.781 207.119 102.208C207.535 102.624 208.223 102.832 209.183 102.832C209.94 102.832 210.628 102.688 211.247 102.4V103.728C210.895 103.867 210.516 103.973 210.111 104.048C209.716 104.123 209.274 104.16 208.783 104.16ZM218.001 104L216.001 96.416H217.745L219.057 101.936L220.545 97.344V96.416H221.873L223.521 101.936L224.833 96.416H226.561L224.577 104H222.929L221.313 99.04L219.665 104H218.001ZM231.171 104.16C229.806 104.16 228.803 103.819 228.163 103.136C227.534 102.453 227.219 101.477 227.219 100.208C227.219 98.9387 227.539 97.9627 228.179 97.28C228.819 96.5973 229.817 96.256 231.171 96.256C232.537 96.256 233.539 96.5973 234.179 97.28C234.819 97.9627 235.139 98.9387 235.139 100.208C235.139 101.477 234.819 102.453 234.179 103.136C233.55 103.819 232.547 104.16 231.171 104.16ZM231.171 102.688C231.971 102.688 232.537 102.496 232.867 102.112C233.209 101.717 233.379 101.083 233.379 100.208C233.379 99.3333 233.209 98.704 232.867 98.32C232.537 97.936 231.971 97.744 231.171 97.744C230.382 97.744 229.817 97.936 229.475 98.32C229.145 98.704 228.979 99.3333 228.979 100.208C228.979 101.083 229.145 101.717 229.475 102.112C229.817 102.496 230.382 102.688 231.171 102.688ZM236.836 104V96.416H238.436L238.532 97.296C238.895 97.0613 239.327 96.848 239.828 96.656C240.329 96.464 240.825 96.3307 241.316 96.256V97.584C241.017 97.6373 240.692 97.7173 240.34 97.824C239.999 97.92 239.673 98.032 239.364 98.16C239.055 98.2773 238.793 98.4 238.58 98.528V104H236.836ZM242.586 104V93.216H244.33V99.456L247.514 96.416H249.514L246.426 99.472L249.69 104H247.85L245.338 100.4L244.33 101.36V104H242.586ZM253.145 104.16C252.623 104.16 252.121 104.123 251.641 104.048C251.172 103.973 250.783 103.883 250.473 103.776V102.304C250.836 102.443 251.236 102.549 251.673 102.624C252.111 102.699 252.527 102.736 252.921 102.736C253.519 102.736 253.945 102.683 254.201 102.576C254.457 102.469 254.585 102.261 254.585 101.952C254.585 101.728 254.505 101.552 254.345 101.424C254.196 101.296 253.967 101.179 253.657 101.072C253.359 100.965 252.975 100.837 252.505 100.688C252.057 100.539 251.668 100.379 251.337 100.208C251.007 100.027 250.751 99.7973 250.569 99.52C250.388 99.2427 250.297 98.88 250.297 98.432C250.297 97.7387 250.548 97.2053 251.049 96.832C251.551 96.448 252.356 96.256 253.465 96.256C253.903 96.256 254.319 96.288 254.713 96.352C255.108 96.416 255.444 96.496 255.721 96.592V98.048C255.423 97.9307 255.092 97.84 254.729 97.776C254.377 97.712 254.047 97.68 253.737 97.68C253.183 97.68 252.761 97.728 252.473 97.824C252.196 97.92 252.057 98.112 252.057 98.4C252.057 98.6987 252.201 98.912 252.489 99.04C252.788 99.1573 253.263 99.3227 253.913 99.536C254.511 99.7173 254.985 99.9093 255.337 100.112C255.689 100.315 255.94 100.56 256.089 100.848C256.249 101.125 256.329 101.488 256.329 101.936C256.329 102.683 256.057 103.243 255.513 103.616C254.969 103.979 254.18 104.16 253.145 104.16Z" fill="white"/>
</svg>
