<svg width="320" height="320" viewBox="0 0 320 320" fill="none" xmlns="http://www.w3.org/2000/svg">
<circle cx="160" cy="160" r="160" fill="#ECA829"/>
<path d="M95.5539 59V38.392H100.642L106.242 49.816L111.81 38.392H116.866V59H111.714V47.16L107.65 55.48H104.802L100.706 47.16V59H95.5539ZM124.852 59.32C123.892 59.32 122.996 59.1493 122.164 58.808C121.354 58.4667 120.703 57.944 120.212 57.24C119.722 56.5147 119.476 55.6187 119.476 54.552C119.476 52.9947 119.999 51.7787 121.044 50.904C122.111 50.008 123.7 49.56 125.812 49.56H130.036V49.208C130.036 48.44 129.78 47.896 129.268 47.576C128.756 47.2347 127.796 47.064 126.388 47.064C124.66 47.064 122.964 47.3307 121.3 47.864V44.536C122.047 44.2373 122.954 43.992 124.02 43.8C125.108 43.608 126.25 43.512 127.444 43.512C129.791 43.512 131.626 43.992 132.948 44.952C134.292 45.912 134.964 47.4373 134.964 49.528V59H130.452L130.196 57.72C129.642 58.232 128.927 58.6267 128.052 58.904C127.199 59.1813 126.132 59.32 124.852 59.32ZM126.484 56.152C127.295 56.152 127.999 56.0133 128.596 55.736C129.194 55.4587 129.674 55.1067 130.036 54.68V52.536H126.388C124.874 52.536 124.116 53.144 124.116 54.36C124.116 54.9147 124.308 55.352 124.692 55.672C125.076 55.992 125.674 56.152 126.484 56.152ZM138.054 59V43.832H142.95L143.11 45.24C143.771 44.8347 144.593 44.472 145.574 44.152C146.555 43.8107 147.537 43.5973 148.518 43.512V47.384C147.963 47.448 147.345 47.5547 146.662 47.704C146.001 47.832 145.361 47.992 144.742 48.184C144.145 48.376 143.633 48.5787 143.206 48.792V59H138.054ZM156.988 64.632C156.241 64.632 155.452 64.6 154.62 64.536C153.788 64.472 152.999 64.376 152.252 64.248C151.505 64.12 150.865 63.9707 150.332 63.8V60.28C151.185 60.5573 152.209 60.7707 153.404 60.92C154.599 61.0693 155.697 61.144 156.7 61.144C158.001 61.144 158.972 61.0693 159.612 60.92C160.273 60.792 160.604 60.5573 160.604 60.216C160.604 59.9173 160.476 59.7147 160.22 59.608C159.964 59.5013 159.463 59.448 158.716 59.448H154.524C153.159 59.448 152.092 59.2027 151.324 58.712C150.577 58.2213 150.204 57.5067 150.204 56.568C150.204 55.928 150.396 55.32 150.78 54.744C151.185 54.168 151.772 53.7413 152.54 53.464C151.665 53.016 151.004 52.4507 150.556 51.768C150.108 51.0853 149.884 50.2213 149.884 49.176C149.884 47.2133 150.513 45.784 151.772 44.888C153.052 43.9707 154.919 43.512 157.372 43.512C157.884 43.512 158.449 43.5547 159.068 43.64C159.708 43.704 160.177 43.768 160.476 43.832H166.3L166.172 47.032H163.964C164.497 47.5653 164.764 48.3547 164.764 49.4C164.764 50.872 164.284 52.056 163.324 52.952C162.385 53.848 160.956 54.296 159.036 54.296C158.716 54.296 158.396 54.2853 158.076 54.264C157.777 54.2213 157.479 54.1893 157.18 54.168C156.625 54.232 156.145 54.3493 155.74 54.52C155.356 54.6907 155.164 54.936 155.164 55.256C155.164 55.512 155.26 55.6827 155.452 55.768C155.665 55.8533 155.975 55.896 156.38 55.896H160.252C161.809 55.896 163.015 56.2587 163.868 56.984C164.743 57.688 165.18 58.7227 165.18 60.088C165.18 63.1173 162.449 64.632 156.988 64.632ZM157.404 51.448C158.535 51.448 159.313 51.256 159.74 50.872C160.167 50.488 160.38 49.848 160.38 48.952C160.38 48.056 160.156 47.4053 159.708 47C159.281 46.5947 158.513 46.392 157.404 46.392C156.359 46.392 155.601 46.5947 155.132 47C154.684 47.384 154.46 48.0347 154.46 48.952C154.46 49.8053 154.673 50.4347 155.1 50.84C155.527 51.2453 156.295 51.448 157.404 51.448ZM176.395 59.32C173.473 59.32 171.318 58.648 169.931 57.304C168.545 55.9387 167.851 53.976 167.851 51.416C167.851 48.8773 168.545 46.9253 169.931 45.56C171.339 44.1947 173.494 43.512 176.395 43.512C179.318 43.512 181.473 44.1947 182.859 45.56C184.267 46.9253 184.971 48.8773 184.971 51.416C184.971 53.976 184.278 55.9387 182.891 57.304C181.505 58.648 179.339 59.32 176.395 59.32ZM176.395 55.288C177.59 55.288 178.443 54.9893 178.955 54.392C179.467 53.7947 179.723 52.8027 179.723 51.416C179.723 50.0293 179.467 49.0373 178.955 48.44C178.443 47.8427 177.59 47.544 176.395 47.544C175.222 47.544 174.379 47.8427 173.867 48.44C173.355 49.0373 173.099 50.0293 173.099 51.416C173.099 52.8027 173.355 53.7947 173.867 54.392C174.379 54.9893 175.222 55.288 176.395 55.288ZM193.825 59.32C191.948 59.32 190.561 58.84 189.665 57.88C188.79 56.92 188.353 55.5973 188.353 53.912V47.736H186.305V43.832H188.353V40.664L193.505 39.288V43.832H197.185L196.961 47.736H193.505V53.56C193.505 54.2853 193.686 54.7973 194.049 55.096C194.412 55.3733 194.956 55.512 195.681 55.512C196.3 55.512 196.929 55.4053 197.569 55.192V58.68C196.566 59.1067 195.318 59.32 193.825 59.32ZM198.101 45.048L199.989 38.072H204.341L201.973 45.048H198.101ZM211.155 59.32C209.939 59.32 208.787 59.2347 207.699 59.064C206.611 58.8933 205.747 58.68 205.107 58.424V54.488C205.853 54.808 206.717 55.0533 207.699 55.224C208.68 55.3947 209.555 55.48 210.323 55.48C211.24 55.48 211.901 55.4373 212.307 55.352C212.733 55.2667 212.947 55.032 212.947 54.648C212.947 54.2213 212.605 53.9013 211.923 53.688C211.24 53.4747 210.301 53.1653 209.107 52.76C207.72 52.2693 206.664 51.704 205.939 51.064C205.235 50.4027 204.883 49.432 204.883 48.152C204.883 46.6587 205.437 45.5173 206.547 44.728C207.677 43.9173 209.469 43.512 211.923 43.512C212.883 43.512 213.832 43.5867 214.771 43.736C215.709 43.8853 216.477 44.056 217.075 44.248V48.12C216.477 47.8427 215.795 47.64 215.027 47.512C214.259 47.384 213.565 47.32 212.947 47.32C212.157 47.32 211.485 47.3733 210.931 47.48C210.397 47.5653 210.131 47.7893 210.131 48.152C210.131 48.5573 210.429 48.8453 211.027 49.016C211.624 49.1653 212.488 49.4213 213.619 49.784C214.813 50.1467 215.741 50.5413 216.403 50.968C217.064 51.3733 217.533 51.864 217.811 52.44C218.088 53.016 218.227 53.7413 218.227 54.616C218.227 56.1307 217.629 57.2933 216.435 58.104C215.24 58.9147 213.48 59.32 211.155 59.32ZM57.4758 91V70.392H68.3558C70.4251 70.392 71.9824 70.8827 73.0278 71.864C74.0944 72.8453 74.6278 74.232 74.6278 76.024C74.6278 77.112 74.4144 78.0293 73.9878 78.776C73.5824 79.5013 73.0384 80.0667 72.3558 80.472C73.2944 80.8133 74.0304 81.3147 74.5638 81.976C75.0971 82.6373 75.3638 83.6293 75.3638 84.952C75.3638 86.9147 74.7878 88.4187 73.6358 89.464C72.4838 90.488 70.8304 91 68.6758 91H57.4758ZM62.6278 78.776H66.8198C67.7158 78.776 68.3664 78.5733 68.7718 78.168C69.1771 77.7627 69.3798 77.1973 69.3798 76.472C69.3798 75.6827 69.1771 75.096 68.7718 74.712C68.3664 74.3067 67.6304 74.104 66.5638 74.104H62.6278V78.776ZM62.6278 87.32H67.3318C68.2704 87.32 68.9638 87.128 69.4118 86.744C69.8811 86.36 70.1158 85.6773 70.1158 84.696C70.1158 83.9067 69.8918 83.32 69.4438 82.936C68.9958 82.5307 68.2278 82.328 67.1398 82.328H62.6278V87.32ZM83.1918 91.32C81.3998 91.32 80.0024 90.8187 78.9998 89.816C77.9971 88.792 77.4958 87.3093 77.4958 85.368V75.832H82.6478V85.08C82.6478 85.9333 82.8504 86.5627 83.2558 86.968C83.6824 87.352 84.3118 87.544 85.1438 87.544C85.7624 87.544 86.3491 87.416 86.9038 87.16C87.4584 86.904 87.9171 86.584 88.2798 86.2V75.832H93.4318V91H88.6318L88.4718 89.72C87.8531 90.1893 87.1064 90.5733 86.2318 90.872C85.3571 91.1707 84.3438 91.32 83.1918 91.32ZM102.327 91.32C101.111 91.32 99.9585 91.2347 98.8705 91.064C97.7825 90.8933 96.9185 90.68 96.2785 90.424V86.488C97.0252 86.808 97.8892 87.0533 98.8705 87.224C99.8518 87.3947 100.727 87.48 101.495 87.48C102.412 87.48 103.073 87.4373 103.479 87.352C103.905 87.2667 104.119 87.032 104.119 86.648C104.119 86.2213 103.777 85.9013 103.095 85.688C102.412 85.4747 101.473 85.1653 100.279 84.76C98.8918 84.2693 97.8358 83.704 97.1105 83.064C96.4065 82.4027 96.0545 81.432 96.0545 80.152C96.0545 78.6587 96.6092 77.5173 97.7185 76.728C98.8492 75.9173 100.641 75.512 103.095 75.512C104.055 75.512 105.004 75.5867 105.943 75.736C106.881 75.8853 107.649 76.056 108.247 76.248V80.12C107.649 79.8427 106.967 79.64 106.199 79.512C105.431 79.384 104.737 79.32 104.119 79.32C103.329 79.32 102.657 79.3733 102.103 79.48C101.569 79.5653 101.303 79.7893 101.303 80.152C101.303 80.5573 101.601 80.8453 102.199 81.016C102.796 81.1653 103.66 81.4213 104.791 81.784C105.985 82.1467 106.913 82.5413 107.575 82.968C108.236 83.3733 108.705 83.864 108.983 84.44C109.26 85.016 109.399 85.7413 109.399 86.616C109.399 88.1307 108.801 89.2933 107.607 90.104C106.412 90.9147 104.652 91.32 102.327 91.32ZM117.778 91.32C115.901 91.32 114.514 90.84 113.618 89.88C112.744 88.92 112.306 87.5973 112.306 85.912V79.736H110.258V75.832H112.306V72.664L117.458 71.288V75.832H121.138L120.914 79.736H117.458V85.56C117.458 86.2853 117.64 86.7973 118.002 87.096C118.365 87.3733 118.909 87.512 119.634 87.512C120.253 87.512 120.882 87.4053 121.522 87.192V90.68C120.52 91.1067 119.272 91.32 117.778 91.32ZM128.179 91.32C126.515 91.32 125.32 90.9573 124.595 90.232C123.87 89.5067 123.507 88.344 123.507 86.744V69.432H128.659V86.232C128.659 86.7227 128.755 87.064 128.947 87.256C129.16 87.4267 129.47 87.512 129.875 87.512C130.451 87.512 130.963 87.4373 131.411 87.288V90.776C130.92 90.968 130.43 91.1067 129.939 91.192C129.47 91.2773 128.883 91.32 128.179 91.32ZM133.25 73.432V69.56H138.85V73.432H133.25ZM133.666 91V79.64H131.426L131.874 75.832H138.818V91H133.666ZM142.101 91V75.832H146.901L147.061 77.144C147.679 76.7173 148.458 76.344 149.397 76.024C150.335 75.6827 151.338 75.512 152.405 75.512C154.367 75.512 155.797 75.9813 156.693 76.92C157.589 77.8587 158.037 79.3093 158.037 81.272V91H152.885V81.688C152.885 80.8347 152.703 80.2267 152.341 79.864C151.978 79.5013 151.327 79.32 150.389 79.32C149.834 79.32 149.269 79.448 148.693 79.704C148.117 79.96 147.637 80.28 147.253 80.664V91H142.101ZM167.66 96.632C166.913 96.632 166.124 96.6 165.292 96.536C164.46 96.472 163.671 96.376 162.924 96.248C162.177 96.12 161.537 95.9707 161.004 95.8V92.28C161.857 92.5573 162.881 92.7707 164.076 92.92C165.271 93.0693 166.369 93.144 167.372 93.144C168.673 93.144 169.644 93.0693 170.284 92.92C170.945 92.792 171.276 92.5573 171.276 92.216C171.276 91.9173 171.148 91.7147 170.892 91.608C170.636 91.5013 170.135 91.448 169.388 91.448H165.196C163.831 91.448 162.764 91.2027 161.996 90.712C161.249 90.2213 160.876 89.5067 160.876 88.568C160.876 87.928 161.068 87.32 161.452 86.744C161.857 86.168 162.444 85.7413 163.212 85.464C162.337 85.016 161.676 84.4507 161.228 83.768C160.78 83.0853 160.556 82.2213 160.556 81.176C160.556 79.2133 161.185 77.784 162.444 76.888C163.724 75.9707 165.591 75.512 168.044 75.512C168.556 75.512 169.121 75.5547 169.74 75.64C170.38 75.704 170.849 75.768 171.148 75.832H176.972L176.844 79.032H174.636C175.169 79.5653 175.436 80.3547 175.436 81.4C175.436 82.872 174.956 84.056 173.996 84.952C173.057 85.848 171.628 86.296 169.708 86.296C169.388 86.296 169.068 86.2853 168.748 86.264C168.449 86.2213 168.151 86.1893 167.852 86.168C167.297 86.232 166.817 86.3493 166.412 86.52C166.028 86.6907 165.836 86.936 165.836 87.256C165.836 87.512 165.932 87.6827 166.124 87.768C166.337 87.8533 166.647 87.896 167.052 87.896H170.924C172.481 87.896 173.687 88.2587 174.54 88.984C175.415 89.688 175.852 90.7227 175.852 92.088C175.852 95.1173 173.121 96.632 167.66 96.632ZM168.076 83.448C169.207 83.448 169.985 83.256 170.412 82.872C170.839 82.488 171.052 81.848 171.052 80.952C171.052 80.056 170.828 79.4053 170.38 79C169.953 78.5947 169.185 78.392 168.076 78.392C167.031 78.392 166.273 78.5947 165.804 79C165.356 79.384 165.132 80.0347 165.132 80.952C165.132 81.8053 165.345 82.4347 165.772 82.84C166.199 83.2453 166.967 83.448 168.076 83.448ZM186.038 91V70.392H196.918C198.988 70.392 200.545 70.8827 201.59 71.864C202.657 72.8453 203.19 74.232 203.19 76.024C203.19 77.112 202.977 78.0293 202.55 78.776C202.145 79.5013 201.601 80.0667 200.918 80.472C201.857 80.8133 202.593 81.3147 203.126 81.976C203.66 82.6373 203.926 83.6293 203.926 84.952C203.926 86.9147 203.35 88.4187 202.198 89.464C201.046 90.488 199.393 91 197.238 91H186.038ZM191.19 78.776H195.382C196.278 78.776 196.929 78.5733 197.334 78.168C197.74 77.7627 197.942 77.1973 197.942 76.472C197.942 75.6827 197.74 75.096 197.334 74.712C196.929 74.3067 196.193 74.104 195.126 74.104H191.19V78.776ZM191.19 87.32H195.894C196.833 87.32 197.526 87.128 197.974 86.744C198.444 86.36 198.678 85.6773 198.678 84.696C198.678 83.9067 198.454 83.32 198.006 82.936C197.558 82.5307 196.79 82.328 195.702 82.328H191.19V87.32ZM206.538 91V75.832H211.434L211.594 77.24C212.256 76.8347 213.077 76.472 214.058 76.152C215.04 75.8107 216.021 75.5973 217.002 75.512V79.384C216.448 79.448 215.829 79.5547 215.146 79.704C214.485 79.832 213.845 79.992 213.226 80.184C212.629 80.376 212.117 80.5787 211.69 80.792V91H206.538ZM219.969 73.432V69.56H225.569V73.432H219.969ZM220.385 91V79.64H218.145L218.593 75.832H225.536V91H220.385ZM233.556 91.32C232.596 91.32 231.7 91.1493 230.868 90.808C230.057 90.4667 229.406 89.944 228.916 89.24C228.425 88.5147 228.18 87.6187 228.18 86.552C228.18 84.9947 228.702 83.7787 229.748 82.904C230.814 82.008 232.404 81.56 234.516 81.56H238.74V81.208C238.74 80.44 238.484 79.896 237.972 79.576C237.46 79.2347 236.5 79.064 235.092 79.064C233.364 79.064 231.668 79.3307 230.004 79.864V76.536C230.75 76.2373 231.657 75.992 232.724 75.8C233.812 75.608 234.953 75.512 236.148 75.512C238.494 75.512 240.329 75.992 241.652 76.952C242.996 77.912 243.668 79.4373 243.668 81.528V91H239.156L238.9 89.72C238.345 90.232 237.63 90.6267 236.756 90.904C235.902 91.1813 234.836 91.32 233.556 91.32ZM235.188 88.152C235.998 88.152 236.702 88.0133 237.3 87.736C237.897 87.4587 238.377 87.1067 238.74 86.68V84.536H235.092C233.577 84.536 232.82 85.144 232.82 86.36C232.82 86.9147 233.012 87.352 233.396 87.672C233.78 87.992 234.377 88.152 235.188 88.152ZM246.757 91V75.832H251.557L251.717 77.144C252.336 76.7173 253.114 76.344 254.053 76.024C254.992 75.6827 255.994 75.512 257.061 75.512C259.024 75.512 260.453 75.9813 261.349 76.92C262.245 77.8587 262.693 79.3093 262.693 81.272V91H257.541V81.688C257.541 80.8347 257.36 80.2267 256.997 79.864C256.634 79.5013 255.984 79.32 255.045 79.32C254.49 79.32 253.925 79.448 253.349 79.704C252.773 79.96 252.293 80.28 251.909 80.664V91H246.757Z" fill="white"/>
</svg>
