<svg width="320" height="320" viewBox="0 0 320 320" fill="none" xmlns="http://www.w3.org/2000/svg">
<circle cx="160" cy="160" r="160" fill="#ECA829"/>
<path d="M116.297 38H124.307V38.57H122.657V58.43H124.307V59H115.157V58.43H116.807V39.68H116.687L112.187 59H108.437L103.157 39.59H103.037V58.43H104.687V59H100.607V58.43H102.257V38.57H100.607V38H108.707L112.697 53.45L116.297 38ZM132.553 51.95H133.423V49.64C133.423 47.74 133.313 46.47 133.093 45.83C132.893 45.17 132.493 44.84 131.893 44.84C131.533 44.84 131.203 44.94 130.903 45.14C130.623 45.32 130.483 45.58 130.483 45.92C130.483 46.24 130.543 46.57 130.663 46.91H131.413C131.573 47.33 131.653 47.84 131.653 48.44C131.653 49.02 131.403 49.53 130.903 49.97C130.403 50.39 129.773 50.6 129.013 50.6C127.293 50.6 126.433 49.77 126.433 48.11C126.433 45.65 128.523 44.42 132.703 44.42C135.083 44.42 136.723 44.83 137.623 45.65C138.543 46.45 139.003 47.93 139.003 50.09V56.18C139.003 57.22 139.293 57.74 139.873 57.74C140.553 57.74 140.953 56.71 141.073 54.65L141.523 54.68C141.443 56.44 141.113 57.65 140.533 58.31C139.953 58.97 139.003 59.3 137.683 59.3C135.283 59.3 133.903 58.56 133.543 57.08C133.283 57.84 132.893 58.4 132.373 58.76C131.853 59.12 131.093 59.3 130.093 59.3C127.133 59.3 125.653 58.09 125.653 55.67C125.653 54.25 126.213 53.28 127.333 52.76C128.473 52.22 130.213 51.95 132.553 51.95ZM131.353 55.64C131.353 56.68 131.403 57.35 131.503 57.65C131.623 57.95 131.833 58.1 132.133 58.1C132.453 58.1 132.743 57.85 133.003 57.35C133.283 56.83 133.423 56.12 133.423 55.22V52.43H133.213C131.973 52.43 131.353 53.34 131.353 55.16V55.64ZM151.838 45.56C151.098 45.56 150.448 46.04 149.888 47C149.328 47.96 149.048 49.1 149.048 50.42V58.46H151.178V59H141.818V58.46H143.468V45.26H141.818V44.72H149.048V47.6C149.308 46.58 149.808 45.8 150.548 45.26C151.288 44.7 152.128 44.42 153.068 44.42C154.008 44.42 154.768 44.69 155.348 45.23C155.948 45.75 156.248 46.5 156.248 47.48C156.248 48.44 156.028 49.18 155.588 49.7C155.148 50.22 154.468 50.48 153.548 50.48C152.648 50.48 151.978 50.18 151.538 49.58C151.118 48.98 151.068 48.15 151.388 47.09H152.468C152.968 46.07 152.758 45.56 151.838 45.56ZM168.408 43.16L169.248 42.65C169.368 42.03 169.128 41.72 168.528 41.72C167.668 41.72 167.238 42.38 167.238 43.7C167.238 44.22 167.308 44.82 167.448 45.5C168.968 46.52 169.728 47.83 169.728 49.43C169.728 51.01 169.178 52.24 168.078 53.12C166.978 54 165.488 54.44 163.608 54.44C162.828 54.44 162.018 54.36 161.178 54.2C160.298 54.76 159.858 55.18 159.858 55.46C159.858 55.74 160.498 55.88 161.778 55.88H164.838C169.378 55.88 171.648 57.51 171.648 60.77C171.648 62.53 170.958 63.92 169.578 64.94C168.218 65.98 166.088 66.5 163.188 66.5C158.248 66.5 155.778 65.43 155.778 63.29C155.778 62.13 156.548 61.33 158.088 60.89L159.888 61.7C159.728 62.28 159.648 62.83 159.648 63.35C159.648 65.07 160.928 65.93 163.488 65.93C165.048 65.93 166.248 65.64 167.088 65.06C167.928 64.48 168.348 63.76 168.348 62.9C168.348 62.04 168.088 61.46 167.568 61.16C167.068 60.88 166.058 60.74 164.538 60.74H161.628C160.008 60.74 158.848 60.47 158.148 59.93C157.448 59.39 157.098 58.73 157.098 57.95C157.098 57.15 157.348 56.49 157.848 55.97C158.348 55.43 159.238 54.77 160.518 53.99C158.198 53.33 157.038 51.81 157.038 49.43C157.038 47.93 157.578 46.72 158.658 45.8C159.738 44.88 161.358 44.42 163.518 44.42C164.818 44.42 165.928 44.67 166.848 45.17C166.728 44.63 166.668 44.14 166.668 43.7C166.668 42.58 166.968 41.77 167.568 41.27C168.168 40.77 168.838 40.52 169.578 40.52C170.318 40.52 170.908 40.72 171.348 41.12C171.808 41.5 172.038 42.03 172.038 42.71C172.038 43.39 171.858 43.9 171.498 44.24C171.138 44.56 170.698 44.72 170.178 44.72C169.678 44.72 169.258 44.59 168.918 44.33C168.598 44.05 168.428 43.66 168.408 43.16ZM162.048 48.77V50.39C162.048 51.73 162.158 52.64 162.378 53.12C162.618 53.6 162.968 53.84 163.428 53.84C163.908 53.84 164.248 53.61 164.448 53.15C164.668 52.67 164.778 51.7 164.778 50.24V48.77C164.778 47.21 164.678 46.19 164.478 45.71C164.278 45.21 163.938 44.96 163.458 44.96C162.998 44.96 162.648 45.22 162.408 45.74C162.168 46.24 162.048 47.25 162.048 48.77ZM180.834 53.09V50.54C180.834 48.6 180.724 47.19 180.504 46.31C180.304 45.41 179.824 44.96 179.064 44.96C178.624 44.96 178.264 45.09 177.984 45.35C177.724 45.59 177.534 46 177.414 46.58C177.234 47.48 177.144 48.85 177.144 50.69V53.03C177.144 55.21 177.204 56.52 177.324 56.96C177.464 57.4 177.604 57.76 177.744 58.04C177.964 58.52 178.394 58.76 179.034 58.76C179.814 58.76 180.324 58.31 180.564 57.41C180.744 56.77 180.834 55.33 180.834 53.09ZM178.974 59.3C176.474 59.3 174.584 58.66 173.304 57.38C172.024 56.1 171.384 54.27 171.384 51.89C171.384 49.49 172.064 47.65 173.424 46.37C174.804 45.07 176.734 44.42 179.214 44.42C181.694 44.42 183.544 45.02 184.764 46.22C185.984 47.4 186.594 49.21 186.594 51.65C186.594 56.75 184.054 59.3 178.974 59.3ZM188.933 54.71V45.26H187.283V44.72H188.933V40.85L194.513 39.47V44.72H198.413V45.26H194.513V55.37C194.513 56.31 194.603 57 194.783 57.44C194.983 57.88 195.383 58.1 195.983 58.1C196.583 58.1 197.103 57.8 197.543 57.2C198.003 56.6 198.303 55.78 198.443 54.74L198.953 54.8C198.793 56.18 198.353 57.28 197.633 58.1C196.913 58.9 195.723 59.3 194.063 59.3C192.403 59.3 191.133 58.97 190.253 58.31C189.373 57.65 188.933 56.45 188.933 54.71ZM200.844 45.44L200.574 45.02C202.434 43.8 203.364 42.58 203.364 41.36C203.364 40.72 203.094 40.36 202.554 40.28L201.294 41.45C200.894 41.31 200.524 41.06 200.184 40.7C199.864 40.32 199.704 39.84 199.704 39.26C199.704 38.68 199.934 38.19 200.394 37.79C200.854 37.37 201.454 37.16 202.194 37.16C202.954 37.16 203.574 37.42 204.054 37.94C204.554 38.44 204.804 39.14 204.804 40.04C204.804 42 203.484 43.8 200.844 45.44ZM204.734 59.3V53.93H205.094C205.614 55.67 206.314 56.89 207.194 57.59C208.074 58.29 209.174 58.64 210.494 58.64C212.534 58.64 213.554 57.99 213.554 56.69C213.554 56.13 213.304 55.71 212.804 55.43C212.024 54.99 211.024 54.65 209.804 54.41C208.444 54.05 207.304 53.57 206.384 52.97C205.284 52.25 204.734 51.11 204.734 49.55C204.734 47.99 205.214 46.75 206.174 45.83C207.134 44.89 208.414 44.42 210.014 44.42C210.994 44.42 212.004 44.65 213.044 45.11C213.424 45.27 213.714 45.35 213.914 45.35C214.114 45.35 214.284 45.28 214.424 45.14C214.564 45 214.734 44.74 214.934 44.36H215.264V48.95H214.904C213.884 46.35 212.304 45.05 210.164 45.05C209.224 45.05 208.524 45.22 208.064 45.56C207.604 45.88 207.374 46.29 207.374 46.79C207.374 47.09 207.444 47.33 207.584 47.51C207.724 47.67 207.834 47.79 207.914 47.87C207.994 47.95 208.124 48.04 208.304 48.14C208.484 48.22 208.634 48.29 208.754 48.35C208.874 48.39 209.054 48.45 209.294 48.53C209.554 48.61 209.744 48.66 209.864 48.68C211.224 49.02 212.204 49.32 212.804 49.58C213.404 49.82 213.974 50.12 214.514 50.48C215.614 51.24 216.164 52.47 216.164 54.17C216.164 55.85 215.664 57.13 214.664 58.01C213.664 58.87 212.294 59.3 210.554 59.3C209.314 59.3 208.114 59.01 206.954 58.43C206.714 58.27 206.524 58.19 206.384 58.19C205.944 58.19 205.514 58.56 205.094 59.3H204.734ZM61.5665 72H70.5365C73.3165 72 75.3965 72.38 76.7765 73.14C78.1765 73.88 78.8765 75.14 78.8765 76.92C78.8765 79.66 77.2265 81.3 73.9265 81.84V81.9C77.9265 82.4 79.9265 84.14 79.9265 87.12C79.9265 89.3 79.1065 90.83 77.4665 91.71C75.8265 92.57 73.4665 93 70.3865 93H61.5665V92.43H63.5165V72.57H61.5665V72ZM69.3665 82.38V92.43H70.7765C71.8765 92.43 72.6465 92.05 73.0865 91.29C73.5265 90.53 73.7465 89.41 73.7465 87.93V86.34C73.7465 85.02 73.4765 84.03 72.9365 83.37C72.3965 82.71 71.4365 82.38 70.0565 82.38H69.3665ZM69.3665 72.57V81.81H70.1465C71.1865 81.81 71.9065 81.5 72.3065 80.88C72.7265 80.24 72.9365 79.27 72.9365 77.97V76.56C72.9365 75.08 72.7565 74.05 72.3965 73.47C72.0365 72.87 71.3465 72.57 70.3265 72.57H69.3665ZM98.5619 93H91.7219L91.3919 90.81C91.0719 91.61 90.5919 92.23 89.9519 92.67C89.3319 93.09 88.4019 93.3 87.1619 93.3C84.0619 93.3 82.5119 91.63 82.5119 88.29V79.26H80.8319V78.72H88.0919V89.01C88.0919 90.21 88.1719 91 88.3319 91.38C88.5119 91.76 88.8519 91.95 89.3519 91.95C89.8719 91.95 90.3319 91.64 90.7319 91.02C91.1319 90.4 91.3319 89.54 91.3319 88.44V79.26H89.9519V78.72H96.9119V92.46H98.5619V93ZM99.866 93.3V87.93H100.226C100.746 89.67 101.446 90.89 102.326 91.59C103.206 92.29 104.306 92.64 105.626 92.64C107.666 92.64 108.686 91.99 108.686 90.69C108.686 90.13 108.436 89.71 107.936 89.43C107.156 88.99 106.156 88.65 104.936 88.41C103.576 88.05 102.436 87.57 101.516 86.97C100.416 86.25 99.866 85.11 99.866 83.55C99.866 81.99 100.346 80.75 101.306 79.83C102.266 78.89 103.546 78.42 105.146 78.42C106.126 78.42 107.136 78.65 108.176 79.11C108.556 79.27 108.846 79.35 109.046 79.35C109.246 79.35 109.416 79.28 109.556 79.14C109.696 79 109.866 78.74 110.066 78.36H110.396V82.95H110.036C109.016 80.35 107.436 79.05 105.296 79.05C104.356 79.05 103.656 79.22 103.196 79.56C102.736 79.88 102.506 80.29 102.506 80.79C102.506 81.09 102.576 81.33 102.716 81.51C102.856 81.67 102.966 81.79 103.046 81.87C103.126 81.95 103.256 82.04 103.436 82.14C103.616 82.22 103.766 82.29 103.886 82.35C104.006 82.39 104.186 82.45 104.426 82.53C104.686 82.61 104.876 82.66 104.996 82.68C106.356 83.02 107.336 83.32 107.936 83.58C108.536 83.82 109.106 84.12 109.646 84.48C110.746 85.24 111.296 86.47 111.296 88.17C111.296 89.85 110.796 91.13 109.796 92.01C108.796 92.87 107.426 93.3 105.686 93.3C104.446 93.3 103.246 93.01 102.086 92.43C101.846 92.27 101.656 92.19 101.516 92.19C101.076 92.19 100.646 92.56 100.226 93.3H99.866ZM113.391 88.71V79.26H111.741V78.72H113.391V74.85L118.971 73.47V78.72H122.871V79.26H118.971V89.37C118.971 90.31 119.061 91 119.241 91.44C119.441 91.88 119.841 92.1 120.441 92.1C121.041 92.1 121.561 91.8 122.001 91.2C122.461 90.6 122.761 89.78 122.901 88.74L123.411 88.8C123.251 90.18 122.811 91.28 122.091 92.1C121.371 92.9 120.181 93.3 118.521 93.3C116.861 93.3 115.591 92.97 114.711 92.31C113.831 91.65 113.391 90.45 113.391 88.71ZM123.577 70.5H130.927V92.46H132.607V93H123.697V92.46H125.347V71.04H123.577V70.5ZM137.6 76.65C136.54 76.65 135.78 76.38 135.32 75.84C134.88 75.3 134.66 74.63 134.66 73.83C134.66 73.03 134.9 72.37 135.38 71.85C135.88 71.33 136.63 71.07 137.63 71.07C138.63 71.07 139.39 71.31 139.91 71.79C140.43 72.25 140.69 72.92 140.69 73.8C140.69 74.66 140.44 75.35 139.94 75.87C139.44 76.39 138.66 76.65 137.6 76.65ZM133.07 78.72H140.42V92.46H142.1V93H133.19V92.46H134.84V79.26H133.07V78.72ZM142.771 78.72H150.001V81.48C150.321 80.56 150.811 79.82 151.471 79.26C152.131 78.7 153.131 78.42 154.471 78.42C157.571 78.42 159.121 80.09 159.121 83.43V92.46H160.801V93H152.311V92.46H153.541V82.71C153.541 81.51 153.461 80.74 153.301 80.4C153.141 80.04 152.851 79.86 152.431 79.86C151.791 79.86 151.221 80.28 150.721 81.12C150.241 81.96 150.001 82.98 150.001 84.18V92.46H151.291V93H142.771V92.46H144.421V79.26H142.771V78.72ZM173.227 77.16L174.067 76.65C174.187 76.03 173.947 75.72 173.347 75.72C172.487 75.72 172.057 76.38 172.057 77.7C172.057 78.22 172.127 78.82 172.267 79.5C173.787 80.52 174.547 81.83 174.547 83.43C174.547 85.01 173.997 86.24 172.897 87.12C171.797 88 170.307 88.44 168.427 88.44C167.647 88.44 166.837 88.36 165.997 88.2C165.117 88.76 164.677 89.18 164.677 89.46C164.677 89.74 165.317 89.88 166.597 89.88H169.657C174.197 89.88 176.467 91.51 176.467 94.77C176.467 96.53 175.777 97.92 174.397 98.94C173.037 99.98 170.907 100.5 168.007 100.5C163.067 100.5 160.597 99.43 160.597 97.29C160.597 96.13 161.367 95.33 162.907 94.89L164.707 95.7C164.547 96.28 164.467 96.83 164.467 97.35C164.467 99.07 165.747 99.93 168.307 99.93C169.867 99.93 171.067 99.64 171.907 99.06C172.747 98.48 173.167 97.76 173.167 96.9C173.167 96.04 172.907 95.46 172.387 95.16C171.887 94.88 170.877 94.74 169.357 94.74H166.447C164.827 94.74 163.667 94.47 162.967 93.93C162.267 93.39 161.917 92.73 161.917 91.95C161.917 91.15 162.167 90.49 162.667 89.97C163.167 89.43 164.057 88.77 165.337 87.99C163.017 87.33 161.857 85.81 161.857 83.43C161.857 81.93 162.397 80.72 163.477 79.8C164.557 78.88 166.177 78.42 168.337 78.42C169.637 78.42 170.747 78.67 171.667 79.17C171.547 78.63 171.487 78.14 171.487 77.7C171.487 76.58 171.787 75.77 172.387 75.27C172.987 74.77 173.657 74.52 174.397 74.52C175.137 74.52 175.727 74.72 176.167 75.12C176.627 75.5 176.857 76.03 176.857 76.71C176.857 77.39 176.677 77.9 176.317 78.24C175.957 78.56 175.517 78.72 174.997 78.72C174.497 78.72 174.077 78.59 173.737 78.33C173.417 78.05 173.247 77.66 173.227 77.16ZM166.867 82.77V84.39C166.867 85.73 166.977 86.64 167.197 87.12C167.437 87.6 167.787 87.84 168.247 87.84C168.727 87.84 169.067 87.61 169.267 87.15C169.487 86.67 169.597 85.7 169.597 84.24V82.77C169.597 81.21 169.497 80.19 169.297 79.71C169.097 79.21 168.757 78.96 168.277 78.96C167.817 78.96 167.467 79.22 167.227 79.74C166.987 80.24 166.867 81.25 166.867 82.77ZM182.592 72H191.562C194.342 72 196.422 72.38 197.802 73.14C199.202 73.88 199.902 75.14 199.902 76.92C199.902 79.66 198.252 81.3 194.952 81.84V81.9C198.952 82.4 200.952 84.14 200.952 87.12C200.952 89.3 200.132 90.83 198.492 91.71C196.852 92.57 194.492 93 191.412 93H182.592V92.43H184.542V72.57H182.592V72ZM190.392 82.38V92.43H191.802C192.902 92.43 193.672 92.05 194.112 91.29C194.552 90.53 194.772 89.41 194.772 87.93V86.34C194.772 85.02 194.502 84.03 193.962 83.37C193.422 82.71 192.462 82.38 191.082 82.38H190.392ZM190.392 72.57V81.81H191.172C192.212 81.81 192.932 81.5 193.332 80.88C193.752 80.24 193.962 79.27 193.962 77.97V76.56C193.962 75.08 193.782 74.05 193.422 73.47C193.062 72.87 192.372 72.57 191.352 72.57H190.392ZM212.057 79.56C211.317 79.56 210.667 80.04 210.107 81C209.547 81.96 209.267 83.1 209.267 84.42V92.46H211.397V93H202.037V92.46H203.687V79.26H202.037V78.72H209.267V81.6C209.527 80.58 210.027 79.8 210.767 79.26C211.507 78.7 212.347 78.42 213.287 78.42C214.227 78.42 214.987 78.69 215.567 79.23C216.167 79.75 216.467 80.5 216.467 81.48C216.467 82.44 216.247 83.18 215.807 83.7C215.367 84.22 214.687 84.48 213.767 84.48C212.867 84.48 212.197 84.18 211.757 83.58C211.337 82.98 211.287 82.15 211.607 81.09H212.687C213.187 80.07 212.977 79.56 212.057 79.56ZM221.301 76.65C220.241 76.65 219.481 76.38 219.021 75.84C218.581 75.3 218.361 74.63 218.361 73.83C218.361 73.03 218.601 72.37 219.081 71.85C219.581 71.33 220.331 71.07 221.331 71.07C222.331 71.07 223.091 71.31 223.611 71.79C224.131 72.25 224.391 72.92 224.391 73.8C224.391 74.66 224.141 75.35 223.641 75.87C223.141 76.39 222.361 76.65 221.301 76.65ZM216.771 78.72H224.121V92.46H225.801V93H216.891V92.46H218.541V79.26H216.771V78.72ZM233.612 85.95H234.482V83.64C234.482 81.74 234.372 80.47 234.152 79.83C233.952 79.17 233.552 78.84 232.952 78.84C232.592 78.84 232.262 78.94 231.962 79.14C231.682 79.32 231.542 79.58 231.542 79.92C231.542 80.24 231.602 80.57 231.722 80.91H232.472C232.632 81.33 232.712 81.84 232.712 82.44C232.712 83.02 232.462 83.53 231.962 83.97C231.462 84.39 230.832 84.6 230.072 84.6C228.352 84.6 227.492 83.77 227.492 82.11C227.492 79.65 229.582 78.42 233.762 78.42C236.142 78.42 237.782 78.83 238.682 79.65C239.602 80.45 240.062 81.93 240.062 84.09V90.18C240.062 91.22 240.352 91.74 240.932 91.74C241.612 91.74 242.012 90.71 242.132 88.65L242.582 88.68C242.502 90.44 242.172 91.65 241.592 92.31C241.012 92.97 240.062 93.3 238.742 93.3C236.342 93.3 234.962 92.56 234.602 91.08C234.342 91.84 233.952 92.4 233.432 92.76C232.912 93.12 232.152 93.3 231.152 93.3C228.192 93.3 226.712 92.09 226.712 89.67C226.712 88.25 227.272 87.28 228.392 86.76C229.532 86.22 231.272 85.95 233.612 85.95ZM232.412 89.64C232.412 90.68 232.462 91.35 232.562 91.65C232.682 91.95 232.892 92.1 233.192 92.1C233.512 92.1 233.802 91.85 234.062 91.35C234.342 90.83 234.482 90.12 234.482 89.22V86.43H234.272C233.032 86.43 232.412 87.34 232.412 89.16V89.64ZM242.937 78.72H250.167V81.48C250.487 80.56 250.977 79.82 251.637 79.26C252.297 78.7 253.297 78.42 254.637 78.42C257.737 78.42 259.287 80.09 259.287 83.43V92.46H260.967V93H252.477V92.46H253.707V82.71C253.707 81.51 253.627 80.74 253.467 80.4C253.307 80.04 253.017 79.86 252.597 79.86C251.957 79.86 251.387 80.28 250.887 81.12C250.407 81.96 250.167 82.98 250.167 84.18V92.46H251.457V93H242.937V92.46H244.587V79.26H242.937V78.72Z" fill="#1C2122"/>
<path d="M64.5712 114L68.5072 103.696H70.4592L74.3632 114H72.5712L71.5472 111.344H67.4032L66.3792 114H64.5712ZM67.6752 110H71.2592L69.4672 105.28L67.6752 110ZM76.0783 114V106.416H77.6783L77.7583 107.216C78.0996 106.949 78.505 106.725 78.9743 106.544C79.4543 106.352 79.9823 106.256 80.5583 106.256C81.5396 106.256 82.2543 106.485 82.7023 106.944C83.1503 107.403 83.3743 108.117 83.3743 109.088V114H81.6463V109.168C81.6463 108.581 81.5236 108.171 81.2783 107.936C81.0436 107.701 80.5956 107.584 79.9343 107.584C79.5396 107.584 79.1503 107.664 78.7663 107.824C78.393 107.984 78.0783 108.192 77.8223 108.448V114H76.0783ZM85.9683 104.832V103.392H87.8723V104.832H85.9683ZM86.1123 114V107.744H84.9603L85.1203 106.416H87.8563V114H86.1123ZM89.8908 114V106.416H91.4908L91.5708 107.216C91.9441 106.917 92.3548 106.683 92.8028 106.512C93.2508 106.341 93.7308 106.256 94.2428 106.256C94.7868 106.256 95.2081 106.347 95.5068 106.528C95.8161 106.699 96.0508 106.939 96.2108 107.248C96.5628 106.96 96.9681 106.725 97.4268 106.544C97.8855 106.352 98.4348 106.256 99.0748 106.256C99.9495 106.256 100.595 106.48 101.011 106.928C101.427 107.376 101.635 108.064 101.635 108.992V114H99.9228V109.168C99.9228 108.581 99.8001 108.171 99.5548 107.936C99.3095 107.701 98.9095 107.584 98.3548 107.584C97.9921 107.584 97.6455 107.648 97.3148 107.776C96.9948 107.904 96.7175 108.096 96.4828 108.352C96.5148 108.469 96.5361 108.592 96.5468 108.72C96.5575 108.848 96.5628 108.987 96.5628 109.136V114H94.9468V109.184C94.9468 108.629 94.8508 108.224 94.6588 107.968C94.4668 107.712 94.1041 107.584 93.5708 107.584C93.1975 107.584 92.8401 107.675 92.4988 107.856C92.1681 108.027 91.8695 108.235 91.6028 108.48V114H89.8908ZM105.728 114.16C105.248 114.16 104.8 114.075 104.384 113.904C103.978 113.733 103.653 113.477 103.408 113.136C103.162 112.784 103.04 112.352 103.04 111.84C103.04 111.115 103.285 110.533 103.776 110.096C104.277 109.648 105.045 109.424 106.08 109.424H108.512V109.088C108.512 108.725 108.453 108.437 108.336 108.224C108.229 108.011 108.026 107.856 107.728 107.76C107.44 107.664 107.013 107.616 106.448 107.616C105.552 107.616 104.714 107.749 103.936 108.016V106.72C104.277 106.581 104.693 106.469 105.184 106.384C105.674 106.299 106.202 106.256 106.768 106.256C107.877 106.256 108.72 106.48 109.296 106.928C109.882 107.376 110.176 108.107 110.176 109.12V114H108.688L108.576 113.232C108.266 113.531 107.882 113.76 107.424 113.92C106.976 114.08 106.41 114.16 105.728 114.16ZM106.192 112.912C106.714 112.912 107.168 112.827 107.552 112.656C107.946 112.475 108.266 112.235 108.512 111.936V110.608H106.112C105.6 110.608 105.226 110.709 104.992 110.912C104.768 111.104 104.656 111.403 104.656 111.808C104.656 112.203 104.789 112.485 105.056 112.656C105.322 112.827 105.701 112.912 106.192 112.912ZM115.006 114.16C114.195 114.16 113.587 113.947 113.182 113.52C112.787 113.083 112.59 112.491 112.59 111.744V107.776H111.47V106.416H112.59V104.672L114.318 104.144V106.416H116.334L116.222 107.776H114.318V111.648C114.318 112.085 114.419 112.395 114.622 112.576C114.824 112.747 115.155 112.832 115.614 112.832C115.902 112.832 116.206 112.779 116.526 112.672V113.904C116.11 114.075 115.603 114.16 115.006 114.16ZM118.5 104.832V103.392H120.404V104.832H118.5ZM118.644 114V107.744H117.492L117.652 106.416H120.388V114H118.644ZM126.054 114.16C124.689 114.16 123.686 113.819 123.046 113.136C122.417 112.453 122.102 111.477 122.102 110.208C122.102 108.939 122.422 107.963 123.062 107.28C123.702 106.597 124.699 106.256 126.054 106.256C127.419 106.256 128.422 106.597 129.062 107.28C129.702 107.963 130.022 108.939 130.022 110.208C130.022 111.477 129.702 112.453 129.062 113.136C128.433 113.819 127.43 114.16 126.054 114.16ZM126.054 112.688C126.854 112.688 127.419 112.496 127.75 112.112C128.091 111.717 128.262 111.083 128.262 110.208C128.262 109.333 128.091 108.704 127.75 108.32C127.419 107.936 126.854 107.744 126.054 107.744C125.265 107.744 124.699 107.936 124.358 108.32C124.027 108.704 123.862 109.333 123.862 110.208C123.862 111.083 124.027 111.717 124.358 112.112C124.699 112.496 125.265 112.688 126.054 112.688ZM131.719 114V106.416H133.319L133.399 107.216C133.74 106.949 134.146 106.725 134.615 106.544C135.095 106.352 135.623 106.256 136.199 106.256C137.18 106.256 137.895 106.485 138.343 106.944C138.791 107.403 139.015 108.117 139.015 109.088V114H137.287V109.168C137.287 108.581 137.164 108.171 136.919 107.936C136.684 107.701 136.236 107.584 135.575 107.584C135.18 107.584 134.791 107.664 134.407 107.824C134.034 107.984 133.719 108.192 133.463 108.448V114H131.719ZM148.016 114.16C146.907 114.16 146.016 113.92 145.344 113.44C144.672 112.949 144.336 112.299 144.336 111.488C144.336 110.763 144.55 110.149 144.976 109.648C145.414 109.147 146.006 108.693 146.752 108.288C146.336 107.915 146 107.547 145.744 107.184C145.499 106.821 145.376 106.395 145.376 105.904C145.376 105.232 145.616 104.672 146.096 104.224C146.576 103.765 147.238 103.536 148.08 103.536C148.912 103.536 149.563 103.755 150.032 104.192C150.512 104.619 150.752 105.189 150.752 105.904C150.752 106.459 150.619 106.933 150.352 107.328C150.086 107.723 149.659 108.112 149.072 108.496L151.44 110.912C151.611 110.549 151.696 110.123 151.696 109.632V109.36H153.024V109.664C153.024 110.069 152.971 110.469 152.864 110.864C152.758 111.248 152.614 111.584 152.432 111.872L153.728 113.184L152.672 114.144L151.52 112.992C151.126 113.397 150.63 113.696 150.032 113.888C149.435 114.069 148.763 114.16 148.016 114.16ZM147.984 107.744C148.443 107.445 148.784 107.179 149.008 106.944C149.232 106.709 149.344 106.389 149.344 105.984C149.344 105.611 149.243 105.317 149.04 105.104C148.848 104.88 148.528 104.768 148.08 104.768C147.622 104.768 147.291 104.885 147.088 105.12C146.886 105.355 146.784 105.643 146.784 105.984C146.784 106.315 146.88 106.613 147.072 106.88C147.275 107.136 147.579 107.424 147.984 107.744ZM148.016 112.944C149.083 112.944 149.899 112.64 150.464 112.032L147.792 109.328C147.195 109.573 146.747 109.867 146.448 110.208C146.16 110.539 146.016 110.955 146.016 111.456C146.016 111.947 146.203 112.32 146.576 112.576C146.95 112.821 147.43 112.944 148.016 112.944ZM162.151 114.16C160.818 114.16 159.746 113.989 158.935 113.648V112.112C159.394 112.283 159.885 112.421 160.407 112.528C160.941 112.635 161.469 112.688 161.991 112.688C162.813 112.688 163.426 112.592 163.831 112.4C164.247 112.208 164.455 111.824 164.455 111.248C164.455 110.896 164.37 110.613 164.199 110.4C164.029 110.187 163.746 110.005 163.351 109.856C162.957 109.696 162.413 109.531 161.719 109.36C160.61 109.072 159.831 108.709 159.383 108.272C158.935 107.824 158.711 107.211 158.711 106.432C158.711 105.525 159.042 104.816 159.703 104.304C160.365 103.792 161.351 103.536 162.663 103.536C163.261 103.536 163.821 103.579 164.343 103.664C164.877 103.749 165.293 103.845 165.591 103.952V105.488C164.781 105.179 163.885 105.024 162.903 105.024C162.135 105.024 161.538 105.125 161.111 105.328C160.685 105.531 160.471 105.899 160.471 106.432C160.471 106.741 160.546 106.992 160.695 107.184C160.845 107.376 161.101 107.541 161.463 107.68C161.837 107.819 162.349 107.973 162.999 108.144C163.842 108.357 164.493 108.613 164.951 108.912C165.421 109.2 165.746 109.541 165.927 109.936C166.119 110.32 166.215 110.757 166.215 111.248C166.215 112.155 165.879 112.869 165.207 113.392C164.535 113.904 163.517 114.16 162.151 114.16ZM171.538 114.16C170.173 114.16 169.17 113.819 168.53 113.136C167.901 112.453 167.586 111.477 167.586 110.208C167.586 108.939 167.906 107.963 168.546 107.28C169.186 106.597 170.184 106.256 171.538 106.256C172.904 106.256 173.906 106.597 174.546 107.28C175.186 107.963 175.506 108.939 175.506 110.208C175.506 111.477 175.186 112.453 174.546 113.136C173.917 113.819 172.914 114.16 171.538 114.16ZM171.538 112.688C172.338 112.688 172.904 112.496 173.234 112.112C173.576 111.717 173.746 111.083 173.746 110.208C173.746 109.333 173.576 108.704 173.234 108.32C172.904 107.936 172.338 107.744 171.538 107.744C170.749 107.744 170.184 107.936 169.842 108.32C169.512 108.704 169.346 109.333 169.346 110.208C169.346 111.083 169.512 111.717 169.842 112.112C170.184 112.496 170.749 112.688 171.538 112.688ZM179.939 114.16C179.033 114.16 178.334 113.909 177.843 113.408C177.363 112.907 177.123 112.171 177.123 111.2V106.416H178.867V111.2C178.867 111.765 179.006 112.181 179.283 112.448C179.561 112.715 179.987 112.848 180.563 112.848C180.99 112.848 181.385 112.768 181.747 112.608C182.11 112.448 182.425 112.235 182.691 111.968V106.416H184.419V114H182.835L182.755 113.216C182.414 113.483 182.009 113.707 181.539 113.888C181.07 114.069 180.537 114.16 179.939 114.16ZM186.453 114V106.416H188.053L188.133 107.216C188.475 106.949 188.88 106.725 189.349 106.544C189.829 106.352 190.357 106.256 190.933 106.256C191.915 106.256 192.629 106.485 193.077 106.944C193.525 107.403 193.749 108.117 193.749 109.088V114H192.021V109.168C192.021 108.581 191.899 108.171 191.653 107.936C191.419 107.701 190.971 107.584 190.309 107.584C189.915 107.584 189.525 107.664 189.141 107.824C188.768 107.984 188.453 108.192 188.197 108.448V114H186.453ZM198.683 114.16C198 114.16 197.398 114.043 196.875 113.808C196.352 113.573 195.947 113.184 195.659 112.64C195.371 112.096 195.227 111.365 195.227 110.448C195.227 109.541 195.382 108.779 195.691 108.16C196 107.531 196.427 107.056 196.971 106.736C197.526 106.416 198.15 106.256 198.843 106.256C199.302 106.256 199.707 106.309 200.059 106.416C200.422 106.523 200.768 106.688 201.099 106.912V103.216H202.843V114H201.355L201.243 113.248C200.902 113.557 200.528 113.787 200.123 113.936C199.718 114.085 199.238 114.16 198.683 114.16ZM199.147 112.848C199.926 112.848 200.576 112.581 201.099 112.048V108.256C200.598 107.808 199.968 107.584 199.211 107.584C198.475 107.584 197.92 107.829 197.547 108.32C197.174 108.811 196.987 109.525 196.987 110.464C196.987 111.371 197.158 111.995 197.499 112.336C197.851 112.677 198.4 112.848 199.147 112.848ZM208.547 114V103.696H212.723C214.248 103.696 215.379 104.101 216.115 104.912C216.851 105.712 217.219 107.045 217.219 108.912C217.219 110.672 216.856 111.963 216.131 112.784C215.406 113.595 214.27 114 212.723 114H208.547ZM210.291 112.656H212.451C213.123 112.656 213.683 112.56 214.131 112.368C214.579 112.165 214.915 111.792 215.139 111.248C215.363 110.704 215.475 109.925 215.475 108.912C215.475 107.899 215.374 107.115 215.171 106.56C214.968 106.005 214.643 105.616 214.195 105.392C213.758 105.168 213.176 105.056 212.451 105.056H210.291V112.656ZM222.778 114.16C221.455 114.16 220.431 113.835 219.706 113.184C218.98 112.533 218.618 111.536 218.618 110.192C218.618 108.976 218.927 108.016 219.546 107.312C220.164 106.608 221.103 106.256 222.362 106.256C223.514 106.256 224.378 106.56 224.954 107.168C225.54 107.765 225.834 108.539 225.834 109.488V110.896H220.282C220.367 111.632 220.634 112.139 221.082 112.416C221.53 112.693 222.212 112.832 223.13 112.832C223.514 112.832 223.908 112.795 224.314 112.72C224.719 112.645 225.071 112.549 225.37 112.432V113.712C225.028 113.861 224.634 113.973 224.186 114.048C223.748 114.123 223.279 114.16 222.778 114.16ZM220.282 109.76H224.298V109.232C224.298 108.709 224.154 108.304 223.866 108.016C223.578 107.717 223.092 107.568 222.41 107.568C221.599 107.568 221.039 107.744 220.73 108.096C220.431 108.448 220.282 109.003 220.282 109.76ZM229.981 114.16C229.459 114.16 228.957 114.123 228.477 114.048C228.008 113.973 227.619 113.883 227.309 113.776V112.304C227.672 112.443 228.072 112.549 228.509 112.624C228.947 112.699 229.363 112.736 229.757 112.736C230.355 112.736 230.781 112.683 231.037 112.576C231.293 112.469 231.421 112.261 231.421 111.952C231.421 111.728 231.341 111.552 231.181 111.424C231.032 111.296 230.803 111.179 230.493 111.072C230.195 110.965 229.811 110.837 229.341 110.688C228.893 110.539 228.504 110.379 228.173 110.208C227.843 110.027 227.587 109.797 227.405 109.52C227.224 109.243 227.133 108.88 227.133 108.432C227.133 107.739 227.384 107.205 227.885 106.832C228.387 106.448 229.192 106.256 230.301 106.256C230.739 106.256 231.155 106.288 231.549 106.352C231.944 106.416 232.28 106.496 232.557 106.592V108.048C232.259 107.931 231.928 107.84 231.565 107.776C231.213 107.712 230.883 107.68 230.573 107.68C230.019 107.68 229.597 107.728 229.309 107.824C229.032 107.92 228.893 108.112 228.893 108.4C228.893 108.699 229.037 108.912 229.325 109.04C229.624 109.157 230.099 109.323 230.749 109.536C231.347 109.717 231.821 109.909 232.173 110.112C232.525 110.315 232.776 110.56 232.925 110.848C233.085 111.125 233.165 111.488 233.165 111.936C233.165 112.683 232.893 113.243 232.349 113.616C231.805 113.979 231.016 114.16 229.981 114.16ZM235.515 104.832V103.392H237.419V104.832H235.515ZM235.659 114V107.744H234.507L234.667 106.416H237.403V114H235.659ZM242.51 116.816C241.944 116.816 241.379 116.779 240.814 116.704C240.248 116.64 239.768 116.539 239.374 116.4V115.056C239.8 115.195 240.291 115.301 240.846 115.376C241.4 115.451 241.928 115.488 242.43 115.488C243.198 115.488 243.758 115.445 244.11 115.36C244.462 115.275 244.638 115.083 244.638 114.784C244.638 114.56 244.552 114.4 244.382 114.304C244.211 114.219 243.886 114.176 243.406 114.176H241.358C239.982 114.176 239.294 113.691 239.294 112.72C239.294 112.411 239.384 112.123 239.566 111.856C239.747 111.589 240.035 111.387 240.43 111.248C239.992 111.035 239.667 110.741 239.454 110.368C239.251 109.995 239.15 109.547 239.15 109.024C239.15 108.053 239.438 107.349 240.014 106.912C240.6 106.475 241.475 106.256 242.638 106.256C242.883 106.256 243.139 106.277 243.406 106.32C243.672 106.352 243.88 106.384 244.03 106.416H246.814L246.766 107.552H245.486C245.688 107.723 245.838 107.936 245.934 108.192C246.03 108.448 246.078 108.725 246.078 109.024C246.078 109.835 245.832 110.475 245.342 110.944C244.851 111.403 244.11 111.632 243.118 111.632C242.947 111.632 242.787 111.627 242.638 111.616C242.499 111.595 242.344 111.573 242.174 111.552C241.854 111.584 241.566 111.669 241.31 111.808C241.054 111.947 240.926 112.133 240.926 112.368C240.926 112.528 240.99 112.645 241.118 112.72C241.246 112.784 241.459 112.816 241.758 112.816H243.886C244.643 112.816 245.224 112.981 245.63 113.312C246.046 113.632 246.254 114.101 246.254 114.72C246.254 115.467 245.928 116 245.278 116.32C244.638 116.651 243.715 116.816 242.51 116.816ZM242.638 110.528C243.331 110.528 243.811 110.411 244.078 110.176C244.355 109.941 244.494 109.541 244.494 108.976C244.494 108.411 244.355 108 244.078 107.744C243.811 107.488 243.331 107.36 242.638 107.36C241.987 107.36 241.512 107.483 241.214 107.728C240.915 107.973 240.766 108.389 240.766 108.976C240.766 109.52 240.904 109.915 241.182 110.16C241.47 110.405 241.955 110.528 242.638 110.528ZM247.891 114V106.416H249.491L249.571 107.216C249.912 106.949 250.317 106.725 250.787 106.544C251.267 106.352 251.795 106.256 252.371 106.256C253.352 106.256 254.067 106.485 254.515 106.944C254.963 107.403 255.187 108.117 255.187 109.088V114H253.459V109.168C253.459 108.581 253.336 108.171 253.091 107.936C252.856 107.701 252.408 107.584 251.747 107.584C251.352 107.584 250.963 107.664 250.579 107.824C250.205 107.984 249.891 108.192 249.635 108.448V114H247.891Z" fill="white"/>
</svg>
