<svg width="320" height="320" viewBox="0 0 320 320" fill="none" xmlns="http://www.w3.org/2000/svg">
<circle cx="160" cy="160" r="160" fill="#A375D2"/>
<path d="M93.6633 59V38.392H102.591C104.682 38.392 106.442 38.744 107.871 39.448C109.301 40.1307 110.389 41.24 111.135 42.776C111.882 44.2907 112.255 46.3067 112.255 48.824C112.255 52.3653 111.434 54.9467 109.791 56.568C108.17 58.1893 105.77 59 102.591 59H93.6633ZM98.8153 55.032H101.887C102.997 55.032 103.925 54.872 104.671 54.552C105.439 54.2107 106.015 53.592 106.399 52.696C106.805 51.8 107.007 50.5093 107.007 48.824C107.007 47.1173 106.826 45.8053 106.463 44.888C106.122 43.9493 105.567 43.2987 104.799 42.936C104.053 42.552 103.082 42.36 101.887 42.36H98.8153V55.032ZM114.882 59V43.832H119.778L119.938 45.24C120.599 44.8347 121.421 44.472 122.402 44.152C123.383 43.8107 124.365 43.5973 125.346 43.512V47.384C124.791 47.448 124.173 47.5547 123.49 47.704C122.829 47.832 122.189 47.992 121.57 48.184C120.973 48.376 120.461 48.5787 120.034 48.792V59H114.882ZM126.648 59V55.224H130.776V59H126.648ZM140.288 59V38.392H145.376L150.976 49.816L156.544 38.392H161.6V59H156.448V47.16L152.384 55.48H149.536L145.44 47.16V59H140.288ZM165.062 41.432V37.56H170.662V41.432H165.062ZM165.478 59V47.64H163.238L163.686 43.832H170.63V59H165.478ZM173.913 59V43.832H178.809L178.969 45.24C179.631 44.8347 180.452 44.472 181.433 44.152C182.415 43.8107 183.396 43.5973 184.377 43.512V47.384C183.823 47.448 183.204 47.5547 182.521 47.704C181.86 47.832 181.22 47.992 180.601 48.184C180.004 48.376 179.492 48.5787 179.065 48.792V59H173.913ZM186.32 59V43.832H191.216L191.376 45.24C192.037 44.8347 192.858 44.472 193.84 44.152C194.821 43.8107 195.802 43.5973 196.784 43.512V47.384C196.229 47.448 195.61 47.5547 194.928 47.704C194.266 47.832 193.626 47.992 193.008 48.184C192.41 48.376 191.898 48.5787 191.472 48.792V59H186.32ZM206.005 59.32C203.082 59.32 200.927 58.648 199.541 57.304C198.154 55.9387 197.461 53.976 197.461 51.416C197.461 48.8773 198.154 46.9253 199.541 45.56C200.949 44.1947 203.103 43.512 206.005 43.512C208.927 43.512 211.082 44.1947 212.469 45.56C213.877 46.9253 214.581 48.8773 214.581 51.416C214.581 53.976 213.887 55.9387 212.501 57.304C211.114 58.648 208.949 59.32 206.005 59.32ZM206.005 55.288C207.199 55.288 208.053 54.9893 208.565 54.392C209.077 53.7947 209.333 52.8027 209.333 51.416C209.333 50.0293 209.077 49.0373 208.565 48.44C208.053 47.8427 207.199 47.544 206.005 47.544C204.831 47.544 203.989 47.8427 203.477 48.44C202.965 49.0373 202.709 50.0293 202.709 51.416C202.709 52.8027 202.965 53.7947 203.477 54.392C203.989 54.9893 204.831 55.288 206.005 55.288ZM217.195 59V43.832H222.091L222.251 45.24C222.912 44.8347 223.733 44.472 224.715 44.152C225.696 43.8107 226.677 43.5973 227.659 43.512V47.384C227.104 47.448 226.485 47.5547 225.803 47.704C225.141 47.832 224.501 47.992 223.883 48.184C223.285 48.376 222.773 48.5787 222.347 48.792V59H217.195Z" fill="black"/>
<path d="M5.16 245.2C3.49333 245.2 2.15333 244.987 1.14 244.56V242.64C1.71333 242.853 2.32667 243.027 2.98 243.16C3.64667 243.293 4.30667 243.36 4.96 243.36C5.98667 243.36 6.75333 243.24 7.26 243C7.78 242.76 8.04 242.28 8.04 241.56C8.04 241.12 7.93333 240.767 7.72 240.5C7.50667 240.233 7.15333 240.007 6.66 239.82C6.16667 239.62 5.48667 239.413 4.62 239.2C3.23333 238.84 2.26 238.387 1.7 237.84C1.14 237.28 0.86 236.513 0.86 235.54C0.86 234.407 1.27333 233.52 2.1 232.88C2.92667 232.24 4.16 231.92 5.8 231.92C6.54667 231.92 7.24667 231.973 7.9 232.08C8.56667 232.187 9.08667 232.307 9.46 232.44V234.36C8.44667 233.973 7.32667 233.78 6.1 233.78C5.14 233.78 4.39333 233.907 3.86 234.16C3.32667 234.413 3.06 234.873 3.06 235.54C3.06 235.927 3.15333 236.24 3.34 236.48C3.52667 236.72 3.84667 236.927 4.3 237.1C4.76667 237.273 5.40667 237.467 6.22 237.68C7.27333 237.947 8.08667 238.267 8.66 238.64C9.24667 239 9.65333 239.427 9.88 239.92C10.12 240.4 10.24 240.947 10.24 241.56C10.24 242.693 9.82 243.587 8.98 244.24C8.14 244.88 6.86667 245.2 5.16 245.2ZM12.3538 245V235.52H14.3538L14.4538 236.52C14.9204 236.147 15.4338 235.853 15.9938 235.64C16.5538 235.427 17.1538 235.32 17.7938 235.32C18.4738 235.32 19.0004 235.433 19.3738 235.66C19.7604 235.873 20.0538 236.173 20.2538 236.56C20.6938 236.2 21.2004 235.907 21.7738 235.68C22.3471 235.44 23.0338 235.32 23.8338 235.32C24.9271 235.32 25.7338 235.6 26.2538 236.16C26.7738 236.72 27.0338 237.58 27.0338 238.74V245H24.8938V238.96C24.8938 238.227 24.7404 237.713 24.4338 237.42C24.1271 237.127 23.6271 236.98 22.9338 236.98C22.4804 236.98 22.0471 237.06 21.6338 237.22C21.2338 237.38 20.8871 237.62 20.5938 237.94C20.6338 238.087 20.6604 238.24 20.6738 238.4C20.6871 238.56 20.6938 238.733 20.6938 238.92V245H18.6738V238.98C18.6738 238.287 18.5538 237.78 18.3138 237.46C18.0738 237.14 17.6204 236.98 16.9538 236.98C16.4871 236.98 16.0404 237.093 15.6138 237.32C15.2004 237.533 14.8271 237.793 14.4938 238.1V245H12.3538ZM32.1497 245.2C31.5497 245.2 30.9897 245.093 30.4697 244.88C29.963 244.667 29.5564 244.347 29.2497 243.92C28.943 243.48 28.7897 242.94 28.7897 242.3C28.7897 241.393 29.0964 240.667 29.7097 240.12C30.3364 239.56 31.2964 239.28 32.5897 239.28H35.6297V238.86C35.6297 238.407 35.5564 238.047 35.4097 237.78C35.2764 237.513 35.023 237.32 34.6497 237.2C34.2897 237.08 33.7564 237.02 33.0497 237.02C31.9297 237.02 30.883 237.187 29.9097 237.52V235.9C30.3364 235.727 30.8564 235.587 31.4697 235.48C32.083 235.373 32.743 235.32 33.4497 235.32C34.8364 235.32 35.8897 235.6 36.6097 236.16C37.343 236.72 37.7097 237.633 37.7097 238.9V245H35.8497L35.7097 244.04C35.323 244.413 34.843 244.7 34.2697 244.9C33.7097 245.1 33.003 245.2 32.1497 245.2ZM32.7297 243.64C33.383 243.64 33.9497 243.533 34.4297 243.32C34.923 243.093 35.323 242.793 35.6297 242.42V240.76H32.6297C31.9897 240.76 31.523 240.887 31.2297 241.14C30.9497 241.38 30.8097 241.753 30.8097 242.26C30.8097 242.753 30.9764 243.107 31.3097 243.32C31.643 243.533 32.1164 243.64 32.7297 243.64ZM40.1272 245V235.52H42.1272L42.2472 236.62C42.7005 236.327 43.2405 236.06 43.8672 235.82C44.4939 235.58 45.1139 235.413 45.7272 235.32V236.98C45.3539 237.047 44.9472 237.147 44.5072 237.28C44.0805 237.4 43.6739 237.54 43.2872 237.7C42.9005 237.847 42.5739 238 42.3072 238.16V245H40.1272ZM50.9347 245.2C49.9214 245.2 49.1614 244.933 48.6547 244.4C48.1614 243.853 47.9147 243.113 47.9147 242.18V237.22H46.5147V235.52H47.9147V233.34L50.0747 232.68V235.52H52.5947L52.4547 237.22H50.0747V242.06C50.0747 242.607 50.2014 242.993 50.4547 243.22C50.708 243.433 51.1214 243.54 51.6947 243.54C52.0547 243.54 52.4347 243.473 52.8347 243.34V244.88C52.3147 245.093 51.6814 245.2 50.9347 245.2ZM59.1116 245V235.52H61.1116L61.2116 236.52C61.6782 236.147 62.1916 235.853 62.7516 235.64C63.3116 235.427 63.9116 235.32 64.5516 235.32C65.2316 235.32 65.7582 235.433 66.1316 235.66C66.5182 235.873 66.8116 236.173 67.0116 236.56C67.4516 236.2 67.9582 235.907 68.5316 235.68C69.1049 235.44 69.7916 235.32 70.5916 235.32C71.6849 235.32 72.4916 235.6 73.0116 236.16C73.5316 236.72 73.7916 237.58 73.7916 238.74V245H71.6516V238.96C71.6516 238.227 71.4982 237.713 71.1916 237.42C70.8849 237.127 70.3849 236.98 69.6916 236.98C69.2382 236.98 68.8049 237.06 68.3916 237.22C67.9916 237.38 67.6449 237.62 67.3516 237.94C67.3916 238.087 67.4182 238.24 67.4316 238.4C67.4449 238.56 67.4516 238.733 67.4516 238.92V245H65.4316V238.98C65.4316 238.287 65.3116 237.78 65.0716 237.46C64.8316 237.14 64.3782 236.98 63.7116 236.98C63.2449 236.98 62.7982 237.093 62.3716 237.32C61.9582 237.533 61.5849 237.793 61.2516 238.1V245H59.1116ZM77.0405 233.54V231.74H79.4205V233.54H77.0405ZM77.2205 245V237.18H75.7805L75.9805 235.52H79.4005V245H77.2205ZM81.9436 245V235.52H83.9436L84.0636 236.62C84.5169 236.327 85.0569 236.06 85.6836 235.82C86.3103 235.58 86.9303 235.413 87.5436 235.32V236.98C87.1703 237.047 86.7636 237.147 86.3236 237.28C85.8969 237.4 85.4903 237.54 85.1036 237.7C84.7169 237.847 84.3903 238 84.1236 238.16V245H81.9436ZM89.1311 245V235.52H91.1311L91.2511 236.62C91.7044 236.327 92.2444 236.06 92.8711 235.82C93.4978 235.58 94.1178 235.413 94.7311 235.32V236.98C94.3578 237.047 93.9511 237.147 93.5111 237.28C93.0844 237.4 92.6778 237.54 92.2911 237.7C91.9044 237.847 91.5778 238 91.3111 238.16V245H89.1311ZM100.468 245.2C98.7613 245.2 97.508 244.773 96.708 243.92C95.9213 243.067 95.528 241.847 95.528 240.26C95.528 238.673 95.928 237.453 96.728 236.6C97.528 235.747 98.7746 235.32 100.468 235.32C102.175 235.32 103.428 235.747 104.228 236.6C105.028 237.453 105.428 238.673 105.428 240.26C105.428 241.847 105.028 243.067 104.228 243.92C103.441 244.773 102.188 245.2 100.468 245.2ZM100.468 243.36C101.468 243.36 102.175 243.12 102.588 242.64C103.015 242.147 103.228 241.353 103.228 240.26C103.228 239.167 103.015 238.38 102.588 237.9C102.175 237.42 101.468 237.18 100.468 237.18C99.4813 237.18 98.7746 237.42 98.348 237.9C97.9346 238.38 97.728 239.167 97.728 240.26C97.728 241.353 97.9346 242.147 98.348 242.64C98.7746 243.12 99.4813 243.36 100.468 243.36ZM107.549 245V235.52H109.549L109.669 236.62C110.122 236.327 110.662 236.06 111.289 235.82C111.916 235.58 112.536 235.413 113.149 235.32V236.98C112.776 237.047 112.369 237.147 111.929 237.28C111.502 237.4 111.096 237.54 110.709 237.7C110.322 237.847 109.996 238 109.729 238.16V245H107.549ZM1.84 275V267.22H0.46V265.52H1.84V264.36C1.84 263.413 2.1 262.653 2.62 262.08C3.15333 261.493 3.94 261.2 4.98 261.2C5.36667 261.2 5.72 261.233 6.04 261.3C6.36 261.353 6.65333 261.433 6.92 261.54V263.1C6.50667 262.953 6.08667 262.88 5.66 262.88C5.03333 262.88 4.6 262.993 4.36 263.22C4.12 263.447 4 263.833 4 264.38V265.52H6.48L6.38 267.22H4V275H1.84ZM12.3039 275.2C10.5972 275.2 9.34391 274.773 8.54391 273.92C7.75724 273.067 7.36391 271.847 7.36391 270.26C7.36391 268.673 7.76391 267.453 8.56391 266.6C9.36391 265.747 10.6106 265.32 12.3039 265.32C14.0106 265.32 15.2639 265.747 16.0639 266.6C16.8639 267.453 17.2639 268.673 17.2639 270.26C17.2639 271.847 16.8639 273.067 16.0639 273.92C15.2772 274.773 14.0239 275.2 12.3039 275.2ZM12.3039 273.36C13.3039 273.36 14.0106 273.12 14.4239 272.64C14.8506 272.147 15.0639 271.353 15.0639 270.26C15.0639 269.167 14.8506 268.38 14.4239 267.9C14.0106 267.42 13.3039 267.18 12.3039 267.18C11.3172 267.18 10.6106 267.42 10.1839 267.9C9.77057 268.38 9.56391 269.167 9.56391 270.26C9.56391 271.353 9.77057 272.147 10.1839 272.64C10.6106 273.12 11.3172 273.36 12.3039 273.36ZM19.385 275V265.52H21.385L21.505 266.62C21.9583 266.327 22.4983 266.06 23.125 265.82C23.7517 265.58 24.3717 265.413 24.985 265.32V266.98C24.6117 267.047 24.205 267.147 23.765 267.28C23.3383 267.4 22.9317 267.54 22.545 267.7C22.1583 267.847 21.8317 268 21.565 268.16V275H19.385ZM31.1819 275V262.12H37.4219C38.7019 262.12 39.6485 262.42 40.2619 263.02C40.8752 263.62 41.1819 264.467 41.1819 265.56C41.1819 266.253 41.0419 266.84 40.7619 267.32C40.4819 267.787 40.1085 268.14 39.6419 268.38C40.2685 268.553 40.7619 268.867 41.1219 269.32C41.4952 269.76 41.6819 270.413 41.6819 271.28C41.6819 272.533 41.3419 273.467 40.6619 274.08C39.9952 274.693 39.0085 275 37.7019 275H31.1819ZM33.3619 267.62H37.1219C37.8552 267.62 38.3752 267.453 38.6819 267.12C39.0019 266.773 39.1619 266.313 39.1619 265.74C39.1619 265.073 39.0019 264.58 38.6819 264.26C38.3619 263.927 37.7619 263.76 36.8819 263.76H33.3619V267.62ZM33.3619 273.4H37.2419C38.0152 273.4 38.5819 273.24 38.9419 272.92C39.3019 272.587 39.4819 272.013 39.4819 271.2C39.4819 270.533 39.3019 270.04 38.9419 269.72C38.5952 269.387 37.9552 269.22 37.0219 269.22H33.3619V273.4ZM43.7991 275V262.12H49.0191C50.9257 262.12 52.3391 262.627 53.2591 263.64C54.1791 264.64 54.6391 266.307 54.6391 268.64C54.6391 270.84 54.1857 272.453 53.2791 273.48C52.3724 274.493 50.9524 275 49.0191 275H43.7991ZM45.9791 273.32H48.6791C49.5191 273.32 50.2191 273.2 50.7791 272.96C51.3391 272.707 51.7591 272.24 52.0391 271.56C52.3191 270.88 52.4591 269.907 52.4591 268.64C52.4591 267.373 52.3324 266.393 52.0791 265.7C51.8257 265.007 51.4191 264.52 50.8591 264.24C50.3124 263.96 49.5857 263.82 48.6791 263.82H45.9791V273.32ZM56.7873 275V262.12H62.0073C63.914 262.12 65.3273 262.627 66.2473 263.64C67.1673 264.64 67.6273 266.307 67.6273 268.64C67.6273 270.84 67.174 272.453 66.2673 273.48C65.3607 274.493 63.9407 275 62.0073 275H56.7873ZM58.9673 273.32H61.6673C62.5073 273.32 63.2073 273.2 63.7673 272.96C64.3273 272.707 64.7473 272.24 65.0273 271.56C65.3073 270.88 65.4473 269.907 65.4473 268.64C65.4473 267.373 65.3207 266.393 65.0673 265.7C64.814 265.007 64.4073 264.52 63.8473 264.24C63.3007 263.96 62.574 263.82 61.6673 263.82H58.9673V273.32ZM74.385 279.32V265.52H76.265L76.385 266.46C76.8117 266.073 77.2783 265.787 77.785 265.6C78.2917 265.413 78.8917 265.32 79.585 265.32C80.945 265.32 82.005 265.693 82.765 266.44C83.525 267.173 83.905 268.393 83.905 270.1C83.905 271.807 83.5117 273.087 82.725 273.94C81.9383 274.78 80.865 275.2 79.505 275.2C78.3583 275.2 77.3783 274.933 76.565 274.4V279.32H74.385ZM78.945 273.56C80.785 273.56 81.705 272.4 81.705 270.08C81.705 268.96 81.4983 268.167 81.085 267.7C80.6717 267.22 79.9783 266.98 79.005 266.98C78.0317 266.98 77.2183 267.313 76.565 267.98V272.72C76.8717 272.973 77.2117 273.18 77.585 273.34C77.9717 273.487 78.425 273.56 78.945 273.56ZM88.9856 275.2C88.3856 275.2 87.8256 275.093 87.3056 274.88C86.799 274.667 86.3923 274.347 86.0856 273.92C85.779 273.48 85.6256 272.94 85.6256 272.3C85.6256 271.393 85.9323 270.667 86.5456 270.12C87.1723 269.56 88.1323 269.28 89.4256 269.28H92.4656V268.86C92.4656 268.407 92.3923 268.047 92.2456 267.78C92.1123 267.513 91.859 267.32 91.4856 267.2C91.1256 267.08 90.5923 267.02 89.8856 267.02C88.7656 267.02 87.719 267.187 86.7456 267.52V265.9C87.1723 265.727 87.6923 265.587 88.3056 265.48C88.919 265.373 89.579 265.32 90.2856 265.32C91.6723 265.32 92.7256 265.6 93.4456 266.16C94.179 266.72 94.5456 267.633 94.5456 268.9V275H92.6856L92.5456 274.04C92.159 274.413 91.679 274.7 91.1056 274.9C90.5456 275.1 89.839 275.2 88.9856 275.2ZM89.5656 273.64C90.219 273.64 90.7856 273.533 91.2656 273.32C91.759 273.093 92.159 272.793 92.4656 272.42V270.76H89.4656C88.8256 270.76 88.359 270.887 88.0656 271.14C87.7856 271.38 87.6456 271.753 87.6456 272.26C87.6456 272.753 87.8123 273.107 88.1456 273.32C88.479 273.533 88.9523 273.64 89.5656 273.64ZM100.583 275.2C99.5698 275.2 98.8098 274.933 98.3031 274.4C97.8098 273.853 97.5631 273.113 97.5631 272.18V267.22H96.1631V265.52H97.5631V263.34L99.7231 262.68V265.52H102.243L102.103 267.22H99.7231V272.06C99.7231 272.607 99.8498 272.993 100.103 273.22C100.356 273.433 100.77 273.54 101.343 273.54C101.703 273.54 102.083 273.473 102.483 273.34V274.88C101.963 275.093 101.33 275.2 100.583 275.2ZM104.951 263.54V261.74H107.331V263.54H104.951ZM105.131 275V267.18H103.691L103.891 265.52H107.311V275H105.131ZM114.654 275.2C113 275.2 111.72 274.793 110.814 273.98C109.907 273.167 109.454 271.92 109.454 270.24C109.454 268.72 109.84 267.52 110.614 266.64C111.387 265.76 112.56 265.32 114.134 265.32C115.574 265.32 116.654 265.7 117.374 266.46C118.107 267.207 118.474 268.173 118.474 269.36V271.12H111.534C111.64 272.04 111.974 272.673 112.534 273.02C113.094 273.367 113.947 273.54 115.094 273.54C115.574 273.54 116.067 273.493 116.574 273.4C117.08 273.307 117.52 273.187 117.894 273.04V274.64C117.467 274.827 116.974 274.967 116.414 275.06C115.867 275.153 115.28 275.2 114.654 275.2ZM111.534 269.7H116.554V269.04C116.554 268.387 116.374 267.88 116.014 267.52C115.654 267.147 115.047 266.96 114.194 266.96C113.18 266.96 112.48 267.18 112.094 267.62C111.72 268.06 111.534 268.753 111.534 269.7ZM120.596 275V265.52H122.596L122.696 266.52C123.123 266.187 123.629 265.907 124.216 265.68C124.816 265.44 125.476 265.32 126.196 265.32C127.423 265.32 128.316 265.607 128.876 266.18C129.436 266.753 129.716 267.647 129.716 268.86V275H127.556V268.96C127.556 268.227 127.403 267.713 127.096 267.42C126.803 267.127 126.243 266.98 125.416 266.98C124.923 266.98 124.436 267.08 123.956 267.28C123.489 267.48 123.096 267.74 122.776 268.06V275H120.596ZM135.778 275.2C134.765 275.2 134.005 274.933 133.498 274.4C133.005 273.853 132.758 273.113 132.758 272.18V267.22H131.358V265.52H132.758V263.34L134.918 262.68V265.52H137.438L137.298 267.22H134.918V272.06C134.918 272.607 135.045 272.993 135.298 273.22C135.552 273.433 135.965 273.54 136.538 273.54C136.898 273.54 137.278 273.473 137.678 273.34V274.88C137.158 275.093 136.525 275.2 135.778 275.2ZM142.506 275.2C141.853 275.2 141.226 275.153 140.626 275.06C140.039 274.967 139.553 274.853 139.166 274.72V272.88C139.619 273.053 140.119 273.187 140.666 273.28C141.213 273.373 141.733 273.42 142.226 273.42C142.973 273.42 143.506 273.353 143.826 273.22C144.146 273.087 144.306 272.827 144.306 272.44C144.306 272.16 144.206 271.94 144.006 271.78C143.819 271.62 143.533 271.473 143.146 271.34C142.773 271.207 142.293 271.047 141.706 270.86C141.146 270.673 140.659 270.473 140.246 270.26C139.833 270.033 139.513 269.747 139.286 269.4C139.059 269.053 138.946 268.6 138.946 268.04C138.946 267.173 139.259 266.507 139.886 266.04C140.513 265.56 141.519 265.32 142.906 265.32C143.453 265.32 143.973 265.36 144.466 265.44C144.959 265.52 145.379 265.62 145.726 265.74V267.56C145.353 267.413 144.939 267.3 144.486 267.22C144.046 267.14 143.633 267.1 143.246 267.1C142.553 267.1 142.026 267.16 141.666 267.28C141.319 267.4 141.146 267.64 141.146 268C141.146 268.373 141.326 268.64 141.686 268.8C142.059 268.947 142.653 269.153 143.466 269.42C144.213 269.647 144.806 269.887 145.246 270.14C145.686 270.393 145.999 270.7 146.186 271.06C146.386 271.407 146.486 271.86 146.486 272.42C146.486 273.353 146.146 274.053 145.466 274.52C144.786 274.973 143.799 275.2 142.506 275.2Z" fill="black"/>
</svg>
