<svg width="250" height="250" viewBox="0 0 250 250" fill="none" xmlns="http://www.w3.org/2000/svg">
<circle cx="125" cy="125" r="125" fill="#ED194C"/>
<path d="M52.882 69V48.392H63.026C64.6687 48.392 66.0233 48.7227 67.09 49.384C68.1567 50.024 68.946 50.8987 69.458 52.008C69.9913 53.1173 70.258 54.3653 70.258 55.752C70.258 57.16 69.9593 58.408 69.362 59.496C68.7647 60.584 67.9113 61.4373 66.802 62.056C65.714 62.6533 64.4127 62.952 62.898 62.952H58.034V69H52.882ZM58.034 58.984H61.746C62.834 58.984 63.6447 58.6853 64.178 58.088C64.7327 57.4907 65.01 56.7013 65.01 55.72C65.01 54.6533 64.754 53.832 64.242 53.256C63.7513 52.6587 62.9727 52.36 61.906 52.36H58.034V58.984ZM77.9843 69.32C77.3656 69.32 76.6723 69.2773 75.9043 69.192C75.1576 69.128 74.4109 69.0213 73.6643 68.872C72.9389 68.7227 72.2989 68.5307 71.7443 68.296V64.008C72.2563 64.2213 72.8323 64.4133 73.4723 64.584C74.1336 64.7333 74.7843 64.8507 75.4243 64.936C76.0856 65.0213 76.6723 65.064 77.1843 65.064C78.5069 65.064 79.4776 64.8613 80.0963 64.456C80.7363 64.0507 81.0563 63.3573 81.0563 62.376C81.0563 61.5013 80.8323 60.872 80.3843 60.488C79.9576 60.0827 79.1256 59.88 77.8883 59.88H71.6483V57.288L72.1923 48.392H84.9923L84.6083 52.36H76.6083L76.3843 56.104H79.0723C81.5683 56.104 83.3923 56.6587 84.5443 57.768C85.7176 58.856 86.3043 60.456 86.3043 62.568C86.3043 64.616 85.6109 66.2587 84.2243 67.496C82.8589 68.712 80.7789 69.32 77.9843 69.32ZM88.3358 69V65.224H92.4638V69H88.3358ZM97.0528 51.432V47.56H102.653V51.432H97.0528ZM97.1168 76.488C95.6021 76.488 94.3434 76.2747 93.3407 75.848V72.36C93.9808 72.5733 94.6208 72.68 95.2608 72.68C96.7541 72.68 97.5008 72.04 97.5008 70.76V57.64H95.2608L95.7088 53.832H102.653V71.208C102.653 72.7653 102.205 74.0347 101.309 75.016C100.413 75.9973 99.0154 76.488 97.1168 76.488ZM111.545 69.32C110.329 69.32 109.177 69.2347 108.089 69.064C107.001 68.8933 106.137 68.68 105.497 68.424V64.488C106.244 64.808 107.108 65.0533 108.089 65.224C109.071 65.3947 109.945 65.48 110.713 65.48C111.631 65.48 112.292 65.4373 112.697 65.352C113.124 65.2667 113.337 65.032 113.337 64.648C113.337 64.2213 112.996 63.9013 112.313 63.688C111.631 63.4747 110.692 63.1653 109.497 62.76C108.111 62.2693 107.055 61.704 106.329 61.064C105.625 60.4027 105.273 59.432 105.273 58.152C105.273 56.6587 105.828 55.5173 106.937 54.728C108.068 53.9173 109.86 53.512 112.313 53.512C113.273 53.512 114.223 53.5867 115.161 53.736C116.1 53.8853 116.868 54.056 117.465 54.248V58.12C116.868 57.8427 116.185 57.64 115.417 57.512C114.649 57.384 113.956 57.32 113.337 57.32C112.548 57.32 111.876 57.3733 111.321 57.48C110.788 57.5653 110.521 57.7893 110.521 58.152C110.521 58.5573 110.82 58.8453 111.417 59.016C112.015 59.1653 112.879 59.4213 114.009 59.784C115.204 60.1467 116.132 60.5413 116.793 60.968C117.455 61.3733 117.924 61.864 118.201 62.44C118.479 63.016 118.617 63.7413 118.617 64.616C118.617 66.1307 118.02 67.2933 116.825 68.104C115.631 68.9147 113.871 69.32 111.545 69.32ZM131.461 69L127.461 53.832H132.517L134.565 62.536L136.709 55.912V53.832H140.581L143.077 62.536L145.061 53.832H150.117L146.117 69H141.445L138.853 61.128L136.197 69H131.461ZM159.192 69.32C156.27 69.32 154.115 68.648 152.728 67.304C151.342 65.9387 150.648 63.976 150.648 61.416C150.648 58.8773 151.342 56.9253 152.728 55.56C154.136 54.1947 156.291 53.512 159.192 53.512C162.115 53.512 164.27 54.1947 165.656 55.56C167.064 56.9253 167.768 58.8773 167.768 61.416C167.768 63.976 167.075 65.9387 165.688 67.304C164.302 68.648 162.136 69.32 159.192 69.32ZM159.192 65.288C160.387 65.288 161.24 64.9893 161.752 64.392C162.264 63.7947 162.52 62.8027 162.52 61.416C162.52 60.0293 162.264 59.0373 161.752 58.44C161.24 57.8427 160.387 57.544 159.192 57.544C158.019 57.544 157.176 57.8427 156.664 58.44C156.152 59.0373 155.896 60.0293 155.896 61.416C155.896 62.8027 156.152 63.7947 156.664 64.392C157.176 64.9893 158.019 65.288 159.192 65.288ZM170.382 69V53.832H175.278L175.438 55.24C176.099 54.8347 176.921 54.472 177.902 54.152C178.883 53.8107 179.865 53.5973 180.846 53.512V57.384C180.291 57.448 179.673 57.5547 178.99 57.704C178.329 57.832 177.689 57.992 177.07 58.184C176.473 58.376 175.961 58.5787 175.534 58.792V69H170.382ZM182.788 69V47.432H187.94V58.696L192.9 53.832H198.756L192.676 60.136L199.108 69H193.636L189.444 62.856L187.94 64.328V69H182.788Z" fill="white"/>
<path d="M105.449 96.16C103.753 96.16 102.468 95.696 101.593 94.768C100.729 93.84 100.297 92.5867 100.297 91.008C100.297 89.8773 100.479 88.9067 100.841 88.096C101.215 87.2747 101.78 86.6453 102.537 86.208C103.295 85.76 104.26 85.536 105.433 85.536C106.031 85.536 106.575 85.584 107.065 85.68C107.567 85.7653 108.031 85.8827 108.457 86.032V87.552C108.031 87.3813 107.572 87.2533 107.081 87.168C106.601 87.072 106.095 87.024 105.561 87.024C104.281 87.024 103.375 87.3653 102.841 88.048C102.319 88.7307 102.057 89.7173 102.057 91.008C102.057 92.2133 102.345 93.1307 102.921 93.76C103.497 94.3787 104.388 94.688 105.593 94.688C106.084 94.688 106.575 94.6507 107.065 94.576C107.567 94.4907 108.036 94.3627 108.473 94.192V95.728C108.047 95.8667 107.583 95.9733 107.081 96.048C106.591 96.1227 106.047 96.16 105.449 96.16ZM113.749 96.16C112.384 96.16 111.381 95.8187 110.741 95.136C110.112 94.4533 109.797 93.4773 109.797 92.208C109.797 90.9387 110.117 89.9627 110.757 89.28C111.397 88.5973 112.395 88.256 113.749 88.256C115.115 88.256 116.117 88.5973 116.757 89.28C117.397 89.9627 117.717 90.9387 117.717 92.208C117.717 93.4773 117.397 94.4533 116.757 95.136C116.128 95.8187 115.125 96.16 113.749 96.16ZM113.749 94.688C114.549 94.688 115.115 94.496 115.445 94.112C115.787 93.7173 115.957 93.0827 115.957 92.208C115.957 91.3333 115.787 90.704 115.445 90.32C115.115 89.936 114.549 89.744 113.749 89.744C112.96 89.744 112.395 89.936 112.053 90.32C111.723 90.704 111.557 91.3333 111.557 92.208C111.557 93.0827 111.723 93.7173 112.053 94.112C112.395 94.496 112.96 94.688 113.749 94.688ZM122.55 96.16C121.868 96.16 121.265 96.0427 120.742 95.808C120.22 95.5733 119.814 95.184 119.526 94.64C119.238 94.096 119.094 93.3653 119.094 92.448C119.094 91.5413 119.249 90.7787 119.558 90.16C119.868 89.5307 120.294 89.056 120.838 88.736C121.393 88.416 122.017 88.256 122.71 88.256C123.169 88.256 123.574 88.3093 123.926 88.416C124.289 88.5227 124.636 88.688 124.966 88.912V85.216H126.71V96H125.222L125.11 95.248C124.769 95.5573 124.396 95.7867 123.99 95.936C123.585 96.0853 123.105 96.16 122.55 96.16ZM123.014 94.848C123.793 94.848 124.444 94.5813 124.966 94.048V90.256C124.465 89.808 123.836 89.584 123.078 89.584C122.342 89.584 121.788 89.8293 121.414 90.32C121.041 90.8107 120.854 91.5253 120.854 92.464C120.854 93.3707 121.025 93.9947 121.366 94.336C121.718 94.6773 122.268 94.848 123.014 94.848ZM129.367 86.832V85.392H131.271V86.832H129.367ZM129.511 96V89.744H128.359L128.519 88.416H131.255V96H129.511ZM133.289 96V88.416H134.889L134.969 89.216C135.311 88.9493 135.716 88.7253 136.185 88.544C136.665 88.352 137.193 88.256 137.769 88.256C138.751 88.256 139.465 88.4853 139.913 88.944C140.361 89.4027 140.585 90.1173 140.585 91.088V96H138.857V91.168C138.857 90.5813 138.735 90.1707 138.489 89.936C138.255 89.7013 137.807 89.584 137.145 89.584C136.751 89.584 136.361 89.664 135.977 89.824C135.604 89.984 135.289 90.192 135.033 90.448V96H133.289ZM145.611 98.816C145.046 98.816 144.481 98.7787 143.915 98.704C143.35 98.64 142.87 98.5387 142.475 98.4V97.056C142.902 97.1947 143.393 97.3013 143.947 97.376C144.502 97.4507 145.03 97.488 145.531 97.488C146.299 97.488 146.859 97.4453 147.211 97.36C147.563 97.2747 147.739 97.0827 147.739 96.784C147.739 96.56 147.654 96.4 147.483 96.304C147.313 96.2187 146.987 96.176 146.507 96.176H144.459C143.083 96.176 142.395 95.6907 142.395 94.72C142.395 94.4107 142.486 94.1227 142.667 93.856C142.849 93.5893 143.137 93.3867 143.531 93.248C143.094 93.0347 142.769 92.7413 142.555 92.368C142.353 91.9947 142.251 91.5467 142.251 91.024C142.251 90.0533 142.539 89.3493 143.115 88.912C143.702 88.4747 144.577 88.256 145.739 88.256C145.985 88.256 146.241 88.2773 146.507 88.32C146.774 88.352 146.982 88.384 147.131 88.416H149.915L149.867 89.552H148.587C148.79 89.7227 148.939 89.936 149.035 90.192C149.131 90.448 149.179 90.7253 149.179 91.024C149.179 91.8347 148.934 92.4747 148.443 92.944C147.953 93.4027 147.211 93.632 146.219 93.632C146.049 93.632 145.889 93.6267 145.739 93.616C145.601 93.5947 145.446 93.5733 145.275 93.552C144.955 93.584 144.667 93.6693 144.411 93.808C144.155 93.9467 144.027 94.1333 144.027 94.368C144.027 94.528 144.091 94.6453 144.219 94.72C144.347 94.784 144.561 94.816 144.859 94.816H146.987C147.745 94.816 148.326 94.9813 148.731 95.312C149.147 95.632 149.355 96.1013 149.355 96.72C149.355 97.4667 149.03 98 148.379 98.32C147.739 98.6507 146.817 98.816 145.611 98.816ZM145.739 92.528C146.433 92.528 146.913 92.4107 147.179 92.176C147.457 91.9413 147.595 91.5413 147.595 90.976C147.595 90.4107 147.457 90 147.179 89.744C146.913 89.488 146.433 89.36 145.739 89.36C145.089 89.36 144.614 89.4827 144.315 89.728C144.017 89.9733 143.867 90.3893 143.867 90.976C143.867 91.52 144.006 91.9147 144.283 92.16C144.571 92.4053 145.057 92.528 145.739 92.528Z" fill="white"/>
</svg>
