<svg width="250" height="250" viewBox="0 0 250 250" fill="none" xmlns="http://www.w3.org/2000/svg">
<circle cx="125" cy="125" r="125" fill="#ED1F5E"/>
<path d="M55.7522 52V33.968H64.6282C66.0656 33.968 67.2509 34.2573 68.1842 34.836C69.1176 35.396 69.8082 36.1613 70.2562 37.132C70.7229 38.1027 70.9562 39.1947 70.9562 40.408C70.9562 41.64 70.6949 42.732 70.1722 43.684C69.6496 44.636 68.9029 45.3827 67.9322 45.924C66.9802 46.4467 65.8416 46.708 64.5162 46.708H60.2602V52H55.7522ZM60.2602 43.236H63.5082C64.4602 43.236 65.1696 42.9747 65.6362 42.452C66.1216 41.9293 66.3642 41.2387 66.3642 40.38C66.3642 39.4467 66.1402 38.728 65.6922 38.224C65.2629 37.7013 64.5816 37.44 63.6482 37.44H60.2602V43.236ZM77.7167 52.28C77.1754 52.28 76.5687 52.2427 75.8967 52.168C75.2434 52.112 74.59 52.0187 73.9367 51.888C73.302 51.7573 72.742 51.5893 72.2567 51.384V47.632C72.7047 47.8187 73.2087 47.9867 73.7687 48.136C74.3474 48.2667 74.9167 48.3693 75.4767 48.444C76.0554 48.5187 76.5687 48.556 77.0167 48.556C78.174 48.556 79.0234 48.3787 79.5647 48.024C80.1247 47.6693 80.4047 47.0627 80.4047 46.204C80.4047 45.4387 80.2087 44.888 79.8167 44.552C79.4434 44.1973 78.7154 44.02 77.6327 44.02H72.1727V41.752L72.6487 33.968H83.8487L83.5127 37.44H76.5127L76.3167 40.716H78.6687C80.8527 40.716 82.4487 41.2013 83.4567 42.172C84.4834 43.124 84.9967 44.524 84.9967 46.372C84.9967 48.164 84.39 49.6013 83.1767 50.684C81.982 51.748 80.162 52.28 77.7167 52.28ZM86.7743 52V48.696H90.3863V52H86.7743ZM94.4016 36.628V33.24H99.3016V36.628H94.4016ZM94.4576 58.552C93.1323 58.552 92.031 58.3653 91.1536 57.992V54.94C91.7136 55.1267 92.2736 55.22 92.8336 55.22C94.1403 55.22 94.7936 54.66 94.7936 53.54V42.06H92.8336L93.2256 38.728H99.3016V53.932C99.3016 55.2947 98.9096 56.4053 98.1256 57.264C97.3416 58.1227 96.119 58.552 94.4576 58.552ZM107.083 52.28C106.019 52.28 105.011 52.2053 104.059 52.056C103.107 51.9067 102.351 51.72 101.791 51.496V48.052C102.444 48.332 103.2 48.5467 104.059 48.696C104.917 48.8453 105.683 48.92 106.355 48.92C107.157 48.92 107.736 48.8827 108.091 48.808C108.464 48.7333 108.651 48.528 108.651 48.192C108.651 47.8187 108.352 47.5387 107.755 47.352C107.157 47.1653 106.336 46.8947 105.291 46.54C104.077 46.1107 103.153 45.616 102.519 45.056C101.903 44.4773 101.595 43.628 101.595 42.508C101.595 41.2013 102.08 40.2027 103.051 39.512C104.04 38.8027 105.608 38.448 107.755 38.448C108.595 38.448 109.425 38.5133 110.247 38.644C111.068 38.7747 111.74 38.924 112.263 39.092V42.48C111.74 42.2373 111.143 42.06 110.471 41.948C109.799 41.836 109.192 41.78 108.651 41.78C107.96 41.78 107.372 41.8267 106.887 41.92C106.42 41.9947 106.187 42.1907 106.187 42.508C106.187 42.8627 106.448 43.1147 106.971 43.264C107.493 43.3947 108.249 43.6187 109.239 43.936C110.284 44.2533 111.096 44.5987 111.675 44.972C112.253 45.3267 112.664 45.756 112.907 46.26C113.149 46.764 113.271 47.3987 113.271 48.164C113.271 49.4893 112.748 50.5067 111.703 51.216C110.657 51.9253 109.117 52.28 107.083 52.28ZM124.509 52L121.009 38.728H125.433L127.225 46.344L129.101 40.548V38.728H132.489L134.673 46.344L136.409 38.728H140.833L137.333 52H133.245L130.977 45.112L128.653 52H124.509ZM148.774 52.28C146.216 52.28 144.331 51.692 143.118 50.516C141.904 49.3213 141.298 47.604 141.298 45.364C141.298 43.1427 141.904 41.4347 143.118 40.24C144.35 39.0453 146.235 38.448 148.774 38.448C151.331 38.448 153.216 39.0453 154.43 40.24C155.662 41.4347 156.278 43.1427 156.278 45.364C156.278 47.604 155.671 49.3213 154.458 50.516C153.244 51.692 151.35 52.28 148.774 52.28ZM148.774 48.752C149.819 48.752 150.566 48.4907 151.014 47.968C151.462 47.4453 151.686 46.5773 151.686 45.364C151.686 44.1507 151.462 43.2827 151.014 42.76C150.566 42.2373 149.819 41.976 148.774 41.976C147.747 41.976 147.01 42.2373 146.562 42.76C146.114 43.2827 145.89 44.1507 145.89 45.364C145.89 46.5773 146.114 47.4453 146.562 47.968C147.01 48.4907 147.747 48.752 148.774 48.752ZM158.565 52V38.728H162.849L162.989 39.96C163.567 39.6053 164.286 39.288 165.145 39.008C166.003 38.7093 166.862 38.5227 167.721 38.448V41.836C167.235 41.892 166.694 41.9853 166.097 42.116C165.518 42.228 164.958 42.368 164.417 42.536C163.894 42.704 163.446 42.8813 163.073 43.068V52H158.565ZM169.42 52V33.128H173.928V42.984L178.268 38.728H183.392L178.072 44.244L183.7 52H178.912L175.244 46.624L173.928 47.912V52H169.42ZM189.633 52.28C188.569 52.28 187.561 52.2053 186.609 52.056C185.657 51.9067 184.901 51.72 184.341 51.496V48.052C184.995 48.332 185.751 48.5467 186.609 48.696C187.468 48.8453 188.233 48.92 188.905 48.92C189.708 48.92 190.287 48.8827 190.641 48.808C191.015 48.7333 191.201 48.528 191.201 48.192C191.201 47.8187 190.903 47.5387 190.305 47.352C189.708 47.1653 188.887 46.8947 187.841 46.54C186.628 46.1107 185.704 45.616 185.069 45.056C184.453 44.4773 184.145 43.628 184.145 42.508C184.145 41.2013 184.631 40.2027 185.601 39.512C186.591 38.8027 188.159 38.448 190.305 38.448C191.145 38.448 191.976 38.5133 192.797 38.644C193.619 38.7747 194.291 38.924 194.813 39.092V42.48C194.291 42.2373 193.693 42.06 193.021 41.948C192.349 41.836 191.743 41.78 191.201 41.78C190.511 41.78 189.923 41.8267 189.437 41.92C188.971 41.9947 188.737 42.1907 188.737 42.508C188.737 42.8627 188.999 43.1147 189.521 43.264C190.044 43.3947 190.8 43.6187 191.789 43.936C192.835 44.2533 193.647 44.5987 194.225 44.972C194.804 45.3267 195.215 45.756 195.457 46.26C195.7 46.764 195.821 47.3987 195.821 48.164C195.821 49.4893 195.299 50.5067 194.253 51.216C193.208 51.9253 191.668 52.28 189.633 52.28Z" fill="white"/>
<path d="M105.449 227.16C103.753 227.16 102.468 226.696 101.593 225.768C100.729 224.84 100.297 223.587 100.297 222.008C100.297 220.877 100.479 219.907 100.841 219.096C101.215 218.275 101.78 217.645 102.537 217.208C103.295 216.76 104.26 216.536 105.433 216.536C106.031 216.536 106.575 216.584 107.065 216.68C107.567 216.765 108.031 216.883 108.457 217.032V218.552C108.031 218.381 107.572 218.253 107.081 218.168C106.601 218.072 106.095 218.024 105.561 218.024C104.281 218.024 103.375 218.365 102.841 219.048C102.319 219.731 102.057 220.717 102.057 222.008C102.057 223.213 102.345 224.131 102.921 224.76C103.497 225.379 104.388 225.688 105.593 225.688C106.084 225.688 106.575 225.651 107.065 225.576C107.567 225.491 108.036 225.363 108.473 225.192V226.728C108.047 226.867 107.583 226.973 107.081 227.048C106.591 227.123 106.047 227.16 105.449 227.16ZM113.749 227.16C112.384 227.16 111.381 226.819 110.741 226.136C110.112 225.453 109.797 224.477 109.797 223.208C109.797 221.939 110.117 220.963 110.757 220.28C111.397 219.597 112.395 219.256 113.749 219.256C115.115 219.256 116.117 219.597 116.757 220.28C117.397 220.963 117.717 221.939 117.717 223.208C117.717 224.477 117.397 225.453 116.757 226.136C116.128 226.819 115.125 227.16 113.749 227.16ZM113.749 225.688C114.549 225.688 115.115 225.496 115.445 225.112C115.787 224.717 115.957 224.083 115.957 223.208C115.957 222.333 115.787 221.704 115.445 221.32C115.115 220.936 114.549 220.744 113.749 220.744C112.96 220.744 112.395 220.936 112.053 221.32C111.723 221.704 111.557 222.333 111.557 223.208C111.557 224.083 111.723 224.717 112.053 225.112C112.395 225.496 112.96 225.688 113.749 225.688ZM122.55 227.16C121.868 227.16 121.265 227.043 120.742 226.808C120.22 226.573 119.814 226.184 119.526 225.64C119.238 225.096 119.094 224.365 119.094 223.448C119.094 222.541 119.249 221.779 119.558 221.16C119.868 220.531 120.294 220.056 120.838 219.736C121.393 219.416 122.017 219.256 122.71 219.256C123.169 219.256 123.574 219.309 123.926 219.416C124.289 219.523 124.636 219.688 124.966 219.912V216.216H126.71V227H125.222L125.11 226.248C124.769 226.557 124.396 226.787 123.99 226.936C123.585 227.085 123.105 227.16 122.55 227.16ZM123.014 225.848C123.793 225.848 124.444 225.581 124.966 225.048V221.256C124.465 220.808 123.836 220.584 123.078 220.584C122.342 220.584 121.788 220.829 121.414 221.32C121.041 221.811 120.854 222.525 120.854 223.464C120.854 224.371 121.025 224.995 121.366 225.336C121.718 225.677 122.268 225.848 123.014 225.848ZM129.367 217.832V216.392H131.271V217.832H129.367ZM129.511 227V220.744H128.359L128.519 219.416H131.255V227H129.511ZM133.289 227V219.416H134.889L134.969 220.216C135.311 219.949 135.716 219.725 136.185 219.544C136.665 219.352 137.193 219.256 137.769 219.256C138.751 219.256 139.465 219.485 139.913 219.944C140.361 220.403 140.585 221.117 140.585 222.088V227H138.857V222.168C138.857 221.581 138.735 221.171 138.489 220.936C138.255 220.701 137.807 220.584 137.145 220.584C136.751 220.584 136.361 220.664 135.977 220.824C135.604 220.984 135.289 221.192 135.033 221.448V227H133.289ZM145.611 229.816C145.046 229.816 144.481 229.779 143.915 229.704C143.35 229.64 142.87 229.539 142.475 229.4V228.056C142.902 228.195 143.393 228.301 143.947 228.376C144.502 228.451 145.03 228.488 145.531 228.488C146.299 228.488 146.859 228.445 147.211 228.36C147.563 228.275 147.739 228.083 147.739 227.784C147.739 227.56 147.654 227.4 147.483 227.304C147.313 227.219 146.987 227.176 146.507 227.176H144.459C143.083 227.176 142.395 226.691 142.395 225.72C142.395 225.411 142.486 225.123 142.667 224.856C142.849 224.589 143.137 224.387 143.531 224.248C143.094 224.035 142.769 223.741 142.555 223.368C142.353 222.995 142.251 222.547 142.251 222.024C142.251 221.053 142.539 220.349 143.115 219.912C143.702 219.475 144.577 219.256 145.739 219.256C145.985 219.256 146.241 219.277 146.507 219.32C146.774 219.352 146.982 219.384 147.131 219.416H149.915L149.867 220.552H148.587C148.79 220.723 148.939 220.936 149.035 221.192C149.131 221.448 149.179 221.725 149.179 222.024C149.179 222.835 148.934 223.475 148.443 223.944C147.953 224.403 147.211 224.632 146.219 224.632C146.049 224.632 145.889 224.627 145.739 224.616C145.601 224.595 145.446 224.573 145.275 224.552C144.955 224.584 144.667 224.669 144.411 224.808C144.155 224.947 144.027 225.133 144.027 225.368C144.027 225.528 144.091 225.645 144.219 225.72C144.347 225.784 144.561 225.816 144.859 225.816H146.987C147.745 225.816 148.326 225.981 148.731 226.312C149.147 226.632 149.355 227.101 149.355 227.72C149.355 228.467 149.03 229 148.379 229.32C147.739 229.651 146.817 229.816 145.611 229.816ZM145.739 223.528C146.433 223.528 146.913 223.411 147.179 223.176C147.457 222.941 147.595 222.541 147.595 221.976C147.595 221.411 147.457 221 147.179 220.744C146.913 220.488 146.433 220.36 145.739 220.36C145.089 220.36 144.614 220.483 144.315 220.728C144.017 220.973 143.867 221.389 143.867 221.976C143.867 222.52 144.006 222.915 144.283 223.16C144.571 223.405 145.057 223.528 145.739 223.528Z" fill="white"/>
</svg>
