<svg width="250" height="250" viewBox="0 0 250 250" fill="none" xmlns="http://www.w3.org/2000/svg">
<circle cx="125" cy="125" r="125" fill="#DC635F"/>
<path d="M50.257 71V50.392H60.561C62.993 50.392 64.785 51.032 65.937 52.312C67.089 53.592 67.665 55.3093 67.665 57.464C67.665 58.8507 67.313 60.0667 66.609 61.112C65.905 62.1573 64.945 62.936 63.729 63.448C64.0277 63.6827 64.2623 63.9493 64.433 64.248C64.625 64.5253 64.8277 64.92 65.041 65.432L67.473 71H62.097L59.793 65.752C59.601 65.304 59.3557 64.984 59.057 64.792C58.7583 64.5787 58.3317 64.472 57.777 64.472H55.409V71H50.257ZM55.409 60.504H59.217C60.2197 60.504 60.9983 60.2587 61.553 59.768C62.129 59.256 62.417 58.488 62.417 57.464C62.417 55.3947 61.425 54.36 59.441 54.36H55.409V60.504ZM68.2108 71L76.0828 50.392H81.6508L89.5228 71H84.1468L82.2908 66.328H75.4108L73.5868 71H68.2108ZM76.1148 62.52H81.5868L78.8348 55.352L76.1148 62.52ZM100.814 71.32C97.2087 71.32 94.4567 70.4027 92.558 68.568C90.6807 66.712 89.742 64.1413 89.742 60.856C89.742 57.4213 90.6593 54.7653 92.494 52.888C94.35 51.0107 97.1127 50.072 100.782 50.072C102.041 50.072 103.161 50.168 104.142 50.36C105.145 50.552 106.105 50.808 107.022 51.128V55.64C105.166 54.872 103.214 54.488 101.166 54.488C99.0327 54.488 97.4647 55 96.462 56.024C95.4807 57.048 94.99 58.6587 94.99 60.856C94.99 62.9467 95.5127 64.4827 96.558 65.464C97.6033 66.4453 99.1607 66.936 101.23 66.936C102.233 66.936 103.225 66.8507 104.206 66.68C105.187 66.488 106.137 66.2 107.054 65.816V70.36C106.158 70.6587 105.209 70.8933 104.206 71.064C103.203 71.2347 102.073 71.32 100.814 71.32ZM122.17 71.32C120.954 71.32 119.802 71.2347 118.714 71.064C117.626 70.8933 116.762 70.68 116.122 70.424V66.488C116.869 66.808 117.733 67.0533 118.714 67.224C119.696 67.3947 120.57 67.48 121.338 67.48C122.256 67.48 122.917 67.4373 123.322 67.352C123.749 67.2667 123.962 67.032 123.962 66.648C123.962 66.2213 123.621 65.9013 122.938 65.688C122.256 65.4747 121.317 65.1653 120.122 64.76C118.736 64.2693 117.68 63.704 116.954 63.064C116.25 62.4027 115.898 61.432 115.898 60.152C115.898 58.6587 116.453 57.5173 117.562 56.728C118.693 55.9173 120.485 55.512 122.938 55.512C123.898 55.512 124.848 55.5867 125.786 55.736C126.725 55.8853 127.493 56.056 128.09 56.248V60.12C127.493 59.8427 126.81 59.64 126.042 59.512C125.274 59.384 124.581 59.32 123.962 59.32C123.173 59.32 122.501 59.3733 121.946 59.48C121.413 59.5653 121.146 59.7893 121.146 60.152C121.146 60.5573 121.445 60.8453 122.042 61.016C122.64 61.1653 123.504 61.4213 124.634 61.784C125.829 62.1467 126.757 62.5413 127.418 62.968C128.08 63.3733 128.549 63.864 128.826 64.44C129.104 65.016 129.242 65.7413 129.242 66.616C129.242 68.1307 128.645 69.2933 127.45 70.104C126.256 70.9147 124.496 71.32 122.17 71.32ZM137.622 71.32C135.745 71.32 134.358 70.84 133.462 69.88C132.587 68.92 132.15 67.5973 132.15 65.912V59.736H130.102V55.832H132.15V52.664L137.302 51.288V55.832H140.982L140.758 59.736H137.302V65.56C137.302 66.2853 137.483 66.7973 137.846 67.096C138.209 67.3733 138.753 67.512 139.478 67.512C140.097 67.512 140.726 67.4053 141.366 67.192V70.68C140.363 71.1067 139.115 71.32 137.622 71.32ZM148.567 71.32C146.775 71.32 145.377 70.8187 144.375 69.816C143.372 68.792 142.871 67.3093 142.871 65.368V55.832H148.023V65.08C148.023 65.9333 148.225 66.5627 148.631 66.968C149.057 67.352 149.687 67.544 150.519 67.544C151.137 67.544 151.724 67.416 152.279 67.16C152.833 66.904 153.292 66.584 153.655 66.2V55.832H158.807V71H154.007L153.847 69.72C153.228 70.1893 152.481 70.5733 151.607 70.872C150.732 71.1707 149.719 71.32 148.567 71.32ZM168.31 71.32C166.432 71.32 165.046 70.84 164.15 69.88C163.275 68.92 162.838 67.5973 162.838 65.912V59.736H160.79V55.832H162.838V52.664L167.99 51.288V55.832H171.67L171.446 59.736H167.99V65.56C167.99 66.2853 168.171 66.7973 168.534 67.096C168.896 67.3733 169.44 67.512 170.166 67.512C170.784 67.512 171.414 67.4053 172.054 67.192V70.68C171.051 71.1067 169.803 71.32 168.31 71.32ZM175.062 53.432V49.56H180.662V53.432H175.062ZM175.478 71V59.64H173.238L173.686 55.832H180.63V71H175.478ZM191.817 71.32C188.895 71.32 186.74 70.648 185.353 69.304C183.967 67.9387 183.273 65.976 183.273 63.416C183.273 60.8773 183.967 58.9253 185.353 57.56C186.761 56.1947 188.916 55.512 191.817 55.512C194.74 55.512 196.895 56.1947 198.281 57.56C199.689 58.9253 200.393 60.8773 200.393 63.416C200.393 65.976 199.7 67.9387 198.313 69.304C196.927 70.648 194.761 71.32 191.817 71.32ZM191.817 67.288C193.012 67.288 193.865 66.9893 194.377 66.392C194.889 65.7947 195.145 64.8027 195.145 63.416C195.145 62.0293 194.889 61.0373 194.377 60.44C193.865 59.8427 193.012 59.544 191.817 59.544C190.644 59.544 189.801 59.8427 189.289 60.44C188.777 61.0373 188.521 62.0293 188.521 63.416C188.521 64.8027 188.777 65.7947 189.289 66.392C189.801 66.9893 190.644 67.288 191.817 67.288Z" fill="white"/>
</svg>
