<svg width="400" height="400" viewBox="0 0 400 400" fill="none" xmlns="http://www.w3.org/2000/svg">
<circle cx="200" cy="200" r="200" fill="#2444F5"/>
<path d="M130.402 101V87.368H125.026V84.2H139.666V87.368H134.29V101H130.402ZM141.758 101V84.2H149.03C150.534 84.2 151.83 84.448 152.918 84.944C154.006 85.424 154.846 86.12 155.438 87.032C156.03 87.944 156.326 89.032 156.326 90.296C156.326 91.544 156.03 92.624 155.438 93.536C154.846 94.432 154.006 95.12 152.918 95.6C151.83 96.08 150.534 96.32 149.03 96.32H143.918L145.646 94.616V101H141.758ZM152.438 101L148.238 94.904H152.39L156.638 101H152.438ZM145.646 95.048L143.918 93.224H148.814C150.014 93.224 150.91 92.968 151.502 92.456C152.094 91.928 152.39 91.208 152.39 90.296C152.39 89.368 152.094 88.648 151.502 88.136C150.91 87.624 150.014 87.368 148.814 87.368H143.918L145.646 85.52V95.048ZM157.198 101L164.686 84.2H168.526L176.038 101H171.958L165.814 86.168H167.35L161.182 101H157.198ZM160.942 97.4L161.974 94.448H170.614L171.67 97.4H160.942ZM185.587 101.288C184.291 101.288 183.083 101.08 181.963 100.664C180.859 100.232 179.899 99.624 179.083 98.84C178.267 98.056 177.627 97.136 177.163 96.08C176.715 95.024 176.491 93.864 176.491 92.6C176.491 91.336 176.715 90.176 177.163 89.12C177.627 88.064 178.267 87.144 179.083 86.36C179.915 85.576 180.883 84.976 181.987 84.56C183.091 84.128 184.299 83.912 185.611 83.912C187.067 83.912 188.379 84.168 189.547 84.68C190.731 85.176 191.723 85.912 192.523 86.888L190.027 89.192C189.451 88.536 188.811 88.048 188.107 87.728C187.403 87.392 186.635 87.224 185.803 87.224C185.019 87.224 184.299 87.352 183.643 87.608C182.987 87.864 182.419 88.232 181.939 88.712C181.459 89.192 181.083 89.76 180.811 90.416C180.555 91.072 180.427 91.8 180.427 92.6C180.427 93.4 180.555 94.128 180.811 94.784C181.083 95.44 181.459 96.008 181.939 96.488C182.419 96.968 182.987 97.336 183.643 97.592C184.299 97.848 185.019 97.976 185.803 97.976C186.635 97.976 187.403 97.816 188.107 97.496C188.811 97.16 189.451 96.656 190.027 95.984L192.523 98.288C191.723 99.264 190.731 100.008 189.547 100.52C188.379 101.032 187.059 101.288 185.587 101.288ZM198.628 97.16L198.412 92.672L206.452 84.2H210.772L203.524 92L201.364 94.304L198.628 97.16ZM195.148 101V84.2H199.012V101H195.148ZM206.644 101L200.668 93.68L203.212 90.92L211.18 101H206.644ZM220.345 101.288C219.049 101.288 217.841 101.08 216.721 100.664C215.617 100.232 214.657 99.624 213.84 98.84C213.025 98.056 212.385 97.136 211.921 96.08C211.473 95.024 211.249 93.864 211.249 92.6C211.249 91.336 211.473 90.176 211.921 89.12C212.385 88.064 213.025 87.144 213.84 86.36C214.673 85.576 215.641 84.976 216.745 84.56C217.849 84.128 219.057 83.912 220.369 83.912C221.825 83.912 223.137 84.168 224.305 84.68C225.489 85.176 226.481 85.912 227.281 86.888L224.785 89.192C224.209 88.536 223.569 88.048 222.865 87.728C222.161 87.392 221.393 87.224 220.561 87.224C219.777 87.224 219.057 87.352 218.401 87.608C217.745 87.864 217.177 88.232 216.697 88.712C216.217 89.192 215.841 89.76 215.569 90.416C215.313 91.072 215.185 91.8 215.185 92.6C215.185 93.4 215.313 94.128 215.569 94.784C215.841 95.44 216.217 96.008 216.697 96.488C217.177 96.968 217.745 97.336 218.401 97.592C219.057 97.848 219.777 97.976 220.561 97.976C221.393 97.976 222.161 97.816 222.865 97.496C223.569 97.16 224.209 96.656 224.785 95.984L227.281 98.288C226.481 99.264 225.489 100.008 224.305 100.52C223.137 101.032 221.817 101.288 220.345 101.288ZM237.715 101.288C236.387 101.288 235.155 101.072 234.019 100.64C232.899 100.208 231.923 99.6 231.09 98.816C230.275 98.032 229.635 97.112 229.171 96.056C228.723 95 228.499 93.848 228.499 92.6C228.499 91.352 228.723 90.2 229.171 89.144C229.635 88.088 230.283 87.168 231.115 86.384C231.947 85.6 232.923 84.992 234.043 84.56C235.163 84.128 236.379 83.912 237.691 83.912C239.019 83.912 240.234 84.128 241.339 84.56C242.459 84.992 243.427 85.6 244.243 86.384C245.075 87.168 245.723 88.088 246.187 89.144C246.651 90.184 246.883 91.336 246.883 92.6C246.883 93.848 246.651 95.008 246.187 96.08C245.723 97.136 245.075 98.056 244.243 98.84C243.427 99.608 242.459 100.208 241.339 100.64C240.234 101.072 239.026 101.288 237.715 101.288ZM237.691 97.976C238.443 97.976 239.131 97.848 239.755 97.592C240.395 97.336 240.955 96.968 241.435 96.488C241.915 96.008 242.283 95.44 242.539 94.784C242.811 94.128 242.947 93.4 242.947 92.6C242.947 91.8 242.811 91.072 242.539 90.416C242.283 89.76 241.915 89.192 241.435 88.712C240.971 88.232 240.419 87.864 239.779 87.608C239.139 87.352 238.443 87.224 237.691 87.224C236.939 87.224 236.243 87.352 235.603 87.608C234.979 87.864 234.427 88.232 233.947 88.712C233.467 89.192 233.091 89.76 232.819 90.416C232.563 91.072 232.435 91.8 232.435 92.6C232.435 93.384 232.563 94.112 232.819 94.784C233.091 95.44 233.459 96.008 233.923 96.488C234.403 96.968 234.963 97.336 235.603 97.592C236.243 97.848 236.939 97.976 237.691 97.976ZM249.805 101V84.2H253.693V101H249.805ZM257.68 101V84.2H260.896L270.808 96.296H269.247V84.2H273.088V101H269.896L259.96 88.904H261.52V101H257.68Z" fill="white"/>
<path d="M186.431 30.6201L193.188 30.63L199.944 37.3172L206.69 30.63H213.447L220.203 37.3172V44.0044L199.944 64.066L179.675 44.0044V37.3172L186.431 30.6201Z" stroke="#EA7C23" stroke-width="0.300183"/>
<path d="M192.941 30.6201L179.606 43.8167" stroke="#EA7C23" stroke-width="0.300183"/>
<path d="M192.96 37.3765L186.461 43.8069" stroke="#EA7C23" stroke-width="0.300183"/>
<path d="M199.786 37.3567L186.441 50.5731" stroke="#EA7C23" stroke-width="0.300183"/>
<path d="M213.466 30.6398L193.326 50.5829" stroke="#EA7C23" stroke-width="0.300183"/>
<path d="M213.427 37.3862L193.613 57.2997H206.869" stroke="#EA7C23" stroke-width="0.300183"/>
<path d="M220.173 37.4355L200.042 57.3688" stroke="#EA7C23" stroke-width="0.300183"/>
<path d="M179.438 44.014H220.391" stroke="#EA7C23" stroke-width="0.300183"/>
<path d="M186.293 50.7507H213.595" stroke="#EA7C23" stroke-width="0.300183"/>
<path d="M179.458 37.327H220.391" stroke="#EA7C23" stroke-width="0.300183"/>
<path d="M186.284 31.8052C186.561 31.8033 186.831 31.7194 187.06 31.5641C187.29 31.4088 187.468 31.189 187.572 30.9326C187.677 30.6761 187.703 30.3944 187.648 30.123C187.593 29.8515 187.459 29.6025 187.262 29.4073C187.066 29.2122 186.816 29.0796 186.544 29.0262C186.272 28.9729 185.99 29.0013 185.735 29.1077C185.479 29.2142 185.261 29.3939 185.107 29.6244C184.953 29.8548 184.871 30.1256 184.871 30.4026C184.871 30.5876 184.908 30.7708 184.979 30.9417C185.05 31.1125 185.154 31.2675 185.285 31.3979C185.417 31.5283 185.572 31.6314 185.744 31.7013C185.915 31.7712 186.099 31.8065 186.284 31.8052Z" fill="white"/>
<path d="M193.11 31.8053C193.387 31.8053 193.658 31.723 193.889 31.5689C194.12 31.4148 194.299 31.1957 194.406 30.9394C194.512 30.6831 194.539 30.4011 194.485 30.129C194.431 29.8569 194.298 29.607 194.101 29.4108C193.905 29.2147 193.655 29.0811 193.383 29.027C193.111 28.9728 192.829 29.0006 192.573 29.1068C192.317 29.2129 192.098 29.3927 191.943 29.6234C191.789 29.854 191.707 30.1252 191.707 30.4026C191.707 30.7746 191.855 31.1314 192.118 31.3944C192.381 31.6575 192.738 31.8053 193.11 31.8053Z" fill="white"/>
<path d="M186.284 38.6011C186.561 38.5992 186.831 38.5153 187.06 38.36C187.29 38.2047 187.468 37.9849 187.572 37.7285C187.677 37.472 187.703 37.1903 187.648 36.9189C187.593 36.6474 187.459 36.3984 187.262 36.2032C187.066 36.0081 186.816 35.8755 186.544 35.8221C186.272 35.7688 185.99 35.7972 185.735 35.9036C185.479 36.0101 185.261 36.1898 185.107 36.4203C184.953 36.6507 184.871 36.9215 184.871 37.1985C184.874 37.5714 185.024 37.9282 185.288 38.1909C185.553 38.4537 185.911 38.6011 186.284 38.6011Z" fill="white"/>
<path d="M179.458 45.3969C179.735 45.395 180.006 45.311 180.235 45.1557C180.464 45.0004 180.643 44.7807 180.747 44.5242C180.852 44.2678 180.878 43.9861 180.823 43.7146C180.768 43.4432 180.633 43.1942 180.437 42.999C180.24 42.8038 179.99 42.6712 179.719 42.6179C179.447 42.5646 179.165 42.5929 178.91 42.6994C178.654 42.8058 178.435 42.9856 178.282 43.216C178.128 43.4465 178.046 43.7173 178.046 43.9943C178.049 44.3672 178.198 44.7239 178.463 44.9867C178.728 45.2495 179.085 45.3969 179.458 45.3969Z" fill="white"/>
<path d="M186.284 45.3969C186.561 45.395 186.831 45.311 187.06 45.1557C187.29 45.0004 187.468 44.7807 187.572 44.5242C187.677 44.2678 187.703 43.9861 187.648 43.7146C187.593 43.4432 187.459 43.1942 187.262 42.999C187.066 42.8038 186.816 42.6712 186.544 42.6179C186.272 42.5646 185.99 42.5929 185.735 42.6994C185.479 42.8058 185.261 42.9856 185.107 43.216C184.953 43.4465 184.871 43.7173 184.871 43.9943C184.874 44.3672 185.024 44.7239 185.288 44.9867C185.553 45.2495 185.911 45.3969 186.284 45.3969Z" fill="white"/>
<path d="M193.109 45.3674C193.386 45.3654 193.656 45.2815 193.886 45.1262C194.115 44.9709 194.293 44.7512 194.398 44.4947C194.503 44.2382 194.529 43.9565 194.474 43.6851C194.419 43.4137 194.284 43.1647 194.088 42.9695C193.891 42.7743 193.641 42.6417 193.369 42.5884C193.098 42.535 192.816 42.5634 192.56 42.6698C192.305 42.7763 192.086 42.9561 191.932 43.1865C191.779 43.417 191.697 43.6877 191.697 43.9647C191.697 44.1498 191.733 44.333 191.804 44.5038C191.876 44.6746 191.98 44.8297 192.111 44.9601C192.242 45.0904 192.398 45.1935 192.569 45.2634C192.741 45.3334 192.924 45.3687 193.109 45.3674Z" fill="white"/>
<path d="M186.294 52.2026C186.571 52.2026 186.842 52.1203 187.073 51.9662C187.304 51.8121 187.483 51.593 187.59 51.3367C187.696 51.0804 187.724 50.7984 187.669 50.5263C187.615 50.2543 187.482 50.0043 187.286 49.8082C187.089 49.612 186.839 49.4784 186.567 49.4243C186.295 49.3702 186.013 49.3979 185.757 49.5041C185.501 49.6103 185.282 49.79 185.128 50.0207C184.973 50.2514 184.891 50.5226 184.891 50.8C184.894 51.1712 185.042 51.5264 185.305 51.7889C185.567 52.0514 185.923 52.2 186.294 52.2026Z" fill="white"/>
<path d="M193.11 52.2026C193.387 52.2026 193.658 52.1203 193.889 51.9662C194.12 51.8121 194.299 51.593 194.406 51.3367C194.512 51.0804 194.539 50.7984 194.485 50.5263C194.431 50.2543 194.298 50.0043 194.101 49.8082C193.905 49.612 193.655 49.4784 193.383 49.4243C193.111 49.3702 192.829 49.3979 192.573 49.5041C192.317 49.6103 192.098 49.79 191.943 50.0207C191.789 50.2514 191.707 50.5226 191.707 50.8C191.71 51.1712 191.858 51.5264 192.121 51.7889C192.383 52.0514 192.738 52.2 193.11 52.2026Z" fill="white"/>
<path d="M193.11 58.9789C193.387 58.9789 193.658 58.8966 193.889 58.7425C194.12 58.5883 194.299 58.3693 194.406 58.113C194.512 57.8567 194.539 57.5747 194.485 57.3026C194.431 57.0305 194.298 56.7806 194.101 56.5844C193.905 56.3882 193.655 56.2547 193.383 56.2005C193.111 56.1464 192.829 56.1742 192.573 56.2804C192.317 56.3865 192.098 56.5663 191.943 56.797C191.789 57.0276 191.707 57.2988 191.707 57.5762C191.707 57.9482 191.855 58.305 192.118 58.568C192.381 58.8311 192.738 58.9789 193.11 58.9789Z" fill="white"/>
<path d="M199.945 58.9788C200.222 58.9769 200.492 58.8929 200.721 58.7376C200.951 58.5823 201.129 58.3626 201.234 58.1061C201.338 57.8497 201.365 57.568 201.309 57.2965C201.254 57.0251 201.12 56.7761 200.923 56.5809C200.727 56.3858 200.477 56.2531 200.205 56.1998C199.933 56.1465 199.652 56.1748 199.396 56.2813C199.14 56.3877 198.922 56.5675 198.768 56.798C198.614 57.0284 198.532 57.2992 198.532 57.5762C198.532 57.7612 198.569 57.9444 198.64 58.1152C198.711 58.2861 198.815 58.4411 198.947 58.5715C199.078 58.7019 199.234 58.805 199.405 58.8749C199.576 58.9448 199.76 58.9801 199.945 58.9788Z" fill="white"/>
<path d="M199.945 65.7748C200.222 65.7729 200.492 65.689 200.721 65.5337C200.951 65.3784 201.129 65.1586 201.234 64.9022C201.338 64.6457 201.365 64.364 201.309 64.0926C201.254 63.8211 201.12 63.5721 200.923 63.377C200.727 63.1818 200.477 63.0492 200.205 62.9958C199.933 62.9425 199.652 62.9709 199.396 63.0773C199.14 63.1838 198.922 63.3635 198.768 63.594C198.614 63.8244 198.532 64.0952 198.532 64.3722C198.532 64.5572 198.569 64.7404 198.64 64.9113C198.711 65.0821 198.815 65.2371 198.947 65.3675C199.078 65.4979 199.234 65.601 199.405 65.6709C199.576 65.7408 199.76 65.7761 199.945 65.7748Z" fill="white"/>
<path d="M206.77 58.9788C207.046 58.9729 207.314 58.8858 207.541 58.7281C207.767 58.5705 207.943 58.3495 208.044 58.0927C208.146 57.8359 208.169 57.5549 208.112 57.2848C208.055 57.0147 207.919 56.7675 207.721 56.5743C207.524 56.3811 207.274 56.2505 207.003 56.1987C206.732 56.1469 206.451 56.1764 206.197 56.2834C205.942 56.3903 205.725 56.5701 205.572 56.8001C205.419 57.03 205.338 57.3 205.337 57.5761C205.336 57.7616 205.372 57.9454 205.442 58.1168C205.513 58.2882 205.617 58.4438 205.749 58.5744C205.88 58.7051 206.037 58.8081 206.209 58.8776C206.381 58.947 206.565 58.9814 206.75 58.9788" fill="white"/>
<path d="M199.945 52.2026C200.222 52.2006 200.492 52.1167 200.721 51.9614C200.951 51.8061 201.129 51.5864 201.234 51.3299C201.338 51.0734 201.365 50.7917 201.309 50.5203C201.254 50.2489 201.12 49.9999 200.923 49.8047C200.727 49.6095 200.477 49.4769 200.205 49.4236C199.933 49.3703 199.652 49.3986 199.396 49.505C199.14 49.6115 198.922 49.7913 198.768 50.0217C198.614 50.2522 198.532 50.5229 198.532 50.7999C198.535 51.1728 198.685 51.5296 198.949 51.7924C199.214 52.0551 199.572 52.2026 199.945 52.2026Z" fill="white"/>
<path d="M206.77 52.1928C207.046 52.1869 207.314 52.0997 207.541 51.9421C207.767 51.7845 207.943 51.5634 208.044 51.3067C208.146 51.0499 208.169 50.7689 208.112 50.4988C208.055 50.2287 207.919 49.9815 207.721 49.7883C207.524 49.5951 207.274 49.4644 207.003 49.4127C206.732 49.3609 206.451 49.3904 206.197 49.4974C205.942 49.6043 205.725 49.7841 205.572 50.014C205.419 50.244 205.337 50.514 205.337 50.7901C205.337 50.9752 205.374 51.1584 205.445 51.3292C205.516 51.5 205.62 51.6551 205.752 51.7855C205.883 51.9158 206.039 52.0189 206.21 52.0889C206.381 52.1588 206.565 52.1941 206.75 52.1928" fill="white"/>
<path d="M213.595 52.1928C213.967 52.1928 214.324 52.0451 214.587 51.782C214.85 51.519 214.998 51.1622 214.998 50.7902C214.998 50.4182 214.85 50.0614 214.587 49.7984C214.324 49.5354 213.967 49.3876 213.595 49.3876C213.223 49.3876 212.866 49.5354 212.603 49.7984C212.34 50.0614 212.192 50.4182 212.192 50.7902C212.192 51.1622 212.34 51.519 212.603 51.782C212.866 52.0451 213.223 52.1928 213.595 52.1928Z" fill="white"/>
<path d="M213.526 45.4167C213.804 45.4167 214.075 45.3342 214.306 45.1796C214.537 45.0251 214.717 44.8054 214.822 44.5485C214.928 44.2917 214.956 44.0091 214.901 43.7368C214.846 43.4644 214.711 43.2145 214.514 43.0188C214.317 42.823 214.066 42.6902 213.793 42.6372C213.521 42.5842 213.238 42.6134 212.982 42.7211C212.726 42.8288 212.508 43.0101 212.355 43.242C212.202 43.474 212.121 43.7461 212.123 44.024C212.126 44.3942 212.275 44.7485 212.537 45.0094C212.8 45.2703 213.155 45.4167 213.526 45.4167Z" fill="white"/>
<path d="M206.77 45.397C207.046 45.3912 207.314 45.304 207.541 45.1463C207.767 44.9887 207.943 44.7677 208.044 44.5109C208.146 44.2542 208.169 43.9731 208.112 43.703C208.055 43.4329 207.919 43.1858 207.721 42.9926C207.524 42.7993 207.274 42.6687 207.003 42.6169C206.732 42.5651 206.451 42.5946 206.197 42.7016C205.942 42.8086 205.725 42.9883 205.572 43.2183C205.419 43.4482 205.337 43.7182 205.337 43.9944C205.337 44.1794 205.374 44.3626 205.445 44.5334C205.516 44.7042 205.62 44.8593 205.752 44.9897C205.883 45.1201 206.039 45.2232 206.21 45.2931C206.381 45.363 206.565 45.3983 206.75 45.397" fill="white"/>
<path d="M199.945 45.3969C200.222 45.395 200.492 45.311 200.721 45.1557C200.951 45.0004 201.129 44.7807 201.234 44.5242C201.338 44.2678 201.365 43.9861 201.309 43.7146C201.254 43.4432 201.12 43.1942 200.923 42.999C200.727 42.8038 200.477 42.6712 200.205 42.6179C199.933 42.5646 199.652 42.5929 199.396 42.6994C199.14 42.8058 198.922 42.9856 198.768 43.216C198.614 43.4465 198.532 43.7173 198.532 43.9943C198.535 44.3672 198.685 44.7239 198.949 44.9867C199.214 45.2495 199.572 45.3969 199.945 45.3969Z" fill="white"/>
<path d="M199.945 38.6011C200.222 38.5992 200.492 38.5153 200.721 38.36C200.951 38.2047 201.129 37.9849 201.234 37.7285C201.338 37.472 201.365 37.1903 201.309 36.9189C201.254 36.6474 201.12 36.3984 200.923 36.2032C200.727 36.0081 200.477 35.8755 200.205 35.8221C199.933 35.7688 199.652 35.7972 199.396 35.9036C199.14 36.0101 198.922 36.1898 198.768 36.4203C198.614 36.6507 198.532 36.9215 198.532 37.1985C198.535 37.5714 198.685 37.9282 198.949 38.1909C199.214 38.4537 199.572 38.6011 199.945 38.6011Z" fill="white"/>
<path d="M206.769 31.8053C207.141 31.8053 207.498 31.6575 207.761 31.3944C208.024 31.1314 208.172 30.7746 208.172 30.4026C208.172 30.0306 208.024 29.6739 207.761 29.4108C207.498 29.1478 207.141 29 206.769 29C206.397 29 206.041 29.1478 205.778 29.4108C205.514 29.6739 205.367 30.0306 205.367 30.4026C205.367 30.7746 205.514 31.1314 205.778 31.3944C206.041 31.6575 206.397 31.8053 206.769 31.8053Z" fill="white"/>
<path d="M213.596 31.8052C213.873 31.8033 214.143 31.7194 214.372 31.5641C214.602 31.4088 214.78 31.189 214.884 30.9326C214.989 30.6761 215.015 30.3944 214.96 30.123C214.905 29.8515 214.771 29.6025 214.574 29.4073C214.378 29.2122 214.128 29.0796 213.856 29.0262C213.584 28.9729 213.302 29.0013 213.047 29.1077C212.791 29.2142 212.573 29.3939 212.419 29.6244C212.265 29.8548 212.183 30.1256 212.183 30.4026C212.186 30.7755 212.336 31.1323 212.6 31.395C212.865 31.6578 213.223 31.8052 213.596 31.8052Z" fill="white"/>
<path d="M206.77 38.6011C207.046 38.5953 207.314 38.5081 207.541 38.3504C207.767 38.1928 207.943 37.9718 208.044 37.715C208.146 37.4583 208.169 37.1772 208.112 36.9071C208.055 36.637 207.919 36.3899 207.721 36.1967C207.524 36.0034 207.274 35.8728 207.003 35.821C206.732 35.7692 206.451 35.7987 206.197 35.9057C205.942 36.0127 205.725 36.1924 205.572 36.4224C205.419 36.6523 205.337 36.9223 205.337 37.1985C205.337 37.3835 205.374 37.5667 205.445 37.7375C205.516 37.9083 205.62 38.0634 205.752 38.1938C205.883 38.3242 206.039 38.4273 206.21 38.4972C206.381 38.5671 206.565 38.6024 206.75 38.6011" fill="white"/>
<path d="M213.595 38.6012C213.872 38.6012 214.144 38.5189 214.374 38.3648C214.605 38.2107 214.785 37.9916 214.891 37.7353C214.997 37.479 215.025 37.197 214.971 36.9249C214.917 36.6528 214.783 36.4029 214.587 36.2067C214.391 36.0106 214.141 35.877 213.869 35.8229C213.597 35.7687 213.315 35.7965 213.058 35.9027C212.802 36.0088 212.583 36.1886 212.429 36.4193C212.275 36.6499 212.192 36.9211 212.192 37.1985C212.195 37.5697 212.344 37.925 212.606 38.1875C212.869 38.45 213.224 38.5986 213.595 38.6012Z" fill="white"/>
<path d="M220.421 45.3969C220.699 45.3969 220.97 45.3147 221.2 45.1606C221.431 45.0064 221.611 44.7874 221.717 44.5311C221.823 44.2748 221.851 43.9928 221.797 43.7207C221.743 43.4486 221.609 43.1987 221.413 43.0025C221.217 42.8063 220.967 42.6727 220.695 42.6186C220.423 42.5645 220.141 42.5923 219.884 42.6984C219.628 42.8046 219.409 42.9844 219.255 43.215C219.101 43.4457 219.019 43.7169 219.019 43.9943C219.021 44.3655 219.17 44.7208 219.432 44.9833C219.695 45.2457 220.05 45.3944 220.421 45.3969Z" fill="white"/>
<path d="M193.11 38.6012C193.387 38.6012 193.658 38.5189 193.889 38.3648C194.12 38.2107 194.299 37.9916 194.406 37.7353C194.512 37.479 194.539 37.197 194.485 36.9249C194.431 36.6528 194.298 36.4029 194.101 36.2067C193.905 36.0106 193.655 35.877 193.383 35.8229C193.111 35.7687 192.829 35.7965 192.573 35.9027C192.317 36.0088 192.098 36.1886 191.943 36.4193C191.789 36.6499 191.707 36.9211 191.707 37.1985C191.71 37.5697 191.858 37.925 192.121 38.1875C192.383 38.45 192.738 38.5986 193.11 38.6012Z" fill="white"/>
<path d="M179.458 38.6011C179.735 38.5992 180.006 38.5153 180.235 38.36C180.464 38.2047 180.643 37.9849 180.747 37.7285C180.852 37.472 180.878 37.1903 180.823 36.9189C180.768 36.6474 180.633 36.3984 180.437 36.2032C180.24 36.0081 179.99 35.8755 179.719 35.8221C179.447 35.7688 179.165 35.7972 178.91 35.9036C178.654 36.0101 178.435 36.1898 178.282 36.4203C178.128 36.6507 178.046 36.9215 178.046 37.1985C178.049 37.5714 178.198 37.9282 178.463 38.1909C178.728 38.4537 179.085 38.6011 179.458 38.6011Z" fill="white"/>
<path d="M220.421 38.6012C220.699 38.6012 220.97 38.5189 221.2 38.3648C221.431 38.2107 221.611 37.9916 221.717 37.7353C221.823 37.479 221.851 37.197 221.797 36.9249C221.743 36.6528 221.609 36.4029 221.413 36.2067C221.217 36.0106 220.967 35.877 220.695 35.8229C220.423 35.7687 220.141 35.7965 219.884 35.9027C219.628 36.0088 219.409 36.1886 219.255 36.4193C219.101 36.6499 219.019 36.9211 219.019 37.1985C219.021 37.5697 219.17 37.925 219.432 38.1875C219.695 38.45 220.05 38.5986 220.421 38.6012Z" fill="white"/>
<path d="M180.476 62.0607C181.776 61.9353 183.064 61.7074 184.328 61.3792C185.532 60.7927 186.892 60.6059 188.21 60.8458C189.543 61.2606 190.689 63.7597 190.689 63.7597L186.837 64.6783L181.77 63.6906L180.476 62.0607Z" fill="#C86522"/>
<path d="M151.01 50.1384H174.45C175.083 50.1327 175.695 50.3695 176.159 50.8002C176.959 51.5213 183.883 58.6135 183.883 58.6135C183.539 59.0158 183.107 59.3343 182.621 59.5448C182.135 59.7553 181.607 59.8523 181.078 59.8284C179.867 59.6283 178.768 58.9968 177.986 58.0504L175.784 55.9663C175.784 55.9663 175.369 55.6502 175.082 55.9663C174.796 56.2823 175.181 56.6379 175.181 56.6379L180.426 61.8139C181.872 62.9496 183.563 63.731 185.365 64.0956C188.704 64.8957 191.094 65.4291 191.094 65.4291C191.094 65.4291 193.267 65.8835 193.761 67.4738C194.049 68.4105 193.979 69.4209 193.563 70.3087L183.182 67.7602C181.53 67.413 179.91 66.9239 178.342 66.2983C175.704 65.3106 172.415 64.0561 171.694 63.7696C170.973 63.4832 167.802 62.1793 166.815 61.0434C166.396 60.5231 165.926 60.0465 165.412 59.621C165.412 59.621 165.323 59.4037 163.911 59.5222C162.498 59.6408 157.52 60.0161 157.52 60.0161C155.544 58.5345 153.868 56.6908 152.581 54.5834C150.773 51.4028 151.01 50.1384 151.01 50.1384Z" fill="#EA7C23"/>
<path d="M157.549 59.9765C156.957 59.5668 156.393 59.118 155.86 58.6331C155.169 57.9713 154.31 56.9736 154.31 56.9736C154.31 56.9736 165.58 56.9736 166.163 57.3786C166.746 57.7836 167.388 59.6999 169.748 61.0828C172.109 62.4656 181.473 66.0216 182.589 66.4365C183.706 66.8513 189.049 68.2342 189.415 68.3034C189.78 68.3725 193.959 69.2911 193.959 69.2911C193.959 69.2911 193.86 70.1209 193.613 70.2789C193.366 70.4369 189.069 69.1528 189.069 69.1528C189.069 69.1528 187.617 68.7676 185.75 68.3527L183.982 67.9576C182.935 67.7008 182.007 67.5527 181.088 67.2267C177.898 66.0908 174.658 64.8956 172.198 63.9078C170.912 63.4077 169.661 62.8202 168.454 62.1496C167.98 61.8137 167.239 61.3396 167.141 61.2408C166.825 60.8951 166.262 60.253 166.262 60.253C165.987 60.0082 165.7 59.7774 165.402 59.5616C165.103 59.4963 164.793 59.4963 164.493 59.5616L157.549 59.9765Z" fill="#C86522"/>
<path d="M175.023 56.4205C175.023 56.4205 173.66 55.0969 173.66 54.3264C173.66 53.1114 174.411 53.7732 174.865 54.1782C175.32 54.5832 175.586 55.0178 176.9 56.1538C178.214 57.2897 180.456 58.9986 181.582 58.8701C182.248 58.7913 182.875 58.5123 183.38 58.07L183.854 58.5541C183.54 58.9241 183.152 59.2243 182.714 59.4352C182.277 59.6462 181.801 59.7633 181.315 59.7789C180.661 59.7838 180.019 59.5984 179.468 59.2455C178.613 58.6667 177.83 57.9869 177.137 57.2206C177.137 57.2206 175.567 55.5907 175.162 55.8081C175.108 55.8287 175.059 55.8616 175.02 55.9041C174.981 55.9466 174.952 55.9975 174.936 56.0529C174.92 56.1084 174.916 56.1668 174.926 56.2237C174.936 56.2806 174.959 56.3344 174.994 56.381" fill="#C86522"/>
<path d="M218.564 62.7225C217.263 62.6022 215.975 62.3742 214.712 62.041C213.506 61.4591 212.148 61.2725 210.83 61.5076C209.496 61.9224 208.351 64.4709 208.351 64.4709L212.203 65.3994L217.27 64.4116L218.564 62.7225Z" fill="#C86522"/>
<path d="M248.02 50.8099H224.59C223.957 50.7974 223.344 51.0312 222.881 51.4619C222.081 52.1928 215.157 59.2751 215.157 59.2751C215.5 59.6791 215.931 59.9988 216.418 60.2095C216.904 60.4202 217.432 60.5162 217.962 60.4901C219.171 60.2917 220.269 59.6639 221.054 58.722L223.256 56.6575C223.256 56.6575 223.671 56.3414 223.958 56.6575C224.244 56.9736 223.859 57.3391 223.859 57.3391L218.614 62.5051C217.168 63.6408 215.477 64.4223 213.675 64.7869C210.336 65.587 207.946 66.1204 207.946 66.1204C207.946 66.1204 205.773 66.5846 205.279 68.1749C204.988 69.108 205.058 70.1165 205.476 71L215.868 68.4811C217.519 68.1281 219.138 67.6391 220.708 67.0192C223.345 65.9722 226.634 64.777 227.356 64.4807C228.077 64.1843 231.237 62.9002 232.215 61.7544C232.639 61.2232 233.115 60.7367 233.638 60.3024C233.638 60.3024 233.727 60.0851 235.139 60.2036C236.552 60.3222 241.53 60.6876 241.53 60.6876C243.506 59.206 245.182 57.3624 246.469 55.2549C248.237 52.1138 247.99 50.8593 247.99 50.8593" fill="#EA7C23"/>
<path d="M241.489 60.6086C242.084 60.2056 242.648 59.7599 243.178 59.2751C243.86 58.633 244.729 57.6453 244.729 57.6453C244.729 57.6453 233.459 57.6453 232.876 58.0502C232.293 58.4552 231.651 60.3616 229.29 61.7445C226.93 63.1274 217.565 66.6834 216.449 67.0982C215.333 67.5131 209.989 68.896 209.624 68.9651L205.08 69.9529C205.08 69.9529 205.179 70.7826 205.426 70.9407C205.673 71.0987 209.97 69.8146 209.97 69.8146C209.97 69.8146 211.422 69.4392 213.288 69.0145L215.057 68.6194C216.034 68.4272 217 68.1832 217.951 67.8884C221.141 66.7525 224.381 65.5672 226.841 64.5695C228.127 64.0694 229.378 63.482 230.584 62.8113C231.058 62.4853 231.799 62.0112 231.898 61.9124C232.214 61.5667 232.777 60.8654 232.777 60.8654C232.777 60.8654 233.419 60.3122 233.637 60.174C233.933 60.0974 234.242 60.0806 234.545 60.1246L241.489 60.6086Z" fill="#C86522"/>
<path d="M224.017 57.0823C224.017 57.0823 225.38 55.7685 225.38 54.9981C225.38 53.7732 224.629 54.4351 224.175 54.8499C223.72 55.2648 223.454 55.6895 222.14 56.8255C220.826 57.9614 218.584 59.6801 217.458 59.5418C216.79 59.468 216.162 59.1884 215.66 58.7417L215.186 59.2257C215.5 59.5958 215.888 59.896 216.326 60.1069C216.763 60.3179 217.239 60.4349 217.725 60.4506C218.379 60.4554 219.021 60.2701 219.572 59.9172C220.427 59.3564 221.21 58.693 221.903 57.9416C221.903 57.9416 223.473 56.3118 223.878 56.5291C223.932 56.5498 223.981 56.5827 224.02 56.6252C224.059 56.6676 224.088 56.7186 224.104 56.774C224.12 56.8295 224.124 56.8879 224.114 56.9448C224.104 57.0017 224.081 57.0555 224.046 57.102" fill="#C86522"/>
<path d="M107.575 357.144C106.927 357.144 106.323 357.04 105.763 356.832C105.211 356.616 104.731 356.312 104.323 355.92C103.915 355.528 103.595 355.068 103.363 354.54C103.139 354.012 103.027 353.432 103.027 352.8C103.027 352.168 103.139 351.588 103.363 351.06C103.595 350.532 103.915 350.072 104.323 349.68C104.739 349.288 105.223 348.988 105.775 348.78C106.327 348.564 106.931 348.456 107.587 348.456C108.315 348.456 108.971 348.584 109.555 348.84C110.147 349.088 110.643 349.456 111.043 349.944L109.795 351.096C109.507 350.768 109.187 350.524 108.835 350.364C108.483 350.196 108.099 350.112 107.683 350.112C107.291 350.112 106.931 350.176 106.603 350.304C106.275 350.432 105.991 350.616 105.751 350.856C105.511 351.096 105.323 351.38 105.187 351.708C105.059 352.036 104.995 352.4 104.995 352.8C104.995 353.2 105.059 353.564 105.187 353.892C105.323 354.22 105.511 354.504 105.751 354.744C105.991 354.984 106.275 355.168 106.603 355.296C106.931 355.424 107.291 355.488 107.683 355.488C108.099 355.488 108.483 355.408 108.835 355.248C109.187 355.08 109.507 354.828 109.795 354.492L111.043 355.644C110.643 356.132 110.147 356.504 109.555 356.76C108.971 357.016 108.311 357.144 107.575 357.144ZM112.223 357V350.544H114.011V352.368L113.759 351.84C113.951 351.384 114.259 351.04 114.683 350.808C115.107 350.568 115.623 350.448 116.231 350.448V352.176C116.151 352.168 116.079 352.164 116.015 352.164C115.951 352.156 115.883 352.152 115.811 352.152C115.299 352.152 114.883 352.3 114.563 352.596C114.251 352.884 114.095 353.336 114.095 353.952V357H112.223ZM120.37 357.096C119.682 357.096 119.07 356.952 118.534 356.664C118.006 356.376 117.586 355.984 117.274 355.488C116.97 354.984 116.818 354.412 116.818 353.772C116.818 353.124 116.97 352.552 117.274 352.056C117.586 351.552 118.006 351.16 118.534 350.88C119.07 350.592 119.682 350.448 120.37 350.448C121.05 350.448 121.658 350.592 122.194 350.88C122.73 351.16 123.15 351.548 123.454 352.044C123.758 352.54 123.91 353.116 123.91 353.772C123.91 354.412 123.758 354.984 123.454 355.488C123.15 355.984 122.73 356.376 122.194 356.664C121.658 356.952 121.05 357.096 120.37 357.096ZM120.37 355.56C120.682 355.56 120.962 355.488 121.21 355.344C121.458 355.2 121.654 354.996 121.798 354.732C121.942 354.46 122.014 354.14 122.014 353.772C122.014 353.396 121.942 353.076 121.798 352.812C121.654 352.548 121.458 352.344 121.21 352.2C120.962 352.056 120.682 351.984 120.37 351.984C120.058 351.984 119.778 352.056 119.53 352.2C119.282 352.344 119.082 352.548 118.93 352.812C118.786 353.076 118.714 353.396 118.714 353.772C118.714 354.14 118.786 354.46 118.93 354.732C119.082 354.996 119.282 355.2 119.53 355.344C119.778 355.488 120.058 355.56 120.37 355.56ZM126.461 357L124.133 350.544H125.897L127.829 356.1H126.989L129.005 350.544H130.589L132.545 356.1H131.705L133.697 350.544H135.353L133.013 357H131.201L129.485 352.236H130.037L128.261 357H126.461ZM138.82 357.096C138.212 357.096 137.664 356.96 137.176 356.688C136.688 356.408 136.3 356.02 136.012 355.524C135.732 355.028 135.592 354.444 135.592 353.772C135.592 353.092 135.732 352.504 136.012 352.008C136.3 351.512 136.688 351.128 137.176 350.856C137.664 350.584 138.212 350.448 138.82 350.448C139.364 350.448 139.84 350.568 140.248 350.808C140.656 351.048 140.972 351.412 141.196 351.9C141.42 352.388 141.532 353.012 141.532 353.772C141.532 354.524 141.424 355.148 141.208 355.644C140.992 356.132 140.68 356.496 140.272 356.736C139.872 356.976 139.388 357.096 138.82 357.096ZM139.144 355.56C139.448 355.56 139.724 355.488 139.972 355.344C140.22 355.2 140.416 354.996 140.56 354.732C140.712 354.46 140.788 354.14 140.788 353.772C140.788 353.396 140.712 353.076 140.56 352.812C140.416 352.548 140.22 352.344 139.972 352.2C139.724 352.056 139.448 351.984 139.144 351.984C138.832 351.984 138.552 352.056 138.304 352.2C138.056 352.344 137.856 352.548 137.704 352.812C137.56 353.076 137.488 353.396 137.488 353.772C137.488 354.14 137.56 354.46 137.704 354.732C137.856 354.996 138.056 355.2 138.304 355.344C138.552 355.488 138.832 355.56 139.144 355.56ZM140.836 357V355.68L140.872 353.76L140.752 351.852V348.096H142.624V357H140.836ZM144.584 357V350.4C144.584 349.672 144.8 349.092 145.232 348.66C145.664 348.22 146.28 348 147.08 348C147.352 348 147.612 348.028 147.86 348.084C148.116 348.14 148.332 348.228 148.508 348.348L148.016 349.704C147.912 349.632 147.796 349.576 147.668 349.536C147.54 349.496 147.404 349.476 147.26 349.476C146.988 349.476 146.776 349.556 146.624 349.716C146.48 349.868 146.408 350.1 146.408 350.412V351.012L146.456 351.816V357H144.584ZM143.588 352.128V350.688H148.064V352.128H143.588ZM151.721 357.096C151.185 357.096 150.705 356.992 150.281 356.784C149.865 356.576 149.541 356.26 149.309 355.836C149.077 355.404 148.961 354.856 148.961 354.192V350.544H150.833V353.916C150.833 354.452 150.945 354.848 151.169 355.104C151.401 355.352 151.725 355.476 152.141 355.476C152.429 355.476 152.685 355.416 152.909 355.296C153.133 355.168 153.309 354.976 153.437 354.72C153.565 354.456 153.629 354.128 153.629 353.736V350.544H155.501V357H153.725V355.224L154.049 355.74C153.833 356.188 153.513 356.528 153.089 356.76C152.673 356.984 152.217 357.096 151.721 357.096ZM160.007 357.096C159.399 357.096 158.851 356.96 158.363 356.688C157.875 356.408 157.487 356.02 157.199 355.524C156.919 355.028 156.779 354.444 156.779 353.772C156.779 353.092 156.919 352.504 157.199 352.008C157.487 351.512 157.875 351.128 158.363 350.856C158.851 350.584 159.399 350.448 160.007 350.448C160.551 350.448 161.027 350.568 161.435 350.808C161.843 351.048 162.159 351.412 162.383 351.9C162.607 352.388 162.719 353.012 162.719 353.772C162.719 354.524 162.611 355.148 162.395 355.644C162.179 356.132 161.867 356.496 161.459 356.736C161.059 356.976 160.575 357.096 160.007 357.096ZM160.331 355.56C160.635 355.56 160.911 355.488 161.159 355.344C161.407 355.2 161.603 354.996 161.747 354.732C161.899 354.46 161.975 354.14 161.975 353.772C161.975 353.396 161.899 353.076 161.747 352.812C161.603 352.548 161.407 352.344 161.159 352.2C160.911 352.056 160.635 351.984 160.331 351.984C160.019 351.984 159.739 352.056 159.491 352.2C159.243 352.344 159.043 352.548 158.891 352.812C158.747 353.076 158.675 353.396 158.675 353.772C158.675 354.14 158.747 354.46 158.891 354.732C159.043 354.996 159.243 355.2 159.491 355.344C159.739 355.488 160.019 355.56 160.331 355.56ZM162.023 357V355.68L162.059 353.76L161.939 351.852V348.096H163.811V357H162.023ZM169.468 350.448C169.98 350.448 170.436 350.552 170.836 350.76C171.244 350.96 171.564 351.272 171.796 351.696C172.028 352.112 172.144 352.648 172.144 353.304V357H170.272V353.592C170.272 353.072 170.156 352.688 169.924 352.44C169.7 352.192 169.38 352.068 168.964 352.068C168.668 352.068 168.4 352.132 168.16 352.26C167.928 352.38 167.744 352.568 167.608 352.824C167.48 353.08 167.416 353.408 167.416 353.808V357H165.544V350.544H167.332V352.332L166.996 351.792C167.228 351.36 167.56 351.028 167.992 350.796C168.424 350.564 168.916 350.448 169.468 350.448ZM173.841 357V350.544H175.713V357H173.841ZM174.777 349.644C174.433 349.644 174.153 349.544 173.937 349.344C173.721 349.144 173.613 348.896 173.613 348.6C173.613 348.304 173.721 348.056 173.937 347.856C174.153 347.656 174.433 347.556 174.777 347.556C175.121 347.556 175.401 347.652 175.617 347.844C175.833 348.028 175.941 348.268 175.941 348.564C175.941 348.876 175.833 349.136 175.617 349.344C175.409 349.544 175.129 349.644 174.777 349.644ZM181.374 350.448C181.886 350.448 182.342 350.552 182.742 350.76C183.15 350.96 183.47 351.272 183.702 351.696C183.934 352.112 184.05 352.648 184.05 353.304V357H182.178V353.592C182.178 353.072 182.062 352.688 181.83 352.44C181.606 352.192 181.286 352.068 180.87 352.068C180.574 352.068 180.306 352.132 180.066 352.26C179.834 352.38 179.65 352.568 179.514 352.824C179.386 353.08 179.322 353.408 179.322 353.808V357H177.45V350.544H179.238V352.332L178.902 351.792C179.134 351.36 179.466 351.028 179.898 350.796C180.33 350.564 180.822 350.448 181.374 350.448ZM188.83 359.424C188.222 359.424 187.634 359.348 187.066 359.196C186.506 359.052 186.038 358.832 185.662 358.536L186.406 357.192C186.678 357.416 187.022 357.592 187.438 357.72C187.862 357.856 188.278 357.924 188.686 357.924C189.35 357.924 189.83 357.776 190.126 357.48C190.43 357.184 190.582 356.744 190.582 356.16V355.188L190.702 353.568L190.678 351.936V350.544H192.454V355.92C192.454 357.12 192.142 358.004 191.518 358.572C190.894 359.14 189.998 359.424 188.83 359.424ZM188.542 356.688C187.942 356.688 187.398 356.56 186.91 356.304C186.43 356.04 186.042 355.676 185.746 355.212C185.458 354.74 185.314 354.192 185.314 353.568C185.314 352.936 185.458 352.388 185.746 351.924C186.042 351.452 186.43 351.088 186.91 350.832C187.398 350.576 187.942 350.448 188.542 350.448C189.086 350.448 189.566 350.56 189.982 350.784C190.398 351 190.722 351.34 190.954 351.804C191.186 352.26 191.302 352.848 191.302 353.568C191.302 354.28 191.186 354.868 190.954 355.332C190.722 355.788 190.398 356.128 189.982 356.352C189.566 356.576 189.086 356.688 188.542 356.688ZM188.914 355.152C189.242 355.152 189.534 355.088 189.79 354.96C190.046 354.824 190.246 354.636 190.39 354.396C190.534 354.156 190.606 353.88 190.606 353.568C190.606 353.248 190.534 352.972 190.39 352.74C190.246 352.5 190.046 352.316 189.79 352.188C189.534 352.052 189.242 351.984 188.914 351.984C188.586 351.984 188.294 352.052 188.038 352.188C187.782 352.316 187.578 352.5 187.426 352.74C187.282 352.972 187.21 353.248 187.21 353.568C187.21 353.88 187.282 354.156 187.426 354.396C187.578 354.636 187.782 354.824 188.038 354.96C188.294 355.088 188.586 355.152 188.914 355.152ZM196.622 357L200.366 348.6H202.286L206.042 357H204.002L200.93 349.584H201.698L198.614 357H196.622ZM198.494 355.2L199.01 353.724H203.33L203.858 355.2H198.494ZM210.598 357.096C210.054 357.096 209.578 356.976 209.17 356.736C208.762 356.496 208.442 356.132 208.21 355.644C207.986 355.148 207.874 354.524 207.874 353.772C207.874 353.012 207.982 352.388 208.198 351.9C208.414 351.412 208.726 351.048 209.134 350.808C209.542 350.568 210.03 350.448 210.598 350.448C211.206 350.448 211.75 350.588 212.23 350.868C212.718 351.14 213.102 351.524 213.382 352.02C213.67 352.516 213.814 353.1 213.814 353.772C213.814 354.452 213.67 355.04 213.382 355.536C213.102 356.032 212.718 356.416 212.23 356.688C211.75 356.96 211.206 357.096 210.598 357.096ZM206.782 359.328V350.544H208.57V351.864L208.534 353.784L208.654 355.692V359.328H206.782ZM210.274 355.56C210.586 355.56 210.862 355.488 211.102 355.344C211.35 355.2 211.546 354.996 211.69 354.732C211.842 354.46 211.918 354.14 211.918 353.772C211.918 353.396 211.842 353.076 211.69 352.812C211.546 352.548 211.35 352.344 211.102 352.2C210.862 352.056 210.586 351.984 210.274 351.984C209.962 351.984 209.682 352.056 209.434 352.2C209.186 352.344 208.99 352.548 208.846 352.812C208.702 353.076 208.63 353.396 208.63 353.772C208.63 354.14 208.702 354.46 208.846 354.732C208.99 354.996 209.186 355.2 209.434 355.344C209.682 355.488 209.962 355.56 210.274 355.56ZM218.883 357.096C218.339 357.096 217.863 356.976 217.455 356.736C217.047 356.496 216.727 356.132 216.495 355.644C216.271 355.148 216.159 354.524 216.159 353.772C216.159 353.012 216.267 352.388 216.483 351.9C216.699 351.412 217.011 351.048 217.419 350.808C217.827 350.568 218.315 350.448 218.883 350.448C219.491 350.448 220.035 350.588 220.515 350.868C221.003 351.14 221.387 351.524 221.667 352.02C221.955 352.516 222.099 353.1 222.099 353.772C222.099 354.452 221.955 355.04 221.667 355.536C221.387 356.032 221.003 356.416 220.515 356.688C220.035 356.96 219.491 357.096 218.883 357.096ZM215.067 359.328V350.544H216.855V351.864L216.819 353.784L216.939 355.692V359.328H215.067ZM218.559 355.56C218.871 355.56 219.147 355.488 219.387 355.344C219.635 355.2 219.831 354.996 219.975 354.732C220.127 354.46 220.203 354.14 220.203 353.772C220.203 353.396 220.127 353.076 219.975 352.812C219.831 352.548 219.635 352.344 219.387 352.2C219.147 352.056 218.871 351.984 218.559 351.984C218.247 351.984 217.967 352.056 217.719 352.2C217.471 352.344 217.275 352.548 217.131 352.812C216.987 353.076 216.915 353.396 216.915 353.772C216.915 354.14 216.987 354.46 217.131 354.732C217.275 354.996 217.471 355.2 217.719 355.344C217.967 355.488 218.247 355.56 218.559 355.56ZM226.979 357V350.4C226.979 349.672 227.195 349.092 227.627 348.66C228.059 348.22 228.675 348 229.475 348C229.747 348 230.007 348.028 230.255 348.084C230.511 348.14 230.727 348.228 230.903 348.348L230.411 349.704C230.307 349.632 230.191 349.576 230.063 349.536C229.935 349.496 229.799 349.476 229.655 349.476C229.383 349.476 229.171 349.556 229.019 349.716C228.875 349.868 228.803 350.1 228.803 350.412V351.012L228.851 351.816V357H226.979ZM225.983 352.128V350.688H230.459V352.128H225.983ZM234.381 357.096C233.693 357.096 233.081 356.952 232.545 356.664C232.017 356.376 231.597 355.984 231.285 355.488C230.981 354.984 230.829 354.412 230.829 353.772C230.829 353.124 230.981 352.552 231.285 352.056C231.597 351.552 232.017 351.16 232.545 350.88C233.081 350.592 233.693 350.448 234.381 350.448C235.061 350.448 235.669 350.592 236.205 350.88C236.741 351.16 237.161 351.548 237.465 352.044C237.769 352.54 237.921 353.116 237.921 353.772C237.921 354.412 237.769 354.984 237.465 355.488C237.161 355.984 236.741 356.376 236.205 356.664C235.669 356.952 235.061 357.096 234.381 357.096ZM234.381 355.56C234.693 355.56 234.973 355.488 235.221 355.344C235.469 355.2 235.665 354.996 235.809 354.732C235.953 354.46 236.025 354.14 236.025 353.772C236.025 353.396 235.953 353.076 235.809 352.812C235.665 352.548 235.469 352.344 235.221 352.2C234.973 352.056 234.693 351.984 234.381 351.984C234.069 351.984 233.789 352.056 233.541 352.2C233.293 352.344 233.093 352.548 232.941 352.812C232.797 353.076 232.725 353.396 232.725 353.772C232.725 354.14 232.797 354.46 232.941 354.732C233.093 354.996 233.293 355.2 233.541 355.344C233.789 355.488 234.069 355.56 234.381 355.56ZM239.173 357V350.544H240.961V352.368L240.709 351.84C240.901 351.384 241.209 351.04 241.633 350.808C242.057 350.568 242.573 350.448 243.181 350.448V352.176C243.101 352.168 243.029 352.164 242.965 352.164C242.901 352.156 242.833 352.152 242.761 352.152C242.249 352.152 241.833 352.3 241.513 352.596C241.201 352.884 241.045 353.336 241.045 353.952V357H239.173ZM251.891 357.144C251.243 357.144 250.639 357.04 250.079 356.832C249.527 356.616 249.047 356.312 248.639 355.92C248.231 355.528 247.911 355.068 247.679 354.54C247.455 354.012 247.343 353.432 247.343 352.8C247.343 352.168 247.455 351.588 247.679 351.06C247.911 350.532 248.231 350.072 248.639 349.68C249.055 349.288 249.539 348.988 250.091 348.78C250.643 348.564 251.247 348.456 251.903 348.456C252.631 348.456 253.287 348.584 253.871 348.84C254.463 349.088 254.959 349.456 255.359 349.944L254.111 351.096C253.823 350.768 253.503 350.524 253.151 350.364C252.799 350.196 252.415 350.112 251.999 350.112C251.607 350.112 251.247 350.176 250.919 350.304C250.591 350.432 250.307 350.616 250.067 350.856C249.827 351.096 249.639 351.38 249.503 351.708C249.375 352.036 249.311 352.4 249.311 352.8C249.311 353.2 249.375 353.564 249.503 353.892C249.639 354.22 249.827 354.504 250.067 354.744C250.307 354.984 250.591 355.168 250.919 355.296C251.247 355.424 251.607 355.488 251.999 355.488C252.415 355.488 252.799 355.408 253.151 355.248C253.503 355.08 253.823 354.828 254.111 354.492L255.359 355.644C254.959 356.132 254.463 356.504 253.871 356.76C253.287 357.016 252.627 357.144 251.891 357.144ZM260.464 350.448C260.976 350.448 261.432 350.552 261.832 350.76C262.24 350.96 262.56 351.272 262.792 351.696C263.024 352.112 263.14 352.648 263.14 353.304V357H261.268V353.592C261.268 353.072 261.152 352.688 260.92 352.44C260.696 352.192 260.376 352.068 259.96 352.068C259.664 352.068 259.396 352.132 259.156 352.26C258.924 352.38 258.74 352.568 258.604 352.824C258.476 353.08 258.412 353.408 258.412 353.808V357H256.54V348.096H258.412V352.332L257.992 351.792C258.224 351.36 258.556 351.028 258.988 350.796C259.42 350.564 259.912 350.448 260.464 350.448ZM264.837 357V350.544H266.709V357H264.837ZM265.773 349.644C265.429 349.644 265.149 349.544 264.933 349.344C264.717 349.144 264.609 348.896 264.609 348.6C264.609 348.304 264.717 348.056 264.933 347.856C265.149 347.656 265.429 347.556 265.773 347.556C266.117 347.556 266.397 347.652 266.613 347.844C266.829 348.028 266.937 348.268 266.937 348.564C266.937 348.876 266.829 349.136 266.613 349.344C266.405 349.544 266.125 349.644 265.773 349.644ZM272.37 350.448C272.882 350.448 273.338 350.552 273.738 350.76C274.146 350.96 274.466 351.272 274.698 351.696C274.93 352.112 275.046 352.648 275.046 353.304V357H273.174V353.592C273.174 353.072 273.058 352.688 272.826 352.44C272.602 352.192 272.282 352.068 271.866 352.068C271.57 352.068 271.302 352.132 271.062 352.26C270.83 352.38 270.646 352.568 270.51 352.824C270.382 353.08 270.318 353.408 270.318 353.808V357H268.446V350.544H270.234V352.332L269.898 351.792C270.13 351.36 270.462 351.028 270.894 350.796C271.326 350.564 271.818 350.448 272.37 350.448ZM279.994 357.096C279.258 357.096 278.61 356.952 278.05 356.664C277.498 356.376 277.07 355.984 276.766 355.488C276.462 354.984 276.31 354.412 276.31 353.772C276.31 353.124 276.458 352.552 276.754 352.056C277.058 351.552 277.47 351.16 277.99 350.88C278.51 350.592 279.098 350.448 279.754 350.448C280.386 350.448 280.954 350.584 281.458 350.856C281.97 351.12 282.374 351.504 282.67 352.008C282.966 352.504 283.114 353.1 283.114 353.796C283.114 353.868 283.11 353.952 283.102 354.048C283.094 354.136 283.086 354.22 283.078 354.3H277.834V353.208H282.094L281.374 353.532C281.374 353.196 281.306 352.904 281.17 352.656C281.034 352.408 280.846 352.216 280.606 352.08C280.366 351.936 280.086 351.864 279.766 351.864C279.446 351.864 279.162 351.936 278.914 352.08C278.674 352.216 278.486 352.412 278.35 352.668C278.214 352.916 278.146 353.212 278.146 353.556V353.844C278.146 354.196 278.222 354.508 278.374 354.78C278.534 355.044 278.754 355.248 279.034 355.392C279.322 355.528 279.658 355.596 280.042 355.596C280.386 355.596 280.686 355.544 280.942 355.44C281.206 355.336 281.446 355.18 281.662 354.972L282.658 356.052C282.362 356.388 281.99 356.648 281.542 356.832C281.094 357.008 280.578 357.096 279.994 357.096ZM286.532 357.096C285.98 357.096 285.448 357.032 284.936 356.904C284.432 356.768 284.032 356.6 283.736 356.4L284.36 355.056C284.656 355.24 285.004 355.392 285.404 355.512C285.812 355.624 286.212 355.68 286.604 355.68C287.036 355.68 287.34 355.628 287.516 355.524C287.7 355.42 287.792 355.276 287.792 355.092C287.792 354.94 287.72 354.828 287.576 354.756C287.44 354.676 287.256 354.616 287.024 354.576C286.792 354.536 286.536 354.496 286.256 354.456C285.984 354.416 285.708 354.364 285.428 354.3C285.148 354.228 284.892 354.124 284.66 353.988C284.428 353.852 284.24 353.668 284.096 353.436C283.96 353.204 283.892 352.904 283.892 352.536C283.892 352.128 284.008 351.768 284.24 351.456C284.48 351.144 284.824 350.9 285.272 350.724C285.72 350.54 286.256 350.448 286.88 350.448C287.32 350.448 287.768 350.496 288.224 350.592C288.68 350.688 289.06 350.828 289.364 351.012L288.74 352.344C288.428 352.16 288.112 352.036 287.792 351.972C287.48 351.9 287.176 351.864 286.88 351.864C286.464 351.864 286.16 351.92 285.968 352.032C285.776 352.144 285.68 352.288 285.68 352.464C285.68 352.624 285.748 352.744 285.884 352.824C286.028 352.904 286.216 352.968 286.448 353.016C286.68 353.064 286.932 353.108 287.204 353.148C287.484 353.18 287.764 353.232 288.044 353.304C288.324 353.376 288.576 353.48 288.8 353.616C289.032 353.744 289.22 353.924 289.364 354.156C289.508 354.38 289.58 354.676 289.58 355.044C289.58 355.444 289.46 355.8 289.22 356.112C288.98 356.416 288.632 356.656 288.176 356.832C287.728 357.008 287.18 357.096 286.532 357.096ZM293.939 357.096C293.203 357.096 292.555 356.952 291.995 356.664C291.443 356.376 291.015 355.984 290.711 355.488C290.407 354.984 290.255 354.412 290.255 353.772C290.255 353.124 290.403 352.552 290.699 352.056C291.003 351.552 291.415 351.16 291.935 350.88C292.455 350.592 293.043 350.448 293.699 350.448C294.331 350.448 294.899 350.584 295.403 350.856C295.915 351.12 296.319 351.504 296.615 352.008C296.911 352.504 297.059 353.1 297.059 353.796C297.059 353.868 297.055 353.952 297.047 354.048C297.039 354.136 297.031 354.22 297.023 354.3H291.779V353.208H296.039L295.319 353.532C295.319 353.196 295.251 352.904 295.115 352.656C294.979 352.408 294.791 352.216 294.551 352.08C294.311 351.936 294.031 351.864 293.711 351.864C293.391 351.864 293.107 351.936 292.859 352.08C292.619 352.216 292.431 352.412 292.295 352.668C292.159 352.916 292.091 353.212 292.091 353.556V353.844C292.091 354.196 292.167 354.508 292.319 354.78C292.479 355.044 292.699 355.248 292.979 355.392C293.267 355.528 293.603 355.596 293.987 355.596C294.331 355.596 294.631 355.544 294.887 355.44C295.151 355.336 295.391 355.18 295.607 354.972L296.603 356.052C296.307 356.388 295.935 356.648 295.487 356.832C295.039 357.008 294.523 357.096 293.939 357.096ZM152.709 372.096C152.013 372.096 151.393 371.956 150.849 371.676C150.305 371.388 149.877 370.992 149.565 370.488C149.261 369.984 149.109 369.412 149.109 368.772C149.109 368.124 149.261 367.552 149.565 367.056C149.877 366.552 150.305 366.16 150.849 365.88C151.393 365.592 152.013 365.448 152.709 365.448C153.389 365.448 153.981 365.592 154.485 365.88C154.989 366.16 155.361 366.564 155.601 367.092L154.149 367.872C153.981 367.568 153.769 367.344 153.513 367.2C153.265 367.056 152.993 366.984 152.697 366.984C152.377 366.984 152.089 367.056 151.833 367.2C151.577 367.344 151.373 367.548 151.221 367.812C151.077 368.076 151.005 368.396 151.005 368.772C151.005 369.148 151.077 369.468 151.221 369.732C151.373 369.996 151.577 370.2 151.833 370.344C152.089 370.488 152.377 370.56 152.697 370.56C152.993 370.56 153.265 370.492 153.513 370.356C153.769 370.212 153.981 369.984 154.149 369.672L155.601 370.464C155.361 370.984 154.989 371.388 154.485 371.676C153.981 371.956 153.389 372.096 152.709 372.096ZM160.567 365.448C161.079 365.448 161.535 365.552 161.935 365.76C162.343 365.96 162.663 366.272 162.895 366.696C163.127 367.112 163.243 367.648 163.243 368.304V372H161.371V368.592C161.371 368.072 161.255 367.688 161.023 367.44C160.799 367.192 160.479 367.068 160.063 367.068C159.767 367.068 159.499 367.132 159.259 367.26C159.027 367.38 158.843 367.568 158.707 367.824C158.579 368.08 158.515 368.408 158.515 368.808V372H156.643V363.096H158.515V367.332L158.095 366.792C158.327 366.36 158.659 366.028 159.091 365.796C159.523 365.564 160.015 365.448 160.567 365.448ZM164.94 372V365.544H166.728V367.368L166.476 366.84C166.668 366.384 166.976 366.04 167.4 365.808C167.824 365.568 168.34 365.448 168.948 365.448V367.176C168.868 367.168 168.796 367.164 168.732 367.164C168.668 367.156 168.6 367.152 168.528 367.152C168.016 367.152 167.6 367.3 167.28 367.596C166.968 367.884 166.812 368.336 166.812 368.952V372H164.94ZM173.086 372.096C172.398 372.096 171.786 371.952 171.25 371.664C170.722 371.376 170.302 370.984 169.99 370.488C169.686 369.984 169.534 369.412 169.534 368.772C169.534 368.124 169.686 367.552 169.99 367.056C170.302 366.552 170.722 366.16 171.25 365.88C171.786 365.592 172.398 365.448 173.086 365.448C173.766 365.448 174.374 365.592 174.91 365.88C175.446 366.16 175.866 366.548 176.17 367.044C176.474 367.54 176.626 368.116 176.626 368.772C176.626 369.412 176.474 369.984 176.17 370.488C175.866 370.984 175.446 371.376 174.91 371.664C174.374 371.952 173.766 372.096 173.086 372.096ZM173.086 370.56C173.398 370.56 173.678 370.488 173.926 370.344C174.174 370.2 174.37 369.996 174.514 369.732C174.658 369.46 174.73 369.14 174.73 368.772C174.73 368.396 174.658 368.076 174.514 367.812C174.37 367.548 174.174 367.344 173.926 367.2C173.678 367.056 173.398 366.984 173.086 366.984C172.774 366.984 172.494 367.056 172.246 367.2C171.998 367.344 171.798 367.548 171.646 367.812C171.502 368.076 171.43 368.396 171.43 368.772C171.43 369.14 171.502 369.46 171.646 369.732C171.798 369.996 171.998 370.2 172.246 370.344C172.494 370.488 172.774 370.56 173.086 370.56ZM181.802 365.448C182.314 365.448 182.77 365.552 183.17 365.76C183.578 365.96 183.898 366.272 184.13 366.696C184.362 367.112 184.478 367.648 184.478 368.304V372H182.606V368.592C182.606 368.072 182.49 367.688 182.258 367.44C182.034 367.192 181.714 367.068 181.298 367.068C181.002 367.068 180.734 367.132 180.494 367.26C180.262 367.38 180.078 367.568 179.942 367.824C179.814 368.08 179.75 368.408 179.75 368.808V372H177.878V365.544H179.666V367.332L179.33 366.792C179.562 366.36 179.894 366.028 180.326 365.796C180.758 365.564 181.25 365.448 181.802 365.448ZM186.175 372V365.544H188.047V372H186.175ZM187.111 364.644C186.767 364.644 186.487 364.544 186.271 364.344C186.055 364.144 185.947 363.896 185.947 363.6C185.947 363.304 186.055 363.056 186.271 362.856C186.487 362.656 186.767 362.556 187.111 362.556C187.455 362.556 187.735 362.652 187.951 362.844C188.167 363.028 188.275 363.268 188.275 363.564C188.275 363.876 188.167 364.136 187.951 364.344C187.743 364.544 187.463 364.644 187.111 364.644ZM192.904 372.096C192.208 372.096 191.588 371.956 191.044 371.676C190.5 371.388 190.072 370.992 189.76 370.488C189.456 369.984 189.304 369.412 189.304 368.772C189.304 368.124 189.456 367.552 189.76 367.056C190.072 366.552 190.5 366.16 191.044 365.88C191.588 365.592 192.208 365.448 192.904 365.448C193.584 365.448 194.176 365.592 194.68 365.88C195.184 366.16 195.556 366.564 195.796 367.092L194.344 367.872C194.176 367.568 193.964 367.344 193.708 367.2C193.46 367.056 193.188 366.984 192.892 366.984C192.572 366.984 192.284 367.056 192.028 367.2C191.772 367.344 191.568 367.548 191.416 367.812C191.272 368.076 191.2 368.396 191.2 368.772C191.2 369.148 191.272 369.468 191.416 369.732C191.568 369.996 191.772 370.2 192.028 370.344C192.284 370.488 192.572 370.56 192.892 370.56C193.188 370.56 193.46 370.492 193.708 370.356C193.964 370.212 194.176 369.984 194.344 369.672L195.796 370.464C195.556 370.984 195.184 371.388 194.68 371.676C194.176 371.956 193.584 372.096 192.904 372.096ZM204.088 372.096C203.544 372.096 203.068 371.976 202.66 371.736C202.252 371.496 201.932 371.132 201.7 370.644C201.476 370.148 201.364 369.524 201.364 368.772C201.364 368.012 201.472 367.388 201.688 366.9C201.904 366.412 202.216 366.048 202.624 365.808C203.032 365.568 203.52 365.448 204.088 365.448C204.696 365.448 205.24 365.588 205.72 365.868C206.208 366.14 206.592 366.524 206.872 367.02C207.16 367.516 207.304 368.1 207.304 368.772C207.304 369.452 207.16 370.04 206.872 370.536C206.592 371.032 206.208 371.416 205.72 371.688C205.24 371.96 204.696 372.096 204.088 372.096ZM200.272 374.328V365.544H202.06V366.864L202.024 368.784L202.144 370.692V374.328H200.272ZM203.764 370.56C204.076 370.56 204.352 370.488 204.592 370.344C204.84 370.2 205.036 369.996 205.18 369.732C205.332 369.46 205.408 369.14 205.408 368.772C205.408 368.396 205.332 368.076 205.18 367.812C205.036 367.548 204.84 367.344 204.592 367.2C204.352 367.056 204.076 366.984 203.764 366.984C203.452 366.984 203.172 367.056 202.924 367.2C202.676 367.344 202.48 367.548 202.336 367.812C202.192 368.076 202.12 368.396 202.12 368.772C202.12 369.14 202.192 369.46 202.336 369.732C202.48 369.996 202.676 370.2 202.924 370.344C203.172 370.488 203.452 370.56 203.764 370.56ZM212.412 372V370.74L212.292 370.464V368.208C212.292 367.808 212.168 367.496 211.92 367.272C211.68 367.048 211.308 366.936 210.804 366.936C210.46 366.936 210.12 366.992 209.784 367.104C209.456 367.208 209.176 367.352 208.944 367.536L208.272 366.228C208.624 365.98 209.048 365.788 209.544 365.652C210.04 365.516 210.544 365.448 211.056 365.448C212.04 365.448 212.804 365.68 213.348 366.144C213.892 366.608 214.164 367.332 214.164 368.316V372H212.412ZM210.444 372.096C209.94 372.096 209.508 372.012 209.148 371.844C208.788 371.668 208.512 371.432 208.32 371.136C208.128 370.84 208.032 370.508 208.032 370.14C208.032 369.756 208.124 369.42 208.308 369.132C208.5 368.844 208.8 368.62 209.208 368.46C209.616 368.292 210.148 368.208 210.804 368.208H212.52V369.3H211.008C210.568 369.3 210.264 369.372 210.096 369.516C209.936 369.66 209.856 369.84 209.856 370.056C209.856 370.296 209.948 370.488 210.132 370.632C210.324 370.768 210.584 370.836 210.912 370.836C211.224 370.836 211.504 370.764 211.752 370.62C212 370.468 212.18 370.248 212.292 369.96L212.58 370.824C212.444 371.24 212.196 371.556 211.836 371.772C211.476 371.988 211.012 372.096 210.444 372.096ZM218.498 372.096C217.738 372.096 217.146 371.904 216.722 371.52C216.298 371.128 216.086 370.548 216.086 369.78V364.116H217.958V369.756C217.958 370.028 218.03 370.24 218.174 370.392C218.318 370.536 218.514 370.608 218.762 370.608C219.058 370.608 219.31 370.528 219.518 370.368L220.022 371.688C219.83 371.824 219.598 371.928 219.326 372C219.062 372.064 218.786 372.096 218.498 372.096ZM215.09 367.128V365.688H219.566V367.128H215.09ZM221.073 372V365.544H222.945V372H221.073ZM222.009 364.644C221.665 364.644 221.385 364.544 221.169 364.344C220.953 364.144 220.845 363.896 220.845 363.6C220.845 363.304 220.953 363.056 221.169 362.856C221.385 362.656 221.665 362.556 222.009 362.556C222.353 362.556 222.633 362.652 222.849 362.844C223.065 363.028 223.173 363.268 223.173 363.564C223.173 363.876 223.065 364.136 222.849 364.344C222.641 364.544 222.361 364.644 222.009 364.644ZM227.886 372.096C227.15 372.096 226.502 371.952 225.942 371.664C225.39 371.376 224.962 370.984 224.658 370.488C224.354 369.984 224.202 369.412 224.202 368.772C224.202 368.124 224.35 367.552 224.646 367.056C224.95 366.552 225.362 366.16 225.882 365.88C226.402 365.592 226.99 365.448 227.646 365.448C228.278 365.448 228.846 365.584 229.35 365.856C229.862 366.12 230.266 366.504 230.562 367.008C230.858 367.504 231.006 368.1 231.006 368.796C231.006 368.868 231.002 368.952 230.994 369.048C230.986 369.136 230.978 369.22 230.97 369.3H225.726V368.208H229.986L229.266 368.532C229.266 368.196 229.198 367.904 229.062 367.656C228.926 367.408 228.738 367.216 228.498 367.08C228.258 366.936 227.978 366.864 227.658 366.864C227.338 366.864 227.054 366.936 226.806 367.08C226.566 367.216 226.378 367.412 226.242 367.668C226.106 367.916 226.038 368.212 226.038 368.556V368.844C226.038 369.196 226.114 369.508 226.266 369.78C226.426 370.044 226.646 370.248 226.926 370.392C227.214 370.528 227.55 370.596 227.934 370.596C228.278 370.596 228.578 370.544 228.834 370.44C229.098 370.336 229.338 370.18 229.554 369.972L230.55 371.052C230.254 371.388 229.882 371.648 229.434 371.832C228.986 372.008 228.47 372.096 227.886 372.096ZM236.177 365.448C236.689 365.448 237.145 365.552 237.545 365.76C237.953 365.96 238.273 366.272 238.505 366.696C238.737 367.112 238.853 367.648 238.853 368.304V372H236.981V368.592C236.981 368.072 236.865 367.688 236.633 367.44C236.409 367.192 236.089 367.068 235.673 367.068C235.377 367.068 235.109 367.132 234.869 367.26C234.637 367.38 234.453 367.568 234.317 367.824C234.189 368.08 234.125 368.408 234.125 368.808V372H232.253V365.544H234.041V367.332L233.705 366.792C233.937 366.36 234.269 366.028 234.701 365.796C235.133 365.564 235.625 365.448 236.177 365.448ZM243.19 372.096C242.43 372.096 241.838 371.904 241.414 371.52C240.99 371.128 240.778 370.548 240.778 369.78V364.116H242.65V369.756C242.65 370.028 242.722 370.24 242.866 370.392C243.01 370.536 243.206 370.608 243.454 370.608C243.75 370.608 244.002 370.528 244.21 370.368L244.714 371.688C244.522 371.824 244.29 371.928 244.018 372C243.754 372.064 243.478 372.096 243.19 372.096ZM239.782 367.128V365.688H244.258V367.128H239.782ZM247.936 372.096C247.384 372.096 246.852 372.032 246.34 371.904C245.836 371.768 245.436 371.6 245.14 371.4L245.764 370.056C246.06 370.24 246.408 370.392 246.808 370.512C247.216 370.624 247.616 370.68 248.008 370.68C248.44 370.68 248.744 370.628 248.92 370.524C249.104 370.42 249.196 370.276 249.196 370.092C249.196 369.94 249.124 369.828 248.98 369.756C248.844 369.676 248.66 369.616 248.428 369.576C248.196 369.536 247.94 369.496 247.66 369.456C247.388 369.416 247.112 369.364 246.832 369.3C246.552 369.228 246.296 369.124 246.064 368.988C245.832 368.852 245.644 368.668 245.5 368.436C245.364 368.204 245.296 367.904 245.296 367.536C245.296 367.128 245.412 366.768 245.644 366.456C245.884 366.144 246.228 365.9 246.676 365.724C247.124 365.54 247.66 365.448 248.284 365.448C248.724 365.448 249.172 365.496 249.628 365.592C250.084 365.688 250.464 365.828 250.768 366.012L250.144 367.344C249.832 367.16 249.516 367.036 249.196 366.972C248.884 366.9 248.58 366.864 248.284 366.864C247.868 366.864 247.564 366.92 247.372 367.032C247.18 367.144 247.084 367.288 247.084 367.464C247.084 367.624 247.152 367.744 247.288 367.824C247.432 367.904 247.62 367.968 247.852 368.016C248.084 368.064 248.336 368.108 248.608 368.148C248.888 368.18 249.168 368.232 249.448 368.304C249.728 368.376 249.98 368.48 250.204 368.616C250.436 368.744 250.624 368.924 250.768 369.156C250.912 369.38 250.984 369.676 250.984 370.044C250.984 370.444 250.864 370.8 250.624 371.112C250.384 371.416 250.036 371.656 249.58 371.832C249.132 372.008 248.584 372.096 247.936 372.096Z" fill="white"/>
</svg>
