<svg width="400" height="400" viewBox="0 0 400 400" fill="none" xmlns="http://www.w3.org/2000/svg">
<circle cx="200" cy="200" r="200" fill="#2444F5"/>
<path d="M135.806 73V56.36H129.758V52.392H147.006V56.36H140.958V73H135.806ZM146.913 73V57.832H151.809L151.969 59.24C152.631 58.8347 153.452 58.472 154.433 58.152C155.415 57.8107 156.396 57.5973 157.377 57.512V61.384C156.823 61.448 156.204 61.5547 155.521 61.704C154.86 61.832 154.22 61.992 153.601 62.184C153.004 62.376 152.492 62.5787 152.065 62.792V73H146.913ZM163.087 73.32C162.127 73.32 161.231 73.1493 160.399 72.808C159.588 72.4667 158.937 71.944 158.447 71.24C157.956 70.5147 157.711 69.6187 157.711 68.552C157.711 66.9947 158.233 65.7787 159.279 64.904C160.345 64.008 161.935 63.56 164.047 63.56H168.271V63.208C168.271 62.44 168.015 61.896 167.503 61.576C166.991 61.2347 166.031 61.064 164.623 61.064C162.895 61.064 161.199 61.3307 159.535 61.864V58.536C160.281 58.2373 161.188 57.992 162.255 57.8C163.343 57.608 164.484 57.512 165.679 57.512C168.025 57.512 169.86 57.992 171.183 58.952C172.527 59.912 173.199 61.4373 173.199 63.528V73H168.687L168.431 71.72C167.876 72.232 167.161 72.6267 166.287 72.904C165.433 73.1813 164.367 73.32 163.087 73.32ZM164.719 70.152C165.529 70.152 166.233 70.0133 166.831 69.736C167.428 69.4587 167.908 69.1067 168.271 68.68V66.536H164.623C163.108 66.536 162.351 67.144 162.351 68.36C162.351 68.9147 162.543 69.352 162.927 69.672C163.311 69.992 163.908 70.152 164.719 70.152ZM184.288 73.32C181.579 73.32 179.456 72.6587 177.92 71.336C176.406 70.0133 175.648 68.04 175.648 65.416C175.648 62.7493 176.438 60.7653 178.016 59.464C179.616 58.1627 181.739 57.512 184.384 57.512C185.494 57.512 186.454 57.5973 187.264 57.768C188.096 57.9173 188.896 58.1733 189.664 58.536V62.184C188.47 61.608 187.072 61.32 185.472 61.32C183.979 61.32 182.838 61.6187 182.048 62.216C181.28 62.8133 180.896 63.88 180.896 65.416C180.896 66.8453 181.259 67.8907 181.984 68.552C182.71 69.192 183.862 69.512 185.44 69.512C186.998 69.512 188.416 69.192 189.696 68.552V72.36C188.928 72.7013 188.096 72.9467 187.2 73.096C186.326 73.2453 185.355 73.32 184.288 73.32ZM192.32 73V51.432H197.472V62.696L202.432 57.832H208.288L202.208 64.136L208.64 73H203.168L198.976 66.856L197.472 68.328V73H192.32ZM216.82 73.32C214.11 73.32 211.988 72.6587 210.452 71.336C208.937 70.0133 208.18 68.04 208.18 65.416C208.18 62.7493 208.969 60.7653 210.548 59.464C212.148 58.1627 214.27 57.512 216.916 57.512C218.025 57.512 218.985 57.5973 219.796 57.768C220.628 57.9173 221.428 58.1733 222.196 58.536V62.184C221.001 61.608 219.604 61.32 218.004 61.32C216.51 61.32 215.369 61.6187 214.58 62.216C213.812 62.8133 213.428 63.88 213.428 65.416C213.428 66.8453 213.79 67.8907 214.516 68.552C215.241 69.192 216.393 69.512 217.972 69.512C219.529 69.512 220.948 69.192 222.228 68.552V72.36C221.46 72.7013 220.628 72.9467 219.732 73.096C218.857 73.2453 217.886 73.32 216.82 73.32ZM232.755 73.32C229.832 73.32 227.677 72.648 226.291 71.304C224.904 69.9387 224.211 67.976 224.211 65.416C224.211 62.8773 224.904 60.9253 226.291 59.56C227.699 58.1947 229.853 57.512 232.755 57.512C235.677 57.512 237.832 58.1947 239.219 59.56C240.627 60.9253 241.331 62.8773 241.331 65.416C241.331 67.976 240.637 69.9387 239.251 71.304C237.864 72.648 235.699 73.32 232.755 73.32ZM232.755 69.288C233.949 69.288 234.803 68.9893 235.315 68.392C235.827 67.7947 236.083 66.8027 236.083 65.416C236.083 64.0293 235.827 63.0373 235.315 62.44C234.803 61.8427 233.949 61.544 232.755 61.544C231.581 61.544 230.739 61.8427 230.227 62.44C229.715 63.0373 229.459 64.0293 229.459 65.416C229.459 66.8027 229.715 67.7947 230.227 68.392C230.739 68.9893 231.581 69.288 232.755 69.288ZM244.344 55.432V51.56H249.944V55.432H244.344ZM244.76 73V61.64H242.52L242.968 57.832H249.911V73H244.76ZM253.195 73V57.832H257.995L258.155 59.144C258.773 58.7173 259.552 58.344 260.491 58.024C261.429 57.6827 262.432 57.512 263.499 57.512C265.461 57.512 266.891 57.9813 267.787 58.92C268.683 59.8587 269.131 61.3093 269.131 63.272V73H263.979V63.688C263.979 62.8347 263.797 62.2267 263.435 61.864C263.072 61.5013 262.421 61.32 261.483 61.32C260.928 61.32 260.363 61.448 259.786 61.704C259.211 61.96 258.731 62.28 258.347 62.664V73H253.195Z" fill="black"/>
<path d="M160.47 363L165.39 350.12H167.83L172.71 363H170.47L169.19 359.68H164.01L162.73 363H160.47ZM164.35 358H168.83L166.59 352.1L164.35 358ZM183.383 363.2C182.53 363.2 181.776 363.053 181.123 362.76C180.47 362.467 179.963 361.98 179.603 361.3C179.243 360.62 179.063 359.707 179.063 358.56C179.063 357.427 179.256 356.473 179.643 355.7C180.03 354.913 180.563 354.32 181.243 353.92C181.936 353.52 182.716 353.32 183.583 353.32C184.156 353.32 184.663 353.387 185.103 353.52C185.556 353.653 185.99 353.86 186.403 354.14V349.52H188.583V363H186.723L186.583 362.06C186.156 362.447 185.69 362.733 185.183 362.92C184.676 363.107 184.076 363.2 183.383 363.2ZM183.963 361.56C184.936 361.56 185.75 361.227 186.403 360.56V355.82C185.776 355.26 184.99 354.98 184.043 354.98C183.123 354.98 182.43 355.287 181.963 355.9C181.496 356.513 181.263 357.407 181.263 358.58C181.263 359.713 181.476 360.493 181.903 360.92C182.343 361.347 183.03 361.56 183.963 361.56ZM195.448 363.2C193.742 363.2 192.488 362.773 191.688 361.92C190.902 361.067 190.508 359.847 190.508 358.26C190.508 356.673 190.908 355.453 191.708 354.6C192.508 353.747 193.755 353.32 195.448 353.32C197.155 353.32 198.408 353.747 199.208 354.6C200.008 355.453 200.408 356.673 200.408 358.26C200.408 359.847 200.008 361.067 199.208 361.92C198.422 362.773 197.168 363.2 195.448 363.2ZM195.448 361.36C196.448 361.36 197.155 361.12 197.568 360.64C197.995 360.147 198.208 359.353 198.208 358.26C198.208 357.167 197.995 356.38 197.568 355.9C197.155 355.42 196.448 355.18 195.448 355.18C194.462 355.18 193.755 355.42 193.328 355.9C192.915 356.38 192.708 357.167 192.708 358.26C192.708 359.353 192.915 360.147 193.328 360.64C193.755 361.12 194.462 361.36 195.448 361.36ZM202.53 363V353.52H204.53L204.63 354.52C205.056 354.187 205.563 353.907 206.15 353.68C206.75 353.44 207.41 353.32 208.13 353.32C209.356 353.32 210.25 353.607 210.81 354.18C211.37 354.753 211.65 355.647 211.65 356.86V363H209.49V356.96C209.49 356.227 209.336 355.713 209.03 355.42C208.736 355.127 208.176 354.98 207.35 354.98C206.856 354.98 206.37 355.08 205.89 355.28C205.423 355.48 205.03 355.74 204.71 356.06V363H202.53ZM216.759 363.2C216.159 363.2 215.599 363.093 215.079 362.88C214.572 362.667 214.166 362.347 213.859 361.92C213.552 361.48 213.399 360.94 213.399 360.3C213.399 359.393 213.706 358.667 214.319 358.12C214.946 357.56 215.906 357.28 217.199 357.28H220.239V356.86C220.239 356.407 220.166 356.047 220.019 355.78C219.886 355.513 219.632 355.32 219.259 355.2C218.899 355.08 218.366 355.02 217.659 355.02C216.539 355.02 215.492 355.187 214.519 355.52V353.9C214.946 353.727 215.466 353.587 216.079 353.48C216.692 353.373 217.352 353.32 218.059 353.32C219.446 353.32 220.499 353.6 221.219 354.16C221.952 354.72 222.319 355.633 222.319 356.9V363H220.459L220.319 362.04C219.932 362.413 219.452 362.7 218.879 362.9C218.319 363.1 217.612 363.2 216.759 363.2ZM217.339 361.64C217.992 361.64 218.559 361.533 219.039 361.32C219.532 361.093 219.932 360.793 220.239 360.42V358.76H217.239C216.599 358.76 216.132 358.887 215.839 359.14C215.559 359.38 215.419 359.753 215.419 360.26C215.419 360.753 215.586 361.107 215.919 361.32C216.252 361.533 216.726 361.64 217.339 361.64ZM228.357 363.2C227.343 363.2 226.583 362.933 226.077 362.4C225.583 361.853 225.337 361.113 225.337 360.18V355.22H223.937V353.52H225.337V351.34L227.497 350.68V353.52H230.017L229.877 355.22H227.497V360.06C227.497 360.607 227.623 360.993 227.877 361.22C228.13 361.433 228.543 361.54 229.117 361.54C229.477 361.54 229.857 361.473 230.257 361.34V362.88C229.737 363.093 229.103 363.2 228.357 363.2ZM232.724 351.54V349.74H235.104V351.54H232.724ZM232.904 363V355.18H231.464L231.664 353.52H235.084V363H232.904ZM242.167 363.2C240.461 363.2 239.207 362.773 238.407 361.92C237.621 361.067 237.227 359.847 237.227 358.26C237.227 356.673 237.627 355.453 238.427 354.6C239.227 353.747 240.474 353.32 242.167 353.32C243.874 353.32 245.127 353.747 245.927 354.6C246.727 355.453 247.127 356.673 247.127 358.26C247.127 359.847 246.727 361.067 245.927 361.92C245.141 362.773 243.887 363.2 242.167 363.2ZM242.167 361.36C243.167 361.36 243.874 361.12 244.287 360.64C244.714 360.147 244.927 359.353 244.927 358.26C244.927 357.167 244.714 356.38 244.287 355.9C243.874 355.42 243.167 355.18 242.167 355.18C241.181 355.18 240.474 355.42 240.047 355.9C239.634 356.38 239.427 357.167 239.427 358.26C239.427 359.353 239.634 360.147 240.047 360.64C240.474 361.12 241.181 361.36 242.167 361.36ZM249.248 363V353.52H251.248L251.348 354.52C251.775 354.187 252.282 353.907 252.868 353.68C253.468 353.44 254.128 353.32 254.848 353.32C256.075 353.32 256.968 353.607 257.528 354.18C258.088 354.753 258.368 355.647 258.368 356.86V363H256.208V356.96C256.208 356.227 256.055 355.713 255.748 355.42C255.455 355.127 254.895 354.98 254.068 354.98C253.575 354.98 253.088 355.08 252.608 355.28C252.142 355.48 251.748 355.74 251.428 356.06V363H249.248ZM268.38 363.2C267.78 363.2 267.22 363.093 266.7 362.88C266.193 362.667 265.787 362.347 265.48 361.92C265.173 361.48 265.02 360.94 265.02 360.3C265.02 359.393 265.327 358.667 265.94 358.12C266.567 357.56 267.527 357.28 268.82 357.28H271.86V356.86C271.86 356.407 271.787 356.047 271.64 355.78C271.507 355.513 271.253 355.32 270.88 355.2C270.52 355.08 269.987 355.02 269.28 355.02C268.16 355.02 267.113 355.187 266.14 355.52V353.9C266.567 353.727 267.087 353.587 267.7 353.48C268.313 353.373 268.973 353.32 269.68 353.32C271.067 353.32 272.12 353.6 272.84 354.16C273.573 354.72 273.94 355.633 273.94 356.9V363H272.08L271.94 362.04C271.553 362.413 271.073 362.7 270.5 362.9C269.94 363.1 269.233 363.2 268.38 363.2ZM268.96 361.64C269.613 361.64 270.18 361.533 270.66 361.32C271.153 361.093 271.553 360.793 271.86 360.42V358.76H268.86C268.22 358.76 267.753 358.887 267.46 359.14C267.18 359.38 267.04 359.753 267.04 360.26C267.04 360.753 267.207 361.107 267.54 361.32C267.873 361.533 268.347 361.64 268.96 361.64ZM276.358 367.32V353.52H278.238L278.358 354.46C278.784 354.073 279.251 353.787 279.758 353.6C280.264 353.413 280.864 353.32 281.558 353.32C282.918 353.32 283.978 353.693 284.738 354.44C285.498 355.173 285.878 356.393 285.878 358.1C285.878 359.807 285.484 361.087 284.698 361.94C283.911 362.78 282.838 363.2 281.478 363.2C280.331 363.2 279.351 362.933 278.538 362.4V367.32H276.358ZM280.918 361.56C282.758 361.56 283.678 360.4 283.678 358.08C283.678 356.96 283.471 356.167 283.058 355.7C282.644 355.22 281.951 354.98 280.978 354.98C280.004 354.98 279.191 355.313 278.538 355.98V360.72C278.844 360.973 279.184 361.18 279.558 361.34C279.944 361.487 280.398 361.56 280.918 361.56ZM287.998 367.32V353.52H289.878L289.998 354.46C290.425 354.073 290.892 353.787 291.398 353.6C291.905 353.413 292.505 353.32 293.198 353.32C294.558 353.32 295.618 353.693 296.378 354.44C297.138 355.173 297.518 356.393 297.518 358.1C297.518 359.807 297.125 361.087 296.338 361.94C295.552 362.78 294.478 363.2 293.118 363.2C291.972 363.2 290.992 362.933 290.178 362.4V367.32H287.998ZM292.558 361.56C294.398 361.56 295.318 360.4 295.318 358.08C295.318 356.96 295.112 356.167 294.698 355.7C294.285 355.22 293.592 354.98 292.618 354.98C291.645 354.98 290.832 355.313 290.178 355.98V360.72C290.485 360.973 290.825 361.18 291.198 361.34C291.585 361.487 292.038 361.56 292.558 361.56ZM301.999 363.2C301.226 363.2 300.639 363.013 300.239 362.64C299.839 362.253 299.639 361.62 299.639 360.74V349.52H301.819V360.54C301.819 360.913 301.886 361.167 302.019 361.3C302.152 361.433 302.352 361.5 302.619 361.5C302.939 361.5 303.246 361.46 303.539 361.38V362.96C303.286 363.053 303.039 363.113 302.799 363.14C302.572 363.18 302.306 363.2 301.999 363.2ZM305.341 351.54V349.74H307.721V351.54H305.341ZM305.521 363V355.18H304.081L304.281 353.52H307.701V363H305.521ZM314.904 363.2C313.238 363.2 311.978 362.78 311.124 361.94C310.271 361.087 309.844 359.86 309.844 358.26C309.844 356.593 310.311 355.353 311.244 354.54C312.191 353.727 313.451 353.32 315.024 353.32C315.678 353.32 316.224 353.367 316.664 353.46C317.118 353.553 317.551 353.7 317.964 353.9V355.52C317.271 355.173 316.431 355 315.444 355C314.351 355 313.511 355.247 312.924 355.74C312.338 356.22 312.044 357.06 312.044 358.26C312.044 359.393 312.304 360.227 312.824 360.76C313.344 361.28 314.204 361.54 315.404 361.54C316.351 361.54 317.211 361.36 317.984 361V362.66C317.544 362.833 317.071 362.967 316.564 363.06C316.071 363.153 315.518 363.2 314.904 363.2ZM322.677 363.2C322.077 363.2 321.517 363.093 320.997 362.88C320.49 362.667 320.084 362.347 319.777 361.92C319.47 361.48 319.317 360.94 319.317 360.3C319.317 359.393 319.624 358.667 320.237 358.12C320.864 357.56 321.824 357.28 323.117 357.28H326.157V356.86C326.157 356.407 326.084 356.047 325.937 355.78C325.804 355.513 325.55 355.32 325.177 355.2C324.817 355.08 324.284 355.02 323.577 355.02C322.457 355.02 321.41 355.187 320.437 355.52V353.9C320.864 353.727 321.384 353.587 321.997 353.48C322.61 353.373 323.27 353.32 323.977 353.32C325.364 353.32 326.417 353.6 327.137 354.16C327.87 354.72 328.237 355.633 328.237 356.9V363H326.377L326.237 362.04C325.85 362.413 325.37 362.7 324.797 362.9C324.237 363.1 323.53 363.2 322.677 363.2ZM323.257 361.64C323.91 361.64 324.477 361.533 324.957 361.32C325.45 361.093 325.85 360.793 326.157 360.42V358.76H323.157C322.517 358.76 322.05 358.887 321.757 359.14C321.477 359.38 321.337 359.753 321.337 360.26C321.337 360.753 321.504 361.107 321.837 361.32C322.17 361.533 322.644 361.64 323.257 361.64ZM334.275 363.2C333.261 363.2 332.501 362.933 331.995 362.4C331.501 361.853 331.255 361.113 331.255 360.18V355.22H329.855V353.52H331.255V351.34L333.415 350.68V353.52H335.935L335.795 355.22H333.415V360.06C333.415 360.607 333.541 360.993 333.795 361.22C334.048 361.433 334.461 361.54 335.035 361.54C335.395 361.54 335.775 361.473 336.175 361.34V362.88C335.655 363.093 335.021 363.2 334.275 363.2ZM338.642 351.54V349.74H341.022V351.54H338.642ZM338.822 363V355.18H337.382L337.582 353.52H341.002V363H338.822ZM348.085 363.2C346.378 363.2 345.125 362.773 344.325 361.92C343.538 361.067 343.145 359.847 343.145 358.26C343.145 356.673 343.545 355.453 344.345 354.6C345.145 353.747 346.392 353.32 348.085 353.32C349.792 353.32 351.045 353.747 351.845 354.6C352.645 355.453 353.045 356.673 353.045 358.26C353.045 359.847 352.645 361.067 351.845 361.92C351.058 362.773 349.805 363.2 348.085 363.2ZM348.085 361.36C349.085 361.36 349.792 361.12 350.205 360.64C350.632 360.147 350.845 359.353 350.845 358.26C350.845 357.167 350.632 356.38 350.205 355.9C349.792 355.42 349.085 355.18 348.085 355.18C347.098 355.18 346.392 355.42 345.965 355.9C345.552 356.38 345.345 357.167 345.345 358.26C345.345 359.353 345.552 360.147 345.965 360.64C346.392 361.12 347.098 361.36 348.085 361.36ZM355.166 363V353.52H357.166L357.266 354.52C357.693 354.187 358.2 353.907 358.786 353.68C359.386 353.44 360.046 353.32 360.766 353.32C361.993 353.32 362.886 353.607 363.446 354.18C364.006 354.753 364.286 355.647 364.286 356.86V363H362.126V356.96C362.126 356.227 361.973 355.713 361.666 355.42C361.373 355.127 360.813 354.98 359.986 354.98C359.493 354.98 359.006 355.08 358.526 355.28C358.06 355.48 357.666 355.74 357.346 356.06V363H355.166ZM371.918 363V355.22H370.538V353.52H371.918V352.36C371.918 351.413 372.178 350.653 372.698 350.08C373.231 349.493 374.018 349.2 375.058 349.2C375.445 349.2 375.798 349.233 376.118 349.3C376.438 349.353 376.731 349.433 376.998 349.54V351.1C376.585 350.953 376.165 350.88 375.738 350.88C375.111 350.88 374.678 350.993 374.438 351.22C374.198 351.447 374.078 351.833 374.078 352.38V353.52H376.558L376.458 355.22H374.078V363H371.918ZM382.382 363.2C380.675 363.2 379.422 362.773 378.622 361.92C377.835 361.067 377.442 359.847 377.442 358.26C377.442 356.673 377.842 355.453 378.642 354.6C379.442 353.747 380.689 353.32 382.382 353.32C384.089 353.32 385.342 353.747 386.142 354.6C386.942 355.453 387.342 356.673 387.342 358.26C387.342 359.847 386.942 361.067 386.142 361.92C385.355 362.773 384.102 363.2 382.382 363.2ZM382.382 361.36C383.382 361.36 384.089 361.12 384.502 360.64C384.929 360.147 385.142 359.353 385.142 358.26C385.142 357.167 384.929 356.38 384.502 355.9C384.089 355.42 383.382 355.18 382.382 355.18C381.395 355.18 380.689 355.42 380.262 355.9C379.849 356.38 379.642 357.167 379.642 358.26C379.642 359.353 379.849 360.147 380.262 360.64C380.689 361.12 381.395 361.36 382.382 361.36ZM389.463 363V353.52H391.463L391.583 354.62C392.036 354.327 392.576 354.06 393.203 353.82C393.83 353.58 394.45 353.413 395.063 353.32V354.98C394.69 355.047 394.283 355.147 393.843 355.28C393.416 355.4 393.01 355.54 392.623 355.7C392.236 355.847 391.91 356 391.643 356.16V363H389.463ZM249.658 381.54V379.74H252.038V381.54H249.658ZM249.838 393V385.18H248.398L248.598 383.52H252.018V393H249.838ZM254.561 393V383.52H256.561L256.661 384.52C257.087 384.187 257.594 383.907 258.181 383.68C258.781 383.44 259.441 383.32 260.161 383.32C261.387 383.32 262.281 383.607 262.841 384.18C263.401 384.753 263.681 385.647 263.681 386.86V393H261.521V386.96C261.521 386.227 261.367 385.713 261.061 385.42C260.767 385.127 260.207 384.98 259.381 384.98C258.887 384.98 258.401 385.08 257.921 385.28C257.454 385.48 257.061 385.74 256.741 386.06V393H254.561ZM266.703 393V385.22H265.323V383.52H266.703V382.36C266.703 381.413 266.963 380.653 267.483 380.08C268.017 379.493 268.803 379.2 269.843 379.2C270.23 379.2 270.583 379.233 270.903 379.3C271.223 379.353 271.517 379.433 271.783 379.54V381.1C271.37 380.953 270.95 380.88 270.523 380.88C269.897 380.88 269.463 380.993 269.223 381.22C268.983 381.447 268.863 381.833 268.863 382.38V383.52H271.343L271.243 385.22H268.863V393H266.703ZM277.427 393.2C275.774 393.2 274.494 392.793 273.587 391.98C272.681 391.167 272.227 389.92 272.227 388.24C272.227 386.72 272.614 385.52 273.387 384.64C274.161 383.76 275.334 383.32 276.907 383.32C278.347 383.32 279.427 383.7 280.147 384.46C280.881 385.207 281.247 386.173 281.247 387.36V389.12H274.307C274.414 390.04 274.747 390.673 275.307 391.02C275.867 391.367 276.721 391.54 277.867 391.54C278.347 391.54 278.841 391.493 279.347 391.4C279.854 391.307 280.294 391.187 280.667 391.04V392.64C280.241 392.827 279.747 392.967 279.187 393.06C278.641 393.153 278.054 393.2 277.427 393.2ZM274.307 387.7H279.327V387.04C279.327 386.387 279.147 385.88 278.787 385.52C278.427 385.147 277.821 384.96 276.967 384.96C275.954 384.96 275.254 385.18 274.867 385.62C274.494 386.06 274.307 386.753 274.307 387.7ZM288.029 393.2C286.363 393.2 285.103 392.78 284.249 391.94C283.396 391.087 282.969 389.86 282.969 388.26C282.969 386.593 283.436 385.353 284.369 384.54C285.316 383.727 286.576 383.32 288.149 383.32C288.803 383.32 289.349 383.367 289.789 383.46C290.243 383.553 290.676 383.7 291.089 383.9V385.52C290.396 385.173 289.556 385 288.569 385C287.476 385 286.636 385.247 286.049 385.74C285.463 386.22 285.169 387.06 285.169 388.26C285.169 389.393 285.429 390.227 285.949 390.76C286.469 391.28 287.329 391.54 288.529 391.54C289.476 391.54 290.336 391.36 291.109 391V392.66C290.669 392.833 290.196 392.967 289.689 393.06C289.196 393.153 288.643 393.2 288.029 393.2ZM296.462 393.2C295.449 393.2 294.689 392.933 294.182 392.4C293.689 391.853 293.442 391.113 293.442 390.18V385.22H292.042V383.52H293.442V381.34L295.602 380.68V383.52H298.122L297.982 385.22H295.602V390.06C295.602 390.607 295.729 390.993 295.982 391.22C296.235 391.433 296.649 391.54 297.222 391.54C297.582 391.54 297.962 391.473 298.362 391.34V392.88C297.842 393.093 297.209 393.2 296.462 393.2ZM304.83 393.2C303.176 393.2 301.896 392.793 300.99 391.98C300.083 391.167 299.63 389.92 299.63 388.24C299.63 386.72 300.016 385.52 300.79 384.64C301.563 383.76 302.736 383.32 304.31 383.32C305.75 383.32 306.83 383.7 307.55 384.46C308.283 385.207 308.65 386.173 308.65 387.36V389.12H301.71C301.816 390.04 302.15 390.673 302.71 391.02C303.27 391.367 304.123 391.54 305.27 391.54C305.75 391.54 306.243 391.493 306.75 391.4C307.256 391.307 307.696 391.187 308.07 391.04V392.64C307.643 392.827 307.15 392.967 306.59 393.06C306.043 393.153 305.456 393.2 304.83 393.2ZM301.71 387.7H306.73V387.04C306.73 386.387 306.55 385.88 306.19 385.52C305.83 385.147 305.223 384.96 304.37 384.96C303.356 384.96 302.656 385.18 302.27 385.62C301.896 386.06 301.71 386.753 301.71 387.7ZM314.692 393.2C313.838 393.2 313.085 393.053 312.432 392.76C311.778 392.467 311.272 391.98 310.912 391.3C310.552 390.62 310.372 389.707 310.372 388.56C310.372 387.427 310.565 386.473 310.952 385.7C311.338 384.913 311.872 384.32 312.552 383.92C313.245 383.52 314.025 383.32 314.892 383.32C315.465 383.32 315.972 383.387 316.412 383.52C316.865 383.653 317.298 383.86 317.712 384.14V379.52H319.892V393H318.032L317.892 392.06C317.465 392.447 316.998 392.733 316.492 392.92C315.985 393.107 315.385 393.2 314.692 393.2ZM315.272 391.56C316.245 391.56 317.058 391.227 317.712 390.56V385.82C317.085 385.26 316.298 384.98 315.352 384.98C314.432 384.98 313.738 385.287 313.272 385.9C312.805 386.513 312.572 387.407 312.572 388.58C312.572 389.713 312.785 390.493 313.212 390.92C313.652 391.347 314.338 391.56 315.272 391.56ZM327.022 397.32V383.52H328.902L329.022 384.46C329.448 384.073 329.915 383.787 330.422 383.6C330.928 383.413 331.528 383.32 332.222 383.32C333.582 383.32 334.642 383.693 335.402 384.44C336.162 385.173 336.542 386.393 336.542 388.1C336.542 389.807 336.148 391.087 335.362 391.94C334.575 392.78 333.502 393.2 332.142 393.2C330.995 393.2 330.015 392.933 329.202 392.4V397.32H327.022ZM331.582 391.56C333.422 391.56 334.342 390.4 334.342 388.08C334.342 386.96 334.135 386.167 333.722 385.7C333.308 385.22 332.615 384.98 331.642 384.98C330.668 384.98 329.855 385.313 329.202 385.98V390.72C329.508 390.973 329.848 391.18 330.222 391.34C330.608 391.487 331.062 391.56 331.582 391.56ZM341.622 393.2C341.022 393.2 340.462 393.093 339.942 392.88C339.436 392.667 339.029 392.347 338.722 391.92C338.416 391.48 338.262 390.94 338.262 390.3C338.262 389.393 338.569 388.667 339.182 388.12C339.809 387.56 340.769 387.28 342.062 387.28H345.102V386.86C345.102 386.407 345.029 386.047 344.882 385.78C344.749 385.513 344.496 385.32 344.122 385.2C343.762 385.08 343.229 385.02 342.522 385.02C341.402 385.02 340.356 385.187 339.382 385.52V383.9C339.809 383.727 340.329 383.587 340.942 383.48C341.556 383.373 342.216 383.32 342.922 383.32C344.309 383.32 345.362 383.6 346.082 384.16C346.816 384.72 347.182 385.633 347.182 386.9V393H345.322L345.182 392.04C344.796 392.413 344.316 392.7 343.742 392.9C343.182 393.1 342.476 393.2 341.622 393.2ZM342.202 391.64C342.856 391.64 343.422 391.533 343.902 391.32C344.396 391.093 344.796 390.793 345.102 390.42V388.76H342.102C341.462 388.76 340.996 388.887 340.702 389.14C340.422 389.38 340.282 389.753 340.282 390.26C340.282 390.753 340.449 391.107 340.782 391.32C341.116 391.533 341.589 391.64 342.202 391.64ZM353.22 393.2C352.207 393.2 351.447 392.933 350.94 392.4C350.447 391.853 350.2 391.113 350.2 390.18V385.22H348.8V383.52H350.2V381.34L352.36 380.68V383.52H354.88L354.74 385.22H352.36V390.06C352.36 390.607 352.487 390.993 352.74 391.22C352.993 391.433 353.407 391.54 353.98 391.54C354.34 391.54 354.72 391.473 355.12 391.34V392.88C354.6 393.093 353.967 393.2 353.22 393.2ZM357.587 381.54V379.74H359.967V381.54H357.587ZM357.767 393V385.18H356.327L356.527 383.52H359.947V393H357.767ZM367.29 393.2C365.637 393.2 364.357 392.793 363.45 391.98C362.544 391.167 362.09 389.92 362.09 388.24C362.09 386.72 362.477 385.52 363.25 384.64C364.024 383.76 365.197 383.32 366.77 383.32C368.21 383.32 369.29 383.7 370.01 384.46C370.744 385.207 371.11 386.173 371.11 387.36V389.12H364.17C364.277 390.04 364.61 390.673 365.17 391.02C365.73 391.367 366.584 391.54 367.73 391.54C368.21 391.54 368.704 391.493 369.21 391.4C369.717 391.307 370.157 391.187 370.53 391.04V392.64C370.104 392.827 369.61 392.967 369.05 393.06C368.504 393.153 367.917 393.2 367.29 393.2ZM364.17 387.7H369.19V387.04C369.19 386.387 369.01 385.88 368.65 385.52C368.29 385.147 367.684 384.96 366.83 384.96C365.817 384.96 365.117 385.18 364.73 385.62C364.357 386.06 364.17 386.753 364.17 387.7ZM373.233 393V383.52H375.233L375.333 384.52C375.759 384.187 376.266 383.907 376.853 383.68C377.453 383.44 378.113 383.32 378.833 383.32C380.059 383.32 380.953 383.607 381.513 384.18C382.073 384.753 382.353 385.647 382.353 386.86V393H380.193V386.96C380.193 386.227 380.039 385.713 379.733 385.42C379.439 385.127 378.879 384.98 378.053 384.98C377.559 384.98 377.073 385.08 376.593 385.28C376.126 385.48 375.733 385.74 375.413 386.06V393H373.233ZM388.415 393.2C387.402 393.2 386.642 392.933 386.135 392.4C385.642 391.853 385.395 391.113 385.395 390.18V385.22H383.995V383.52H385.395V381.34L387.555 380.68V383.52H390.075L389.935 385.22H387.555V390.06C387.555 390.607 387.682 390.993 387.935 391.22C388.188 391.433 388.602 391.54 389.175 391.54C389.535 391.54 389.915 391.473 390.315 391.34V392.88C389.795 393.093 389.162 393.2 388.415 393.2ZM395.143 393.2C394.489 393.2 393.863 393.153 393.263 393.06C392.676 392.967 392.189 392.853 391.803 392.72V390.88C392.256 391.053 392.756 391.187 393.303 391.28C393.849 391.373 394.369 391.42 394.863 391.42C395.609 391.42 396.143 391.353 396.463 391.22C396.783 391.087 396.943 390.827 396.943 390.44C396.943 390.16 396.843 389.94 396.643 389.78C396.456 389.62 396.169 389.473 395.783 389.34C395.409 389.207 394.929 389.047 394.343 388.86C393.783 388.673 393.296 388.473 392.883 388.26C392.469 388.033 392.149 387.747 391.923 387.4C391.696 387.053 391.583 386.6 391.583 386.04C391.583 385.173 391.896 384.507 392.523 384.04C393.149 383.56 394.156 383.32 395.543 383.32C396.089 383.32 396.609 383.36 397.103 383.44C397.596 383.52 398.016 383.62 398.363 383.74V385.56C397.989 385.413 397.576 385.3 397.123 385.22C396.683 385.14 396.269 385.1 395.883 385.1C395.189 385.1 394.663 385.16 394.303 385.28C393.956 385.4 393.783 385.64 393.783 386C393.783 386.373 393.963 386.64 394.323 386.8C394.696 386.947 395.289 387.153 396.103 387.42C396.849 387.647 397.443 387.887 397.883 388.14C398.323 388.393 398.636 388.7 398.823 389.06C399.023 389.407 399.123 389.86 399.123 390.42C399.123 391.353 398.783 392.053 398.103 392.52C397.423 392.973 396.436 393.2 395.143 393.2Z" fill="black"/>
</svg>
