<svg width="395" height="112" viewBox="0 0 395 112" fill="none" xmlns="http://www.w3.org/2000/svg">
<g clip-path="url(#clip0_881_51)">
<path d="M106 76.0018C106 76.0018 108.391 75.5 110.031 77.5004C111.672 79.5007 111.062 98.6425 111.062 98.6425C111.062 98.6425 111.092 103.002 110.57 103.5C110.049 103.998 106 103.002 106 103.002V76.0018ZM123.104 93.2987V93.6678C123.104 95.0858 122.951 96.3866 122.646 97.5702C122.354 98.7538 121.896 99.7792 121.275 100.646C120.654 101.502 119.881 102.17 118.955 102.65C118.041 103.119 116.963 103.353 115.721 103.353C114.561 103.353 113.553 103.119 112.697 102.65C111.854 102.182 111.145 101.519 110.57 100.664C109.996 99.8085 109.533 98.8065 109.182 97.6581C108.83 96.5096 108.566 95.2557 108.391 93.8963V93.0878C108.566 91.7284 108.83 90.4745 109.182 89.326C109.533 88.1776 109.996 87.1756 110.57 86.3202C111.145 85.4647 111.854 84.8026 112.697 84.3338C113.541 83.8651 114.537 83.6307 115.686 83.6307C116.939 83.6307 118.029 83.871 118.955 84.3514C119.893 84.8202 120.666 85.4881 121.275 86.3553C121.896 87.2108 122.354 88.2303 122.646 89.4139C122.951 90.5858 123.104 91.8807 123.104 93.2987ZM118.041 93.6678V93.2987C118.041 92.5253 117.982 91.7987 117.865 91.119C117.76 90.4276 117.572 89.8241 117.303 89.3085C117.033 88.7811 116.664 88.3651 116.195 88.0604C115.738 87.7557 115.146 87.6034 114.42 87.6034C113.729 87.6034 113.143 87.7206 112.662 87.9549C112.182 88.1893 111.783 88.5174 111.467 88.9393C111.162 89.3612 110.934 89.8651 110.781 90.451C110.629 91.0253 110.535 91.6581 110.5 92.3495V94.6522C110.535 95.578 110.688 96.3983 110.957 97.1132C111.238 97.8163 111.66 98.3729 112.223 98.7831C112.797 99.1815 113.541 99.3807 114.455 99.3807C115.17 99.3807 115.762 99.2401 116.23 98.9589C116.699 98.6776 117.062 98.2792 117.32 97.7635C117.59 97.2479 117.777 96.6444 117.883 95.953C117.988 95.2499 118.041 94.4881 118.041 93.6678Z" fill="#F6F5E8"/>
<path d="M131.531 85.0002C131.969 86.5179 131.531 103 131.031 103.5C130.531 104 126.514 103.002 126.514 103.002C126.514 103.002 126.049 85.5179 127.031 83.5002C128.014 81.4825 131.094 83.4825 131.531 85.0002Z" fill="#F6F5E8"/>
<path d="M123.099 76.093C121.58 74.4527 119.814 72.8837 119.395 71.444C118.975 70.0042 120.181 69.6521 121.281 69.8524C122.381 70.0527 123.76 71.2133 125.28 72.8536C126.8 74.494 130.466 79.8281 130.092 80.3813C129.718 80.9345 128.478 80.2542 127.858 79.914C127.238 79.5739 124.619 77.7332 123.099 76.093Z" fill="#F6F5E8"/>
<path d="M368.521 74.523C367.102 76.251 365.433 77.9226 365.1 79.3849C364.768 80.8471 365.992 81.1266 367.078 80.861C368.164 80.5954 369.472 79.3546 370.891 77.6264C372.31 75.8983 375.651 70.3548 375.245 69.8249C374.839 69.2951 373.642 70.0482 373.043 70.4247C372.445 70.8013 369.94 72.795 368.521 74.523Z" fill="#F6F5E8"/>
<path d="M343.154 76.7093C343.746 78.2093 344.971 101.71 344.062 102.71C343.154 103.709 339 102.71 339 102.71V75.7095C339 75.7095 342.562 75.2093 343.154 76.7093ZM343.342 92.5318H341.953C341.965 91.2076 342.141 89.9888 342.48 88.8756C342.82 87.7506 343.307 86.7779 343.939 85.9576C344.572 85.1256 345.328 84.481 346.207 84.024C347.098 83.567 348.082 83.3384 349.16 83.3384C350.098 83.3384 350.947 83.4732 351.709 83.7427C352.482 84.0006 353.145 84.4224 353.695 85.0084C354.258 85.5826 354.691 86.3384 354.996 87.2759C355.301 88.2134 355.453 89.3502 355.453 90.6861C355.453 90.6861 356.154 100.341 354.154 102.341C352.154 104.341 350.355 102.71 350.355 102.71V90.6509C350.355 89.8072 350.232 89.1451 349.986 88.6646C349.752 88.1724 349.406 87.8267 348.949 87.6275C348.504 87.4166 347.953 87.3111 347.297 87.3111C346.57 87.3111 345.949 87.4459 345.434 87.7154C344.93 87.9849 344.525 88.3599 344.221 88.8404C343.916 89.3091 343.693 89.8599 343.553 90.4927C343.412 91.1256 343.342 91.8052 343.342 92.5318Z" fill="#F6F5E8"/>
<path d="M369.568 98.4205V89.9478C369.568 89.3384 369.469 88.817 369.27 88.3834C369.07 87.9381 368.76 87.5924 368.338 87.3463C367.928 87.1002 367.395 86.9771 366.738 86.9771C366.176 86.9771 365.689 87.0767 365.279 87.2759C364.869 87.4634 364.553 87.7388 364.33 88.1021C364.107 88.4537 363.996 88.8502 363.154 89.7093C362.312 90.5684 358.934 89.3502 358.934 89.3502C358.934 88.5416 359.121 87.774 359.496 87.0474C359.871 86.3209 360.416 85.6822 361.131 85.1314C361.846 84.5689 362.695 84.1295 363.68 83.8131C364.676 83.4966 365.789 83.3384 367.02 83.3384C368.496 83.3384 369.809 83.5845 370.957 84.0767C372.105 84.5689 373.008 85.3072 373.664 86.2916C374.332 87.2759 374.666 88.5064 374.666 89.983V98.1216C374.666 99.1646 374.73 100.02 374.859 100.688C374.993 101.366 375.654 102.209 374.859 102.871C374.064 103.532 370.307 102.71 370.307 102.71C370.061 102.194 369.873 101.55 369.744 100.776C369.627 99.9908 369.568 99.2056 369.568 98.4205ZM370.236 91.1256L370.271 93.9908H367.441C366.773 93.9908 366.193 94.067 365.701 94.2193C365.209 94.3716 364.805 94.5884 364.488 94.8697C364.172 95.1392 363.938 95.4556 363.785 95.8189C363.645 96.1822 363.574 96.5806 363.574 97.0142C363.574 97.4478 363.674 97.8404 363.873 98.192C364.072 98.5318 364.359 98.8013 364.734 99.0006C365.109 99.1881 365.549 99.2818 366.053 99.2818C366.814 99.2818 367.477 99.1295 368.039 98.8248C368.602 98.5201 369.035 98.1451 369.34 97.6998C369.656 97.2545 369.82 96.8326 369.832 96.4341L371.168 98.5787C370.98 99.0591 370.723 99.5572 370.395 100.073C370.078 100.589 369.674 101.075 369.182 101.532C368.689 101.977 368.098 102.346 367.406 102.639C366.715 102.921 365.895 103.061 364.945 103.061C363.738 103.061 362.643 102.821 361.658 102.341C360.686 101.848 359.912 101.175 359.338 100.319C358.775 99.4517 358.494 98.4674 358.494 97.3658C358.494 96.3697 358.682 95.4849 359.057 94.7115C359.432 93.9381 359.982 93.2877 360.709 92.7603C361.447 92.2213 362.367 91.817 363.469 91.5474C364.57 91.2662 365.848 91.1256 367.301 91.1256H370.236Z" fill="#F6F5E8"/>
<path d="M383.525 87.751C383.525 87.751 384.396 101.71 383.525 102.71C382.654 103.709 378.463 102.71 378.463 102.71V83.6904C378.463 83.6904 381.709 82.3196 382.654 83.3388C383.6 84.3581 383.525 87.751 383.525 87.751ZM382.787 92.5322H381.416C381.416 91.126 381.598 89.8603 381.961 88.7353C382.324 87.5986 382.834 86.6318 383.49 85.8349C384.146 85.0263 384.926 84.4111 385.828 83.9892C386.742 83.5556 387.762 83.3388 388.887 83.3388C389.777 83.3388 390.592 83.4678 391.33 83.7256C392.068 83.9834 392.701 84.3935 393.229 84.956C393.768 85.5185 394.178 86.2627 394.459 87.1885C394.752 88.1142 394.898 89.2451 394.898 90.581C394.898 90.581 394.898 102.21 394.154 102.709C393.41 103.209 390.654 103.209 389.801 102.71C388.947 102.21 389.801 90.5635 389.801 90.5635C389.801 89.7197 389.684 89.0635 389.449 88.5947C389.215 88.126 388.869 87.7978 388.412 87.6103C387.967 87.4111 387.416 87.3115 386.76 87.3115C386.08 87.3115 385.488 87.4463 384.984 87.7158C384.492 87.9853 384.082 88.3603 383.754 88.8408C383.438 89.3095 383.197 89.8603 383.033 90.4931C382.869 91.126 382.787 91.8056 382.787 92.5322Z" fill="#F6F5E8"/>
<path d="M101.085 19.0977C105.181 18.8046 109.204 19.171 113.154 20.1967C117.104 21.2224 120.615 22.4924 123.687 24.0066C126.759 25.5207 129.246 27.1326 131.147 28.8422C133.049 30.5517 134.5 32.3277 134.5 33.5C134.5 34.6723 133.269 35.0454 131.806 35.2897C130.343 35.5339 128.514 35.7537 126.32 35.9491C124.126 36.1444 121.712 36.5108 119.079 37.0481C116.445 37.5853 113.959 38.782 111.618 40.6381C110.057 41.8104 108.57 43.1048 107.156 44.5213C105.742 45.9378 104.328 47.3054 102.914 48.6242C101.5 49.943 100.037 51.1641 98.5251 52.2876C97.0135 53.411 95.3799 54.2658 93.6245 54.8519C92.7467 55.145 91.674 55.438 90.4061 55.7311C89.1383 56.0242 87.7973 56.0974 86.3832 55.9509C84.9691 55.8044 83.5062 55.3403 81.9945 54.5588C80.4829 53.7773 79.0444 52.4585 77.679 50.6024C76.8013 51.7747 76.0455 53.1668 75.4116 54.7786C74.7777 56.3905 74.2169 58.1245 73.7293 59.9806C73.2416 61.8367 72.8272 63.766 72.4858 65.7686C72.1445 67.7713 71.8763 69.6518 71.6812 71.4102C71.4862 72.8755 71.3399 74.7072 71.2424 76.9052C71.1448 79.1032 71.1205 81.2768 71.1692 83.4259C71.218 85.5751 71.3399 87.5533 71.5349 89.3606C71.73 91.1678 72.0226 92.4622 72.4127 93.2437C72.9003 94.1229 73.1441 94.8556 73.1441 95.4417C73.1441 95.9302 72.9003 96.3942 72.4127 96.8338C71.925 97.2734 70.9986 97.4932 69.6332 97.4932C68.0728 97.4932 67.0244 97.2734 66.488 96.8338C65.9516 96.3942 65.6834 95.9302 65.6834 95.4417C65.5859 94.8556 65.7809 94.1717 66.2686 93.3902C66.7562 92.4133 67.0732 91.2655 67.2194 89.9467C67.3657 88.6279 67.4145 87.2114 67.3657 85.6972C67.317 84.183 67.2438 82.6444 67.1463 81.0814C67.0488 79.5184 67 78.0042 67 76.5389C65.4396 73.4128 63.928 70.7752 62.4651 68.626C61.0022 66.4769 59.393 64.4254 57.6376 62.4716C56.5648 64.8162 55.3213 66.5746 53.9072 67.7468C52.4931 68.9191 51.0546 69.7251 49.5917 70.1647C48.1288 70.6043 46.7391 70.7996 45.4225 70.7508C44.1059 70.7019 42.96 70.5798 41.9847 70.3845C40.2293 70.0914 38.5713 69.5297 37.0109 68.6993C35.4505 67.869 33.8901 66.9409 32.3297 65.9152C30.7693 64.8894 29.1845 63.7904 27.5753 62.6182C25.9662 61.4459 24.3326 60.4202 22.6747 59.541C20.139 58.0756 17.5302 57.2941 14.8483 57.1964C12.1663 57.0987 9.72817 57.172 7.53384 57.4162C5.33952 57.6604 3.5353 57.7581 2.12118 57.7093C0.70706 57.6604 0 57.001 0 55.7311C0 54.4611 0.804585 52.8493 2.41376 50.8955C4.02293 48.9417 6.16849 47.0123 8.85044 45.1074C11.5324 43.2025 14.6776 41.4929 18.286 39.9787C21.8945 38.4645 25.698 37.5121 29.6965 37.1213C35.8406 36.5352 40.9363 36.8527 44.9836 38.0738C49.0309 39.2949 52.2005 41.0289 54.4924 43.2757C56.7842 45.5226 58.2227 48.1113 58.8079 51.042C59.393 53.9727 59.2955 56.9034 58.5153 59.834C61.6361 62.667 64.7082 66.2815 67.7315 70.6775C68.2191 65.8908 69.4381 61.0551 71.3887 56.1707C72.1689 54.51 72.9003 53.0935 73.583 51.9212C74.2656 50.7489 75.0946 49.479 76.0699 48.1113C74.5095 45.2784 73.7049 42.25 73.6561 39.0263C73.6074 35.8025 74.5338 32.7742 76.4356 29.9412C78.3373 27.1082 81.2875 24.6904 85.286 22.6878C89.2846 20.6851 94.5509 19.4884 101.085 19.0977Z" fill="#836E55"/>
<path d="M101.085 19.0977C105.181 18.8046 109.204 19.171 113.154 20.1967C117.104 21.2224 120.615 22.4924 123.687 24.0066C126.759 25.5207 129.246 27.1326 131.147 28.8422C133.049 30.5517 134.5 32.3277 134.5 33.5C134.5 34.6723 133.269 35.0454 131.806 35.2897C130.343 35.5339 128.514 35.7537 126.32 35.9491C124.126 36.1444 121.712 36.5108 119.079 37.0481C116.445 37.5853 113.959 38.782 111.618 40.6381C110.057 41.8104 108.57 43.1048 107.156 44.5213C105.742 45.9378 104.328 47.3054 102.914 48.6242C101.5 49.943 100.037 51.1641 98.5251 52.2876C97.0135 53.411 95.3799 54.2658 93.6245 54.8519C92.7467 55.145 91.674 55.438 90.4061 55.7311C89.1383 56.0242 87.7973 56.0974 86.3832 55.9509C84.9691 55.8044 83.5062 55.3403 81.9945 54.5588C80.4829 53.7773 79.0444 52.4585 77.679 50.6024L76.0699 48.1113L58.5153 59.834L57.6376 62.4716C56.5648 64.8162 55.3213 66.5746 53.9072 67.7468C52.4931 68.9191 51.0546 69.7251 49.5917 70.1647C48.1288 70.6043 46.7391 70.7996 45.4225 70.7508C44.1059 70.7019 42.96 70.5798 41.9847 70.3845C40.2293 70.0914 38.5713 69.5297 37.0109 68.6993C35.4505 67.869 33.8901 66.9409 32.3297 65.9152C30.7693 64.8894 29.1845 63.7904 27.5753 62.6182C25.9662 61.4459 24.3326 60.4202 22.6747 59.541C20.139 58.0756 17.5302 57.2941 14.8483 57.1964C12.1663 57.0987 9.72817 57.172 7.53384 57.4162C5.33952 57.6604 3.5353 57.7581 2.12118 57.7093C0.70706 57.6604 0 57.001 0 55.7311C0 54.4611 0.804585 52.8493 2.41376 50.8955C4.02293 48.9417 6.16849 47.0123 8.85044 45.1074C11.5324 43.2025 14.6776 41.4929 18.286 39.9787C21.8945 38.4645 25.698 37.5121 29.6965 37.1213C35.8406 36.5352 40.9363 36.8527 44.9836 38.0738C49.0309 39.2949 52.2005 41.0289 54.4924 43.2757C56.7842 45.5226 58.2227 48.1113 58.8079 51.042C59.393 53.9727 59.2955 56.9034 58.5153 59.834L76.0699 48.1113C74.5095 45.2784 73.7049 42.25 73.6561 39.0263C73.6074 35.8025 74.5338 32.7742 76.4356 29.9412C78.3373 27.1082 81.2875 24.6904 85.286 22.6878C89.2846 20.6851 94.5509 19.4884 101.085 19.0977ZM58.5153 59.834C53.0539 55.145 46.2758 51.677 40.2293 50.3093C34.1827 48.9417 27.9411 49.0882 21.5044 50.749C21.3093 50.749 21.2606 50.7734 21.3581 50.8222C21.4556 50.8711 21.6019 50.8955 21.7969 50.8955C24.6252 50.6024 27.5022 50.4803 30.428 50.5291C33.3537 50.578 36.3039 51.0176 39.2784 51.8479C42.2529 52.6783 45.2031 53.8994 48.1288 55.5113C51.0546 57.1232 54.8093 59.7363 57.6376 62.4716L58.5153 59.834ZM111.179 31.553C111.374 31.553 111.52 31.5286 111.618 31.4798C111.715 31.4309 111.618 31.4065 111.325 31.4065C104.206 30.7227 97.7693 31.8217 92.0153 34.7035C86.2613 37.5853 80.4585 42.5431 76.0699 48.1113L77.679 50.6024C80.3122 46.9879 83.6037 43.2757 86.3832 40.9312C89.1627 38.5867 91.9909 36.7306 94.8679 35.3629C97.7449 33.9953 100.549 33.0428 103.279 32.5055C106.01 31.9682 108.643 31.6507 111.179 31.553Z" fill="#1C7C43"/>
<path d="M203 72H195V83H203V72Z" fill="#836E55"/>
<path d="M225 101H218V112H225V101Z" fill="#836E55"/>
<path d="M294 19H287V29H294V19Z" fill="#836E55"/>
<path d="M321 41H313V51H321V41Z" fill="#836E55"/>
<path d="M330 43.5224L316.689 12L304.946 43.5224H330ZM212.054 74.8023L198.763 43.3001L187 74.8023H212.054ZM232.45 104.964L221.652 79.3882L212.121 104.964H232.45ZM298.98 21.8633L290.153 0.928711L282.331 21.8633H298.98Z" fill="#1C7C43"/>
<path d="M273.87 107C260.173 107 247.601 102.257 240.227 94.299C235.628 89.336 233.427 83.5783 233.88 77.6373C234.332 71.6964 237.695 67.3812 242.037 62.4548C245.045 59.0565 244.765 57.1 244.423 56.0976C243.97 54.8752 241.695 53.5503 239.33 53.0897C236.965 52.6292 223.485 50.2183 219.119 45.1697C217.93 43.8752 217.045 42.3328 216.527 40.654C216.009 38.9753 215.87 37.2024 216.122 35.4637C217.492 26.65 229.147 20 243.223 20C257.58 20 268.514 26.87 268.66 35.9649C268.721 39.2364 266.704 42.3006 265.285 44.803C263.867 47.3054 264.561 50.776 266.644 52.3956C268.728 54.0152 279.607 57.4859 283.773 58.8741C287.94 60.2623 309.642 63.5795 311.782 77.4051C312.226 80.4358 311.99 83.5274 311.091 86.4557C310.192 89.384 308.653 92.0757 306.584 94.3357C299.785 102.245 287.543 107 273.87 107Z" fill="#2444F5"/>
<path d="M283.057 98.9981C282.773 99.0392 282.484 99.0254 282.206 98.9573C281.928 98.8893 281.667 98.7683 281.438 98.6014C281.209 98.4345 281.016 98.2249 280.87 97.9846C280.724 97.7443 280.628 97.4779 280.588 97.2007C280.548 96.9235 280.564 96.641 280.636 96.3692C280.708 96.0974 280.834 95.8417 281.006 95.6166C281.179 95.3916 281.395 95.2017 281.642 95.0577C281.889 94.9136 282.163 94.8184 282.447 94.7773C293.61 92.9246 299.836 87.4772 300.949 84.2851C302.061 81.0929 301.646 78.6272 300.37 76.7907C299.094 74.9543 298.73 74.583 298.456 74.0364C298.182 73.4898 298.327 72.0342 299.654 71.8423C300.981 71.6503 302.713 73.1096 303.547 74.3102C304.823 76.1467 306.386 79.9621 304.628 85.2685C302.869 90.5749 295.739 97.1613 283.057 98.9981Z" fill="#F6F5E8"/>
</g>
<defs>
<clipPath id="clip0_881_51">
<rect width="395" height="112" fill="white"/>
</clipPath>
</defs>
</svg>
