<svg width="400" height="400" viewBox="0 0 400 400" fill="none" xmlns="http://www.w3.org/2000/svg">
<circle cx="200" cy="200" r="200" fill="#E9C300"/>
<path d="M158.534 379.192C157.766 379.192 157.086 379.052 156.494 378.772C155.902 378.484 155.438 378.088 155.102 377.584C154.774 377.08 154.61 376.504 154.61 375.856V370.252C154.61 370.068 154.67 369.92 154.79 369.808C154.91 369.688 155.058 369.628 155.234 369.628C155.418 369.628 155.566 369.688 155.678 369.808C155.798 369.92 155.858 370.068 155.858 370.252V375.856C155.858 376.288 155.97 376.672 156.194 377.008C156.426 377.336 156.742 377.596 157.142 377.788C157.55 377.972 158.014 378.064 158.534 378.064C159.038 378.064 159.482 377.972 159.866 377.788C160.258 377.596 160.562 377.336 160.778 377.008C161.002 376.672 161.114 376.288 161.114 375.856V370.252C161.114 370.068 161.174 369.92 161.294 369.808C161.414 369.688 161.562 369.628 161.738 369.628C161.922 369.628 162.07 369.688 162.182 369.808C162.294 369.92 162.35 370.068 162.35 370.252V375.856C162.35 376.504 162.186 377.08 161.858 377.584C161.538 378.088 161.09 378.484 160.514 378.772C159.938 379.052 159.278 379.192 158.534 379.192ZM164.711 379C164.527 379 164.387 378.944 164.291 378.832C164.195 378.712 164.147 378.576 164.147 378.424C164.147 378.264 164.195 378.12 164.291 377.992L167.315 373.96L167.855 373.48L170.615 369.808C170.727 369.688 170.875 369.628 171.059 369.628C171.227 369.628 171.359 369.68 171.455 369.784C171.551 369.888 171.603 370.016 171.611 370.168C171.619 370.32 171.575 370.468 171.479 370.612L168.563 374.5L168.047 374.956L165.143 378.82C165.023 378.94 164.879 379 164.711 379ZM170.987 379C170.883 379 170.791 378.984 170.711 378.952C170.639 378.912 170.571 378.852 170.507 378.772L167.711 374.896L167.267 374.524L164.447 370.612C164.351 370.484 164.311 370.344 164.327 370.192C164.343 370.04 164.399 369.908 164.495 369.796C164.599 369.684 164.735 369.628 164.903 369.628C165.111 369.628 165.259 369.688 165.347 369.808L168.011 373.504L168.467 373.876L171.431 377.992C171.527 378.12 171.571 378.264 171.563 378.424C171.555 378.584 171.499 378.72 171.395 378.832C171.299 378.944 171.163 379 170.987 379ZM175.221 379.168C174.717 379.168 174.273 379.076 173.889 378.892C173.505 378.7 173.205 378.432 172.989 378.088C172.781 377.736 172.677 377.316 172.677 376.828C172.677 376.284 172.861 375.792 173.229 375.352C173.597 374.912 174.081 374.452 174.681 373.972L175.677 373.18C176.101 372.844 176.373 372.548 176.493 372.292C176.613 372.036 176.677 371.772 176.685 371.5C176.685 371.196 176.581 370.932 176.373 370.708C176.173 370.484 175.881 370.372 175.497 370.372C175.145 370.372 174.861 370.476 174.645 370.684C174.429 370.892 174.321 371.136 174.321 371.416C174.321 371.624 174.365 371.828 174.453 372.028C174.549 372.228 174.701 372.432 174.909 372.64L180.369 378.088C180.497 378.216 180.569 378.336 180.585 378.448C180.601 378.56 180.545 378.68 180.417 378.808C180.161 379.064 179.905 379.064 179.649 378.808L174.129 373.3C173.857 373.02 173.649 372.728 173.505 372.424C173.361 372.112 173.289 371.784 173.289 371.44C173.289 371.056 173.385 370.712 173.577 370.408C173.769 370.096 174.033 369.852 174.369 369.676C174.705 369.5 175.081 369.412 175.497 369.412C175.929 369.412 176.309 369.504 176.637 369.688C176.973 369.872 177.237 370.124 177.429 370.444C177.621 370.764 177.717 371.124 177.717 371.524C177.717 371.836 177.661 372.12 177.549 372.376C177.445 372.632 177.281 372.884 177.057 373.132C176.833 373.372 176.541 373.636 176.181 373.924L175.233 374.68C174.961 374.896 174.717 375.116 174.501 375.34C174.285 375.564 174.113 375.796 173.985 376.036C173.865 376.268 173.805 376.516 173.805 376.78C173.805 377.228 173.929 377.568 174.177 377.8C174.425 378.024 174.773 378.136 175.221 378.136C175.701 378.136 176.117 378.028 176.469 377.812C176.829 377.588 177.193 377.284 177.561 376.9L179.313 375.052C179.433 374.924 179.545 374.844 179.649 374.812C179.753 374.78 179.869 374.824 179.997 374.944C180.125 375.064 180.189 375.188 180.189 375.316C180.197 375.444 180.141 375.576 180.021 375.712L178.269 377.56C177.853 378.032 177.401 378.42 176.913 378.724C176.425 379.02 175.861 379.168 175.221 379.168ZM186.038 379.192C185.27 379.192 184.59 379.052 183.998 378.772C183.406 378.484 182.942 378.088 182.606 377.584C182.278 377.08 182.114 376.504 182.114 375.856V370.252C182.114 370.068 182.174 369.92 182.294 369.808C182.414 369.688 182.562 369.628 182.738 369.628C182.922 369.628 183.07 369.688 183.182 369.808C183.302 369.92 183.362 370.068 183.362 370.252V375.856C183.362 376.288 183.474 376.672 183.698 377.008C183.93 377.336 184.246 377.596 184.646 377.788C185.054 377.972 185.518 378.064 186.038 378.064C186.542 378.064 186.986 377.972 187.37 377.788C187.762 377.596 188.066 377.336 188.282 377.008C188.506 376.672 188.618 376.288 188.618 375.856V370.252C188.618 370.068 188.678 369.92 188.798 369.808C188.918 369.688 189.066 369.628 189.242 369.628C189.426 369.628 189.574 369.688 189.686 369.808C189.798 369.92 189.854 370.068 189.854 370.252V375.856C189.854 376.504 189.69 377.08 189.362 377.584C189.042 378.088 188.594 378.484 188.018 378.772C187.442 379.052 186.782 379.192 186.038 379.192ZM192.875 379C192.699 379 192.551 378.94 192.431 378.82C192.311 378.7 192.251 378.552 192.251 378.376V370.252C192.251 370.068 192.311 369.92 192.431 369.808C192.551 369.688 192.699 369.628 192.875 369.628C193.059 369.628 193.207 369.688 193.319 369.808C193.439 369.92 193.499 370.068 193.499 370.252V378.376C193.499 378.552 193.439 378.7 193.319 378.82C193.207 378.94 193.059 379 192.875 379ZM204.103 381.808C203.927 381.808 203.779 381.748 203.659 381.628C203.547 381.516 203.491 381.372 203.491 381.196V370.24C203.491 370.064 203.547 369.92 203.659 369.808C203.779 369.688 203.927 369.628 204.103 369.628C204.287 369.628 204.435 369.688 204.547 369.808C204.659 369.92 204.715 370.064 204.715 370.24V381.196C204.715 381.372 204.659 381.516 204.547 381.628C204.435 381.748 204.287 381.808 204.103 381.808ZM215.33 379.12C214.682 379.12 214.074 379 213.506 378.76C212.946 378.512 212.454 378.172 212.03 377.74C211.614 377.3 211.286 376.788 211.046 376.204C210.814 375.62 210.698 374.988 210.698 374.308C210.698 373.636 210.814 373.012 211.046 372.436C211.286 371.852 211.614 371.344 212.03 370.912C212.454 370.472 212.946 370.128 213.506 369.88C214.066 369.632 214.674 369.508 215.33 369.508C215.946 369.508 216.474 369.588 216.914 369.748C217.362 369.908 217.81 370.172 218.258 370.54C218.322 370.588 218.37 370.64 218.402 370.696C218.442 370.744 218.466 370.796 218.474 370.852C218.49 370.9 218.498 370.96 218.498 371.032C218.498 371.184 218.442 371.312 218.33 371.416C218.226 371.52 218.094 371.576 217.934 371.584C217.782 371.592 217.638 371.54 217.502 371.428C217.206 371.172 216.898 370.976 216.578 370.84C216.266 370.704 215.85 370.636 215.33 370.636C214.858 370.636 214.414 370.732 213.998 370.924C213.582 371.116 213.214 371.38 212.894 371.716C212.582 372.052 212.338 372.444 212.162 372.892C211.986 373.332 211.898 373.804 211.898 374.308C211.898 374.82 211.986 375.3 212.162 375.748C212.338 376.188 212.582 376.576 212.894 376.912C213.214 377.248 213.582 377.512 213.998 377.704C214.414 377.888 214.858 377.98 215.33 377.98C215.738 377.98 216.122 377.912 216.482 377.776C216.85 377.632 217.202 377.436 217.538 377.188C217.682 377.084 217.822 377.04 217.958 377.056C218.102 377.064 218.222 377.12 218.318 377.224C218.414 377.32 218.462 377.456 218.462 377.632C218.462 377.712 218.446 377.792 218.414 377.872C218.39 377.944 218.342 378.012 218.27 378.076C217.846 378.428 217.386 378.692 216.89 378.868C216.394 379.036 215.874 379.12 215.33 379.12ZM218.462 377.632L217.262 377.392V375.244H215.606C215.43 375.244 215.282 375.192 215.162 375.088C215.042 374.984 214.982 374.852 214.982 374.692C214.982 374.532 215.042 374.4 215.162 374.296C215.282 374.192 215.43 374.14 215.606 374.14H217.85C218.034 374.14 218.182 374.2 218.294 374.32C218.406 374.432 218.462 374.58 218.462 374.764V377.632ZM222.593 379.048C222.009 379.048 221.485 378.904 221.021 378.616C220.557 378.32 220.189 377.924 219.917 377.428C219.653 376.924 219.521 376.356 219.521 375.724C219.521 375.092 219.665 374.524 219.953 374.02C220.249 373.516 220.645 373.12 221.141 372.832C221.645 372.536 222.209 372.388 222.833 372.388C223.457 372.388 224.017 372.536 224.513 372.832C225.009 373.12 225.401 373.516 225.689 374.02C225.985 374.524 226.133 375.092 226.133 375.724H225.665C225.665 376.356 225.529 376.924 225.257 377.428C224.993 377.924 224.629 378.32 224.165 378.616C223.701 378.904 223.177 379.048 222.593 379.048ZM222.833 377.968C223.241 377.968 223.605 377.872 223.925 377.68C224.245 377.48 224.497 377.212 224.681 376.876C224.865 376.532 224.957 376.148 224.957 375.724C224.957 375.292 224.865 374.908 224.681 374.572C224.497 374.228 224.245 373.96 223.925 373.768C223.605 373.568 223.241 373.468 222.833 373.468C222.433 373.468 222.069 373.568 221.741 373.768C221.421 373.96 221.165 374.228 220.973 374.572C220.789 374.908 220.697 375.292 220.697 375.724C220.697 376.148 220.789 376.532 220.973 376.876C221.165 377.212 221.421 377.48 221.741 377.68C222.069 377.872 222.433 377.968 222.833 377.968ZM225.521 379.012C225.345 379.012 225.197 378.956 225.077 378.844C224.965 378.724 224.909 378.576 224.909 378.4V376.564L225.137 375.292L226.133 375.724V378.4C226.133 378.576 226.073 378.724 225.953 378.844C225.841 378.956 225.697 379.012 225.521 379.012ZM236.571 379.012C236.395 379.012 236.247 378.956 236.127 378.844C236.015 378.724 235.959 378.576 235.959 378.4V374.968C235.959 374.464 235.835 374.092 235.587 373.852C235.339 373.604 235.015 373.48 234.615 373.48C234.199 373.48 233.855 373.624 233.583 373.912C233.319 374.2 233.187 374.568 233.187 375.016H232.191C232.191 374.496 232.303 374.04 232.527 373.648C232.751 373.248 233.063 372.936 233.463 372.712C233.871 372.488 234.335 372.376 234.855 372.376C235.311 372.376 235.715 372.476 236.067 372.676C236.419 372.876 236.691 373.172 236.883 373.564C237.083 373.948 237.183 374.416 237.183 374.968V378.4C237.183 378.576 237.127 378.724 237.015 378.844C236.903 378.956 236.755 379.012 236.571 379.012ZM228.567 379.012C228.391 379.012 228.243 378.956 228.123 378.844C228.011 378.724 227.955 378.576 227.955 378.4V373.06C227.955 372.876 228.011 372.728 228.123 372.616C228.243 372.504 228.391 372.448 228.567 372.448C228.751 372.448 228.899 372.504 229.011 372.616C229.123 372.728 229.179 372.876 229.179 373.06V378.4C229.179 378.576 229.123 378.724 229.011 378.844C228.899 378.956 228.751 379.012 228.567 379.012ZM232.575 379.012C232.399 379.012 232.251 378.956 232.131 378.844C232.019 378.724 231.963 378.576 231.963 378.4V374.968C231.963 374.464 231.839 374.092 231.591 373.852C231.343 373.604 231.019 373.48 230.619 373.48C230.203 373.48 229.859 373.624 229.587 373.912C229.315 374.2 229.179 374.568 229.179 375.016H228.423C228.423 374.496 228.527 374.04 228.735 373.648C228.943 373.248 229.231 372.936 229.599 372.712C229.967 372.488 230.387 372.376 230.859 372.376C231.315 372.376 231.719 372.476 232.071 372.676C232.423 372.876 232.695 373.172 232.887 373.564C233.087 373.948 233.187 374.416 233.187 374.968V378.4C233.187 378.576 233.131 378.724 233.019 378.844C232.907 378.956 232.759 379.012 232.575 379.012ZM242.301 379.048C241.637 379.048 241.045 378.908 240.525 378.628C240.013 378.34 239.609 377.948 239.313 377.452C239.025 376.948 238.881 376.372 238.881 375.724C238.881 375.068 239.017 374.492 239.289 373.996C239.569 373.492 239.953 373.1 240.441 372.82C240.929 372.532 241.489 372.388 242.121 372.388C242.745 372.388 243.281 372.528 243.729 372.808C244.177 373.08 244.517 373.46 244.749 373.948C244.989 374.428 245.109 374.984 245.109 375.616C245.109 375.768 245.057 375.896 244.953 376C244.849 376.096 244.717 376.144 244.557 376.144H239.721V375.184H244.521L244.029 375.52C244.021 375.12 243.941 374.764 243.789 374.452C243.637 374.132 243.421 373.88 243.141 373.696C242.861 373.512 242.521 373.42 242.121 373.42C241.665 373.42 241.273 373.52 240.945 373.72C240.625 373.92 240.381 374.196 240.213 374.548C240.045 374.892 239.961 375.284 239.961 375.724C239.961 376.164 240.061 376.556 240.261 376.9C240.461 377.244 240.737 377.516 241.089 377.716C241.441 377.916 241.845 378.016 242.301 378.016C242.549 378.016 242.801 377.972 243.057 377.884C243.321 377.788 243.533 377.68 243.693 377.56C243.813 377.472 243.941 377.428 244.077 377.428C244.221 377.42 244.345 377.46 244.449 377.548C244.585 377.668 244.657 377.8 244.665 377.944C244.673 378.088 244.609 378.212 244.473 378.316C244.201 378.532 243.861 378.708 243.453 378.844C243.053 378.98 242.669 379.048 242.301 379.048Z" fill="#1C2122"/>
</svg>
