<svg width="250" height="250" viewBox="0 0 250 250" fill="none" xmlns="http://www.w3.org/2000/svg">
<circle cx="125" cy="125" r="125" fill="#DC635F"/>
<path d="M81.2515 45.32C77.6462 45.32 74.8942 44.4027 72.9955 42.568C71.1182 40.712 70.1795 38.1413 70.1795 34.856C70.1795 31.4213 71.0968 28.7653 72.9315 26.888C74.7875 25.0107 77.5502 24.072 81.2195 24.072C82.4782 24.072 83.5982 24.168 84.5795 24.36C85.5822 24.552 86.5422 24.808 87.4595 25.128V29.64C85.6035 28.872 83.6515 28.488 81.6035 28.488C79.4702 28.488 77.9022 29 76.8995 30.024C75.9182 31.048 75.4275 32.6587 75.4275 34.856C75.4275 36.9467 75.9502 38.4827 76.9955 39.464C78.0408 40.4453 79.5982 40.936 81.6675 40.936C82.6702 40.936 83.6622 40.8507 84.6435 40.68C85.6248 40.488 86.5742 40.2 87.4915 39.816V44.36C86.5955 44.6587 85.6462 44.8933 84.6435 45.064C83.6408 45.2347 82.5102 45.32 81.2515 45.32ZM98.0048 45.32C95.0821 45.32 92.9274 44.648 91.5408 43.304C90.1541 41.9387 89.4608 39.976 89.4608 37.416C89.4608 34.8773 90.1541 32.9253 91.5408 31.56C92.9488 30.1947 95.1034 29.512 98.0048 29.512C100.927 29.512 103.082 30.1947 104.469 31.56C105.877 32.9253 106.581 34.8773 106.581 37.416C106.581 39.976 105.887 41.9387 104.501 43.304C103.114 44.648 100.949 45.32 98.0048 45.32ZM98.0048 41.288C99.1994 41.288 100.053 40.9893 100.565 40.392C101.077 39.7947 101.333 38.8027 101.333 37.416C101.333 36.0293 101.077 35.0373 100.565 34.44C100.053 33.8427 99.1994 33.544 98.0048 33.544C96.8314 33.544 95.9888 33.8427 95.4768 34.44C94.9648 35.0373 94.7088 36.0293 94.7088 37.416C94.7088 38.8027 94.9648 39.7947 95.4768 40.392C95.9888 40.9893 96.8314 41.288 98.0048 41.288ZM117.195 45.32C114.485 45.32 112.363 44.6587 110.827 43.336C109.312 42.0133 108.555 40.04 108.555 37.416C108.555 34.7493 109.344 32.7653 110.923 31.464C112.523 30.1627 114.645 29.512 117.291 29.512C118.4 29.512 119.36 29.5973 120.171 29.768C121.003 29.9173 121.803 30.1733 122.571 30.536V34.184C121.376 33.608 119.979 33.32 118.379 33.32C116.885 33.32 115.744 33.6187 114.955 34.216C114.187 34.8133 113.803 35.88 113.803 37.416C113.803 38.8453 114.165 39.8907 114.891 40.552C115.616 41.192 116.768 41.512 118.347 41.512C119.904 41.512 121.323 41.192 122.603 40.552V44.36C121.835 44.7013 121.003 44.9467 120.107 45.096C119.232 45.2453 118.261 45.32 117.195 45.32ZM133.13 45.32C130.207 45.32 128.052 44.648 126.666 43.304C125.279 41.9387 124.586 39.976 124.586 37.416C124.586 34.8773 125.279 32.9253 126.666 31.56C128.074 30.1947 130.228 29.512 133.13 29.512C136.052 29.512 138.207 30.1947 139.594 31.56C141.002 32.9253 141.706 34.8773 141.706 37.416C141.706 39.976 141.012 41.9387 139.626 43.304C138.239 44.648 136.074 45.32 133.13 45.32ZM133.13 41.288C134.324 41.288 135.178 40.9893 135.69 40.392C136.202 39.7947 136.458 38.8027 136.458 37.416C136.458 36.0293 136.202 35.0373 135.69 34.44C135.178 33.8427 134.324 33.544 133.13 33.544C131.956 33.544 131.114 33.8427 130.602 34.44C130.09 35.0373 129.834 36.0293 129.834 37.416C129.834 38.8027 130.09 39.7947 130.602 40.392C131.114 40.9893 131.956 41.288 133.13 41.288ZM152.224 45.32C149.301 45.32 147.146 44.648 145.76 43.304C144.373 41.9387 143.68 39.976 143.68 37.416C143.68 34.8773 144.373 32.9253 145.76 31.56C147.168 30.1947 149.322 29.512 152.224 29.512C155.146 29.512 157.301 30.1947 158.688 31.56C160.096 32.9253 160.8 34.8773 160.8 37.416C160.8 39.976 160.106 41.9387 158.72 43.304C157.333 44.648 155.168 45.32 152.224 45.32ZM152.224 41.288C153.418 41.288 154.272 40.9893 154.784 40.392C155.296 39.7947 155.552 38.8027 155.552 37.416C155.552 36.0293 155.296 35.0373 154.784 34.44C154.272 33.8427 153.418 33.544 152.224 33.544C151.05 33.544 150.208 33.8427 149.696 34.44C149.184 35.0373 148.928 36.0293 148.928 37.416C148.928 38.8027 149.184 39.7947 149.696 40.392C150.208 40.9893 151.05 41.288 152.224 41.288ZM163.413 45V29.832H168.213L168.373 31.144C168.992 30.7173 169.771 30.344 170.709 30.024C171.648 29.6827 172.651 29.512 173.717 29.512C175.68 29.512 177.109 29.9813 178.005 30.92C178.901 31.8587 179.349 33.3093 179.349 35.272V45H174.197V35.688C174.197 34.8347 174.016 34.2267 173.653 33.864C173.291 33.5013 172.64 33.32 171.701 33.32C171.147 33.32 170.581 33.448 170.005 33.704C169.429 33.96 168.949 34.28 168.565 34.664V45H163.413Z" fill="white"/>
</svg>
