<svg width="80" height="80" viewBox="0 0 80 80" fill="none" xmlns="http://www.w3.org/2000/svg">
<circle cx="40" cy="40" r="40" fill="#F8CAB9"/>
<path d="M53.3177 25.9404L53.4422 25.9453L53.5668 25.9526L53.6889 25.9624L53.8134 25.9771L53.9356 25.9942L54.0552 26.0137L54.1749 26.0381L54.2946 26.0625L54.4118 26.0918L54.529 26.1236L54.6438 26.1578L54.7561 26.1944L54.8709 26.2335L54.9808 26.2775L55.0907 26.3214L55.2006 26.3703L55.3081 26.4191L55.4155 26.4728L55.5181 26.5266L55.6231 26.5852L55.7232 26.6462L55.8234 26.7073L55.9211 26.7732L56.0187 26.8392L56.114 26.9075L56.2068 26.9808L56.2972 27.0541L56.3875 27.1298L56.4754 27.2079L56.5609 27.2861L56.6439 27.3691L56.727 27.4521L56.8051 27.5376L56.8833 27.6255L56.959 27.7159L57.0323 27.8063L57.1055 27.8991L57.1739 27.9943L57.2398 28.092L57.3058 28.1897L57.3668 28.2898L57.4279 28.3899L57.4865 28.495L57.5402 28.5975L57.594 28.705L57.6428 28.8124L57.6916 28.9223L57.7356 29.0322L57.7796 29.1421L57.8186 29.2569L57.8553 29.3693L57.8895 29.4841L57.9212 29.6013L57.9505 29.7185L57.9749 29.8382L57.9994 29.9578L58.0189 30.0775L58.036 30.1996L58.0506 30.3242L58.0604 30.4463L58.0677 30.5708L58.0726 30.6954L58.0751 30.8224V50.3599L58.0726 50.4869L58.0677 50.6115L58.0604 50.736L58.0506 50.8581L58.036 50.9827L58.0189 51.1048L57.9994 51.2244L57.9749 51.3441L57.9505 51.4638L57.9212 51.581L57.8895 51.6982L57.8553 51.813L57.8186 51.9254L57.7796 52.0401L57.7356 52.15L57.6916 52.2599L57.6428 52.3698L57.594 52.4773L57.5402 52.5847L57.4865 52.6873L57.4279 52.7923L57.3668 52.8925L57.3058 52.9926L57.2398 53.0903L57.1739 53.188L57.1055 53.2832L57.0323 53.376L56.959 53.4664L56.8833 53.5567L56.8051 53.6447L56.727 53.7301L56.6439 53.8132L56.5609 53.8962L56.4754 53.9744L56.3875 54.0525L56.2972 54.1282L56.2068 54.2015L56.114 54.2747L56.0187 54.3431L55.9211 54.4091L55.8234 54.475L55.7232 54.5361L55.6231 54.5971L55.5181 54.6557L55.4155 54.7094L55.3081 54.7632L55.2006 54.812L55.0907 54.8609L54.9808 54.9048L54.8709 54.9488L54.7561 54.9879L54.6438 55.0245L54.529 55.0587L54.4118 55.0904L54.2946 55.1197L54.1749 55.1442L54.0552 55.1686L53.9356 55.1881L53.8134 55.2052L53.6889 55.2199L53.5668 55.2296L53.4422 55.237L53.3177 55.2418L53.1907 55.2443H38.5375L26.3266 65.0131V55.2443H23.8844L23.7623 55.2418L23.6426 55.2394L23.5205 55.2296L23.4008 55.2199L23.2812 55.2077L23.1639 55.1906L23.0443 55.171L22.927 55.149L22.8098 55.1246L22.695 55.0978L22.5778 55.066L22.463 55.0343L22.3507 54.9976L22.2383 54.9586L22.126 54.917L22.0161 54.8731L21.9062 54.8267L21.7963 54.7754L21.6913 54.7241L21.5838 54.6679L21.4788 54.6118L21.3763 54.5507L21.2737 54.4897L21.1736 54.4237L21.0759 54.3553L20.9782 54.2869L20.8829 54.2137L20.7877 54.138L20.6973 54.0598L20.607 53.9817L20.5166 53.8986L20.4311 53.8132L20.3456 53.7277L20.2626 53.6373L20.1845 53.547L20.1063 53.4566L20.0306 53.3614L19.9573 53.2661L19.889 53.1684L19.8206 53.0707L19.7546 52.9706L19.6936 52.868L19.6325 52.7655L19.5764 52.6605L19.5202 52.553L19.4689 52.448L19.4176 52.3381L19.3712 52.2282L19.3273 52.1183L19.2857 52.0059L19.2467 51.8936L19.21 51.7813L19.1783 51.6665L19.1465 51.5517L19.1197 51.4345L19.0952 51.3172L19.0733 51.2L19.0537 51.0804L19.0366 50.9631L19.0244 50.8435L19.0147 50.7238L19.0049 50.6017L19.0024 50.482L19 50.3599V30.8224L19.0024 30.6954L19.0073 30.5708L19.0147 30.4463L19.0244 30.3242L19.0391 30.1996L19.0562 30.0775L19.0757 29.9578L19.1001 29.8382L19.1246 29.7185L19.1539 29.6013L19.1856 29.4841L19.2198 29.3693L19.2564 29.2569L19.2955 29.1421L19.3395 29.0322L19.3834 28.9223L19.4323 28.8124L19.4811 28.705L19.5348 28.5975L19.5886 28.495L19.6472 28.3899L19.7082 28.2898L19.7693 28.1897L19.8352 28.092L19.9012 27.9943L19.9695 27.8991L20.0428 27.8063L20.1161 27.7159L20.1918 27.6255L20.2699 27.5376L20.3481 27.4521L20.4311 27.3691L20.5142 27.2861L20.5996 27.2079L20.6876 27.1298L20.7779 27.0541L20.8683 26.9808L20.9611 26.9075L21.0563 26.8392L21.154 26.7732L21.2517 26.7073L21.3518 26.6462L21.452 26.5852L21.557 26.5266L21.6595 26.4728L21.767 26.4191L21.8745 26.3703L21.9844 26.3214L22.0943 26.2775L22.2042 26.2335L22.3189 26.1944L22.4313 26.1578L22.5461 26.1236L22.6633 26.0918L22.7805 26.0625L22.9002 26.0381L23.0198 26.0137L23.1395 25.9942L23.2616 25.9771L23.3862 25.9624L23.5083 25.9526L23.6328 25.9453L23.7574 25.9404L23.8844 25.938H53.1907L53.3177 25.9404ZM23.899 28.3802H23.8209L23.7574 28.3826L23.6939 28.3875L23.6328 28.3924L23.5693 28.3997L23.5083 28.4095L23.4497 28.4193L23.3886 28.429L23.33 28.4437L23.2714 28.4583L23.2152 28.473L23.1566 28.4901L23.1004 28.5072L23.0443 28.5267L22.9881 28.5487L22.9344 28.5707L22.8806 28.5951L22.8269 28.6195L22.7732 28.6464L22.7219 28.6732L22.6706 28.7025L22.6193 28.7319L22.5705 28.7636L22.5216 28.7954L22.4728 28.8295L22.424 28.8637L22.3776 28.9004L22.3311 28.937L22.2872 28.9761L22.2432 29.0151L22.1993 29.0542L22.1578 29.0957L22.1162 29.1373L22.0772 29.1812L22.0381 29.2252L21.999 29.2691L21.9624 29.3155L21.9257 29.3619L21.8916 29.4108L21.8574 29.4596L21.8256 29.5085L21.7939 29.5573L21.7646 29.6086L21.7353 29.6599L21.7084 29.7112L21.6815 29.7649L21.6571 29.8186L21.6327 29.8724L21.6107 29.9285L21.5887 29.9823L21.5692 30.0384L21.5521 30.0946L21.535 30.1532L21.5203 30.2094L21.5057 30.268L21.491 30.3266L21.4813 30.3877L21.4715 30.4463L21.4617 30.5073L21.4544 30.5708L21.4495 30.6319L21.4446 30.6954L21.4422 30.7589V50.421L21.4446 50.482L21.4495 50.5406L21.4544 50.6017L21.4617 50.6603L21.4691 50.7214L21.4788 50.78L21.4886 50.8386L21.5032 50.8972L21.5155 50.9558L21.5301 51.012L21.5472 51.0706L21.5667 51.1268L21.5863 51.1829L21.6058 51.2391L21.6278 51.2953L21.6522 51.349L21.6766 51.4027L21.7035 51.4565L21.7304 51.5102L21.7597 51.5615L21.789 51.6128L21.8207 51.664L21.8525 51.7153L21.8867 51.7642L21.9209 51.813L21.9575 51.8594L21.9966 51.9083L22.0332 51.9547L22.0747 51.9986L22.1162 52.0426L22.1578 52.0865L22.2017 52.1281L22.2457 52.1696L22.2896 52.2111L22.336 52.2502L22.3849 52.2868L22.4313 52.3234L22.4801 52.3576L22.529 52.3918L22.5803 52.4236L22.6315 52.4553L22.6828 52.4846L22.7341 52.5139L22.7878 52.5408L22.8416 52.5676L22.8953 52.5921L22.949 52.6165L23.0052 52.6385L23.0614 52.658L23.1175 52.6775L23.1737 52.6971L23.2323 52.7142L23.2885 52.7288L23.3471 52.741L23.4057 52.7557L23.4643 52.7655L23.5229 52.7752L23.584 52.7826L23.6426 52.7899L23.7037 52.7948L23.7623 52.7997L23.8233 52.8021H28.7688V59.9309L37.6803 52.8021H53.2542L53.3177 52.7997L53.3812 52.7948L53.4422 52.7899L53.5057 52.7826L53.5668 52.7728L53.6254 52.763L53.6865 52.7533L53.7451 52.7386L53.8037 52.7239L53.8598 52.7093L53.9185 52.6922L53.9746 52.6751L54.0308 52.6556L54.087 52.6336L54.1407 52.6116L54.1944 52.5872L54.2482 52.5628L54.3019 52.5359L54.3532 52.509L54.4045 52.4797L54.4557 52.4504L54.5046 52.4187L54.5534 52.3869L54.6023 52.3527L54.6511 52.3185L54.6975 52.2819L54.7439 52.2453L54.7879 52.2062L54.8318 52.1671L54.8758 52.1281L54.9173 52.0865L54.9588 52.045L54.9979 52.0011L55.037 51.9571L55.0761 51.9131L55.1127 51.8667L55.1493 51.8203L55.1835 51.7715L55.2177 51.7226L55.2495 51.6738L55.2812 51.625L55.3105 51.5737L55.3398 51.5224L55.3667 51.4711L55.3935 51.4174L55.418 51.3636L55.4424 51.3099L55.4644 51.2538L55.4863 51.2L55.5059 51.1438L55.523 51.0877L55.5401 51.0291L55.5572 50.9729L55.5694 50.9143L55.584 50.8557L55.5938 50.7946L55.6036 50.736L55.6133 50.675L55.6207 50.6115L55.6256 50.5504L55.6304 50.4869L55.6329 50.4234V30.7589L55.6304 30.6954L55.6256 30.6319L55.6207 30.5708L55.6133 30.5073L55.6036 30.4463L55.5938 30.3877L55.584 30.3266L55.5694 30.268L55.5572 30.2094L55.5401 30.1532L55.523 30.0946L55.5059 30.0384L55.4863 29.9823L55.4644 29.9285L55.4424 29.8724L55.418 29.8186L55.3935 29.7649L55.3667 29.7112L55.3398 29.6599L55.3105 29.6086L55.2812 29.5573L55.2495 29.5085L55.2177 29.4596L55.1835 29.4108L55.1493 29.3619L55.1127 29.3155L55.0761 29.2691L55.037 29.2252L54.9979 29.1812L54.9588 29.1373L54.9173 29.0957L54.8758 29.0542L54.8318 29.0151L54.7879 28.9761L54.7439 28.937L54.6975 28.9004L54.6511 28.8637L54.6023 28.8295L54.5534 28.7954L54.5046 28.7636L54.4557 28.7319L54.4045 28.7025L54.3532 28.6732L54.3019 28.6464L54.2482 28.6195L54.1944 28.5951L54.1407 28.5707L54.0845 28.5487L54.0308 28.5267L53.9746 28.5072L53.9185 28.4901L53.8598 28.473L53.8037 28.4583L53.7451 28.4437L53.6865 28.429L53.6254 28.4193L53.5668 28.4095L53.5057 28.3997L53.4422 28.3924L53.3812 28.3875L53.3177 28.3826L53.2542 28.3802H23.899Z" fill="#C05643"/>
<path d="M57.025 21.056C60.1437 21.1732 62.8374 23.8474 62.9571 26.9881C63.0523 34.3708 62.9595 41.756 62.9595 49.1388C62.8398 51.4173 60.5906 50.5259 60.5173 49.1388C60.5173 41.7438 60.7933 34.3464 60.5124 26.9563C60.44 26.064 60.0527 25.2265 59.4196 24.5934C58.7866 23.9604 57.9491 23.573 57.0567 23.5006C47.2269 23.127 37.3849 23.4957 27.5477 23.4957C25.2692 23.3761 26.1606 21.1268 27.5477 21.0536C37.3727 21.0536 47.2 20.9314 57.025 21.056Z" fill="#C05643"/>
<path d="M26.3267 40.591C26.3266 40.9117 26.3897 41.2294 26.5125 41.5257C26.6352 41.822 26.815 42.0913 27.0418 42.3181C27.2686 42.545 27.5379 42.7249 27.8342 42.8476C28.1305 42.9704 28.4481 43.0336 28.7689 43.0336C29.0896 43.0336 29.4072 42.9704 29.7035 42.8476C29.9998 42.7249 30.2691 42.545 30.4959 42.3181C30.7227 42.0913 30.9025 41.822 31.0252 41.5257C31.148 41.2294 31.2111 40.9117 31.211 40.591C31.2111 40.2703 31.148 39.9526 31.0252 39.6563C30.9025 39.36 30.7227 39.0907 30.4959 38.8639C30.2691 38.6371 29.9998 38.4571 29.7035 38.3344C29.4072 38.2116 29.0896 38.1484 28.7689 38.1484C28.4481 38.1484 28.1305 38.2116 27.8342 38.3344C27.5379 38.4571 27.2686 38.6371 27.0418 38.8639C26.815 39.0907 26.6352 39.36 26.5125 39.6563C26.3897 39.9526 26.3266 40.2703 26.3267 40.591Z" fill="#C05643"/>
<path d="M28.8934 38.1514L29.018 38.1611L29.1401 38.1782L29.2597 38.1978L29.3794 38.2271L29.4942 38.2588L29.609 38.2979L29.7189 38.3419L29.8263 38.3907L29.9313 38.4444L30.0339 38.503L30.134 38.5665L30.2293 38.6349L30.3221 38.7057L30.41 38.7839L30.4955 38.8645L30.5761 38.95L30.6542 39.0379L30.725 39.1307L30.7934 39.2259L30.8569 39.3261L30.9155 39.4286L30.9693 39.5336L31.0181 39.6411L31.0621 39.751L31.1011 39.8658L31.1329 39.9806L31.1622 40.1002L31.1817 40.2199L31.1988 40.342L31.2086 40.4666L31.211 40.5911L31.2086 40.7157L31.1988 40.8402L31.1817 40.9623L31.1622 41.082L31.1329 41.2017L31.1011 41.3164L31.0621 41.4312L31.0181 41.5411L30.9693 41.6486L30.9155 41.7536L30.8569 41.8562L30.7934 41.9563L30.725 42.0515L30.6542 42.1444L30.5761 42.2323L30.4955 42.3177L30.41 42.3983L30.3221 42.4765L30.2293 42.5473L30.134 42.6157L30.0339 42.6792L29.9313 42.7378L29.8263 42.7915L29.7189 42.8404L29.609 42.8843L29.4942 42.9234L29.3794 42.9552L29.2597 42.9845L29.1401 43.004L29.018 43.0211L28.8934 43.0309L28.7689 43.0333L28.6443 43.0309L28.5197 43.0211L28.3976 43.004L28.278 42.9845L28.1583 42.9552L28.0435 42.9234L27.9287 42.8843L27.8188 42.8404L27.7114 42.7915L27.6064 42.7378L27.5038 42.6792L27.4037 42.6157L27.3084 42.5473L27.2156 42.4765L27.1277 42.3983L27.0422 42.3177L26.9616 42.2323L26.8835 42.1444L26.8127 42.0515L26.7443 41.9563L26.6808 41.8562L26.6222 41.7536L26.5684 41.6486L26.5196 41.5411L26.4756 41.4312L26.4366 41.3164L26.4048 41.2017L26.3755 41.082L26.356 40.9623L26.3389 40.8402L26.3291 40.7157L26.3267 40.5911L26.3291 40.4666L26.3389 40.342L26.356 40.2199L26.3755 40.1002L26.4048 39.9806L26.4366 39.8658L26.4756 39.751L26.5196 39.6411L26.5684 39.5336L26.6222 39.4286L26.6808 39.3261L26.7443 39.2259L26.8127 39.1307L26.8835 39.0379L26.9616 38.95L27.0422 38.8645L27.1277 38.7839L27.2156 38.7057L27.3084 38.6349L27.4037 38.5665L27.5038 38.503L27.6064 38.4444L27.7114 38.3907L27.8188 38.3419L27.9287 38.2979L28.0435 38.2588L28.1583 38.2271L28.278 38.1978L28.3976 38.1782L28.5197 38.1611L28.6443 38.1514L28.7689 38.1489L28.8934 38.1514Z" fill="#C05643"/>
<path d="M35.978 40.591C35.978 40.9117 36.0411 41.2294 36.1638 41.5257C36.2865 41.822 36.4664 42.0913 36.6932 42.3181C36.92 42.545 37.1892 42.7249 37.4855 42.8476C37.7819 42.9704 38.0995 43.0336 38.4202 43.0336C38.741 43.0336 39.0586 42.9704 39.3549 42.8476C39.6512 42.7249 39.9205 42.545 40.1472 42.3181C40.374 42.0913 40.5539 41.822 40.6766 41.5257C40.7993 41.2294 40.8625 40.9117 40.8624 40.591C40.8625 40.2703 40.7993 39.9526 40.6766 39.6563C40.5539 39.36 40.374 39.0907 40.1472 38.8639C39.9205 38.6371 39.6512 38.4571 39.3549 38.3344C39.0586 38.2116 38.741 38.1484 38.4202 38.1484C38.0995 38.1484 37.7819 38.2116 37.4855 38.3344C37.1892 38.4571 36.92 38.6371 36.6932 38.8639C36.4664 39.0907 36.2865 39.36 36.1638 39.6563C36.0411 39.9526 35.978 40.2703 35.978 40.591Z" fill="#C05643"/>
<path d="M38.5448 38.1514L38.6693 38.1611L38.7914 38.1782L38.9111 38.1978L39.0308 38.2271L39.1456 38.2588L39.2603 38.2979L39.3702 38.3419L39.4777 38.3907L39.5827 38.4444L39.6853 38.503L39.7854 38.5665L39.8806 38.6349L39.9735 38.7057L40.0614 38.7839L40.1468 38.8645L40.2274 38.95L40.3056 39.0379L40.3764 39.1307L40.4448 39.2259L40.5083 39.3261L40.5669 39.4286L40.6206 39.5336L40.6695 39.6411L40.7134 39.751L40.7525 39.8658L40.7843 39.9806L40.8136 40.1002L40.8331 40.2199L40.8502 40.342L40.86 40.4666L40.8624 40.5911L40.86 40.7157L40.8502 40.8402L40.8331 40.9623L40.8136 41.082L40.7843 41.2017L40.7525 41.3164L40.7134 41.4312L40.6695 41.5411L40.6206 41.6486L40.5669 41.7536L40.5083 41.8562L40.4448 41.9563L40.3764 42.0515L40.3056 42.1444L40.2274 42.2323L40.1468 42.3177L40.0614 42.3983L39.9735 42.4765L39.8806 42.5473L39.7854 42.6157L39.6853 42.6792L39.5827 42.7378L39.4777 42.7915L39.3702 42.8404L39.2603 42.8843L39.1456 42.9234L39.0308 42.9552L38.9111 42.9845L38.7914 43.004L38.6693 43.0211L38.5448 43.0309L38.4202 43.0333L38.2957 43.0309L38.1711 43.0211L38.049 43.004L37.9293 42.9845L37.8097 42.9552L37.6949 42.9234L37.5801 42.8843L37.4702 42.8404L37.3628 42.7915L37.2577 42.7378L37.1552 42.6792L37.055 42.6157L36.9598 42.5473L36.867 42.4765L36.7791 42.3983L36.6936 42.3177L36.613 42.2323L36.5348 42.1444L36.464 42.0515L36.3956 41.9563L36.3321 41.8562L36.2735 41.7536L36.2198 41.6486L36.171 41.5411L36.127 41.4312L36.0879 41.3164L36.0562 41.2017L36.0269 41.082L36.0073 40.9623L35.9902 40.8402L35.9805 40.7157L35.978 40.5911L35.9805 40.4666L35.9902 40.342L36.0073 40.2199L36.0269 40.1002L36.0562 39.9806L36.0879 39.8658L36.127 39.751L36.171 39.6411L36.2198 39.5336L36.2735 39.4286L36.3321 39.3261L36.3956 39.2259L36.464 39.1307L36.5348 39.0379L36.613 38.95L36.6936 38.8645L36.7791 38.7839L36.867 38.7057L36.9598 38.6349L37.055 38.5665L37.1552 38.503L37.2577 38.4444L37.3628 38.3907L37.4702 38.3419L37.5801 38.2979L37.6949 38.2588L37.8097 38.2271L37.9293 38.1978L38.049 38.1782L38.1711 38.1611L38.2957 38.1514L38.4202 38.1489L38.5448 38.1514Z" fill="#C05643"/>
<path d="M45.8643 40.5911C45.8643 40.9118 45.9274 41.2294 46.0502 41.5257C46.1729 41.822 46.3528 42.0912 46.5796 42.318C46.8063 42.5448 47.0756 42.7247 47.3719 42.8474C47.6682 42.9701 47.9857 43.0333 48.3065 43.0333C48.6272 43.0333 48.9447 42.9701 49.241 42.8474C49.5373 42.7247 49.8066 42.5448 50.0333 42.318C50.2601 42.0912 50.44 41.822 50.5627 41.5257C50.6855 41.2294 50.7486 40.9118 50.7486 40.5911C50.7486 40.2704 50.6855 39.9528 50.5627 39.6565C50.44 39.3602 50.2601 39.091 50.0333 38.8642C49.8066 38.6374 49.5373 38.4576 49.241 38.3348C48.9447 38.2121 48.6272 38.1489 48.3065 38.1489C47.9857 38.1489 47.6682 38.2121 47.3719 38.3348C47.0756 38.4576 46.8063 38.6374 46.5796 38.8642C46.3528 39.091 46.1729 39.3602 46.0502 39.6565C45.9274 39.9528 45.8643 40.2704 45.8643 40.5911Z" fill="#C05643"/>
<path d="M48.431 38.1514L48.5556 38.1611L48.6777 38.1782L48.7973 38.1978L48.917 38.2271L49.0318 38.2588L49.1466 38.2979L49.2565 38.3419L49.3639 38.3907L49.4689 38.4444L49.5715 38.503L49.6716 38.5665L49.7669 38.6349L49.8597 38.7057L49.9476 38.7839L50.0331 38.8645L50.1137 38.95L50.1918 39.0379L50.2626 39.1307L50.331 39.2259L50.3945 39.3261L50.4531 39.4286L50.5069 39.5336L50.5557 39.6411L50.5997 39.751L50.6387 39.8658L50.6705 39.9806L50.6998 40.1002L50.7193 40.2199L50.7364 40.342L50.7462 40.4666L50.7486 40.5911L50.7462 40.7157L50.7364 40.8402L50.7193 40.9623L50.6998 41.082L50.6705 41.2017L50.6387 41.3164L50.5997 41.4312L50.5557 41.5411L50.5069 41.6486L50.4531 41.7536L50.3945 41.8562L50.331 41.9563L50.2626 42.0515L50.1918 42.1444L50.1137 42.2323L50.0331 42.3177L49.9476 42.3983L49.8597 42.4765L49.7669 42.5473L49.6716 42.6157L49.5715 42.6792L49.4689 42.7378L49.3639 42.7915L49.2565 42.8404L49.1466 42.8843L49.0318 42.9234L48.917 42.9552L48.7973 42.9845L48.6777 43.004L48.5556 43.0211L48.431 43.0309L48.3065 43.0333L48.1819 43.0309L48.0573 43.0211L47.9352 43.004L47.8156 42.9845L47.6959 42.9552L47.5811 42.9234L47.4663 42.8843L47.3564 42.8404L47.249 42.7915L47.144 42.7378L47.0414 42.6792L46.9413 42.6157L46.846 42.5473L46.7532 42.4765L46.6653 42.3983L46.5798 42.3177L46.4992 42.2323L46.4211 42.1444L46.3503 42.0515L46.2819 41.9563L46.2184 41.8562L46.1598 41.7536L46.106 41.6486L46.0572 41.5411L46.0132 41.4312L45.9742 41.3164L45.9424 41.2017L45.9131 41.082L45.8936 40.9623L45.8765 40.8402L45.8667 40.7157L45.8643 40.5911L45.8667 40.4666L45.8765 40.342L45.8936 40.2199L45.9131 40.1002L45.9424 39.9806L45.9742 39.8658L46.0132 39.751L46.0572 39.6411L46.106 39.5336L46.1598 39.4286L46.2184 39.3261L46.2819 39.2259L46.3503 39.1307L46.4211 39.0379L46.4992 38.95L46.5798 38.8645L46.6653 38.7839L46.7532 38.7057L46.846 38.6349L46.9413 38.5665L47.0414 38.503L47.144 38.4444L47.249 38.3907L47.3564 38.3419L47.4663 38.2979L47.5811 38.2588L47.6959 38.2271L47.8156 38.1978L47.9352 38.1782L48.0573 38.1611L48.1819 38.1514L48.3065 38.1489L48.431 38.1514Z" fill="#C05643"/>
</svg>
