<svg width="80" height="80" viewBox="0 0 80 80" fill="none" xmlns="http://www.w3.org/2000/svg">
<circle cx="40" cy="40" r="40" fill="#F8CAB9"/>
<path fill-rule="evenodd" clip-rule="evenodd" d="M20.0046 29.3256L20 29.5251V52.4492L20.0046 52.6744L20.0137 52.7883L20.0228 52.8997L20.0342 53.0111L20.0501 53.1205L20.0683 53.2319L20.0888 53.3409L20.1116 53.4503L20.1367 53.5572L20.1663 53.6666L20.1959 53.7736L20.2301 53.8781L20.2665 53.9827L20.3052 54.0876L20.3462 54.1898L20.3895 54.2923L20.4373 54.3944L20.4852 54.4925L20.5376 54.5926L20.5899 54.6903L20.7038 54.8816L20.7653 54.9749L20.8929 55.1569L20.9612 55.2457L21.0318 55.3345L21.1776 55.5028L21.2551 55.5868L21.4145 55.7462L21.4988 55.8237L21.6673 55.9694L21.7562 56.0397L21.845 56.1079L22.0272 56.2355L22.1206 56.2968L22.312 56.4107L22.4099 56.4628L22.5101 56.5156L22.6081 56.5632L22.7106 56.6109L22.813 56.6541L22.9156 56.6952L23.0203 56.734L23.1251 56.7703L23.2299 56.8046L23.444 56.8636L23.5533 56.8886L23.6627 56.9112L23.772 56.9318L23.8836 56.9499L23.9929 56.9661L24.1046 56.9774L24.2162 56.9863L24.3301 56.9955L24.5555 57H56.4445L56.6699 56.9955L56.7838 56.9863L56.8954 56.9774L57.0071 56.9661L57.1164 56.9499L57.228 56.9318L57.3373 56.9112L57.4467 56.8886L57.556 56.8636L57.7701 56.8046L57.8749 56.7703L57.9797 56.734L58.0844 56.6952L58.187 56.6541L58.2894 56.6109L58.3919 56.5632L58.4899 56.5156L58.5901 56.4628L58.688 56.4107L58.8794 56.2968L58.9728 56.2355L59.155 56.1079L59.2438 56.0397L59.3327 55.9694L59.5012 55.8237L59.5855 55.7462L59.7449 55.5868L59.8224 55.5028L59.9682 55.3345L60.0388 55.2457L60.1071 55.1569L60.2347 54.9749L60.2962 54.8816L60.4101 54.6903L60.4624 54.5926L60.5148 54.4925L60.5627 54.3944L60.6105 54.2923L60.6538 54.1898L60.6948 54.0876L60.7335 53.9827L60.7699 53.8781L60.8041 53.7736L60.8337 53.6666L60.8633 53.5572L60.8884 53.4503L60.9112 53.3409L60.9317 53.2319L60.9499 53.1205L60.9658 53.0111L60.9772 52.8997L60.9863 52.7883L60.9954 52.6744L61 52.4492V29.5251L60.9954 29.3256V29.3012L60.9863 29.2117V29.1881L60.9772 29.1003V29.077L60.9658 28.9889V28.9663L60.9499 28.8795V28.8576L60.9317 28.7681V28.7469L60.9112 28.6591V28.6382L60.8884 28.5497L60.8884 28.5295L60.8633 28.4428V28.4232L60.8337 28.3334V28.3145L60.8041 28.2264V28.2083L60.7699 28.104L60.7335 28.0002L60.6948 27.8959L60.6538 27.7941L60.6105 27.6923L60.5627 27.5905L60.5148 27.4934L60.4624 27.3937L60.41 27.2963L60.2962 27.1064L60.2347 27.0138L60.1071 26.8328L60.0388 26.7443L59.9682 26.6562L59.8224 26.4886L59.7449 26.4049L59.5855 26.2538L59.5855 26.2466L59.5012 26.1763V26.1698L59.3327 26.0306V26.0251L59.2438 25.9603L59.2438 25.9548L59.155 25.8921V25.8869L58.9728 25.7645L58.8794 25.7032L58.688 25.5893L58.5901 25.5372L58.4899 25.4844L58.3919 25.4368L58.2894 25.3891L58.187 25.3459L58.0844 25.3048L57.9797 25.266L57.8749 25.2297L57.7701 25.1954L57.556 25.1364L57.4467 25.1114L57.3373 25.0888L57.228 25.0682L57.1164 25.0501L57.0071 25.0339L56.8954 25.0226L56.7838 25.0137L56.6699 25.0045L56.4445 25H24.5555L24.3301 25.0045L24.2162 25.0137L24.1046 25.0226L23.9929 25.0339L23.8836 25.0501L23.772 25.0682L23.6627 25.0888L23.5533 25.1114L23.444 25.1364L23.2299 25.1954L23.1251 25.2297L23.0203 25.266L22.9156 25.3048L22.813 25.3459L22.7106 25.3891L22.6081 25.4368L22.5101 25.4844L22.4099 25.5372L22.312 25.5893L22.1206 25.7032L22.0272 25.7645L21.845 25.8869V25.8921L21.7562 25.9548L21.7562 25.9603L21.6673 26.0251V26.0306L21.4988 26.1698L21.4988 26.1763L21.4145 26.2466V26.2538L21.2551 26.4049L21.1776 26.4886L21.0318 26.6562L20.9612 26.7443L20.8929 26.8328L20.7653 27.0138L20.7038 27.1064L20.59 27.2963L20.5376 27.3937L20.4852 27.4934L20.4373 27.5905L20.3895 27.6923L20.3462 27.7941L20.3052 27.8959L20.2665 28.0002L20.2301 28.104L20.1959 28.2083L20.1959 28.2264L20.1663 28.3145V28.3334L20.1367 28.4232V28.4428L20.1116 28.5295V28.5497L20.0888 28.6382V28.6591L20.0683 28.7469V28.7681L20.0501 28.8576V28.8795L20.0342 28.9663V28.9889L20.0228 29.077V29.1003L20.0137 29.1881V29.2117L20.0046 29.3012V29.3256ZM22.2778 33.9515V52.5061L22.2801 52.563L22.2847 52.6175L22.2892 52.6744L22.2961 52.729L22.3029 52.7859L22.3211 52.8952L22.3348 52.9497L22.3462 53.0042L22.3598 53.0567L22.3758 53.1112L22.4305 53.2682L22.4509 53.3207L22.4965 53.4208L22.5466 53.5209L22.6013 53.6162L22.6605 53.7119L22.7243 53.8031L22.7584 53.8463L22.7926 53.8918L22.8291 53.935L22.9452 54.0578L23.0682 54.174L23.1115 54.2103L23.157 54.2443L23.2003 54.2786L23.2914 54.3423L23.3871 54.4016L23.4828 54.4562L23.583 54.5062L23.6832 54.5518L23.7356 54.572L23.8928 54.6269L23.9475 54.6427L23.9998 54.6564L24.0545 54.6677L24.1092 54.6814L24.2185 54.6996L24.2754 54.7064L24.3301 54.7133L24.3871 54.7177L24.4417 54.7225L24.4987 54.7246H56.5014L56.5584 54.7225L56.613 54.7177L56.67 54.7133L56.7247 54.7064L56.7816 54.6996L56.8909 54.6814L56.9456 54.6677L57.0003 54.6564L57.0527 54.6427L57.1073 54.6269L57.2645 54.572L57.3169 54.5518L57.4171 54.5062L57.5173 54.4562L57.613 54.4016L57.7087 54.3423L57.7998 54.2786L57.843 54.2443L57.8886 54.2103L57.9319 54.174L58.0549 54.0578L58.1711 53.935L58.2075 53.8918L58.2417 53.8463L58.2758 53.8031L58.3396 53.7119L58.3988 53.6162L58.4535 53.5209L58.5036 53.4208L58.5492 53.3207L58.5697 53.2682L58.6243 53.1112L58.6403 53.0567L58.6539 53.0042L58.6653 52.9497L58.679 52.8952L58.6972 52.7859L58.7041 52.729L58.7109 52.6744L58.7154 52.6175L58.72 52.563L58.7223 52.5061V33.9512L54.2437 37.4234C53.8187 37.7529 53.2149 37.7149 52.8346 37.3346C52.3878 36.8878 52.4246 36.1529 52.9138 35.753L57.9637 31.625L58.0548 31.539L58.0981 31.4961L58.1391 31.4508L58.1801 31.4032L58.2575 31.3082L58.3304 31.2088L58.3623 31.1567L58.3965 31.107L58.4261 31.0525L58.4557 31.0007L58.483 30.9462L58.5103 30.8896L58.5354 30.8355L58.581 30.7223L58.6015 30.6634L58.6197 30.6068L58.6379 30.5482L58.6538 30.4892L58.6675 30.4282L58.6812 30.3692L58.6903 30.3082L58.7017 30.2472L58.7153 30.1251L58.7176 30.0637L58.7222 30.0007L58.7223 29.4939L58.7222 29.4685L58.72 29.437L58.7199 29.412L58.7154 29.3825L58.7153 29.3574L58.7109 29.3256L58.7108 29.3009L58.7041 29.271L58.7039 29.2467L58.6972 29.2141L58.6971 29.1901L58.679 29.1048L58.6653 29.0503L58.6652 29.0273L58.6539 28.9958L58.6403 28.9433L58.6243 28.8888L58.5697 28.7318L58.5492 28.6793L58.5036 28.5792L58.4535 28.4791L58.3988 28.3838L58.3396 28.2881L58.2758 28.1969L58.2417 28.1537L58.2075 28.1081L58.1711 28.065L58.0549 27.9422L57.9319 27.826L57.8886 27.7897L57.843 27.7557L57.7998 27.7214L57.7087 27.6577L57.613 27.5984L57.5173 27.5438L57.4171 27.4938L57.3169 27.4482L57.2645 27.428L57.1073 27.3731L57.0527 27.3573L57.0003 27.3436L56.9456 27.3323L56.8909 27.3186L56.7816 27.3004L56.7247 27.2936L56.67 27.2867L56.613 27.2823L56.5584 27.2775L56.5014 27.2754H24.4987L24.4417 27.2775L24.3871 27.2823L24.3301 27.2867L24.2754 27.2936L24.2185 27.3004L24.1092 27.3186L24.0545 27.3323L23.9998 27.3436L23.9475 27.3573L23.8928 27.3731L23.7356 27.428L23.6832 27.4482L23.583 27.4938L23.4828 27.5438L23.3871 27.5984L23.2914 27.6577L23.2003 27.7214L23.157 27.7557L23.1115 27.7897L23.0682 27.826L22.9452 27.9422L22.8291 28.065L22.7926 28.1081L22.7584 28.1537L22.7243 28.1969L22.6605 28.2881L22.6013 28.3838L22.5466 28.4791L22.4965 28.5792L22.4509 28.6793L22.4305 28.7318L22.3758 28.8888L22.3598 28.9433L22.3462 28.9958L22.3348 29.0503L22.3211 29.1048L22.3029 29.2141L22.2961 29.271L22.2892 29.3256L22.2847 29.3825L22.2801 29.437L22.2778 29.4939L22.2777 30.0007L22.2823 30.0637L22.2846 30.1251L22.2982 30.2472L22.3096 30.3082L22.3187 30.3692L22.3324 30.4282L22.3461 30.4892L22.362 30.5482L22.3802 30.6068L22.3985 30.6634L22.419 30.7223L22.4645 30.8355L22.4896 30.8896L22.5146 30.9462L22.5442 31.0007L22.5738 31.0525L22.6035 31.107L22.6376 31.1567L22.6695 31.2088L22.7424 31.3082L22.8198 31.4032L22.8609 31.4508L22.9018 31.4961L22.9451 31.539L23.0362 31.625L39.0194 45.0669L39.0695 45.1074L39.1105 45.1413L39.1515 45.1708L39.1925 45.2027L39.2358 45.2298L39.2791 45.2589L39.3223 45.2839L39.3656 45.311L39.4089 45.3336L39.4522 45.3587L39.4977 45.3813L39.6344 45.4423L39.68 45.4605L39.7255 45.4763L39.8212 45.5078L39.8667 45.5215L39.9146 45.5352L40.0102 45.5579L40.0603 45.5692L40.1082 45.5781L40.156 45.5849L40.254 45.5983L40.3041 45.6031L40.3519 45.6052L40.402 45.6096H40.5979L40.648 45.6052L40.6958 45.6031L40.746 45.5983L40.8439 45.5849L40.8917 45.5781L40.9396 45.5692L40.9897 45.5579L41.0854 45.5352L41.1332 45.5215L41.1787 45.5078L41.2744 45.4763L41.32 45.4605L41.3655 45.4423L41.5022 45.3813L41.5477 45.3587L41.591 45.3336L41.6343 45.311L41.6776 45.2839L41.7208 45.2589L41.7641 45.2298L41.8074 45.2027L41.8484 45.1708L41.8894 45.1413L41.9304 45.1074L41.9805 45.0669L49.2546 39.1104C49.6777 38.7639 50.2946 38.7946 50.6813 39.1813C51.1218 39.6218 51.0914 40.345 50.6153 40.7469L43.4428 46.802L43.3631 46.8678L43.1991 46.9943L43.1171 47.0533L43.0328 47.1099L42.9462 47.1664L42.7731 47.2707L42.6843 47.3204L42.5955 47.3677L42.5066 47.4129L42.4155 47.4537L42.3244 47.4966L42.231 47.5353L42.1399 47.5713L42.0465 47.6053L41.9531 47.6372L41.8575 47.6687L41.7618 47.6958L41.6684 47.7229L41.5727 47.7479L41.4748 47.7681L41.3791 47.7887L41.2812 47.8069L41.1855 47.8226L41.0876 47.836L40.9896 47.8473L40.8917 47.8566L40.6958 47.8699L40.5979 47.8723H40.402L40.304 47.8699L40.1081 47.8566L40.0102 47.8473L39.9123 47.836L39.8143 47.8226L39.7186 47.8069L39.6207 47.7887L39.525 47.7681L39.4271 47.7479L39.3314 47.7229L39.238 47.6958L39.1424 47.6687L39.0467 47.6372L38.9533 47.6053L38.8599 47.5713L38.7688 47.5353L38.6754 47.4966L38.5843 47.4537L38.4932 47.4129L38.4044 47.3677L38.3155 47.3204L38.2267 47.2707L38.0536 47.1664L37.967 47.1099L37.8827 47.0533L37.8008 46.9943L37.6368 46.8678L37.557 46.802L22.2778 33.9515Z" fill="#C05643"/>
<path d="M25.8863 51.5172C25.3968 51.0304 25.3946 50.2389 25.8815 49.7494L33.2856 42.3044C33.7724 41.8149 34.5639 41.8128 35.0534 42.2996C35.5429 42.7864 35.5451 43.5778 35.0583 44.0673L27.6541 51.5123C27.1673 52.0018 26.3758 52.004 25.8863 51.5172Z" fill="#C05643"/>
<path d="M55.4638 51.5172C55.9533 51.0304 55.9555 50.2389 55.4686 49.7494L48.0645 42.3044C47.5776 41.8149 46.7862 41.8128 46.2967 42.2996C45.8072 42.7864 45.805 43.5778 46.2918 44.0673L53.696 51.5123C54.1828 52.0018 54.9743 52.004 55.4638 51.5172Z" fill="#C05643"/>
</svg>
