<svg width="80" height="80" viewBox="0 0 80 80" fill="none" xmlns="http://www.w3.org/2000/svg">
<circle cx="40" cy="40" r="40" fill="#F8CAB9"/>
<path d="M50.6225 45.9324C50.6225 45.9324 60.6101 47.3211 59.597 52.4405C58.9766 55.5744 55.3362 56.5447 52.5608 57.3174C44.0477 59.6828 34.3713 59.5927 26.4765 56.8022C23.7118 55.8277 20.3589 54.1534 21.1059 51.1312C21.8357 48.1754 25.2701 47.2331 27.6871 46.5205C28.6401 46.2393 30.4711 45.6383 31.0077 46.3745C31.6238 47.2245 30.6943 47.9436 29.0888 48.3579C26.7577 48.9761 23.6646 49.7338 23.1923 51.6463C22.733 53.4923 25.2723 54.044 26.6482 54.5785C27.0174 54.7223 27.3909 54.8532 27.7644 54.9734C28.2838 55.1387 28.8097 55.2868 29.3356 55.4199C29.9152 55.5658 30.499 55.6946 31.085 55.8063C39.5229 57.4548 49.2036 57.8089 56.0166 53.6104C58.0515 52.3547 57.3625 49.6265 50.279 48.0467C50.279 48.0467 49.7209 47.8621 49.532 47.437C49.2251 46.7545 49.4998 45.8808 50.6225 45.9324Z" fill="#C05643"/>
<path d="M40.4995 18L40.6669 18.0043L40.8322 18.0086L40.9975 18.0172L41.1606 18.0258L41.3237 18.0365L41.4869 18.0515L41.65 18.0665L41.811 18.0837L41.9741 18.1052L42.1351 18.1266L42.2939 18.1481L42.4528 18.1739L42.6116 18.2018L42.7705 18.2297L42.9272 18.2619L43.0839 18.2941L43.2406 18.3284L43.3972 18.3671L43.5518 18.4057L43.7042 18.4486L43.8587 18.4873L44.0111 18.5323L44.1614 18.5796L44.3117 18.6268L44.4619 18.6761L44.6122 18.7277L44.7624 18.7813L44.9084 18.8371L45.0543 18.8929L45.2003 18.9509L45.3441 19.0153L45.4879 19.0733L45.6318 19.1376L45.7734 19.202L45.9151 19.2707L46.0546 19.3394L46.1941 19.4081L46.3337 19.4811L46.471 19.5541L46.6063 19.6292L46.7415 19.7065L46.8767 19.7859L47.0098 19.8653L47.1407 19.9469L47.2717 20.0284L47.4026 20.1143L47.5314 20.2002L47.6602 20.2882L47.789 20.3762L47.9113 20.4663L48.0358 20.5586L48.1603 20.6531L48.2827 20.7475L48.4029 20.8441L48.5231 20.9407L48.6411 21.0416L48.7592 21.1403L48.8751 21.2434L48.991 21.3464L49.1048 21.4537L49.2164 21.5568L49.328 21.6641L49.4375 21.7735L49.547 21.883L49.6543 21.9946L49.7616 22.1063L49.8647 22.22L49.9677 22.3359L50.0686 22.4518L50.1695 22.5699L50.2682 22.688L50.3669 22.8082L50.4635 22.9284L50.558 23.0507L50.6524 23.1731L50.7447 23.2976L50.8349 23.4264L50.9229 23.5509L51.0109 23.6796L51.0967 23.8084L51.1826 23.9372L51.2642 24.0682L51.3457 24.2012L51.4252 24.3343L51.5046 24.4696L51.5819 24.6048L51.657 24.74L51.73 24.8774L51.8008 25.0169L51.8716 25.1564L51.9403 25.296L52.0069 25.4376L52.0734 25.5793L52.1378 25.7231L52.1979 25.8669L52.258 26.0107L52.3181 26.1567L52.3739 26.3027L52.4297 26.4529L52.4834 26.5989L52.5349 26.7491L52.5843 26.8994L52.6315 27.0496L52.6787 27.1999L52.7216 27.3523L52.7646 27.5069L52.8075 27.6593L52.844 27.8138L52.8805 27.9705L52.917 28.125L52.9492 28.2817L52.9814 28.4406L53.0093 28.5973L53.0372 28.7561L53.0629 28.9171L53.0865 29.0759L53.108 29.2369L53.1295 29.3979L53.1445 29.5611L53.1595 29.7242L53.1746 29.8873L53.1853 30.0505L53.1939 30.2136L53.2025 30.3789L53.2068 30.5442L53.211 30.7094V31.128L53.2025 31.3813L53.1896 31.6324L53.1746 31.8857L53.1531 32.1369L53.1316 32.388L53.0994 32.6391L53.0672 32.8903L53.0286 33.1414L52.9878 33.3926L52.9449 33.6437L52.8934 33.8927L52.8397 34.1417L52.7839 34.3928L52.7216 34.6397L52.6572 34.8887L52.5929 35.1355L52.5199 35.3845L52.4447 35.6314L52.3675 35.8761L52.2859 36.1208L52.2 36.3655L52.1142 36.6102L52.024 36.8549L51.9296 37.0974L51.833 37.3378L51.7343 37.5782L51.6334 37.8186L51.5282 38.0591L51.4209 38.2973L51.3135 38.5334L51.1998 38.7717L51.086 39.0078L50.968 39.2439L50.8499 39.4736L50.7297 39.7054L50.6052 39.9372L50.4807 40.1669L50.3541 40.3966L50.2253 40.6241L50.0965 40.8495L49.9634 41.0749L49.8282 41.3003L49.6929 41.5214L49.5556 41.7424L49.4182 41.9635L49.2787 42.1803L49.137 42.3971L48.9953 42.6139L48.8515 42.8286L48.7077 43.0389L48.5639 43.2536L48.4179 43.4596L48.2698 43.6679L47.9736 44.0778L47.6774 44.4792L47.3769 44.8763L47.0763 45.2649L46.7758 45.6448L46.471 46.0183L46.1705 46.3832L45.87 46.7395L45.5738 47.0872L45.2776 47.4264L44.9835 47.7569L44.6959 48.0789L44.4104 48.388L44.1313 48.6907L43.8544 48.9805L43.584 49.2616L43.3221 49.5321L43.0667 49.7918L42.8177 50.0408L42.5816 50.2769L42.3476 50.5023L42.1265 50.717L41.914 50.9187L41.5233 51.2836L41.1799 51.5992L40.8901 51.8632L40.654 52.0693L40.4823 52.2217L40.3363 52.344L40.1925 52.2217L40.0208 52.0714L39.7847 51.8632L39.4906 51.6013L39.1472 51.2879L38.7565 50.923L38.5462 50.7213L38.3229 50.5066L38.0932 50.2812L37.8528 50.0451L37.6038 49.7983L37.3484 49.5407L37.0865 49.2681L36.8161 48.989L36.5413 48.6971L36.2623 48.3966L35.9768 48.0854L35.687 47.7655L35.3929 47.4371L35.0967 47.098L34.8005 46.7502L34.5 46.3939L34.1995 46.029L33.899 45.6577L33.5942 45.2756L33.2937 44.8892L32.9932 44.4921L32.6948 44.0907L32.3986 43.6829L32.2526 43.4725L32.1066 43.2643L31.9607 43.054L31.8169 42.8415L31.6752 42.6268L31.5314 42.4122L31.3919 42.1975L31.2523 41.9764L31.1128 41.7575L30.9754 41.5364L30.8402 41.3131L30.7071 41.0899L30.574 40.8645L30.4453 40.637L30.3165 40.4095L30.1877 40.1819L30.0632 39.9501L29.9408 39.7204L29.8185 39.4865L29.7004 39.2547L29.5845 39.0185L29.4686 38.7846L29.357 38.5485L29.2497 38.3123L29.1423 38.0719L29.0372 37.8315L28.9341 37.5911L28.8354 37.3507L28.7388 37.1082L28.6465 36.8656L28.5542 36.6209L28.4683 36.3783L28.3825 36.1315L28.303 35.8868L28.2236 35.6399L28.1485 35.3931L28.0777 35.1462L28.0133 34.8973L27.9489 34.6483L27.8866 34.3993L27.8287 34.1503L27.775 33.8991L27.7256 33.6501L27.6827 33.399L27.6398 33.1479L27.6011 32.8967L27.5689 32.6434L27.5389 32.3923L27.5174 32.1411L27.496 31.8879L27.4788 31.6346L27.4659 31.3813L27.4595 31.1301V30.7094L27.4616 30.5442L27.4659 30.3789L27.4745 30.2136L27.4831 30.0505L27.4938 29.8873L27.5088 29.7242L27.5239 29.5611L27.541 29.3979L27.5625 29.2369L27.584 29.0759L27.6054 28.9171L27.6312 28.7561L27.6591 28.5973L27.687 28.4406L27.7192 28.2817L27.7514 28.125L27.7879 27.9705L27.8244 27.8138L27.863 27.6593L27.9059 27.509L27.9489 27.3523L27.9918 27.202L28.0369 27.0518L28.0841 26.8972L28.1335 26.7491L28.185 26.5989L28.2387 26.4508L28.2945 26.3027L28.3503 26.1567L28.4104 26.0107L28.4705 25.8669L28.5349 25.7231L28.595 25.5793L28.6615 25.4376L28.7281 25.296L28.7967 25.1564L28.8676 25.0169L28.9384 24.8774L29.0114 24.74L29.0865 24.6048L29.1638 24.4696L29.2432 24.3343L29.3226 24.2012L29.4042 24.0682L29.4901 23.9394L29.5716 23.8106L29.6575 23.6818L29.7455 23.553L29.8335 23.4242L29.9237 23.2976L30.016 23.1731L30.1104 23.0507L30.2048 22.9284L30.3014 22.8082L30.4002 22.688L30.4989 22.5699L30.5998 22.4518L30.7007 22.3359L30.8037 22.22L30.911 22.1063L31.0141 21.9946L31.1214 21.883L31.2309 21.7757L31.3403 21.6641L31.452 21.5568L31.5636 21.4516L31.6773 21.3464L31.7933 21.2434L31.9092 21.1403L32.0272 21.0416L32.1453 20.9407L32.2655 20.8441L32.3857 20.7475L32.508 20.6531L32.6325 20.5586L32.757 20.4663L32.8815 20.3762L33.0103 20.2903L33.1391 20.2002L33.2679 20.1143L33.3967 20.0284L33.5276 19.9469L33.6586 19.8653L33.7917 19.7859L33.9269 19.7065L34.0621 19.6292L34.1973 19.5541L34.3347 19.4811L34.4742 19.4081L34.6138 19.3394L34.7533 19.2707L34.895 19.202L35.0366 19.1376L35.1804 19.0733L35.3243 19.0131L35.4681 18.9509L35.614 18.8929L35.76 18.8371L35.9102 18.7813L36.0562 18.7277L36.2065 18.6761L36.3567 18.6268L36.507 18.5796L36.6572 18.5323L36.8096 18.4894L36.9642 18.4465L37.1166 18.4057L37.2711 18.3671L37.4278 18.3284L37.5845 18.2941L37.7412 18.2619L37.8979 18.2297L38.0567 18.2018L38.2156 18.1739L38.3744 18.1481L38.5333 18.1266L38.6943 18.1052L38.8574 18.0837L39.0184 18.0665L39.1815 18.0515L39.3446 18.0365L39.5078 18.0258L39.6709 18.0172L39.8362 18.0086L40.0015 18.0043L40.1689 18H40.4995ZM40.1947 20.1465L40.0573 20.1486L39.9178 20.1529L39.7804 20.1594L39.643 20.168L39.5078 20.1766L39.3704 20.1894L39.2352 20.2023L39.0999 20.2152L38.9669 20.2324L38.8316 20.2495L38.6986 20.271L38.5655 20.2925L38.4367 20.3139L38.3014 20.3375L38.1727 20.3633L38.0439 20.3912L37.9108 20.4213L37.782 20.4513L37.6532 20.4835L37.5244 20.5178L37.3978 20.5522L37.2711 20.5908L37.1445 20.6273L37.02 20.6702L36.8955 20.7089L36.771 20.7518L36.6465 20.7969L36.5241 20.842L36.4018 20.8892L36.2816 20.9386L36.1614 20.9879L36.0412 21.0394L35.921 21.0931L35.8029 21.1468L35.6849 21.2026L35.569 21.2605L35.453 21.3185L35.3371 21.3786L35.2234 21.443L35.1096 21.5031L34.998 21.5675L34.8842 21.6319L34.7769 21.6984L34.6631 21.7671L34.5558 21.8358L34.4485 21.9066L34.3412 21.9775L34.2338 22.0504L34.1265 22.1256L34.0213 22.2007L33.9183 22.278L33.8153 22.3553L33.7122 22.4347L33.6113 22.5162L33.5126 22.5978L33.4117 22.6794L33.3151 22.7652L33.2185 22.8511L33.1219 22.937L33.0275 23.0228L32.9331 23.1108L32.8408 23.201L32.7485 23.2911L32.6583 23.3834L32.5681 23.4757L32.4823 23.568L32.3921 23.6646L32.3063 23.7591L32.2204 23.8578L32.1367 23.9544L32.0551 24.0531L31.9736 24.154L31.892 24.2549L31.8126 24.3579L31.7353 24.4588L31.658 24.5661L31.5829 24.6692L31.5099 24.7765L31.4369 24.8838L31.364 24.9912L31.2931 25.0985L31.2244 25.2058L31.1557 25.3174L31.0914 25.4269L31.027 25.5385L30.9626 25.6523L30.8982 25.766L30.8359 25.8798L30.778 25.9957L30.7179 26.1116L30.6621 26.2275L30.6062 26.3456L30.5504 26.4637L30.4989 26.586L30.4474 26.7041L30.3959 26.8264L30.3465 26.9466L30.2993 27.069L30.2564 27.1913L30.2091 27.3158L30.1662 27.4382L30.1254 27.567L30.0868 27.6893L30.0482 27.8181L30.0117 27.9426L29.9752 28.0714L29.9408 28.2002L29.9086 28.329L29.8786 28.4578L29.8485 28.5865L29.8228 28.7153L29.7949 28.8463L29.7734 28.9794L29.7476 29.1103L29.7283 29.2434L29.7069 29.3765L29.6897 29.5095L29.6747 29.6448L29.6596 29.78L29.6468 29.9152L29.636 30.0526L29.6253 30.1878L29.6167 30.3252L29.6124 30.4626L29.6081 30.6L29.6038 30.7373V30.8726L29.606 31.0894L29.6124 31.304L29.621 31.5187L29.636 31.7333L29.6532 31.948L29.6747 32.1648L29.6983 32.3816L29.7283 32.5984L29.7605 32.8151L29.7949 33.0319L29.8378 33.2509L29.8807 33.4698L29.9258 33.6888L29.9752 33.9077L30.0288 34.1267L30.0846 34.3456L30.1447 34.5667L30.2091 34.7856L30.2757 35.0067L30.3444 35.2257L30.4174 35.4468L30.4925 35.6657L30.5719 35.8868L30.6535 36.1057L30.7393 36.3268L30.8252 36.5458L30.9153 36.7647L31.0076 36.9837L31.1042 37.2026L31.2008 37.4215L31.3017 37.6383L31.4047 37.8551L31.5121 38.0719L31.6194 38.2887L31.7267 38.5055L31.8405 38.7202L31.9542 38.9348L32.0702 39.1495L32.1882 39.3641L32.3084 39.5723L32.4308 39.787L32.5531 39.9952L32.6819 40.2034L32.8064 40.4116L32.9352 40.6198L33.064 40.8259L33.1949 41.032L33.328 41.2359L33.4611 41.4376L33.5963 41.6394L33.7337 41.8412L33.8711 42.0408L34.0084 42.2383L34.1458 42.4315L34.4292 42.8221L34.7125 43.2085L34.998 43.582L35.2835 43.9512L35.5711 44.3161L35.8609 44.6703L36.1485 45.0202L36.434 45.3593L36.7195 45.692L37.005 46.0183L37.284 46.3338L37.5631 46.6408L37.8357 46.9413L38.1061 47.2268L38.3701 47.5058L38.6299 47.7763L38.881 48.036L39.1279 48.285L39.3661 48.5211L39.5958 48.7486L39.8169 48.9654L40.0315 49.1693L40.2312 49.3625L40.3342 49.457L40.4415 49.3582L40.6411 49.1672L40.8558 48.9633L41.0747 48.7486L41.3044 48.519L41.5427 48.2828L41.7874 48.0296L42.0407 47.772L42.3004 47.5015L42.5644 47.2225L42.8327 46.9327L43.1075 46.6343L43.3865 46.3252L43.6656 46.0097L43.9489 45.6834L44.2344 45.3507L44.522 45.0094L44.8096 44.6617L45.0973 44.3054L45.3849 43.9405L45.6725 43.5713L45.958 43.1935L46.2414 42.8114L46.5247 42.4186L46.6599 42.2254L46.7994 42.0279L46.9368 41.8283L47.0721 41.6265L47.2073 41.4248L47.3404 41.223L47.4734 41.0191L47.6044 40.813L47.7353 40.6069L47.8641 40.3987L47.9929 40.1905L48.1153 39.9802L48.2398 39.7698L48.3621 39.5595L48.4802 39.347L48.5982 39.1344L48.7163 38.9198L48.83 38.7073L48.9417 38.4926L49.0511 38.278L49.1585 38.0591L49.2658 37.8444L49.3667 37.6255L49.4675 37.4108L49.5663 37.1897L49.6607 36.9708L49.753 36.7518L49.8432 36.5329L49.9312 36.3139L50.0171 36.095L50.0965 35.8739L50.1759 35.655L50.251 35.4339L50.324 35.2149L50.3948 34.996L50.4614 34.7749L50.5258 34.556L50.5837 34.337L50.6395 34.1181L50.6932 33.8991L50.7447 33.6802L50.7898 33.4612L50.8327 33.2466L50.8757 33.0255L50.9079 32.8109L50.94 32.5919L50.9701 32.3773L50.9937 32.1626L51.0152 31.9437L51.0323 31.729L51.0474 31.5165L51.056 31.3019L51.0624 31.0894L51.0645 30.8747V30.7373L51.0603 30.5978L51.056 30.4604L51.0517 30.3231L51.0431 30.1857L51.0323 30.0505L51.0216 29.9131L51.0087 29.7779L50.9937 29.6426L50.9787 29.5074L50.9615 29.3743L50.94 29.2412L50.9207 29.1081L50.8993 28.9794L50.8735 28.8441L50.8456 28.7153L50.8198 28.5822L50.7898 28.4535L50.7597 28.3247L50.7275 28.1959L50.6932 28.0671L50.6567 27.9404L50.6202 27.8138L50.5816 27.6872L50.5429 27.5627L50.5022 27.436L50.4592 27.3137L50.4163 27.1892L50.3691 27.0668L50.3219 26.9445L50.2725 26.8243L50.221 26.7019L50.1695 26.586L50.1179 26.4658L50.0621 26.3477L50.0063 26.2297L49.9505 26.1138L49.8904 25.9979L49.8325 25.882L49.7702 25.7682L49.708 25.6544L49.6436 25.5407L49.5792 25.429L49.5148 25.3217L49.4439 25.208L49.3752 25.1006L49.3044 24.9933L49.2314 24.886L49.1585 24.7787L49.0855 24.6713L49.0103 24.5661L48.9331 24.461L48.8558 24.3579L48.7764 24.2571L48.6948 24.1562L48.6132 24.0553L48.5317 23.9565L48.448 23.8599L48.3621 23.7612L48.2762 23.6668L48.1904 23.5702L48.1002 23.4779L48.0101 23.3856L47.9199 23.2933L47.8276 23.2031L47.7353 23.113L47.6409 23.0271L47.5464 22.937L47.4498 22.8511L47.3532 22.7652L47.2567 22.6815L47.1558 22.6L47.057 22.5184L46.9561 22.4368L46.8531 22.3574L46.7501 22.2801L46.647 22.2028L46.5419 22.1277L46.4367 22.0526L46.3294 21.9796L46.222 21.9088L46.1147 21.8379L46.0074 21.7693L45.8936 21.7006L45.7863 21.6362L45.6704 21.5718L45.5588 21.5074L45.445 21.443L45.3312 21.3807L45.2153 21.3206L45.0994 21.2627L44.9835 21.2047L44.8655 21.1489L44.7474 21.0953L44.6293 21.0394L44.5091 20.9879L44.3889 20.9386L44.2687 20.8892L44.1464 20.842L44.024 20.799L43.8995 20.7518L43.775 20.7089L43.6505 20.6681L43.526 20.6273L43.3994 20.5908L43.2727 20.5522L43.1461 20.5178L43.0173 20.4835L42.8885 20.4513L42.7597 20.4213L42.6309 20.3912L42.5022 20.3633L42.3691 20.3375L42.236 20.3161L42.1072 20.2903L41.972 20.2689L41.8389 20.2495L41.7037 20.2324L41.5706 20.2152L41.4353 20.2023L41.3001 20.1894L41.1627 20.1766L41.0275 20.168L40.8901 20.1594L40.7528 20.1529L40.6132 20.1486H40.1968L40.1947 20.1465Z" fill="#C05643"/>
<path d="M40.5018 24.4414L40.667 24.4478L40.8323 24.4586L40.9955 24.4715L41.1564 24.4929L41.3174 24.5144L41.4763 24.5401L41.633 24.5702L41.7897 24.6045L41.9442 24.641L42.0988 24.684L42.2512 24.729L42.4014 24.7784L42.5495 24.8299L42.6976 24.8857L42.8414 24.9458L42.9853 25.0102L43.1269 25.0746L43.2664 25.1433L43.4038 25.2163L43.5412 25.2936L43.6743 25.3708L43.8052 25.4567L43.9362 25.5426L44.0628 25.6284L44.1873 25.7186L44.3118 25.813L44.432 25.9096L44.5501 26.0105L44.666 26.1135L44.7776 26.2209L44.8892 26.3282L44.9965 26.4355L45.1017 26.5493L45.2047 26.6652L45.3056 26.7832L45.4022 26.9034L45.4967 27.0258L45.5868 27.1546L45.6748 27.2791L45.7607 27.4079L45.8423 27.541L45.9217 27.674L45.9989 27.8093L46.0719 27.9488L46.1406 28.0883L46.2072 28.23L46.2694 28.3738L46.3295 28.5176L46.3853 28.6679L46.4368 28.8138L46.4862 28.9641L46.5313 29.1165L46.5721 29.2689L46.6107 29.4256L46.645 29.5823L46.6751 29.739L46.7008 29.8978L46.7245 30.0588L46.7416 30.2198L46.7567 30.3829L46.7674 30.5482L46.7738 30.7113L46.776 30.8788L46.7738 31.044L46.7674 31.2093L46.7567 31.3746L46.7416 31.5356L46.7245 31.6987L46.7008 31.8576L46.6751 32.0186L46.645 32.1752L46.6107 32.3319L46.5721 32.4865L46.5313 32.641L46.4862 32.7934L46.4368 32.9437L46.3853 33.094L46.3295 33.2378L46.2694 33.3837L46.2072 33.5275L46.1406 33.6692L46.0719 33.8087L45.9989 33.9461L45.9217 34.0835L45.8423 34.2166L45.7607 34.3475L45.6748 34.4784L45.5868 34.6072L45.4967 34.7296L45.4022 34.8541L45.3056 34.9743L45.2047 35.0923L45.1017 35.2083L44.9965 35.3199L44.8892 35.4315L44.7776 35.5388L44.666 35.6461L44.5501 35.747L44.432 35.8458L44.3118 35.9445L44.1873 36.039L44.0628 36.1291L43.9362 36.2171L43.8052 36.303L43.6743 36.3845L43.5412 36.464L43.4038 36.5412L43.2664 36.6121L43.1269 36.6829L42.9853 36.7494L42.8414 36.8138L42.6976 36.8718L42.5495 36.9276L42.4014 36.9791L42.2512 37.0285L42.0988 37.0736L41.9442 37.1165L41.7897 37.153L41.633 37.1873L41.4763 37.2174L41.3174 37.2431L41.1564 37.2668L40.9955 37.2839L40.8323 37.2989L40.667 37.3097L40.5018 37.3161L40.3365 37.3183H40.1712L40.0059 37.3097L39.8406 37.2989L39.6775 37.2839L39.5165 37.2668L39.3555 37.2453L39.1967 37.2174L39.04 37.1873L38.8833 37.153L38.7287 37.1143L38.5742 37.0736L38.4218 37.0306L38.2715 36.9791L38.1234 36.9276L37.9753 36.8718L37.8315 36.8117L37.6877 36.7494L37.546 36.685L37.4065 36.6121L37.2691 36.5412L37.1317 36.464L36.9987 36.3845L36.8677 36.303L36.7368 36.2171L36.6101 36.1313L36.4857 36.039L36.3612 35.9445L36.241 35.8458L36.1229 35.747L36.007 35.644L35.8954 35.5388L35.7837 35.4315L35.6764 35.3199L35.5712 35.2083L35.4682 35.0923L35.3673 34.9743L35.2707 34.8541L35.1763 34.7296L35.0861 34.6051L34.9981 34.4784L34.9123 34.3497L34.8307 34.2166L34.7513 34.0835L34.674 33.9461L34.601 33.8087L34.5323 33.6692L34.4658 33.5275L34.4035 33.3837L34.3434 33.2378L34.2876 33.0918L34.2361 32.9437L34.1868 32.7934L34.1417 32.6432L34.1009 32.4865L34.0623 32.3319L34.0279 32.1752L33.9979 32.0186L33.9721 31.8576L33.9485 31.6987L33.9313 31.5356L33.9163 31.3746L33.9056 31.2093L33.8991 31.044L33.897 30.8788L33.8991 30.7113L33.9056 30.5482L33.9163 30.3829L33.9313 30.2198L33.9485 30.0588L33.9721 29.8978L33.9979 29.739L34.0279 29.5823L34.0623 29.4256L34.1009 29.2689L34.1417 29.1186L34.1868 28.9641L34.2361 28.8138L34.2876 28.6657L34.3434 28.5176L34.4035 28.3738L34.4658 28.23L34.5323 28.0883L34.601 27.9488L34.674 27.8093L34.7513 27.674L34.8307 27.541L34.9123 27.4079L34.9981 27.2791L35.0861 27.1524L35.1763 27.0258L35.2707 26.9034L35.3673 26.7832L35.4682 26.6652L35.5712 26.5493L35.6764 26.4355L35.7837 26.3282L35.8954 26.2209L36.007 26.1135L36.1229 26.0105L36.241 25.9096L36.3612 25.813L36.4857 25.7186L36.6101 25.6284L36.7368 25.5426L36.8677 25.4567L36.9987 25.3708L37.1317 25.2936L37.2691 25.2163L37.4065 25.1433L37.546 25.0746L37.6877 25.0102L37.8315 24.9458L37.9753 24.8857L38.1234 24.8299L38.2715 24.7784L38.4218 24.729L38.5742 24.6861L38.7287 24.6432L38.8833 24.6045L39.04 24.5702L39.1967 24.5401L39.3555 24.5122L39.5165 24.4908L39.6775 24.4715L39.8406 24.4586L40.0059 24.4478L40.1712 24.4414H40.5018ZM40.2249 26.5879L40.1132 26.5922L40.0038 26.5986L39.8964 26.6072L39.787 26.6201L39.6818 26.6351L39.5745 26.6523L39.4693 26.6738L39.3663 26.6952L39.2632 26.721L39.1623 26.7489L39.0615 26.7789L38.9606 26.8111L38.8618 26.8455L38.7652 26.882L38.6686 26.9249L38.5721 26.9635L38.4776 27.0086L38.3853 27.0537L38.293 27.1031L38.2029 27.1524L38.1127 27.2061L38.0247 27.2619L37.9388 27.3177L37.8551 27.3778L37.7714 27.4379L37.6877 27.5023L37.6083 27.5667L37.5289 27.6333L37.4516 27.7019L37.3765 27.7706L37.3013 27.8436L37.2305 27.9187L37.1597 27.9939L37.091 28.0711L37.0244 28.1506L36.9579 28.23L36.8956 28.3115L36.8355 28.3974L36.7754 28.4833L36.7196 28.5691L36.6638 28.655L36.6123 28.7451L36.5608 28.8353L36.5114 28.9276L36.4663 29.0199L36.4213 29.1143L36.3805 29.2088L36.3397 29.3054L36.3032 29.4041L36.2689 29.5029L36.2367 29.6016L36.2066 29.7025L36.1787 29.8055L36.1529 29.9085L36.1315 30.0116L36.11 30.1189L36.0928 30.2219L36.0778 30.3293L36.0649 30.4366L36.0564 30.5461L36.0499 30.6555L36.0456 30.7671L36.0435 30.8788L36.0456 30.9904L36.0499 31.0999L36.0564 31.2115L36.0649 31.3188L36.0778 31.4261L36.0928 31.5334L36.11 31.6408L36.1315 31.7438L36.1529 31.8511L36.1787 31.952L36.2066 32.0529L36.2367 32.1538L36.2689 32.2547L36.3032 32.3534L36.3418 32.45L36.3805 32.5466L36.4213 32.6432L36.4663 32.7376L36.5114 32.8299L36.5608 32.9222L36.6123 33.0124L36.6638 33.1004L36.7196 33.1884L36.7754 33.2764L36.8355 33.3623L36.8956 33.4438L36.9579 33.5297L37.0244 33.607L37.091 33.6864L37.1597 33.7637L37.2305 33.8388L37.3013 33.9139L37.3765 33.9847L37.4516 34.0556L37.5289 34.1243L37.6083 34.1908L37.6877 34.2552L37.7714 34.3196L37.8551 34.3797L37.9388 34.4398L38.0247 34.4956L38.1127 34.5514L38.2029 34.6029L38.293 34.6545L38.3853 34.7017L38.4776 34.7489L38.5721 34.794L38.6686 34.8369L38.7652 34.8734L38.8618 34.912L38.9606 34.9464L39.0615 34.9786L39.1623 35.0086L39.2632 35.0365L39.3663 35.0623L39.4693 35.0838L39.5745 35.1052L39.6818 35.1224L39.787 35.1374L39.8964 35.1482L40.0038 35.1589L40.1132 35.1653L40.2249 35.1696L40.3365 35.1718H40.4481L40.5597 35.1653L40.6692 35.1589L40.7765 35.1482L40.886 35.1374L40.9912 35.1224L41.0985 35.1052L41.2037 35.0838L41.3067 35.0623L41.4097 35.0365L41.5106 35.0086L41.6115 34.9786L41.7124 34.9464L41.8111 34.912L41.9077 34.8734L42.0043 34.8348L42.1009 34.794L42.1953 34.7511L42.2876 34.7017L42.3799 34.6545L42.4701 34.6029L42.5602 34.5514L42.6483 34.4956L42.7341 34.4398L42.8178 34.3797L42.9015 34.3196L42.9853 34.2552L43.0647 34.1908L43.1441 34.1264L43.2214 34.0556L43.2965 33.9847L43.3716 33.9139L43.4425 33.8388L43.5133 33.7637L43.582 33.6864L43.6485 33.607L43.7151 33.5275L43.7773 33.4438L43.8374 33.3601L43.8975 33.2764L43.9533 33.1905L44.0091 33.1004L44.0607 33.0145L44.1122 32.9222L44.1615 32.8299L44.2066 32.7376L44.2517 32.6432L44.2925 32.5466L44.3311 32.45L44.3697 32.3534L44.4041 32.2547L44.4363 32.1538L44.4663 32.0529L44.4942 31.952L44.52 31.849L44.5415 31.7438L44.5629 31.6408L44.5801 31.5334L44.5951 31.4261L44.608 31.3188L44.6166 31.2115L44.623 31.0999L44.6273 30.9925L44.6295 30.8788L44.6273 30.7671L44.623 30.6555L44.6166 30.5482L44.608 30.4366L44.5951 30.3293L44.5801 30.2219L44.5629 30.1168L44.5415 30.0116L44.52 29.9085L44.4942 29.8055L44.4663 29.7025L44.4363 29.6016L44.4041 29.5029L44.3697 29.4041L44.3333 29.3054L44.2925 29.2088L44.2517 29.1143L44.2066 29.0199L44.1615 28.9276L44.1122 28.8353L44.0607 28.7451L44.0091 28.655L43.9533 28.5691L43.8975 28.4833L43.8374 28.3974L43.7773 28.3115L43.7151 28.23L43.6485 28.1506L43.582 28.0711L43.5133 27.9939L43.4425 27.9187L43.3716 27.8436L43.2965 27.7706L43.2214 27.7019L43.1441 27.6333L43.0647 27.5689L42.9853 27.5002L42.9015 27.4379L42.8178 27.3778L42.7341 27.3177L42.6483 27.2619L42.5602 27.2061L42.4701 27.1524L42.3799 27.1031L42.2876 27.0537L42.1953 27.0108L42.1009 26.9635L42.0043 26.9228L41.9077 26.882L41.8111 26.8455L41.7124 26.8111L41.6115 26.7789L41.5106 26.7489L41.4097 26.721L41.3067 26.6952L41.2037 26.6738L41.0985 26.6523L40.9912 26.6351L40.886 26.6201L40.7765 26.6072L40.6692 26.5986L40.5597 26.5922L40.4481 26.5879H40.2249Z" fill="#C05643"/>
</svg>
