<svg width="250" height="250" viewBox="0 0 250 250" fill="none" xmlns="http://www.w3.org/2000/svg">
<circle cx="125" cy="125" r="125" fill="#FFED4C"/>
<path d="M1.632 27V6.392H16.832V10.36H6.784V14.68H15.648V18.712H6.784V23.032H16.832V27H1.632ZM23.7118 27.32C22.7518 27.32 21.8558 27.1493 21.0238 26.808C20.2131 26.4667 19.5624 25.944 19.0718 25.24C18.5811 24.5147 18.3358 23.6187 18.3358 22.552C18.3358 20.9947 18.8584 19.7787 19.9038 18.904C20.9704 18.008 22.5598 17.56 24.6718 17.56H28.8958V17.208C28.8958 16.44 28.6398 15.896 28.1278 15.576C27.6158 15.2347 26.6558 15.064 25.2478 15.064C23.5198 15.064 21.8238 15.3307 20.1598 15.864V12.536C20.9064 12.2373 21.8131 11.992 22.8798 11.8C23.9678 11.608 25.1091 11.512 26.3038 11.512C28.6504 11.512 30.4851 11.992 31.8078 12.952C33.1518 13.912 33.8238 15.4373 33.8238 17.528V27H29.3118L29.0558 25.72C28.5011 26.232 27.7864 26.6267 26.9118 26.904C26.0584 27.1813 24.9918 27.32 23.7118 27.32ZM25.3438 24.152C26.1544 24.152 26.8584 24.0133 27.4558 23.736C28.0531 23.4587 28.5331 23.1067 28.8958 22.68V20.536H25.2478C23.7331 20.536 22.9758 21.144 22.9758 22.36C22.9758 22.9147 23.1678 23.352 23.5518 23.672C23.9358 23.992 24.5331 24.152 25.3438 24.152ZM43.1533 27.32C41.2759 27.32 39.8893 26.84 38.9933 25.88C38.1186 24.92 37.6813 23.5973 37.6813 21.912V15.736H35.6333V11.832H37.6813V8.664L42.8333 7.288V11.832H46.5133L46.2893 15.736H42.8333V21.56C42.8333 22.2853 43.0146 22.7973 43.3773 23.096C43.7399 23.3733 44.2839 23.512 45.0093 23.512C45.6279 23.512 46.2573 23.4053 46.8973 23.192V26.68C45.8946 27.1067 44.6466 27.32 43.1533 27.32ZM1.632 59V38.392H12.512C14.5813 38.392 16.1387 38.8827 17.184 39.864C18.2507 40.8453 18.784 42.232 18.784 44.024C18.784 45.112 18.5707 46.0293 18.144 46.776C17.7387 47.5013 17.1947 48.0667 16.512 48.472C17.4507 48.8133 18.1867 49.3147 18.72 49.976C19.2533 50.6373 19.52 51.6293 19.52 52.952C19.52 54.9147 18.944 56.4187 17.792 57.464C16.64 58.488 14.9867 59 12.832 59H1.632ZM6.784 46.776H10.976C11.872 46.776 12.5227 46.5733 12.928 46.168C13.3333 45.7627 13.536 45.1973 13.536 44.472C13.536 43.6827 13.3333 43.096 12.928 42.712C12.5227 42.3067 11.7867 42.104 10.72 42.104H6.784V46.776ZM6.784 55.32H11.488C12.4267 55.32 13.12 55.128 13.568 54.744C14.0373 54.36 14.272 53.6773 14.272 52.696C14.272 51.9067 14.048 51.32 13.6 50.936C13.152 50.5307 12.384 50.328 11.296 50.328H6.784V55.32ZM26.868 59.32C25.908 59.32 25.012 59.1493 24.18 58.808C23.3693 58.4667 22.7187 57.944 22.228 57.24C21.7373 56.5147 21.492 55.6187 21.492 54.552C21.492 52.9947 22.0147 51.7787 23.06 50.904C24.1267 50.008 25.716 49.56 27.828 49.56H32.052V49.208C32.052 48.44 31.796 47.896 31.284 47.576C30.772 47.2347 29.812 47.064 28.404 47.064C26.676 47.064 24.98 47.3307 23.316 47.864V44.536C24.0627 44.2373 24.9693 43.992 26.036 43.8C27.124 43.608 28.2653 43.512 29.46 43.512C31.8067 43.512 33.6413 43.992 34.964 44.952C36.308 45.912 36.98 47.4373 36.98 49.528V59H32.468L32.212 57.72C31.6573 58.232 30.9427 58.6267 30.068 58.904C29.2147 59.1813 28.148 59.32 26.868 59.32ZM28.5 56.152C29.3107 56.152 30.0147 56.0133 30.612 55.736C31.2093 55.4587 31.6893 55.1067 32.052 54.68V52.536H28.404C26.8893 52.536 26.132 53.144 26.132 54.36C26.132 54.9147 26.324 55.352 26.708 55.672C27.092 55.992 27.6893 56.152 28.5 56.152ZM49.5735 59.32C48.5495 59.32 47.6535 59.192 46.8855 58.936C46.1175 58.6587 45.4242 58.2533 44.8055 57.72L44.5495 59H40.0695V37.432H45.2215V44.536C45.7975 44.1947 46.4482 43.9387 47.1735 43.768C47.8988 43.5973 48.6455 43.512 49.4135 43.512C51.6322 43.512 53.3815 44.1307 54.6615 45.368C55.9415 46.584 56.5815 48.5573 56.5815 51.288C56.5815 54.0187 55.9522 56.0453 54.6935 57.368C53.4348 58.6693 51.7282 59.32 49.5735 59.32ZM48.1015 55.576C49.2535 55.576 50.0748 55.2347 50.5655 54.552C51.0775 53.848 51.3335 52.7707 51.3335 51.32C51.3335 49.8267 51.0668 48.7813 50.5335 48.184C50.0215 47.5867 49.2108 47.288 48.1015 47.288C46.8855 47.288 45.9255 47.608 45.2215 48.248V54.424C45.9895 55.192 46.9495 55.576 48.1015 55.576ZM61.9565 64.632C61.1885 64.632 60.5272 64.5893 59.9725 64.504C59.4392 64.44 58.9058 64.3013 58.3725 64.088V60.504C58.7352 60.632 59.0658 60.7173 59.3645 60.76C59.6845 60.8027 60.0045 60.824 60.3245 60.824C61.1992 60.824 61.8498 60.664 62.2765 60.344C62.7245 60.0453 63.1725 59.5013 63.6205 58.712L56.8045 43.832H62.2125L66.2125 53.464L70.1485 43.832H75.5245L69.7325 57.752C69.1565 59.1387 68.5165 60.344 67.8125 61.368C67.1085 62.4133 66.2872 63.2133 65.3485 63.768C64.4098 64.344 63.2792 64.632 61.9565 64.632ZM84.382 59V38.392H99.582V42.36H89.534V46.68H98.398V50.712H89.534V55.032H99.582V59H84.382ZM106.462 59.32C105.502 59.32 104.606 59.1493 103.774 58.808C102.963 58.4667 102.312 57.944 101.822 57.24C101.331 56.5147 101.086 55.6187 101.086 54.552C101.086 52.9947 101.608 51.7787 102.654 50.904C103.72 50.008 105.31 49.56 107.422 49.56H111.646V49.208C111.646 48.44 111.39 47.896 110.878 47.576C110.366 47.2347 109.406 47.064 107.998 47.064C106.27 47.064 104.574 47.3307 102.91 47.864V44.536C103.656 44.2373 104.563 43.992 105.63 43.8C106.718 43.608 107.859 43.512 109.054 43.512C111.4 43.512 113.235 43.992 114.558 44.952C115.902 45.912 116.574 47.4373 116.574 49.528V59H112.062L111.806 57.72C111.251 58.232 110.536 58.6267 109.662 58.904C108.808 59.1813 107.742 59.32 106.462 59.32ZM108.094 56.152C108.904 56.152 109.608 56.0133 110.206 55.736C110.803 55.4587 111.283 55.1067 111.646 54.68V52.536H107.998C106.483 52.536 105.726 53.144 105.726 54.36C105.726 54.9147 105.918 55.352 106.302 55.672C106.686 55.992 107.283 56.152 108.094 56.152ZM125.903 59.32C124.026 59.32 122.639 58.84 121.743 57.88C120.869 56.92 120.431 55.5973 120.431 53.912V47.736H118.383V43.832H120.431V40.664L125.583 39.288V43.832H129.263L129.039 47.736H125.583V53.56C125.583 54.2853 125.765 54.7973 126.127 55.096C126.49 55.3733 127.034 55.512 127.759 55.512C128.378 55.512 129.007 55.4053 129.647 55.192V58.68C128.645 59.1067 127.397 59.32 125.903 59.32Z" fill="black"/>
<path d="M164.64 235L160.704 224.696H162.512L165.6 233.128L168.688 224.696H170.496L166.592 235H164.64ZM171.977 235V224.696H176.713C177.865 224.696 178.702 224.995 179.225 225.592C179.758 226.179 180.025 226.979 180.025 227.992C180.025 228.717 179.843 229.336 179.481 229.848C179.118 230.36 178.595 230.717 177.913 230.92C178.105 231.059 178.254 231.208 178.361 231.368C178.467 231.528 178.574 231.741 178.681 232.008L179.977 235H178.185L176.921 232.12C176.803 231.843 176.659 231.645 176.489 231.528C176.329 231.411 176.051 231.352 175.657 231.352H173.721V235H171.977ZM173.721 229.944H176.249C176.878 229.944 177.374 229.789 177.737 229.48C178.099 229.171 178.281 228.675 178.281 227.992C178.281 226.701 177.657 226.056 176.409 226.056H173.721V229.944ZM188.502 237.816C187.937 237.816 187.371 237.779 186.806 237.704C186.241 237.64 185.761 237.539 185.366 237.4V236.056C185.793 236.195 186.283 236.301 186.838 236.376C187.393 236.451 187.921 236.488 188.422 236.488C189.19 236.488 189.75 236.445 190.102 236.36C190.454 236.275 190.63 236.083 190.63 235.784C190.63 235.56 190.545 235.4 190.374 235.304C190.203 235.219 189.878 235.176 189.398 235.176H187.35C185.974 235.176 185.286 234.691 185.286 233.72C185.286 233.411 185.377 233.123 185.558 232.856C185.739 232.589 186.027 232.387 186.422 232.248C185.985 232.035 185.659 231.741 185.446 231.368C185.243 230.995 185.142 230.547 185.142 230.024C185.142 229.053 185.43 228.349 186.006 227.912C186.593 227.475 187.467 227.256 188.63 227.256C188.875 227.256 189.131 227.277 189.398 227.32C189.665 227.352 189.873 227.384 190.022 227.416H192.806L192.758 228.552H191.478C191.681 228.723 191.83 228.936 191.926 229.192C192.022 229.448 192.07 229.725 192.07 230.024C192.07 230.835 191.825 231.475 191.334 231.944C190.843 232.403 190.102 232.632 189.11 232.632C188.939 232.632 188.779 232.627 188.63 232.616C188.491 232.595 188.337 232.573 188.166 232.552C187.846 232.584 187.558 232.669 187.302 232.808C187.046 232.947 186.918 233.133 186.918 233.368C186.918 233.528 186.982 233.645 187.11 233.72C187.238 233.784 187.451 233.816 187.75 233.816H189.878C190.635 233.816 191.217 233.981 191.622 234.312C192.038 234.632 192.246 235.101 192.246 235.72C192.246 236.467 191.921 237 191.27 237.32C190.63 237.651 189.707 237.816 188.502 237.816ZM188.63 231.528C189.323 231.528 189.803 231.411 190.07 231.176C190.347 230.941 190.486 230.541 190.486 229.976C190.486 229.411 190.347 229 190.07 228.744C189.803 228.488 189.323 228.36 188.63 228.36C187.979 228.36 187.505 228.483 187.206 228.728C186.907 228.973 186.758 229.389 186.758 229.976C186.758 230.52 186.897 230.915 187.174 231.16C187.462 231.405 187.947 231.528 188.63 231.528ZM196.017 235.16C195.537 235.16 195.089 235.075 194.673 234.904C194.267 234.733 193.942 234.477 193.697 234.136C193.451 233.784 193.329 233.352 193.329 232.84C193.329 232.115 193.574 231.533 194.065 231.096C194.566 230.648 195.334 230.424 196.369 230.424H198.801V230.088C198.801 229.725 198.742 229.437 198.625 229.224C198.518 229.011 198.315 228.856 198.017 228.76C197.729 228.664 197.302 228.616 196.737 228.616C195.841 228.616 195.003 228.749 194.225 229.016V227.72C194.566 227.581 194.982 227.469 195.473 227.384C195.963 227.299 196.491 227.256 197.057 227.256C198.166 227.256 199.009 227.48 199.585 227.928C200.171 228.376 200.465 229.107 200.465 230.12V235H198.977L198.865 234.232C198.555 234.531 198.171 234.76 197.713 234.92C197.265 235.08 196.699 235.16 196.017 235.16ZM196.481 233.912C197.003 233.912 197.457 233.827 197.841 233.656C198.235 233.475 198.555 233.235 198.801 232.936V231.608H196.401C195.889 231.608 195.515 231.709 195.281 231.912C195.057 232.104 194.945 232.403 194.945 232.808C194.945 233.203 195.078 233.485 195.345 233.656C195.611 233.827 195.99 233.912 196.481 233.912ZM202.399 235V227.416H203.999L204.079 228.216C204.452 227.917 204.863 227.683 205.311 227.512C205.759 227.341 206.239 227.256 206.751 227.256C207.295 227.256 207.716 227.347 208.015 227.528C208.324 227.699 208.559 227.939 208.719 228.248C209.071 227.96 209.476 227.725 209.935 227.544C210.393 227.352 210.943 227.256 211.583 227.256C212.457 227.256 213.103 227.48 213.519 227.928C213.935 228.376 214.143 229.064 214.143 229.992V235H212.431V230.168C212.431 229.581 212.308 229.171 212.063 228.936C211.817 228.701 211.417 228.584 210.863 228.584C210.5 228.584 210.153 228.648 209.823 228.776C209.503 228.904 209.225 229.096 208.991 229.352C209.023 229.469 209.044 229.592 209.055 229.72C209.065 229.848 209.071 229.987 209.071 230.136V235H207.455V230.184C207.455 229.629 207.359 229.224 207.167 228.968C206.975 228.712 206.612 228.584 206.079 228.584C205.705 228.584 205.348 228.675 205.007 228.856C204.676 229.027 204.377 229.235 204.111 229.48V235H202.399ZM219.786 235.16C218.463 235.16 217.439 234.835 216.714 234.184C215.988 233.533 215.626 232.536 215.626 231.192C215.626 229.976 215.935 229.016 216.554 228.312C217.172 227.608 218.111 227.256 219.37 227.256C220.522 227.256 221.386 227.56 221.962 228.168C222.548 228.765 222.842 229.539 222.842 230.488V231.896H217.289C217.375 232.632 217.642 233.139 218.09 233.416C218.538 233.693 219.22 233.832 220.138 233.832C220.522 233.832 220.916 233.795 221.322 233.72C221.727 233.645 222.079 233.549 222.378 233.432V234.712C222.036 234.861 221.642 234.973 221.194 235.048C220.756 235.123 220.287 235.16 219.786 235.16ZM217.289 230.76H221.306V230.232C221.306 229.709 221.162 229.304 220.874 229.016C220.586 228.717 220.1 228.568 219.418 228.568C218.607 228.568 218.047 228.744 217.738 229.096C217.439 229.448 217.289 230.003 217.289 230.76Z" fill="black"/>
</svg>
