<svg width="100" height="100" viewBox="0 0 100 100" fill="none" xmlns="http://www.w3.org/2000/svg">
<g clip-path="url(#clip0_1759_151)">
<circle cx="50" cy="50" r="50" fill="white"/>
<path d="M25.3759 82V78.96C27.4559 78.9067 29.1093 78.7467 30.3359 78.48C31.6159 78.2133 32.5759 77.76 33.2159 77.12C33.9093 76.48 34.3626 75.5733 34.5759 74.4C34.8426 73.2267 34.9759 71.7067 34.9759 69.84V32.56C34.9759 30.6933 34.8693 29.2 34.6559 28.08C34.4959 26.9067 34.1226 26 33.5359 25.36C33.0026 24.6667 32.2026 24.2133 31.1359 24C30.0693 23.7333 28.6826 23.5467 26.9759 23.44V20.4H50.8959C58.0959 20.4 63.6959 21.68 67.6959 24.24C71.6959 26.8 73.6959 30.4 73.6959 35.04C73.6959 38.56 72.5759 41.44 70.3359 43.68C68.1493 45.92 64.6559 47.76 59.8559 49.2V49.52C61.5093 49.68 62.9493 49.8667 64.1759 50.08C65.4026 50.2933 66.4959 50.56 67.4559 50.88C68.4159 51.1467 69.2959 51.4933 70.0959 51.92C70.9493 52.3467 71.7759 52.8267 72.5759 53.36C77.3226 56.72 79.6959 60.9333 79.6959 66C79.6959 68.8267 78.8959 71.4667 77.2959 73.92C75.7493 76.32 73.5626 78.2133 70.7359 79.6C69.8293 80.08 68.8959 80.48 67.9359 80.8C66.9759 81.0667 65.8559 81.3067 64.5759 81.52C63.2959 81.68 61.8026 81.8133 60.0959 81.92C58.4426 81.9733 56.4693 82 54.1759 82H25.3759ZM54.4159 78.56C64.0693 78.56 68.8959 74.4267 68.8959 66.16C68.8959 60.1333 66.4159 55.92 61.4559 53.52C60.6026 53.1467 59.7759 52.8267 58.9759 52.56C58.1759 52.2933 57.2426 52.1067 56.1759 52C55.1093 51.84 53.8293 51.7333 52.3359 51.68C50.8959 51.6267 49.1093 51.6 46.9759 51.6H43.3759V69.44C43.3759 72.6933 44.2293 75.04 45.9359 76.48C47.6426 77.8667 50.4693 78.56 54.4159 78.56ZM47.8559 47.6C49.5093 47.6 50.8959 47.5733 52.0159 47.52C53.1359 47.4667 54.0959 47.3867 54.8959 47.28C55.6959 47.12 56.3893 46.9333 56.9759 46.72C57.6159 46.4533 58.2559 46.1067 58.8959 45.68C60.6026 44.6133 61.8026 43.3333 62.4959 41.84C63.2426 40.3467 63.6159 38.4 63.6159 36C63.6159 31.7867 62.5759 28.7733 60.4959 26.96C58.4693 25.0933 55.2693 24.16 50.8959 24.16H44.7359C43.8293 24.16 43.3759 24.6133 43.3759 25.52V47.6H47.8559Z" fill="black"/>
</g>
<defs>
<clipPath id="clip0_1759_151">
<rect width="100" height="100" fill="white"/>
</clipPath>
</defs>
</svg>
