<svg width="20" height="21" viewBox="0 0 20 21" fill="none" xmlns="http://www.w3.org/2000/svg">
<path d="M19.616 4.64C19.616 5.25867 19.52 5.81333 19.328 6.304C19.1573 6.79467 18.912 7.232 18.592 7.616C18.272 8 17.8987 8.34133 17.472 8.64C17.0453 8.93867 16.576 9.216 16.064 9.472C16.2987 9.55733 16.576 9.696 16.896 9.888C17.216 10.0587 17.5253 10.304 17.824 10.624C18.1227 10.944 18.368 11.36 18.56 11.872C18.7733 12.3627 18.88 12.9707 18.88 13.696C18.88 14.656 18.6773 15.5413 18.272 16.352C17.8667 17.1627 17.2587 17.8667 16.448 18.464C15.6587 19.04 14.6773 19.4987 13.504 19.84C12.352 20.16 11.0187 20.32 9.504 20.32H0L4.32 0H12.736C13.568 0 14.3893 0.0640004 15.2 0.192001C16.032 0.298668 16.768 0.522668 17.408 0.864C18.0693 1.20533 18.6027 1.68533 19.008 2.304C19.4133 2.90133 19.616 3.68 19.616 4.64ZM10.912 8.512C11.3813 8.512 11.776 8.37333 12.096 8.096C12.4373 7.81867 12.7147 7.47733 12.928 7.072C13.1413 6.64533 13.3013 6.19733 13.408 5.728C13.5147 5.23733 13.568 4.8 13.568 4.416C13.568 3.79733 13.4187 3.27467 13.12 2.848C12.8427 2.4 12.3947 2.176 11.776 2.176H10.816L9.44 8.512H10.912ZM8.608 18.304C9.248 18.304 9.78133 18.1227 10.208 17.76C10.6347 17.3973 10.9867 16.9493 11.264 16.416C11.5413 15.8827 11.7333 15.328 11.84 14.752C11.968 14.1547 12.032 13.632 12.032 13.184C12.032 12.4373 11.872 11.8507 11.552 11.424C11.2533 10.976 10.7627 10.752 10.08 10.752H8.896L7.328 18.304H8.608Z" fill="#00CF64"/>
</svg>
