<svg width="21" height="22" viewBox="0 0 21 22" fill="none" xmlns="http://www.w3.org/2000/svg">
<path d="M14.2344 10.7656C16.2448 11.2344 17.6562 11.8021 18.4688 12.4688C19.6354 13.4167 20.2188 14.6458 20.2188 16.1562C20.2188 17.75 19.5781 19.0677 18.2969 20.1094C16.724 21.3698 14.4375 22 11.4375 22H0.671875V21.4219C1.65104 21.4219 2.3125 21.3333 2.65625 21.1562C3.01042 20.9688 3.25521 20.7292 3.39062 20.4375C3.53646 20.1458 3.60938 19.4271 3.60938 18.2812V4.53125C3.60938 3.38542 3.53646 2.66667 3.39062 2.375C3.25521 2.07292 3.01042 1.83333 2.65625 1.65625C2.30208 1.47917 1.64062 1.39062 0.671875 1.39062V0.8125H10.8281C13.2552 0.8125 14.974 1.03125 15.9844 1.46875C16.9948 1.89583 17.7917 2.54167 18.375 3.40625C18.9583 4.26042 19.25 5.17188 19.25 6.14062C19.25 7.16146 18.8802 8.07292 18.1406 8.875C17.401 9.66667 16.099 10.2969 14.2344 10.7656ZM8.54688 10.3438C10.026 10.3438 11.1146 10.1771 11.8125 9.84375C12.5208 9.51042 13.0625 9.04167 13.4375 8.4375C13.8125 7.83333 14 7.0625 14 6.125C14 5.1875 13.8125 4.42188 13.4375 3.82812C13.0729 3.22396 12.5469 2.76562 11.8594 2.45312C11.1719 2.14062 10.0677 1.98958 8.54688 2V10.3438ZM8.54688 11.5625V18.3594L8.53125 19.1406C8.53125 19.7031 8.67188 20.1302 8.95312 20.4219C9.24479 20.7031 9.67188 20.8438 10.2344 20.8438C11.0677 20.8438 11.8333 20.6615 12.5312 20.2969C13.2396 19.9219 13.7812 19.3854 14.1562 18.6875C14.5312 17.9792 14.7188 17.1927 14.7188 16.3281C14.7188 15.3385 14.4896 14.4531 14.0312 13.6719C13.5729 12.8802 12.9427 12.3281 12.1406 12.0156C11.3385 11.7031 10.1406 11.5521 8.54688 11.5625Z" fill="#EB3333"/>
</svg>
