<svg width="1474" height="243" viewBox="0 0 1474 243" fill="none" xmlns="http://www.w3.org/2000/svg">
<path d="M306.219 160.626C306.176 160.671 306.133 160.715 306.09 160.76L306.08 160.73C306.11 160.708 306.139 160.686 306.169 160.664L306.219 160.626Z" fill="white"/>
<path d="M306.219 160.626C312.196 154.452 319.881 150.201 328.29 148.42C332.597 147.514 337.009 147.211 341.4 147.52C345.827 147.904 350.177 148.914 354.32 150.52C358.513 152.104 362.431 154.338 365.93 157.14C373.132 162.681 378.529 170.232 381.44 178.84C382.88 183.14 383.744 187.613 384.01 192.14C384.134 196.671 383.666 201.199 382.62 205.61C381.492 210.003 379.762 214.22 377.48 218.14C376.787 219.299 376.045 220.427 375.258 221.521L424.44 224.56L369.692 227.953C369.47 228.167 369.246 228.38 369.02 228.59C368.233 229.393 367.384 230.132 366.48 230.8C366.17 231.037 365.864 231.28 365.558 231.522L365.555 231.525C364.982 231.979 364.409 232.433 363.81 232.85C362.233 233.898 360.599 234.856 358.916 235.721L380.85 237.3L348.76 239.62V239.58C347.642 239.848 346.515 240.075 345.38 240.26C343.205 240.611 341.011 240.828 338.81 240.91C336.617 240.924 334.426 240.797 332.25 240.53C330.091 240.248 327.953 239.824 325.85 239.26C323.771 238.669 321.742 237.916 319.78 237.01C317.825 236.151 315.937 235.148 314.13 234.01C312.38 232.79 310.67 231.53 309.07 230.16C312.638 232.3 316.466 233.973 320.46 235.14C322.429 235.737 324.433 236.211 326.46 236.56C328.473 236.861 330.505 237.028 332.54 237.06C334.542 237.112 336.546 237.045 338.54 236.86C340.528 236.606 342.499 236.228 344.44 235.73C346.366 235.232 348.265 234.634 350.13 233.94C351.961 233.178 353.742 232.3 355.46 231.31C369.22 223.55 378 208 377.06 192.41C376.874 188.527 376.185 184.685 375.01 180.98C373.765 177.293 372.04 173.787 369.88 170.55C367.718 167.292 365.097 164.362 362.1 161.85C359.116 159.277 355.787 157.133 352.21 155.48C337.919 148.663 319.725 150.577 306.219 160.626Z" fill="white"/>
<path d="M330.887 218.364C332.39 218.062 333.802 217.414 335.01 216.47C332.322 216.863 329.582 216.696 326.961 215.98C324.34 215.264 321.895 214.015 319.78 212.31C320.341 213.737 321.227 215.013 322.368 216.037C323.509 217.061 324.873 217.805 326.352 218.209C327.831 218.613 329.384 218.666 330.887 218.364Z" fill="white"/>
<path d="M407.294 187.986C407.285 187.995 407.28 188 407.28 188H407.3C407.298 187.995 407.296 187.991 407.294 187.986Z" fill="#6FBA2C"/>
<path d="M410.14 185.22C408.83 186.483 407.449 187.834 407.294 187.986C406.648 186.394 406.154 184.745 405.82 183.06C405.319 180.531 405.319 177.929 405.82 175.4C406.8 171.32 412.39 168.83 412.56 169.64C412.763 170.625 413.042 171.242 413.312 171.839C413.787 172.889 414.235 173.878 414.19 176.71C414.134 178.33 413.746 179.922 413.049 181.386C412.352 182.85 411.362 184.155 410.14 185.22Z" fill="#6FBA2C"/>
<path d="M451.93 197.57C453.14 201.17 454.46 204.99 454.46 204.99C451.52 205.156 448.57 204.981 445.67 204.47C441.274 203.687 437.12 201.889 433.54 199.22C427.71 194.56 427.4 182.08 428.8 182.31C430.496 182.589 431.656 182.469 432.779 182.353C434.755 182.148 436.617 181.955 441.08 183.97C448.08 187.13 450.72 193.97 451.93 197.57Z" fill="#6FBA2C"/>
<path d="M424.5 208.02C423.83 210.54 423.16 213.23 423.16 213.23C421.484 211.972 419.946 210.541 418.57 208.96C416.457 206.523 414.867 203.677 413.9 200.6C412.44 195.42 416.84 188.45 417.52 189.21C418.337 190.132 419.01 190.593 419.663 191.04C420.809 191.824 421.892 192.566 423.58 195.68C426.23 200.57 425.17 205.5 424.5 208.02Z" fill="#6FBA2C"/>
<path d="M387.58 196.89C387.58 196.89 389.12 198.23 390.58 199.51C392.04 200.79 394.87 203.1 398.81 202.34C401.318 201.856 402.108 201.178 402.944 200.46C403.422 200.05 403.914 199.627 404.75 199.22C405.43 198.88 402.24 193.22 398.46 192.92C396.127 192.838 393.809 193.329 391.71 194.35C390.254 195.044 388.879 195.896 387.61 196.89H387.58Z" fill="#6FBA2C"/>
<path d="M289.74 233.51C265.59 233.99 241.44 234.22 217.3 234.41L144.86 234.68L72.42 234.41L36.22 234.08L0 233.51L36.22 232.93L72.44 232.6L144.88 232.33L217.32 232.61C241.46 232.79 265.61 233.02 289.76 233.51H289.74Z" fill="white"/>
<path d="M308.27 237.33C286.27 237.6 264.35 237.73 242.4 237.84L176.53 237.99L110.66 237.84L77.72 237.66L44.79 237.33L77.72 237.01L110.66 236.82L176.53 236.67L242.4 236.83C264.353 236.93 286.31 237.097 308.27 237.33Z" fill="white"/>
<path d="M112.71 242.12C122.88 242.01 133.05 241.88 143.22 241.6H143.27C133.1 241.31 122.93 241.18 112.76 241.07L82.24 240.91L51.73 241.07L36.48 241.26L21.22 241.6L36.44 241.94L51.69 242.14L82.19 242.28L112.71 242.12Z" fill="white"/>
<path d="M136.8 185.19C147.933 178.899 156.898 169.38 162.51 157.89L162.33 157.91C147.47 177.89 122.72 188.28 99.81 184.82C88.4581 183.157 77.7561 178.493 68.81 171.31C64.419 167.732 60.5306 163.578 57.25 158.96C54.0146 154.317 51.3929 149.275 49.45 143.96C47.6088 138.62 46.4431 133.07 45.98 127.44C45.6424 121.786 46.039 116.112 47.16 110.56C48.3204 104.993 50.2347 99.6099 52.85 94.56L53.85 92.64C54.0868 92.2138 54.3464 91.8105 54.6073 91.4053C54.732 91.2116 54.8571 91.0174 54.98 90.82C55.2809 90.351 55.5758 89.8759 55.8711 89.4C56.3313 88.6584 56.7927 87.9149 57.28 87.19C58.9408 84.8461 60.7548 82.6146 62.71 80.51C64.6671 78.3791 66.758 76.375 68.97 74.51C71.2641 72.7193 73.6507 71.0503 76.12 69.51C78.6068 67.9596 81.1886 66.5668 83.85 65.34C86.5684 64.1905 89.3534 63.2054 92.19 62.39C95.0466 61.5342 97.9562 60.8661 100.9 60.39C103.885 59.9952 106.89 59.7715 109.9 59.72C116.036 59.6296 122.16 60.3014 128.13 61.72C126.719 61.0572 125.273 60.4697 123.8 59.96C123.547 59.8636 123.294 59.765 123.039 59.6659L123.037 59.6653C121.839 59.1996 120.613 58.7233 119.36 58.41L114.77 57.27C113.786 57.0064 112.782 56.8751 111.773 56.7431C111.212 56.6699 110.65 56.5964 110.09 56.5C108.522 56.2139 106.934 56.0567 105.34 56.03C104.776 56.0158 104.21 55.9954 103.642 55.9748C102.609 55.9375 101.572 55.9 100.54 55.9C97.323 56.004 94.1161 56.318 90.94 56.84C89.414 57.1018 87.8972 57.4124 86.3919 57.7712L51.82 60.03L75.2799 61.5561C74.3446 61.9715 73.4178 62.4063 72.5 62.86C69.55 64.301 66.7091 65.9554 64 67.81C63.231 68.3629 62.4726 68.9299 61.725 69.5107L0.5 72.94L54.4308 75.952C52.7172 77.6668 51.0882 79.4649 49.55 81.34C48.9305 82.1219 48.3654 82.9362 47.7957 83.757C47.4182 84.301 47.0385 84.848 46.64 85.39C46.4174 85.7504 46.1583 86.1079 45.897 86.4686C45.6651 86.7886 45.4315 87.111 45.22 87.44L44.04 89.62C40.668 95.3976 38.1581 101.637 36.59 108.14C35.0549 114.69 34.4224 121.419 34.71 128.14C35.182 134.856 36.5267 141.482 38.71 147.85C41.051 154.162 44.2222 160.135 48.14 165.61C48.7672 166.528 49.486 167.376 50.2043 168.223C50.5738 168.659 50.9433 169.095 51.3 169.54L52.91 171.47C53.3083 171.896 53.7262 172.308 54.1465 172.722L54.1473 172.723C54.3282 172.901 54.5095 173.08 54.69 173.26C55.0621 173.623 55.4303 173.99 55.7986 174.358L55.7996 174.359C56.6187 175.177 57.4379 175.995 58.3 176.76L62.22 179.92C67.5374 183.973 73.4286 187.212 79.7 189.53C85.9014 191.935 92.4399 193.359 99.08 193.75C105.656 194.198 112.263 193.706 118.7 192.29C125.032 190.768 131.123 188.379 136.8 185.19Z" fill="white"/>
<path d="M145.217 131.592C144.934 129.005 144.1 126.508 142.77 124.27V124.31C143.863 129.048 143.67 133.992 142.211 138.63C140.751 143.268 138.079 147.432 134.47 150.69C136.848 149.675 138.954 148.117 140.62 146.14C142.342 144.135 143.632 141.796 144.41 139.27C145.225 136.798 145.5 134.18 145.217 131.592Z" fill="white"/>
<path d="M142.09 32.3399C144.523 31.2525 146.557 29.4352 147.91 27.1399H147.87C150.117 23.1255 150.757 18.4078 149.66 13.9399C150.206 14.4628 150.722 15.0039 151.231 15.5538C151.965 16.3328 152.66 17.1141 153.33 17.92L154.33 19.15C155.792 20.9793 157.106 22.9221 158.26 24.96C159.524 27.1329 160.426 29.4972 160.93 31.96L160.94 31.94C161.507 34.6757 161.044 37.5245 159.64 39.94C158.969 41.0025 158.078 41.9091 157.028 42.599C155.978 43.289 154.792 43.7462 153.55 43.94C151.384 44.2594 149.177 44.1576 147.05 43.64C142.96 42.6439 139.039 41.0537 135.41 38.92C139.195 40.4824 143.193 41.47 147.27 41.85C149.198 42.0411 151.144 41.8543 153 41.3C153.832 41.06 154.604 40.645 155.262 40.0828C155.921 39.5206 156.452 38.8241 156.82 38.04C158.27 34.95 156.57 31.18 154.22 28.04C153.138 26.6277 151.955 25.2967 150.679 24.0578C150.165 25.3554 149.481 26.5841 148.64 27.7099C146.991 29.8963 144.701 31.5146 142.09 32.3399Z" fill="white"/>
<path d="M242.95 39.46C237.23 39.76 230.54 38.59 227.19 36.62C214.19 28.93 195.35 0 195.35 0L111.06 131.14C111.06 131.14 107.06 125.07 103.37 121.99C96.94 116.68 87.96 118.99 87.96 118.99C87.96 118.99 96.14 117.83 100.82 122.09C104.96 125.85 110.41 135.67 110.41 135.67L156.74 74.79C164.705 76.6603 172.52 79.1204 180.12 82.15C188.33 85.5736 196.31 89.5252 204.01 93.98L209.67 87.81C209.67 87.81 195.91 79.54 187.29 74.94C183.09 72.7 164.12 65.09 164.12 65.09L197.54 21.14C197.54 21.14 221.54 40.53 229.23 46.3C229.715 46.6434 230.207 46.9934 230.705 47.3473C234.554 50.0852 238.726 53.0526 242.56 54.93C252.76 58.64 266.9 58.62 267.4 45.33C267.712 36.929 256.822 38.0976 248.156 39.0277C246.269 39.2302 244.488 39.4213 242.95 39.5V39.46Z" fill="#6FBA2C"/>
<path d="M185.39 122.89C190.62 113.71 241.39 60.38 241.39 60.38L240.22 95.41C240.22 95.41 209.13 119.31 207.03 124.99C203.82 133.71 215.91 151.64 215.91 151.64L216.42 160.76L219.21 169.2L218.39 178.74C218.39 178.74 180.16 132.07 185.39 122.89Z" fill="#6FBA2C"/>
<path fill-rule="evenodd" clip-rule="evenodd" d="M241.39 102.4C241.39 102.4 268.8 108.32 285.06 120.92C295.145 128.738 307.797 129.2 320.458 129.663C327.62 129.925 334.785 130.187 341.49 131.78C360.05 136.19 370.61 146.95 370.61 146.95C370.61 146.95 362.4 140.88 343.55 140.35C325.89 139.854 300.195 147.926 287.162 152.497C284.637 155.34 282.052 158.128 279.44 160.85C269.42 171.34 258.55 181.66 246.05 189.16C242.09 191.54 238 193.85 233.82 196.03C240.52 198.97 247.29 201.72 254.22 204.03C259.946 206.085 265.872 207.533 271.9 208.35C278.69 209.11 285.52 208.24 292.22 207.02C298.605 205.8 304.666 203.266 310.02 199.58C313.427 197.404 316.119 194.274 317.76 190.58L321.91 188.58L328.6 204.15C328.6 204.15 340.78 200.46 342.13 198.36C345.88 192.51 340.78 186.02 338.3 184.02C336.33 182.46 332.84 183.8 332.84 183.8C332.84 183.8 333.86 183.06 336.69 183.16C337.437 183.211 338.16 183.441 338.8 183.83L347 179.45L348.49 182.67L341.59 186.35C342.854 188.007 343.828 189.867 344.47 191.85L351.1 188.31L352.56 191.53L345.06 195.53C345.065 196.684 344.795 197.822 344.274 198.852C343.752 199.881 342.993 200.772 342.06 201.45C341.05 202.44 326.39 208.82 326.39 208.82C326.39 208.82 318.48 203.92 309.88 206.54C291.52 212.12 274.48 214.98 251.77 208.78C243.111 206.331 234.634 203.28 226.4 199.65C218.259 203.542 209.632 206.32 200.75 207.91C192.534 209.349 184.126 209.291 175.93 207.74C169.44 206.41 162.33 204.41 157.44 199.74C151.27 193.86 149.72 183.73 155.62 177.06C162.6 169.16 175.44 170.42 184.36 173.62C193.015 176.731 201.346 180.772 209.643 184.796C211.852 185.868 214.06 186.939 216.27 187.99C220.03 189.77 223.803 191.527 227.59 193.26C227.756 193.171 227.919 193.084 228.081 192.997L228.083 192.997L228.087 192.994C228.432 192.81 228.771 192.63 229.11 192.44C234.912 189.371 240.456 185.84 245.69 181.88C257.571 172.658 268.479 161.761 278.287 150.221C277.422 147.334 275.596 143.163 271.84 137.45C264.61 126.45 241.39 102.4 241.39 102.4ZM206.77 202.89C200.77 204.98 194.58 206.22 188.2 205.51C181.82 204.8 174.5 202.93 169.43 198.68C163.21 193.46 158.49 182.37 166.74 177.9C171.61 175.27 179.01 177.78 183.01 179.52C190.069 182.598 197.046 185.937 204.03 189.279L204.032 189.28L204.034 189.281L204.036 189.282C209.486 191.89 214.94 194.501 220.44 196.99C216.014 199.247 211.448 201.218 206.77 202.89Z" fill="#6FBA2C"/>
<path d="M234.48 106.64L229.48 110.5L229.42 110.51C236.641 116.52 243.434 123.026 249.75 129.98C257.93 139.11 268.75 153.31 268.75 153.31C268.75 153.31 262.52 143.04 253.91 130.31C248.083 121.909 241.585 113.993 234.48 106.64Z" fill="#6FBA2C"/>
<path d="M613.433 69.2842H579.941L584.553 54.8764H570.742L560.63 86.5044H603.666L574.934 116.381H551.061L530.64 179.809H497L539.667 46.6116L528.272 25H627.589L613.433 69.2842Z" fill="#6FBA2C"/>
<path d="M834.583 25H800.943L772.433 114.284H748.683L777.193 25H725.402L736.82 46.6363L708.853 133.971C708.853 133.971 708.655 134.539 708.655 135.377C708.669 136.366 708.862 137.344 709.223 138.264C709.608 139.299 710.131 140.279 710.776 141.175C711.38 142.053 712.131 142.821 712.996 143.445C713.697 144.006 714.564 144.319 715.462 144.333H763.037L738.966 218H785.998L779.142 197.104L834.583 25Z" fill="#6FBA2C"/>
<path d="M663.941 135.353H697.433L689.443 160.073L695.929 179.809H602.136L644.828 46.6116L633.409 25H685.472L645.37 149.933H659.157L663.941 135.353Z" fill="#6FBA2C"/>
<path fill-rule="evenodd" clip-rule="evenodd" d="M1044.05 179.739L1086.74 46.6196L1075.32 25H1177.41C1178.31 25.014 1179.18 25.3262 1179.88 25.8875C1180.74 26.5262 1181.49 27.3005 1182.1 28.18C1182.75 29.0955 1183.28 30.0999 1183.65 31.163C1183.99 32.0621 1184.18 33.0116 1184.22 33.9732C1184.27 34.3945 1184.2 34.8219 1184.02 35.2058L1164.91 95.2576L1146.88 105.118L1158.64 117.173L1140.99 169.583C1140.55 170.695 1139.9 171.71 1139.06 172.566C1137.96 173.773 1136.76 174.887 1135.46 175.894C1134.17 176.916 1132.78 177.824 1131.32 178.605C1130.24 179.275 1129.01 179.672 1127.75 179.764L1044.05 179.739ZM1144.12 54.878H1117.81L1108.98 82.6852L1094.92 90.4998L1102.32 102.579L1087.18 149.935H1113.49L1124.07 117.198L1106.22 93.3101L1138.05 74.0077L1144.12 54.878Z" fill="#6FBA2C"/>
<path d="M1010.72 25L996.57 69.2712H963.127L967.711 54.8676H953.934L943.83 86.4863H986.835L958.124 116.354H934.268L923.424 149.896H937.2L941.981 135.32H975.449L961.106 179.764H875.662L886.95 158.751L922.857 46.6053L911.471 25H1010.72Z" fill="#6FBA2C"/>
<path d="M1200.49 158.8L1243.21 25H1191.41L1202.75 46.6053L1160.3 179.764H1207.36L1200.54 158.825L1200.49 158.8Z" fill="#6FBA2C"/>
<path d="M1287.36 74.7464L1265.65 104.293L1274.01 116.157L1260.04 159.515L1266.66 179.764H1220.13L1262.7 46.6053L1251.31 25H1303.05L1287.36 74.7464Z" fill="#6FBA2C"/>
<path d="M1368.29 25L1318.33 100.047L1351.49 152.359L1385.7 46.6053L1374.26 25H1474L1459.78 69.2712H1426.17L1430.78 54.8676H1416.93L1406.78 86.4863H1450L1421.14 116.354H1397.17L1386.27 149.896H1400.12L1404.92 135.32H1438.56L1424.14 179.764H1321L1277.4 103.895L1331.53 25H1368.29Z" fill="#6FBA2C"/>
<path d="M1002.17 115.635H1041.82L1051.74 85.7085H1012.09L1002.17 115.635Z" fill="#6FBA2C"/>
</svg>
