<svg width="89" height="59" viewBox="0 0 89 59" fill="none" xmlns="http://www.w3.org/2000/svg">
<path d="M30.5625 10.0156H23.9844V7.71875C23.9844 6.27083 23.9219 5.36458 23.7969 5C23.6719 4.63542 23.375 4.45312 22.9062 4.45312C22.5 4.45312 22.224 4.60938 22.0781 4.92188C21.9323 5.23438 21.8594 6.03646 21.8594 7.32812V19.4688C21.8594 20.6042 21.9323 21.3542 22.0781 21.7188C22.224 22.0729 22.5156 22.25 22.9531 22.25C23.4323 22.25 23.7552 22.0469 23.9219 21.6406C24.099 21.2344 24.1875 20.4427 24.1875 19.2656V16.2656H22.8594V12.4219H30.5625V26H26.4219L25.8125 24.1875C25.3646 24.9688 24.7969 25.5573 24.1094 25.9531C23.4323 26.3385 22.6302 26.5312 21.7031 26.5312C20.599 26.5312 19.5625 26.2656 18.5938 25.7344C17.6354 25.1927 16.9062 24.526 16.4062 23.7344C15.9062 22.9427 15.5938 22.1146 15.4688 21.25C15.3438 20.375 15.2812 19.0677 15.2812 17.3281V9.8125C15.2812 7.39583 15.4115 5.64062 15.6719 4.54688C15.9323 3.45312 16.6771 2.45312 17.9062 1.54688C19.1458 0.630208 20.7448 0.171875 22.7031 0.171875C24.6302 0.171875 26.2292 0.567708 27.5 1.35938C28.7708 2.15104 29.599 3.09375 29.9844 4.1875C30.3698 5.27083 30.5625 6.84896 30.5625 8.92188V10.0156ZM38.5781 13.2969H32.6562V11.9062C32.6562 10.3021 32.8385 9.06771 33.2031 8.20312C33.5781 7.32812 34.3229 6.55729 35.4375 5.89062C36.5521 5.22396 38 4.89062 39.7812 4.89062C41.9167 4.89062 43.526 5.27083 44.6094 6.03125C45.6927 6.78125 46.3438 7.70833 46.5625 8.8125C46.7812 9.90625 46.8906 12.1667 46.8906 15.5938V26H40.75V24.1562C40.3646 24.8958 39.8646 25.4531 39.25 25.8281C38.6458 26.1927 37.9219 26.375 37.0781 26.375C35.974 26.375 34.9583 26.0677 34.0312 25.4531C33.1146 24.8281 32.6562 23.4688 32.6562 21.375V19.6719C32.6562 18.1198 32.901 17.0625 33.3906 16.5C33.8802 15.9375 35.0938 15.2812 37.0312 14.5312C39.1042 13.7188 40.2135 13.1719 40.3594 12.8906C40.5052 12.6094 40.5781 12.0365 40.5781 11.1719C40.5781 10.0885 40.4948 9.38542 40.3281 9.0625C40.1719 8.72917 39.9062 8.5625 39.5312 8.5625C39.1042 8.5625 38.8385 8.70312 38.7344 8.98438C38.6302 9.25521 38.5781 9.96875 38.5781 11.125V13.2969ZM40.5781 16.1406C39.5677 16.8802 38.9792 17.5 38.8125 18C38.6562 18.5 38.5781 19.2188 38.5781 20.1562C38.5781 21.2292 38.6458 21.9219 38.7812 22.2344C38.9271 22.5469 39.2083 22.7031 39.625 22.7031C40.0208 22.7031 40.276 22.5833 40.3906 22.3438C40.5156 22.0938 40.5781 21.4479 40.5781 20.4062V16.1406ZM55.2969 5.26562L55.1875 7.23438C55.6771 6.45312 56.2604 5.86979 56.9375 5.48438C57.6146 5.08854 58.3854 4.89062 59.25 4.89062C60.9375 4.89062 62.2656 5.67188 63.2344 7.23438C63.7656 6.45312 64.3646 5.86979 65.0312 5.48438C65.6979 5.08854 66.4375 4.89062 67.25 4.89062C68.3229 4.89062 69.2083 5.15104 69.9062 5.67188C70.6146 6.19271 71.0677 6.83333 71.2656 7.59375C71.4635 8.34375 71.5625 9.56771 71.5625 11.2656V26H65.4375V12.4844C65.4375 10.7135 65.375 9.61979 65.25 9.20312C65.1354 8.77604 64.8594 8.5625 64.4219 8.5625C63.974 8.5625 63.6823 8.77083 63.5469 9.1875C63.4219 9.60417 63.3594 10.7031 63.3594 12.4844V26H57.2344V12.8281C57.2344 10.7969 57.1823 9.57812 57.0781 9.17188C56.9844 8.76562 56.7135 8.5625 56.2656 8.5625C55.9844 8.5625 55.7448 8.67188 55.5469 8.89062C55.349 9.09896 55.2396 9.35938 55.2188 9.67188C55.1979 9.97396 55.1875 10.625 55.1875 11.625V26H49.0625V5.26562H55.2969ZM88.0469 16H79.875V20.4844C79.875 21.4219 79.9427 22.026 80.0781 22.2969C80.2135 22.5677 80.474 22.7031 80.8594 22.7031C81.3385 22.7031 81.6562 22.526 81.8125 22.1719C81.9792 21.8073 82.0625 21.1094 82.0625 20.0781V17.3438H88.0469V18.875C88.0469 20.1562 87.9635 21.1406 87.7969 21.8281C87.6406 22.5156 87.2656 23.25 86.6719 24.0312C86.0781 24.8125 85.3229 25.401 84.4062 25.7969C83.5 26.1823 82.3594 26.375 80.9844 26.375C79.651 26.375 78.474 26.1823 77.4531 25.7969C76.4323 25.4115 75.6354 24.8854 75.0625 24.2188C74.5 23.5417 74.1094 22.8021 73.8906 22C73.6719 21.1875 73.5625 20.0104 73.5625 18.4688V12.4219C73.5625 10.6094 73.8073 9.18229 74.2969 8.14062C74.7865 7.08854 75.5885 6.28646 76.7031 5.73438C77.8177 5.17188 79.099 4.89062 80.5469 4.89062C82.3177 4.89062 83.776 5.22917 84.9219 5.90625C86.0781 6.57292 86.8854 7.46354 87.3438 8.57812C87.8125 9.68229 88.0469 11.2396 88.0469 13.25V16ZM81.7188 12.625V11.1094C81.7188 10.0365 81.6615 9.34375 81.5469 9.03125C81.4323 8.71875 81.1979 8.5625 80.8438 8.5625C80.4062 8.5625 80.1354 8.69792 80.0312 8.96875C79.9271 9.22917 79.875 9.94271 79.875 11.1094V12.625H81.7188ZM0.125 32.7031H5.04688C8.22396 32.7031 10.3698 32.849 11.4844 33.1406C12.6094 33.4323 13.4635 33.9115 14.0469 34.5781C14.6302 35.2448 14.9948 35.9896 15.1406 36.8125C15.2865 37.625 15.3594 39.2292 15.3594 41.625V50.4844C15.3594 52.7552 15.25 54.276 15.0312 55.0469C14.8229 55.8073 14.4531 56.4062 13.9219 56.8438C13.3906 57.2708 12.7344 57.5729 11.9531 57.75C11.1719 57.9167 9.99479 58 8.42188 58H0.125V32.7031ZM6.70312 37.0312V53.6719C7.65104 53.6719 8.23438 53.4844 8.45312 53.1094C8.67188 52.724 8.78125 51.6875 8.78125 50V40.1719C8.78125 39.026 8.74479 38.2917 8.67188 37.9688C8.59896 37.6458 8.43229 37.4115 8.17188 37.2656C7.91146 37.1094 7.42188 37.0312 6.70312 37.0312ZM31.9219 48H23.75V52.4844C23.75 53.4219 23.8177 54.026 23.9531 54.2969C24.0885 54.5677 24.349 54.7031 24.7344 54.7031C25.2135 54.7031 25.5312 54.526 25.6875 54.1719C25.8542 53.8073 25.9375 53.1094 25.9375 52.0781V49.3438H31.9219V50.875C31.9219 52.1562 31.8385 53.1406 31.6719 53.8281C31.5156 54.5156 31.1406 55.25 30.5469 56.0312C29.9531 56.8125 29.1979 57.401 28.2812 57.7969C27.375 58.1823 26.2344 58.375 24.8594 58.375C23.526 58.375 22.349 58.1823 21.3281 57.7969C20.3073 57.4115 19.5104 56.8854 18.9375 56.2188C18.375 55.5417 17.9844 54.8021 17.7656 54C17.5469 53.1875 17.4375 52.0104 17.4375 50.4688V44.4219C17.4375 42.6094 17.6823 41.1823 18.1719 40.1406C18.6615 39.0885 19.4635 38.2865 20.5781 37.7344C21.6927 37.1719 22.974 36.8906 24.4219 36.8906C26.1927 36.8906 27.651 37.2292 28.7969 37.9062C29.9531 38.5729 30.7604 39.4635 31.2188 40.5781C31.6875 41.6823 31.9219 43.2396 31.9219 45.25V48ZM25.5938 44.625V43.1094C25.5938 42.0365 25.5365 41.3438 25.4219 41.0312C25.3073 40.7188 25.0729 40.5625 24.7188 40.5625C24.2812 40.5625 24.0104 40.6979 23.9062 40.9688C23.8021 41.2292 23.75 41.9427 23.75 43.1094V44.625H25.5938ZM40.2344 37.2656L40.125 39.2344C40.6146 38.4531 41.1979 37.8698 41.875 37.4844C42.5521 37.0885 43.3229 36.8906 44.1875 36.8906C45.875 36.8906 47.2031 37.6719 48.1719 39.2344C48.7031 38.4531 49.3021 37.8698 49.9688 37.4844C50.6354 37.0885 51.375 36.8906 52.1875 36.8906C53.2604 36.8906 54.1458 37.151 54.8438 37.6719C55.5521 38.1927 56.0052 38.8333 56.2031 39.5938C56.401 40.3438 56.5 41.5677 56.5 43.2656V58H50.375V44.4844C50.375 42.7135 50.3125 41.6198 50.1875 41.2031C50.0729 40.776 49.7969 40.5625 49.3594 40.5625C48.9115 40.5625 48.6198 40.7708 48.4844 41.1875C48.3594 41.6042 48.2969 42.7031 48.2969 44.4844V58H42.1719V44.8281C42.1719 42.7969 42.1198 41.5781 42.0156 41.1719C41.9219 40.7656 41.651 40.5625 41.2031 40.5625C40.9219 40.5625 40.6823 40.6719 40.4844 40.8906C40.2865 41.099 40.1771 41.3594 40.1562 41.6719C40.1354 41.974 40.125 42.625 40.125 43.625V58H34V37.2656H40.2344ZM72.9688 44.5469V49.625C72.9688 51.4896 72.875 52.8594 72.6875 53.7344C72.5 54.599 72.099 55.4115 71.4844 56.1719C70.8698 56.9219 70.0781 57.4792 69.1094 57.8438C68.151 58.1979 67.0469 58.375 65.7969 58.375C64.401 58.375 63.2188 58.224 62.25 57.9219C61.2812 57.6094 60.526 57.1458 59.9844 56.5312C59.4531 55.9062 59.0729 55.1562 58.8438 54.2812C58.6146 53.3958 58.5 52.0729 58.5 50.3125V45C58.5 43.0729 58.7083 41.5677 59.125 40.4844C59.5417 39.401 60.2917 38.5312 61.375 37.875C62.4583 37.2188 63.8438 36.8906 65.5312 36.8906C66.9479 36.8906 68.1615 37.1042 69.1719 37.5312C70.1927 37.9479 70.9792 38.4948 71.5312 39.1719C72.0833 39.849 72.4583 40.5469 72.6562 41.2656C72.8646 41.9844 72.9688 43.0781 72.9688 44.5469ZM66.6562 42.9844C66.6562 41.9219 66.599 41.2552 66.4844 40.9844C66.3698 40.7031 66.125 40.5625 65.75 40.5625C65.375 40.5625 65.125 40.7031 65 40.9844C64.875 41.2552 64.8125 41.9219 64.8125 42.9844V52.3438C64.8125 53.3229 64.875 53.9635 65 54.2656C65.125 54.5573 65.3698 54.7031 65.7344 54.7031C66.1094 54.7031 66.3542 54.5677 66.4688 54.2969C66.5938 54.026 66.6562 53.4427 66.6562 52.5469V42.9844ZM87.9531 43.8906H82.3594V42.7656C82.3594 41.8073 82.3021 41.2031 82.1875 40.9531C82.0833 40.6927 81.8125 40.5625 81.375 40.5625C81.0208 40.5625 80.7552 40.6823 80.5781 40.9219C80.401 41.151 80.3125 41.5 80.3125 41.9688C80.3125 42.6042 80.3542 43.0729 80.4375 43.375C80.5312 43.6667 80.7969 43.9896 81.2344 44.3438C81.6823 44.6979 82.5938 45.2135 83.9688 45.8906C85.8021 46.7865 87.0052 47.6302 87.5781 48.4219C88.151 49.2135 88.4375 50.3646 88.4375 51.875C88.4375 53.5625 88.2188 54.8385 87.7812 55.7031C87.3438 56.5573 86.6094 57.2188 85.5781 57.6875C84.5573 58.1458 83.3229 58.375 81.875 58.375C80.2708 58.375 78.8958 58.125 77.75 57.625C76.6146 57.125 75.8333 56.4479 75.4062 55.5938C74.9792 54.7396 74.7656 53.4479 74.7656 51.7188V50.7188H80.3594V52.0312C80.3594 53.1458 80.4271 53.8698 80.5625 54.2031C80.7083 54.5365 80.9896 54.7031 81.4062 54.7031C81.8542 54.7031 82.1667 54.5938 82.3438 54.375C82.5208 54.1458 82.6094 53.6719 82.6094 52.9531C82.6094 51.9635 82.4948 51.3438 82.2656 51.0938C82.026 50.8438 80.8021 50.1042 78.5938 48.875C76.7396 47.8333 75.6094 46.8906 75.2031 46.0469C74.7969 45.1927 74.5938 44.1823 74.5938 43.0156C74.5938 41.3594 74.8125 40.1406 75.25 39.3594C75.6875 38.5677 76.4271 37.9583 77.4688 37.5312C78.5208 37.1042 79.7396 36.8906 81.125 36.8906C82.5 36.8906 83.6667 37.0677 84.625 37.4219C85.5938 37.7656 86.3333 38.224 86.8438 38.7969C87.3646 39.3698 87.6771 39.901 87.7812 40.3906C87.8958 40.8802 87.9531 41.6458 87.9531 42.6875V43.8906Z" fill="black"/>
</svg>
