<svg width="250" height="251" viewBox="0 0 250 251" fill="none" xmlns="http://www.w3.org/2000/svg">
<circle cx="125" cy="126" r="125" fill="#FFED4C"/>
<path d="M177.043 27.68C178.088 27.68 178.749 27.488 179.027 27.104C179.325 26.72 179.475 26.0693 179.475 25.152V18.944H177.427V18.24H186.643V18.944H185.395V27.968H184.915C184.531 27.4347 183.987 27.168 183.283 27.168C182.984 27.168 182.088 27.36 180.595 27.744C179.123 28.128 177.864 28.32 176.819 28.32C173.341 28.32 170.643 27.3813 168.723 25.504C166.824 23.6267 165.875 20.8107 165.875 17.056C165.875 13.28 166.867 10.368 168.851 8.32C170.856 6.272 173.544 5.248 176.915 5.248C178.216 5.248 179.517 5.41867 180.819 5.76C182.141 6.08 182.909 6.24 183.123 6.24C183.336 6.24 183.496 6.19733 183.603 6.112C183.709 6.00533 183.827 5.83467 183.955 5.6H184.307L184.562 12.544H183.987C182.941 10.4747 181.885 8.85333 180.819 7.68C179.773 6.48533 178.6 5.888 177.299 5.888C174.035 5.888 172.403 9.07733 172.403 15.456V17.984C172.403 21.184 172.797 23.6053 173.587 25.248C174.397 26.8693 175.549 27.68 177.043 27.68ZM195.531 20.48H196.459V18.016C196.459 15.9893 196.342 14.6347 196.107 13.952C195.894 13.248 195.467 12.896 194.827 12.896C194.443 12.896 194.091 13.0027 193.771 13.216C193.473 13.408 193.323 13.6853 193.323 14.048C193.323 14.3893 193.387 14.7413 193.515 15.104H194.315C194.486 15.552 194.571 16.096 194.571 16.736C194.571 17.3547 194.305 17.8987 193.771 18.368C193.238 18.816 192.566 19.04 191.755 19.04C189.921 19.04 189.003 18.1547 189.003 16.384C189.003 13.76 191.233 12.448 195.691 12.448C198.23 12.448 199.979 12.8853 200.939 13.76C201.921 14.6133 202.411 16.192 202.411 18.496V24.992C202.411 26.1013 202.721 26.656 203.339 26.656C204.065 26.656 204.491 25.5573 204.619 23.36L205.099 23.392C205.014 25.2693 204.662 26.56 204.043 27.264C203.425 27.968 202.411 28.32 201.003 28.32C198.443 28.32 196.971 27.5307 196.587 25.952C196.31 26.7627 195.894 27.36 195.339 27.744C194.785 28.128 193.974 28.32 192.907 28.32C189.75 28.32 188.171 27.0293 188.171 24.448C188.171 22.9333 188.769 21.8987 189.963 21.344C191.179 20.768 193.035 20.48 195.531 20.48ZM194.251 24.416C194.251 25.5253 194.305 26.24 194.411 26.56C194.539 26.88 194.763 27.04 195.083 27.04C195.425 27.04 195.734 26.7733 196.011 26.24C196.31 25.6853 196.459 24.928 196.459 23.968V20.992H196.235C194.913 20.992 194.251 21.9627 194.251 23.904V24.416ZM205.414 12.768H213.126V15.712C213.83 13.536 215.376 12.448 217.766 12.448C220.176 12.448 221.638 13.6 222.15 15.904C222.896 13.6 224.464 12.448 226.854 12.448C229.99 12.448 231.558 14.2293 231.558 17.792V27.424H233.35V28H224.486V27.424H225.606V17.024C225.606 15.4027 225.467 14.4533 225.19 14.176C225.062 14.048 224.891 13.984 224.678 13.984C224.059 13.984 223.515 14.4 223.046 15.232C222.576 16.064 222.342 17.12 222.342 18.4V27.424H223.494V28H215.27V27.424H216.39V17.024C216.39 15.4027 216.251 14.4533 215.974 14.176C215.846 14.048 215.675 13.984 215.462 13.984C214.864 13.984 214.32 14.4427 213.83 15.36C213.36 16.256 213.126 17.3333 213.126 18.592V27.424H214.278V28H205.414V27.424H207.174V13.344H205.414V12.768ZM242.236 28.32C239.484 28.32 237.415 27.616 236.028 26.208C234.663 24.7787 233.98 22.8053 233.98 20.288C233.98 17.7493 234.748 15.808 236.284 14.464C237.841 13.12 239.815 12.448 242.204 12.448C247.047 12.448 249.372 14.88 249.18 19.744H240.156V20.992C240.156 23.0827 240.423 24.6613 240.956 25.728C241.489 26.7947 242.417 27.328 243.74 27.328C246.215 27.328 247.836 26.0053 248.604 23.36L249.18 23.456C248.775 24.992 248.039 26.1867 246.972 27.04C245.927 27.8933 244.348 28.32 242.236 28.32ZM240.188 19.104H243.484V17.536C243.484 15.808 243.377 14.6347 243.164 14.016C242.972 13.376 242.567 13.056 241.948 13.056C241.351 13.056 240.903 13.3973 240.604 14.08C240.327 14.7413 240.188 15.8933 240.188 17.536V19.104ZM172.536 48.416C172.536 52.8107 171.298 55.872 168.824 57.6C166.541 59.2 163.405 60 159.416 60H150.36V59.392H152.472V38.208H150.36V37.6H160.248C164.344 37.6 167.416 38.4427 169.464 40.128C171.512 41.792 172.536 44.5547 172.536 48.416ZM158.712 59.392H159.928C162.082 59.392 163.618 58.6347 164.536 57.12C165.474 55.584 165.944 53.024 165.944 49.44V47.584C165.944 42.784 165.026 39.8933 163.192 38.912C162.317 38.4427 161.08 38.208 159.48 38.208H158.712V59.392ZM182.58 60.32C179.828 60.32 177.758 59.616 176.372 58.208C175.006 56.7787 174.324 54.8053 174.324 52.288C174.324 49.7493 175.092 47.808 176.628 46.464C178.185 45.12 180.158 44.448 182.548 44.448C187.39 44.448 189.716 46.88 189.524 51.744H180.5V52.992C180.5 55.0827 180.766 56.6613 181.3 57.728C181.833 58.7947 182.761 59.328 184.084 59.328C186.558 59.328 188.18 58.0053 188.948 55.36L189.524 55.456C189.118 56.992 188.382 58.1867 187.316 59.04C186.27 59.8933 184.692 60.32 182.58 60.32ZM180.532 51.104H183.828V49.536C183.828 47.808 183.721 46.6347 183.508 46.016C183.316 45.376 182.91 45.056 182.292 45.056C181.694 45.056 181.246 45.3973 180.948 46.08C180.67 46.7413 180.532 47.8933 180.532 49.536V51.104ZM190.664 44.768H198.376V47.712C199.08 45.536 200.626 44.448 203.016 44.448C205.426 44.448 206.888 45.6 207.4 47.904C208.146 45.6 209.714 44.448 212.104 44.448C215.24 44.448 216.808 46.2293 216.808 49.792V59.424H218.6V60H209.736V59.424H210.856V49.024C210.856 47.4027 210.717 46.4533 210.44 46.176C210.312 46.048 210.141 45.984 209.928 45.984C209.309 45.984 208.765 46.4 208.296 47.232C207.826 48.064 207.592 49.12 207.592 50.4V59.424H208.744V60H200.52V59.424H201.64V49.024C201.64 47.4027 201.501 46.4533 201.224 46.176C201.096 46.048 200.925 45.984 200.712 45.984C200.114 45.984 199.57 46.4427 199.08 47.36C198.61 48.256 198.376 49.3333 198.376 50.592V59.424H199.528V60H190.664V59.424H192.424V45.344H190.664V44.768ZM229.406 53.696V50.976C229.406 48.9067 229.289 47.4027 229.054 46.464C228.841 45.504 228.329 45.024 227.518 45.024C227.049 45.024 226.665 45.1627 226.366 45.44C226.089 45.696 225.886 46.1333 225.758 46.752C225.566 47.712 225.47 49.1733 225.47 51.136V53.632C225.47 55.9573 225.534 57.3547 225.662 57.824C225.811 58.2933 225.961 58.6773 226.11 58.976C226.345 59.488 226.803 59.744 227.486 59.744C228.318 59.744 228.862 59.264 229.118 58.304C229.31 57.6213 229.406 56.0853 229.406 53.696ZM227.422 60.32C224.755 60.32 222.739 59.6373 221.374 58.272C220.009 56.9067 219.326 54.9547 219.326 52.416C219.326 49.856 220.051 47.8933 221.502 46.528C222.974 45.1413 225.033 44.448 227.678 44.448C230.323 44.448 232.297 45.088 233.598 46.368C234.899 47.6267 235.55 49.5573 235.55 52.16C235.55 57.6 232.841 60.32 227.422 60.32ZM237.181 60.32V54.592H237.565C238.12 56.448 238.866 57.7493 239.805 58.496C240.744 59.2427 241.917 59.616 243.325 59.616C245.501 59.616 246.589 58.9227 246.589 57.536C246.589 56.9387 246.322 56.4907 245.789 56.192C244.957 55.7227 243.89 55.36 242.589 55.104C241.138 54.72 239.922 54.208 238.941 53.568C237.768 52.8 237.181 51.584 237.181 49.92C237.181 48.256 237.693 46.9333 238.717 45.952C239.741 44.9493 241.106 44.448 242.813 44.448C243.858 44.448 244.936 44.6933 246.045 45.184C246.45 45.3547 246.76 45.44 246.973 45.44C247.186 45.44 247.368 45.3653 247.517 45.216C247.666 45.0667 247.848 44.7893 248.061 44.384H248.413V49.28H248.029C246.941 46.5067 245.256 45.12 242.973 45.12C241.97 45.12 241.224 45.3013 240.733 45.664C240.242 46.0053 239.997 46.4427 239.997 46.976C239.997 47.296 240.072 47.552 240.221 47.744C240.37 47.9147 240.488 48.0427 240.573 48.128C240.658 48.2133 240.797 48.3093 240.989 48.416C241.181 48.5013 241.341 48.576 241.469 48.64C241.597 48.6827 241.789 48.7467 242.045 48.832C242.322 48.9173 242.525 48.9707 242.653 48.992C244.104 49.3547 245.149 49.6747 245.789 49.952C246.429 50.208 247.037 50.528 247.613 50.912C248.786 51.7227 249.373 53.0347 249.373 54.848C249.373 56.64 248.84 58.0053 247.773 58.944C246.706 59.8613 245.245 60.32 243.389 60.32C242.066 60.32 240.786 60.0107 239.549 59.392C239.293 59.2213 239.09 59.136 238.941 59.136C238.472 59.136 238.013 59.5307 237.565 60.32H237.181Z" fill="black"/>
<path d="M15.124 224.192C14.356 224.192 13.676 224.052 13.084 223.772C12.492 223.484 12.028 223.088 11.692 222.584C11.364 222.08 11.2 221.504 11.2 220.856V215.252C11.2 215.068 11.26 214.92 11.38 214.808C11.5 214.688 11.648 214.628 11.824 214.628C12.008 214.628 12.156 214.688 12.268 214.808C12.388 214.92 12.448 215.068 12.448 215.252V220.856C12.448 221.288 12.56 221.672 12.784 222.008C13.016 222.336 13.332 222.596 13.732 222.788C14.14 222.972 14.604 223.064 15.124 223.064C15.628 223.064 16.072 222.972 16.456 222.788C16.848 222.596 17.152 222.336 17.368 222.008C17.592 221.672 17.704 221.288 17.704 220.856V215.252C17.704 215.068 17.764 214.92 17.884 214.808C18.004 214.688 18.152 214.628 18.328 214.628C18.512 214.628 18.66 214.688 18.772 214.808C18.884 214.92 18.94 215.068 18.94 215.252V220.856C18.94 221.504 18.776 222.08 18.448 222.584C18.128 223.088 17.68 223.484 17.104 223.772C16.528 224.052 15.868 224.192 15.124 224.192ZM26.7607 224.012C26.5847 224.012 26.4367 223.956 26.3167 223.844C26.2047 223.724 26.1487 223.576 26.1487 223.4V220.448C26.1487 219.992 26.0647 219.62 25.8967 219.332C25.7287 219.044 25.5007 218.832 25.2127 218.696C24.9327 218.552 24.6087 218.48 24.2407 218.48C23.9047 218.48 23.6007 218.548 23.3287 218.684C23.0567 218.82 22.8407 219.004 22.6807 219.236C22.5207 219.46 22.4407 219.72 22.4407 220.016H21.6847C21.6847 219.512 21.8047 219.064 22.0447 218.672C22.2927 218.272 22.6287 217.956 23.0527 217.724C23.4767 217.492 23.9527 217.376 24.4807 217.376C25.0327 217.376 25.5247 217.496 25.9567 217.736C26.3967 217.968 26.7407 218.312 26.9887 218.768C27.2447 219.224 27.3727 219.784 27.3727 220.448V223.4C27.3727 223.576 27.3127 223.724 27.1927 223.844C27.0807 223.956 26.9367 224.012 26.7607 224.012ZM21.8287 224.012C21.6527 224.012 21.5047 223.956 21.3847 223.844C21.2727 223.724 21.2167 223.576 21.2167 223.4V218.048C21.2167 217.864 21.2727 217.716 21.3847 217.604C21.5047 217.492 21.6527 217.436 21.8287 217.436C22.0127 217.436 22.1607 217.492 22.2727 217.604C22.3847 217.716 22.4407 217.864 22.4407 218.048V223.4C22.4407 223.576 22.3847 223.724 22.2727 223.844C22.1607 223.956 22.0127 224.012 21.8287 224.012ZM30.1284 224C29.9524 224 29.8044 223.944 29.6844 223.832C29.5724 223.712 29.5164 223.564 29.5164 223.388V218.048C29.5164 217.864 29.5724 217.716 29.6844 217.604C29.8044 217.492 29.9524 217.436 30.1284 217.436C30.3124 217.436 30.4604 217.492 30.5724 217.604C30.6844 217.716 30.7404 217.864 30.7404 218.048V223.388C30.7404 223.564 30.6844 223.712 30.5724 223.832C30.4604 223.944 30.3124 224 30.1284 224ZM30.1284 216.368C29.9124 216.368 29.7244 216.292 29.5644 216.14C29.4124 215.98 29.3364 215.792 29.3364 215.576C29.3364 215.36 29.4124 215.176 29.5644 215.024C29.7244 214.864 29.9124 214.784 30.1284 214.784C30.3444 214.784 30.5284 214.864 30.6804 215.024C30.8404 215.176 30.9204 215.36 30.9204 215.576C30.9204 215.792 30.8404 215.98 30.6804 216.14C30.5284 216.292 30.3444 216.368 30.1284 216.368ZM35.4055 224C35.0055 224 34.6455 223.9 34.3255 223.7C34.0055 223.492 33.7535 223.212 33.5695 222.86C33.3855 222.508 33.2935 222.112 33.2935 221.672V215.948C33.2935 215.772 33.3495 215.628 33.4615 215.516C33.5735 215.404 33.7175 215.348 33.8935 215.348C34.0695 215.348 34.2135 215.404 34.3255 215.516C34.4375 215.628 34.4935 215.772 34.4935 215.948V221.672C34.4935 221.992 34.5815 222.26 34.7575 222.476C34.9335 222.692 35.1495 222.8 35.4055 222.8H35.8135C35.9575 222.8 36.0775 222.856 36.1735 222.968C36.2775 223.08 36.3295 223.224 36.3295 223.4C36.3295 223.576 36.2615 223.72 36.1255 223.832C35.9975 223.944 35.8295 224 35.6215 224H35.4055ZM32.7415 218.708C32.5735 218.708 32.4375 218.66 32.3335 218.564C32.2295 218.468 32.1775 218.348 32.1775 218.204C32.1775 218.044 32.2295 217.916 32.3335 217.82C32.4375 217.724 32.5735 217.676 32.7415 217.676H35.5135C35.6815 217.676 35.8175 217.724 35.9215 217.82C36.0255 217.916 36.0775 218.044 36.0775 218.204C36.0775 218.348 36.0255 218.468 35.9215 218.564C35.8175 218.66 35.6815 218.708 35.5135 218.708H32.7415ZM39.0099 226.88C38.9299 226.88 38.8339 226.856 38.7219 226.808C38.3699 226.648 38.2739 226.396 38.4339 226.052L42.0939 217.784C42.2539 217.448 42.5059 217.352 42.8499 217.496C43.2099 217.648 43.3099 217.9 43.1499 218.252L39.4779 226.508C39.3819 226.756 39.2259 226.88 39.0099 226.88ZM40.4259 223.736C40.2739 223.8 40.1299 223.808 39.9939 223.76C39.8659 223.704 39.7619 223.6 39.6819 223.448L36.9339 218.228C36.8539 218.076 36.8419 217.932 36.8979 217.796C36.9619 217.652 37.0699 217.548 37.2219 217.484C37.3739 217.42 37.5179 217.416 37.6539 217.472C37.7899 217.52 37.8939 217.62 37.9659 217.772L40.5939 222.992C40.6739 223.144 40.7019 223.292 40.6779 223.436C40.6619 223.572 40.5779 223.672 40.4259 223.736ZM48.4303 226.808C48.2543 226.808 48.1063 226.748 47.9863 226.628C47.8743 226.516 47.8183 226.372 47.8183 226.196V220.724C47.8263 220.092 47.9743 219.524 48.2623 219.02C48.5503 218.516 48.9423 218.12 49.4383 217.832C49.9343 217.536 50.4943 217.388 51.1183 217.388C51.7503 217.388 52.3143 217.536 52.8103 217.832C53.3063 218.12 53.6983 218.516 53.9863 219.02C54.2823 219.524 54.4303 220.092 54.4303 220.724C54.4303 221.356 54.2943 221.924 54.0223 222.428C53.7583 222.924 53.3943 223.32 52.9303 223.616C52.4663 223.904 51.9423 224.048 51.3583 224.048C50.8863 224.048 50.4503 223.952 50.0503 223.76C49.6583 223.56 49.3223 223.292 49.0423 222.956V226.196C49.0423 226.372 48.9863 226.516 48.8743 226.628C48.7623 226.748 48.6143 226.808 48.4303 226.808ZM51.1183 222.968C51.5263 222.968 51.8903 222.872 52.2103 222.68C52.5303 222.48 52.7823 222.212 52.9663 221.876C53.1583 221.532 53.2543 221.148 53.2543 220.724C53.2543 220.292 53.1583 219.908 52.9663 219.572C52.7823 219.228 52.5303 218.96 52.2103 218.768C51.8903 218.568 51.5263 218.468 51.1183 218.468C50.7183 218.468 50.3543 218.568 50.0263 218.768C49.7063 218.96 49.4543 219.228 49.2703 219.572C49.0863 219.908 48.9943 220.292 48.9943 220.724C48.9943 221.148 49.0863 221.532 49.2703 221.876C49.4543 222.212 49.7063 222.48 50.0263 222.68C50.3543 222.872 50.7183 222.968 51.1183 222.968ZM56.8438 219.896C56.8438 219.416 56.9598 218.988 57.1918 218.612C57.4318 218.228 57.7518 217.924 58.1518 217.7C58.5518 217.476 58.9918 217.364 59.4718 217.364C59.9518 217.364 60.3078 217.444 60.5398 217.604C60.7798 217.756 60.8718 217.94 60.8158 218.156C60.7918 218.268 60.7438 218.356 60.6718 218.42C60.6078 218.476 60.5318 218.512 60.4438 218.528C60.3558 218.544 60.2598 218.54 60.1558 218.516C59.6438 218.412 59.1838 218.404 58.7758 218.492C58.3678 218.58 58.0438 218.744 57.8038 218.984C57.5718 219.224 57.4558 219.528 57.4558 219.896H56.8438ZM56.8558 224C56.6638 224 56.5158 223.952 56.4118 223.856C56.3078 223.752 56.2558 223.6 56.2558 223.4V218.036C56.2558 217.844 56.3078 217.696 56.4118 217.592C56.5158 217.488 56.6638 217.436 56.8558 217.436C57.0558 217.436 57.2038 217.488 57.2998 217.592C57.4038 217.688 57.4558 217.836 57.4558 218.036V223.4C57.4558 223.592 57.4038 223.74 57.2998 223.844C57.2038 223.948 57.0558 224 56.8558 224ZM64.3473 224.048C63.7633 224.048 63.2393 223.904 62.7753 223.616C62.3113 223.32 61.9433 222.924 61.6713 222.428C61.4073 221.924 61.2753 221.356 61.2753 220.724C61.2753 220.092 61.4193 219.524 61.7073 219.02C62.0033 218.516 62.3993 218.12 62.8953 217.832C63.3993 217.536 63.9633 217.388 64.5873 217.388C65.2113 217.388 65.7713 217.536 66.2673 217.832C66.7633 218.12 67.1553 218.516 67.4433 219.02C67.7393 219.524 67.8873 220.092 67.8873 220.724H67.4193C67.4193 221.356 67.2833 221.924 67.0113 222.428C66.7473 222.924 66.3833 223.32 65.9193 223.616C65.4553 223.904 64.9313 224.048 64.3473 224.048ZM64.5873 222.968C64.9953 222.968 65.3593 222.872 65.6793 222.68C65.9993 222.48 66.2513 222.212 66.4353 221.876C66.6193 221.532 66.7113 221.148 66.7113 220.724C66.7113 220.292 66.6193 219.908 66.4353 219.572C66.2513 219.228 65.9993 218.96 65.6793 218.768C65.3593 218.568 64.9953 218.468 64.5873 218.468C64.1873 218.468 63.8233 218.568 63.4953 218.768C63.1753 218.96 62.9193 219.228 62.7273 219.572C62.5433 219.908 62.4513 220.292 62.4513 220.724C62.4513 221.148 62.5433 221.532 62.7273 221.876C62.9193 222.212 63.1753 222.48 63.4953 222.68C63.8233 222.872 64.1873 222.968 64.5873 222.968ZM67.2753 224.012C67.0993 224.012 66.9513 223.956 66.8313 223.844C66.7193 223.724 66.6633 223.576 66.6633 223.4V221.564L66.8913 220.292L67.8873 220.724V223.4C67.8873 223.576 67.8273 223.724 67.7073 223.844C67.5953 223.956 67.4513 224.012 67.2753 224.012ZM72.6849 224.048C72.0449 224.048 71.4729 223.904 70.9689 223.616C70.4729 223.32 70.0809 222.924 69.7929 222.428C69.5129 221.924 69.3729 221.356 69.3729 220.724C69.3729 220.076 69.5129 219.5 69.7929 218.996C70.0729 218.492 70.4569 218.1 70.9449 217.82C71.4329 217.532 71.9929 217.388 72.6249 217.388C73.0969 217.388 73.5289 217.48 73.9209 217.664C74.3129 217.84 74.6649 218.108 74.9769 218.468C75.0889 218.596 75.1289 218.728 75.0969 218.864C75.0649 219 74.9769 219.12 74.8329 219.224C74.7209 219.304 74.5969 219.332 74.4609 219.308C74.3249 219.276 74.2009 219.204 74.0889 219.092C73.6969 218.676 73.2089 218.468 72.6249 218.468C72.2169 218.468 71.8569 218.564 71.5449 218.756C71.2329 218.94 70.9889 219.2 70.8129 219.536C70.6369 219.872 70.5489 220.268 70.5489 220.724C70.5489 221.156 70.6369 221.54 70.8129 221.876C70.9969 222.212 71.2489 222.48 71.5689 222.68C71.8889 222.872 72.2609 222.968 72.6849 222.968C72.9649 222.968 73.2089 222.936 73.4169 222.872C73.6329 222.8 73.8289 222.692 74.0049 222.548C74.1329 222.444 74.2649 222.388 74.4009 222.38C74.5369 222.364 74.6569 222.4 74.7609 222.488C74.8969 222.6 74.9729 222.728 74.9889 222.872C75.0049 223.008 74.9569 223.132 74.8449 223.244C74.2689 223.78 73.5489 224.048 72.6849 224.048ZM79.3039 224C78.9039 224 78.5439 223.9 78.2239 223.7C77.9039 223.492 77.6519 223.212 77.4679 222.86C77.2839 222.508 77.1919 222.112 77.1919 221.672V215.948C77.1919 215.772 77.2479 215.628 77.3599 215.516C77.4719 215.404 77.6159 215.348 77.7919 215.348C77.9679 215.348 78.1119 215.404 78.2239 215.516C78.3359 215.628 78.3919 215.772 78.3919 215.948V221.672C78.3919 221.992 78.4799 222.26 78.6559 222.476C78.8319 222.692 79.0479 222.8 79.3039 222.8H79.7119C79.8559 222.8 79.9759 222.856 80.0719 222.968C80.1759 223.08 80.2279 223.224 80.2279 223.4C80.2279 223.576 80.1599 223.72 80.0239 223.832C79.8959 223.944 79.7279 224 79.5199 224H79.3039ZM76.6399 218.708C76.4719 218.708 76.3359 218.66 76.2319 218.564C76.1279 218.468 76.0759 218.348 76.0759 218.204C76.0759 218.044 76.1279 217.916 76.2319 217.82C76.3359 217.724 76.4719 217.676 76.6399 217.676H79.4119C79.5799 217.676 79.7159 217.724 79.8199 217.82C79.9239 217.916 79.9759 218.044 79.9759 218.204C79.9759 218.348 79.9239 218.468 79.8199 218.564C79.7159 218.66 79.5799 218.708 79.4119 218.708H76.6399ZM82.4643 224C82.2883 224 82.1403 223.944 82.0203 223.832C81.9083 223.712 81.8523 223.564 81.8523 223.388V218.048C81.8523 217.864 81.9083 217.716 82.0203 217.604C82.1403 217.492 82.2883 217.436 82.4643 217.436C82.6483 217.436 82.7963 217.492 82.9083 217.604C83.0203 217.716 83.0763 217.864 83.0763 218.048V223.388C83.0763 223.564 83.0203 223.712 82.9083 223.832C82.7963 223.944 82.6483 224 82.4643 224ZM82.4643 216.368C82.2483 216.368 82.0603 216.292 81.9003 216.14C81.7483 215.98 81.6723 215.792 81.6723 215.576C81.6723 215.36 81.7483 215.176 81.9003 215.024C82.0603 214.864 82.2483 214.784 82.4643 214.784C82.6803 214.784 82.8643 214.864 83.0163 215.024C83.1763 215.176 83.2563 215.36 83.2563 215.576C83.2563 215.792 83.1763 215.98 83.0163 216.14C82.8643 216.292 82.6803 216.368 82.4643 216.368ZM88.3294 224.048C87.6894 224.048 87.1174 223.904 86.6134 223.616C86.1174 223.32 85.7254 222.924 85.4374 222.428C85.1574 221.924 85.0174 221.356 85.0174 220.724C85.0174 220.076 85.1574 219.5 85.4374 218.996C85.7174 218.492 86.1014 218.1 86.5894 217.82C87.0774 217.532 87.6374 217.388 88.2694 217.388C88.7414 217.388 89.1734 217.48 89.5654 217.664C89.9574 217.84 90.3094 218.108 90.6214 218.468C90.7334 218.596 90.7734 218.728 90.7414 218.864C90.7094 219 90.6214 219.12 90.4774 219.224C90.3654 219.304 90.2414 219.332 90.1054 219.308C89.9694 219.276 89.8454 219.204 89.7334 219.092C89.3414 218.676 88.8534 218.468 88.2694 218.468C87.8614 218.468 87.5014 218.564 87.1894 218.756C86.8774 218.94 86.6334 219.2 86.4574 219.536C86.2814 219.872 86.1934 220.268 86.1934 220.724C86.1934 221.156 86.2814 221.54 86.4574 221.876C86.6414 222.212 86.8934 222.48 87.2134 222.68C87.5334 222.872 87.9054 222.968 88.3294 222.968C88.6094 222.968 88.8534 222.936 89.0614 222.872C89.2774 222.8 89.4734 222.692 89.6494 222.548C89.7774 222.444 89.9094 222.388 90.0454 222.38C90.1814 222.364 90.3014 222.4 90.4054 222.488C90.5414 222.6 90.6174 222.728 90.6334 222.872C90.6494 223.008 90.6014 223.132 90.4894 223.244C89.9134 223.78 89.1934 224.048 88.3294 224.048ZM95.6445 224.048C94.9805 224.048 94.3885 223.908 93.8685 223.628C93.3565 223.34 92.9525 222.948 92.6565 222.452C92.3685 221.948 92.2245 221.372 92.2245 220.724C92.2245 220.068 92.3605 219.492 92.6325 218.996C92.9125 218.492 93.2965 218.1 93.7845 217.82C94.2725 217.532 94.8325 217.388 95.4645 217.388C96.0885 217.388 96.6245 217.528 97.0725 217.808C97.5205 218.08 97.8605 218.46 98.0925 218.948C98.3325 219.428 98.4525 219.984 98.4525 220.616C98.4525 220.768 98.4005 220.896 98.2965 221C98.1925 221.096 98.0605 221.144 97.9005 221.144H93.0645V220.184H97.8645L97.3725 220.52C97.3645 220.12 97.2845 219.764 97.1325 219.452C96.9805 219.132 96.7645 218.88 96.4845 218.696C96.2045 218.512 95.8645 218.42 95.4645 218.42C95.0085 218.42 94.6165 218.52 94.2885 218.72C93.9685 218.92 93.7245 219.196 93.5565 219.548C93.3885 219.892 93.3045 220.284 93.3045 220.724C93.3045 221.164 93.4045 221.556 93.6045 221.9C93.8045 222.244 94.0805 222.516 94.4325 222.716C94.7845 222.916 95.1885 223.016 95.6445 223.016C95.8925 223.016 96.1445 222.972 96.4005 222.884C96.6645 222.788 96.8765 222.68 97.0365 222.56C97.1565 222.472 97.2845 222.428 97.4205 222.428C97.5645 222.42 97.6885 222.46 97.7925 222.548C97.9285 222.668 98.0005 222.8 98.0085 222.944C98.0165 223.088 97.9525 223.212 97.8165 223.316C97.5445 223.532 97.2045 223.708 96.7965 223.844C96.3965 223.98 96.0125 224.048 95.6445 224.048ZM102.402 224.048C101.842 224.048 101.322 223.964 100.842 223.796C100.37 223.62 100.002 223.4 99.7376 223.136C99.6176 223.008 99.5656 222.864 99.5816 222.704C99.6056 222.536 99.6856 222.4 99.8216 222.296C99.9816 222.168 100.138 222.116 100.29 222.14C100.45 222.156 100.586 222.224 100.698 222.344C100.834 222.496 101.05 222.64 101.346 222.776C101.65 222.904 101.986 222.968 102.354 222.968C102.818 222.968 103.17 222.892 103.41 222.74C103.658 222.588 103.786 222.392 103.794 222.152C103.802 221.912 103.686 221.704 103.446 221.528C103.214 221.352 102.786 221.208 102.162 221.096C101.354 220.936 100.766 220.696 100.398 220.376C100.038 220.056 99.8576 219.664 99.8576 219.2C99.8576 218.792 99.9776 218.456 100.218 218.192C100.458 217.92 100.766 217.72 101.142 217.592C101.518 217.456 101.91 217.388 102.318 217.388C102.846 217.388 103.314 217.472 103.722 217.64C104.13 217.808 104.454 218.04 104.694 218.336C104.806 218.464 104.858 218.6 104.85 218.744C104.842 218.88 104.774 218.996 104.646 219.092C104.518 219.18 104.366 219.208 104.19 219.176C104.014 219.144 103.866 219.072 103.746 218.96C103.546 218.768 103.33 218.636 103.098 218.564C102.866 218.492 102.598 218.456 102.294 218.456C101.942 218.456 101.642 218.516 101.394 218.636C101.154 218.756 101.034 218.932 101.034 219.164C101.034 219.308 101.07 219.44 101.142 219.56C101.222 219.672 101.374 219.776 101.598 219.872C101.822 219.96 102.15 220.048 102.582 220.136C103.182 220.256 103.654 220.408 103.998 220.592C104.35 220.776 104.602 220.992 104.754 221.24C104.906 221.48 104.982 221.76 104.982 222.08C104.982 222.448 104.882 222.78 104.682 223.076C104.49 223.372 104.202 223.608 103.818 223.784C103.442 223.96 102.97 224.048 102.402 224.048Z" fill="black"/>
</svg>
