<svg width="250" height="251" viewBox="0 0 250 251" fill="none" xmlns="http://www.w3.org/2000/svg">
<circle cx="125" cy="126" r="125" fill="#FFED4C"/>
<path d="M191.562 13.0156H184.984V10.7188C184.984 9.27083 184.922 8.36458 184.797 8C184.672 7.63542 184.375 7.45312 183.906 7.45312C183.5 7.45312 183.224 7.60938 183.078 7.92188C182.932 8.23438 182.859 9.03646 182.859 10.3281V22.4688C182.859 23.6042 182.932 24.3542 183.078 24.7188C183.224 25.0729 183.516 25.25 183.953 25.25C184.432 25.25 184.755 25.0469 184.922 24.6406C185.099 24.2344 185.188 23.4427 185.188 22.2656V19.2656H183.859V15.4219H191.562V29H187.422L186.812 27.1875C186.365 27.9688 185.797 28.5573 185.109 28.9531C184.432 29.3385 183.63 29.5312 182.703 29.5312C181.599 29.5312 180.562 29.2656 179.594 28.7344C178.635 28.1927 177.906 27.526 177.406 26.7344C176.906 25.9427 176.594 25.1146 176.469 24.25C176.344 23.375 176.281 22.0677 176.281 20.3281V12.8125C176.281 10.3958 176.411 8.64062 176.672 7.54688C176.932 6.45312 177.677 5.45312 178.906 4.54688C180.146 3.63021 181.745 3.17188 183.703 3.17188C185.63 3.17188 187.229 3.56771 188.5 4.35938C189.771 5.15104 190.599 6.09375 190.984 7.1875C191.37 8.27083 191.562 9.84896 191.562 11.9219V13.0156ZM199.578 16.2969H193.656V14.9062C193.656 13.3021 193.839 12.0677 194.203 11.2031C194.578 10.3281 195.323 9.55729 196.438 8.89062C197.552 8.22396 199 7.89062 200.781 7.89062C202.917 7.89062 204.526 8.27083 205.609 9.03125C206.693 9.78125 207.344 10.7083 207.562 11.8125C207.781 12.9062 207.891 15.1667 207.891 18.5938V29H201.75V27.1562C201.365 27.8958 200.865 28.4531 200.25 28.8281C199.646 29.1927 198.922 29.375 198.078 29.375C196.974 29.375 195.958 29.0677 195.031 28.4531C194.115 27.8281 193.656 26.4688 193.656 24.375V22.6719C193.656 21.1198 193.901 20.0625 194.391 19.5C194.88 18.9375 196.094 18.2812 198.031 17.5312C200.104 16.7188 201.214 16.1719 201.359 15.8906C201.505 15.6094 201.578 15.0365 201.578 14.1719C201.578 13.0885 201.495 12.3854 201.328 12.0625C201.172 11.7292 200.906 11.5625 200.531 11.5625C200.104 11.5625 199.839 11.7031 199.734 11.9844C199.63 12.2552 199.578 12.9688 199.578 14.125V16.2969ZM201.578 19.1406C200.568 19.8802 199.979 20.5 199.812 21C199.656 21.5 199.578 22.2188 199.578 23.1562C199.578 24.2292 199.646 24.9219 199.781 25.2344C199.927 25.5469 200.208 25.7031 200.625 25.7031C201.021 25.7031 201.276 25.5833 201.391 25.3438C201.516 25.0938 201.578 24.4479 201.578 23.4062V19.1406ZM216.297 8.26562L216.188 10.2344C216.677 9.45312 217.26 8.86979 217.938 8.48438C218.615 8.08854 219.385 7.89062 220.25 7.89062C221.938 7.89062 223.266 8.67188 224.234 10.2344C224.766 9.45312 225.365 8.86979 226.031 8.48438C226.698 8.08854 227.438 7.89062 228.25 7.89062C229.323 7.89062 230.208 8.15104 230.906 8.67188C231.615 9.19271 232.068 9.83333 232.266 10.5938C232.464 11.3438 232.562 12.5677 232.562 14.2656V29H226.438V15.4844C226.438 13.7135 226.375 12.6198 226.25 12.2031C226.135 11.776 225.859 11.5625 225.422 11.5625C224.974 11.5625 224.682 11.7708 224.547 12.1875C224.422 12.6042 224.359 13.7031 224.359 15.4844V29H218.234V15.8281C218.234 13.7969 218.182 12.5781 218.078 12.1719C217.984 11.7656 217.714 11.5625 217.266 11.5625C216.984 11.5625 216.745 11.6719 216.547 11.8906C216.349 12.099 216.24 12.3594 216.219 12.6719C216.198 12.974 216.188 13.625 216.188 14.625V29H210.062V8.26562H216.297ZM249.047 19H240.875V23.4844C240.875 24.4219 240.943 25.026 241.078 25.2969C241.214 25.5677 241.474 25.7031 241.859 25.7031C242.339 25.7031 242.656 25.526 242.812 25.1719C242.979 24.8073 243.062 24.1094 243.062 23.0781V20.3438H249.047V21.875C249.047 23.1562 248.964 24.1406 248.797 24.8281C248.641 25.5156 248.266 26.25 247.672 27.0312C247.078 27.8125 246.323 28.401 245.406 28.7969C244.5 29.1823 243.359 29.375 241.984 29.375C240.651 29.375 239.474 29.1823 238.453 28.7969C237.432 28.4115 236.635 27.8854 236.062 27.2188C235.5 26.5417 235.109 25.8021 234.891 25C234.672 24.1875 234.562 23.0104 234.562 21.4688V15.4219C234.562 13.6094 234.807 12.1823 235.297 11.1406C235.786 10.0885 236.589 9.28646 237.703 8.73438C238.818 8.17188 240.099 7.89062 241.547 7.89062C243.318 7.89062 244.776 8.22917 245.922 8.90625C247.078 9.57292 247.885 10.4635 248.344 11.5781C248.812 12.6823 249.047 14.2396 249.047 16.25V19ZM242.719 15.625V14.1094C242.719 13.0365 242.661 12.3438 242.547 12.0312C242.432 11.7188 242.198 11.5625 241.844 11.5625C241.406 11.5625 241.135 11.6979 241.031 11.9688C240.927 12.2292 240.875 12.9427 240.875 14.1094V15.625H242.719ZM161.125 35.7031H166.047C169.224 35.7031 171.37 35.849 172.484 36.1406C173.609 36.4323 174.464 36.9115 175.047 37.5781C175.63 38.2448 175.995 38.9896 176.141 39.8125C176.286 40.625 176.359 42.2292 176.359 44.625V53.4844C176.359 55.7552 176.25 57.276 176.031 58.0469C175.823 58.8073 175.453 59.4062 174.922 59.8438C174.391 60.2708 173.734 60.5729 172.953 60.75C172.172 60.9167 170.995 61 169.422 61H161.125V35.7031ZM167.703 40.0312V56.6719C168.651 56.6719 169.234 56.4844 169.453 56.1094C169.672 55.724 169.781 54.6875 169.781 53V43.1719C169.781 42.026 169.745 41.2917 169.672 40.9688C169.599 40.6458 169.432 40.4115 169.172 40.2656C168.911 40.1094 168.422 40.0312 167.703 40.0312ZM192.922 51H184.75V55.4844C184.75 56.4219 184.818 57.026 184.953 57.2969C185.089 57.5677 185.349 57.7031 185.734 57.7031C186.214 57.7031 186.531 57.526 186.688 57.1719C186.854 56.8073 186.938 56.1094 186.938 55.0781V52.3438H192.922V53.875C192.922 55.1562 192.839 56.1406 192.672 56.8281C192.516 57.5156 192.141 58.25 191.547 59.0312C190.953 59.8125 190.198 60.401 189.281 60.7969C188.375 61.1823 187.234 61.375 185.859 61.375C184.526 61.375 183.349 61.1823 182.328 60.7969C181.307 60.4115 180.51 59.8854 179.938 59.2188C179.375 58.5417 178.984 57.8021 178.766 57C178.547 56.1875 178.438 55.0104 178.438 53.4688V47.4219C178.438 45.6094 178.682 44.1823 179.172 43.1406C179.661 42.0885 180.464 41.2865 181.578 40.7344C182.693 40.1719 183.974 39.8906 185.422 39.8906C187.193 39.8906 188.651 40.2292 189.797 40.9062C190.953 41.5729 191.76 42.4635 192.219 43.5781C192.688 44.6823 192.922 46.2396 192.922 48.25V51ZM186.594 47.625V46.1094C186.594 45.0365 186.536 44.3438 186.422 44.0312C186.307 43.7188 186.073 43.5625 185.719 43.5625C185.281 43.5625 185.01 43.6979 184.906 43.9688C184.802 44.2292 184.75 44.9427 184.75 46.1094V47.625H186.594ZM201.234 40.2656L201.125 42.2344C201.615 41.4531 202.198 40.8698 202.875 40.4844C203.552 40.0885 204.323 39.8906 205.188 39.8906C206.875 39.8906 208.203 40.6719 209.172 42.2344C209.703 41.4531 210.302 40.8698 210.969 40.4844C211.635 40.0885 212.375 39.8906 213.188 39.8906C214.26 39.8906 215.146 40.151 215.844 40.6719C216.552 41.1927 217.005 41.8333 217.203 42.5938C217.401 43.3438 217.5 44.5677 217.5 46.2656V61H211.375V47.4844C211.375 45.7135 211.312 44.6198 211.188 44.2031C211.073 43.776 210.797 43.5625 210.359 43.5625C209.911 43.5625 209.62 43.7708 209.484 44.1875C209.359 44.6042 209.297 45.7031 209.297 47.4844V61H203.172V47.8281C203.172 45.7969 203.12 44.5781 203.016 44.1719C202.922 43.7656 202.651 43.5625 202.203 43.5625C201.922 43.5625 201.682 43.6719 201.484 43.8906C201.286 44.099 201.177 44.3594 201.156 44.6719C201.135 44.974 201.125 45.625 201.125 46.625V61H195V40.2656H201.234ZM233.969 47.5469V52.625C233.969 54.4896 233.875 55.8594 233.688 56.7344C233.5 57.599 233.099 58.4115 232.484 59.1719C231.87 59.9219 231.078 60.4792 230.109 60.8438C229.151 61.1979 228.047 61.375 226.797 61.375C225.401 61.375 224.219 61.224 223.25 60.9219C222.281 60.6094 221.526 60.1458 220.984 59.5312C220.453 58.9062 220.073 58.1562 219.844 57.2812C219.615 56.3958 219.5 55.0729 219.5 53.3125V48C219.5 46.0729 219.708 44.5677 220.125 43.4844C220.542 42.401 221.292 41.5312 222.375 40.875C223.458 40.2188 224.844 39.8906 226.531 39.8906C227.948 39.8906 229.161 40.1042 230.172 40.5312C231.193 40.9479 231.979 41.4948 232.531 42.1719C233.083 42.849 233.458 43.5469 233.656 44.2656C233.865 44.9844 233.969 46.0781 233.969 47.5469ZM227.656 45.9844C227.656 44.9219 227.599 44.2552 227.484 43.9844C227.37 43.7031 227.125 43.5625 226.75 43.5625C226.375 43.5625 226.125 43.7031 226 43.9844C225.875 44.2552 225.812 44.9219 225.812 45.9844V55.3438C225.812 56.3229 225.875 56.9635 226 57.2656C226.125 57.5573 226.37 57.7031 226.734 57.7031C227.109 57.7031 227.354 57.5677 227.469 57.2969C227.594 57.026 227.656 56.4427 227.656 55.5469V45.9844ZM248.953 46.8906H243.359V45.7656C243.359 44.8073 243.302 44.2031 243.188 43.9531C243.083 43.6927 242.812 43.5625 242.375 43.5625C242.021 43.5625 241.755 43.6823 241.578 43.9219C241.401 44.151 241.312 44.5 241.312 44.9688C241.312 45.6042 241.354 46.0729 241.438 46.375C241.531 46.6667 241.797 46.9896 242.234 47.3438C242.682 47.6979 243.594 48.2135 244.969 48.8906C246.802 49.7865 248.005 50.6302 248.578 51.4219C249.151 52.2135 249.438 53.3646 249.438 54.875C249.438 56.5625 249.219 57.8385 248.781 58.7031C248.344 59.5573 247.609 60.2188 246.578 60.6875C245.557 61.1458 244.323 61.375 242.875 61.375C241.271 61.375 239.896 61.125 238.75 60.625C237.615 60.125 236.833 59.4479 236.406 58.5938C235.979 57.7396 235.766 56.4479 235.766 54.7188V53.7188H241.359V55.0312C241.359 56.1458 241.427 56.8698 241.562 57.2031C241.708 57.5365 241.99 57.7031 242.406 57.7031C242.854 57.7031 243.167 57.5938 243.344 57.375C243.521 57.1458 243.609 56.6719 243.609 55.9531C243.609 54.9635 243.495 54.3438 243.266 54.0938C243.026 53.8438 241.802 53.1042 239.594 51.875C237.74 50.8333 236.609 49.8906 236.203 49.0469C235.797 48.1927 235.594 47.1823 235.594 46.0156C235.594 44.3594 235.812 43.1406 236.25 42.3594C236.688 41.5677 237.427 40.9583 238.469 40.5312C239.521 40.1042 240.74 39.8906 242.125 39.8906C243.5 39.8906 244.667 40.0677 245.625 40.4219C246.594 40.7656 247.333 41.224 247.844 41.7969C248.365 42.3698 248.677 42.901 248.781 43.3906C248.896 43.8802 248.953 44.6458 248.953 45.6875V46.8906Z" fill="black"/>
<path d="M18.1328 213.352V221.805C18.1328 222.763 18.1016 223.438 18.0391 223.828C17.9766 224.214 17.7917 224.612 17.4844 225.023C17.1771 225.43 16.7708 225.74 16.2656 225.953C15.7656 226.161 15.1745 226.266 14.4922 226.266C13.737 226.266 13.0703 226.141 12.4922 225.891C11.9141 225.641 11.4818 225.315 11.1953 224.914C10.9089 224.513 10.7396 224.091 10.6875 223.648C10.6354 223.201 10.6094 222.263 10.6094 220.836V213.352H13.8984V222.836C13.8984 223.388 13.9271 223.742 13.9844 223.898C14.0469 224.049 14.1693 224.125 14.3516 224.125C14.5599 224.125 14.6927 224.042 14.75 223.875C14.8125 223.703 14.8438 223.302 14.8438 222.672V213.352H18.1328ZM22.5234 215.633L22.4688 216.586C22.6979 216.206 22.9766 215.922 23.3047 215.734C23.638 215.542 24.0208 215.445 24.4531 215.445C24.9948 215.445 25.4375 215.573 25.7812 215.828C26.125 216.083 26.3464 216.406 26.4453 216.797C26.5443 217.182 26.5938 217.828 26.5938 218.734V226H23.4375V218.82C23.4375 218.107 23.4141 217.672 23.3672 217.516C23.3203 217.359 23.1901 217.281 22.9766 217.281C22.7526 217.281 22.612 217.372 22.5547 217.555C22.4974 217.732 22.4688 218.211 22.4688 218.992V226H19.3125V215.633H22.5234ZM30.9375 213.352V215H27.6875V213.352H30.9375ZM30.9375 215.633V226H27.6875V215.633H30.9375ZM35.4062 214.25V215.883H36.2578V217.523H35.4062V223.07C35.4062 223.753 35.4401 224.133 35.5078 224.211C35.5807 224.289 35.875 224.328 36.3906 224.328V226H35.1172C34.3984 226 33.8854 225.971 33.5781 225.914C33.2708 225.852 33 225.714 32.7656 225.5C32.5312 225.281 32.3854 225.034 32.3281 224.758C32.2708 224.477 32.2422 223.82 32.2422 222.789V217.523H31.5625V215.883H32.2422V214.25H35.4062ZM43.8906 215.633L42.9844 223.133C42.8438 224.32 42.724 225.13 42.625 225.562C42.5312 225.995 42.3724 226.352 42.1484 226.633C41.9245 226.914 41.612 227.12 41.2109 227.25C40.8151 227.385 40.1797 227.453 39.3047 227.453H37.3906V225.797C37.8802 225.797 38.1953 225.773 38.3359 225.727C38.4766 225.674 38.5469 225.562 38.5469 225.391C38.5469 225.307 38.4818 224.945 38.3516 224.305L36.625 215.633H39.4922L40.5234 222.625L41.0234 215.633H43.8906ZM50.4922 215.633L50.4375 216.547C50.7188 216.177 51.0286 215.901 51.3672 215.719C51.7057 215.536 52.0755 215.445 52.4766 215.445C52.9661 215.445 53.388 215.578 53.7422 215.844C54.1016 216.104 54.3255 216.406 54.4141 216.75C54.5026 217.094 54.5469 217.677 54.5469 218.5V222.867C54.5469 223.81 54.4896 224.482 54.375 224.883C54.2656 225.279 54.0365 225.596 53.6875 225.836C53.3438 226.07 52.9271 226.188 52.4375 226.188C52.0469 226.188 51.6849 226.096 51.3516 225.914C51.0182 225.732 50.7135 225.461 50.4375 225.102V227.477H47.2812V215.633H50.4922ZM51.3906 218.648C51.3906 218.008 51.3672 217.62 51.3203 217.484C51.2734 217.349 51.1432 217.281 50.9297 217.281C50.7214 217.281 50.5859 217.359 50.5234 217.516C50.4661 217.672 50.4375 218.049 50.4375 218.648V222.945C50.4375 223.57 50.4688 223.961 50.5312 224.117C50.5938 224.273 50.7292 224.352 50.9375 224.352C51.1406 224.352 51.2656 224.281 51.3125 224.141C51.3646 223.995 51.3906 223.646 51.3906 223.094V218.648ZM58.75 215.633L58.625 216.992C59.0833 216.018 59.7474 215.503 60.6172 215.445V219.094C60.0391 219.094 59.6146 219.172 59.3438 219.328C59.0729 219.484 58.9062 219.703 58.8438 219.984C58.7812 220.26 58.75 220.901 58.75 221.906V226H55.5938V215.633H58.75ZM64.1484 219.648H61.1875V218.953C61.1875 218.151 61.2786 217.534 61.4609 217.102C61.6484 216.664 62.0208 216.279 62.5781 215.945C63.1354 215.612 63.8594 215.445 64.75 215.445C65.8177 215.445 66.6224 215.635 67.1641 216.016C67.7057 216.391 68.0312 216.854 68.1406 217.406C68.25 217.953 68.3047 219.083 68.3047 220.797V226H65.2344V225.078C65.0417 225.448 64.7917 225.727 64.4844 225.914C64.1823 226.096 63.8203 226.188 63.3984 226.188C62.8464 226.188 62.3385 226.034 61.875 225.727C61.4167 225.414 61.1875 224.734 61.1875 223.688V222.836C61.1875 222.06 61.3099 221.531 61.5547 221.25C61.7995 220.969 62.4062 220.641 63.375 220.266C64.4115 219.859 64.9661 219.586 65.0391 219.445C65.112 219.305 65.1484 219.018 65.1484 218.586C65.1484 218.044 65.1068 217.693 65.0234 217.531C64.9453 217.365 64.8125 217.281 64.625 217.281C64.4115 217.281 64.2786 217.352 64.2266 217.492C64.1745 217.628 64.1484 217.984 64.1484 218.562V219.648ZM65.1484 221.07C64.6432 221.44 64.349 221.75 64.2656 222C64.1875 222.25 64.1484 222.609 64.1484 223.078C64.1484 223.615 64.1823 223.961 64.25 224.117C64.3229 224.273 64.4635 224.352 64.6719 224.352C64.8698 224.352 64.9974 224.292 65.0547 224.172C65.1172 224.047 65.1484 223.724 65.1484 223.203V221.07ZM76.3672 219.547H73.3906V218.352C73.3906 217.935 73.3568 217.654 73.2891 217.508C73.2214 217.357 73.0964 217.281 72.9141 217.281C72.7318 217.281 72.6094 217.346 72.5469 217.477C72.4844 217.607 72.4531 217.898 72.4531 218.352V223.242C72.4531 223.612 72.5 223.891 72.5938 224.078C72.6875 224.26 72.8255 224.352 73.0078 224.352C73.2214 224.352 73.3646 224.255 73.4375 224.062C73.5156 223.87 73.5547 223.505 73.5547 222.969V221.734H76.3672C76.362 222.562 76.3307 223.185 76.2734 223.602C76.2214 224.013 76.0469 224.438 75.75 224.875C75.4583 225.307 75.0755 225.635 74.6016 225.859C74.1276 226.078 73.5417 226.188 72.8438 226.188C71.9531 226.188 71.2474 226.036 70.7266 225.734C70.2057 225.427 69.8359 225 69.6172 224.453C69.4036 223.901 69.2969 223.12 69.2969 222.109V219.164C69.2969 218.284 69.3854 217.62 69.5625 217.172C69.7396 216.724 70.1172 216.326 70.6953 215.977C71.2734 215.622 71.9766 215.445 72.8047 215.445C73.6276 215.445 74.3307 215.62 74.9141 215.969C75.4974 216.318 75.8854 216.758 76.0781 217.289C76.2708 217.82 76.3672 218.573 76.3672 219.547ZM80.6406 214.25V215.883H81.4922V217.523H80.6406V223.07C80.6406 223.753 80.6745 224.133 80.7422 224.211C80.8151 224.289 81.1094 224.328 81.625 224.328V226H80.3516C79.6328 226 79.1198 225.971 78.8125 225.914C78.5052 225.852 78.2344 225.714 78 225.5C77.7656 225.281 77.6198 225.034 77.5625 224.758C77.5052 224.477 77.4766 223.82 77.4766 222.789V217.523H76.7969V215.883H77.4766V214.25H80.6406ZM85.4375 213.352V215H82.1875V213.352H85.4375ZM85.4375 215.633V226H82.1875V215.633H85.4375ZM93.5547 219.547H90.5781V218.352C90.5781 217.935 90.5443 217.654 90.4766 217.508C90.4089 217.357 90.2839 217.281 90.1016 217.281C89.9193 217.281 89.7969 217.346 89.7344 217.477C89.6719 217.607 89.6406 217.898 89.6406 218.352V223.242C89.6406 223.612 89.6875 223.891 89.7812 224.078C89.875 224.26 90.013 224.352 90.1953 224.352C90.4089 224.352 90.5521 224.255 90.625 224.062C90.7031 223.87 90.7422 223.505 90.7422 222.969V221.734H93.5547C93.5495 222.562 93.5182 223.185 93.4609 223.602C93.4089 224.013 93.2344 224.438 92.9375 224.875C92.6458 225.307 92.263 225.635 91.7891 225.859C91.3151 226.078 90.7292 226.188 90.0312 226.188C89.1406 226.188 88.4349 226.036 87.9141 225.734C87.3932 225.427 87.0234 225 86.8047 224.453C86.5911 223.901 86.4844 223.12 86.4844 222.109V219.164C86.4844 218.284 86.5729 217.62 86.75 217.172C86.9271 216.724 87.3047 216.326 87.8828 215.977C88.4609 215.622 89.1641 215.445 89.9922 215.445C90.8151 215.445 91.5182 215.62 92.1016 215.969C92.6849 216.318 93.0729 216.758 93.2656 217.289C93.4583 217.82 93.5547 218.573 93.5547 219.547ZM101.648 221H97.5625V223.242C97.5625 223.711 97.5964 224.013 97.6641 224.148C97.7318 224.284 97.862 224.352 98.0547 224.352C98.2943 224.352 98.4531 224.263 98.5312 224.086C98.6146 223.904 98.6562 223.555 98.6562 223.039V221.672H101.648V222.438C101.648 223.078 101.607 223.57 101.523 223.914C101.445 224.258 101.258 224.625 100.961 225.016C100.664 225.406 100.286 225.701 99.8281 225.898C99.375 226.091 98.8047 226.188 98.1172 226.188C97.4505 226.188 96.862 226.091 96.3516 225.898C95.8411 225.706 95.4427 225.443 95.1562 225.109C94.875 224.771 94.6797 224.401 94.5703 224C94.4609 223.594 94.4062 223.005 94.4062 222.234V219.211C94.4062 218.305 94.5286 217.591 94.7734 217.07C95.0182 216.544 95.4193 216.143 95.9766 215.867C96.5339 215.586 97.1745 215.445 97.8984 215.445C98.7839 215.445 99.513 215.615 100.086 215.953C100.664 216.286 101.068 216.732 101.297 217.289C101.531 217.841 101.648 218.62 101.648 219.625V221ZM98.4844 219.312V218.555C98.4844 218.018 98.4557 217.672 98.3984 217.516C98.3411 217.359 98.224 217.281 98.0469 217.281C97.8281 217.281 97.6927 217.349 97.6406 217.484C97.5885 217.615 97.5625 217.971 97.5625 218.555V219.312H98.4844ZM109.133 218.945H106.336V218.383C106.336 217.904 106.307 217.602 106.25 217.477C106.198 217.346 106.062 217.281 105.844 217.281C105.667 217.281 105.534 217.341 105.445 217.461C105.357 217.576 105.312 217.75 105.312 217.984C105.312 218.302 105.333 218.536 105.375 218.688C105.422 218.833 105.555 218.995 105.773 219.172C105.997 219.349 106.453 219.607 107.141 219.945C108.057 220.393 108.659 220.815 108.945 221.211C109.232 221.607 109.375 222.182 109.375 222.938C109.375 223.781 109.266 224.419 109.047 224.852C108.828 225.279 108.461 225.609 107.945 225.844C107.435 226.073 106.818 226.188 106.094 226.188C105.292 226.188 104.604 226.062 104.031 225.812C103.464 225.562 103.073 225.224 102.859 224.797C102.646 224.37 102.539 223.724 102.539 222.859V222.359H105.336V223.016C105.336 223.573 105.37 223.935 105.438 224.102C105.51 224.268 105.651 224.352 105.859 224.352C106.083 224.352 106.24 224.297 106.328 224.188C106.417 224.073 106.461 223.836 106.461 223.477C106.461 222.982 106.404 222.672 106.289 222.547C106.169 222.422 105.557 222.052 104.453 221.438C103.526 220.917 102.961 220.445 102.758 220.023C102.555 219.596 102.453 219.091 102.453 218.508C102.453 217.68 102.562 217.07 102.781 216.68C103 216.284 103.37 215.979 103.891 215.766C104.417 215.552 105.026 215.445 105.719 215.445C106.406 215.445 106.99 215.534 107.469 215.711C107.953 215.883 108.323 216.112 108.578 216.398C108.839 216.685 108.995 216.951 109.047 217.195C109.104 217.44 109.133 217.823 109.133 218.344V218.945Z" fill="black"/>
</svg>
