<svg width="100" height="15" viewBox="0 0 100 15" fill="none" xmlns="http://www.w3.org/2000/svg">
<path d="M8.13281 0.351562V8.80469C8.13281 9.76302 8.10156 10.4375 8.03906 10.8281C7.97656 11.2135 7.79167 11.612 7.48438 12.0234C7.17708 12.4297 6.77083 12.7396 6.26562 12.9531C5.76562 13.1615 5.17448 13.2656 4.49219 13.2656C3.73698 13.2656 3.07031 13.1406 2.49219 12.8906C1.91406 12.6406 1.48177 12.3151 1.19531 11.9141C0.908854 11.513 0.739583 11.0911 0.6875 10.6484C0.635417 10.2005 0.609375 9.26302 0.609375 7.83594V0.351562H3.89844V9.83594C3.89844 10.388 3.92708 10.7422 3.98438 10.8984C4.04688 11.0495 4.16927 11.125 4.35156 11.125C4.5599 11.125 4.69271 11.0417 4.75 10.875C4.8125 10.7031 4.84375 10.3021 4.84375 9.67188V0.351562H8.13281ZM12.5234 2.63281L12.4688 3.58594C12.6979 3.20573 12.9766 2.92188 13.3047 2.73438C13.638 2.54167 14.0208 2.44531 14.4531 2.44531C14.9948 2.44531 15.4375 2.57292 15.7812 2.82812C16.125 3.08333 16.3464 3.40625 16.4453 3.79688C16.5443 4.18229 16.5938 4.82812 16.5938 5.73438V13H13.4375V5.82031C13.4375 5.10677 13.4141 4.67188 13.3672 4.51562C13.3203 4.35938 13.1901 4.28125 12.9766 4.28125C12.7526 4.28125 12.612 4.3724 12.5547 4.55469C12.4974 4.73177 12.4688 5.21094 12.4688 5.99219V13H9.3125V2.63281H12.5234ZM20.9375 0.351562V2H17.6875V0.351562H20.9375ZM20.9375 2.63281V13H17.6875V2.63281H20.9375ZM25.4062 1.25V2.88281H26.2578V4.52344H25.4062V10.0703C25.4062 10.7526 25.4401 11.1328 25.5078 11.2109C25.5807 11.2891 25.875 11.3281 26.3906 11.3281V13H25.1172C24.3984 13 23.8854 12.9714 23.5781 12.9141C23.2708 12.8516 23 12.7135 22.7656 12.5C22.5312 12.2812 22.3854 12.0339 22.3281 11.7578C22.2708 11.4766 22.2422 10.8203 22.2422 9.78906V4.52344H21.5625V2.88281H22.2422V1.25H25.4062ZM33.8906 2.63281L32.9844 10.1328C32.8438 11.3203 32.724 12.1302 32.625 12.5625C32.5312 12.9948 32.3724 13.3516 32.1484 13.6328C31.9245 13.9141 31.612 14.1198 31.2109 14.25C30.8151 14.3854 30.1797 14.4531 29.3047 14.4531H27.3906V12.7969C27.8802 12.7969 28.1953 12.7734 28.3359 12.7266C28.4766 12.6745 28.5469 12.5625 28.5469 12.3906C28.5469 12.3073 28.4818 11.9453 28.3516 11.3047L26.625 2.63281H29.4922L30.5234 9.625L31.0234 2.63281H33.8906ZM40.4922 2.63281L40.4375 3.54688C40.7188 3.17708 41.0286 2.90104 41.3672 2.71875C41.7057 2.53646 42.0755 2.44531 42.4766 2.44531C42.9661 2.44531 43.388 2.57812 43.7422 2.84375C44.1016 3.10417 44.3255 3.40625 44.4141 3.75C44.5026 4.09375 44.5469 4.67708 44.5469 5.5V9.86719C44.5469 10.8099 44.4896 11.4818 44.375 11.8828C44.2656 12.2786 44.0365 12.5964 43.6875 12.8359C43.3438 13.0703 42.9271 13.1875 42.4375 13.1875C42.0469 13.1875 41.6849 13.0964 41.3516 12.9141C41.0182 12.7318 40.7135 12.4609 40.4375 12.1016V14.4766H37.2812V2.63281H40.4922ZM41.3906 5.64844C41.3906 5.00781 41.3672 4.61979 41.3203 4.48438C41.2734 4.34896 41.1432 4.28125 40.9297 4.28125C40.7214 4.28125 40.5859 4.35938 40.5234 4.51562C40.4661 4.67188 40.4375 5.04948 40.4375 5.64844V9.94531C40.4375 10.5703 40.4688 10.9609 40.5312 11.1172C40.5938 11.2734 40.7292 11.3516 40.9375 11.3516C41.1406 11.3516 41.2656 11.2812 41.3125 11.1406C41.3646 10.9948 41.3906 10.6458 41.3906 10.0938V5.64844ZM48.75 2.63281L48.625 3.99219C49.0833 3.01823 49.7474 2.5026 50.6172 2.44531V6.09375C50.0391 6.09375 49.6146 6.17188 49.3438 6.32812C49.0729 6.48438 48.9062 6.70312 48.8438 6.98438C48.7812 7.26042 48.75 7.90104 48.75 8.90625V13H45.5938V2.63281H48.75ZM54.1484 6.64844H51.1875V5.95312C51.1875 5.15104 51.2786 4.53385 51.4609 4.10156C51.6484 3.66406 52.0208 3.27865 52.5781 2.94531C53.1354 2.61198 53.8594 2.44531 54.75 2.44531C55.8177 2.44531 56.6224 2.63542 57.1641 3.01562C57.7057 3.39062 58.0312 3.85417 58.1406 4.40625C58.25 4.95312 58.3047 6.08333 58.3047 7.79688V13H55.2344V12.0781C55.0417 12.4479 54.7917 12.7266 54.4844 12.9141C54.1823 13.0964 53.8203 13.1875 53.3984 13.1875C52.8464 13.1875 52.3385 13.0339 51.875 12.7266C51.4167 12.4141 51.1875 11.7344 51.1875 10.6875V9.83594C51.1875 9.0599 51.3099 8.53125 51.5547 8.25C51.7995 7.96875 52.4062 7.64062 53.375 7.26562C54.4115 6.85938 54.9661 6.58594 55.0391 6.44531C55.112 6.30469 55.1484 6.01823 55.1484 5.58594C55.1484 5.04427 55.1068 4.69271 55.0234 4.53125C54.9453 4.36458 54.8125 4.28125 54.625 4.28125C54.4115 4.28125 54.2786 4.35156 54.2266 4.49219C54.1745 4.6276 54.1484 4.98438 54.1484 5.5625V6.64844ZM55.1484 8.07031C54.6432 8.4401 54.349 8.75 54.2656 9C54.1875 9.25 54.1484 9.60938 54.1484 10.0781C54.1484 10.6146 54.1823 10.9609 54.25 11.1172C54.3229 11.2734 54.4635 11.3516 54.6719 11.3516C54.8698 11.3516 54.9974 11.2917 55.0547 11.1719C55.1172 11.0469 55.1484 10.724 55.1484 10.2031V8.07031ZM66.3672 6.54688H63.3906V5.35156C63.3906 4.9349 63.3568 4.65365 63.2891 4.50781C63.2214 4.35677 63.0964 4.28125 62.9141 4.28125C62.7318 4.28125 62.6094 4.34635 62.5469 4.47656C62.4844 4.60677 62.4531 4.89844 62.4531 5.35156V10.2422C62.4531 10.612 62.5 10.8906 62.5938 11.0781C62.6875 11.2604 62.8255 11.3516 63.0078 11.3516C63.2214 11.3516 63.3646 11.2552 63.4375 11.0625C63.5156 10.8698 63.5547 10.5052 63.5547 9.96875V8.73438H66.3672C66.362 9.5625 66.3307 10.1849 66.2734 10.6016C66.2214 11.013 66.0469 11.4375 65.75 11.875C65.4583 12.3073 65.0755 12.6354 64.6016 12.8594C64.1276 13.0781 63.5417 13.1875 62.8438 13.1875C61.9531 13.1875 61.2474 13.0365 60.7266 12.7344C60.2057 12.4271 59.8359 12 59.6172 11.4531C59.4036 10.901 59.2969 10.1198 59.2969 9.10938V6.16406C59.2969 5.28385 59.3854 4.61979 59.5625 4.17188C59.7396 3.72396 60.1172 3.32552 60.6953 2.97656C61.2734 2.6224 61.9766 2.44531 62.8047 2.44531C63.6276 2.44531 64.3307 2.61979 64.9141 2.96875C65.4974 3.31771 65.8854 3.75781 66.0781 4.28906C66.2708 4.82031 66.3672 5.57292 66.3672 6.54688ZM70.6406 1.25V2.88281H71.4922V4.52344H70.6406V10.0703C70.6406 10.7526 70.6745 11.1328 70.7422 11.2109C70.8151 11.2891 71.1094 11.3281 71.625 11.3281V13H70.3516C69.6328 13 69.1198 12.9714 68.8125 12.9141C68.5052 12.8516 68.2344 12.7135 68 12.5C67.7656 12.2812 67.6198 12.0339 67.5625 11.7578C67.5052 11.4766 67.4766 10.8203 67.4766 9.78906V4.52344H66.7969V2.88281H67.4766V1.25H70.6406ZM75.4375 0.351562V2H72.1875V0.351562H75.4375ZM75.4375 2.63281V13H72.1875V2.63281H75.4375ZM83.5547 6.54688H80.5781V5.35156C80.5781 4.9349 80.5443 4.65365 80.4766 4.50781C80.4089 4.35677 80.2839 4.28125 80.1016 4.28125C79.9193 4.28125 79.7969 4.34635 79.7344 4.47656C79.6719 4.60677 79.6406 4.89844 79.6406 5.35156V10.2422C79.6406 10.612 79.6875 10.8906 79.7812 11.0781C79.875 11.2604 80.013 11.3516 80.1953 11.3516C80.4089 11.3516 80.5521 11.2552 80.625 11.0625C80.7031 10.8698 80.7422 10.5052 80.7422 9.96875V8.73438H83.5547C83.5495 9.5625 83.5182 10.1849 83.4609 10.6016C83.4089 11.013 83.2344 11.4375 82.9375 11.875C82.6458 12.3073 82.263 12.6354 81.7891 12.8594C81.3151 13.0781 80.7292 13.1875 80.0312 13.1875C79.1406 13.1875 78.4349 13.0365 77.9141 12.7344C77.3932 12.4271 77.0234 12 76.8047 11.4531C76.5911 10.901 76.4844 10.1198 76.4844 9.10938V6.16406C76.4844 5.28385 76.5729 4.61979 76.75 4.17188C76.9271 3.72396 77.3047 3.32552 77.8828 2.97656C78.4609 2.6224 79.1641 2.44531 79.9922 2.44531C80.8151 2.44531 81.5182 2.61979 82.1016 2.96875C82.6849 3.31771 83.0729 3.75781 83.2656 4.28906C83.4583 4.82031 83.5547 5.57292 83.5547 6.54688ZM91.6484 8H87.5625V10.2422C87.5625 10.7109 87.5964 11.013 87.6641 11.1484C87.7318 11.2839 87.862 11.3516 88.0547 11.3516C88.2943 11.3516 88.4531 11.263 88.5312 11.0859C88.6146 10.9036 88.6562 10.5547 88.6562 10.0391V8.67188H91.6484V9.4375C91.6484 10.0781 91.6068 10.5703 91.5234 10.9141C91.4453 11.2578 91.2578 11.625 90.9609 12.0156C90.6641 12.4062 90.2865 12.7005 89.8281 12.8984C89.375 13.0911 88.8047 13.1875 88.1172 13.1875C87.4505 13.1875 86.862 13.0911 86.3516 12.8984C85.8411 12.7057 85.4427 12.4427 85.1562 12.1094C84.875 11.7708 84.6797 11.401 84.5703 11C84.4609 10.5938 84.4062 10.0052 84.4062 9.23438V6.21094C84.4062 5.30469 84.5286 4.59115 84.7734 4.07031C85.0182 3.54427 85.4193 3.14323 85.9766 2.86719C86.5339 2.58594 87.1745 2.44531 87.8984 2.44531C88.7839 2.44531 89.513 2.61458 90.0859 2.95312C90.6641 3.28646 91.0677 3.73177 91.2969 4.28906C91.5312 4.84115 91.6484 5.61979 91.6484 6.625V8ZM88.4844 6.3125V5.55469C88.4844 5.01823 88.4557 4.67188 88.3984 4.51562C88.3411 4.35938 88.224 4.28125 88.0469 4.28125C87.8281 4.28125 87.6927 4.34896 87.6406 4.48438C87.5885 4.61458 87.5625 4.97135 87.5625 5.55469V6.3125H88.4844ZM99.1328 5.94531H96.3359V5.38281C96.3359 4.90365 96.3073 4.60156 96.25 4.47656C96.1979 4.34635 96.0625 4.28125 95.8438 4.28125C95.6667 4.28125 95.5339 4.34115 95.4453 4.46094C95.3568 4.57552 95.3125 4.75 95.3125 4.98438C95.3125 5.30208 95.3333 5.53646 95.375 5.6875C95.4219 5.83333 95.5547 5.99479 95.7734 6.17188C95.9974 6.34896 96.4531 6.60677 97.1406 6.94531C98.0573 7.39323 98.6589 7.8151 98.9453 8.21094C99.2318 8.60677 99.375 9.18229 99.375 9.9375C99.375 10.7812 99.2656 11.4193 99.0469 11.8516C98.8281 12.2786 98.4609 12.6094 97.9453 12.8438C97.4349 13.0729 96.8177 13.1875 96.0938 13.1875C95.2917 13.1875 94.6042 13.0625 94.0312 12.8125C93.4635 12.5625 93.0729 12.224 92.8594 11.7969C92.6458 11.3698 92.5391 10.724 92.5391 9.85938V9.35938H95.3359V10.0156C95.3359 10.5729 95.3698 10.9349 95.4375 11.1016C95.5104 11.2682 95.651 11.3516 95.8594 11.3516C96.0833 11.3516 96.2396 11.2969 96.3281 11.1875C96.4167 11.0729 96.4609 10.8359 96.4609 10.4766C96.4609 9.98177 96.4036 9.67188 96.2891 9.54688C96.1693 9.42188 95.5573 9.05208 94.4531 8.4375C93.526 7.91667 92.9609 7.44531 92.7578 7.02344C92.5547 6.59635 92.4531 6.09115 92.4531 5.50781C92.4531 4.67969 92.5625 4.07031 92.7812 3.67969C93 3.28385 93.3698 2.97917 93.8906 2.76562C94.4167 2.55208 95.026 2.44531 95.7188 2.44531C96.4062 2.44531 96.9896 2.53385 97.4688 2.71094C97.9531 2.88281 98.3229 3.11198 98.5781 3.39844C98.8385 3.6849 98.9948 3.95052 99.0469 4.19531C99.1042 4.4401 99.1328 4.82292 99.1328 5.34375V5.94531Z" fill="black"/>
</svg>
