<svg width="251" height="251" viewBox="0 0 251 251" fill="none" xmlns="http://www.w3.org/2000/svg">
<circle cx="125" cy="126" r="125" fill="#FFED4C"/>
<path d="M198.687 7H214.287L214.587 12.94H214.047C213.207 10.92 212.327 9.54 211.407 8.8C210.487 8.04 209.137 7.66 207.357 7.66H206.307V16.93H207.327C208.267 16.93 209.057 16.58 209.697 15.88C210.337 15.16 210.787 14.2 211.047 13H211.497V21.88H210.987C210.627 20.38 210.137 19.31 209.517 18.67C208.917 18.03 208.087 17.71 207.027 17.71H206.307V27.34H207.447C209.287 27.34 210.847 26.79 212.127 25.69C213.427 24.59 214.317 23.18 214.797 21.46H215.397L215.157 28H198.687V27.34H200.457V7.66H198.687V7ZM224.277 20.95H225.147V18.64C225.147 16.74 225.037 15.47 224.817 14.83C224.617 14.17 224.217 13.84 223.617 13.84C223.257 13.84 222.927 13.94 222.627 14.14C222.347 14.32 222.207 14.58 222.207 14.92C222.207 15.24 222.267 15.57 222.387 15.91H223.137C223.297 16.33 223.377 16.84 223.377 17.44C223.377 18.02 223.127 18.53 222.627 18.97C222.127 19.39 221.497 19.6 220.737 19.6C219.017 19.6 218.157 18.77 218.157 17.11C218.157 14.65 220.247 13.42 224.427 13.42C226.807 13.42 228.447 13.83 229.347 14.65C230.267 15.45 230.727 16.93 230.727 19.09V25.18C230.727 26.22 231.017 26.74 231.597 26.74C232.277 26.74 232.677 25.71 232.797 23.65L233.247 23.68C233.167 25.44 232.837 26.65 232.257 27.31C231.677 27.97 230.727 28.3 229.407 28.3C227.007 28.3 225.627 27.56 225.267 26.08C225.007 26.84 224.617 27.4 224.097 27.76C223.577 28.12 222.817 28.3 221.817 28.3C218.857 28.3 217.377 27.09 217.377 24.67C217.377 23.25 217.937 22.28 219.057 21.76C220.197 21.22 221.937 20.95 224.277 20.95ZM223.077 24.64C223.077 25.68 223.127 26.35 223.227 26.65C223.347 26.95 223.557 27.1 223.857 27.1C224.177 27.1 224.467 26.85 224.727 26.35C225.007 25.83 225.147 25.12 225.147 24.22V21.43H224.937C223.697 21.43 223.077 22.34 223.077 24.16V24.64ZM234.603 23.71V14.26H232.953V13.72H234.603V9.85L240.183 8.47V13.72H244.083V14.26H240.183V24.37C240.183 25.31 240.273 26 240.453 26.44C240.653 26.88 241.053 27.1 241.653 27.1C242.253 27.1 242.773 26.8 243.213 26.2C243.673 25.6 243.973 24.78 244.113 23.74L244.623 23.8C244.463 25.18 244.023 26.28 243.303 27.1C242.583 27.9 241.393 28.3 239.733 28.3C238.073 28.3 236.803 27.97 235.923 27.31C235.043 26.65 234.603 25.45 234.603 23.71ZM129.429 39H138.399C141.179 39 143.259 39.38 144.639 40.14C146.039 40.88 146.739 42.14 146.739 43.92C146.739 46.66 145.089 48.3 141.789 48.84V48.9C145.789 49.4 147.789 51.14 147.789 54.12C147.789 56.3 146.969 57.83 145.329 58.71C143.689 59.57 141.329 60 138.249 60H129.429V59.43H131.379V39.57H129.429V39ZM137.229 49.38V59.43H138.639C139.739 59.43 140.509 59.05 140.949 58.29C141.389 57.53 141.609 56.41 141.609 54.93V53.34C141.609 52.02 141.339 51.03 140.799 50.37C140.259 49.71 139.299 49.38 137.919 49.38H137.229ZM137.229 39.57V48.81H138.009C139.049 48.81 139.769 48.5 140.169 47.88C140.589 47.24 140.799 46.27 140.799 44.97V43.56C140.799 42.08 140.619 41.05 140.259 40.47C139.899 39.87 139.209 39.57 138.189 39.57H137.229ZM156.074 52.95H156.944V50.64C156.944 48.74 156.834 47.47 156.614 46.83C156.414 46.17 156.014 45.84 155.414 45.84C155.054 45.84 154.724 45.94 154.424 46.14C154.144 46.32 154.004 46.58 154.004 46.92C154.004 47.24 154.064 47.57 154.184 47.91H154.934C155.094 48.33 155.174 48.84 155.174 49.44C155.174 50.02 154.924 50.53 154.424 50.97C153.924 51.39 153.294 51.6 152.534 51.6C150.814 51.6 149.954 50.77 149.954 49.11C149.954 46.65 152.044 45.42 156.224 45.42C158.604 45.42 160.244 45.83 161.144 46.65C162.064 47.45 162.524 48.93 162.524 51.09V57.18C162.524 58.22 162.814 58.74 163.394 58.74C164.074 58.74 164.474 57.71 164.594 55.65L165.044 55.68C164.964 57.44 164.634 58.65 164.054 59.31C163.474 59.97 162.524 60.3 161.204 60.3C158.804 60.3 157.424 59.56 157.064 58.08C156.804 58.84 156.414 59.4 155.894 59.76C155.374 60.12 154.614 60.3 153.614 60.3C150.654 60.3 149.174 59.09 149.174 56.67C149.174 55.25 149.734 54.28 150.854 53.76C151.994 53.22 153.734 52.95 156.074 52.95ZM154.874 56.64C154.874 57.68 154.924 58.35 155.024 58.65C155.144 58.95 155.354 59.1 155.654 59.1C155.974 59.1 156.264 58.85 156.524 58.35C156.804 57.83 156.944 57.12 156.944 56.22V53.43H156.734C155.494 53.43 154.874 54.34 154.874 56.16V56.64ZM176.289 51.93C176.289 49.87 176.189 48.49 175.989 47.79C175.789 47.07 175.399 46.71 174.819 46.71C174.239 46.71 173.719 47.07 173.259 47.79C172.799 48.51 172.569 49.5 172.569 50.76V56.34C172.569 57.2 172.739 57.93 173.079 58.53C173.439 59.13 173.939 59.43 174.579 59.43C175.239 59.43 175.689 58.99 175.929 58.11C176.169 57.23 176.289 55.69 176.289 53.49V51.93ZM172.569 37.5V48C173.329 46.28 174.629 45.42 176.469 45.42C180.209 45.42 182.079 47.91 182.079 52.89C182.079 55.43 181.559 57.3 180.519 58.5C179.499 59.7 177.959 60.3 175.899 60.3C174.859 60.3 174.059 60.14 173.499 59.82C172.959 59.5 172.589 58.97 172.389 58.23L172.179 60H165.339V59.46H166.989V38.04H165.339V37.5H172.569ZM182.24 46.26V45.72H190.94V46.26H189.32L192.59 56.22L196.07 46.26H194.06V45.72H198.29V46.26H196.79L191.18 62.43C190.52 64.31 189.78 65.62 188.96 66.36C188.14 67.12 187.14 67.5 185.96 67.5C184.78 67.5 183.85 67.23 183.17 66.69C182.49 66.15 182.15 65.46 182.15 64.62C182.15 63.78 182.37 63.14 182.81 62.7C183.25 62.26 183.83 62.04 184.55 62.04C186.21 62.04 187.04 62.73 187.04 64.11C187.04 64.41 186.98 64.77 186.86 65.19H185.81C185.65 65.65 185.63 66.03 185.75 66.33C185.87 66.63 186.14 66.78 186.56 66.78C187.38 66.78 188.11 66.37 188.75 65.55C189.39 64.75 190 63.52 190.58 61.86L191.24 60H188.6L183.47 46.26H182.24ZM204.077 39H219.677L219.977 44.94H219.437C218.597 42.92 217.717 41.54 216.797 40.8C215.877 40.04 214.527 39.66 212.747 39.66H211.697V48.93H212.717C213.657 48.93 214.447 48.58 215.087 47.88C215.727 47.16 216.177 46.2 216.437 45H216.887V53.88H216.377C216.017 52.38 215.527 51.31 214.907 50.67C214.307 50.03 213.477 49.71 212.417 49.71H211.697V59.34H212.837C214.677 59.34 216.237 58.79 217.517 57.69C218.817 56.59 219.707 55.18 220.187 53.46H220.787L220.547 60H204.077V59.34H205.847V39.66H204.077V39ZM229.668 52.95H230.538V50.64C230.538 48.74 230.428 47.47 230.208 46.83C230.008 46.17 229.608 45.84 229.008 45.84C228.648 45.84 228.318 45.94 228.018 46.14C227.738 46.32 227.598 46.58 227.598 46.92C227.598 47.24 227.658 47.57 227.778 47.91H228.528C228.688 48.33 228.768 48.84 228.768 49.44C228.768 50.02 228.518 50.53 228.018 50.97C227.518 51.39 226.888 51.6 226.128 51.6C224.408 51.6 223.548 50.77 223.548 49.11C223.548 46.65 225.638 45.42 229.818 45.42C232.198 45.42 233.838 45.83 234.738 46.65C235.658 47.45 236.118 48.93 236.118 51.09V57.18C236.118 58.22 236.408 58.74 236.988 58.74C237.668 58.74 238.068 57.71 238.188 55.65L238.638 55.68C238.558 57.44 238.228 58.65 237.648 59.31C237.068 59.97 236.118 60.3 234.798 60.3C232.398 60.3 231.018 59.56 230.658 58.08C230.398 58.84 230.008 59.4 229.488 59.76C228.968 60.12 228.208 60.3 227.208 60.3C224.248 60.3 222.768 59.09 222.768 56.67C222.768 55.25 223.328 54.28 224.448 53.76C225.588 53.22 227.328 52.95 229.668 52.95ZM228.468 56.64C228.468 57.68 228.518 58.35 228.618 58.65C228.738 58.95 228.948 59.1 229.248 59.1C229.568 59.1 229.858 58.85 230.118 58.35C230.398 57.83 230.538 57.12 230.538 56.22V53.43H230.328C229.088 53.43 228.468 54.34 228.468 56.16V56.64ZM239.993 55.71V46.26H238.343V45.72H239.993V41.85L245.573 40.47V45.72H249.473V46.26H245.573V56.37C245.573 57.31 245.663 58 245.843 58.44C246.043 58.88 246.443 59.1 247.043 59.1C247.643 59.1 248.163 58.8 248.603 58.2C249.063 57.6 249.363 56.78 249.503 55.74L250.013 55.8C249.853 57.18 249.413 58.28 248.693 59.1C247.973 59.9 246.783 60.3 245.123 60.3C243.463 60.3 242.193 59.97 241.313 59.31C240.433 58.65 239.993 57.45 239.993 55.71Z" fill="black"/>
<path d="M15.124 224.192C14.356 224.192 13.676 224.052 13.084 223.772C12.492 223.484 12.028 223.088 11.692 222.584C11.364 222.08 11.2 221.504 11.2 220.856V215.252C11.2 215.068 11.26 214.92 11.38 214.808C11.5 214.688 11.648 214.628 11.824 214.628C12.008 214.628 12.156 214.688 12.268 214.808C12.388 214.92 12.448 215.068 12.448 215.252V220.856C12.448 221.288 12.56 221.672 12.784 222.008C13.016 222.336 13.332 222.596 13.732 222.788C14.14 222.972 14.604 223.064 15.124 223.064C15.628 223.064 16.072 222.972 16.456 222.788C16.848 222.596 17.152 222.336 17.368 222.008C17.592 221.672 17.704 221.288 17.704 220.856V215.252C17.704 215.068 17.764 214.92 17.884 214.808C18.004 214.688 18.152 214.628 18.328 214.628C18.512 214.628 18.66 214.688 18.772 214.808C18.884 214.92 18.94 215.068 18.94 215.252V220.856C18.94 221.504 18.776 222.08 18.448 222.584C18.128 223.088 17.68 223.484 17.104 223.772C16.528 224.052 15.868 224.192 15.124 224.192ZM26.7607 224.012C26.5847 224.012 26.4367 223.956 26.3167 223.844C26.2047 223.724 26.1487 223.576 26.1487 223.4V220.448C26.1487 219.992 26.0647 219.62 25.8967 219.332C25.7287 219.044 25.5007 218.832 25.2127 218.696C24.9327 218.552 24.6087 218.48 24.2407 218.48C23.9047 218.48 23.6007 218.548 23.3287 218.684C23.0567 218.82 22.8407 219.004 22.6807 219.236C22.5207 219.46 22.4407 219.72 22.4407 220.016H21.6847C21.6847 219.512 21.8047 219.064 22.0447 218.672C22.2927 218.272 22.6287 217.956 23.0527 217.724C23.4767 217.492 23.9527 217.376 24.4807 217.376C25.0327 217.376 25.5247 217.496 25.9567 217.736C26.3967 217.968 26.7407 218.312 26.9887 218.768C27.2447 219.224 27.3727 219.784 27.3727 220.448V223.4C27.3727 223.576 27.3127 223.724 27.1927 223.844C27.0807 223.956 26.9367 224.012 26.7607 224.012ZM21.8287 224.012C21.6527 224.012 21.5047 223.956 21.3847 223.844C21.2727 223.724 21.2167 223.576 21.2167 223.4V218.048C21.2167 217.864 21.2727 217.716 21.3847 217.604C21.5047 217.492 21.6527 217.436 21.8287 217.436C22.0127 217.436 22.1607 217.492 22.2727 217.604C22.3847 217.716 22.4407 217.864 22.4407 218.048V223.4C22.4407 223.576 22.3847 223.724 22.2727 223.844C22.1607 223.956 22.0127 224.012 21.8287 224.012ZM30.1284 224C29.9524 224 29.8044 223.944 29.6844 223.832C29.5724 223.712 29.5164 223.564 29.5164 223.388V218.048C29.5164 217.864 29.5724 217.716 29.6844 217.604C29.8044 217.492 29.9524 217.436 30.1284 217.436C30.3124 217.436 30.4604 217.492 30.5724 217.604C30.6844 217.716 30.7404 217.864 30.7404 218.048V223.388C30.7404 223.564 30.6844 223.712 30.5724 223.832C30.4604 223.944 30.3124 224 30.1284 224ZM30.1284 216.368C29.9124 216.368 29.7244 216.292 29.5644 216.14C29.4124 215.98 29.3364 215.792 29.3364 215.576C29.3364 215.36 29.4124 215.176 29.5644 215.024C29.7244 214.864 29.9124 214.784 30.1284 214.784C30.3444 214.784 30.5284 214.864 30.6804 215.024C30.8404 215.176 30.9204 215.36 30.9204 215.576C30.9204 215.792 30.8404 215.98 30.6804 216.14C30.5284 216.292 30.3444 216.368 30.1284 216.368ZM35.4055 224C35.0055 224 34.6455 223.9 34.3255 223.7C34.0055 223.492 33.7535 223.212 33.5695 222.86C33.3855 222.508 33.2935 222.112 33.2935 221.672V215.948C33.2935 215.772 33.3495 215.628 33.4615 215.516C33.5735 215.404 33.7175 215.348 33.8935 215.348C34.0695 215.348 34.2135 215.404 34.3255 215.516C34.4375 215.628 34.4935 215.772 34.4935 215.948V221.672C34.4935 221.992 34.5815 222.26 34.7575 222.476C34.9335 222.692 35.1495 222.8 35.4055 222.8H35.8135C35.9575 222.8 36.0775 222.856 36.1735 222.968C36.2775 223.08 36.3295 223.224 36.3295 223.4C36.3295 223.576 36.2615 223.72 36.1255 223.832C35.9975 223.944 35.8295 224 35.6215 224H35.4055ZM32.7415 218.708C32.5735 218.708 32.4375 218.66 32.3335 218.564C32.2295 218.468 32.1775 218.348 32.1775 218.204C32.1775 218.044 32.2295 217.916 32.3335 217.82C32.4375 217.724 32.5735 217.676 32.7415 217.676H35.5135C35.6815 217.676 35.8175 217.724 35.9215 217.82C36.0255 217.916 36.0775 218.044 36.0775 218.204C36.0775 218.348 36.0255 218.468 35.9215 218.564C35.8175 218.66 35.6815 218.708 35.5135 218.708H32.7415ZM39.0099 226.88C38.9299 226.88 38.8339 226.856 38.7219 226.808C38.3699 226.648 38.2739 226.396 38.4339 226.052L42.0939 217.784C42.2539 217.448 42.5059 217.352 42.8499 217.496C43.2099 217.648 43.3099 217.9 43.1499 218.252L39.4779 226.508C39.3819 226.756 39.2259 226.88 39.0099 226.88ZM40.4259 223.736C40.2739 223.8 40.1299 223.808 39.9939 223.76C39.8659 223.704 39.7619 223.6 39.6819 223.448L36.9339 218.228C36.8539 218.076 36.8419 217.932 36.8979 217.796C36.9619 217.652 37.0699 217.548 37.2219 217.484C37.3739 217.42 37.5179 217.416 37.6539 217.472C37.7899 217.52 37.8939 217.62 37.9659 217.772L40.5939 222.992C40.6739 223.144 40.7019 223.292 40.6779 223.436C40.6619 223.572 40.5779 223.672 40.4259 223.736ZM48.4303 226.808C48.2543 226.808 48.1063 226.748 47.9863 226.628C47.8743 226.516 47.8183 226.372 47.8183 226.196V220.724C47.8263 220.092 47.9743 219.524 48.2623 219.02C48.5503 218.516 48.9423 218.12 49.4383 217.832C49.9343 217.536 50.4943 217.388 51.1183 217.388C51.7503 217.388 52.3143 217.536 52.8103 217.832C53.3063 218.12 53.6983 218.516 53.9863 219.02C54.2823 219.524 54.4303 220.092 54.4303 220.724C54.4303 221.356 54.2943 221.924 54.0223 222.428C53.7583 222.924 53.3943 223.32 52.9303 223.616C52.4663 223.904 51.9423 224.048 51.3583 224.048C50.8863 224.048 50.4503 223.952 50.0503 223.76C49.6583 223.56 49.3223 223.292 49.0423 222.956V226.196C49.0423 226.372 48.9863 226.516 48.8743 226.628C48.7623 226.748 48.6143 226.808 48.4303 226.808ZM51.1183 222.968C51.5263 222.968 51.8903 222.872 52.2103 222.68C52.5303 222.48 52.7823 222.212 52.9663 221.876C53.1583 221.532 53.2543 221.148 53.2543 220.724C53.2543 220.292 53.1583 219.908 52.9663 219.572C52.7823 219.228 52.5303 218.96 52.2103 218.768C51.8903 218.568 51.5263 218.468 51.1183 218.468C50.7183 218.468 50.3543 218.568 50.0263 218.768C49.7063 218.96 49.4543 219.228 49.2703 219.572C49.0863 219.908 48.9943 220.292 48.9943 220.724C48.9943 221.148 49.0863 221.532 49.2703 221.876C49.4543 222.212 49.7063 222.48 50.0263 222.68C50.3543 222.872 50.7183 222.968 51.1183 222.968ZM56.8438 219.896C56.8438 219.416 56.9598 218.988 57.1918 218.612C57.4318 218.228 57.7518 217.924 58.1518 217.7C58.5518 217.476 58.9918 217.364 59.4718 217.364C59.9518 217.364 60.3078 217.444 60.5398 217.604C60.7798 217.756 60.8718 217.94 60.8158 218.156C60.7918 218.268 60.7438 218.356 60.6718 218.42C60.6078 218.476 60.5318 218.512 60.4438 218.528C60.3558 218.544 60.2598 218.54 60.1558 218.516C59.6438 218.412 59.1838 218.404 58.7758 218.492C58.3678 218.58 58.0438 218.744 57.8038 218.984C57.5718 219.224 57.4558 219.528 57.4558 219.896H56.8438ZM56.8558 224C56.6638 224 56.5158 223.952 56.4118 223.856C56.3078 223.752 56.2558 223.6 56.2558 223.4V218.036C56.2558 217.844 56.3078 217.696 56.4118 217.592C56.5158 217.488 56.6638 217.436 56.8558 217.436C57.0558 217.436 57.2038 217.488 57.2998 217.592C57.4038 217.688 57.4558 217.836 57.4558 218.036V223.4C57.4558 223.592 57.4038 223.74 57.2998 223.844C57.2038 223.948 57.0558 224 56.8558 224ZM64.3473 224.048C63.7633 224.048 63.2393 223.904 62.7753 223.616C62.3113 223.32 61.9433 222.924 61.6713 222.428C61.4073 221.924 61.2753 221.356 61.2753 220.724C61.2753 220.092 61.4193 219.524 61.7073 219.02C62.0033 218.516 62.3993 218.12 62.8953 217.832C63.3993 217.536 63.9633 217.388 64.5873 217.388C65.2113 217.388 65.7713 217.536 66.2673 217.832C66.7633 218.12 67.1553 218.516 67.4433 219.02C67.7393 219.524 67.8873 220.092 67.8873 220.724H67.4193C67.4193 221.356 67.2833 221.924 67.0113 222.428C66.7473 222.924 66.3833 223.32 65.9193 223.616C65.4553 223.904 64.9313 224.048 64.3473 224.048ZM64.5873 222.968C64.9953 222.968 65.3593 222.872 65.6793 222.68C65.9993 222.48 66.2513 222.212 66.4353 221.876C66.6193 221.532 66.7113 221.148 66.7113 220.724C66.7113 220.292 66.6193 219.908 66.4353 219.572C66.2513 219.228 65.9993 218.96 65.6793 218.768C65.3593 218.568 64.9953 218.468 64.5873 218.468C64.1873 218.468 63.8233 218.568 63.4953 218.768C63.1753 218.96 62.9193 219.228 62.7273 219.572C62.5433 219.908 62.4513 220.292 62.4513 220.724C62.4513 221.148 62.5433 221.532 62.7273 221.876C62.9193 222.212 63.1753 222.48 63.4953 222.68C63.8233 222.872 64.1873 222.968 64.5873 222.968ZM67.2753 224.012C67.0993 224.012 66.9513 223.956 66.8313 223.844C66.7193 223.724 66.6633 223.576 66.6633 223.4V221.564L66.8913 220.292L67.8873 220.724V223.4C67.8873 223.576 67.8273 223.724 67.7073 223.844C67.5953 223.956 67.4513 224.012 67.2753 224.012ZM72.6849 224.048C72.0449 224.048 71.4729 223.904 70.9689 223.616C70.4729 223.32 70.0809 222.924 69.7929 222.428C69.5129 221.924 69.3729 221.356 69.3729 220.724C69.3729 220.076 69.5129 219.5 69.7929 218.996C70.0729 218.492 70.4569 218.1 70.9449 217.82C71.4329 217.532 71.9929 217.388 72.6249 217.388C73.0969 217.388 73.5289 217.48 73.9209 217.664C74.3129 217.84 74.6649 218.108 74.9769 218.468C75.0889 218.596 75.1289 218.728 75.0969 218.864C75.0649 219 74.9769 219.12 74.8329 219.224C74.7209 219.304 74.5969 219.332 74.4609 219.308C74.3249 219.276 74.2009 219.204 74.0889 219.092C73.6969 218.676 73.2089 218.468 72.6249 218.468C72.2169 218.468 71.8569 218.564 71.5449 218.756C71.2329 218.94 70.9889 219.2 70.8129 219.536C70.6369 219.872 70.5489 220.268 70.5489 220.724C70.5489 221.156 70.6369 221.54 70.8129 221.876C70.9969 222.212 71.2489 222.48 71.5689 222.68C71.8889 222.872 72.2609 222.968 72.6849 222.968C72.9649 222.968 73.2089 222.936 73.4169 222.872C73.6329 222.8 73.8289 222.692 74.0049 222.548C74.1329 222.444 74.2649 222.388 74.4009 222.38C74.5369 222.364 74.6569 222.4 74.7609 222.488C74.8969 222.6 74.9729 222.728 74.9889 222.872C75.0049 223.008 74.9569 223.132 74.8449 223.244C74.2689 223.78 73.5489 224.048 72.6849 224.048ZM79.3039 224C78.9039 224 78.5439 223.9 78.2239 223.7C77.9039 223.492 77.6519 223.212 77.4679 222.86C77.2839 222.508 77.1919 222.112 77.1919 221.672V215.948C77.1919 215.772 77.2479 215.628 77.3599 215.516C77.4719 215.404 77.6159 215.348 77.7919 215.348C77.9679 215.348 78.1119 215.404 78.2239 215.516C78.3359 215.628 78.3919 215.772 78.3919 215.948V221.672C78.3919 221.992 78.4799 222.26 78.6559 222.476C78.8319 222.692 79.0479 222.8 79.3039 222.8H79.7119C79.8559 222.8 79.9759 222.856 80.0719 222.968C80.1759 223.08 80.2279 223.224 80.2279 223.4C80.2279 223.576 80.1599 223.72 80.0239 223.832C79.8959 223.944 79.7279 224 79.5199 224H79.3039ZM76.6399 218.708C76.4719 218.708 76.3359 218.66 76.2319 218.564C76.1279 218.468 76.0759 218.348 76.0759 218.204C76.0759 218.044 76.1279 217.916 76.2319 217.82C76.3359 217.724 76.4719 217.676 76.6399 217.676H79.4119C79.5799 217.676 79.7159 217.724 79.8199 217.82C79.9239 217.916 79.9759 218.044 79.9759 218.204C79.9759 218.348 79.9239 218.468 79.8199 218.564C79.7159 218.66 79.5799 218.708 79.4119 218.708H76.6399ZM82.4643 224C82.2883 224 82.1403 223.944 82.0203 223.832C81.9083 223.712 81.8523 223.564 81.8523 223.388V218.048C81.8523 217.864 81.9083 217.716 82.0203 217.604C82.1403 217.492 82.2883 217.436 82.4643 217.436C82.6483 217.436 82.7963 217.492 82.9083 217.604C83.0203 217.716 83.0763 217.864 83.0763 218.048V223.388C83.0763 223.564 83.0203 223.712 82.9083 223.832C82.7963 223.944 82.6483 224 82.4643 224ZM82.4643 216.368C82.2483 216.368 82.0603 216.292 81.9003 216.14C81.7483 215.98 81.6723 215.792 81.6723 215.576C81.6723 215.36 81.7483 215.176 81.9003 215.024C82.0603 214.864 82.2483 214.784 82.4643 214.784C82.6803 214.784 82.8643 214.864 83.0163 215.024C83.1763 215.176 83.2563 215.36 83.2563 215.576C83.2563 215.792 83.1763 215.98 83.0163 216.14C82.8643 216.292 82.6803 216.368 82.4643 216.368ZM88.3294 224.048C87.6894 224.048 87.1174 223.904 86.6134 223.616C86.1174 223.32 85.7254 222.924 85.4374 222.428C85.1574 221.924 85.0174 221.356 85.0174 220.724C85.0174 220.076 85.1574 219.5 85.4374 218.996C85.7174 218.492 86.1014 218.1 86.5894 217.82C87.0774 217.532 87.6374 217.388 88.2694 217.388C88.7414 217.388 89.1734 217.48 89.5654 217.664C89.9574 217.84 90.3094 218.108 90.6214 218.468C90.7334 218.596 90.7734 218.728 90.7414 218.864C90.7094 219 90.6214 219.12 90.4774 219.224C90.3654 219.304 90.2414 219.332 90.1054 219.308C89.9694 219.276 89.8454 219.204 89.7334 219.092C89.3414 218.676 88.8534 218.468 88.2694 218.468C87.8614 218.468 87.5014 218.564 87.1894 218.756C86.8774 218.94 86.6334 219.2 86.4574 219.536C86.2814 219.872 86.1934 220.268 86.1934 220.724C86.1934 221.156 86.2814 221.54 86.4574 221.876C86.6414 222.212 86.8934 222.48 87.2134 222.68C87.5334 222.872 87.9054 222.968 88.3294 222.968C88.6094 222.968 88.8534 222.936 89.0614 222.872C89.2774 222.8 89.4734 222.692 89.6494 222.548C89.7774 222.444 89.9094 222.388 90.0454 222.38C90.1814 222.364 90.3014 222.4 90.4054 222.488C90.5414 222.6 90.6174 222.728 90.6334 222.872C90.6494 223.008 90.6014 223.132 90.4894 223.244C89.9134 223.78 89.1934 224.048 88.3294 224.048ZM95.6445 224.048C94.9805 224.048 94.3885 223.908 93.8685 223.628C93.3565 223.34 92.9525 222.948 92.6565 222.452C92.3685 221.948 92.2245 221.372 92.2245 220.724C92.2245 220.068 92.3605 219.492 92.6325 218.996C92.9125 218.492 93.2965 218.1 93.7845 217.82C94.2725 217.532 94.8325 217.388 95.4645 217.388C96.0885 217.388 96.6245 217.528 97.0725 217.808C97.5205 218.08 97.8605 218.46 98.0925 218.948C98.3325 219.428 98.4525 219.984 98.4525 220.616C98.4525 220.768 98.4005 220.896 98.2965 221C98.1925 221.096 98.0605 221.144 97.9005 221.144H93.0645V220.184H97.8645L97.3725 220.52C97.3645 220.12 97.2845 219.764 97.1325 219.452C96.9805 219.132 96.7645 218.88 96.4845 218.696C96.2045 218.512 95.8645 218.42 95.4645 218.42C95.0085 218.42 94.6165 218.52 94.2885 218.72C93.9685 218.92 93.7245 219.196 93.5565 219.548C93.3885 219.892 93.3045 220.284 93.3045 220.724C93.3045 221.164 93.4045 221.556 93.6045 221.9C93.8045 222.244 94.0805 222.516 94.4325 222.716C94.7845 222.916 95.1885 223.016 95.6445 223.016C95.8925 223.016 96.1445 222.972 96.4005 222.884C96.6645 222.788 96.8765 222.68 97.0365 222.56C97.1565 222.472 97.2845 222.428 97.4205 222.428C97.5645 222.42 97.6885 222.46 97.7925 222.548C97.9285 222.668 98.0005 222.8 98.0085 222.944C98.0165 223.088 97.9525 223.212 97.8165 223.316C97.5445 223.532 97.2045 223.708 96.7965 223.844C96.3965 223.98 96.0125 224.048 95.6445 224.048Z" fill="black"/>
</svg>
