<svg width="250" height="251" viewBox="0 0 250 251" fill="none" xmlns="http://www.w3.org/2000/svg">
<circle cx="125" cy="126" r="125" fill="#FFED4C"/>
<path d="M177.043 27.68C178.088 27.68 178.749 27.488 179.027 27.104C179.325 26.72 179.475 26.0693 179.475 25.152V18.944H177.427V18.24H186.643V18.944H185.395V27.968H184.915C184.531 27.4347 183.987 27.168 183.283 27.168C182.984 27.168 182.088 27.36 180.595 27.744C179.123 28.128 177.864 28.32 176.819 28.32C173.341 28.32 170.643 27.3813 168.723 25.504C166.824 23.6267 165.875 20.8107 165.875 17.056C165.875 13.28 166.867 10.368 168.851 8.32C170.856 6.272 173.544 5.248 176.915 5.248C178.216 5.248 179.517 5.41867 180.819 5.76C182.141 6.08 182.909 6.24 183.123 6.24C183.336 6.24 183.496 6.19733 183.603 6.112C183.709 6.00533 183.827 5.83467 183.955 5.6H184.307L184.562 12.544H183.987C182.941 10.4747 181.885 8.85333 180.819 7.68C179.773 6.48533 178.6 5.888 177.299 5.888C174.035 5.888 172.403 9.07733 172.403 15.456V17.984C172.403 21.184 172.797 23.6053 173.587 25.248C174.397 26.8693 175.549 27.68 177.043 27.68ZM195.531 20.48H196.459V18.016C196.459 15.9893 196.342 14.6347 196.107 13.952C195.894 13.248 195.467 12.896 194.827 12.896C194.443 12.896 194.091 13.0027 193.771 13.216C193.473 13.408 193.323 13.6853 193.323 14.048C193.323 14.3893 193.387 14.7413 193.515 15.104H194.315C194.486 15.552 194.571 16.096 194.571 16.736C194.571 17.3547 194.305 17.8987 193.771 18.368C193.238 18.816 192.566 19.04 191.755 19.04C189.921 19.04 189.003 18.1547 189.003 16.384C189.003 13.76 191.233 12.448 195.691 12.448C198.23 12.448 199.979 12.8853 200.939 13.76C201.921 14.6133 202.411 16.192 202.411 18.496V24.992C202.411 26.1013 202.721 26.656 203.339 26.656C204.065 26.656 204.491 25.5573 204.619 23.36L205.099 23.392C205.014 25.2693 204.662 26.56 204.043 27.264C203.425 27.968 202.411 28.32 201.003 28.32C198.443 28.32 196.971 27.5307 196.587 25.952C196.31 26.7627 195.894 27.36 195.339 27.744C194.785 28.128 193.974 28.32 192.907 28.32C189.75 28.32 188.171 27.0293 188.171 24.448C188.171 22.9333 188.769 21.8987 189.963 21.344C191.179 20.768 193.035 20.48 195.531 20.48ZM194.251 24.416C194.251 25.5253 194.305 26.24 194.411 26.56C194.539 26.88 194.763 27.04 195.083 27.04C195.425 27.04 195.734 26.7733 196.011 26.24C196.31 25.6853 196.459 24.928 196.459 23.968V20.992H196.235C194.913 20.992 194.251 21.9627 194.251 23.904V24.416ZM205.414 12.768H213.126V15.712C213.83 13.536 215.376 12.448 217.766 12.448C220.176 12.448 221.638 13.6 222.15 15.904C222.896 13.6 224.464 12.448 226.854 12.448C229.99 12.448 231.558 14.2293 231.558 17.792V27.424H233.35V28H224.486V27.424H225.606V17.024C225.606 15.4027 225.467 14.4533 225.19 14.176C225.062 14.048 224.891 13.984 224.678 13.984C224.059 13.984 223.515 14.4 223.046 15.232C222.576 16.064 222.342 17.12 222.342 18.4V27.424H223.494V28H215.27V27.424H216.39V17.024C216.39 15.4027 216.251 14.4533 215.974 14.176C215.846 14.048 215.675 13.984 215.462 13.984C214.864 13.984 214.32 14.4427 213.83 15.36C213.36 16.256 213.126 17.3333 213.126 18.592V27.424H214.278V28H205.414V27.424H207.174V13.344H205.414V12.768ZM242.236 28.32C239.484 28.32 237.415 27.616 236.028 26.208C234.663 24.7787 233.98 22.8053 233.98 20.288C233.98 17.7493 234.748 15.808 236.284 14.464C237.841 13.12 239.815 12.448 242.204 12.448C247.047 12.448 249.372 14.88 249.18 19.744H240.156V20.992C240.156 23.0827 240.423 24.6613 240.956 25.728C241.489 26.7947 242.417 27.328 243.74 27.328C246.215 27.328 247.836 26.0053 248.604 23.36L249.18 23.456C248.775 24.992 248.039 26.1867 246.972 27.04C245.927 27.8933 244.348 28.32 242.236 28.32ZM240.188 19.104H243.484V17.536C243.484 15.808 243.377 14.6347 243.164 14.016C242.972 13.376 242.567 13.056 241.948 13.056C241.351 13.056 240.903 13.3973 240.604 14.08C240.327 14.7413 240.188 15.8933 240.188 17.536V19.104ZM172.536 48.416C172.536 52.8107 171.298 55.872 168.824 57.6C166.541 59.2 163.405 60 159.416 60H150.36V59.392H152.472V38.208H150.36V37.6H160.248C164.344 37.6 167.416 38.4427 169.464 40.128C171.512 41.792 172.536 44.5547 172.536 48.416ZM158.712 59.392H159.928C162.082 59.392 163.618 58.6347 164.536 57.12C165.474 55.584 165.944 53.024 165.944 49.44V47.584C165.944 42.784 165.026 39.8933 163.192 38.912C162.317 38.4427 161.08 38.208 159.48 38.208H158.712V59.392ZM182.58 60.32C179.828 60.32 177.758 59.616 176.372 58.208C175.006 56.7787 174.324 54.8053 174.324 52.288C174.324 49.7493 175.092 47.808 176.628 46.464C178.185 45.12 180.158 44.448 182.548 44.448C187.39 44.448 189.716 46.88 189.524 51.744H180.5V52.992C180.5 55.0827 180.766 56.6613 181.3 57.728C181.833 58.7947 182.761 59.328 184.084 59.328C186.558 59.328 188.18 58.0053 188.948 55.36L189.524 55.456C189.118 56.992 188.382 58.1867 187.316 59.04C186.27 59.8933 184.692 60.32 182.58 60.32ZM180.532 51.104H183.828V49.536C183.828 47.808 183.721 46.6347 183.508 46.016C183.316 45.376 182.91 45.056 182.292 45.056C181.694 45.056 181.246 45.3973 180.948 46.08C180.67 46.7413 180.532 47.8933 180.532 49.536V51.104ZM190.664 44.768H198.376V47.712C199.08 45.536 200.626 44.448 203.016 44.448C205.426 44.448 206.888 45.6 207.4 47.904C208.146 45.6 209.714 44.448 212.104 44.448C215.24 44.448 216.808 46.2293 216.808 49.792V59.424H218.6V60H209.736V59.424H210.856V49.024C210.856 47.4027 210.717 46.4533 210.44 46.176C210.312 46.048 210.141 45.984 209.928 45.984C209.309 45.984 208.765 46.4 208.296 47.232C207.826 48.064 207.592 49.12 207.592 50.4V59.424H208.744V60H200.52V59.424H201.64V49.024C201.64 47.4027 201.501 46.4533 201.224 46.176C201.096 46.048 200.925 45.984 200.712 45.984C200.114 45.984 199.57 46.4427 199.08 47.36C198.61 48.256 198.376 49.3333 198.376 50.592V59.424H199.528V60H190.664V59.424H192.424V45.344H190.664V44.768ZM229.406 53.696V50.976C229.406 48.9067 229.289 47.4027 229.054 46.464C228.841 45.504 228.329 45.024 227.518 45.024C227.049 45.024 226.665 45.1627 226.366 45.44C226.089 45.696 225.886 46.1333 225.758 46.752C225.566 47.712 225.47 49.1733 225.47 51.136V53.632C225.47 55.9573 225.534 57.3547 225.662 57.824C225.811 58.2933 225.961 58.6773 226.11 58.976C226.345 59.488 226.803 59.744 227.486 59.744C228.318 59.744 228.862 59.264 229.118 58.304C229.31 57.6213 229.406 56.0853 229.406 53.696ZM227.422 60.32C224.755 60.32 222.739 59.6373 221.374 58.272C220.009 56.9067 219.326 54.9547 219.326 52.416C219.326 49.856 220.051 47.8933 221.502 46.528C222.974 45.1413 225.033 44.448 227.678 44.448C230.323 44.448 232.297 45.088 233.598 46.368C234.899 47.6267 235.55 49.5573 235.55 52.16C235.55 57.6 232.841 60.32 227.422 60.32ZM237.181 60.32V54.592H237.565C238.12 56.448 238.866 57.7493 239.805 58.496C240.744 59.2427 241.917 59.616 243.325 59.616C245.501 59.616 246.589 58.9227 246.589 57.536C246.589 56.9387 246.322 56.4907 245.789 56.192C244.957 55.7227 243.89 55.36 242.589 55.104C241.138 54.72 239.922 54.208 238.941 53.568C237.768 52.8 237.181 51.584 237.181 49.92C237.181 48.256 237.693 46.9333 238.717 45.952C239.741 44.9493 241.106 44.448 242.813 44.448C243.858 44.448 244.936 44.6933 246.045 45.184C246.45 45.3547 246.76 45.44 246.973 45.44C247.186 45.44 247.368 45.3653 247.517 45.216C247.666 45.0667 247.848 44.7893 248.061 44.384H248.413V49.28H248.029C246.941 46.5067 245.256 45.12 242.973 45.12C241.97 45.12 241.224 45.3013 240.733 45.664C240.242 46.0053 239.997 46.4427 239.997 46.976C239.997 47.296 240.072 47.552 240.221 47.744C240.37 47.9147 240.488 48.0427 240.573 48.128C240.658 48.2133 240.797 48.3093 240.989 48.416C241.181 48.5013 241.341 48.576 241.469 48.64C241.597 48.6827 241.789 48.7467 242.045 48.832C242.322 48.9173 242.525 48.9707 242.653 48.992C244.104 49.3547 245.149 49.6747 245.789 49.952C246.429 50.208 247.037 50.528 247.613 50.912C248.786 51.7227 249.373 53.0347 249.373 54.848C249.373 56.64 248.84 58.0053 247.773 58.944C246.706 59.8613 245.245 60.32 243.389 60.32C242.066 60.32 240.786 60.0107 239.549 59.392C239.293 59.2213 239.09 59.136 238.941 59.136C238.472 59.136 238.013 59.5307 237.565 60.32H237.181Z" fill="black"/>
<path d="M14.74 224.12C13.588 224.12 12.684 223.796 12.028 223.148C11.38 222.5 11.056 221.564 11.056 220.34V215.6H12.616V220.28C12.616 221.144 12.8 221.772 13.168 222.164C13.544 222.556 14.072 222.752 14.752 222.752C15.432 222.752 15.956 222.556 16.324 222.164C16.692 221.772 16.876 221.144 16.876 220.28V215.6H18.412V220.34C18.412 221.564 18.084 222.5 17.428 223.148C16.78 223.796 15.884 224.12 14.74 224.12ZM24.0888 217.52C24.6008 217.52 25.0568 217.62 25.4568 217.82C25.8648 218.02 26.1848 218.328 26.4168 218.744C26.6488 219.152 26.7648 219.68 26.7648 220.328V224H25.2648V220.52C25.2648 219.952 25.1288 219.528 24.8568 219.248C24.5928 218.968 24.2208 218.828 23.7408 218.828C23.3888 218.828 23.0768 218.9 22.8048 219.044C22.5328 219.188 22.3208 219.404 22.1688 219.692C22.0248 219.972 21.9528 220.328 21.9528 220.76V224H20.4528V217.592H21.8808V219.32L21.6288 218.792C21.8528 218.384 22.1768 218.072 22.6008 217.856C23.0328 217.632 23.5288 217.52 24.0888 217.52ZM28.6676 224V217.592H30.1676V224H28.6676ZM29.4236 216.536C29.1436 216.536 28.9116 216.448 28.7276 216.272C28.5516 216.096 28.4636 215.884 28.4636 215.636C28.4636 215.38 28.5516 215.168 28.7276 215C28.9116 214.824 29.1436 214.736 29.4236 214.736C29.7036 214.736 29.9316 214.82 30.1076 214.988C30.2916 215.148 30.3836 215.352 30.3836 215.6C30.3836 215.864 30.2956 216.088 30.1196 216.272C29.9436 216.448 29.7116 216.536 29.4236 216.536ZM34.5483 224.084C33.8443 224.084 33.3003 223.904 32.9163 223.544C32.5323 223.176 32.3403 222.636 32.3403 221.924V216.176H33.8403V221.888C33.8403 222.192 33.9163 222.428 34.0683 222.596C34.2283 222.764 34.4483 222.848 34.7283 222.848C35.0643 222.848 35.3443 222.76 35.5683 222.584L35.9883 223.652C35.8123 223.796 35.5963 223.904 35.3403 223.976C35.0843 224.048 34.8203 224.084 34.5483 224.084ZM31.2843 218.84V217.64H35.5563V218.84H31.2843ZM37.6331 226.412C37.3211 226.412 37.0091 226.36 36.6971 226.256C36.3851 226.152 36.1251 226.008 35.9171 225.824L36.5171 224.72C36.6691 224.856 36.8411 224.964 37.0331 225.044C37.2251 225.124 37.4211 225.164 37.6211 225.164C37.8931 225.164 38.1131 225.096 38.2811 224.96C38.4491 224.824 38.6051 224.596 38.7491 224.276L39.1211 223.436L39.2411 223.256L41.6651 217.592H43.1051L40.1051 224.516C39.9051 224.996 39.6811 225.376 39.4331 225.656C39.1931 225.936 38.9211 226.132 38.6171 226.244C38.3211 226.356 37.9931 226.412 37.6331 226.412ZM38.9531 224.228L36.0611 217.592H37.6211L39.9731 223.124L38.9531 224.228ZM50.911 224.084C50.391 224.084 49.915 223.964 49.483 223.724C49.059 223.484 48.719 223.124 48.463 222.644C48.215 222.156 48.091 221.54 48.091 220.796C48.091 220.044 48.211 219.428 48.451 218.948C48.699 218.468 49.035 218.112 49.459 217.88C49.883 217.64 50.367 217.52 50.911 217.52C51.543 217.52 52.099 217.656 52.579 217.928C53.067 218.2 53.451 218.58 53.731 219.068C54.019 219.556 54.163 220.132 54.163 220.796C54.163 221.46 54.019 222.04 53.731 222.536C53.451 223.024 53.067 223.404 52.579 223.676C52.099 223.948 51.543 224.084 50.911 224.084ZM47.359 226.328V217.592H48.787V219.104L48.739 220.808L48.859 222.512V226.328H47.359ZM50.743 222.8C51.103 222.8 51.423 222.72 51.703 222.56C51.991 222.4 52.219 222.168 52.387 221.864C52.555 221.56 52.639 221.204 52.639 220.796C52.639 220.38 52.555 220.024 52.387 219.728C52.219 219.424 51.991 219.192 51.703 219.032C51.423 218.872 51.103 218.792 50.743 218.792C50.383 218.792 50.059 218.872 49.771 219.032C49.483 219.192 49.255 219.424 49.087 219.728C48.919 220.024 48.835 220.38 48.835 220.796C48.835 221.204 48.919 221.56 49.087 221.864C49.255 222.168 49.483 222.4 49.771 222.56C50.059 222.72 50.383 222.8 50.743 222.8ZM55.5856 224V217.592H57.0136V219.356L56.8456 218.84C57.0376 218.408 57.3376 218.08 57.7456 217.856C58.1616 217.632 58.6776 217.52 59.2936 217.52V218.948C59.2296 218.932 59.1696 218.924 59.1136 218.924C59.0576 218.916 59.0016 218.912 58.9456 218.912C58.3776 218.912 57.9256 219.08 57.5896 219.416C57.2536 219.744 57.0856 220.236 57.0856 220.892V224H55.5856ZM64.057 224V222.704L63.973 222.428V220.16C63.973 219.72 63.841 219.38 63.577 219.14C63.313 218.892 62.913 218.768 62.377 218.768C62.017 218.768 61.661 218.824 61.309 218.936C60.965 219.048 60.673 219.204 60.433 219.404L59.845 218.312C60.189 218.048 60.597 217.852 61.069 217.724C61.549 217.588 62.045 217.52 62.557 217.52C63.485 217.52 64.201 217.744 64.705 218.192C65.217 218.632 65.473 219.316 65.473 220.244V224H64.057ZM62.041 224.084C61.561 224.084 61.141 224.004 60.781 223.844C60.421 223.676 60.141 223.448 59.941 223.16C59.749 222.864 59.653 222.532 59.653 222.164C59.653 221.804 59.737 221.48 59.905 221.192C60.081 220.904 60.365 220.676 60.757 220.508C61.149 220.34 61.669 220.256 62.317 220.256H64.177V221.252H62.425C61.913 221.252 61.569 221.336 61.393 221.504C61.217 221.664 61.129 221.864 61.129 222.104C61.129 222.376 61.237 222.592 61.453 222.752C61.669 222.912 61.969 222.992 62.353 222.992C62.721 222.992 63.049 222.908 63.337 222.74C63.633 222.572 63.845 222.324 63.973 221.996L64.225 222.896C64.081 223.272 63.821 223.564 63.445 223.772C63.077 223.98 62.609 224.084 62.041 224.084ZM70.3498 224.084C69.6778 224.084 69.0778 223.944 68.5498 223.664C68.0298 223.376 67.6218 222.984 67.3258 222.488C67.0298 221.992 66.8818 221.428 66.8818 220.796C66.8818 220.156 67.0298 219.592 67.3258 219.104C67.6218 218.608 68.0298 218.22 68.5498 217.94C69.0778 217.66 69.6778 217.52 70.3498 217.52C70.9738 217.52 71.5218 217.648 71.9938 217.904C72.4738 218.152 72.8378 218.52 73.0858 219.008L71.9338 219.68C71.7418 219.376 71.5058 219.152 71.2258 219.008C70.9538 218.864 70.6578 218.792 70.3378 218.792C69.9698 218.792 69.6378 218.872 69.3418 219.032C69.0458 219.192 68.8138 219.424 68.6458 219.728C68.4778 220.024 68.3938 220.38 68.3938 220.796C68.3938 221.212 68.4778 221.572 68.6458 221.876C68.8138 222.172 69.0458 222.4 69.3418 222.56C69.6378 222.72 69.9698 222.8 70.3378 222.8C70.6578 222.8 70.9538 222.728 71.2258 222.584C71.5058 222.44 71.7418 222.216 71.9338 221.912L73.0858 222.584C72.8378 223.064 72.4738 223.436 71.9938 223.7C71.5218 223.956 70.9738 224.084 70.3498 224.084ZM76.8765 224.084C76.1725 224.084 75.6285 223.904 75.2445 223.544C74.8605 223.176 74.6685 222.636 74.6685 221.924V216.176H76.1685V221.888C76.1685 222.192 76.2445 222.428 76.3965 222.596C76.5565 222.764 76.7765 222.848 77.0565 222.848C77.3925 222.848 77.6725 222.76 77.8965 222.584L78.3165 223.652C78.1405 223.796 77.9245 223.904 77.6685 223.976C77.4125 224.048 77.1485 224.084 76.8765 224.084ZM73.6125 218.84V217.64H77.8845V218.84H73.6125ZM79.5504 224V217.592H81.0504V224H79.5504ZM80.3064 216.536C80.0264 216.536 79.7944 216.448 79.6104 216.272C79.4344 216.096 79.3464 215.884 79.3464 215.636C79.3464 215.38 79.4344 215.168 79.6104 215C79.7944 214.824 80.0264 214.736 80.3064 214.736C80.5864 214.736 80.8144 214.82 80.9904 214.988C81.1744 215.148 81.2664 215.352 81.2664 215.6C81.2664 215.864 81.1784 216.088 81.0024 216.272C80.8264 216.448 80.5944 216.536 80.3064 216.536ZM85.9592 224.084C85.2872 224.084 84.6872 223.944 84.1592 223.664C83.6392 223.376 83.2312 222.984 82.9352 222.488C82.6392 221.992 82.4912 221.428 82.4912 220.796C82.4912 220.156 82.6392 219.592 82.9352 219.104C83.2312 218.608 83.6392 218.22 84.1592 217.94C84.6872 217.66 85.2872 217.52 85.9592 217.52C86.5832 217.52 87.1312 217.648 87.6032 217.904C88.0832 218.152 88.4472 218.52 88.6952 219.008L87.5432 219.68C87.3512 219.376 87.1152 219.152 86.8352 219.008C86.5632 218.864 86.2672 218.792 85.9472 218.792C85.5792 218.792 85.2472 218.872 84.9512 219.032C84.6552 219.192 84.4232 219.424 84.2552 219.728C84.0872 220.024 84.0032 220.38 84.0032 220.796C84.0032 221.212 84.0872 221.572 84.2552 221.876C84.4232 222.172 84.6552 222.4 84.9512 222.56C85.2472 222.72 85.5792 222.8 85.9472 222.8C86.2672 222.8 86.5632 222.728 86.8352 222.584C87.1152 222.44 87.3512 222.216 87.5432 221.912L88.6952 222.584C88.4472 223.064 88.0832 223.436 87.6032 223.7C87.1312 223.956 86.5832 224.084 85.9592 224.084ZM92.9101 224.084C92.1981 224.084 91.5741 223.944 91.0381 223.664C90.5101 223.376 90.0981 222.984 89.8021 222.488C89.5141 221.992 89.3701 221.428 89.3701 220.796C89.3701 220.156 89.5101 219.592 89.7901 219.104C90.0781 218.608 90.4701 218.22 90.9661 217.94C91.4701 217.66 92.0421 217.52 92.6821 217.52C93.3061 217.52 93.8621 217.656 94.3501 217.928C94.8381 218.2 95.2221 218.584 95.5021 219.08C95.7821 219.576 95.9221 220.16 95.9221 220.832C95.9221 220.896 95.9181 220.968 95.9101 221.048C95.9101 221.128 95.9061 221.204 95.8981 221.276H90.5581V220.28H95.1061L94.5181 220.592C94.5261 220.224 94.4501 219.9 94.2901 219.62C94.1301 219.34 93.9101 219.12 93.6301 218.96C93.3581 218.8 93.0421 218.72 92.6821 218.72C92.3141 218.72 91.9901 218.8 91.7101 218.96C91.4381 219.12 91.2221 219.344 91.0621 219.632C90.9101 219.912 90.8341 220.244 90.8341 220.628V220.868C90.8341 221.252 90.9221 221.592 91.0981 221.888C91.2741 222.184 91.5221 222.412 91.8421 222.572C92.1621 222.732 92.5301 222.812 92.9461 222.812C93.3061 222.812 93.6301 222.756 93.9181 222.644C94.2061 222.532 94.4621 222.356 94.6861 222.116L95.4901 223.04C95.2021 223.376 94.8381 223.636 94.3981 223.82C93.9661 223.996 93.4701 224.084 92.9101 224.084ZM99.3429 224.084C98.8069 224.084 98.2909 224.016 97.7949 223.88C97.3069 223.736 96.9189 223.564 96.6309 223.364L97.2069 222.224C97.4949 222.408 97.8389 222.56 98.2389 222.68C98.6389 222.8 99.0389 222.86 99.4389 222.86C99.9109 222.86 100.251 222.796 100.459 222.668C100.675 222.54 100.783 222.368 100.783 222.152C100.783 221.976 100.711 221.844 100.567 221.756C100.423 221.66 100.235 221.588 100.003 221.54C99.7709 221.492 99.5109 221.448 99.2229 221.408C98.9429 221.368 98.6589 221.316 98.3709 221.252C98.0909 221.18 97.8349 221.08 97.6029 220.952C97.3709 220.816 97.1829 220.636 97.0389 220.412C96.8949 220.188 96.8229 219.892 96.8229 219.524C96.8229 219.116 96.9389 218.764 97.1709 218.468C97.4029 218.164 97.7269 217.932 98.1429 217.772C98.5669 217.604 99.0669 217.52 99.6429 217.52C100.075 217.52 100.511 217.568 100.951 217.664C101.391 217.76 101.755 217.896 102.043 218.072L101.467 219.212C101.163 219.028 100.855 218.904 100.543 218.84C100.239 218.768 99.9349 218.732 99.6309 218.732C99.1749 218.732 98.8349 218.8 98.6109 218.936C98.3949 219.072 98.2869 219.244 98.2869 219.452C98.2869 219.644 98.3589 219.788 98.5029 219.884C98.6469 219.98 98.8349 220.056 99.0669 220.112C99.2989 220.168 99.5549 220.216 99.8349 220.256C100.123 220.288 100.407 220.34 100.687 220.412C100.967 220.484 101.223 220.584 101.455 220.712C101.695 220.832 101.887 221.004 102.031 221.228C102.175 221.452 102.247 221.744 102.247 222.104C102.247 222.504 102.127 222.852 101.887 223.148C101.655 223.444 101.323 223.676 100.891 223.844C100.459 224.004 99.9429 224.084 99.3429 224.084Z" fill="black"/>
</svg>
