<svg width="116" height="23" viewBox="0 0 116 23" fill="none" xmlns="http://www.w3.org/2000/svg">
<path d="M111.333 0.3125C112.01 0.3125 112.583 0.552083 113.051 1.03125C113.52 1.5 113.754 2.06771 113.754 2.73438C113.754 3.40104 113.515 3.96875 113.036 4.4375C112.567 4.90625 111.999 5.14062 111.333 5.14062C110.666 5.14062 110.098 4.90625 109.629 4.4375C109.161 3.96875 108.926 3.40104 108.926 2.73438C108.926 2.06771 109.161 1.5 109.629 1.03125C110.098 0.552083 110.666 0.3125 111.333 0.3125ZM113.52 7.39062V18.9688C113.52 20 113.64 20.6615 113.879 20.9531C114.119 21.2344 114.588 21.3958 115.286 21.4375V22H107.395V21.4375C108.041 21.4167 108.52 21.2292 108.833 20.875C109.041 20.6354 109.145 20 109.145 18.9688V10.4375C109.145 9.40625 109.025 8.75 108.786 8.46875C108.546 8.17708 108.083 8.01042 107.395 7.96875V7.39062H113.52Z" fill="#EB3333"/>
<path d="M106.238 14.5625L105.441 22H86.6289V21.4219H87.332C87.9466 21.4219 88.4414 21.3125 88.8164 21.0938C89.0872 20.9479 89.2956 20.6979 89.4414 20.3438C89.556 20.0938 89.6133 19.4375 89.6133 18.375V4.4375C89.6133 3.35417 89.556 2.67708 89.4414 2.40625C89.3268 2.13542 89.0924 1.90104 88.7383 1.70312C88.3945 1.49479 87.9258 1.39062 87.332 1.39062H86.6289V0.8125H97.9258V1.39062H97.0039C96.3893 1.39062 95.8945 1.5 95.5195 1.71875C95.2487 1.86458 95.0352 2.11458 94.8789 2.46875C94.7643 2.71875 94.707 3.375 94.707 4.4375V17.9375C94.707 19.0208 94.7695 19.7135 94.8945 20.0156C95.0195 20.3073 95.2643 20.526 95.6289 20.6719C95.8893 20.7656 96.5195 20.8125 97.5195 20.8125H99.2852C100.41 20.8125 101.348 20.6146 102.098 20.2188C102.848 19.8229 103.493 19.1979 104.035 18.3438C104.587 17.4896 105.108 16.2292 105.598 14.5625H106.238Z" fill="#EB3333"/>
<path d="M68.5493 7.39062V9.28125C69.2993 8.46875 70.0181 7.88021 70.7056 7.51562C71.3931 7.14062 72.1326 6.95312 72.9243 6.95312C73.8722 6.95312 74.6587 7.21875 75.2837 7.75C75.9087 8.27083 76.3254 8.92188 76.5337 9.70312C76.7004 10.2969 76.7837 11.4375 76.7837 13.125V18.8125C76.7837 19.9375 76.8826 20.6406 77.0806 20.9219C77.2889 21.1927 77.716 21.3646 78.3618 21.4375V22H70.9712V21.4375C71.5233 21.3646 71.9191 21.1354 72.1587 20.75C72.3254 20.4896 72.4087 19.8438 72.4087 18.8125V12.3125C72.4087 11.1146 72.3618 10.3594 72.2681 10.0469C72.1743 9.73438 72.0129 9.49479 71.7837 9.32812C71.5649 9.15104 71.3201 9.0625 71.0493 9.0625C70.1535 9.0625 69.3201 9.70312 68.5493 10.9844V18.8125C68.5493 19.9062 68.6483 20.599 68.8462 20.8906C69.0545 21.1823 69.4347 21.3646 69.9868 21.4375V22H62.5962V21.4375C63.2108 21.375 63.6483 21.1771 63.9087 20.8438C64.0858 20.6146 64.1743 19.9375 64.1743 18.8125V10.5625C64.1743 9.45833 64.0701 8.77083 63.8618 8.5C63.6639 8.22917 63.242 8.05208 62.5962 7.96875V7.39062H68.5493Z" fill="#EB3333"/>
<path d="M55.2832 19.8438C53.502 21.4167 51.903 22.2031 50.4863 22.2031C49.653 22.2031 48.9603 21.9323 48.4082 21.3906C47.8561 20.8385 47.5801 20.151 47.5801 19.3281C47.5801 18.2135 48.0592 17.2135 49.0176 16.3281C49.9759 15.4323 52.0645 14.2448 55.2832 12.7656V11.2969C55.2832 10.1927 55.2207 9.5 55.0957 9.21875C54.9811 8.92708 54.7572 8.67708 54.4238 8.46875C54.0905 8.25 53.7155 8.14062 53.2988 8.14062C52.6217 8.14062 52.0645 8.29167 51.627 8.59375C51.3561 8.78125 51.2207 9 51.2207 9.25C51.2207 9.46875 51.3665 9.73958 51.6582 10.0625C52.054 10.5104 52.252 10.9427 52.252 11.3594C52.252 11.8698 52.0592 12.3073 51.6738 12.6719C51.2988 13.026 50.804 13.2031 50.1895 13.2031C49.5332 13.2031 48.9811 13.0052 48.5332 12.6094C48.0957 12.2135 47.877 11.75 47.877 11.2188C47.877 10.4688 48.1738 9.75521 48.7676 9.07812C49.3613 8.39062 50.1895 7.86458 51.252 7.5C52.3145 7.13542 53.4186 6.95312 54.5645 6.95312C55.9499 6.95312 57.0436 7.25 57.8457 7.84375C58.6582 8.42708 59.1842 9.0625 59.4238 9.75C59.5697 10.1875 59.6426 11.1927 59.6426 12.7656V18.4375C59.6426 19.1042 59.6686 19.526 59.7207 19.7031C59.7728 19.8698 59.8509 19.9948 59.9551 20.0781C60.0592 20.1615 60.179 20.2031 60.3145 20.2031C60.5853 20.2031 60.8613 20.0104 61.1426 19.625L61.6113 20C61.0905 20.7708 60.5488 21.3333 59.9863 21.6875C59.4342 22.0312 58.804 22.2031 58.0957 22.2031C57.2624 22.2031 56.6113 22.0104 56.1426 21.625C55.6738 21.2292 55.3874 20.6354 55.2832 19.8438ZM55.2832 18.7031V13.8125C54.0228 14.5521 53.0853 15.3438 52.4707 16.1875C52.0645 16.75 51.8613 17.3177 51.8613 17.8906C51.8613 18.3698 52.0332 18.7917 52.377 19.1562C52.6374 19.4375 53.002 19.5781 53.4707 19.5781C53.9915 19.5781 54.5957 19.2865 55.2832 18.7031Z" fill="#EB3333"/>
<path d="M36.0171 0.8125V9.26562C36.8192 8.42188 37.5535 7.82812 38.2202 7.48438C38.8869 7.13021 39.5796 6.95312 40.2983 6.95312C41.215 6.95312 41.9963 7.21354 42.6421 7.73438C43.2983 8.25521 43.7306 8.86979 43.939 9.57812C44.1577 10.276 44.2671 11.4583 44.2671 13.125V18.8281C44.2671 19.9427 44.3713 20.6406 44.5796 20.9219C44.7879 21.1927 45.2098 21.3646 45.8452 21.4375V22H38.439V21.4375C38.9598 21.3646 39.3504 21.1562 39.6108 20.8125C39.7983 20.5417 39.8921 19.8802 39.8921 18.8281V12.3125C39.8921 11.1042 39.8452 10.349 39.7515 10.0469C39.6577 9.73438 39.4963 9.49479 39.2671 9.32812C39.0483 9.15104 38.7983 9.0625 38.5171 9.0625C38.1004 9.0625 37.6942 9.20833 37.2983 9.5C36.9025 9.78125 36.4754 10.2812 36.0171 11V18.8281C36.0171 19.8698 36.0952 20.5208 36.2515 20.7812C36.4494 21.1354 36.8556 21.3542 37.4702 21.4375V22H30.064V21.4375C30.6785 21.375 31.116 21.1771 31.3765 20.8438C31.5535 20.6146 31.6421 19.9427 31.6421 18.8281V3.98438C31.6421 2.88021 31.5379 2.19271 31.3296 1.92188C31.1317 1.65104 30.7098 1.47396 30.064 1.39062V0.8125H36.0171Z" fill="#EB3333"/>
<path d="M25.2974 0.3125C25.9744 0.3125 26.5474 0.552083 27.0161 1.03125C27.4849 1.5 27.7192 2.06771 27.7192 2.73438C27.7192 3.40104 27.4797 3.96875 27.0005 4.4375C26.5317 4.90625 25.964 5.14062 25.2974 5.14062C24.6307 5.14062 24.063 4.90625 23.5942 4.4375C23.1255 3.96875 22.8911 3.40104 22.8911 2.73438C22.8911 2.06771 23.1255 1.5 23.5942 1.03125C24.063 0.552083 24.6307 0.3125 25.2974 0.3125ZM27.4849 7.39062V18.9688C27.4849 20 27.6047 20.6615 27.8442 20.9531C28.0838 21.2344 28.5526 21.3958 29.2505 21.4375V22H21.3599V21.4375C22.0057 21.4167 22.4849 21.2292 22.7974 20.875C23.0057 20.6354 23.1099 20 23.1099 18.9688V10.4375C23.1099 9.40625 22.9901 8.75 22.7505 8.46875C22.5109 8.17708 22.0474 8.01042 21.3599 7.96875V7.39062H27.4849Z" fill="#EB3333"/>
<path d="M14.2344 10.7656C16.2448 11.2344 17.6562 11.8021 18.4688 12.4688C19.6354 13.4167 20.2188 14.6458 20.2188 16.1562C20.2188 17.75 19.5781 19.0677 18.2969 20.1094C16.724 21.3698 14.4375 22 11.4375 22H0.671875V21.4219C1.65104 21.4219 2.3125 21.3333 2.65625 21.1562C3.01042 20.9688 3.25521 20.7292 3.39062 20.4375C3.53646 20.1458 3.60938 19.4271 3.60938 18.2812V4.53125C3.60938 3.38542 3.53646 2.66667 3.39062 2.375C3.25521 2.07292 3.01042 1.83333 2.65625 1.65625C2.30208 1.47917 1.64062 1.39062 0.671875 1.39062V0.8125H10.8281C13.2552 0.8125 14.974 1.03125 15.9844 1.46875C16.9948 1.89583 17.7917 2.54167 18.375 3.40625C18.9583 4.26042 19.25 5.17188 19.25 6.14062C19.25 7.16146 18.8802 8.07292 18.1406 8.875C17.401 9.66667 16.099 10.2969 14.2344 10.7656ZM8.54688 10.3438C10.026 10.3438 11.1146 10.1771 11.8125 9.84375C12.5208 9.51042 13.0625 9.04167 13.4375 8.4375C13.8125 7.83333 14 7.0625 14 6.125C14 5.1875 13.8125 4.42188 13.4375 3.82812C13.0729 3.22396 12.5469 2.76562 11.8594 2.45312C11.1719 2.14062 10.0677 1.98958 8.54688 2V10.3438ZM8.54688 11.5625V18.3594L8.53125 19.1406C8.53125 19.7031 8.67188 20.1302 8.95312 20.4219C9.24479 20.7031 9.67188 20.8438 10.2344 20.8438C11.0677 20.8438 11.8333 20.6615 12.5312 20.2969C13.2396 19.9219 13.7812 19.3854 14.1562 18.6875C14.5312 17.9792 14.7188 17.1927 14.7188 16.3281C14.7188 15.3385 14.4896 14.4531 14.0312 13.6719C13.5729 12.8802 12.9427 12.3281 12.1406 12.0156C11.3385 11.7031 10.1406 11.5521 8.54688 11.5625Z" fill="#EB3333"/>
</svg>
