<svg width="112" height="23" viewBox="0 0 112 23" fill="none" xmlns="http://www.w3.org/2000/svg">
<path d="M19.616 6.32C19.616 6.93867 19.52 7.49333 19.328 7.984C19.1573 8.47467 18.912 8.912 18.592 9.296C18.272 9.68 17.8987 10.0213 17.472 10.32C17.0453 10.6187 16.576 10.896 16.064 11.152C16.2987 11.2373 16.576 11.376 16.896 11.568C17.216 11.7387 17.5253 11.984 17.824 12.304C18.1227 12.624 18.368 13.04 18.56 13.552C18.7733 14.0427 18.88 14.6507 18.88 15.376C18.88 16.336 18.6773 17.2213 18.272 18.032C17.8667 18.8427 17.2587 19.5467 16.448 20.144C15.6587 20.72 14.6773 21.1787 13.504 21.52C12.352 21.84 11.0187 22 9.504 22H0L4.32 1.68H12.736C13.568 1.68 14.3893 1.744 15.2 1.872C16.032 1.97867 16.768 2.20267 17.408 2.544C18.0693 2.88533 18.6027 3.36533 19.008 3.984C19.4133 4.58133 19.616 5.36 19.616 6.32ZM10.912 10.192C11.3813 10.192 11.776 10.0533 12.096 9.776C12.4373 9.49867 12.7147 9.15733 12.928 8.752C13.1413 8.32533 13.3013 7.87733 13.408 7.408C13.5147 6.91733 13.568 6.48 13.568 6.096C13.568 5.47733 13.4187 4.95467 13.12 4.528C12.8427 4.08 12.3947 3.856 11.776 3.856H10.816L9.44 10.192H10.912ZM8.608 19.984C9.248 19.984 9.78133 19.8027 10.208 19.44C10.6347 19.0773 10.9867 18.6293 11.264 18.096C11.5413 17.5627 11.7333 17.008 11.84 16.432C11.968 15.8347 12.032 15.312 12.032 14.864C12.032 14.1173 11.872 13.5307 11.552 13.104C11.2533 12.656 10.7627 12.432 10.08 12.432H8.896L7.328 19.984H8.608ZM25.4423 22H18.9463L21.8583 8.24H28.4183L25.4423 22ZM29.2503 4.048C29.2503 4.53867 29.1436 4.96533 28.9303 5.328C28.7383 5.69067 28.4716 6 28.1303 6.256C27.8103 6.512 27.4369 6.704 27.0103 6.832C26.5836 6.96 26.1463 7.024 25.6983 7.024C24.8449 7.024 24.1303 6.82133 23.5543 6.416C22.9783 6.01067 22.6903 5.37067 22.6903 4.496C22.6903 4.02667 22.7863 3.61067 22.9783 3.248C23.1703 2.864 23.4263 2.55467 23.7463 2.32C24.0876 2.064 24.4716 1.872 24.8983 1.744C25.3463 1.616 25.8049 1.552 26.2743 1.552C27.1063 1.552 27.8103 1.75467 28.3863 2.16C28.9623 2.56533 29.2503 3.19467 29.2503 4.048ZM36.7052 10.288H36.9292C37.3346 9.88267 37.8039 9.50933 38.3372 9.168C38.7852 8.86933 39.3186 8.60267 39.9373 8.368C40.5559 8.13333 41.2492 8.016 42.0173 8.016C43.1266 8.016 44.0439 8.304 44.7693 8.88C45.4946 9.43467 45.8573 10.2027 45.8573 11.184C45.8573 11.4827 45.8252 11.824 45.7612 12.208C45.6973 12.5707 45.6226 12.9653 45.5373 13.392C45.4519 13.7973 45.3559 14.2133 45.2493 14.64C45.1639 15.0453 45.0892 15.4187 45.0252 15.76L43.6812 22H37.1852L38.9452 13.648C38.9879 13.3707 39.0412 13.0933 39.1052 12.816C39.1692 12.5173 39.2013 12.2507 39.2013 12.016C39.2013 11.696 39.1159 11.44 38.9452 11.248C38.7959 11.0347 38.5612 10.928 38.2413 10.928C37.8572 10.928 37.4839 11.0667 37.1213 11.344C36.7799 11.6213 36.5133 11.8667 36.3212 12.08L34.2092 22H27.6812L32.2252 0.495998H38.7852L36.7052 10.288ZM48.4153 9.424C49.5033 8.89067 50.6126 8.50667 51.7433 8.272C52.8953 8.016 54.1753 7.888 55.5833 7.888C56.9486 7.888 58.0793 7.99467 58.9753 8.208C59.8713 8.42133 60.5859 8.73067 61.1193 9.136C61.6526 9.54133 62.0259 10.0213 62.2393 10.576C62.4526 11.1307 62.5593 11.76 62.5593 12.464C62.5593 12.8693 62.5273 13.3067 62.4633 13.776C62.4206 14.2453 62.3673 14.64 62.3033 14.96L60.7993 22H55.6473L55.0713 19.952H54.8793C54.1966 20.6987 53.3966 21.2747 52.4793 21.68C51.5833 22.064 50.6873 22.256 49.7913 22.256C49.2793 22.256 48.7779 22.1813 48.2873 22.032C47.7966 21.8827 47.3593 21.6587 46.9753 21.36C46.5913 21.04 46.2819 20.6453 46.0473 20.176C45.8126 19.6853 45.6953 19.0987 45.6953 18.416C45.6953 17.3067 45.9939 16.432 46.5913 15.792C47.2099 15.1307 48.0099 14.64 48.9913 14.32C49.9939 13.9787 51.1139 13.7653 52.3513 13.68C53.6099 13.5947 54.8686 13.552 56.1273 13.552C56.1699 13.3387 56.2233 13.04 56.2873 12.656C56.3513 12.2507 56.3833 11.8987 56.3833 11.6C56.3833 11.216 56.2766 10.864 56.0633 10.544C55.8713 10.2027 55.4553 10.032 54.8153 10.032C54.0686 10.032 53.5139 10.256 53.1513 10.704C52.8099 11.1307 52.5859 11.6533 52.4793 12.272H47.8073L48.4153 9.424ZM55.7753 15.056H55.1993C54.5806 15.056 54.0473 15.1413 53.5993 15.312C53.1726 15.4613 52.8206 15.664 52.5433 15.92C52.2873 16.176 52.0953 16.464 51.9673 16.784C51.8393 17.104 51.7753 17.424 51.7753 17.744C51.7753 18.256 51.9033 18.64 52.1593 18.896C52.4366 19.152 52.7566 19.28 53.1193 19.28C53.5673 19.28 54.0046 19.12 54.4313 18.8C54.8793 18.48 55.1566 18.0533 55.2633 17.52L55.7753 15.056ZM71.7035 10.288C72.1515 9.86133 72.6528 9.46667 73.2075 9.104C73.6982 8.80533 74.2742 8.528 74.9355 8.272C75.5968 8.016 76.3328 7.888 77.1435 7.888C78.2528 7.888 79.1702 8.176 79.8955 8.752C80.6208 9.30667 80.9835 10.0747 80.9835 11.056C80.9835 11.3333 80.9515 11.6747 80.8875 12.08C80.8235 12.464 80.7488 12.8693 80.6635 13.296C80.5782 13.7227 80.4822 14.16 80.3755 14.608C80.2902 15.0347 80.2155 15.4187 80.1515 15.76L78.8075 22H72.3115L74.0715 13.648C74.1142 13.3707 74.1675 13.0933 74.2315 12.816C74.2955 12.5173 74.3275 12.2507 74.3275 12.016C74.3275 11.696 74.2422 11.44 74.0715 11.248C73.9222 11.0347 73.6875 10.928 73.3675 10.928C72.9835 10.928 72.6102 11.0667 72.2475 11.344C71.9062 11.6213 71.6395 11.856 71.4475 12.048L69.3355 22H62.8075L65.7195 8.24H70.9355L71.5115 10.288H71.7035ZM91.0425 1.68H97.9865L94.2105 19.312H100.707L100.163 22H86.7225L91.0425 1.68ZM107.696 22H101.2L104.112 8.24H110.672L107.696 22ZM111.504 4.048C111.504 4.53867 111.397 4.96533 111.184 5.328C110.992 5.69067 110.725 6 110.384 6.256C110.064 6.512 109.691 6.704 109.264 6.832C108.837 6.96 108.4 7.024 107.952 7.024C107.099 7.024 106.384 6.82133 105.808 6.416C105.232 6.01067 104.944 5.37067 104.944 4.496C104.944 4.02667 105.04 3.61067 105.232 3.248C105.424 2.864 105.68 2.55467 106 2.32C106.341 2.064 106.725 1.872 107.152 1.744C107.6 1.616 108.059 1.552 108.528 1.552C109.36 1.552 110.064 1.75467 110.64 2.16C111.216 2.56533 111.504 3.19467 111.504 4.048Z" fill="#00CF64"/>
</svg>
