<svg width="56" height="56" viewBox="0 0 56 56" fill="none" xmlns="http://www.w3.org/2000/svg">
<rect width="56" height="56" rx="28" fill="black"/>
<path d="M14.2127 15.2127L15.2659 11L16.3191 15.2127L20.5318 16.2659L16.3191 17.3191L15.2659 25.7445L14.2127 17.3191L10 16.2659L14.2127 15.2127Z" fill="#FFED4C"/>
<g filter="url(#filter0_d_635_17)">
<path d="M30.0103 38.1931V17.8457V17.8457C32.5288 17.8457 34.5705 19.8874 34.5705 22.406V25.218H41.5952V22.2901C41.5952 19.8355 43.5851 17.8457 46.0396 17.8457V17.8457V33.7487C46.0396 36.2033 44.0498 38.1931 41.5952 38.1931V38.1931V30.4839H34.5705V38.1931H30.0103Z" fill="white" fill-opacity="0.8" shape-rendering="crispEdges"/>
</g>
<g filter="url(#filter1_d_635_17)">
<path d="M12.6328 38.1931L12.6328 25.9552C12.6328 21.4764 16.2636 17.8457 20.7423 17.8457V17.8457C23.4279 17.8457 25.3782 18.5552 26.3241 19.4255C27.3773 20.3944 27.9039 21.6055 27.9039 23.3749C27.9039 24.4491 27.7775 25.3865 27.3563 26.1237C26.9561 26.8399 26.4189 27.398 25.7449 27.7983C26.3241 28.1142 26.9683 28.8171 27.3773 29.4307C27.7864 30.0442 28.1672 31.021 28.1672 32.3269C28.1672 34.2648 27.6196 35.6444 26.4821 36.6766C25.3447 37.6876 23.1857 38.1931 21.0583 38.1931H12.6328ZM16.6665 26.1237H21.3321C22.2168 26.1237 22.9013 26.1237 23.4279 25.7445C23.9545 25.3654 24.3863 24.6914 24.3863 23.8488C24.3863 23.0695 24.1862 22.4902 23.786 22.1111C23.3858 21.7109 22.6591 21.5108 21.6059 21.5108H20.6665C18.4573 21.5108 16.6665 23.3016 16.6665 25.5108V26.1237ZM16.6665 34.5597H21.5848C22.5116 34.5597 23.1962 34.3701 23.6385 33.9909C24.1019 33.6118 24.3336 32.9378 24.3336 31.9688C24.3336 31.1895 23.8702 30.5997 23.4279 30.2206C22.9856 29.8204 21.9429 29.6308 20.8687 29.6308H16.6665V34.5597Z" fill="white" fill-opacity="0.8" shape-rendering="crispEdges"/>
</g>
<path d="M37.2771 18.8236L37.909 16.2659L38.541 18.8236L41.0686 19.463L38.541 20.1025L37.909 25.2179L37.2771 20.1025L34.7495 19.463L37.2771 18.8236Z" fill="#FFED4C"/>
<path d="M26.3243 29.4305L27.3775 25.2178L28.4306 29.4305L32.6434 30.4837L28.4306 31.5368L27.3775 39.9623L26.3243 31.5368L22.1116 30.4837L26.3243 29.4305Z" fill="#FFED4C"/>
<defs>
<filter id="filter0_d_635_17" x="26.0103" y="17.8457" width="24.0293" height="28.3474" filterUnits="userSpaceOnUse" color-interpolation-filters="sRGB">
<feFlood flood-opacity="0" result="BackgroundImageFix"/>
<feColorMatrix in="SourceAlpha" type="matrix" values="0 0 0 0 0 0 0 0 0 0 0 0 0 0 0 0 0 0 127 0" result="hardAlpha"/>
<feOffset dy="4"/>
<feGaussianBlur stdDeviation="2"/>
<feComposite in2="hardAlpha" operator="out"/>
<feColorMatrix type="matrix" values="0 0 0 0 0 0 0 0 0 0 0 0 0 0 0 0 0 0 0.25 0"/>
<feBlend mode="normal" in2="BackgroundImageFix" result="effect1_dropShadow_635_17"/>
<feBlend mode="normal" in="SourceGraphic" in2="effect1_dropShadow_635_17" result="shape"/>
</filter>
<filter id="filter1_d_635_17" x="8.63281" y="17.8457" width="23.5344" height="28.3474" filterUnits="userSpaceOnUse" color-interpolation-filters="sRGB">
<feFlood flood-opacity="0" result="BackgroundImageFix"/>
<feColorMatrix in="SourceAlpha" type="matrix" values="0 0 0 0 0 0 0 0 0 0 0 0 0 0 0 0 0 0 127 0" result="hardAlpha"/>
<feOffset dy="4"/>
<feGaussianBlur stdDeviation="2"/>
<feComposite in2="hardAlpha" operator="out"/>
<feColorMatrix type="matrix" values="0 0 0 0 0 0 0 0 0 0 0 0 0 0 0 0 0 0 0.25 0"/>
<feBlend mode="normal" in2="BackgroundImageFix" result="effect1_dropShadow_635_17"/>
<feBlend mode="normal" in="SourceGraphic" in2="effect1_dropShadow_635_17" result="shape"/>
</filter>
</defs>
</svg>
