<svg width="80" height="80" viewBox="0 0 80 80" fill="none" xmlns="http://www.w3.org/2000/svg">
<circle cx="40" cy="40" r="40" fill="#D6E86A"/>
<path d="M40.3425 30.9333C35.133 30.9333 30.9287 35.1375 30.9287 40.347C30.9287 45.5565 35.133 49.7608 40.3425 49.7608C45.552 49.7608 49.7562 45.5565 49.7562 40.347C49.7562 35.1375 45.552 30.9333 40.3425 30.9333ZM40.3425 46.4653C36.9735 46.4653 34.2242 43.716 34.2242 40.347C34.2242 36.9781 36.9735 34.2288 40.3425 34.2288C43.7114 34.2288 46.4607 36.9781 46.4607 40.347C46.4607 43.716 43.7114 46.4653 40.3425 46.4653ZM50.1418 28.3538C48.9255 28.3538 47.9433 29.336 47.9433 30.5523C47.9433 31.7686 48.9255 32.7508 50.1418 32.7508C51.3581 32.7508 52.3403 31.7732 52.3403 30.5523C52.3357 29.3314 51.3581 28.3538 50.1418 28.3538Z" fill="black"/>
<path d="M58.6926 40.347C58.6926 37.8134 58.7155 35.3027 58.5732 32.7737C58.431 29.8362 57.7608 27.2292 55.6128 25.0812C53.4602 22.9285 50.8577 22.263 47.9202 22.1207C45.3866 21.9784 42.876 22.0014 40.347 22.0014C37.8134 22.0014 35.3027 21.9784 32.7737 22.1207C29.8362 22.263 27.2292 22.9331 25.0812 25.0812C22.9285 27.2338 22.263 29.8362 22.1207 32.7737C21.9784 35.3073 22.0014 37.818 22.0014 40.347C22.0014 42.876 21.9784 45.3912 22.1207 47.9202C22.263 50.8577 22.9331 53.4647 25.0812 55.6128C27.2338 57.7654 29.8362 58.431 32.7737 58.5732C35.3073 58.7155 37.818 58.6926 40.347 58.6926C42.8806 58.6926 45.3912 58.7155 47.9202 58.5732C50.8577 58.431 53.4647 57.7608 55.6128 55.6128C57.7654 53.4602 58.431 50.8577 58.5732 47.9202C58.7201 45.3912 58.6926 42.8806 58.6926 40.347ZM54.6535 51.1698C54.3185 52.0052 53.9145 52.6294 53.2674 53.272C52.6202 53.9191 52.0006 54.323 51.1652 54.6581C48.751 55.6174 43.0183 55.4017 40.3424 55.4017C37.6665 55.4017 31.9292 55.6174 29.5149 54.6627C28.6796 54.3276 28.0554 53.9237 27.4128 53.2766C26.7656 52.6294 26.3617 52.0098 26.0267 51.1744C25.072 48.7556 25.2877 43.0228 25.2877 40.347C25.2877 37.6711 25.072 31.9338 26.0267 29.5195C26.3617 28.6842 26.7656 28.06 27.4128 27.4174C28.06 26.7748 28.6796 26.3663 29.5149 26.0312C31.9292 25.0766 37.6665 25.2923 40.3424 25.2923C43.0183 25.2923 48.7556 25.0766 51.1698 26.0312C52.0052 26.3663 52.6294 26.7702 53.272 27.4174C53.9191 28.0645 54.323 28.6842 54.6581 29.5195C55.6128 31.9338 55.3971 37.6711 55.3971 40.347C55.3971 43.0228 55.6128 48.7556 54.6535 51.1698Z" fill="black"/>
</svg>
