<svg width="400" height="400" viewBox="0 0 400 400" fill="none" xmlns="http://www.w3.org/2000/svg">
<circle cx="200" cy="200" r="200" fill="#160763"/>
<path d="M107.863 54.6H117.623V55.208H115.863V76.392H117.623V77H107.863V76.392H109.623V55.208H107.863V54.6ZM118.822 61.768H126.534V64.712C126.875 63.7307 127.398 62.9413 128.102 62.344C128.806 61.7467 129.872 61.448 131.302 61.448C134.608 61.448 136.262 63.2293 136.262 66.792V76.424H138.054V77H128.998V76.424H130.31V66.024C130.31 64.744 130.224 63.9227 130.054 63.56C129.883 63.176 129.574 62.984 129.126 62.984C128.443 62.984 127.835 63.432 127.302 64.328C126.79 65.224 126.534 66.312 126.534 67.592V76.424H127.91V77H118.822V76.424H120.582V62.344H118.822V61.768ZM139.212 77.32V71.592H139.596C140.151 73.448 140.898 74.7493 141.836 75.496C142.775 76.2427 143.948 76.616 145.356 76.616C147.532 76.616 148.62 75.9227 148.62 74.536C148.62 73.9387 148.354 73.4907 147.82 73.192C146.988 72.7227 145.922 72.36 144.62 72.104C143.17 71.72 141.954 71.208 140.972 70.568C139.799 69.8 139.212 68.584 139.212 66.92C139.212 65.256 139.724 63.9333 140.748 62.952C141.772 61.9493 143.138 61.448 144.844 61.448C145.89 61.448 146.967 61.6933 148.076 62.184C148.482 62.3547 148.791 62.44 149.004 62.44C149.218 62.44 149.399 62.3653 149.548 62.216C149.698 62.0667 149.879 61.7893 150.092 61.384H150.444V66.28H150.06C148.972 63.5067 147.287 62.12 145.004 62.12C144.002 62.12 143.255 62.3013 142.764 62.664C142.274 63.0053 142.028 63.4427 142.028 63.976C142.028 64.296 142.103 64.552 142.252 64.744C142.402 64.9147 142.519 65.0427 142.604 65.128C142.69 65.2133 142.828 65.3093 143.02 65.416C143.212 65.5013 143.372 65.576 143.5 65.64C143.628 65.6827 143.82 65.7467 144.076 65.832C144.354 65.9173 144.556 65.9707 144.684 65.992C146.135 66.3547 147.18 66.6747 147.82 66.952C148.46 67.208 149.068 67.528 149.644 67.912C150.818 68.7227 151.404 70.0347 151.404 71.848C151.404 73.64 150.871 75.0053 149.804 75.944C148.738 76.8613 147.276 77.32 145.42 77.32C144.098 77.32 142.818 77.0107 141.58 76.392C141.324 76.2213 141.122 76.136 140.972 76.136C140.503 76.136 140.044 76.5307 139.596 77.32H139.212ZM153.639 72.424V62.344H151.879V61.768H153.639V57.64L159.591 56.168V61.768H163.751V62.344H159.591V73.128C159.591 74.1307 159.687 74.8667 159.879 75.336C160.092 75.8053 160.519 76.04 161.159 76.04C161.799 76.04 162.353 75.72 162.823 75.08C163.313 74.44 163.633 73.5653 163.783 72.456L164.327 72.52C164.156 73.992 163.687 75.1653 162.919 76.04C162.151 76.8933 160.881 77.32 159.111 77.32C157.34 77.32 155.985 76.968 155.047 76.264C154.108 75.56 153.639 74.28 153.639 72.424ZM172.312 69.48H173.241V67.016C173.241 64.9893 173.123 63.6347 172.889 62.952C172.675 62.248 172.249 61.896 171.609 61.896C171.225 61.896 170.873 62.0027 170.553 62.216C170.254 62.408 170.105 62.6853 170.105 63.048C170.105 63.3893 170.169 63.7413 170.297 64.104H171.097C171.267 64.552 171.353 65.096 171.353 65.736C171.353 66.3547 171.086 66.8987 170.553 67.368C170.019 67.816 169.347 68.04 168.536 68.04C166.702 68.04 165.785 67.1547 165.785 65.384C165.785 62.76 168.014 61.448 172.473 61.448C175.011 61.448 176.761 61.8853 177.721 62.76C178.702 63.6133 179.193 65.192 179.193 67.496V73.992C179.193 75.1013 179.502 75.656 180.121 75.656C180.846 75.656 181.273 74.5573 181.401 72.36L181.881 72.392C181.795 74.2693 181.443 75.56 180.825 76.264C180.206 76.968 179.193 77.32 177.785 77.32C175.225 77.32 173.753 76.5307 173.369 74.952C173.091 75.7627 172.675 76.36 172.121 76.744C171.566 77.128 170.755 77.32 169.689 77.32C166.531 77.32 164.953 76.0293 164.953 73.448C164.953 71.9333 165.55 70.8987 166.745 70.344C167.961 69.768 169.817 69.48 172.312 69.48ZM171.033 73.416C171.033 74.5253 171.086 75.24 171.193 75.56C171.321 75.88 171.545 76.04 171.865 76.04C172.206 76.04 172.515 75.7733 172.793 75.24C173.091 74.6853 173.241 73.928 173.241 72.968V69.992H173.017C171.694 69.992 171.033 70.9627 171.033 72.904V73.416ZM182.067 53H189.907V76.424H191.699V77H182.195V76.424H183.955V53.576H182.067V53ZM192.192 53H200.032V76.424H201.824V77H192.32V76.424H194.08V53.576H192.192V53ZM210.125 69.48H211.053V67.016C211.053 64.9893 210.936 63.6347 210.701 62.952C210.488 62.248 210.061 61.896 209.421 61.896C209.037 61.896 208.685 62.0027 208.365 62.216C208.066 62.408 207.917 62.6853 207.917 63.048C207.917 63.3893 207.981 63.7413 208.109 64.104H208.909C209.08 64.552 209.165 65.096 209.165 65.736C209.165 66.3547 208.898 66.8987 208.365 67.368C207.832 67.816 207.16 68.04 206.349 68.04C204.514 68.04 203.597 67.1547 203.597 65.384C203.597 62.76 205.826 61.448 210.285 61.448C212.824 61.448 214.573 61.8853 215.533 62.76C216.514 63.6133 217.005 65.192 217.005 67.496V73.992C217.005 75.1013 217.314 75.656 217.933 75.656C218.658 75.656 219.085 74.5573 219.213 72.36L219.693 72.392C219.608 74.2693 219.256 75.56 218.637 76.264C218.018 76.968 217.005 77.32 215.597 77.32C213.037 77.32 211.565 76.5307 211.181 74.952C210.904 75.7627 210.488 76.36 209.933 76.744C209.378 77.128 208.568 77.32 207.501 77.32C204.344 77.32 202.765 76.0293 202.765 73.448C202.765 71.9333 203.362 70.8987 204.557 70.344C205.773 69.768 207.629 69.48 210.125 69.48ZM208.845 73.416C208.845 74.5253 208.898 75.24 209.005 75.56C209.133 75.88 209.357 76.04 209.677 76.04C210.018 76.04 210.328 75.7733 210.605 75.24C210.904 74.6853 211.053 73.928 211.053 72.968V69.992H210.829C209.506 69.992 208.845 70.9627 208.845 72.904V73.416ZM221.139 72.424V62.344H219.379V61.768H221.139V57.64L227.091 56.168V61.768H231.251V62.344H227.091V73.128C227.091 74.1307 227.187 74.8667 227.379 75.336C227.592 75.8053 228.019 76.04 228.659 76.04C229.299 76.04 229.853 75.72 230.323 75.08C230.813 74.44 231.133 73.5653 231.283 72.456L231.827 72.52C231.656 73.992 231.187 75.1653 230.419 76.04C229.651 76.8933 228.381 77.32 226.611 77.32C224.84 77.32 223.485 76.968 222.547 76.264C221.608 75.56 221.139 74.28 221.139 72.424ZM236.837 59.56C235.706 59.56 234.895 59.272 234.405 58.696C233.935 58.12 233.701 57.4053 233.701 56.552C233.701 55.6987 233.957 54.9947 234.469 54.44C235.002 53.8853 235.802 53.608 236.869 53.608C237.935 53.608 238.746 53.864 239.301 54.376C239.855 54.8667 240.133 55.5813 240.133 56.52C240.133 57.4373 239.866 58.1733 239.333 58.728C238.799 59.2827 237.967 59.56 236.837 59.56ZM232.005 61.768H239.845V76.424H241.637V77H232.133V76.424H233.893V62.344H232.005V61.768ZM252.625 70.696V67.976C252.625 65.9067 252.507 64.4027 252.273 63.464C252.059 62.504 251.547 62.024 250.737 62.024C250.267 62.024 249.883 62.1627 249.585 62.44C249.307 62.696 249.105 63.1333 248.977 63.752C248.785 64.712 248.689 66.1733 248.689 68.136V70.632C248.689 72.9573 248.753 74.3547 248.881 74.824C249.03 75.2933 249.179 75.6773 249.329 75.976C249.563 76.488 250.022 76.744 250.705 76.744C251.537 76.744 252.081 76.264 252.337 75.304C252.529 74.6213 252.625 73.0853 252.625 70.696ZM250.641 77.32C247.974 77.32 245.958 76.6373 244.593 75.272C243.227 73.9067 242.545 71.9547 242.545 69.416C242.545 66.856 243.27 64.8933 244.721 63.528C246.193 62.1413 248.251 61.448 250.897 61.448C253.542 61.448 255.515 62.088 256.817 63.368C258.118 64.6267 258.769 66.5573 258.769 69.16C258.769 74.6 256.059 77.32 250.641 77.32ZM259.728 61.768H267.44V64.712C267.781 63.7307 268.304 62.9413 269.008 62.344C269.712 61.7467 270.778 61.448 272.208 61.448C275.514 61.448 277.168 63.2293 277.168 66.792V76.424H278.96V77H269.904V76.424H271.216V66.024C271.216 64.744 271.13 63.9227 270.96 63.56C270.789 63.176 270.48 62.984 270.032 62.984C269.349 62.984 268.741 63.432 268.208 64.328C267.696 65.224 267.44 66.312 267.44 67.592V76.424H268.816V77H259.728V76.424H261.488V62.344H259.728V61.768ZM280.118 77.32V71.592H280.503C281.057 73.448 281.804 74.7493 282.743 75.496C283.681 76.2427 284.855 76.616 286.263 76.616C288.439 76.616 289.527 75.9227 289.527 74.536C289.527 73.9387 289.26 73.4907 288.727 73.192C287.895 72.7227 286.828 72.36 285.527 72.104C284.076 71.72 282.86 71.208 281.879 70.568C280.705 69.8 280.118 68.584 280.118 66.92C280.118 65.256 280.63 63.9333 281.655 62.952C282.679 61.9493 284.044 61.448 285.751 61.448C286.796 61.448 287.873 61.6933 288.983 62.184C289.388 62.3547 289.697 62.44 289.911 62.44C290.124 62.44 290.305 62.3653 290.455 62.216C290.604 62.0667 290.785 61.7893 290.999 61.384H291.351V66.28H290.967C289.879 63.5067 288.193 62.12 285.911 62.12C284.908 62.12 284.161 62.3013 283.671 62.664C283.18 63.0053 282.935 63.4427 282.935 63.976C282.935 64.296 283.009 64.552 283.159 64.744C283.308 64.9147 283.425 65.0427 283.511 65.128C283.596 65.2133 283.735 65.3093 283.927 65.416C284.119 65.5013 284.279 65.576 284.407 65.64C284.535 65.6827 284.727 65.7467 284.983 65.832C285.26 65.9173 285.463 65.9707 285.591 65.992C287.041 66.3547 288.087 66.6747 288.727 66.952C289.367 67.208 289.975 67.528 290.551 67.912C291.724 68.7227 292.311 70.0347 292.311 71.848C292.311 73.64 291.777 75.0053 290.711 75.944C289.644 76.8613 288.183 77.32 286.327 77.32C285.004 77.32 283.724 77.0107 282.487 76.392C282.231 76.2213 282.028 76.136 281.879 76.136C281.409 76.136 280.951 76.5307 280.503 77.32H280.118Z" fill="white"/>
<path d="M108.767 100C108.576 100 108.416 99.935 108.286 99.805C108.156 99.675 108.091 99.5147 108.091 99.324V90.523C108.091 90.3237 108.156 90.1633 108.286 90.042C108.416 89.912 108.576 89.847 108.767 89.847H114.643C114.842 89.847 115.003 89.9077 115.124 90.029C115.245 90.1417 115.306 90.2933 115.306 90.484C115.306 90.666 115.245 90.8133 115.124 90.926C115.003 91.0387 114.842 91.095 114.643 91.095H109.443V94.254H113.174C113.373 94.254 113.534 94.3147 113.655 94.436C113.776 94.5487 113.837 94.696 113.837 94.878C113.837 95.06 113.776 95.2117 113.655 95.333C113.534 95.4457 113.373 95.502 113.174 95.502H109.443V99.324C109.443 99.5147 109.378 99.675 109.248 99.805C109.118 99.935 108.958 100 108.767 100ZM117.542 95.554C117.542 95.034 117.668 94.5703 117.919 94.163C118.179 93.747 118.526 93.4177 118.959 93.175C119.392 92.9323 119.869 92.811 120.389 92.811C120.909 92.811 121.295 92.8977 121.546 93.071C121.806 93.2357 121.906 93.435 121.845 93.669C121.819 93.7903 121.767 93.8857 121.689 93.955C121.62 94.0157 121.537 94.0547 121.442 94.072C121.347 94.0893 121.243 94.085 121.13 94.059C120.575 93.9463 120.077 93.9377 119.635 94.033C119.193 94.1283 118.842 94.306 118.582 94.566C118.331 94.826 118.205 95.1553 118.205 95.554H117.542ZM117.555 100C117.347 100 117.187 99.948 117.074 99.844C116.961 99.7313 116.905 99.5667 116.905 99.35V93.539C116.905 93.331 116.961 93.1707 117.074 93.058C117.187 92.9453 117.347 92.889 117.555 92.889C117.772 92.889 117.932 92.9453 118.036 93.058C118.149 93.162 118.205 93.3223 118.205 93.539V99.35C118.205 99.558 118.149 99.7183 118.036 99.831C117.932 99.9437 117.772 100 117.555 100ZM126.048 100.052C125.328 100.052 124.687 99.9003 124.124 99.597C123.569 99.285 123.131 98.8603 122.811 98.323C122.499 97.777 122.343 97.153 122.343 96.451C122.343 95.7403 122.49 95.1163 122.785 94.579C123.088 94.033 123.504 93.6083 124.033 93.305C124.561 92.993 125.168 92.837 125.853 92.837C126.529 92.837 127.109 92.9887 127.595 93.292C128.08 93.5867 128.448 93.9983 128.7 94.527C128.96 95.047 129.09 95.6493 129.09 96.334C129.09 96.4987 129.033 96.6373 128.921 96.75C128.808 96.854 128.665 96.906 128.492 96.906H123.253V95.866H128.453L127.92 96.23C127.911 95.7967 127.824 95.411 127.66 95.073C127.495 94.7263 127.261 94.4533 126.958 94.254C126.654 94.0547 126.286 93.955 125.853 93.955C125.359 93.955 124.934 94.0633 124.579 94.28C124.232 94.4967 123.968 94.7957 123.786 95.177C123.604 95.5497 123.513 95.9743 123.513 96.451C123.513 96.9277 123.621 97.3523 123.838 97.725C124.054 98.0977 124.353 98.3923 124.735 98.609C125.116 98.8257 125.554 98.934 126.048 98.934C126.316 98.934 126.589 98.8863 126.867 98.791C127.153 98.687 127.382 98.57 127.556 98.44C127.686 98.3447 127.824 98.297 127.972 98.297C128.128 98.2883 128.262 98.3317 128.375 98.427C128.522 98.557 128.6 98.7 128.609 98.856C128.617 99.012 128.548 99.1463 128.401 99.259C128.106 99.493 127.738 99.6837 127.296 99.831C126.862 99.9783 126.446 100.052 126.048 100.052ZM133.868 100.052C133.149 100.052 132.507 99.9003 131.944 99.597C131.389 99.285 130.952 98.8603 130.631 98.323C130.319 97.777 130.163 97.153 130.163 96.451C130.163 95.7403 130.31 95.1163 130.605 94.579C130.908 94.033 131.324 93.6083 131.853 93.305C132.382 92.993 132.988 92.837 133.673 92.837C134.349 92.837 134.93 92.9887 135.415 93.292C135.9 93.5867 136.269 93.9983 136.52 94.527C136.78 95.047 136.91 95.6493 136.91 96.334C136.91 96.4987 136.854 96.6373 136.741 96.75C136.628 96.854 136.485 96.906 136.312 96.906H131.073V95.866H136.273L135.74 96.23C135.731 95.7967 135.645 95.411 135.48 95.073C135.315 94.7263 135.081 94.4533 134.778 94.254C134.475 94.0547 134.106 93.955 133.673 93.955C133.179 93.955 132.754 94.0633 132.399 94.28C132.052 94.4967 131.788 94.7957 131.606 95.177C131.424 95.5497 131.333 95.9743 131.333 96.451C131.333 96.9277 131.441 97.3523 131.658 97.725C131.875 98.0977 132.174 98.3923 132.555 98.609C132.936 98.8257 133.374 98.934 133.868 98.934C134.137 98.934 134.41 98.8863 134.687 98.791C134.973 98.687 135.203 98.57 135.376 98.44C135.506 98.3447 135.645 98.297 135.792 98.297C135.948 98.2883 136.082 98.3317 136.195 98.427C136.342 98.557 136.42 98.7 136.429 98.856C136.438 99.012 136.368 99.1463 136.221 99.259C135.926 99.493 135.558 99.6837 135.116 99.831C134.683 99.9783 134.267 100.052 133.868 100.052ZM140.291 100C139.91 100 139.572 99.896 139.277 99.688C138.982 99.48 138.753 99.1983 138.588 98.843C138.423 98.479 138.341 98.063 138.341 97.595V90.497C138.341 90.3063 138.402 90.1503 138.523 90.029C138.644 89.9077 138.8 89.847 138.991 89.847C139.182 89.847 139.338 89.9077 139.459 90.029C139.58 90.1503 139.641 90.3063 139.641 90.497V97.595C139.641 97.9157 139.702 98.18 139.823 98.388C139.944 98.596 140.1 98.7 140.291 98.7H140.616C140.789 98.7 140.928 98.7607 141.032 98.882C141.145 99.0033 141.201 99.1593 141.201 99.35C141.201 99.5407 141.119 99.6967 140.954 99.818C140.789 99.9393 140.577 100 140.317 100H140.291ZM145.069 100.052C144.436 100.052 143.869 99.896 143.366 99.584C142.863 99.2633 142.465 98.8343 142.17 98.297C141.884 97.751 141.741 97.1357 141.741 96.451C141.741 95.7663 141.897 95.151 142.209 94.605C142.53 94.059 142.959 93.63 143.496 93.318C144.042 92.9973 144.653 92.837 145.329 92.837C146.005 92.837 146.612 92.9973 147.149 93.318C147.686 93.63 148.111 94.059 148.423 94.605C148.744 95.151 148.904 95.7663 148.904 96.451H148.397C148.397 97.1357 148.25 97.751 147.955 98.297C147.669 98.8343 147.275 99.2633 146.772 99.584C146.269 99.896 145.702 100.052 145.069 100.052ZM145.329 98.882C145.771 98.882 146.165 98.778 146.512 98.57C146.859 98.3533 147.132 98.063 147.331 97.699C147.53 97.3263 147.63 96.9103 147.63 96.451C147.63 95.983 147.53 95.567 147.331 95.203C147.132 94.8303 146.859 94.54 146.512 94.332C146.165 94.1153 145.771 94.007 145.329 94.007C144.896 94.007 144.501 94.1153 144.146 94.332C143.799 94.54 143.522 94.8303 143.314 95.203C143.115 95.567 143.015 95.983 143.015 96.451C143.015 96.9103 143.115 97.3263 143.314 97.699C143.522 98.063 143.799 98.3533 144.146 98.57C144.501 98.778 144.896 98.882 145.329 98.882ZM148.241 100.013C148.05 100.013 147.89 99.9523 147.76 99.831C147.639 99.701 147.578 99.5407 147.578 99.35V97.361L147.825 95.983L148.904 96.451V99.35C148.904 99.5407 148.839 99.701 148.709 99.831C148.588 99.9523 148.432 100.013 148.241 100.013ZM156.884 100.013C156.693 100.013 156.533 99.9523 156.403 99.831C156.281 99.701 156.221 99.5407 156.221 99.35V96.152C156.221 95.658 156.13 95.255 155.948 94.943C155.766 94.631 155.519 94.4013 155.207 94.254C154.903 94.098 154.552 94.02 154.154 94.02C153.79 94.02 153.46 94.0937 153.166 94.241C152.871 94.3883 152.637 94.5877 152.464 94.839C152.29 95.0817 152.204 95.3633 152.204 95.684H151.385C151.385 95.138 151.515 94.6527 151.775 94.228C152.043 93.7947 152.407 93.4523 152.867 93.201C153.326 92.9497 153.842 92.824 154.414 92.824C155.012 92.824 155.545 92.954 156.013 93.214C156.489 93.4653 156.862 93.838 157.131 94.332C157.408 94.826 157.547 95.4327 157.547 96.152V99.35C157.547 99.5407 157.482 99.701 157.352 99.831C157.23 99.9523 157.074 100.013 156.884 100.013ZM151.541 100.013C151.35 100.013 151.19 99.9523 151.06 99.831C150.938 99.701 150.878 99.5407 150.878 99.35V93.552C150.878 93.3527 150.938 93.1923 151.06 93.071C151.19 92.9497 151.35 92.889 151.541 92.889C151.74 92.889 151.9 92.9497 152.022 93.071C152.143 93.1923 152.204 93.3527 152.204 93.552V99.35C152.204 99.5407 152.143 99.701 152.022 99.831C151.9 99.9523 151.74 100.013 151.541 100.013ZM162.963 100.052C162.27 100.052 161.65 99.896 161.104 99.584C160.567 99.2633 160.142 98.8343 159.83 98.297C159.527 97.751 159.375 97.1357 159.375 96.451C159.375 95.749 159.527 95.125 159.83 94.579C160.133 94.033 160.549 93.6083 161.078 93.305C161.607 92.993 162.213 92.837 162.898 92.837C163.409 92.837 163.877 92.9367 164.302 93.136C164.727 93.3267 165.108 93.617 165.446 94.007C165.567 94.1457 165.611 94.2887 165.576 94.436C165.541 94.5833 165.446 94.7133 165.29 94.826C165.169 94.9127 165.034 94.943 164.887 94.917C164.74 94.8823 164.605 94.8043 164.484 94.683C164.059 94.2323 163.531 94.007 162.898 94.007C162.456 94.007 162.066 94.111 161.728 94.319C161.39 94.5183 161.126 94.8 160.935 95.164C160.744 95.528 160.649 95.957 160.649 96.451C160.649 96.919 160.744 97.335 160.935 97.699C161.134 98.063 161.407 98.3533 161.754 98.57C162.101 98.778 162.504 98.882 162.963 98.882C163.266 98.882 163.531 98.8473 163.756 98.778C163.99 98.7 164.202 98.583 164.393 98.427C164.532 98.3143 164.675 98.2537 164.822 98.245C164.969 98.2277 165.099 98.2667 165.212 98.362C165.359 98.4833 165.442 98.622 165.459 98.778C165.476 98.9253 165.424 99.0597 165.303 99.181C164.679 99.7617 163.899 100.052 162.963 100.052ZM170.887 100.052C170.168 100.052 169.527 99.9003 168.963 99.597C168.409 99.285 167.971 98.8603 167.65 98.323C167.338 97.777 167.182 97.153 167.182 96.451C167.182 95.7403 167.33 95.1163 167.624 94.579C167.928 94.033 168.344 93.6083 168.872 93.305C169.401 92.993 170.008 92.837 170.692 92.837C171.368 92.837 171.949 92.9887 172.434 93.292C172.92 93.5867 173.288 93.9983 173.539 94.527C173.799 95.047 173.929 95.6493 173.929 96.334C173.929 96.4987 173.873 96.6373 173.76 96.75C173.648 96.854 173.505 96.906 173.331 96.906H168.092V95.866H173.292L172.759 96.23C172.751 95.7967 172.664 95.411 172.499 95.073C172.335 94.7263 172.101 94.4533 171.797 94.254C171.494 94.0547 171.126 93.955 170.692 93.955C170.198 93.955 169.774 94.0633 169.418 94.28C169.072 94.4967 168.807 94.7957 168.625 95.177C168.443 95.5497 168.352 95.9743 168.352 96.451C168.352 96.9277 168.461 97.3523 168.677 97.725C168.894 98.0977 169.193 98.3923 169.574 98.609C169.956 98.8257 170.393 98.934 170.887 98.934C171.156 98.934 171.429 98.8863 171.706 98.791C171.992 98.687 172.222 98.57 172.395 98.44C172.525 98.3447 172.664 98.297 172.811 98.297C172.967 98.2883 173.102 98.3317 173.214 98.427C173.362 98.557 173.44 98.7 173.448 98.856C173.457 99.012 173.388 99.1463 173.24 99.259C172.946 99.493 172.577 99.6837 172.135 99.831C171.702 99.9783 171.286 100.052 170.887 100.052ZM181.6 100.182C181.054 100.182 180.573 100.082 180.157 99.883C179.741 99.675 179.416 99.3847 179.182 99.012C178.957 98.6307 178.844 98.1757 178.844 97.647C178.844 97.0577 179.044 96.5247 179.442 96.048C179.841 95.5713 180.365 95.073 181.015 94.553L182.094 93.695C182.554 93.331 182.848 93.0103 182.978 92.733C183.108 92.4557 183.178 92.1697 183.186 91.875C183.186 91.5457 183.074 91.2597 182.848 91.017C182.632 90.7743 182.315 90.653 181.899 90.653C181.518 90.653 181.21 90.7657 180.976 90.991C180.742 91.2163 180.625 91.4807 180.625 91.784C180.625 92.0093 180.673 92.2303 180.768 92.447C180.872 92.6637 181.037 92.8847 181.262 93.11L187.177 99.012C187.316 99.1507 187.394 99.2807 187.411 99.402C187.429 99.5233 187.368 99.6533 187.229 99.792C186.952 100.069 186.675 100.069 186.397 99.792L180.417 93.825C180.123 93.5217 179.897 93.2053 179.741 92.876C179.585 92.538 179.507 92.1827 179.507 91.81C179.507 91.394 179.611 91.0213 179.819 90.692C180.027 90.354 180.313 90.0897 180.677 89.899C181.041 89.7083 181.449 89.613 181.899 89.613C182.367 89.613 182.779 89.7127 183.134 89.912C183.498 90.1113 183.784 90.3843 183.992 90.731C184.2 91.0777 184.304 91.4677 184.304 91.901C184.304 92.239 184.244 92.5467 184.122 92.824C184.01 93.1013 183.832 93.3743 183.589 93.643C183.347 93.903 183.03 94.189 182.64 94.501L181.613 95.32C181.319 95.554 181.054 95.7923 180.82 96.035C180.586 96.2777 180.4 96.529 180.261 96.789C180.131 97.0403 180.066 97.309 180.066 97.595C180.066 98.0803 180.201 98.4487 180.469 98.7C180.738 98.9427 181.115 99.064 181.6 99.064C182.12 99.064 182.571 98.947 182.952 98.713C183.342 98.4703 183.737 98.141 184.135 97.725L186.033 95.723C186.163 95.5843 186.285 95.4977 186.397 95.463C186.51 95.4283 186.636 95.476 186.774 95.606C186.913 95.736 186.982 95.8703 186.982 96.009C186.991 96.1477 186.93 96.2907 186.8 96.438L184.902 98.44C184.452 98.9513 183.962 99.3717 183.433 99.701C182.905 100.022 182.294 100.182 181.6 100.182ZM197.427 100.13C196.725 100.13 196.066 100 195.451 99.74C194.844 99.4713 194.311 99.103 193.852 98.635C193.401 98.1583 193.046 97.6037 192.786 96.971C192.534 96.3383 192.409 95.6537 192.409 94.917C192.409 94.189 192.534 93.513 192.786 92.889C193.046 92.2563 193.401 91.706 193.852 91.238C194.311 90.7613 194.844 90.3887 195.451 90.12C196.057 89.8513 196.716 89.717 197.427 89.717C198.094 89.717 198.666 89.8037 199.143 89.977C199.628 90.1503 200.113 90.4363 200.599 90.835C200.668 90.887 200.72 90.9433 200.755 91.004C200.798 91.056 200.824 91.1123 200.833 91.173C200.85 91.225 200.859 91.29 200.859 91.368C200.859 91.5327 200.798 91.6713 200.677 91.784C200.564 91.888 200.425 91.9487 200.261 91.966C200.096 91.9747 199.936 91.9183 199.78 91.797C199.459 91.5197 199.125 91.3073 198.779 91.16C198.441 91.0127 197.99 90.939 197.427 90.939C196.915 90.939 196.434 91.043 195.984 91.251C195.533 91.459 195.134 91.745 194.788 92.109C194.45 92.473 194.185 92.8977 193.995 93.383C193.804 93.8597 193.709 94.371 193.709 94.917C193.709 95.4717 193.804 95.9917 193.995 96.477C194.185 96.9537 194.45 97.374 194.788 97.738C195.134 98.102 195.533 98.388 195.984 98.596C196.434 98.7953 196.915 98.895 197.427 98.895C197.869 98.895 198.285 98.8213 198.675 98.674C199.073 98.518 199.455 98.3057 199.819 98.037C199.975 97.9243 200.126 97.8767 200.274 97.894C200.43 97.9027 200.56 97.9633 200.664 98.076C200.768 98.18 200.82 98.3273 200.82 98.518C200.82 98.6047 200.802 98.6913 200.768 98.778C200.733 98.856 200.681 98.9297 200.612 98.999C200.144 99.3717 199.641 99.6533 199.104 99.844C198.575 100.035 198.016 100.13 197.427 100.13ZM205.556 100.052C204.854 100.052 204.234 99.9003 203.697 99.597C203.159 99.285 202.735 98.8603 202.423 98.323C202.119 97.777 201.968 97.153 201.968 96.451C201.968 95.7403 202.119 95.1163 202.423 94.579C202.735 94.033 203.159 93.6083 203.697 93.305C204.234 92.993 204.854 92.837 205.556 92.837C206.249 92.837 206.864 92.993 207.402 93.305C207.939 93.6083 208.359 94.033 208.663 94.579C208.975 95.1163 209.131 95.7403 209.131 96.451C209.131 97.153 208.979 97.777 208.676 98.323C208.372 98.8603 207.952 99.285 207.415 99.597C206.877 99.9003 206.258 100.052 205.556 100.052ZM205.556 98.882C206.006 98.882 206.405 98.778 206.752 98.57C207.098 98.362 207.367 98.076 207.558 97.712C207.757 97.348 207.857 96.9277 207.857 96.451C207.857 95.9743 207.757 95.554 207.558 95.19C207.367 94.8173 207.098 94.527 206.752 94.319C206.405 94.111 206.006 94.007 205.556 94.007C205.105 94.007 204.706 94.111 204.36 94.319C204.013 94.527 203.74 94.8173 203.541 95.19C203.341 95.554 203.242 95.9743 203.242 96.451C203.242 96.9277 203.341 97.348 203.541 97.712C203.74 98.076 204.013 98.362 204.36 98.57C204.706 98.778 205.105 98.882 205.556 98.882ZM220.438 100.013C220.247 100.013 220.087 99.9523 219.957 99.831C219.836 99.701 219.775 99.5407 219.775 99.35V95.632C219.775 95.086 219.641 94.683 219.372 94.423C219.103 94.1543 218.752 94.02 218.319 94.02C217.868 94.02 217.496 94.176 217.201 94.488C216.915 94.8 216.772 95.1987 216.772 95.684H215.693C215.693 95.1207 215.814 94.6267 216.057 94.202C216.3 93.7687 216.638 93.4307 217.071 93.188C217.513 92.9453 218.016 92.824 218.579 92.824C219.073 92.824 219.511 92.9323 219.892 93.149C220.273 93.3657 220.568 93.6863 220.776 94.111C220.993 94.527 221.101 95.034 221.101 95.632V99.35C221.101 99.5407 221.04 99.701 220.919 99.831C220.798 99.9523 220.637 100.013 220.438 100.013ZM211.767 100.013C211.576 100.013 211.416 99.9523 211.286 99.831C211.165 99.701 211.104 99.5407 211.104 99.35V93.565C211.104 93.3657 211.165 93.2053 211.286 93.084C211.416 92.9627 211.576 92.902 211.767 92.902C211.966 92.902 212.127 92.9627 212.248 93.084C212.369 93.2053 212.43 93.3657 212.43 93.565V99.35C212.43 99.5407 212.369 99.701 212.248 99.831C212.127 99.9523 211.966 100.013 211.767 100.013ZM216.109 100.013C215.918 100.013 215.758 99.9523 215.628 99.831C215.507 99.701 215.446 99.5407 215.446 99.35V95.632C215.446 95.086 215.312 94.683 215.043 94.423C214.774 94.1543 214.423 94.02 213.99 94.02C213.539 94.02 213.167 94.176 212.872 94.488C212.577 94.8 212.43 95.1987 212.43 95.684H211.611C211.611 95.1207 211.724 94.6267 211.949 94.202C212.174 93.7687 212.486 93.4307 212.885 93.188C213.284 92.9453 213.739 92.824 214.25 92.824C214.744 92.824 215.182 92.9323 215.563 93.149C215.944 93.3657 216.239 93.6863 216.447 94.111C216.664 94.527 216.772 95.034 216.772 95.632V99.35C216.772 99.5407 216.711 99.701 216.59 99.831C216.469 99.9523 216.308 100.013 216.109 100.013ZM223.967 103.042C223.777 103.042 223.616 102.977 223.486 102.847C223.365 102.726 223.304 102.57 223.304 102.379V96.451C223.313 95.7663 223.473 95.151 223.785 94.605C224.097 94.059 224.522 93.63 225.059 93.318C225.597 92.9973 226.203 92.837 226.879 92.837C227.564 92.837 228.175 92.9973 228.712 93.318C229.25 93.63 229.674 94.059 229.986 94.605C230.307 95.151 230.467 95.7663 230.467 96.451C230.467 97.1357 230.32 97.751 230.025 98.297C229.739 98.8343 229.345 99.2633 228.842 99.584C228.34 99.896 227.772 100.052 227.139 100.052C226.628 100.052 226.156 99.948 225.722 99.74C225.298 99.5233 224.934 99.233 224.63 98.869V102.379C224.63 102.57 224.57 102.726 224.448 102.847C224.327 102.977 224.167 103.042 223.967 103.042ZM226.879 98.882C227.321 98.882 227.716 98.778 228.062 98.57C228.409 98.3533 228.682 98.063 228.881 97.699C229.089 97.3263 229.193 96.9103 229.193 96.451C229.193 95.983 229.089 95.567 228.881 95.203C228.682 94.8303 228.409 94.54 228.062 94.332C227.716 94.1153 227.321 94.007 226.879 94.007C226.446 94.007 226.052 94.1153 225.696 94.332C225.35 94.54 225.077 94.8303 224.877 95.203C224.678 95.567 224.578 95.983 224.578 96.451C224.578 96.9103 224.678 97.3263 224.877 97.699C225.077 98.063 225.35 98.3533 225.696 98.57C226.052 98.778 226.446 98.882 226.879 98.882ZM235.786 100.052C235.067 100.052 234.425 99.9003 233.862 99.597C233.307 99.285 232.87 98.8603 232.549 98.323C232.237 97.777 232.081 97.153 232.081 96.451C232.081 95.7403 232.228 95.1163 232.523 94.579C232.826 94.033 233.242 93.6083 233.771 93.305C234.3 92.993 234.906 92.837 235.591 92.837C236.267 92.837 236.848 92.9887 237.333 93.292C237.818 93.5867 238.187 93.9983 238.438 94.527C238.698 95.047 238.828 95.6493 238.828 96.334C238.828 96.4987 238.772 96.6373 238.659 96.75C238.546 96.854 238.403 96.906 238.23 96.906H232.991V95.866H238.191L237.658 96.23C237.649 95.7967 237.563 95.411 237.398 95.073C237.233 94.7263 236.999 94.4533 236.696 94.254C236.393 94.0547 236.024 93.955 235.591 93.955C235.097 93.955 234.672 94.0633 234.317 94.28C233.97 94.4967 233.706 94.7957 233.524 95.177C233.342 95.5497 233.251 95.9743 233.251 96.451C233.251 96.9277 233.359 97.3523 233.576 97.725C233.793 98.0977 234.092 98.3923 234.473 98.609C234.854 98.8257 235.292 98.934 235.786 98.934C236.055 98.934 236.328 98.8863 236.605 98.791C236.891 98.687 237.121 98.57 237.294 98.44C237.424 98.3447 237.563 98.297 237.71 98.297C237.866 98.2883 238 98.3317 238.113 98.427C238.26 98.557 238.338 98.7 238.347 98.856C238.356 99.012 238.286 99.1463 238.139 99.259C237.844 99.493 237.476 99.6837 237.034 99.831C236.601 99.9783 236.185 100.052 235.786 100.052ZM243.106 100C242.673 100 242.283 99.8917 241.936 99.675C241.589 99.4497 241.316 99.1463 241.117 98.765C240.918 98.3837 240.818 97.9547 240.818 97.478V91.277C240.818 91.0863 240.879 90.9303 241 90.809C241.121 90.6877 241.277 90.627 241.468 90.627C241.659 90.627 241.815 90.6877 241.936 90.809C242.057 90.9303 242.118 91.0863 242.118 91.277V97.478C242.118 97.8247 242.213 98.115 242.404 98.349C242.595 98.583 242.829 98.7 243.106 98.7H243.548C243.704 98.7 243.834 98.7607 243.938 98.882C244.051 99.0033 244.107 99.1593 244.107 99.35C244.107 99.5407 244.033 99.6967 243.886 99.818C243.747 99.9393 243.565 100 243.34 100H243.106ZM240.22 94.267C240.038 94.267 239.891 94.215 239.778 94.111C239.665 94.007 239.609 93.877 239.609 93.721C239.609 93.5477 239.665 93.409 239.778 93.305C239.891 93.201 240.038 93.149 240.22 93.149H243.223C243.405 93.149 243.552 93.201 243.665 93.305C243.778 93.409 243.834 93.5477 243.834 93.721C243.834 93.877 243.778 94.007 243.665 94.111C243.552 94.215 243.405 94.267 243.223 94.267H240.22ZM246.53 100C246.339 100 246.179 99.9393 246.049 99.818C245.928 99.688 245.867 99.5277 245.867 99.337V93.552C245.867 93.3527 245.928 93.1923 246.049 93.071C246.179 92.9497 246.339 92.889 246.53 92.889C246.729 92.889 246.89 92.9497 247.011 93.071C247.132 93.1923 247.193 93.3527 247.193 93.552V99.337C247.193 99.5277 247.132 99.688 247.011 99.818C246.89 99.9393 246.729 100 246.53 100ZM246.53 91.732C246.296 91.732 246.092 91.6497 245.919 91.485C245.754 91.3117 245.672 91.108 245.672 90.874C245.672 90.64 245.754 90.4407 245.919 90.276C246.092 90.1027 246.296 90.016 246.53 90.016C246.764 90.016 246.963 90.1027 247.128 90.276C247.301 90.4407 247.388 90.64 247.388 90.874C247.388 91.108 247.301 91.3117 247.128 91.485C246.963 91.6497 246.764 91.732 246.53 91.732ZM252.247 100C251.813 100 251.423 99.8917 251.077 99.675C250.73 99.4497 250.457 99.1463 250.258 98.765C250.058 98.3837 249.959 97.9547 249.959 97.478V91.277C249.959 91.0863 250.019 90.9303 250.141 90.809C250.262 90.6877 250.418 90.627 250.609 90.627C250.799 90.627 250.955 90.6877 251.077 90.809C251.198 90.9303 251.259 91.0863 251.259 91.277V97.478C251.259 97.8247 251.354 98.115 251.545 98.349C251.735 98.583 251.969 98.7 252.247 98.7H252.689C252.845 98.7 252.975 98.7607 253.079 98.882C253.191 99.0033 253.248 99.1593 253.248 99.35C253.248 99.5407 253.174 99.6967 253.027 99.818C252.888 99.9393 252.706 100 252.481 100H252.247ZM249.361 94.267C249.179 94.267 249.031 94.215 248.919 94.111C248.806 94.007 248.75 93.877 248.75 93.721C248.75 93.5477 248.806 93.409 248.919 93.305C249.031 93.201 249.179 93.149 249.361 93.149H252.364C252.546 93.149 252.693 93.201 252.806 93.305C252.918 93.409 252.975 93.5477 252.975 93.721C252.975 93.877 252.918 94.007 252.806 94.111C252.693 94.215 252.546 94.267 252.364 94.267H249.361ZM255.671 100C255.48 100 255.32 99.9393 255.19 99.818C255.068 99.688 255.008 99.5277 255.008 99.337V93.552C255.008 93.3527 255.068 93.1923 255.19 93.071C255.32 92.9497 255.48 92.889 255.671 92.889C255.87 92.889 256.03 92.9497 256.152 93.071C256.273 93.1923 256.334 93.3527 256.334 93.552V99.337C256.334 99.5277 256.273 99.688 256.152 99.818C256.03 99.9393 255.87 100 255.671 100ZM255.671 91.732C255.437 91.732 255.233 91.6497 255.06 91.485C254.895 91.3117 254.813 91.108 254.813 90.874C254.813 90.64 254.895 90.4407 255.06 90.276C255.233 90.1027 255.437 90.016 255.671 90.016C255.905 90.016 256.104 90.1027 256.269 90.276C256.442 90.4407 256.529 90.64 256.529 90.874C256.529 91.108 256.442 91.3117 256.269 91.485C256.104 91.6497 255.905 91.732 255.671 91.732ZM262.024 100.052C261.322 100.052 260.703 99.9003 260.165 99.597C259.628 99.285 259.203 98.8603 258.891 98.323C258.588 97.777 258.436 97.153 258.436 96.451C258.436 95.7403 258.588 95.1163 258.891 94.579C259.203 94.033 259.628 93.6083 260.165 93.305C260.703 92.993 261.322 92.837 262.024 92.837C262.718 92.837 263.333 92.993 263.87 93.305C264.408 93.6083 264.828 94.033 265.131 94.579C265.443 95.1163 265.599 95.7403 265.599 96.451C265.599 97.153 265.448 97.777 265.144 98.323C264.841 98.8603 264.421 99.285 263.883 99.597C263.346 99.9003 262.726 100.052 262.024 100.052ZM262.024 98.882C262.475 98.882 262.874 98.778 263.22 98.57C263.567 98.362 263.836 98.076 264.026 97.712C264.226 97.348 264.325 96.9277 264.325 96.451C264.325 95.9743 264.226 95.554 264.026 95.19C263.836 94.8173 263.567 94.527 263.22 94.319C262.874 94.111 262.475 94.007 262.024 94.007C261.574 94.007 261.175 94.111 260.828 94.319C260.482 94.527 260.209 94.8173 260.009 95.19C259.81 95.554 259.71 95.9743 259.71 96.451C259.71 96.9277 259.81 97.348 260.009 97.712C260.209 98.076 260.482 98.362 260.828 98.57C261.175 98.778 261.574 98.882 262.024 98.882ZM273.579 100.013C273.388 100.013 273.228 99.9523 273.098 99.831C272.976 99.701 272.916 99.5407 272.916 99.35V96.152C272.916 95.658 272.825 95.255 272.643 94.943C272.461 94.631 272.214 94.4013 271.902 94.254C271.598 94.098 271.247 94.02 270.849 94.02C270.485 94.02 270.155 94.0937 269.861 94.241C269.566 94.3883 269.332 94.5877 269.159 94.839C268.985 95.0817 268.899 95.3633 268.899 95.684H268.08C268.08 95.138 268.21 94.6527 268.47 94.228C268.738 93.7947 269.102 93.4523 269.562 93.201C270.021 92.9497 270.537 92.824 271.109 92.824C271.707 92.824 272.24 92.954 272.708 93.214C273.184 93.4653 273.557 93.838 273.826 94.332C274.103 94.826 274.242 95.4327 274.242 96.152V99.35C274.242 99.5407 274.177 99.701 274.047 99.831C273.925 99.9523 273.769 100.013 273.579 100.013ZM268.236 100.013C268.045 100.013 267.885 99.9523 267.755 99.831C267.633 99.701 267.573 99.5407 267.573 99.35V93.552C267.573 93.3527 267.633 93.1923 267.755 93.071C267.885 92.9497 268.045 92.889 268.236 92.889C268.435 92.889 268.595 92.9497 268.717 93.071C268.838 93.1923 268.899 93.3527 268.899 93.552V99.35C268.899 99.5407 268.838 99.701 268.717 99.831C268.595 99.9523 268.435 100.013 268.236 100.013ZM282.414 100.182C281.868 100.182 281.387 100.082 280.971 99.883C280.555 99.675 280.23 99.3847 279.996 99.012C279.77 98.6307 279.658 98.1757 279.658 97.647C279.658 97.0577 279.857 96.5247 280.256 96.048C280.654 95.5713 281.179 95.073 281.829 94.553L282.908 93.695C283.367 93.331 283.662 93.0103 283.792 92.733C283.922 92.4557 283.991 92.1697 284 91.875C284 91.5457 283.887 91.2597 283.662 91.017C283.445 90.7743 283.129 90.653 282.713 90.653C282.331 90.653 282.024 90.7657 281.79 90.991C281.556 91.2163 281.439 91.4807 281.439 91.784C281.439 92.0093 281.486 92.2303 281.582 92.447C281.686 92.6637 281.85 92.8847 282.076 93.11L287.991 99.012C288.129 99.1507 288.207 99.2807 288.225 99.402C288.242 99.5233 288.181 99.6533 288.043 99.792C287.765 100.069 287.488 100.069 287.211 99.792L281.231 93.825C280.936 93.5217 280.711 93.2053 280.555 92.876C280.399 92.538 280.321 92.1827 280.321 91.81C280.321 91.394 280.425 91.0213 280.633 90.692C280.841 90.354 281.127 90.0897 281.491 89.899C281.855 89.7083 282.262 89.613 282.713 89.613C283.181 89.613 283.592 89.7127 283.948 89.912C284.312 90.1113 284.598 90.3843 284.806 90.731C285.014 91.0777 285.118 91.4677 285.118 91.901C285.118 92.239 285.057 92.5467 284.936 92.824C284.823 93.1013 284.645 93.3743 284.403 93.643C284.16 93.903 283.844 94.189 283.454 94.501L282.427 95.32C282.132 95.554 281.868 95.7923 281.634 96.035C281.4 96.2777 281.213 96.529 281.075 96.789C280.945 97.0403 280.88 97.309 280.88 97.595C280.88 98.0803 281.014 98.4487 281.283 98.7C281.551 98.9427 281.928 99.064 282.414 99.064C282.934 99.064 283.384 98.947 283.766 98.713C284.156 98.4703 284.55 98.141 284.949 97.725L286.847 95.723C286.977 95.5843 287.098 95.4977 287.211 95.463C287.323 95.4283 287.449 95.476 287.588 95.606C287.726 95.736 287.796 95.8703 287.796 96.009C287.804 96.1477 287.744 96.2907 287.614 96.438L285.716 98.44C285.265 98.9513 284.775 99.3717 284.247 99.701C283.718 100.022 283.107 100.182 282.414 100.182ZM146.307 114C146.064 114 145.878 113.896 145.748 113.688C145.618 113.48 145.605 113.259 145.709 113.025L149.362 104.302C149.492 103.999 149.704 103.847 149.999 103.847C150.311 103.847 150.523 103.999 150.636 104.302L154.302 113.051C154.397 113.294 154.38 113.515 154.25 113.714C154.129 113.905 153.942 114 153.691 114C153.561 114 153.435 113.965 153.314 113.896C153.201 113.818 153.119 113.714 153.067 113.584L149.843 105.576H150.207L146.931 113.584C146.87 113.723 146.779 113.827 146.658 113.896C146.545 113.965 146.428 114 146.307 114ZM146.996 111.764L147.516 110.646H152.612L153.132 111.764H146.996ZM158.691 114.052C157.998 114.052 157.378 113.896 156.832 113.584C156.295 113.263 155.87 112.834 155.558 112.297C155.255 111.751 155.103 111.136 155.103 110.451C155.103 109.749 155.255 109.125 155.558 108.579C155.861 108.033 156.277 107.608 156.806 107.305C157.335 106.993 157.941 106.837 158.626 106.837C159.137 106.837 159.605 106.937 160.03 107.136C160.455 107.327 160.836 107.617 161.174 108.007C161.295 108.146 161.339 108.289 161.304 108.436C161.269 108.583 161.174 108.713 161.018 108.826C160.897 108.913 160.762 108.943 160.615 108.917C160.468 108.882 160.333 108.804 160.212 108.683C159.787 108.232 159.259 108.007 158.626 108.007C158.184 108.007 157.794 108.111 157.456 108.319C157.118 108.518 156.854 108.8 156.663 109.164C156.472 109.528 156.377 109.957 156.377 110.451C156.377 110.919 156.472 111.335 156.663 111.699C156.862 112.063 157.135 112.353 157.482 112.57C157.829 112.778 158.232 112.882 158.691 112.882C158.994 112.882 159.259 112.847 159.484 112.778C159.718 112.7 159.93 112.583 160.121 112.427C160.26 112.314 160.403 112.254 160.55 112.245C160.697 112.228 160.827 112.267 160.94 112.362C161.087 112.483 161.17 112.622 161.187 112.778C161.204 112.925 161.152 113.06 161.031 113.181C160.407 113.762 159.627 114.052 158.691 114.052ZM166.238 114.052C165.606 114.052 165.038 113.896 164.535 113.584C164.033 113.263 163.634 112.834 163.339 112.297C163.053 111.751 162.91 111.136 162.91 110.451C162.91 109.766 163.066 109.151 163.378 108.605C163.699 108.059 164.128 107.63 164.665 107.318C165.211 106.997 165.822 106.837 166.498 106.837C167.174 106.837 167.781 106.997 168.318 107.318C168.856 107.63 169.28 108.059 169.592 108.605C169.913 109.151 170.073 109.766 170.073 110.451H169.566C169.566 111.136 169.419 111.751 169.124 112.297C168.838 112.834 168.444 113.263 167.941 113.584C167.439 113.896 166.871 114.052 166.238 114.052ZM166.498 112.882C166.94 112.882 167.335 112.778 167.681 112.57C168.028 112.353 168.301 112.063 168.5 111.699C168.7 111.326 168.799 110.91 168.799 110.451C168.799 109.983 168.7 109.567 168.5 109.203C168.301 108.83 168.028 108.54 167.681 108.332C167.335 108.115 166.94 108.007 166.498 108.007C166.065 108.007 165.671 108.115 165.315 108.332C164.969 108.54 164.691 108.83 164.483 109.203C164.284 109.567 164.184 109.983 164.184 110.451C164.184 110.91 164.284 111.326 164.483 111.699C164.691 112.063 164.969 112.353 165.315 112.57C165.671 112.778 166.065 112.882 166.498 112.882ZM169.41 114.013C169.22 114.013 169.059 113.952 168.929 113.831C168.808 113.701 168.747 113.541 168.747 113.35V111.361L168.994 109.983L170.073 110.451V113.35C170.073 113.541 170.008 113.701 169.878 113.831C169.757 113.952 169.601 114.013 169.41 114.013ZM175.271 114.052C174.595 114.052 173.984 113.896 173.438 113.584C172.901 113.263 172.472 112.83 172.151 112.284C171.839 111.738 171.683 111.123 171.683 110.438C171.683 109.753 171.826 109.142 172.112 108.605C172.407 108.059 172.805 107.63 173.308 107.318C173.811 106.997 174.378 106.837 175.011 106.837C175.522 106.837 175.995 106.945 176.428 107.162C176.861 107.37 177.225 107.656 177.52 108.02V104.51C177.52 104.311 177.581 104.15 177.702 104.029C177.832 103.908 177.992 103.847 178.183 103.847C178.382 103.847 178.543 103.908 178.664 104.029C178.785 104.15 178.846 104.311 178.846 104.51V110.438C178.846 111.123 178.686 111.738 178.365 112.284C178.053 112.83 177.628 113.263 177.091 113.584C176.554 113.896 175.947 114.052 175.271 114.052ZM175.271 112.882C175.713 112.882 176.107 112.778 176.454 112.57C176.801 112.353 177.074 112.059 177.273 111.686C177.472 111.313 177.572 110.897 177.572 110.438C177.572 109.97 177.472 109.554 177.273 109.19C177.074 108.826 176.801 108.54 176.454 108.332C176.107 108.115 175.713 108.007 175.271 108.007C174.838 108.007 174.443 108.115 174.088 108.332C173.741 108.54 173.464 108.826 173.256 109.19C173.057 109.554 172.957 109.97 172.957 110.438C172.957 110.897 173.057 111.313 173.256 111.686C173.464 112.059 173.741 112.353 174.088 112.57C174.443 112.778 174.838 112.882 175.271 112.882ZM184.529 114.052C183.809 114.052 183.168 113.9 182.605 113.597C182.05 113.285 181.612 112.86 181.292 112.323C180.98 111.777 180.824 111.153 180.824 110.451C180.824 109.74 180.971 109.116 181.266 108.579C181.569 108.033 181.985 107.608 182.514 107.305C183.042 106.993 183.649 106.837 184.334 106.837C185.01 106.837 185.59 106.989 186.076 107.292C186.561 107.587 186.929 107.998 187.181 108.527C187.441 109.047 187.571 109.649 187.571 110.334C187.571 110.499 187.514 110.637 187.402 110.75C187.289 110.854 187.146 110.906 186.973 110.906H181.734V109.866H186.934L186.401 110.23C186.392 109.797 186.305 109.411 186.141 109.073C185.976 108.726 185.742 108.453 185.439 108.254C185.135 108.055 184.767 107.955 184.334 107.955C183.84 107.955 183.415 108.063 183.06 108.28C182.713 108.497 182.449 108.796 182.267 109.177C182.085 109.55 181.994 109.974 181.994 110.451C181.994 110.928 182.102 111.352 182.319 111.725C182.535 112.098 182.834 112.392 183.216 112.609C183.597 112.826 184.035 112.934 184.529 112.934C184.797 112.934 185.07 112.886 185.348 112.791C185.634 112.687 185.863 112.57 186.037 112.44C186.167 112.345 186.305 112.297 186.453 112.297C186.609 112.288 186.743 112.332 186.856 112.427C187.003 112.557 187.081 112.7 187.09 112.856C187.098 113.012 187.029 113.146 186.882 113.259C186.587 113.493 186.219 113.684 185.777 113.831C185.343 113.978 184.927 114.052 184.529 114.052ZM198.596 114.013C198.405 114.013 198.245 113.952 198.115 113.831C197.993 113.701 197.933 113.541 197.933 113.35V109.632C197.933 109.086 197.798 108.683 197.53 108.423C197.261 108.154 196.91 108.02 196.477 108.02C196.026 108.02 195.653 108.176 195.359 108.488C195.073 108.8 194.93 109.199 194.93 109.684H193.851C193.851 109.121 193.972 108.627 194.215 108.202C194.457 107.769 194.795 107.431 195.229 107.188C195.671 106.945 196.173 106.824 196.737 106.824C197.231 106.824 197.668 106.932 198.05 107.149C198.431 107.366 198.726 107.686 198.934 108.111C199.15 108.527 199.259 109.034 199.259 109.632V113.35C199.259 113.541 199.198 113.701 199.077 113.831C198.955 113.952 198.795 114.013 198.596 114.013ZM189.925 114.013C189.734 114.013 189.574 113.952 189.444 113.831C189.322 113.701 189.262 113.541 189.262 113.35V107.565C189.262 107.366 189.322 107.205 189.444 107.084C189.574 106.963 189.734 106.902 189.925 106.902C190.124 106.902 190.284 106.963 190.406 107.084C190.527 107.205 190.588 107.366 190.588 107.565V113.35C190.588 113.541 190.527 113.701 190.406 113.831C190.284 113.952 190.124 114.013 189.925 114.013ZM194.267 114.013C194.076 114.013 193.916 113.952 193.786 113.831C193.664 113.701 193.604 113.541 193.604 113.35V109.632C193.604 109.086 193.469 108.683 193.201 108.423C192.932 108.154 192.581 108.02 192.148 108.02C191.697 108.02 191.324 108.176 191.03 108.488C190.735 108.8 190.588 109.199 190.588 109.684H189.769C189.769 109.121 189.881 108.627 190.107 108.202C190.332 107.769 190.644 107.431 191.043 107.188C191.441 106.945 191.896 106.824 192.408 106.824C192.902 106.824 193.339 106.932 193.721 107.149C194.102 107.366 194.397 107.686 194.605 108.111C194.821 108.527 194.93 109.034 194.93 109.632V113.35C194.93 113.541 194.869 113.701 194.748 113.831C194.626 113.952 194.466 114.013 194.267 114.013ZM202.255 114C202.064 114 201.904 113.939 201.774 113.818C201.653 113.688 201.592 113.528 201.592 113.337V107.552C201.592 107.353 201.653 107.192 201.774 107.071C201.904 106.95 202.064 106.889 202.255 106.889C202.454 106.889 202.615 106.95 202.736 107.071C202.857 107.192 202.918 107.353 202.918 107.552V113.337C202.918 113.528 202.857 113.688 202.736 113.818C202.615 113.939 202.454 114 202.255 114ZM202.255 105.732C202.021 105.732 201.817 105.65 201.644 105.485C201.479 105.312 201.397 105.108 201.397 104.874C201.397 104.64 201.479 104.441 201.644 104.276C201.817 104.103 202.021 104.016 202.255 104.016C202.489 104.016 202.688 104.103 202.853 104.276C203.026 104.441 203.113 104.64 203.113 104.874C203.113 105.108 203.026 105.312 202.853 105.485C202.688 105.65 202.489 105.732 202.255 105.732ZM208.609 114.052C207.916 114.052 207.296 113.896 206.75 113.584C206.213 113.263 205.788 112.834 205.476 112.297C205.173 111.751 205.021 111.136 205.021 110.451C205.021 109.749 205.173 109.125 205.476 108.579C205.779 108.033 206.195 107.608 206.724 107.305C207.253 106.993 207.859 106.837 208.544 106.837C209.055 106.837 209.523 106.937 209.948 107.136C210.373 107.327 210.754 107.617 211.092 108.007C211.213 108.146 211.257 108.289 211.222 108.436C211.187 108.583 211.092 108.713 210.936 108.826C210.815 108.913 210.68 108.943 210.533 108.917C210.386 108.882 210.251 108.804 210.13 108.683C209.705 108.232 209.177 108.007 208.544 108.007C208.102 108.007 207.712 108.111 207.374 108.319C207.036 108.518 206.772 108.8 206.581 109.164C206.39 109.528 206.295 109.957 206.295 110.451C206.295 110.919 206.39 111.335 206.581 111.699C206.78 112.063 207.053 112.353 207.4 112.57C207.747 112.778 208.15 112.882 208.609 112.882C208.912 112.882 209.177 112.847 209.402 112.778C209.636 112.7 209.848 112.583 210.039 112.427C210.178 112.314 210.321 112.254 210.468 112.245C210.615 112.228 210.745 112.267 210.858 112.362C211.005 112.483 211.088 112.622 211.105 112.778C211.122 112.925 211.07 113.06 210.949 113.181C210.325 113.762 209.545 114.052 208.609 114.052ZM218.639 114C218.5 114 218.37 113.961 218.249 113.883C218.136 113.796 218.058 113.692 218.015 113.571L216.091 107.799C216.022 107.53 216.022 107.314 216.091 107.149C216.169 106.976 216.334 106.889 216.585 106.889C216.75 106.889 216.884 106.937 216.988 107.032C217.101 107.119 217.192 107.27 217.261 107.487L218.899 112.609H218.444L219.991 107.383C220.034 107.236 220.108 107.119 220.212 107.032C220.316 106.937 220.459 106.889 220.641 106.889C220.814 106.889 220.953 106.937 221.057 107.032C221.17 107.119 221.243 107.236 221.278 107.383L222.539 112.297H222.344L223.878 107.487C223.999 107.088 224.225 106.889 224.554 106.889C224.797 106.889 224.961 106.976 225.048 107.149C225.135 107.314 225.13 107.53 225.035 107.799L223.111 113.571C223.076 113.692 223.003 113.796 222.89 113.883C222.777 113.961 222.647 114 222.5 114C222.361 114 222.231 113.961 222.11 113.883C221.989 113.796 221.911 113.692 221.876 113.571L220.537 108.618H220.667L219.263 113.571C219.228 113.692 219.15 113.796 219.029 113.883C218.916 113.961 218.786 114 218.639 114ZM229.429 114.052C228.727 114.052 228.107 113.9 227.57 113.597C227.033 113.285 226.608 112.86 226.296 112.323C225.993 111.777 225.841 111.153 225.841 110.451C225.841 109.74 225.993 109.116 226.296 108.579C226.608 108.033 227.033 107.608 227.57 107.305C228.107 106.993 228.727 106.837 229.429 106.837C230.122 106.837 230.738 106.993 231.275 107.305C231.812 107.608 232.233 108.033 232.536 108.579C232.848 109.116 233.004 109.74 233.004 110.451C233.004 111.153 232.852 111.777 232.549 112.323C232.246 112.86 231.825 113.285 231.288 113.597C230.751 113.9 230.131 114.052 229.429 114.052ZM229.429 112.882C229.88 112.882 230.278 112.778 230.625 112.57C230.972 112.362 231.24 112.076 231.431 111.712C231.63 111.348 231.73 110.928 231.73 110.451C231.73 109.974 231.63 109.554 231.431 109.19C231.24 108.817 230.972 108.527 230.625 108.319C230.278 108.111 229.88 108.007 229.429 108.007C228.978 108.007 228.58 108.111 228.233 108.319C227.886 108.527 227.613 108.817 227.414 109.19C227.215 109.554 227.115 109.974 227.115 110.451C227.115 110.928 227.215 111.348 227.414 111.712C227.613 112.076 227.886 112.362 228.233 112.57C228.58 112.778 228.978 112.882 229.429 112.882ZM235.615 109.554C235.615 109.034 235.74 108.57 235.992 108.163C236.252 107.747 236.598 107.418 237.032 107.175C237.465 106.932 237.942 106.811 238.462 106.811C238.982 106.811 239.367 106.898 239.619 107.071C239.879 107.236 239.978 107.435 239.918 107.669C239.892 107.79 239.84 107.886 239.762 107.955C239.692 108.016 239.61 108.055 239.515 108.072C239.419 108.089 239.315 108.085 239.203 108.059C238.648 107.946 238.15 107.938 237.708 108.033C237.266 108.128 236.915 108.306 236.655 108.566C236.403 108.826 236.278 109.155 236.278 109.554H235.615ZM235.628 114C235.42 114 235.259 113.948 235.147 113.844C235.034 113.731 234.978 113.567 234.978 113.35V107.539C234.978 107.331 235.034 107.171 235.147 107.058C235.259 106.945 235.42 106.889 235.628 106.889C235.844 106.889 236.005 106.945 236.109 107.058C236.221 107.162 236.278 107.322 236.278 107.539V113.35C236.278 113.558 236.221 113.718 236.109 113.831C236.005 113.944 235.844 114 235.628 114ZM242.548 111.4L241.742 110.516L245.733 106.954C245.863 106.833 246.006 106.776 246.162 106.785C246.327 106.794 246.465 106.863 246.578 106.993C246.699 107.123 246.756 107.266 246.747 107.422C246.738 107.578 246.669 107.717 246.539 107.838L242.548 111.4ZM241.937 114C241.746 114 241.59 113.944 241.469 113.831C241.356 113.71 241.3 113.554 241.3 113.363V104.484C241.3 104.293 241.356 104.142 241.469 104.029C241.59 103.908 241.746 103.847 241.937 103.847C242.128 103.847 242.279 103.908 242.392 104.029C242.513 104.142 242.574 104.293 242.574 104.484V113.363C242.574 113.554 242.513 113.71 242.392 113.831C242.279 113.944 242.128 114 241.937 114ZM246.578 113.935C246.439 114.048 246.283 114.095 246.11 114.078C245.945 114.069 245.807 113.996 245.694 113.857L243.055 110.594L243.965 109.736L246.669 113.064C246.782 113.203 246.829 113.354 246.812 113.519C246.803 113.675 246.725 113.814 246.578 113.935ZM251.288 114.052C250.682 114.052 250.118 113.961 249.598 113.779C249.087 113.588 248.688 113.35 248.402 113.064C248.272 112.925 248.216 112.769 248.233 112.596C248.259 112.414 248.346 112.267 248.493 112.154C248.667 112.015 248.836 111.959 249 111.985C249.174 112.002 249.321 112.076 249.442 112.206C249.59 112.371 249.824 112.527 250.144 112.674C250.474 112.813 250.838 112.882 251.236 112.882C251.739 112.882 252.12 112.8 252.38 112.635C252.649 112.47 252.788 112.258 252.796 111.998C252.805 111.738 252.679 111.513 252.419 111.322C252.168 111.131 251.704 110.975 251.028 110.854C250.153 110.681 249.516 110.421 249.117 110.074C248.727 109.727 248.532 109.303 248.532 108.8C248.532 108.358 248.662 107.994 248.922 107.708C249.182 107.413 249.516 107.197 249.923 107.058C250.331 106.911 250.755 106.837 251.197 106.837C251.769 106.837 252.276 106.928 252.718 107.11C253.16 107.292 253.511 107.543 253.771 107.864C253.893 108.003 253.949 108.15 253.94 108.306C253.932 108.453 253.858 108.579 253.719 108.683C253.581 108.778 253.416 108.809 253.225 108.774C253.035 108.739 252.874 108.661 252.744 108.54C252.528 108.332 252.294 108.189 252.042 108.111C251.791 108.033 251.501 107.994 251.171 107.994C250.79 107.994 250.465 108.059 250.196 108.189C249.936 108.319 249.806 108.51 249.806 108.761C249.806 108.917 249.845 109.06 249.923 109.19C250.01 109.311 250.175 109.424 250.417 109.528C250.66 109.623 251.015 109.719 251.483 109.814C252.133 109.944 252.645 110.109 253.017 110.308C253.399 110.507 253.672 110.741 253.836 111.01C254.001 111.27 254.083 111.573 254.083 111.92C254.083 112.319 253.975 112.678 253.758 112.999C253.55 113.32 253.238 113.575 252.822 113.766C252.415 113.957 251.904 114.052 251.288 114.052Z" fill="white"/>
</svg>
