<svg width="400" height="400" viewBox="0 0 400 400" fill="none" xmlns="http://www.w3.org/2000/svg">
<circle cx="200" cy="200" r="200" fill="#160763"/>
<path d="M107.863 44.6H117.623V45.208H115.863V66.392H117.623V67H107.863V66.392H109.623V45.208H107.863V44.6ZM118.822 51.768H126.534V54.712C126.875 53.7307 127.398 52.9413 128.102 52.344C128.806 51.7467 129.872 51.448 131.302 51.448C134.608 51.448 136.262 53.2293 136.262 56.792V66.424H138.054V67H128.998V66.424H130.31V56.024C130.31 54.744 130.224 53.9227 130.054 53.56C129.883 53.176 129.574 52.984 129.126 52.984C128.443 52.984 127.835 53.432 127.302 54.328C126.79 55.224 126.534 56.312 126.534 57.592V66.424H127.91V67H118.822V66.424H120.582V52.344H118.822V51.768ZM139.212 67.32V61.592H139.596C140.151 63.448 140.898 64.7493 141.836 65.496C142.775 66.2427 143.948 66.616 145.356 66.616C147.532 66.616 148.62 65.9227 148.62 64.536C148.62 63.9387 148.354 63.4907 147.82 63.192C146.988 62.7227 145.922 62.36 144.62 62.104C143.17 61.72 141.954 61.208 140.972 60.568C139.799 59.8 139.212 58.584 139.212 56.92C139.212 55.256 139.724 53.9333 140.748 52.952C141.772 51.9493 143.138 51.448 144.844 51.448C145.89 51.448 146.967 51.6933 148.076 52.184C148.482 52.3547 148.791 52.44 149.004 52.44C149.218 52.44 149.399 52.3653 149.548 52.216C149.698 52.0667 149.879 51.7893 150.092 51.384H150.444V56.28H150.06C148.972 53.5067 147.287 52.12 145.004 52.12C144.002 52.12 143.255 52.3013 142.764 52.664C142.274 53.0053 142.028 53.4427 142.028 53.976C142.028 54.296 142.103 54.552 142.252 54.744C142.402 54.9147 142.519 55.0427 142.604 55.128C142.69 55.2133 142.828 55.3093 143.02 55.416C143.212 55.5013 143.372 55.576 143.5 55.64C143.628 55.6827 143.82 55.7467 144.076 55.832C144.354 55.9173 144.556 55.9707 144.684 55.992C146.135 56.3547 147.18 56.6747 147.82 56.952C148.46 57.208 149.068 57.528 149.644 57.912C150.818 58.7227 151.404 60.0347 151.404 61.848C151.404 63.64 150.871 65.0053 149.804 65.944C148.738 66.8613 147.276 67.32 145.42 67.32C144.098 67.32 142.818 67.0107 141.58 66.392C141.324 66.2213 141.122 66.136 140.972 66.136C140.503 66.136 140.044 66.5307 139.596 67.32H139.212ZM153.639 62.424V52.344H151.879V51.768H153.639V47.64L159.591 46.168V51.768H163.751V52.344H159.591V63.128C159.591 64.1307 159.687 64.8667 159.879 65.336C160.092 65.8053 160.519 66.04 161.159 66.04C161.799 66.04 162.353 65.72 162.823 65.08C163.313 64.44 163.633 63.5653 163.783 62.456L164.327 62.52C164.156 63.992 163.687 65.1653 162.919 66.04C162.151 66.8933 160.881 67.32 159.111 67.32C157.34 67.32 155.985 66.968 155.047 66.264C154.108 65.56 153.639 64.28 153.639 62.424ZM172.312 59.48H173.241V57.016C173.241 54.9893 173.123 53.6347 172.889 52.952C172.675 52.248 172.249 51.896 171.609 51.896C171.225 51.896 170.873 52.0027 170.553 52.216C170.254 52.408 170.105 52.6853 170.105 53.048C170.105 53.3893 170.169 53.7413 170.297 54.104H171.097C171.267 54.552 171.353 55.096 171.353 55.736C171.353 56.3547 171.086 56.8987 170.553 57.368C170.019 57.816 169.347 58.04 168.536 58.04C166.702 58.04 165.785 57.1547 165.785 55.384C165.785 52.76 168.014 51.448 172.473 51.448C175.011 51.448 176.761 51.8853 177.721 52.76C178.702 53.6133 179.193 55.192 179.193 57.496V63.992C179.193 65.1013 179.502 65.656 180.121 65.656C180.846 65.656 181.273 64.5573 181.401 62.36L181.881 62.392C181.795 64.2693 181.443 65.56 180.825 66.264C180.206 66.968 179.193 67.32 177.785 67.32C175.225 67.32 173.753 66.5307 173.369 64.952C173.091 65.7627 172.675 66.36 172.121 66.744C171.566 67.128 170.755 67.32 169.689 67.32C166.531 67.32 164.953 66.0293 164.953 63.448C164.953 61.9333 165.55 60.8987 166.745 60.344C167.961 59.768 169.817 59.48 172.312 59.48ZM171.033 63.416C171.033 64.5253 171.086 65.24 171.193 65.56C171.321 65.88 171.545 66.04 171.865 66.04C172.206 66.04 172.515 65.7733 172.793 65.24C173.091 64.6853 173.241 63.928 173.241 62.968V59.992H173.017C171.694 59.992 171.033 60.9627 171.033 62.904V63.416ZM182.067 43H189.907V66.424H191.699V67H182.195V66.424H183.955V43.576H182.067V43ZM192.192 43H200.032V66.424H201.824V67H192.32V66.424H194.08V43.576H192.192V43ZM210.125 59.48H211.053V57.016C211.053 54.9893 210.936 53.6347 210.701 52.952C210.488 52.248 210.061 51.896 209.421 51.896C209.037 51.896 208.685 52.0027 208.365 52.216C208.066 52.408 207.917 52.6853 207.917 53.048C207.917 53.3893 207.981 53.7413 208.109 54.104H208.909C209.08 54.552 209.165 55.096 209.165 55.736C209.165 56.3547 208.898 56.8987 208.365 57.368C207.832 57.816 207.16 58.04 206.349 58.04C204.514 58.04 203.597 57.1547 203.597 55.384C203.597 52.76 205.826 51.448 210.285 51.448C212.824 51.448 214.573 51.8853 215.533 52.76C216.514 53.6133 217.005 55.192 217.005 57.496V63.992C217.005 65.1013 217.314 65.656 217.933 65.656C218.658 65.656 219.085 64.5573 219.213 62.36L219.693 62.392C219.608 64.2693 219.256 65.56 218.637 66.264C218.018 66.968 217.005 67.32 215.597 67.32C213.037 67.32 211.565 66.5307 211.181 64.952C210.904 65.7627 210.488 66.36 209.933 66.744C209.378 67.128 208.568 67.32 207.501 67.32C204.344 67.32 202.765 66.0293 202.765 63.448C202.765 61.9333 203.362 60.8987 204.557 60.344C205.773 59.768 207.629 59.48 210.125 59.48ZM208.845 63.416C208.845 64.5253 208.898 65.24 209.005 65.56C209.133 65.88 209.357 66.04 209.677 66.04C210.018 66.04 210.328 65.7733 210.605 65.24C210.904 64.6853 211.053 63.928 211.053 62.968V59.992H210.829C209.506 59.992 208.845 60.9627 208.845 62.904V63.416ZM221.139 62.424V52.344H219.379V51.768H221.139V47.64L227.091 46.168V51.768H231.251V52.344H227.091V63.128C227.091 64.1307 227.187 64.8667 227.379 65.336C227.592 65.8053 228.019 66.04 228.659 66.04C229.299 66.04 229.853 65.72 230.323 65.08C230.813 64.44 231.133 63.5653 231.283 62.456L231.827 62.52C231.656 63.992 231.187 65.1653 230.419 66.04C229.651 66.8933 228.381 67.32 226.611 67.32C224.84 67.32 223.485 66.968 222.547 66.264C221.608 65.56 221.139 64.28 221.139 62.424ZM236.837 49.56C235.706 49.56 234.895 49.272 234.405 48.696C233.935 48.12 233.701 47.4053 233.701 46.552C233.701 45.6987 233.957 44.9947 234.469 44.44C235.002 43.8853 235.802 43.608 236.869 43.608C237.935 43.608 238.746 43.864 239.301 44.376C239.855 44.8667 240.133 45.5813 240.133 46.52C240.133 47.4373 239.866 48.1733 239.333 48.728C238.799 49.2827 237.967 49.56 236.837 49.56ZM232.005 51.768H239.845V66.424H241.637V67H232.133V66.424H233.893V52.344H232.005V51.768ZM252.625 60.696V57.976C252.625 55.9067 252.507 54.4027 252.273 53.464C252.059 52.504 251.547 52.024 250.737 52.024C250.267 52.024 249.883 52.1627 249.585 52.44C249.307 52.696 249.105 53.1333 248.977 53.752C248.785 54.712 248.689 56.1733 248.689 58.136V60.632C248.689 62.9573 248.753 64.3547 248.881 64.824C249.03 65.2933 249.179 65.6773 249.329 65.976C249.563 66.488 250.022 66.744 250.705 66.744C251.537 66.744 252.081 66.264 252.337 65.304C252.529 64.6213 252.625 63.0853 252.625 60.696ZM250.641 67.32C247.974 67.32 245.958 66.6373 244.593 65.272C243.227 63.9067 242.545 61.9547 242.545 59.416C242.545 56.856 243.27 54.8933 244.721 53.528C246.193 52.1413 248.251 51.448 250.897 51.448C253.542 51.448 255.515 52.088 256.817 53.368C258.118 54.6267 258.769 56.5573 258.769 59.16C258.769 64.6 256.059 67.32 250.641 67.32ZM259.728 51.768H267.44V54.712C267.781 53.7307 268.304 52.9413 269.008 52.344C269.712 51.7467 270.778 51.448 272.208 51.448C275.514 51.448 277.168 53.2293 277.168 56.792V66.424H278.96V67H269.904V66.424H271.216V56.024C271.216 54.744 271.13 53.9227 270.96 53.56C270.789 53.176 270.48 52.984 270.032 52.984C269.349 52.984 268.741 53.432 268.208 54.328C267.696 55.224 267.44 56.312 267.44 57.592V66.424H268.816V67H259.728V66.424H261.488V52.344H259.728V51.768ZM280.118 67.32V61.592H280.503C281.057 63.448 281.804 64.7493 282.743 65.496C283.681 66.2427 284.855 66.616 286.263 66.616C288.439 66.616 289.527 65.9227 289.527 64.536C289.527 63.9387 289.26 63.4907 288.727 63.192C287.895 62.7227 286.828 62.36 285.527 62.104C284.076 61.72 282.86 61.208 281.879 60.568C280.705 59.8 280.118 58.584 280.118 56.92C280.118 55.256 280.63 53.9333 281.655 52.952C282.679 51.9493 284.044 51.448 285.751 51.448C286.796 51.448 287.873 51.6933 288.983 52.184C289.388 52.3547 289.697 52.44 289.911 52.44C290.124 52.44 290.305 52.3653 290.455 52.216C290.604 52.0667 290.785 51.7893 290.999 51.384H291.351V56.28H290.967C289.879 53.5067 288.193 52.12 285.911 52.12C284.908 52.12 284.161 52.3013 283.671 52.664C283.18 53.0053 282.935 53.4427 282.935 53.976C282.935 54.296 283.009 54.552 283.159 54.744C283.308 54.9147 283.425 55.0427 283.511 55.128C283.596 55.2133 283.735 55.3093 283.927 55.416C284.119 55.5013 284.279 55.576 284.407 55.64C284.535 55.6827 284.727 55.7467 284.983 55.832C285.26 55.9173 285.463 55.9707 285.591 55.992C287.041 56.3547 288.087 56.6747 288.727 56.952C289.367 57.208 289.975 57.528 290.551 57.912C291.724 58.7227 292.311 60.0347 292.311 61.848C292.311 63.64 291.777 65.0053 290.711 65.944C289.644 66.8613 288.183 67.32 286.327 67.32C285.004 67.32 283.724 67.0107 282.487 66.392C282.231 66.2213 282.028 66.136 281.879 66.136C281.409 66.136 280.951 66.5307 280.503 67.32H280.118Z" fill="white"/>
<path d="M118.304 86.464H122.492V87.784H118.304V86.464ZM118.436 91H116.876V82.6H123.008V83.908H118.436V91ZM124.255 91V84.592H125.683V86.356L125.515 85.84C125.707 85.408 126.007 85.08 126.415 84.856C126.831 84.632 127.347 84.52 127.963 84.52V85.948C127.899 85.932 127.839 85.924 127.783 85.924C127.727 85.916 127.671 85.912 127.615 85.912C127.047 85.912 126.595 86.08 126.259 86.416C125.923 86.744 125.755 87.236 125.755 87.892V91H124.255ZM132.189 91.084C131.477 91.084 130.853 90.944 130.317 90.664C129.789 90.376 129.377 89.984 129.081 89.488C128.793 88.992 128.649 88.428 128.649 87.796C128.649 87.156 128.789 86.592 129.069 86.104C129.357 85.608 129.749 85.22 130.245 84.94C130.749 84.66 131.321 84.52 131.961 84.52C132.585 84.52 133.141 84.656 133.629 84.928C134.117 85.2 134.501 85.584 134.781 86.08C135.061 86.576 135.201 87.16 135.201 87.832C135.201 87.896 135.197 87.968 135.189 88.048C135.189 88.128 135.185 88.204 135.177 88.276H129.837V87.28H134.385L133.797 87.592C133.805 87.224 133.729 86.9 133.569 86.62C133.409 86.34 133.189 86.12 132.909 85.96C132.637 85.8 132.321 85.72 131.961 85.72C131.593 85.72 131.269 85.8 130.989 85.96C130.717 86.12 130.501 86.344 130.341 86.632C130.189 86.912 130.113 87.244 130.113 87.628V87.868C130.113 88.252 130.201 88.592 130.377 88.888C130.553 89.184 130.801 89.412 131.121 89.572C131.441 89.732 131.809 89.812 132.225 89.812C132.585 89.812 132.909 89.756 133.197 89.644C133.485 89.532 133.741 89.356 133.965 89.116L134.769 90.04C134.481 90.376 134.117 90.636 133.677 90.82C133.245 90.996 132.749 91.084 132.189 91.084ZM139.654 91.084C138.942 91.084 138.318 90.944 137.782 90.664C137.254 90.376 136.842 89.984 136.546 89.488C136.258 88.992 136.114 88.428 136.114 87.796C136.114 87.156 136.254 86.592 136.534 86.104C136.822 85.608 137.214 85.22 137.71 84.94C138.214 84.66 138.786 84.52 139.426 84.52C140.05 84.52 140.606 84.656 141.094 84.928C141.582 85.2 141.966 85.584 142.246 86.08C142.526 86.576 142.666 87.16 142.666 87.832C142.666 87.896 142.662 87.968 142.654 88.048C142.654 88.128 142.65 88.204 142.642 88.276H137.302V87.28H141.85L141.262 87.592C141.27 87.224 141.194 86.9 141.034 86.62C140.874 86.34 140.654 86.12 140.374 85.96C140.102 85.8 139.786 85.72 139.426 85.72C139.058 85.72 138.734 85.8 138.454 85.96C138.182 86.12 137.966 86.344 137.806 86.632C137.654 86.912 137.578 87.244 137.578 87.628V87.868C137.578 88.252 137.666 88.592 137.842 88.888C138.018 89.184 138.266 89.412 138.586 89.572C138.906 89.732 139.274 89.812 139.69 89.812C140.05 89.812 140.374 89.756 140.662 89.644C140.95 89.532 141.206 89.356 141.43 89.116L142.234 90.04C141.946 90.376 141.582 90.636 141.142 90.82C140.71 90.996 140.214 91.084 139.654 91.084ZM144.107 91V82.096H145.607V91H144.107ZM151.524 91V89.704L151.44 89.428V87.16C151.44 86.72 151.308 86.38 151.044 86.14C150.78 85.892 150.38 85.768 149.844 85.768C149.484 85.768 149.128 85.824 148.776 85.936C148.432 86.048 148.14 86.204 147.9 86.404L147.312 85.312C147.656 85.048 148.064 84.852 148.536 84.724C149.016 84.588 149.512 84.52 150.024 84.52C150.952 84.52 151.668 84.744 152.172 85.192C152.684 85.632 152.94 86.316 152.94 87.244V91H151.524ZM149.508 91.084C149.028 91.084 148.608 91.004 148.248 90.844C147.888 90.676 147.608 90.448 147.408 90.16C147.216 89.864 147.12 89.532 147.12 89.164C147.12 88.804 147.204 88.48 147.372 88.192C147.548 87.904 147.832 87.676 148.224 87.508C148.616 87.34 149.136 87.256 149.784 87.256H151.644V88.252H149.892C149.38 88.252 149.036 88.336 148.86 88.504C148.684 88.664 148.596 88.864 148.596 89.104C148.596 89.376 148.704 89.592 148.92 89.752C149.136 89.912 149.436 89.992 149.82 89.992C150.188 89.992 150.516 89.908 150.804 89.74C151.1 89.572 151.312 89.324 151.44 88.996L151.692 89.896C151.548 90.272 151.288 90.564 150.912 90.772C150.544 90.98 150.076 91.084 149.508 91.084ZM158.501 84.52C159.013 84.52 159.469 84.62 159.869 84.82C160.277 85.02 160.597 85.328 160.829 85.744C161.061 86.152 161.177 86.68 161.177 87.328V91H159.677V87.52C159.677 86.952 159.541 86.528 159.269 86.248C159.005 85.968 158.633 85.828 158.153 85.828C157.801 85.828 157.489 85.9 157.217 86.044C156.945 86.188 156.733 86.404 156.581 86.692C156.437 86.972 156.365 87.328 156.365 87.76V91H154.865V84.592H156.293V86.32L156.041 85.792C156.265 85.384 156.589 85.072 157.013 84.856C157.445 84.632 157.941 84.52 158.501 84.52ZM166.031 91.084C165.359 91.084 164.759 90.944 164.231 90.664C163.711 90.376 163.303 89.984 163.007 89.488C162.711 88.992 162.563 88.428 162.563 87.796C162.563 87.156 162.711 86.592 163.007 86.104C163.303 85.608 163.711 85.22 164.231 84.94C164.759 84.66 165.359 84.52 166.031 84.52C166.655 84.52 167.203 84.648 167.675 84.904C168.155 85.152 168.519 85.52 168.767 86.008L167.615 86.68C167.423 86.376 167.187 86.152 166.907 86.008C166.635 85.864 166.339 85.792 166.019 85.792C165.651 85.792 165.319 85.872 165.023 86.032C164.727 86.192 164.495 86.424 164.327 86.728C164.159 87.024 164.075 87.38 164.075 87.796C164.075 88.212 164.159 88.572 164.327 88.876C164.495 89.172 164.727 89.4 165.023 89.56C165.319 89.72 165.651 89.8 166.019 89.8C166.339 89.8 166.635 89.728 166.907 89.584C167.187 89.44 167.423 89.216 167.615 88.912L168.767 89.584C168.519 90.064 168.155 90.436 167.675 90.7C167.203 90.956 166.655 91.084 166.031 91.084ZM172.982 91.084C172.27 91.084 171.646 90.944 171.11 90.664C170.582 90.376 170.17 89.984 169.874 89.488C169.586 88.992 169.442 88.428 169.442 87.796C169.442 87.156 169.582 86.592 169.862 86.104C170.15 85.608 170.542 85.22 171.038 84.94C171.542 84.66 172.114 84.52 172.754 84.52C173.378 84.52 173.934 84.656 174.422 84.928C174.91 85.2 175.294 85.584 175.574 86.08C175.854 86.576 175.994 87.16 175.994 87.832C175.994 87.896 175.99 87.968 175.982 88.048C175.982 88.128 175.978 88.204 175.97 88.276H170.63V87.28H175.178L174.59 87.592C174.598 87.224 174.522 86.9 174.362 86.62C174.202 86.34 173.982 86.12 173.702 85.96C173.43 85.8 173.114 85.72 172.754 85.72C172.386 85.72 172.062 85.8 171.782 85.96C171.51 86.12 171.294 86.344 171.134 86.632C170.982 86.912 170.906 87.244 170.906 87.628V87.868C170.906 88.252 170.994 88.592 171.17 88.888C171.346 89.184 171.594 89.412 171.914 89.572C172.234 89.732 172.602 89.812 173.018 89.812C173.378 89.812 173.702 89.756 173.99 89.644C174.278 89.532 174.534 89.356 174.758 89.116L175.562 90.04C175.274 90.376 174.91 90.636 174.47 90.82C174.038 90.996 173.542 91.084 172.982 91.084ZM183.32 91.12C182.736 91.12 182.212 91.024 181.748 90.832C181.284 90.64 180.92 90.376 180.656 90.04C180.392 89.704 180.26 89.316 180.26 88.876C180.26 88.476 180.348 88.116 180.524 87.796C180.7 87.476 180.98 87.172 181.364 86.884C181.748 86.588 182.24 86.292 182.84 85.996C183.312 85.764 183.68 85.56 183.944 85.384C184.216 85.208 184.404 85.04 184.508 84.88C184.62 84.72 184.676 84.552 184.676 84.376C184.676 84.136 184.592 83.944 184.424 83.8C184.256 83.648 184.016 83.572 183.704 83.572C183.368 83.572 183.104 83.656 182.912 83.824C182.728 83.984 182.636 84.196 182.636 84.46C182.636 84.596 182.66 84.728 182.708 84.856C182.764 84.984 182.86 85.128 182.996 85.288C183.132 85.448 183.328 85.652 183.584 85.9L188.024 90.16L187.196 91.132L182.396 86.524C182.124 86.26 181.904 86.016 181.736 85.792C181.568 85.568 181.448 85.352 181.376 85.144C181.304 84.928 181.268 84.708 181.268 84.484C181.268 84.092 181.368 83.748 181.568 83.452C181.768 83.148 182.052 82.916 182.42 82.756C182.788 82.588 183.216 82.504 183.704 82.504C184.16 82.504 184.552 82.58 184.88 82.732C185.216 82.876 185.476 83.088 185.66 83.368C185.852 83.64 185.948 83.968 185.948 84.352C185.948 84.688 185.864 85 185.696 85.288C185.528 85.568 185.264 85.836 184.904 86.092C184.552 86.348 184.08 86.616 183.488 86.896C183.048 87.112 182.7 87.316 182.444 87.508C182.188 87.7 182.004 87.892 181.892 88.084C181.78 88.276 181.724 88.488 181.724 88.72C181.724 88.952 181.792 89.156 181.928 89.332C182.072 89.508 182.272 89.648 182.528 89.752C182.784 89.848 183.084 89.896 183.428 89.896C183.94 89.896 184.404 89.784 184.82 89.56C185.244 89.328 185.6 88.984 185.888 88.528C186.176 88.072 186.384 87.508 186.512 86.836L187.724 87.232C187.556 88.04 187.264 88.736 186.848 89.32C186.44 89.896 185.936 90.34 185.336 90.652C184.736 90.964 184.064 91.12 183.32 91.12ZM196.573 91.12C195.933 91.12 195.337 91.016 194.785 90.808C194.241 90.592 193.765 90.292 193.357 89.908C192.957 89.516 192.645 89.056 192.421 88.528C192.197 88 192.085 87.424 192.085 86.8C192.085 86.176 192.197 85.6 192.421 85.072C192.645 84.544 192.961 84.088 193.369 83.704C193.777 83.312 194.253 83.012 194.797 82.804C195.341 82.588 195.937 82.48 196.585 82.48C197.273 82.48 197.901 82.6 198.469 82.84C199.037 83.072 199.517 83.42 199.909 83.884L198.901 84.832C198.597 84.504 198.257 84.26 197.881 84.1C197.505 83.932 197.097 83.848 196.657 83.848C196.217 83.848 195.813 83.92 195.445 84.064C195.085 84.208 194.769 84.412 194.497 84.676C194.233 84.94 194.025 85.252 193.873 85.612C193.729 85.972 193.657 86.368 193.657 86.8C193.657 87.232 193.729 87.628 193.873 87.988C194.025 88.348 194.233 88.66 194.497 88.924C194.769 89.188 195.085 89.392 195.445 89.536C195.813 89.68 196.217 89.752 196.657 89.752C197.097 89.752 197.505 89.672 197.881 89.512C198.257 89.344 198.597 89.092 198.901 88.756L199.909 89.716C199.517 90.172 199.037 90.52 198.469 90.76C197.901 91 197.269 91.12 196.573 91.12ZM203.893 91.084C203.237 91.084 202.653 90.944 202.141 90.664C201.629 90.376 201.225 89.984 200.929 89.488C200.633 88.992 200.485 88.428 200.485 87.796C200.485 87.156 200.633 86.592 200.929 86.104C201.225 85.608 201.629 85.22 202.141 84.94C202.653 84.66 203.237 84.52 203.893 84.52C204.557 84.52 205.145 84.66 205.657 84.94C206.177 85.22 206.581 85.604 206.869 86.092C207.165 86.58 207.313 87.148 207.313 87.796C207.313 88.428 207.165 88.992 206.869 89.488C206.581 89.984 206.177 90.376 205.657 90.664C205.145 90.944 204.557 91.084 203.893 91.084ZM203.893 89.8C204.261 89.8 204.589 89.72 204.877 89.56C205.165 89.4 205.389 89.168 205.549 88.864C205.717 88.56 205.801 88.204 205.801 87.796C205.801 87.38 205.717 87.024 205.549 86.728C205.389 86.424 205.165 86.192 204.877 86.032C204.589 85.872 204.265 85.792 203.905 85.792C203.537 85.792 203.209 85.872 202.921 86.032C202.641 86.192 202.417 86.424 202.249 86.728C202.081 87.024 201.997 87.38 201.997 87.796C201.997 88.204 202.081 88.56 202.249 88.864C202.417 89.168 202.641 89.4 202.921 89.56C203.209 89.72 203.533 89.8 203.893 89.8ZM216.836 84.52C217.348 84.52 217.8 84.62 218.192 84.82C218.592 85.02 218.904 85.328 219.128 85.744C219.352 86.152 219.464 86.68 219.464 87.328V91H217.964V87.52C217.964 86.952 217.84 86.528 217.592 86.248C217.344 85.968 216.988 85.828 216.524 85.828C216.196 85.828 215.904 85.9 215.648 86.044C215.4 86.188 215.204 86.4 215.06 86.68C214.924 86.96 214.856 87.316 214.856 87.748V91H213.356V87.52C213.356 86.952 213.232 86.528 212.984 86.248C212.736 85.968 212.38 85.828 211.916 85.828C211.588 85.828 211.296 85.9 211.04 86.044C210.792 86.188 210.596 86.4 210.452 86.68C210.316 86.96 210.248 87.316 210.248 87.748V91H208.748V84.592H210.176V86.296L209.924 85.792C210.14 85.376 210.452 85.06 210.86 84.844C211.276 84.628 211.748 84.52 212.276 84.52C212.876 84.52 213.396 84.668 213.836 84.964C214.284 85.26 214.58 85.708 214.724 86.308L214.136 86.104C214.344 85.624 214.688 85.24 215.168 84.952C215.648 84.664 216.204 84.52 216.836 84.52ZM224.932 91.084C224.412 91.084 223.936 90.964 223.504 90.724C223.08 90.484 222.74 90.124 222.484 89.644C222.236 89.156 222.112 88.54 222.112 87.796C222.112 87.044 222.232 86.428 222.472 85.948C222.72 85.468 223.056 85.112 223.48 84.88C223.904 84.64 224.388 84.52 224.932 84.52C225.564 84.52 226.12 84.656 226.6 84.928C227.088 85.2 227.472 85.58 227.752 86.068C228.04 86.556 228.184 87.132 228.184 87.796C228.184 88.46 228.04 89.04 227.752 89.536C227.472 90.024 227.088 90.404 226.6 90.676C226.12 90.948 225.564 91.084 224.932 91.084ZM221.38 93.328V84.592H222.808V86.104L222.76 87.808L222.88 89.512V93.328H221.38ZM224.764 89.8C225.124 89.8 225.444 89.72 225.724 89.56C226.012 89.4 226.24 89.168 226.408 88.864C226.576 88.56 226.66 88.204 226.66 87.796C226.66 87.38 226.576 87.024 226.408 86.728C226.24 86.424 226.012 86.192 225.724 86.032C225.444 85.872 225.124 85.792 224.764 85.792C224.404 85.792 224.08 85.872 223.792 86.032C223.504 86.192 223.276 86.424 223.108 86.728C222.94 87.024 222.856 87.38 222.856 87.796C222.856 88.204 222.94 88.56 223.108 88.864C223.276 89.168 223.504 89.4 223.792 89.56C224.08 89.72 224.404 89.8 224.764 89.8ZM232.619 91.084C231.907 91.084 231.283 90.944 230.747 90.664C230.219 90.376 229.807 89.984 229.511 89.488C229.223 88.992 229.079 88.428 229.079 87.796C229.079 87.156 229.219 86.592 229.499 86.104C229.787 85.608 230.179 85.22 230.675 84.94C231.179 84.66 231.751 84.52 232.391 84.52C233.015 84.52 233.571 84.656 234.059 84.928C234.547 85.2 234.931 85.584 235.211 86.08C235.491 86.576 235.631 87.16 235.631 87.832C235.631 87.896 235.627 87.968 235.619 88.048C235.619 88.128 235.615 88.204 235.607 88.276H230.267V87.28H234.815L234.227 87.592C234.235 87.224 234.159 86.9 233.999 86.62C233.839 86.34 233.619 86.12 233.339 85.96C233.067 85.8 232.751 85.72 232.391 85.72C232.023 85.72 231.699 85.8 231.419 85.96C231.147 86.12 230.931 86.344 230.771 86.632C230.619 86.912 230.543 87.244 230.543 87.628V87.868C230.543 88.252 230.631 88.592 230.807 88.888C230.983 89.184 231.231 89.412 231.551 89.572C231.871 89.732 232.239 89.812 232.655 89.812C233.015 89.812 233.339 89.756 233.627 89.644C233.915 89.532 234.171 89.356 234.395 89.116L235.199 90.04C234.911 90.376 234.547 90.636 234.107 90.82C233.675 90.996 233.179 91.084 232.619 91.084ZM239.484 91.084C238.78 91.084 238.236 90.904 237.852 90.544C237.468 90.176 237.276 89.636 237.276 88.924V83.176H238.776V88.888C238.776 89.192 238.852 89.428 239.004 89.596C239.164 89.764 239.384 89.848 239.664 89.848C240 89.848 240.28 89.76 240.504 89.584L240.924 90.652C240.748 90.796 240.532 90.904 240.276 90.976C240.02 91.048 239.756 91.084 239.484 91.084ZM236.22 85.84V84.64H240.492V85.84H236.22ZM242.158 91V84.592H243.658V91H242.158ZM242.914 83.536C242.634 83.536 242.402 83.448 242.218 83.272C242.042 83.096 241.954 82.884 241.954 82.636C241.954 82.38 242.042 82.168 242.218 82C242.402 81.824 242.634 81.736 242.914 81.736C243.194 81.736 243.422 81.82 243.598 81.988C243.782 82.148 243.874 82.352 243.874 82.6C243.874 82.864 243.786 83.088 243.61 83.272C243.434 83.448 243.202 83.536 242.914 83.536ZM248.039 91.084C247.335 91.084 246.791 90.904 246.407 90.544C246.023 90.176 245.831 89.636 245.831 88.924V83.176H247.331V88.888C247.331 89.192 247.407 89.428 247.559 89.596C247.719 89.764 247.939 89.848 248.219 89.848C248.555 89.848 248.835 89.76 249.059 89.584L249.479 90.652C249.303 90.796 249.087 90.904 248.831 90.976C248.575 91.048 248.311 91.084 248.039 91.084ZM244.775 85.84V84.64H249.047V85.84H244.775ZM250.713 91V84.592H252.213V91H250.713ZM251.469 83.536C251.189 83.536 250.957 83.448 250.773 83.272C250.597 83.096 250.509 82.884 250.509 82.636C250.509 82.38 250.597 82.168 250.773 82C250.957 81.824 251.189 81.736 251.469 81.736C251.749 81.736 251.977 81.82 252.153 81.988C252.337 82.148 252.429 82.352 252.429 82.6C252.429 82.864 252.341 83.088 252.165 83.272C251.989 83.448 251.757 83.536 251.469 83.536ZM257.061 91.084C256.405 91.084 255.821 90.944 255.309 90.664C254.797 90.376 254.393 89.984 254.097 89.488C253.801 88.992 253.653 88.428 253.653 87.796C253.653 87.156 253.801 86.592 254.097 86.104C254.393 85.608 254.797 85.22 255.309 84.94C255.821 84.66 256.405 84.52 257.061 84.52C257.725 84.52 258.313 84.66 258.825 84.94C259.345 85.22 259.749 85.604 260.037 86.092C260.333 86.58 260.481 87.148 260.481 87.796C260.481 88.428 260.333 88.992 260.037 89.488C259.749 89.984 259.345 90.376 258.825 90.664C258.313 90.944 257.725 91.084 257.061 91.084ZM257.061 89.8C257.429 89.8 257.757 89.72 258.045 89.56C258.333 89.4 258.557 89.168 258.717 88.864C258.885 88.56 258.969 88.204 258.969 87.796C258.969 87.38 258.885 87.024 258.717 86.728C258.557 86.424 258.333 86.192 258.045 86.032C257.757 85.872 257.433 85.792 257.073 85.792C256.705 85.792 256.377 85.872 256.089 86.032C255.809 86.192 255.585 86.424 255.417 86.728C255.249 87.024 255.165 87.38 255.165 87.796C255.165 88.204 255.249 88.56 255.417 88.864C255.585 89.168 255.809 89.4 256.089 89.56C256.377 89.72 256.701 89.8 257.061 89.8ZM265.552 84.52C266.064 84.52 266.52 84.62 266.92 84.82C267.328 85.02 267.648 85.328 267.88 85.744C268.112 86.152 268.228 86.68 268.228 87.328V91H266.728V87.52C266.728 86.952 266.592 86.528 266.32 86.248C266.056 85.968 265.684 85.828 265.204 85.828C264.852 85.828 264.54 85.9 264.268 86.044C263.996 86.188 263.784 86.404 263.632 86.692C263.488 86.972 263.416 87.328 263.416 87.76V91H261.916V84.592H263.344V86.32L263.092 85.792C263.316 85.384 263.64 85.072 264.064 84.856C264.496 84.632 264.992 84.52 265.552 84.52ZM276.015 91.12C275.431 91.12 274.907 91.024 274.443 90.832C273.979 90.64 273.615 90.376 273.351 90.04C273.087 89.704 272.955 89.316 272.955 88.876C272.955 88.476 273.043 88.116 273.219 87.796C273.395 87.476 273.675 87.172 274.059 86.884C274.443 86.588 274.935 86.292 275.535 85.996C276.007 85.764 276.375 85.56 276.639 85.384C276.911 85.208 277.099 85.04 277.203 84.88C277.315 84.72 277.371 84.552 277.371 84.376C277.371 84.136 277.287 83.944 277.119 83.8C276.951 83.648 276.711 83.572 276.399 83.572C276.063 83.572 275.799 83.656 275.607 83.824C275.423 83.984 275.331 84.196 275.331 84.46C275.331 84.596 275.355 84.728 275.403 84.856C275.459 84.984 275.555 85.128 275.691 85.288C275.827 85.448 276.023 85.652 276.279 85.9L280.719 90.16L279.891 91.132L275.091 86.524C274.819 86.26 274.599 86.016 274.431 85.792C274.263 85.568 274.143 85.352 274.071 85.144C273.999 84.928 273.963 84.708 273.963 84.484C273.963 84.092 274.063 83.748 274.263 83.452C274.463 83.148 274.747 82.916 275.115 82.756C275.483 82.588 275.911 82.504 276.399 82.504C276.855 82.504 277.247 82.58 277.575 82.732C277.911 82.876 278.171 83.088 278.355 83.368C278.547 83.64 278.643 83.968 278.643 84.352C278.643 84.688 278.559 85 278.391 85.288C278.223 85.568 277.959 85.836 277.599 86.092C277.247 86.348 276.775 86.616 276.183 86.896C275.743 87.112 275.395 87.316 275.139 87.508C274.883 87.7 274.699 87.892 274.587 88.084C274.475 88.276 274.419 88.488 274.419 88.72C274.419 88.952 274.487 89.156 274.623 89.332C274.767 89.508 274.967 89.648 275.223 89.752C275.479 89.848 275.779 89.896 276.123 89.896C276.635 89.896 277.099 89.784 277.515 89.56C277.939 89.328 278.295 88.984 278.583 88.528C278.871 88.072 279.079 87.508 279.207 86.836L280.419 87.232C280.251 88.04 279.959 88.736 279.543 89.32C279.135 89.896 278.631 90.34 278.031 90.652C277.431 90.964 276.759 91.12 276.015 91.12ZM148.706 106L152.486 97.6H154.022L157.814 106H156.182L152.93 98.428H153.554L150.314 106H148.706ZM150.446 104.056L150.866 102.832H155.402L155.822 104.056H150.446ZM161.619 106.084C160.947 106.084 160.347 105.944 159.819 105.664C159.299 105.376 158.891 104.984 158.595 104.488C158.299 103.992 158.151 103.428 158.151 102.796C158.151 102.156 158.299 101.592 158.595 101.104C158.891 100.608 159.299 100.22 159.819 99.94C160.347 99.66 160.947 99.52 161.619 99.52C162.243 99.52 162.791 99.648 163.263 99.904C163.743 100.152 164.107 100.52 164.355 101.008L163.203 101.68C163.011 101.376 162.775 101.152 162.495 101.008C162.223 100.864 161.927 100.792 161.607 100.792C161.239 100.792 160.907 100.872 160.611 101.032C160.315 101.192 160.083 101.424 159.915 101.728C159.747 102.024 159.663 102.38 159.663 102.796C159.663 103.212 159.747 103.572 159.915 103.876C160.083 104.172 160.315 104.4 160.611 104.56C160.907 104.72 161.239 104.8 161.607 104.8C161.927 104.8 162.223 104.728 162.495 104.584C162.775 104.44 163.011 104.216 163.203 103.912L164.355 104.584C164.107 105.064 163.743 105.436 163.263 105.7C162.791 105.956 162.243 106.084 161.619 106.084ZM169.6 106V104.704L169.516 104.428V102.16C169.516 101.72 169.384 101.38 169.12 101.14C168.856 100.892 168.456 100.768 167.92 100.768C167.56 100.768 167.204 100.824 166.852 100.936C166.508 101.048 166.216 101.204 165.976 101.404L165.388 100.312C165.732 100.048 166.14 99.852 166.612 99.724C167.092 99.588 167.588 99.52 168.1 99.52C169.028 99.52 169.744 99.744 170.248 100.192C170.76 100.632 171.016 101.316 171.016 102.244V106H169.6ZM167.584 106.084C167.104 106.084 166.684 106.004 166.324 105.844C165.964 105.676 165.684 105.448 165.484 105.16C165.292 104.864 165.196 104.532 165.196 104.164C165.196 103.804 165.28 103.48 165.448 103.192C165.624 102.904 165.908 102.676 166.3 102.508C166.692 102.34 167.212 102.256 167.86 102.256H169.72V103.252H167.968C167.456 103.252 167.112 103.336 166.936 103.504C166.76 103.664 166.672 103.864 166.672 104.104C166.672 104.376 166.78 104.592 166.996 104.752C167.212 104.912 167.512 104.992 167.896 104.992C168.264 104.992 168.592 104.908 168.88 104.74C169.176 104.572 169.388 104.324 169.516 103.996L169.768 104.896C169.624 105.272 169.364 105.564 168.988 105.772C168.62 105.98 168.152 106.084 167.584 106.084ZM175.665 106.084C175.049 106.084 174.493 105.948 173.997 105.676C173.509 105.396 173.125 105.012 172.845 104.524C172.565 104.036 172.425 103.46 172.425 102.796C172.425 102.132 172.565 101.556 172.845 101.068C173.125 100.58 173.509 100.2 173.997 99.928C174.493 99.656 175.049 99.52 175.665 99.52C176.201 99.52 176.681 99.64 177.105 99.88C177.529 100.112 177.865 100.468 178.113 100.948C178.361 101.428 178.485 102.044 178.485 102.796C178.485 103.54 178.365 104.156 178.125 104.644C177.885 105.124 177.553 105.484 177.129 105.724C176.705 105.964 176.217 106.084 175.665 106.084ZM175.845 104.8C176.205 104.8 176.525 104.72 176.805 104.56C177.093 104.4 177.321 104.168 177.489 103.864C177.665 103.56 177.753 103.204 177.753 102.796C177.753 102.38 177.665 102.024 177.489 101.728C177.321 101.424 177.093 101.192 176.805 101.032C176.525 100.872 176.205 100.792 175.845 100.792C175.485 100.792 175.161 100.872 174.873 101.032C174.593 101.192 174.365 101.424 174.189 101.728C174.021 102.024 173.937 102.38 173.937 102.796C173.937 103.204 174.021 103.56 174.189 103.864C174.365 104.168 174.593 104.4 174.873 104.56C175.161 104.72 175.485 104.8 175.845 104.8ZM177.789 106V104.488L177.849 102.784L177.729 101.08V97.096H179.217V106H177.789ZM184.203 106.084C183.491 106.084 182.867 105.944 182.331 105.664C181.803 105.376 181.391 104.984 181.095 104.488C180.807 103.992 180.663 103.428 180.663 102.796C180.663 102.156 180.803 101.592 181.083 101.104C181.371 100.608 181.763 100.22 182.259 99.94C182.763 99.66 183.335 99.52 183.975 99.52C184.599 99.52 185.155 99.656 185.643 99.928C186.131 100.2 186.515 100.584 186.795 101.08C187.075 101.576 187.215 102.16 187.215 102.832C187.215 102.896 187.211 102.968 187.203 103.048C187.203 103.128 187.199 103.204 187.191 103.276H181.851V102.28H186.399L185.811 102.592C185.819 102.224 185.743 101.9 185.583 101.62C185.423 101.34 185.203 101.12 184.923 100.96C184.651 100.8 184.335 100.72 183.975 100.72C183.607 100.72 183.283 100.8 183.003 100.96C182.731 101.12 182.515 101.344 182.355 101.632C182.203 101.912 182.127 102.244 182.127 102.628V102.868C182.127 103.252 182.215 103.592 182.391 103.888C182.567 104.184 182.815 104.412 183.135 104.572C183.455 104.732 183.823 104.812 184.239 104.812C184.599 104.812 184.923 104.756 185.211 104.644C185.499 104.532 185.755 104.356 185.979 104.116L186.783 105.04C186.495 105.376 186.131 105.636 185.691 105.82C185.259 105.996 184.763 106.084 184.203 106.084ZM196.744 99.52C197.256 99.52 197.708 99.62 198.1 99.82C198.5 100.02 198.812 100.328 199.036 100.744C199.26 101.152 199.372 101.68 199.372 102.328V106H197.872V102.52C197.872 101.952 197.748 101.528 197.5 101.248C197.252 100.968 196.896 100.828 196.432 100.828C196.104 100.828 195.812 100.9 195.556 101.044C195.308 101.188 195.112 101.4 194.968 101.68C194.832 101.96 194.764 102.316 194.764 102.748V106H193.264V102.52C193.264 101.952 193.14 101.528 192.892 101.248C192.644 100.968 192.288 100.828 191.824 100.828C191.496 100.828 191.204 100.9 190.948 101.044C190.7 101.188 190.504 101.4 190.36 101.68C190.224 101.96 190.156 102.316 190.156 102.748V106H188.656V99.592H190.084V101.296L189.832 100.792C190.048 100.376 190.36 100.06 190.768 99.844C191.184 99.628 191.656 99.52 192.184 99.52C192.784 99.52 193.304 99.668 193.744 99.964C194.192 100.26 194.488 100.708 194.632 101.308L194.044 101.104C194.252 100.624 194.596 100.24 195.076 99.952C195.556 99.664 196.112 99.52 196.744 99.52ZM201.289 106V99.592H202.789V106H201.289ZM202.045 98.536C201.765 98.536 201.533 98.448 201.349 98.272C201.173 98.096 201.085 97.884 201.085 97.636C201.085 97.38 201.173 97.168 201.349 97C201.533 96.824 201.765 96.736 202.045 96.736C202.325 96.736 202.553 96.82 202.729 96.988C202.913 97.148 203.005 97.352 203.005 97.6C203.005 97.864 202.917 98.088 202.741 98.272C202.565 98.448 202.333 98.536 202.045 98.536ZM207.697 106.084C207.025 106.084 206.425 105.944 205.897 105.664C205.377 105.376 204.969 104.984 204.673 104.488C204.377 103.992 204.229 103.428 204.229 102.796C204.229 102.156 204.377 101.592 204.673 101.104C204.969 100.608 205.377 100.22 205.897 99.94C206.425 99.66 207.025 99.52 207.697 99.52C208.321 99.52 208.869 99.648 209.341 99.904C209.821 100.152 210.185 100.52 210.433 101.008L209.281 101.68C209.089 101.376 208.853 101.152 208.573 101.008C208.301 100.864 208.005 100.792 207.685 100.792C207.317 100.792 206.985 100.872 206.689 101.032C206.393 101.192 206.161 101.424 205.993 101.728C205.825 102.024 205.741 102.38 205.741 102.796C205.741 103.212 205.825 103.572 205.993 103.876C206.161 104.172 206.393 104.4 206.689 104.56C206.985 104.72 207.317 104.8 207.685 104.8C208.005 104.8 208.301 104.728 208.573 104.584C208.853 104.44 209.089 104.216 209.281 103.912L210.433 104.584C210.185 105.064 209.821 105.436 209.341 105.7C208.869 105.956 208.321 106.084 207.697 106.084ZM216.463 106L214.111 99.592H215.527L217.543 105.244H216.871L218.983 99.592H220.243L222.295 105.244H221.635L223.711 99.592H225.043L222.679 106H221.239L219.367 100.996H219.811L217.903 106H216.463ZM228.778 106.084C228.122 106.084 227.538 105.944 227.026 105.664C226.514 105.376 226.11 104.984 225.814 104.488C225.518 103.992 225.37 103.428 225.37 102.796C225.37 102.156 225.518 101.592 225.814 101.104C226.11 100.608 226.514 100.22 227.026 99.94C227.538 99.66 228.122 99.52 228.778 99.52C229.442 99.52 230.03 99.66 230.542 99.94C231.062 100.22 231.466 100.604 231.754 101.092C232.05 101.58 232.198 102.148 232.198 102.796C232.198 103.428 232.05 103.992 231.754 104.488C231.466 104.984 231.062 105.376 230.542 105.664C230.03 105.944 229.442 106.084 228.778 106.084ZM228.778 104.8C229.146 104.8 229.474 104.72 229.762 104.56C230.05 104.4 230.274 104.168 230.434 103.864C230.602 103.56 230.686 103.204 230.686 102.796C230.686 102.38 230.602 102.024 230.434 101.728C230.274 101.424 230.05 101.192 229.762 101.032C229.474 100.872 229.15 100.792 228.79 100.792C228.422 100.792 228.094 100.872 227.806 101.032C227.526 101.192 227.302 101.424 227.134 101.728C226.966 102.024 226.882 102.38 226.882 102.796C226.882 103.204 226.966 103.56 227.134 103.864C227.302 104.168 227.526 104.4 227.806 104.56C228.094 104.72 228.418 104.8 228.778 104.8ZM233.632 106V99.592H235.06V101.356L234.892 100.84C235.084 100.408 235.384 100.08 235.792 99.856C236.208 99.632 236.724 99.52 237.34 99.52V100.948C237.276 100.932 237.216 100.924 237.16 100.924C237.104 100.916 237.048 100.912 236.992 100.912C236.424 100.912 235.972 101.08 235.636 101.416C235.3 101.744 235.132 102.236 235.132 102.892V106H233.632ZM239.837 104.572L239.873 102.688L243.221 99.592H245.021L242.177 102.448L241.385 103.108L239.837 104.572ZM238.613 106V97.096H240.113V106H238.613ZM243.449 106L241.109 103.108L242.057 101.908L245.273 106H243.449ZM248.023 106.084C247.487 106.084 246.971 106.016 246.475 105.88C245.987 105.736 245.599 105.564 245.311 105.364L245.887 104.224C246.175 104.408 246.519 104.56 246.919 104.68C247.319 104.8 247.719 104.86 248.119 104.86C248.591 104.86 248.931 104.796 249.139 104.668C249.355 104.54 249.463 104.368 249.463 104.152C249.463 103.976 249.391 103.844 249.247 103.756C249.103 103.66 248.915 103.588 248.683 103.54C248.451 103.492 248.191 103.448 247.903 103.408C247.623 103.368 247.339 103.316 247.051 103.252C246.771 103.18 246.515 103.08 246.283 102.952C246.051 102.816 245.863 102.636 245.719 102.412C245.575 102.188 245.503 101.892 245.503 101.524C245.503 101.116 245.619 100.764 245.851 100.468C246.083 100.164 246.407 99.932 246.823 99.772C247.247 99.604 247.747 99.52 248.323 99.52C248.755 99.52 249.191 99.568 249.631 99.664C250.071 99.76 250.435 99.896 250.723 100.072L250.147 101.212C249.843 101.028 249.535 100.904 249.223 100.84C248.919 100.768 248.615 100.732 248.311 100.732C247.855 100.732 247.515 100.8 247.291 100.936C247.075 101.072 246.967 101.244 246.967 101.452C246.967 101.644 247.039 101.788 247.183 101.884C247.327 101.98 247.515 102.056 247.747 102.112C247.979 102.168 248.235 102.216 248.515 102.256C248.803 102.288 249.087 102.34 249.367 102.412C249.647 102.484 249.903 102.584 250.135 102.712C250.375 102.832 250.567 103.004 250.711 103.228C250.855 103.452 250.927 103.744 250.927 104.104C250.927 104.504 250.807 104.852 250.567 105.148C250.335 105.444 250.003 105.676 249.571 105.844C249.139 106.004 248.623 106.084 248.023 106.084Z" fill="white"/>
</svg>
