<svg width="400" height="400" viewBox="0 0 400 400" fill="none" xmlns="http://www.w3.org/2000/svg">
<circle cx="200" cy="200" r="200" fill="#160763"/>
<path d="M109.491 66V45.392H114.643V66H109.491ZM117.898 66V50.832H122.698L122.858 52.144C123.476 51.7173 124.255 51.344 125.194 51.024C126.132 50.6827 127.135 50.512 128.202 50.512C130.164 50.512 131.594 50.9813 132.49 51.92C133.386 52.8587 133.834 54.3093 133.834 56.272V66H128.682V56.688C128.682 55.8347 128.5 55.2267 128.138 54.864C127.775 54.5013 127.124 54.32 126.186 54.32C125.631 54.32 125.066 54.448 124.49 54.704C123.914 54.96 123.434 55.28 123.05 55.664V66H117.898ZM142.561 66.32C141.345 66.32 140.193 66.2347 139.105 66.064C138.017 65.8933 137.153 65.68 136.513 65.424V61.488C137.26 61.808 138.124 62.0533 139.105 62.224C140.086 62.3947 140.961 62.48 141.729 62.48C142.646 62.48 143.308 62.4373 143.713 62.352C144.14 62.2667 144.353 62.032 144.353 61.648C144.353 61.2213 144.012 60.9013 143.329 60.688C142.646 60.4747 141.708 60.1653 140.513 59.76C139.126 59.2693 138.07 58.704 137.345 58.064C136.641 57.4027 136.289 56.432 136.289 55.152C136.289 53.6587 136.844 52.5173 137.953 51.728C139.084 50.9173 140.876 50.512 143.329 50.512C144.289 50.512 145.238 50.5867 146.177 50.736C147.116 50.8853 147.884 51.056 148.481 51.248V55.12C147.884 54.8427 147.201 54.64 146.433 54.512C145.665 54.384 144.972 54.32 144.353 54.32C143.564 54.32 142.892 54.3733 142.337 54.48C141.804 54.5653 141.537 54.7893 141.537 55.152C141.537 55.5573 141.836 55.8453 142.433 56.016C143.03 56.1653 143.894 56.4213 145.025 56.784C146.22 57.1467 147.148 57.5413 147.809 57.968C148.47 58.3733 148.94 58.864 149.217 59.44C149.494 60.016 149.633 60.7413 149.633 61.616C149.633 63.1307 149.036 64.2933 147.841 65.104C146.646 65.9147 144.886 66.32 142.561 66.32ZM158.013 66.32C156.135 66.32 154.749 65.84 153.853 64.88C152.978 63.92 152.541 62.5973 152.541 60.912V54.736H150.493V50.832H152.541V47.664L157.693 46.288V50.832H161.373L161.149 54.736H157.693V60.56C157.693 61.2853 157.874 61.7973 158.237 62.096C158.599 62.3733 159.143 62.512 159.869 62.512C160.487 62.512 161.117 62.4053 161.757 62.192V65.68C160.754 66.1067 159.506 66.32 158.013 66.32ZM168.477 66.32C167.517 66.32 166.621 66.1493 165.789 65.808C164.979 65.4667 164.328 64.944 163.837 64.24C163.347 63.5147 163.101 62.6187 163.101 61.552C163.101 59.9947 163.624 58.7787 164.669 57.904C165.736 57.008 167.325 56.56 169.437 56.56H173.661V56.208C173.661 55.44 173.405 54.896 172.893 54.576C172.381 54.2347 171.421 54.064 170.013 54.064C168.285 54.064 166.589 54.3307 164.925 54.864V51.536C165.672 51.2373 166.579 50.992 167.645 50.8C168.733 50.608 169.875 50.512 171.069 50.512C173.416 50.512 175.251 50.992 176.573 51.952C177.917 52.912 178.589 54.4373 178.589 56.528V66H174.077L173.821 64.72C173.267 65.232 172.552 65.6267 171.677 65.904C170.824 66.1813 169.757 66.32 168.477 66.32ZM170.109 63.152C170.92 63.152 171.624 63.0133 172.221 62.736C172.819 62.4587 173.299 62.1067 173.661 61.68V59.536H170.013C168.499 59.536 167.741 60.144 167.741 61.36C167.741 61.9147 167.933 62.352 168.317 62.672C168.701 62.992 169.299 63.152 170.109 63.152ZM186.351 66.32C184.687 66.32 183.492 65.9573 182.767 65.232C182.042 64.5067 181.679 63.344 181.679 61.744V44.432H186.831V61.232C186.831 61.7227 186.927 62.064 187.119 62.256C187.332 62.4267 187.642 62.512 188.047 62.512C188.623 62.512 189.135 62.4373 189.583 62.288V65.776C189.092 65.968 188.602 66.1067 188.111 66.192C187.642 66.2773 187.055 66.32 186.351 66.32ZM195.382 66.32C193.718 66.32 192.523 65.9573 191.798 65.232C191.073 64.5067 190.71 63.344 190.71 61.744V44.432H195.862V61.232C195.862 61.7227 195.958 62.064 196.15 62.256C196.363 62.4267 196.673 62.512 197.078 62.512C197.654 62.512 198.166 62.4373 198.614 62.288V65.776C198.123 65.968 197.633 66.1067 197.142 66.192C196.673 66.2773 196.086 66.32 195.382 66.32ZM205.29 66.32C204.33 66.32 203.434 66.1493 202.602 65.808C201.791 65.4667 201.141 64.944 200.65 64.24C200.159 63.5147 199.914 62.6187 199.914 61.552C199.914 59.9947 200.437 58.7787 201.482 57.904C202.549 57.008 204.138 56.56 206.25 56.56H210.474V56.208C210.474 55.44 210.218 54.896 209.706 54.576C209.194 54.2347 208.234 54.064 206.826 54.064C205.098 54.064 203.402 54.3307 201.738 54.864V51.536C202.485 51.2373 203.391 50.992 204.458 50.8C205.546 50.608 206.687 50.512 207.882 50.512C210.229 50.512 212.063 50.992 213.386 51.952C214.73 52.912 215.402 54.4373 215.402 56.528V66H210.89L210.634 64.72C210.079 65.232 209.365 65.6267 208.49 65.904C207.637 66.1813 206.57 66.32 205.29 66.32ZM206.922 63.152C207.733 63.152 208.437 63.0133 209.034 62.736C209.631 62.4587 210.111 62.1067 210.474 61.68V59.536H206.826C205.311 59.536 204.554 60.144 204.554 61.36C204.554 61.9147 204.746 62.352 205.13 62.672C205.514 62.992 206.111 63.152 206.922 63.152ZM224.731 66.32C222.854 66.32 221.467 65.84 220.571 64.88C219.697 63.92 219.259 62.5973 219.259 60.912V54.736H217.211V50.832H219.259V47.664L224.411 46.288V50.832H228.091L227.867 54.736H224.411V60.56C224.411 61.2853 224.593 61.7973 224.955 62.096C225.318 62.3733 225.862 62.512 226.587 62.512C227.206 62.512 227.835 62.4053 228.475 62.192V65.68C227.473 66.1067 226.225 66.32 224.731 66.32ZM231.484 48.432V44.56H237.084V48.432H231.484ZM231.9 66V54.64H229.66L230.108 50.832H237.052V66H231.9ZM248.239 66.32C245.316 66.32 243.162 65.648 241.775 64.304C240.388 62.9387 239.695 60.976 239.695 58.416C239.695 55.8773 240.388 53.9253 241.775 52.56C243.183 51.1947 245.338 50.512 248.239 50.512C251.162 50.512 253.316 51.1947 254.703 52.56C256.111 53.9253 256.815 55.8773 256.815 58.416C256.815 60.976 256.122 62.9387 254.735 64.304C253.348 65.648 251.183 66.32 248.239 66.32ZM248.239 62.288C249.434 62.288 250.287 61.9893 250.799 61.392C251.311 60.7947 251.567 59.8027 251.567 58.416C251.567 57.0293 251.311 56.0373 250.799 55.44C250.287 54.8427 249.434 54.544 248.239 54.544C247.066 54.544 246.223 54.8427 245.711 55.44C245.199 56.0373 244.943 57.0293 244.943 58.416C244.943 59.8027 245.199 60.7947 245.711 61.392C246.223 61.9893 247.066 62.288 248.239 62.288ZM259.429 66V50.832H264.229L264.389 52.144C265.008 51.7173 265.786 51.344 266.725 51.024C267.664 50.6827 268.666 50.512 269.733 50.512C271.696 50.512 273.125 50.9813 274.021 51.92C274.917 52.8587 275.365 54.3093 275.365 56.272V66H270.213V56.688C270.213 55.8347 270.032 55.2267 269.669 54.864C269.306 54.5013 268.656 54.32 267.717 54.32C267.162 54.32 266.597 54.448 266.021 54.704C265.445 54.96 264.965 55.28 264.581 55.664V66H259.429ZM284.092 66.32C282.876 66.32 281.724 66.2347 280.636 66.064C279.548 65.8933 278.684 65.68 278.044 65.424V61.488C278.791 61.808 279.655 62.0533 280.636 62.224C281.617 62.3947 282.492 62.48 283.26 62.48C284.177 62.48 284.839 62.4373 285.244 62.352C285.671 62.2667 285.884 62.032 285.884 61.648C285.884 61.2213 285.543 60.9013 284.86 60.688C284.177 60.4747 283.239 60.1653 282.044 59.76C280.657 59.2693 279.601 58.704 278.876 58.064C278.172 57.4027 277.82 56.432 277.82 55.152C277.82 53.6587 278.375 52.5173 279.484 51.728C280.615 50.9173 282.407 50.512 284.86 50.512C285.82 50.512 286.769 50.5867 287.708 50.736C288.647 50.8853 289.415 51.056 290.012 51.248V55.12C289.415 54.8427 288.732 54.64 287.964 54.512C287.196 54.384 286.503 54.32 285.884 54.32C285.095 54.32 284.423 54.3733 283.868 54.48C283.335 54.5653 283.068 54.7893 283.068 55.152C283.068 55.5573 283.367 55.8453 283.964 56.016C284.561 56.1653 285.425 56.4213 286.556 56.784C287.751 57.1467 288.679 57.5413 289.34 57.968C290.001 58.3733 290.471 58.864 290.748 59.44C291.025 60.016 291.164 60.7413 291.164 61.616C291.164 63.1307 290.567 64.2933 289.372 65.104C288.177 65.9147 286.417 66.32 284.092 66.32Z" fill="white"/>
<path d="M103.68 97V86.696H110.688V88.056H105.424V91.176H110.096V92.52H105.424V97H103.68ZM111.508 97V89.416H113.108L113.204 90.296C113.567 90.0613 113.999 89.848 114.5 89.656C115.001 89.464 115.497 89.3307 115.988 89.256V90.584C115.689 90.6373 115.364 90.7173 115.012 90.824C114.671 90.92 114.345 91.032 114.036 91.16C113.727 91.2773 113.465 91.4 113.252 91.528V97H111.508ZM120.786 97.16C119.463 97.16 118.439 96.8347 117.714 96.184C116.988 95.5333 116.626 94.536 116.626 93.192C116.626 91.976 116.935 91.016 117.554 90.312C118.172 89.608 119.111 89.256 120.37 89.256C121.522 89.256 122.386 89.56 122.962 90.168C123.548 90.7653 123.842 91.5387 123.842 92.488V93.896H118.289C118.375 94.632 118.642 95.1387 119.09 95.416C119.538 95.6933 120.22 95.832 121.138 95.832C121.522 95.832 121.916 95.7947 122.322 95.72C122.727 95.6453 123.079 95.5493 123.378 95.432V96.712C123.036 96.8613 122.642 96.9733 122.194 97.048C121.756 97.1227 121.287 97.16 120.786 97.16ZM118.289 92.76H122.306V92.232C122.306 91.7093 122.162 91.304 121.874 91.016C121.586 90.7173 121.1 90.568 120.418 90.568C119.607 90.568 119.047 90.744 118.738 91.096C118.439 91.448 118.289 92.0027 118.289 92.76ZM129.379 97.16C128.057 97.16 127.033 96.8347 126.307 96.184C125.582 95.5333 125.219 94.536 125.219 93.192C125.219 91.976 125.529 91.016 126.147 90.312C126.766 89.608 127.705 89.256 128.963 89.256C130.115 89.256 130.979 89.56 131.555 90.168C132.142 90.7653 132.435 91.5387 132.435 92.488V93.896H126.883C126.969 94.632 127.235 95.1387 127.683 95.416C128.131 95.6933 128.814 95.832 129.731 95.832C130.115 95.832 130.51 95.7947 130.915 95.72C131.321 95.6453 131.673 95.5493 131.971 95.432V96.712C131.63 96.8613 131.235 96.9733 130.787 97.048C130.35 97.1227 129.881 97.16 129.379 97.16ZM126.883 92.76H130.899V92.232C130.899 91.7093 130.755 91.304 130.467 91.016C130.179 90.7173 129.694 90.568 129.011 90.568C128.201 90.568 127.641 90.744 127.331 91.096C127.033 91.448 126.883 92.0027 126.883 92.76ZM136.021 97.16C135.402 97.16 134.933 97.0107 134.613 96.712C134.293 96.4027 134.133 95.896 134.133 95.192V86.216H135.877V95.032C135.877 95.3307 135.93 95.5333 136.037 95.64C136.144 95.7467 136.304 95.8 136.517 95.8C136.773 95.8 137.018 95.768 137.253 95.704V96.968C137.05 97.0427 136.853 97.0907 136.661 97.112C136.48 97.144 136.266 97.16 136.021 97.16ZM140.985 97.16C140.505 97.16 140.057 97.0747 139.641 96.904C139.236 96.7333 138.911 96.4773 138.665 96.136C138.42 95.784 138.297 95.352 138.297 94.84C138.297 94.1147 138.543 93.5333 139.033 93.096C139.535 92.648 140.303 92.424 141.337 92.424H143.769V92.088C143.769 91.7253 143.711 91.4373 143.593 91.224C143.487 91.0107 143.284 90.856 142.985 90.76C142.697 90.664 142.271 90.616 141.705 90.616C140.809 90.616 139.972 90.7493 139.193 91.016V89.72C139.535 89.5813 139.951 89.4693 140.441 89.384C140.932 89.2987 141.46 89.256 142.025 89.256C143.135 89.256 143.977 89.48 144.553 89.928C145.14 90.376 145.433 91.1067 145.433 92.12V97H143.945L143.833 96.232C143.524 96.5307 143.14 96.76 142.681 96.92C142.233 97.08 141.668 97.16 140.985 97.16ZM141.449 95.912C141.972 95.912 142.425 95.8267 142.809 95.656C143.204 95.4747 143.524 95.2347 143.769 94.936V93.608H141.369C140.857 93.608 140.484 93.7093 140.249 93.912C140.025 94.104 139.913 94.4027 139.913 94.808C139.913 95.2027 140.047 95.4853 140.313 95.656C140.58 95.8267 140.959 95.912 141.449 95.912ZM147.367 97V89.416H148.967L149.047 90.216C149.389 89.9493 149.794 89.7253 150.263 89.544C150.743 89.352 151.271 89.256 151.847 89.256C152.829 89.256 153.543 89.4853 153.991 89.944C154.439 90.4027 154.663 91.1173 154.663 92.088V97H152.935V92.168C152.935 91.5813 152.813 91.1707 152.567 90.936C152.333 90.7013 151.885 90.584 151.223 90.584C150.829 90.584 150.439 90.664 150.055 90.824C149.682 90.984 149.367 91.192 149.111 91.448V97H147.367ZM160.189 97.16C158.856 97.16 157.848 96.824 157.165 96.152C156.482 95.4693 156.141 94.488 156.141 93.208C156.141 91.8747 156.514 90.8827 157.261 90.232C158.018 89.5813 159.026 89.256 160.285 89.256C160.808 89.256 161.245 89.2933 161.597 89.368C161.96 89.4427 162.306 89.56 162.637 89.72V91.016C162.082 90.7387 161.41 90.6 160.621 90.6C159.746 90.6 159.074 90.7973 158.605 91.192C158.136 91.576 157.901 92.248 157.901 93.208C157.901 94.1147 158.109 94.7813 158.525 95.208C158.941 95.624 159.629 95.832 160.589 95.832C161.346 95.832 162.034 95.688 162.653 95.4V96.728C162.301 96.8667 161.922 96.9733 161.517 97.048C161.122 97.1227 160.68 97.16 160.189 97.16ZM167.879 97.16C166.557 97.16 165.533 96.8347 164.807 96.184C164.082 95.5333 163.719 94.536 163.719 93.192C163.719 91.976 164.029 91.016 164.647 90.312C165.266 89.608 166.205 89.256 167.463 89.256C168.615 89.256 169.479 89.56 170.055 90.168C170.642 90.7653 170.935 91.5387 170.935 92.488V93.896H165.383C165.469 94.632 165.735 95.1387 166.183 95.416C166.631 95.6933 167.314 95.832 168.231 95.832C168.615 95.832 169.01 95.7947 169.415 95.72C169.821 95.6453 170.173 95.5493 170.471 95.432V96.712C170.13 96.8613 169.735 96.9733 169.287 97.048C168.85 97.1227 168.381 97.16 167.879 97.16ZM165.383 92.76H169.399V92.232C169.399 91.7093 169.255 91.304 168.967 91.016C168.679 90.7173 168.194 90.568 167.511 90.568C166.701 90.568 166.141 90.744 165.831 91.096C165.533 91.448 165.383 92.0027 165.383 92.76ZM179.681 97.16C178.571 97.16 177.681 96.92 177.009 96.44C176.337 95.9493 176.001 95.2987 176.001 94.488C176.001 93.7627 176.214 93.1493 176.641 92.648C177.078 92.1467 177.67 91.6933 178.417 91.288C178.001 90.9147 177.665 90.5467 177.409 90.184C177.163 89.8213 177.041 89.3947 177.041 88.904C177.041 88.232 177.281 87.672 177.761 87.224C178.241 86.7653 178.902 86.536 179.745 86.536C180.577 86.536 181.227 86.7547 181.697 87.192C182.177 87.6187 182.417 88.1893 182.417 88.904C182.417 89.4587 182.283 89.9333 182.017 90.328C181.75 90.7227 181.323 91.112 180.737 91.496L183.105 93.912C183.275 93.5493 183.361 93.1227 183.361 92.632V92.36H184.689V92.664C184.689 93.0693 184.635 93.4693 184.529 93.864C184.422 94.248 184.278 94.584 184.097 94.872L185.393 96.184L184.337 97.144L183.185 95.992C182.79 96.3973 182.294 96.696 181.697 96.888C181.099 97.0693 180.427 97.16 179.681 97.16ZM179.649 90.744C180.107 90.4453 180.449 90.1787 180.673 89.944C180.897 89.7093 181.009 89.3893 181.009 88.984C181.009 88.6107 180.907 88.3173 180.705 88.104C180.513 87.88 180.193 87.768 179.745 87.768C179.286 87.768 178.955 87.8853 178.753 88.12C178.55 88.3547 178.449 88.6427 178.449 88.984C178.449 89.3147 178.545 89.6133 178.737 89.88C178.939 90.136 179.243 90.424 179.649 90.744ZM179.681 95.944C180.747 95.944 181.563 95.64 182.129 95.032L179.457 92.328C178.859 92.5733 178.411 92.8667 178.113 93.208C177.825 93.5387 177.681 93.9547 177.681 94.456C177.681 94.9467 177.867 95.32 178.241 95.576C178.614 95.8213 179.094 95.944 179.681 95.944ZM195.528 97.16C193.832 97.16 192.546 96.696 191.672 95.768C190.808 94.84 190.376 93.5867 190.376 92.008C190.376 90.8773 190.557 89.9067 190.92 89.096C191.293 88.2747 191.858 87.6453 192.616 87.208C193.373 86.76 194.338 86.536 195.512 86.536C196.109 86.536 196.653 86.584 197.144 86.68C197.645 86.7653 198.109 86.8827 198.536 87.032V88.552C198.109 88.3813 197.65 88.2533 197.16 88.168C196.68 88.072 196.173 88.024 195.64 88.024C194.36 88.024 193.453 88.3653 192.92 89.048C192.397 89.7307 192.136 90.7173 192.136 92.008C192.136 93.2133 192.424 94.1307 193 94.76C193.576 95.3787 194.466 95.688 195.672 95.688C196.162 95.688 196.653 95.6507 197.144 95.576C197.645 95.4907 198.114 95.3627 198.552 95.192V96.728C198.125 96.8667 197.661 96.9733 197.16 97.048C196.669 97.1227 196.125 97.16 195.528 97.16ZM203.828 97.16C202.462 97.16 201.46 96.8187 200.82 96.136C200.19 95.4533 199.876 94.4773 199.876 93.208C199.876 91.9387 200.196 90.9627 200.836 90.28C201.476 89.5973 202.473 89.256 203.828 89.256C205.193 89.256 206.196 89.5973 206.836 90.28C207.476 90.9627 207.796 91.9387 207.796 93.208C207.796 94.4773 207.476 95.4533 206.836 96.136C206.206 96.8187 205.204 97.16 203.828 97.16ZM203.828 95.688C204.628 95.688 205.193 95.496 205.524 95.112C205.865 94.7173 206.036 94.0827 206.036 93.208C206.036 92.3333 205.865 91.704 205.524 91.32C205.193 90.936 204.628 90.744 203.828 90.744C203.038 90.744 202.473 90.936 202.132 91.32C201.801 91.704 201.636 92.3333 201.636 93.208C201.636 94.0827 201.801 94.7173 202.132 95.112C202.473 95.496 203.038 95.688 203.828 95.688ZM209.492 97V89.416H211.092L211.172 90.216C211.546 89.9173 211.956 89.6827 212.404 89.512C212.852 89.3413 213.332 89.256 213.844 89.256C214.388 89.256 214.81 89.3467 215.108 89.528C215.418 89.6987 215.652 89.9387 215.812 90.248C216.164 89.96 216.57 89.7253 217.028 89.544C217.487 89.352 218.036 89.256 218.676 89.256C219.551 89.256 220.196 89.48 220.612 89.928C221.028 90.376 221.236 91.064 221.236 91.992V97H219.524V92.168C219.524 91.5813 219.402 91.1707 219.156 90.936C218.911 90.7013 218.511 90.584 217.956 90.584C217.594 90.584 217.247 90.648 216.916 90.776C216.596 90.904 216.319 91.096 216.084 91.352C216.116 91.4693 216.138 91.592 216.148 91.72C216.159 91.848 216.164 91.9867 216.164 92.136V97H214.548V92.184C214.548 91.6293 214.452 91.224 214.26 90.968C214.068 90.712 213.706 90.584 213.172 90.584C212.799 90.584 212.442 90.6747 212.1 90.856C211.77 91.0267 211.471 91.2347 211.204 91.48V97H209.492ZM223.196 100.456V89.416H224.7L224.796 90.168C225.137 89.8587 225.51 89.6293 225.916 89.48C226.321 89.3307 226.801 89.256 227.356 89.256C228.444 89.256 229.292 89.5547 229.9 90.152C230.508 90.7387 230.812 91.7147 230.812 93.08C230.812 94.4453 230.497 95.4693 229.868 96.152C229.238 96.824 228.38 97.16 227.292 97.16C226.374 97.16 225.59 96.9467 224.94 96.52V100.456H223.196ZM226.844 95.848C228.316 95.848 229.052 94.92 229.052 93.064C229.052 92.168 228.886 91.5333 228.556 91.16C228.225 90.776 227.67 90.584 226.891 90.584C226.113 90.584 225.462 90.8507 224.94 91.384V95.176C225.185 95.3787 225.457 95.544 225.756 95.672C226.065 95.7893 226.428 95.848 226.844 95.848ZM236.348 97.16C235.025 97.16 234.001 96.8347 233.276 96.184C232.551 95.5333 232.188 94.536 232.188 93.192C232.188 91.976 232.497 91.016 233.116 90.312C233.735 89.608 234.673 89.256 235.932 89.256C237.084 89.256 237.948 89.56 238.524 90.168C239.111 90.7653 239.404 91.5387 239.404 92.488V93.896H233.852C233.937 94.632 234.204 95.1387 234.652 95.416C235.1 95.6933 235.783 95.832 236.7 95.832C237.084 95.832 237.479 95.7947 237.884 95.72C238.289 95.6453 238.641 95.5493 238.94 95.432V96.712C238.599 96.8613 238.204 96.9733 237.756 97.048C237.319 97.1227 236.849 97.16 236.348 97.16ZM233.852 92.76H237.868V92.232C237.868 91.7093 237.724 91.304 237.436 91.016C237.148 90.7173 236.663 90.568 235.98 90.568C235.169 90.568 234.609 90.744 234.3 91.096C234.001 91.448 233.852 92.0027 233.852 92.76ZM243.998 97.16C243.187 97.16 242.579 96.9467 242.174 96.52C241.779 96.0827 241.582 95.4907 241.582 94.744V90.776H240.462V89.416H241.582V87.672L243.31 87.144V89.416H245.326L245.214 90.776H243.31V94.648C243.31 95.0853 243.411 95.3947 243.614 95.576C243.816 95.7467 244.147 95.832 244.606 95.832C244.894 95.832 245.198 95.7787 245.518 95.672V96.904C245.102 97.0747 244.595 97.16 243.998 97.16ZM247.492 87.832V86.392H249.396V87.832H247.492ZM247.636 97V90.744H246.484L246.644 89.416H249.38V97H247.636ZM254.31 97.16C253.5 97.16 252.892 96.9467 252.486 96.52C252.092 96.0827 251.894 95.4907 251.894 94.744V90.776H250.774V89.416H251.894V87.672L253.622 87.144V89.416H255.638L255.526 90.776H253.622V94.648C253.622 95.0853 253.724 95.3947 253.926 95.576C254.129 95.7467 254.46 95.832 254.918 95.832C255.206 95.832 255.51 95.7787 255.83 95.672V96.904C255.414 97.0747 254.908 97.16 254.31 97.16ZM257.804 87.832V86.392H259.708V87.832H257.804ZM257.948 97V90.744H256.796L256.956 89.416H259.692V97H257.948ZM265.359 97.16C263.993 97.16 262.991 96.8187 262.351 96.136C261.721 95.4533 261.407 94.4773 261.407 93.208C261.407 91.9387 261.727 90.9627 262.367 90.28C263.007 89.5973 264.004 89.256 265.359 89.256C266.724 89.256 267.727 89.5973 268.367 90.28C269.007 90.9627 269.327 91.9387 269.327 93.208C269.327 94.4773 269.007 95.4533 268.367 96.136C267.737 96.8187 266.735 97.16 265.359 97.16ZM265.359 95.688C266.159 95.688 266.724 95.496 267.055 95.112C267.396 94.7173 267.567 94.0827 267.567 93.208C267.567 92.3333 267.396 91.704 267.055 91.32C266.724 90.936 266.159 90.744 265.359 90.744C264.569 90.744 264.004 90.936 263.663 91.32C263.332 91.704 263.167 92.3333 263.167 93.208C263.167 94.0827 263.332 94.7173 263.663 95.112C264.004 95.496 264.569 95.688 265.359 95.688ZM271.024 97V89.416H272.624L272.704 90.216C273.045 89.9493 273.45 89.7253 273.92 89.544C274.4 89.352 274.928 89.256 275.504 89.256C276.485 89.256 277.2 89.4853 277.648 89.944C278.096 90.4027 278.32 91.1173 278.32 92.088V97H276.592V92.168C276.592 91.5813 276.469 91.1707 276.224 90.936C275.989 90.7013 275.541 90.584 274.88 90.584C274.485 90.584 274.096 90.664 273.712 90.824C273.338 90.984 273.024 91.192 272.768 91.448V97H271.024ZM287.321 97.16C286.212 97.16 285.321 96.92 284.649 96.44C283.977 95.9493 283.641 95.2987 283.641 94.488C283.641 93.7627 283.854 93.1493 284.281 92.648C284.718 92.1467 285.31 91.6933 286.057 91.288C285.641 90.9147 285.305 90.5467 285.049 90.184C284.804 89.8213 284.681 89.3947 284.681 88.904C284.681 88.232 284.921 87.672 285.401 87.224C285.881 86.7653 286.542 86.536 287.385 86.536C288.217 86.536 288.868 86.7547 289.337 87.192C289.817 87.6187 290.057 88.1893 290.057 88.904C290.057 89.4587 289.924 89.9333 289.657 90.328C289.39 90.7227 288.964 91.112 288.377 91.496L290.745 93.912C290.916 93.5493 291.001 93.1227 291.001 92.632V92.36H292.329V92.664C292.329 93.0693 292.276 93.4693 292.169 93.864C292.062 94.248 291.918 94.584 291.737 94.872L293.033 96.184L291.977 97.144L290.825 95.992C290.43 96.3973 289.934 96.696 289.337 96.888C288.74 97.0693 288.068 97.16 287.321 97.16ZM287.289 90.744C287.748 90.4453 288.089 90.1787 288.313 89.944C288.537 89.7093 288.649 89.3893 288.649 88.984C288.649 88.6107 288.548 88.3173 288.345 88.104C288.153 87.88 287.833 87.768 287.385 87.768C286.926 87.768 286.596 87.8853 286.393 88.12C286.19 88.3547 286.089 88.6427 286.089 88.984C286.089 89.3147 286.185 89.6133 286.377 89.88C286.58 90.136 286.884 90.424 287.289 90.744ZM287.321 95.944C288.388 95.944 289.204 95.64 289.769 95.032L287.097 92.328C286.5 92.5733 286.052 92.8667 285.753 93.208C285.465 93.5387 285.321 93.9547 285.321 94.456C285.321 94.9467 285.508 95.32 285.881 95.576C286.254 95.8213 286.734 95.944 287.321 95.944ZM142.798 121L146.734 110.696H148.686L152.59 121H150.798L149.774 118.344H145.63L144.606 121H142.798ZM145.902 117H149.486L147.694 112.28L145.902 117ZM157.314 121.16C155.981 121.16 154.973 120.824 154.29 120.152C153.607 119.469 153.266 118.488 153.266 117.208C153.266 115.875 153.639 114.883 154.386 114.232C155.143 113.581 156.151 113.256 157.41 113.256C157.933 113.256 158.37 113.293 158.722 113.368C159.085 113.443 159.431 113.56 159.762 113.72V115.016C159.207 114.739 158.535 114.6 157.746 114.6C156.871 114.6 156.199 114.797 155.73 115.192C155.261 115.576 155.026 116.248 155.026 117.208C155.026 118.115 155.234 118.781 155.65 119.208C156.066 119.624 156.754 119.832 157.714 119.832C158.471 119.832 159.159 119.688 159.778 119.4V120.728C159.426 120.867 159.047 120.973 158.642 121.048C158.247 121.123 157.805 121.16 157.314 121.16ZM163.532 121.16C163.052 121.16 162.604 121.075 162.188 120.904C161.783 120.733 161.458 120.477 161.212 120.136C160.967 119.784 160.844 119.352 160.844 118.84C160.844 118.115 161.09 117.533 161.58 117.096C162.082 116.648 162.85 116.424 163.884 116.424H166.316V116.088C166.316 115.725 166.258 115.437 166.14 115.224C166.034 115.011 165.831 114.856 165.532 114.76C165.244 114.664 164.818 114.616 164.252 114.616C163.356 114.616 162.519 114.749 161.74 115.016V113.72C162.082 113.581 162.498 113.469 162.988 113.384C163.479 113.299 164.007 113.256 164.572 113.256C165.682 113.256 166.524 113.48 167.1 113.928C167.687 114.376 167.98 115.107 167.98 116.12V121H166.492L166.38 120.232C166.071 120.531 165.687 120.76 165.228 120.92C164.78 121.08 164.215 121.16 163.532 121.16ZM163.996 119.912C164.519 119.912 164.972 119.827 165.356 119.656C165.751 119.475 166.071 119.235 166.316 118.936V117.608H163.916C163.404 117.608 163.031 117.709 162.796 117.912C162.572 118.104 162.46 118.403 162.46 118.808C162.46 119.203 162.594 119.485 162.86 119.656C163.127 119.827 163.506 119.912 163.996 119.912ZM173.05 121.16C172.368 121.16 171.765 121.043 171.242 120.808C170.72 120.573 170.314 120.184 170.026 119.64C169.738 119.096 169.594 118.365 169.594 117.448C169.594 116.541 169.749 115.779 170.058 115.16C170.368 114.531 170.794 114.056 171.338 113.736C171.893 113.416 172.517 113.256 173.21 113.256C173.669 113.256 174.074 113.309 174.426 113.416C174.789 113.523 175.136 113.688 175.466 113.912V110.216H177.21V121H175.722L175.61 120.248C175.269 120.557 174.896 120.787 174.49 120.936C174.085 121.085 173.605 121.16 173.05 121.16ZM173.514 119.848C174.293 119.848 174.944 119.581 175.466 119.048V115.256C174.965 114.808 174.336 114.584 173.578 114.584C172.842 114.584 172.288 114.829 171.914 115.32C171.541 115.811 171.354 116.525 171.354 117.464C171.354 118.371 171.525 118.995 171.866 119.336C172.218 119.677 172.768 119.848 173.514 119.848ZM182.911 121.16C181.588 121.16 180.564 120.835 179.839 120.184C179.113 119.533 178.751 118.536 178.751 117.192C178.751 115.976 179.06 115.016 179.679 114.312C180.297 113.608 181.236 113.256 182.495 113.256C183.647 113.256 184.511 113.56 185.087 114.168C185.673 114.765 185.967 115.539 185.967 116.488V117.896H180.414C180.5 118.632 180.767 119.139 181.215 119.416C181.663 119.693 182.345 119.832 183.263 119.832C183.647 119.832 184.041 119.795 184.447 119.72C184.852 119.645 185.204 119.549 185.503 119.432V120.712C185.161 120.861 184.767 120.973 184.319 121.048C183.881 121.123 183.412 121.16 182.911 121.16ZM180.414 116.76H184.431V116.232C184.431 115.709 184.287 115.304 183.999 115.016C183.711 114.717 183.225 114.568 182.543 114.568C181.732 114.568 181.172 114.744 180.863 115.096C180.564 115.448 180.414 116.003 180.414 116.76ZM187.664 121V113.416H189.264L189.344 114.216C189.718 113.917 190.128 113.683 190.576 113.512C191.024 113.341 191.504 113.256 192.016 113.256C192.56 113.256 192.982 113.347 193.28 113.528C193.59 113.699 193.824 113.939 193.984 114.248C194.336 113.96 194.742 113.725 195.2 113.544C195.659 113.352 196.208 113.256 196.848 113.256C197.723 113.256 198.368 113.48 198.784 113.928C199.2 114.376 199.408 115.064 199.408 115.992V121H197.696V116.168C197.696 115.581 197.574 115.171 197.328 114.936C197.083 114.701 196.683 114.584 196.128 114.584C195.766 114.584 195.419 114.648 195.088 114.776C194.768 114.904 194.491 115.096 194.256 115.352C194.288 115.469 194.31 115.592 194.32 115.72C194.331 115.848 194.336 115.987 194.336 116.136V121H192.72V116.184C192.72 115.629 192.624 115.224 192.432 114.968C192.24 114.712 191.878 114.584 191.344 114.584C190.971 114.584 190.614 114.675 190.272 114.856C189.942 115.027 189.643 115.235 189.376 115.48V121H187.664ZM202.007 111.832V110.392H203.911V111.832H202.007ZM202.151 121V114.744H200.999L201.159 113.416H203.895V121H202.151ZM209.658 121.16C208.325 121.16 207.317 120.824 206.634 120.152C205.951 119.469 205.61 118.488 205.61 117.208C205.61 115.875 205.983 114.883 206.73 114.232C207.487 113.581 208.495 113.256 209.754 113.256C210.277 113.256 210.714 113.293 211.066 113.368C211.429 113.443 211.775 113.56 212.106 113.72V115.016C211.551 114.739 210.879 114.6 210.09 114.6C209.215 114.6 208.543 114.797 208.074 115.192C207.605 115.576 207.37 116.248 207.37 117.208C207.37 118.115 207.578 118.781 207.994 119.208C208.41 119.624 209.098 119.832 210.058 119.832C210.815 119.832 211.503 119.688 212.122 119.4V120.728C211.77 120.867 211.391 120.973 210.986 121.048C210.591 121.123 210.149 121.16 209.658 121.16ZM218.876 121L216.876 113.416H218.62L219.932 118.936L221.42 114.344V113.416H222.748L224.396 118.936L225.708 113.416H227.436L225.452 121H223.804L222.188 116.04L220.54 121H218.876ZM232.046 121.16C230.681 121.16 229.678 120.819 229.038 120.136C228.409 119.453 228.094 118.477 228.094 117.208C228.094 115.939 228.414 114.963 229.054 114.28C229.694 113.597 230.692 113.256 232.046 113.256C233.412 113.256 234.414 113.597 235.054 114.28C235.694 114.963 236.014 115.939 236.014 117.208C236.014 118.477 235.694 119.453 235.054 120.136C234.425 120.819 233.422 121.16 232.046 121.16ZM232.046 119.688C232.846 119.688 233.412 119.496 233.742 119.112C234.084 118.717 234.254 118.083 234.254 117.208C234.254 116.333 234.084 115.704 233.742 115.32C233.412 114.936 232.846 114.744 232.046 114.744C231.257 114.744 230.692 114.936 230.35 115.32C230.02 115.704 229.854 116.333 229.854 117.208C229.854 118.083 230.02 118.717 230.35 119.112C230.692 119.496 231.257 119.688 232.046 119.688ZM237.711 121V113.416H239.311L239.407 114.296C239.77 114.061 240.202 113.848 240.703 113.656C241.204 113.464 241.7 113.331 242.191 113.256V114.584C241.892 114.637 241.567 114.717 241.215 114.824C240.874 114.92 240.548 115.032 240.239 115.16C239.93 115.277 239.668 115.4 239.455 115.528V121H237.711ZM243.461 121V110.216H245.205V116.456L248.389 113.416H250.389L247.301 116.472L250.565 121H248.725L246.213 117.4L245.205 118.36V121H243.461ZM254.02 121.16C253.498 121.16 252.996 121.123 252.516 121.048C252.047 120.973 251.658 120.883 251.348 120.776V119.304C251.711 119.443 252.111 119.549 252.548 119.624C252.986 119.699 253.402 119.736 253.796 119.736C254.394 119.736 254.82 119.683 255.076 119.576C255.332 119.469 255.46 119.261 255.46 118.952C255.46 118.728 255.38 118.552 255.22 118.424C255.071 118.296 254.842 118.179 254.532 118.072C254.234 117.965 253.85 117.837 253.38 117.688C252.932 117.539 252.543 117.379 252.212 117.208C251.882 117.027 251.626 116.797 251.444 116.52C251.263 116.243 251.172 115.88 251.172 115.432C251.172 114.739 251.423 114.205 251.924 113.832C252.426 113.448 253.231 113.256 254.34 113.256C254.778 113.256 255.194 113.288 255.588 113.352C255.983 113.416 256.319 113.496 256.596 113.592V115.048C256.298 114.931 255.967 114.84 255.604 114.776C255.252 114.712 254.922 114.68 254.612 114.68C254.058 114.68 253.636 114.728 253.348 114.824C253.071 114.92 252.932 115.112 252.932 115.4C252.932 115.699 253.076 115.912 253.364 116.04C253.663 116.157 254.138 116.323 254.788 116.536C255.386 116.717 255.86 116.909 256.212 117.112C256.564 117.315 256.815 117.56 256.964 117.848C257.124 118.125 257.204 118.488 257.204 118.936C257.204 119.683 256.932 120.243 256.388 120.616C255.844 120.979 255.055 121.16 254.02 121.16Z" fill="white"/>
</svg>
