<svg width="400" height="400" viewBox="0 0 400 400" fill="none" xmlns="http://www.w3.org/2000/svg">
<circle cx="200" cy="200" r="200" fill="#160763"/>
<path d="M107.863 44.6H117.623V45.208H115.863V66.392H117.623V67H107.863V66.392H109.623V45.208H107.863V44.6ZM118.822 51.768H126.534V54.712C126.875 53.7307 127.398 52.9413 128.102 52.344C128.806 51.7467 129.872 51.448 131.302 51.448C134.608 51.448 136.262 53.2293 136.262 56.792V66.424H138.054V67H128.998V66.424H130.31V56.024C130.31 54.744 130.224 53.9227 130.054 53.56C129.883 53.176 129.574 52.984 129.126 52.984C128.443 52.984 127.835 53.432 127.302 54.328C126.79 55.224 126.534 56.312 126.534 57.592V66.424H127.91V67H118.822V66.424H120.582V52.344H118.822V51.768ZM139.212 67.32V61.592H139.596C140.151 63.448 140.898 64.7493 141.836 65.496C142.775 66.2427 143.948 66.616 145.356 66.616C147.532 66.616 148.62 65.9227 148.62 64.536C148.62 63.9387 148.354 63.4907 147.82 63.192C146.988 62.7227 145.922 62.36 144.62 62.104C143.17 61.72 141.954 61.208 140.972 60.568C139.799 59.8 139.212 58.584 139.212 56.92C139.212 55.256 139.724 53.9333 140.748 52.952C141.772 51.9493 143.138 51.448 144.844 51.448C145.89 51.448 146.967 51.6933 148.076 52.184C148.482 52.3547 148.791 52.44 149.004 52.44C149.218 52.44 149.399 52.3653 149.548 52.216C149.698 52.0667 149.879 51.7893 150.092 51.384H150.444V56.28H150.06C148.972 53.5067 147.287 52.12 145.004 52.12C144.002 52.12 143.255 52.3013 142.764 52.664C142.274 53.0053 142.028 53.4427 142.028 53.976C142.028 54.296 142.103 54.552 142.252 54.744C142.402 54.9147 142.519 55.0427 142.604 55.128C142.69 55.2133 142.828 55.3093 143.02 55.416C143.212 55.5013 143.372 55.576 143.5 55.64C143.628 55.6827 143.82 55.7467 144.076 55.832C144.354 55.9173 144.556 55.9707 144.684 55.992C146.135 56.3547 147.18 56.6747 147.82 56.952C148.46 57.208 149.068 57.528 149.644 57.912C150.818 58.7227 151.404 60.0347 151.404 61.848C151.404 63.64 150.871 65.0053 149.804 65.944C148.738 66.8613 147.276 67.32 145.42 67.32C144.098 67.32 142.818 67.0107 141.58 66.392C141.324 66.2213 141.122 66.136 140.972 66.136C140.503 66.136 140.044 66.5307 139.596 67.32H139.212ZM153.639 62.424V52.344H151.879V51.768H153.639V47.64L159.591 46.168V51.768H163.751V52.344H159.591V63.128C159.591 64.1307 159.687 64.8667 159.879 65.336C160.092 65.8053 160.519 66.04 161.159 66.04C161.799 66.04 162.353 65.72 162.823 65.08C163.313 64.44 163.633 63.5653 163.783 62.456L164.327 62.52C164.156 63.992 163.687 65.1653 162.919 66.04C162.151 66.8933 160.881 67.32 159.111 67.32C157.34 67.32 155.985 66.968 155.047 66.264C154.108 65.56 153.639 64.28 153.639 62.424ZM172.312 59.48H173.241V57.016C173.241 54.9893 173.123 53.6347 172.889 52.952C172.675 52.248 172.249 51.896 171.609 51.896C171.225 51.896 170.873 52.0027 170.553 52.216C170.254 52.408 170.105 52.6853 170.105 53.048C170.105 53.3893 170.169 53.7413 170.297 54.104H171.097C171.267 54.552 171.353 55.096 171.353 55.736C171.353 56.3547 171.086 56.8987 170.553 57.368C170.019 57.816 169.347 58.04 168.536 58.04C166.702 58.04 165.785 57.1547 165.785 55.384C165.785 52.76 168.014 51.448 172.473 51.448C175.011 51.448 176.761 51.8853 177.721 52.76C178.702 53.6133 179.193 55.192 179.193 57.496V63.992C179.193 65.1013 179.502 65.656 180.121 65.656C180.846 65.656 181.273 64.5573 181.401 62.36L181.881 62.392C181.795 64.2693 181.443 65.56 180.825 66.264C180.206 66.968 179.193 67.32 177.785 67.32C175.225 67.32 173.753 66.5307 173.369 64.952C173.091 65.7627 172.675 66.36 172.121 66.744C171.566 67.128 170.755 67.32 169.689 67.32C166.531 67.32 164.953 66.0293 164.953 63.448C164.953 61.9333 165.55 60.8987 166.745 60.344C167.961 59.768 169.817 59.48 172.312 59.48ZM171.033 63.416C171.033 64.5253 171.086 65.24 171.193 65.56C171.321 65.88 171.545 66.04 171.865 66.04C172.206 66.04 172.515 65.7733 172.793 65.24C173.091 64.6853 173.241 63.928 173.241 62.968V59.992H173.017C171.694 59.992 171.033 60.9627 171.033 62.904V63.416ZM182.067 43H189.907V66.424H191.699V67H182.195V66.424H183.955V43.576H182.067V43ZM192.192 43H200.032V66.424H201.824V67H192.32V66.424H194.08V43.576H192.192V43ZM210.125 59.48H211.053V57.016C211.053 54.9893 210.936 53.6347 210.701 52.952C210.488 52.248 210.061 51.896 209.421 51.896C209.037 51.896 208.685 52.0027 208.365 52.216C208.066 52.408 207.917 52.6853 207.917 53.048C207.917 53.3893 207.981 53.7413 208.109 54.104H208.909C209.08 54.552 209.165 55.096 209.165 55.736C209.165 56.3547 208.898 56.8987 208.365 57.368C207.832 57.816 207.16 58.04 206.349 58.04C204.514 58.04 203.597 57.1547 203.597 55.384C203.597 52.76 205.826 51.448 210.285 51.448C212.824 51.448 214.573 51.8853 215.533 52.76C216.514 53.6133 217.005 55.192 217.005 57.496V63.992C217.005 65.1013 217.314 65.656 217.933 65.656C218.658 65.656 219.085 64.5573 219.213 62.36L219.693 62.392C219.608 64.2693 219.256 65.56 218.637 66.264C218.018 66.968 217.005 67.32 215.597 67.32C213.037 67.32 211.565 66.5307 211.181 64.952C210.904 65.7627 210.488 66.36 209.933 66.744C209.378 67.128 208.568 67.32 207.501 67.32C204.344 67.32 202.765 66.0293 202.765 63.448C202.765 61.9333 203.362 60.8987 204.557 60.344C205.773 59.768 207.629 59.48 210.125 59.48ZM208.845 63.416C208.845 64.5253 208.898 65.24 209.005 65.56C209.133 65.88 209.357 66.04 209.677 66.04C210.018 66.04 210.328 65.7733 210.605 65.24C210.904 64.6853 211.053 63.928 211.053 62.968V59.992H210.829C209.506 59.992 208.845 60.9627 208.845 62.904V63.416ZM221.139 62.424V52.344H219.379V51.768H221.139V47.64L227.091 46.168V51.768H231.251V52.344H227.091V63.128C227.091 64.1307 227.187 64.8667 227.379 65.336C227.592 65.8053 228.019 66.04 228.659 66.04C229.299 66.04 229.853 65.72 230.323 65.08C230.813 64.44 231.133 63.5653 231.283 62.456L231.827 62.52C231.656 63.992 231.187 65.1653 230.419 66.04C229.651 66.8933 228.381 67.32 226.611 67.32C224.84 67.32 223.485 66.968 222.547 66.264C221.608 65.56 221.139 64.28 221.139 62.424ZM236.837 49.56C235.706 49.56 234.895 49.272 234.405 48.696C233.935 48.12 233.701 47.4053 233.701 46.552C233.701 45.6987 233.957 44.9947 234.469 44.44C235.002 43.8853 235.802 43.608 236.869 43.608C237.935 43.608 238.746 43.864 239.301 44.376C239.855 44.8667 240.133 45.5813 240.133 46.52C240.133 47.4373 239.866 48.1733 239.333 48.728C238.799 49.2827 237.967 49.56 236.837 49.56ZM232.005 51.768H239.845V66.424H241.637V67H232.133V66.424H233.893V52.344H232.005V51.768ZM252.625 60.696V57.976C252.625 55.9067 252.507 54.4027 252.273 53.464C252.059 52.504 251.547 52.024 250.737 52.024C250.267 52.024 249.883 52.1627 249.585 52.44C249.307 52.696 249.105 53.1333 248.977 53.752C248.785 54.712 248.689 56.1733 248.689 58.136V60.632C248.689 62.9573 248.753 64.3547 248.881 64.824C249.03 65.2933 249.179 65.6773 249.329 65.976C249.563 66.488 250.022 66.744 250.705 66.744C251.537 66.744 252.081 66.264 252.337 65.304C252.529 64.6213 252.625 63.0853 252.625 60.696ZM250.641 67.32C247.974 67.32 245.958 66.6373 244.593 65.272C243.227 63.9067 242.545 61.9547 242.545 59.416C242.545 56.856 243.27 54.8933 244.721 53.528C246.193 52.1413 248.251 51.448 250.897 51.448C253.542 51.448 255.515 52.088 256.817 53.368C258.118 54.6267 258.769 56.5573 258.769 59.16C258.769 64.6 256.059 67.32 250.641 67.32ZM259.728 51.768H267.44V54.712C267.781 53.7307 268.304 52.9413 269.008 52.344C269.712 51.7467 270.778 51.448 272.208 51.448C275.514 51.448 277.168 53.2293 277.168 56.792V66.424H278.96V67H269.904V66.424H271.216V56.024C271.216 54.744 271.13 53.9227 270.96 53.56C270.789 53.176 270.48 52.984 270.032 52.984C269.349 52.984 268.741 53.432 268.208 54.328C267.696 55.224 267.44 56.312 267.44 57.592V66.424H268.816V67H259.728V66.424H261.488V52.344H259.728V51.768ZM280.118 67.32V61.592H280.503C281.057 63.448 281.804 64.7493 282.743 65.496C283.681 66.2427 284.855 66.616 286.263 66.616C288.439 66.616 289.527 65.9227 289.527 64.536C289.527 63.9387 289.26 63.4907 288.727 63.192C287.895 62.7227 286.828 62.36 285.527 62.104C284.076 61.72 282.86 61.208 281.879 60.568C280.705 59.8 280.118 58.584 280.118 56.92C280.118 55.256 280.63 53.9333 281.655 52.952C282.679 51.9493 284.044 51.448 285.751 51.448C286.796 51.448 287.873 51.6933 288.983 52.184C289.388 52.3547 289.697 52.44 289.911 52.44C290.124 52.44 290.305 52.3653 290.455 52.216C290.604 52.0667 290.785 51.7893 290.999 51.384H291.351V56.28H290.967C289.879 53.5067 288.193 52.12 285.911 52.12C284.908 52.12 284.161 52.3013 283.671 52.664C283.18 53.0053 282.935 53.4427 282.935 53.976C282.935 54.296 283.009 54.552 283.159 54.744C283.308 54.9147 283.425 55.0427 283.511 55.128C283.596 55.2133 283.735 55.3093 283.927 55.416C284.119 55.5013 284.279 55.576 284.407 55.64C284.535 55.6827 284.727 55.7467 284.983 55.832C285.26 55.9173 285.463 55.9707 285.591 55.992C287.041 56.3547 288.087 56.6747 288.727 56.952C289.367 57.208 289.975 57.528 290.551 57.912C291.724 58.7227 292.311 60.0347 292.311 61.848C292.311 63.64 291.777 65.0053 290.711 65.944C289.644 66.8613 288.183 67.32 286.327 67.32C285.004 67.32 283.724 67.0107 282.487 66.392C282.231 66.2213 282.028 66.136 281.879 66.136C281.409 66.136 280.951 66.5307 280.503 67.32H280.118Z" fill="white"/>
<path d="M115.785 89C115.609 89 115.461 88.94 115.341 88.82C115.221 88.7 115.161 88.552 115.161 88.376V80.252C115.161 80.068 115.221 79.92 115.341 79.808C115.461 79.688 115.609 79.628 115.785 79.628H121.209C121.393 79.628 121.541 79.684 121.653 79.796C121.765 79.9 121.821 80.04 121.821 80.216C121.821 80.384 121.765 80.52 121.653 80.624C121.541 80.728 121.393 80.78 121.209 80.78H116.409V83.696H119.853C120.037 83.696 120.185 83.752 120.297 83.864C120.409 83.968 120.465 84.104 120.465 84.272C120.465 84.44 120.409 84.58 120.297 84.692C120.185 84.796 120.037 84.848 119.853 84.848H116.409V88.376C116.409 88.552 116.349 88.7 116.229 88.82C116.109 88.94 115.961 89 115.785 89ZM123.885 84.896C123.885 84.416 124.001 83.988 124.233 83.612C124.473 83.228 124.793 82.924 125.193 82.7C125.593 82.476 126.033 82.364 126.513 82.364C126.993 82.364 127.349 82.444 127.581 82.604C127.821 82.756 127.913 82.94 127.857 83.156C127.833 83.268 127.785 83.356 127.713 83.42C127.649 83.476 127.573 83.512 127.485 83.528C127.397 83.544 127.301 83.54 127.197 83.516C126.685 83.412 126.225 83.404 125.817 83.492C125.409 83.58 125.085 83.744 124.845 83.984C124.613 84.224 124.497 84.528 124.497 84.896H123.885ZM123.897 89C123.705 89 123.557 88.952 123.453 88.856C123.349 88.752 123.297 88.6 123.297 88.4V83.036C123.297 82.844 123.349 82.696 123.453 82.592C123.557 82.488 123.705 82.436 123.897 82.436C124.097 82.436 124.245 82.488 124.341 82.592C124.445 82.688 124.497 82.836 124.497 83.036V88.4C124.497 88.592 124.445 88.74 124.341 88.844C124.245 88.948 124.097 89 123.897 89ZM131.736 89.048C131.072 89.048 130.48 88.908 129.96 88.628C129.448 88.34 129.044 87.948 128.748 87.452C128.46 86.948 128.316 86.372 128.316 85.724C128.316 85.068 128.452 84.492 128.724 83.996C129.004 83.492 129.388 83.1 129.876 82.82C130.364 82.532 130.924 82.388 131.556 82.388C132.18 82.388 132.716 82.528 133.164 82.808C133.612 83.08 133.952 83.46 134.184 83.948C134.424 84.428 134.544 84.984 134.544 85.616C134.544 85.768 134.492 85.896 134.388 86C134.284 86.096 134.152 86.144 133.992 86.144H129.156V85.184H133.956L133.464 85.52C133.456 85.12 133.376 84.764 133.224 84.452C133.072 84.132 132.856 83.88 132.576 83.696C132.296 83.512 131.956 83.42 131.556 83.42C131.1 83.42 130.708 83.52 130.38 83.72C130.06 83.92 129.816 84.196 129.648 84.548C129.48 84.892 129.396 85.284 129.396 85.724C129.396 86.164 129.496 86.556 129.696 86.9C129.896 87.244 130.172 87.516 130.524 87.716C130.876 87.916 131.28 88.016 131.736 88.016C131.984 88.016 132.236 87.972 132.492 87.884C132.756 87.788 132.968 87.68 133.128 87.56C133.248 87.472 133.376 87.428 133.512 87.428C133.656 87.42 133.78 87.46 133.884 87.548C134.02 87.668 134.092 87.8 134.1 87.944C134.108 88.088 134.044 88.212 133.908 88.316C133.636 88.532 133.296 88.708 132.888 88.844C132.488 88.98 132.104 89.048 131.736 89.048ZM138.955 89.048C138.291 89.048 137.699 88.908 137.179 88.628C136.667 88.34 136.263 87.948 135.967 87.452C135.679 86.948 135.535 86.372 135.535 85.724C135.535 85.068 135.671 84.492 135.943 83.996C136.223 83.492 136.607 83.1 137.095 82.82C137.583 82.532 138.143 82.388 138.775 82.388C139.399 82.388 139.935 82.528 140.383 82.808C140.831 83.08 141.171 83.46 141.403 83.948C141.643 84.428 141.763 84.984 141.763 85.616C141.763 85.768 141.711 85.896 141.607 86C141.503 86.096 141.371 86.144 141.211 86.144H136.375V85.184H141.175L140.683 85.52C140.675 85.12 140.595 84.764 140.443 84.452C140.291 84.132 140.075 83.88 139.795 83.696C139.515 83.512 139.175 83.42 138.775 83.42C138.319 83.42 137.927 83.52 137.599 83.72C137.279 83.92 137.035 84.196 136.867 84.548C136.699 84.892 136.615 85.284 136.615 85.724C136.615 86.164 136.715 86.556 136.915 86.9C137.115 87.244 137.391 87.516 137.743 87.716C138.095 87.916 138.499 88.016 138.955 88.016C139.203 88.016 139.455 87.972 139.711 87.884C139.975 87.788 140.187 87.68 140.347 87.56C140.467 87.472 140.595 87.428 140.731 87.428C140.875 87.42 140.999 87.46 141.103 87.548C141.239 87.668 141.311 87.8 141.319 87.944C141.327 88.088 141.263 88.212 141.127 88.316C140.855 88.532 140.515 88.708 140.107 88.844C139.707 88.98 139.323 89.048 138.955 89.048ZM144.884 89C144.532 89 144.22 88.904 143.948 88.712C143.676 88.52 143.464 88.26 143.312 87.932C143.16 87.596 143.084 87.212 143.084 86.78V80.228C143.084 80.052 143.14 79.908 143.252 79.796C143.364 79.684 143.508 79.628 143.684 79.628C143.86 79.628 144.004 79.684 144.116 79.796C144.228 79.908 144.284 80.052 144.284 80.228V86.78C144.284 87.076 144.34 87.32 144.452 87.512C144.564 87.704 144.708 87.8 144.884 87.8H145.184C145.344 87.8 145.472 87.856 145.568 87.968C145.672 88.08 145.724 88.224 145.724 88.4C145.724 88.576 145.648 88.72 145.496 88.832C145.344 88.944 145.148 89 144.908 89H144.884ZM149.295 89.048C148.711 89.048 148.187 88.904 147.723 88.616C147.259 88.32 146.891 87.924 146.619 87.428C146.355 86.924 146.223 86.356 146.223 85.724C146.223 85.092 146.367 84.524 146.655 84.02C146.951 83.516 147.347 83.12 147.843 82.832C148.347 82.536 148.911 82.388 149.535 82.388C150.159 82.388 150.719 82.536 151.215 82.832C151.711 83.12 152.103 83.516 152.391 84.02C152.687 84.524 152.835 85.092 152.835 85.724H152.367C152.367 86.356 152.231 86.924 151.959 87.428C151.695 87.924 151.331 88.32 150.867 88.616C150.403 88.904 149.879 89.048 149.295 89.048ZM149.535 87.968C149.943 87.968 150.307 87.872 150.627 87.68C150.947 87.48 151.199 87.212 151.383 86.876C151.567 86.532 151.659 86.148 151.659 85.724C151.659 85.292 151.567 84.908 151.383 84.572C151.199 84.228 150.947 83.96 150.627 83.768C150.307 83.568 149.943 83.468 149.535 83.468C149.135 83.468 148.771 83.568 148.443 83.768C148.123 83.96 147.867 84.228 147.675 84.572C147.491 84.908 147.399 85.292 147.399 85.724C147.399 86.148 147.491 86.532 147.675 86.876C147.867 87.212 148.123 87.48 148.443 87.68C148.771 87.872 149.135 87.968 149.535 87.968ZM152.223 89.012C152.047 89.012 151.899 88.956 151.779 88.844C151.667 88.724 151.611 88.576 151.611 88.4V86.564L151.839 85.292L152.835 85.724V88.4C152.835 88.576 152.775 88.724 152.655 88.844C152.543 88.956 152.399 89.012 152.223 89.012ZM160.2 89.012C160.024 89.012 159.876 88.956 159.756 88.844C159.644 88.724 159.588 88.576 159.588 88.4V85.448C159.588 84.992 159.504 84.62 159.336 84.332C159.168 84.044 158.94 83.832 158.652 83.696C158.372 83.552 158.048 83.48 157.68 83.48C157.344 83.48 157.04 83.548 156.768 83.684C156.496 83.82 156.28 84.004 156.12 84.236C155.96 84.46 155.88 84.72 155.88 85.016H155.124C155.124 84.512 155.244 84.064 155.484 83.672C155.732 83.272 156.068 82.956 156.492 82.724C156.916 82.492 157.392 82.376 157.92 82.376C158.472 82.376 158.964 82.496 159.396 82.736C159.836 82.968 160.18 83.312 160.428 83.768C160.684 84.224 160.812 84.784 160.812 85.448V88.4C160.812 88.576 160.752 88.724 160.632 88.844C160.52 88.956 160.376 89.012 160.2 89.012ZM155.268 89.012C155.092 89.012 154.944 88.956 154.824 88.844C154.712 88.724 154.656 88.576 154.656 88.4V83.048C154.656 82.864 154.712 82.716 154.824 82.604C154.944 82.492 155.092 82.436 155.268 82.436C155.452 82.436 155.6 82.492 155.712 82.604C155.824 82.716 155.88 82.864 155.88 83.048V88.4C155.88 88.576 155.824 88.724 155.712 88.844C155.6 88.956 155.452 89.012 155.268 89.012ZM165.812 89.048C165.172 89.048 164.6 88.904 164.096 88.616C163.6 88.32 163.208 87.924 162.92 87.428C162.64 86.924 162.5 86.356 162.5 85.724C162.5 85.076 162.64 84.5 162.92 83.996C163.2 83.492 163.584 83.1 164.072 82.82C164.56 82.532 165.12 82.388 165.752 82.388C166.224 82.388 166.656 82.48 167.048 82.664C167.44 82.84 167.792 83.108 168.104 83.468C168.216 83.596 168.256 83.728 168.224 83.864C168.192 84 168.104 84.12 167.96 84.224C167.848 84.304 167.724 84.332 167.588 84.308C167.452 84.276 167.328 84.204 167.216 84.092C166.824 83.676 166.336 83.468 165.752 83.468C165.344 83.468 164.984 83.564 164.672 83.756C164.36 83.94 164.116 84.2 163.94 84.536C163.764 84.872 163.676 85.268 163.676 85.724C163.676 86.156 163.764 86.54 163.94 86.876C164.124 87.212 164.376 87.48 164.696 87.68C165.016 87.872 165.388 87.968 165.812 87.968C166.092 87.968 166.336 87.936 166.544 87.872C166.76 87.8 166.956 87.692 167.132 87.548C167.26 87.444 167.392 87.388 167.528 87.38C167.664 87.364 167.784 87.4 167.888 87.488C168.024 87.6 168.1 87.728 168.116 87.872C168.132 88.008 168.084 88.132 167.972 88.244C167.396 88.78 166.676 89.048 165.812 89.048ZM173.127 89.048C172.463 89.048 171.871 88.908 171.351 88.628C170.839 88.34 170.435 87.948 170.139 87.452C169.851 86.948 169.707 86.372 169.707 85.724C169.707 85.068 169.843 84.492 170.115 83.996C170.395 83.492 170.779 83.1 171.267 82.82C171.755 82.532 172.315 82.388 172.947 82.388C173.571 82.388 174.107 82.528 174.555 82.808C175.003 83.08 175.343 83.46 175.575 83.948C175.815 84.428 175.935 84.984 175.935 85.616C175.935 85.768 175.883 85.896 175.779 86C175.675 86.096 175.543 86.144 175.383 86.144H170.547V85.184H175.347L174.855 85.52C174.847 85.12 174.767 84.764 174.615 84.452C174.463 84.132 174.247 83.88 173.967 83.696C173.687 83.512 173.347 83.42 172.947 83.42C172.491 83.42 172.099 83.52 171.771 83.72C171.451 83.92 171.207 84.196 171.039 84.548C170.871 84.892 170.787 85.284 170.787 85.724C170.787 86.164 170.887 86.556 171.087 86.9C171.287 87.244 171.563 87.516 171.915 87.716C172.267 87.916 172.671 88.016 173.127 88.016C173.375 88.016 173.627 87.972 173.883 87.884C174.147 87.788 174.359 87.68 174.519 87.56C174.639 87.472 174.767 87.428 174.903 87.428C175.047 87.42 175.171 87.46 175.275 87.548C175.411 87.668 175.483 87.8 175.491 87.944C175.499 88.088 175.435 88.212 175.299 88.316C175.027 88.532 174.687 88.708 174.279 88.844C173.879 88.98 173.495 89.048 173.127 89.048ZM183.016 89.168C182.512 89.168 182.068 89.076 181.684 88.892C181.3 88.7 181 88.432 180.784 88.088C180.576 87.736 180.472 87.316 180.472 86.828C180.472 86.284 180.656 85.792 181.024 85.352C181.392 84.912 181.876 84.452 182.476 83.972L183.472 83.18C183.896 82.844 184.168 82.548 184.288 82.292C184.408 82.036 184.472 81.772 184.48 81.5C184.48 81.196 184.376 80.932 184.168 80.708C183.968 80.484 183.676 80.372 183.292 80.372C182.94 80.372 182.656 80.476 182.44 80.684C182.224 80.892 182.116 81.136 182.116 81.416C182.116 81.624 182.16 81.828 182.248 82.028C182.344 82.228 182.496 82.432 182.704 82.64L188.164 88.088C188.292 88.216 188.364 88.336 188.38 88.448C188.396 88.56 188.34 88.68 188.212 88.808C187.956 89.064 187.7 89.064 187.444 88.808L181.924 83.3C181.652 83.02 181.444 82.728 181.3 82.424C181.156 82.112 181.084 81.784 181.084 81.44C181.084 81.056 181.18 80.712 181.372 80.408C181.564 80.096 181.828 79.852 182.164 79.676C182.5 79.5 182.876 79.412 183.292 79.412C183.724 79.412 184.104 79.504 184.432 79.688C184.768 79.872 185.032 80.124 185.224 80.444C185.416 80.764 185.512 81.124 185.512 81.524C185.512 81.836 185.456 82.12 185.344 82.376C185.24 82.632 185.076 82.884 184.852 83.132C184.628 83.372 184.336 83.636 183.976 83.924L183.028 84.68C182.756 84.896 182.512 85.116 182.296 85.34C182.08 85.564 181.908 85.796 181.78 86.036C181.66 86.268 181.6 86.516 181.6 86.78C181.6 87.228 181.724 87.568 181.972 87.8C182.22 88.024 182.568 88.136 183.016 88.136C183.496 88.136 183.912 88.028 184.264 87.812C184.624 87.588 184.988 87.284 185.356 86.9L187.108 85.052C187.228 84.924 187.34 84.844 187.444 84.812C187.548 84.78 187.664 84.824 187.792 84.944C187.92 85.064 187.984 85.188 187.984 85.316C187.992 85.444 187.936 85.576 187.816 85.712L186.064 87.56C185.648 88.032 185.196 88.42 184.708 88.724C184.22 89.02 183.656 89.168 183.016 89.168ZM197.625 89.12C196.977 89.12 196.369 89 195.801 88.76C195.241 88.512 194.749 88.172 194.325 87.74C193.909 87.3 193.581 86.788 193.341 86.204C193.109 85.62 192.993 84.988 192.993 84.308C192.993 83.636 193.109 83.012 193.341 82.436C193.581 81.852 193.909 81.344 194.325 80.912C194.749 80.472 195.241 80.128 195.801 79.88C196.361 79.632 196.969 79.508 197.625 79.508C198.241 79.508 198.769 79.588 199.209 79.748C199.657 79.908 200.105 80.172 200.553 80.54C200.617 80.588 200.665 80.64 200.697 80.696C200.737 80.744 200.761 80.796 200.769 80.852C200.785 80.9 200.793 80.96 200.793 81.032C200.793 81.184 200.737 81.312 200.625 81.416C200.521 81.512 200.393 81.568 200.241 81.584C200.089 81.592 199.941 81.54 199.797 81.428C199.501 81.172 199.193 80.976 198.873 80.84C198.561 80.704 198.145 80.636 197.625 80.636C197.153 80.636 196.709 80.732 196.293 80.924C195.877 81.116 195.509 81.38 195.189 81.716C194.877 82.052 194.633 82.444 194.457 82.892C194.281 83.332 194.193 83.804 194.193 84.308C194.193 84.82 194.281 85.3 194.457 85.748C194.633 86.188 194.877 86.576 195.189 86.912C195.509 87.248 195.877 87.512 196.293 87.704C196.709 87.888 197.153 87.98 197.625 87.98C198.033 87.98 198.417 87.912 198.777 87.776C199.145 87.632 199.497 87.436 199.833 87.188C199.977 87.084 200.117 87.04 200.253 87.056C200.397 87.064 200.517 87.12 200.613 87.224C200.709 87.32 200.757 87.456 200.757 87.632C200.757 87.712 200.741 87.792 200.709 87.872C200.677 87.944 200.629 88.012 200.565 88.076C200.133 88.42 199.669 88.68 199.173 88.856C198.685 89.032 198.169 89.12 197.625 89.12ZM205.128 89.048C204.48 89.048 203.908 88.908 203.412 88.628C202.916 88.34 202.524 87.948 202.236 87.452C201.956 86.948 201.816 86.372 201.816 85.724C201.816 85.068 201.956 84.492 202.236 83.996C202.524 83.492 202.916 83.1 203.412 82.82C203.908 82.532 204.48 82.388 205.128 82.388C205.768 82.388 206.336 82.532 206.832 82.82C207.328 83.1 207.716 83.492 207.996 83.996C208.284 84.492 208.428 85.068 208.428 85.724C208.428 86.372 208.288 86.948 208.008 87.452C207.728 87.948 207.34 88.34 206.844 88.628C206.348 88.908 205.776 89.048 205.128 89.048ZM205.128 87.968C205.544 87.968 205.912 87.872 206.232 87.68C206.552 87.488 206.8 87.224 206.976 86.888C207.16 86.552 207.252 86.164 207.252 85.724C207.252 85.284 207.16 84.896 206.976 84.56C206.8 84.216 206.552 83.948 206.232 83.756C205.912 83.564 205.544 83.468 205.128 83.468C204.712 83.468 204.344 83.564 204.024 83.756C203.704 83.948 203.452 84.216 203.268 84.56C203.084 84.896 202.992 85.284 202.992 85.724C202.992 86.164 203.084 86.552 203.268 86.888C203.452 87.224 203.704 87.488 204.024 87.68C204.344 87.872 204.712 87.968 205.128 87.968ZM218.866 89.012C218.69 89.012 218.542 88.956 218.422 88.844C218.31 88.724 218.254 88.576 218.254 88.4V84.968C218.254 84.464 218.13 84.092 217.882 83.852C217.634 83.604 217.31 83.48 216.91 83.48C216.494 83.48 216.15 83.624 215.878 83.912C215.614 84.2 215.482 84.568 215.482 85.016H214.486C214.486 84.496 214.598 84.04 214.822 83.648C215.046 83.248 215.358 82.936 215.758 82.712C216.166 82.488 216.63 82.376 217.15 82.376C217.606 82.376 218.01 82.476 218.362 82.676C218.714 82.876 218.986 83.172 219.178 83.564C219.378 83.948 219.478 84.416 219.478 84.968V88.4C219.478 88.576 219.422 88.724 219.31 88.844C219.198 88.956 219.05 89.012 218.866 89.012ZM210.862 89.012C210.686 89.012 210.538 88.956 210.418 88.844C210.306 88.724 210.25 88.576 210.25 88.4V83.06C210.25 82.876 210.306 82.728 210.418 82.616C210.538 82.504 210.686 82.448 210.862 82.448C211.046 82.448 211.194 82.504 211.306 82.616C211.418 82.728 211.474 82.876 211.474 83.06V88.4C211.474 88.576 211.418 88.724 211.306 88.844C211.194 88.956 211.046 89.012 210.862 89.012ZM214.87 89.012C214.694 89.012 214.546 88.956 214.426 88.844C214.314 88.724 214.258 88.576 214.258 88.4V84.968C214.258 84.464 214.134 84.092 213.886 83.852C213.638 83.604 213.314 83.48 212.914 83.48C212.498 83.48 212.154 83.624 211.882 83.912C211.61 84.2 211.474 84.568 211.474 85.016H210.718C210.718 84.496 210.822 84.04 211.03 83.648C211.238 83.248 211.526 82.936 211.894 82.712C212.262 82.488 212.682 82.376 213.154 82.376C213.61 82.376 214.014 82.476 214.366 82.676C214.718 82.876 214.99 83.172 215.182 83.564C215.382 83.948 215.482 84.416 215.482 84.968V88.4C215.482 88.576 215.426 88.724 215.314 88.844C215.202 88.956 215.054 89.012 214.87 89.012ZM222.124 91.808C221.948 91.808 221.8 91.748 221.68 91.628C221.568 91.516 221.512 91.372 221.512 91.196V85.724C221.52 85.092 221.668 84.524 221.956 84.02C222.244 83.516 222.636 83.12 223.132 82.832C223.628 82.536 224.188 82.388 224.812 82.388C225.444 82.388 226.008 82.536 226.504 82.832C227 83.12 227.392 83.516 227.68 84.02C227.976 84.524 228.124 85.092 228.124 85.724C228.124 86.356 227.988 86.924 227.716 87.428C227.452 87.924 227.088 88.32 226.624 88.616C226.16 88.904 225.636 89.048 225.052 89.048C224.58 89.048 224.144 88.952 223.744 88.76C223.352 88.56 223.016 88.292 222.736 87.956V91.196C222.736 91.372 222.68 91.516 222.568 91.628C222.456 91.748 222.308 91.808 222.124 91.808ZM224.812 87.968C225.22 87.968 225.584 87.872 225.904 87.68C226.224 87.48 226.476 87.212 226.66 86.876C226.852 86.532 226.948 86.148 226.948 85.724C226.948 85.292 226.852 84.908 226.66 84.572C226.476 84.228 226.224 83.96 225.904 83.768C225.584 83.568 225.22 83.468 224.812 83.468C224.412 83.468 224.048 83.568 223.72 83.768C223.4 83.96 223.148 84.228 222.964 84.572C222.78 84.908 222.688 85.292 222.688 85.724C222.688 86.148 222.78 86.532 222.964 86.876C223.148 87.212 223.4 87.48 223.72 87.68C224.048 87.872 224.412 87.968 224.812 87.968ZM233.033 89.048C232.369 89.048 231.777 88.908 231.257 88.628C230.745 88.34 230.341 87.948 230.045 87.452C229.757 86.948 229.613 86.372 229.613 85.724C229.613 85.068 229.749 84.492 230.021 83.996C230.301 83.492 230.685 83.1 231.173 82.82C231.661 82.532 232.221 82.388 232.853 82.388C233.477 82.388 234.013 82.528 234.461 82.808C234.909 83.08 235.249 83.46 235.481 83.948C235.721 84.428 235.841 84.984 235.841 85.616C235.841 85.768 235.789 85.896 235.685 86C235.581 86.096 235.449 86.144 235.289 86.144H230.453V85.184H235.253L234.761 85.52C234.753 85.12 234.673 84.764 234.521 84.452C234.369 84.132 234.153 83.88 233.873 83.696C233.593 83.512 233.253 83.42 232.853 83.42C232.397 83.42 232.005 83.52 231.677 83.72C231.357 83.92 231.113 84.196 230.945 84.548C230.777 84.892 230.693 85.284 230.693 85.724C230.693 86.164 230.793 86.556 230.993 86.9C231.193 87.244 231.469 87.516 231.821 87.716C232.173 87.916 232.577 88.016 233.033 88.016C233.281 88.016 233.533 87.972 233.789 87.884C234.053 87.788 234.265 87.68 234.425 87.56C234.545 87.472 234.673 87.428 234.809 87.428C234.953 87.42 235.077 87.46 235.181 87.548C235.317 87.668 235.389 87.8 235.397 87.944C235.405 88.088 235.341 88.212 235.205 88.316C234.933 88.532 234.593 88.708 234.185 88.844C233.785 88.98 233.401 89.048 233.033 89.048ZM239.79 89C239.39 89 239.03 88.9 238.71 88.7C238.39 88.492 238.138 88.212 237.954 87.86C237.77 87.508 237.678 87.112 237.678 86.672V80.948C237.678 80.772 237.734 80.628 237.846 80.516C237.958 80.404 238.102 80.348 238.278 80.348C238.454 80.348 238.598 80.404 238.71 80.516C238.822 80.628 238.878 80.772 238.878 80.948V86.672C238.878 86.992 238.966 87.26 239.142 87.476C239.318 87.692 239.534 87.8 239.79 87.8H240.198C240.342 87.8 240.462 87.856 240.558 87.968C240.662 88.08 240.714 88.224 240.714 88.4C240.714 88.576 240.646 88.72 240.51 88.832C240.382 88.944 240.214 89 240.006 89H239.79ZM237.126 83.708C236.958 83.708 236.822 83.66 236.718 83.564C236.614 83.468 236.562 83.348 236.562 83.204C236.562 83.044 236.614 82.916 236.718 82.82C236.822 82.724 236.958 82.676 237.126 82.676H239.898C240.066 82.676 240.202 82.724 240.306 82.82C240.41 82.916 240.462 83.044 240.462 83.204C240.462 83.348 240.41 83.468 240.306 83.564C240.202 83.66 240.066 83.708 239.898 83.708H237.126ZM242.951 89C242.775 89 242.627 88.944 242.507 88.832C242.395 88.712 242.339 88.564 242.339 88.388V83.048C242.339 82.864 242.395 82.716 242.507 82.604C242.627 82.492 242.775 82.436 242.951 82.436C243.135 82.436 243.283 82.492 243.395 82.604C243.507 82.716 243.563 82.864 243.563 83.048V88.388C243.563 88.564 243.507 88.712 243.395 88.832C243.283 88.944 243.135 89 242.951 89ZM242.951 81.368C242.735 81.368 242.547 81.292 242.387 81.14C242.235 80.98 242.159 80.792 242.159 80.576C242.159 80.36 242.235 80.176 242.387 80.024C242.547 79.864 242.735 79.784 242.951 79.784C243.167 79.784 243.351 79.864 243.503 80.024C243.663 80.176 243.743 80.36 243.743 80.576C243.743 80.792 243.663 80.98 243.503 81.14C243.351 81.292 243.167 81.368 242.951 81.368ZM248.228 89C247.828 89 247.468 88.9 247.148 88.7C246.828 88.492 246.576 88.212 246.392 87.86C246.208 87.508 246.116 87.112 246.116 86.672V80.948C246.116 80.772 246.172 80.628 246.284 80.516C246.396 80.404 246.54 80.348 246.716 80.348C246.892 80.348 247.036 80.404 247.148 80.516C247.26 80.628 247.316 80.772 247.316 80.948V86.672C247.316 86.992 247.404 87.26 247.58 87.476C247.756 87.692 247.972 87.8 248.228 87.8H248.636C248.78 87.8 248.9 87.856 248.996 87.968C249.1 88.08 249.152 88.224 249.152 88.4C249.152 88.576 249.084 88.72 248.948 88.832C248.82 88.944 248.652 89 248.444 89H248.228ZM245.564 83.708C245.396 83.708 245.26 83.66 245.156 83.564C245.052 83.468 245 83.348 245 83.204C245 83.044 245.052 82.916 245.156 82.82C245.26 82.724 245.396 82.676 245.564 82.676H248.336C248.504 82.676 248.64 82.724 248.744 82.82C248.848 82.916 248.9 83.044 248.9 83.204C248.9 83.348 248.848 83.468 248.744 83.564C248.64 83.66 248.504 83.708 248.336 83.708H245.564ZM251.388 89C251.212 89 251.064 88.944 250.944 88.832C250.832 88.712 250.776 88.564 250.776 88.388V83.048C250.776 82.864 250.832 82.716 250.944 82.604C251.064 82.492 251.212 82.436 251.388 82.436C251.572 82.436 251.72 82.492 251.832 82.604C251.944 82.716 252 82.864 252 83.048V88.388C252 88.564 251.944 88.712 251.832 88.832C251.72 88.944 251.572 89 251.388 89ZM251.388 81.368C251.172 81.368 250.984 81.292 250.824 81.14C250.672 80.98 250.596 80.792 250.596 80.576C250.596 80.36 250.672 80.176 250.824 80.024C250.984 79.864 251.172 79.784 251.388 79.784C251.604 79.784 251.788 79.864 251.94 80.024C252.1 80.176 252.18 80.36 252.18 80.576C252.18 80.792 252.1 80.98 251.94 81.14C251.788 81.292 251.604 81.368 251.388 81.368ZM257.253 89.048C256.605 89.048 256.033 88.908 255.537 88.628C255.041 88.34 254.649 87.948 254.361 87.452C254.081 86.948 253.941 86.372 253.941 85.724C253.941 85.068 254.081 84.492 254.361 83.996C254.649 83.492 255.041 83.1 255.537 82.82C256.033 82.532 256.605 82.388 257.253 82.388C257.893 82.388 258.461 82.532 258.957 82.82C259.453 83.1 259.841 83.492 260.121 83.996C260.409 84.492 260.553 85.068 260.553 85.724C260.553 86.372 260.413 86.948 260.133 87.452C259.853 87.948 259.465 88.34 258.969 88.628C258.473 88.908 257.901 89.048 257.253 89.048ZM257.253 87.968C257.669 87.968 258.037 87.872 258.357 87.68C258.677 87.488 258.925 87.224 259.101 86.888C259.285 86.552 259.377 86.164 259.377 85.724C259.377 85.284 259.285 84.896 259.101 84.56C258.925 84.216 258.677 83.948 258.357 83.756C258.037 83.564 257.669 83.468 257.253 83.468C256.837 83.468 256.469 83.564 256.149 83.756C255.829 83.948 255.577 84.216 255.393 84.56C255.209 84.896 255.117 85.284 255.117 85.724C255.117 86.164 255.209 86.552 255.393 86.888C255.577 87.224 255.829 87.488 256.149 87.68C256.469 87.872 256.837 87.968 257.253 87.968ZM267.919 89.012C267.743 89.012 267.595 88.956 267.475 88.844C267.363 88.724 267.307 88.576 267.307 88.4V85.448C267.307 84.992 267.223 84.62 267.055 84.332C266.887 84.044 266.659 83.832 266.371 83.696C266.091 83.552 265.767 83.48 265.399 83.48C265.063 83.48 264.759 83.548 264.487 83.684C264.215 83.82 263.999 84.004 263.839 84.236C263.679 84.46 263.599 84.72 263.599 85.016H262.843C262.843 84.512 262.963 84.064 263.203 83.672C263.451 83.272 263.787 82.956 264.211 82.724C264.635 82.492 265.111 82.376 265.639 82.376C266.191 82.376 266.683 82.496 267.115 82.736C267.555 82.968 267.899 83.312 268.147 83.768C268.403 84.224 268.531 84.784 268.531 85.448V88.4C268.531 88.576 268.471 88.724 268.351 88.844C268.239 88.956 268.095 89.012 267.919 89.012ZM262.987 89.012C262.811 89.012 262.663 88.956 262.543 88.844C262.431 88.724 262.375 88.576 262.375 88.4V83.048C262.375 82.864 262.431 82.716 262.543 82.604C262.663 82.492 262.811 82.436 262.987 82.436C263.171 82.436 263.319 82.492 263.431 82.604C263.543 82.716 263.599 82.864 263.599 83.048V88.4C263.599 88.576 263.543 88.724 263.431 88.844C263.319 88.956 263.171 89.012 262.987 89.012ZM276.074 89.168C275.57 89.168 275.126 89.076 274.742 88.892C274.358 88.7 274.058 88.432 273.842 88.088C273.634 87.736 273.53 87.316 273.53 86.828C273.53 86.284 273.714 85.792 274.082 85.352C274.45 84.912 274.934 84.452 275.534 83.972L276.53 83.18C276.954 82.844 277.226 82.548 277.346 82.292C277.466 82.036 277.53 81.772 277.538 81.5C277.538 81.196 277.434 80.932 277.226 80.708C277.026 80.484 276.734 80.372 276.35 80.372C275.998 80.372 275.714 80.476 275.498 80.684C275.282 80.892 275.174 81.136 275.174 81.416C275.174 81.624 275.218 81.828 275.306 82.028C275.402 82.228 275.554 82.432 275.762 82.64L281.222 88.088C281.35 88.216 281.422 88.336 281.438 88.448C281.454 88.56 281.398 88.68 281.27 88.808C281.014 89.064 280.758 89.064 280.502 88.808L274.982 83.3C274.71 83.02 274.502 82.728 274.358 82.424C274.214 82.112 274.142 81.784 274.142 81.44C274.142 81.056 274.238 80.712 274.43 80.408C274.622 80.096 274.886 79.852 275.222 79.676C275.558 79.5 275.934 79.412 276.35 79.412C276.782 79.412 277.162 79.504 277.49 79.688C277.826 79.872 278.09 80.124 278.282 80.444C278.474 80.764 278.57 81.124 278.57 81.524C278.57 81.836 278.514 82.12 278.402 82.376C278.298 82.632 278.134 82.884 277.91 83.132C277.686 83.372 277.394 83.636 277.034 83.924L276.086 84.68C275.814 84.896 275.57 85.116 275.354 85.34C275.138 85.564 274.966 85.796 274.838 86.036C274.718 86.268 274.658 86.516 274.658 86.78C274.658 87.228 274.782 87.568 275.03 87.8C275.278 88.024 275.626 88.136 276.074 88.136C276.554 88.136 276.97 88.028 277.322 87.812C277.682 87.588 278.046 87.284 278.414 86.9L280.166 85.052C280.286 84.924 280.398 84.844 280.502 84.812C280.606 84.78 280.722 84.824 280.85 84.944C280.978 85.064 281.042 85.188 281.042 85.316C281.05 85.444 280.994 85.576 280.874 85.712L279.122 87.56C278.706 88.032 278.254 88.42 277.766 88.724C277.278 89.02 276.714 89.168 276.074 89.168ZM150.437 102C150.213 102 150.041 101.904 149.921 101.712C149.801 101.52 149.789 101.316 149.885 101.1L153.257 93.048C153.377 92.768 153.573 92.628 153.845 92.628C154.133 92.628 154.329 92.768 154.433 93.048L157.817 101.124C157.905 101.348 157.889 101.552 157.769 101.736C157.657 101.912 157.485 102 157.253 102C157.133 102 157.017 101.968 156.905 101.904C156.801 101.832 156.725 101.736 156.677 101.616L153.701 94.224H154.037L151.013 101.616C150.957 101.744 150.873 101.84 150.761 101.904C150.657 101.968 150.549 102 150.437 102ZM151.073 99.936L151.553 98.904H156.257L156.737 99.936H151.073ZM161.869 102.048C161.229 102.048 160.657 101.904 160.153 101.616C159.657 101.32 159.265 100.924 158.977 100.428C158.697 99.924 158.557 99.356 158.557 98.724C158.557 98.076 158.697 97.5 158.977 96.996C159.257 96.492 159.641 96.1 160.129 95.82C160.617 95.532 161.177 95.388 161.809 95.388C162.281 95.388 162.713 95.48 163.105 95.664C163.497 95.84 163.849 96.108 164.161 96.468C164.273 96.596 164.313 96.728 164.281 96.864C164.249 97 164.161 97.12 164.017 97.224C163.905 97.304 163.781 97.332 163.645 97.308C163.509 97.276 163.385 97.204 163.273 97.092C162.881 96.676 162.393 96.468 161.809 96.468C161.401 96.468 161.041 96.564 160.729 96.756C160.417 96.94 160.173 97.2 159.997 97.536C159.821 97.872 159.733 98.268 159.733 98.724C159.733 99.156 159.821 99.54 159.997 99.876C160.181 100.212 160.433 100.48 160.753 100.68C161.073 100.872 161.445 100.968 161.869 100.968C162.149 100.968 162.393 100.936 162.601 100.872C162.817 100.8 163.013 100.692 163.189 100.548C163.317 100.444 163.449 100.388 163.585 100.38C163.721 100.364 163.841 100.4 163.945 100.488C164.081 100.6 164.157 100.728 164.173 100.872C164.189 101.008 164.141 101.132 164.029 101.244C163.453 101.78 162.733 102.048 161.869 102.048ZM168.836 102.048C168.252 102.048 167.728 101.904 167.264 101.616C166.8 101.32 166.432 100.924 166.16 100.428C165.896 99.924 165.764 99.356 165.764 98.724C165.764 98.092 165.908 97.524 166.196 97.02C166.492 96.516 166.888 96.12 167.384 95.832C167.888 95.536 168.452 95.388 169.076 95.388C169.7 95.388 170.26 95.536 170.756 95.832C171.252 96.12 171.644 96.516 171.932 97.02C172.228 97.524 172.376 98.092 172.376 98.724H171.908C171.908 99.356 171.772 99.924 171.5 100.428C171.236 100.924 170.872 101.32 170.408 101.616C169.944 101.904 169.42 102.048 168.836 102.048ZM169.076 100.968C169.484 100.968 169.848 100.872 170.168 100.68C170.488 100.48 170.74 100.212 170.924 99.876C171.108 99.532 171.2 99.148 171.2 98.724C171.2 98.292 171.108 97.908 170.924 97.572C170.74 97.228 170.488 96.96 170.168 96.768C169.848 96.568 169.484 96.468 169.076 96.468C168.676 96.468 168.312 96.568 167.984 96.768C167.664 96.96 167.408 97.228 167.216 97.572C167.032 97.908 166.94 98.292 166.94 98.724C166.94 99.148 167.032 99.532 167.216 99.876C167.408 100.212 167.664 100.48 167.984 100.68C168.312 100.872 168.676 100.968 169.076 100.968ZM171.764 102.012C171.588 102.012 171.44 101.956 171.32 101.844C171.208 101.724 171.152 101.576 171.152 101.4V99.564L171.38 98.292L172.376 98.724V101.4C172.376 101.576 172.316 101.724 172.196 101.844C172.084 101.956 171.94 102.012 171.764 102.012ZM177.173 102.048C176.549 102.048 175.985 101.904 175.481 101.616C174.985 101.32 174.589 100.92 174.293 100.416C174.005 99.912 173.861 99.344 173.861 98.712C173.861 98.08 173.993 97.516 174.257 97.02C174.529 96.516 174.897 96.12 175.361 95.832C175.825 95.536 176.349 95.388 176.933 95.388C177.405 95.388 177.841 95.488 178.241 95.688C178.641 95.88 178.977 96.144 179.249 96.48V93.24C179.249 93.056 179.305 92.908 179.417 92.796C179.537 92.684 179.685 92.628 179.861 92.628C180.045 92.628 180.193 92.684 180.305 92.796C180.417 92.908 180.473 93.056 180.473 93.24V98.712C180.473 99.344 180.325 99.912 180.029 100.416C179.741 100.92 179.349 101.32 178.853 101.616C178.357 101.904 177.797 102.048 177.173 102.048ZM177.173 100.968C177.581 100.968 177.945 100.872 178.265 100.68C178.585 100.48 178.837 100.208 179.021 99.864C179.205 99.52 179.297 99.136 179.297 98.712C179.297 98.28 179.205 97.896 179.021 97.56C178.837 97.224 178.585 96.96 178.265 96.768C177.945 96.568 177.581 96.468 177.173 96.468C176.773 96.468 176.409 96.568 176.081 96.768C175.761 96.96 175.505 97.224 175.313 97.56C175.129 97.896 175.037 98.28 175.037 98.712C175.037 99.136 175.129 99.52 175.313 99.864C175.505 100.208 175.761 100.48 176.081 100.68C176.409 100.872 176.773 100.968 177.173 100.968ZM185.719 102.048C185.055 102.048 184.463 101.908 183.943 101.628C183.431 101.34 183.027 100.948 182.731 100.452C182.443 99.948 182.299 99.372 182.299 98.724C182.299 98.068 182.435 97.492 182.707 96.996C182.987 96.492 183.371 96.1 183.859 95.82C184.347 95.532 184.907 95.388 185.539 95.388C186.163 95.388 186.699 95.528 187.147 95.808C187.595 96.08 187.935 96.46 188.167 96.948C188.407 97.428 188.527 97.984 188.527 98.616C188.527 98.768 188.475 98.896 188.371 99C188.267 99.096 188.135 99.144 187.975 99.144H183.139V98.184H187.939L187.447 98.52C187.439 98.12 187.359 97.764 187.207 97.452C187.055 97.132 186.839 96.88 186.559 96.696C186.279 96.512 185.939 96.42 185.539 96.42C185.083 96.42 184.691 96.52 184.363 96.72C184.043 96.92 183.799 97.196 183.631 97.548C183.463 97.892 183.379 98.284 183.379 98.724C183.379 99.164 183.479 99.556 183.679 99.9C183.879 100.244 184.155 100.516 184.507 100.716C184.859 100.916 185.263 101.016 185.719 101.016C185.967 101.016 186.219 100.972 186.475 100.884C186.739 100.788 186.951 100.68 187.111 100.56C187.231 100.472 187.359 100.428 187.495 100.428C187.639 100.42 187.763 100.46 187.867 100.548C188.003 100.668 188.075 100.8 188.083 100.944C188.091 101.088 188.027 101.212 187.891 101.316C187.619 101.532 187.279 101.708 186.871 101.844C186.471 101.98 186.087 102.048 185.719 102.048ZM198.704 102.012C198.528 102.012 198.38 101.956 198.26 101.844C198.148 101.724 198.092 101.576 198.092 101.4V97.968C198.092 97.464 197.968 97.092 197.72 96.852C197.472 96.604 197.148 96.48 196.748 96.48C196.332 96.48 195.988 96.624 195.716 96.912C195.452 97.2 195.32 97.568 195.32 98.016H194.324C194.324 97.496 194.436 97.04 194.66 96.648C194.884 96.248 195.196 95.936 195.596 95.712C196.004 95.488 196.468 95.376 196.988 95.376C197.444 95.376 197.848 95.476 198.2 95.676C198.552 95.876 198.824 96.172 199.016 96.564C199.216 96.948 199.316 97.416 199.316 97.968V101.4C199.316 101.576 199.26 101.724 199.148 101.844C199.036 101.956 198.888 102.012 198.704 102.012ZM190.7 102.012C190.524 102.012 190.376 101.956 190.256 101.844C190.144 101.724 190.088 101.576 190.088 101.4V96.06C190.088 95.876 190.144 95.728 190.256 95.616C190.376 95.504 190.524 95.448 190.7 95.448C190.884 95.448 191.032 95.504 191.144 95.616C191.256 95.728 191.312 95.876 191.312 96.06V101.4C191.312 101.576 191.256 101.724 191.144 101.844C191.032 101.956 190.884 102.012 190.7 102.012ZM194.708 102.012C194.532 102.012 194.384 101.956 194.264 101.844C194.152 101.724 194.096 101.576 194.096 101.4V97.968C194.096 97.464 193.972 97.092 193.724 96.852C193.476 96.604 193.152 96.48 192.752 96.48C192.336 96.48 191.992 96.624 191.72 96.912C191.448 97.2 191.312 97.568 191.312 98.016H190.556C190.556 97.496 190.66 97.04 190.868 96.648C191.076 96.248 191.364 95.936 191.732 95.712C192.1 95.488 192.52 95.376 192.992 95.376C193.448 95.376 193.852 95.476 194.204 95.676C194.556 95.876 194.828 96.172 195.02 96.564C195.22 96.948 195.32 97.416 195.32 97.968V101.4C195.32 101.576 195.264 101.724 195.152 101.844C195.04 101.956 194.892 102.012 194.708 102.012ZM202.082 102C201.906 102 201.758 101.944 201.638 101.832C201.526 101.712 201.47 101.564 201.47 101.388V96.048C201.47 95.864 201.526 95.716 201.638 95.604C201.758 95.492 201.906 95.436 202.082 95.436C202.266 95.436 202.414 95.492 202.526 95.604C202.638 95.716 202.694 95.864 202.694 96.048V101.388C202.694 101.564 202.638 101.712 202.526 101.832C202.414 101.944 202.266 102 202.082 102ZM202.082 94.368C201.866 94.368 201.678 94.292 201.518 94.14C201.366 93.98 201.29 93.792 201.29 93.576C201.29 93.36 201.366 93.176 201.518 93.024C201.678 92.864 201.866 92.784 202.082 92.784C202.298 92.784 202.482 92.864 202.634 93.024C202.794 93.176 202.874 93.36 202.874 93.576C202.874 93.792 202.794 93.98 202.634 94.14C202.482 94.292 202.298 94.368 202.082 94.368ZM207.947 102.048C207.307 102.048 206.735 101.904 206.231 101.616C205.735 101.32 205.343 100.924 205.055 100.428C204.775 99.924 204.635 99.356 204.635 98.724C204.635 98.076 204.775 97.5 205.055 96.996C205.335 96.492 205.719 96.1 206.207 95.82C206.695 95.532 207.255 95.388 207.887 95.388C208.359 95.388 208.791 95.48 209.183 95.664C209.575 95.84 209.927 96.108 210.239 96.468C210.351 96.596 210.391 96.728 210.359 96.864C210.327 97 210.239 97.12 210.095 97.224C209.983 97.304 209.859 97.332 209.723 97.308C209.587 97.276 209.463 97.204 209.351 97.092C208.959 96.676 208.471 96.468 207.887 96.468C207.479 96.468 207.119 96.564 206.807 96.756C206.495 96.94 206.251 97.2 206.075 97.536C205.899 97.872 205.811 98.268 205.811 98.724C205.811 99.156 205.899 99.54 206.075 99.876C206.259 100.212 206.511 100.48 206.831 100.68C207.151 100.872 207.523 100.968 207.947 100.968C208.227 100.968 208.471 100.936 208.679 100.872C208.895 100.8 209.091 100.692 209.267 100.548C209.395 100.444 209.527 100.388 209.663 100.38C209.799 100.364 209.919 100.4 210.023 100.488C210.159 100.6 210.235 100.728 210.251 100.872C210.267 101.008 210.219 101.132 210.107 101.244C209.531 101.78 208.811 102.048 207.947 102.048ZM217.205 102C217.077 102 216.957 101.964 216.845 101.892C216.741 101.812 216.669 101.716 216.629 101.604L214.853 96.276C214.789 96.028 214.789 95.828 214.853 95.676C214.925 95.516 215.077 95.436 215.309 95.436C215.461 95.436 215.585 95.48 215.681 95.568C215.785 95.648 215.869 95.788 215.933 95.988L217.445 100.716H217.025L218.453 95.892C218.493 95.756 218.561 95.648 218.657 95.568C218.753 95.48 218.885 95.436 219.053 95.436C219.213 95.436 219.341 95.48 219.437 95.568C219.541 95.648 219.609 95.756 219.641 95.892L220.805 100.428H220.625L222.041 95.988C222.153 95.62 222.361 95.436 222.665 95.436C222.889 95.436 223.041 95.516 223.121 95.676C223.201 95.828 223.197 96.028 223.109 96.276L221.333 101.604C221.301 101.716 221.233 101.812 221.129 101.892C221.025 101.964 220.905 102 220.769 102C220.641 102 220.521 101.964 220.409 101.892C220.297 101.812 220.225 101.716 220.193 101.604L218.957 97.032H219.077L217.781 101.604C217.749 101.716 217.677 101.812 217.565 101.892C217.461 101.964 217.341 102 217.205 102ZM227.165 102.048C226.517 102.048 225.945 101.908 225.449 101.628C224.953 101.34 224.561 100.948 224.273 100.452C223.993 99.948 223.853 99.372 223.853 98.724C223.853 98.068 223.993 97.492 224.273 96.996C224.561 96.492 224.953 96.1 225.449 95.82C225.945 95.532 226.517 95.388 227.165 95.388C227.805 95.388 228.373 95.532 228.869 95.82C229.365 96.1 229.753 96.492 230.033 96.996C230.321 97.492 230.465 98.068 230.465 98.724C230.465 99.372 230.325 99.948 230.045 100.452C229.765 100.948 229.377 101.34 228.881 101.628C228.385 101.908 227.813 102.048 227.165 102.048ZM227.165 100.968C227.581 100.968 227.949 100.872 228.269 100.68C228.589 100.488 228.837 100.224 229.013 99.888C229.197 99.552 229.289 99.164 229.289 98.724C229.289 98.284 229.197 97.896 229.013 97.56C228.837 97.216 228.589 96.948 228.269 96.756C227.949 96.564 227.581 96.468 227.165 96.468C226.749 96.468 226.381 96.564 226.061 96.756C225.741 96.948 225.489 97.216 225.305 97.56C225.121 97.896 225.029 98.284 225.029 98.724C225.029 99.164 225.121 99.552 225.305 99.888C225.489 100.224 225.741 100.488 226.061 100.68C226.381 100.872 226.749 100.968 227.165 100.968ZM232.875 97.896C232.875 97.416 232.991 96.988 233.223 96.612C233.463 96.228 233.783 95.924 234.183 95.7C234.583 95.476 235.023 95.364 235.503 95.364C235.983 95.364 236.339 95.444 236.571 95.604C236.811 95.756 236.903 95.94 236.847 96.156C236.823 96.268 236.775 96.356 236.703 96.42C236.639 96.476 236.563 96.512 236.475 96.528C236.387 96.544 236.291 96.54 236.187 96.516C235.675 96.412 235.215 96.404 234.807 96.492C234.399 96.58 234.075 96.744 233.835 96.984C233.603 97.224 233.487 97.528 233.487 97.896H232.875ZM232.887 102C232.695 102 232.547 101.952 232.443 101.856C232.339 101.752 232.287 101.6 232.287 101.4V96.036C232.287 95.844 232.339 95.696 232.443 95.592C232.547 95.488 232.695 95.436 232.887 95.436C233.087 95.436 233.235 95.488 233.331 95.592C233.435 95.688 233.487 95.836 233.487 96.036V101.4C233.487 101.592 233.435 101.74 233.331 101.844C233.235 101.948 233.087 102 232.887 102ZM239.275 99.6L238.531 98.784L242.215 95.496C242.335 95.384 242.467 95.332 242.611 95.34C242.763 95.348 242.891 95.412 242.995 95.532C243.107 95.652 243.159 95.784 243.151 95.928C243.143 96.072 243.079 96.2 242.959 96.312L239.275 99.6ZM238.711 102C238.535 102 238.391 101.948 238.279 101.844C238.175 101.732 238.123 101.588 238.123 101.412V93.216C238.123 93.04 238.175 92.9 238.279 92.796C238.391 92.684 238.535 92.628 238.711 92.628C238.887 92.628 239.027 92.684 239.131 92.796C239.243 92.9 239.299 93.04 239.299 93.216V101.412C239.299 101.588 239.243 101.732 239.131 101.844C239.027 101.948 238.887 102 238.711 102ZM242.995 101.94C242.867 102.044 242.723 102.088 242.563 102.072C242.411 102.064 242.283 101.996 242.179 101.868L239.743 98.856L240.583 98.064L243.079 101.136C243.183 101.264 243.227 101.404 243.211 101.556C243.203 101.7 243.131 101.828 242.995 101.94ZM247.343 102.048C246.783 102.048 246.263 101.964 245.783 101.796C245.311 101.62 244.943 101.4 244.679 101.136C244.559 101.008 244.507 100.864 244.523 100.704C244.547 100.536 244.627 100.4 244.763 100.296C244.923 100.168 245.079 100.116 245.231 100.14C245.391 100.156 245.527 100.224 245.639 100.344C245.775 100.496 245.991 100.64 246.287 100.776C246.591 100.904 246.927 100.968 247.295 100.968C247.759 100.968 248.111 100.892 248.351 100.74C248.599 100.588 248.727 100.392 248.735 100.152C248.743 99.912 248.627 99.704 248.387 99.528C248.155 99.352 247.727 99.208 247.103 99.096C246.295 98.936 245.707 98.696 245.339 98.376C244.979 98.056 244.799 97.664 244.799 97.2C244.799 96.792 244.919 96.456 245.159 96.192C245.399 95.92 245.707 95.72 246.083 95.592C246.459 95.456 246.851 95.388 247.259 95.388C247.787 95.388 248.255 95.472 248.663 95.64C249.071 95.808 249.395 96.04 249.635 96.336C249.747 96.464 249.799 96.6 249.791 96.744C249.783 96.88 249.715 96.996 249.587 97.092C249.459 97.18 249.307 97.208 249.131 97.176C248.955 97.144 248.807 97.072 248.687 96.96C248.487 96.768 248.271 96.636 248.039 96.564C247.807 96.492 247.539 96.456 247.235 96.456C246.883 96.456 246.583 96.516 246.335 96.636C246.095 96.756 245.975 96.932 245.975 97.164C245.975 97.308 246.011 97.44 246.083 97.56C246.163 97.672 246.315 97.776 246.539 97.872C246.763 97.96 247.091 98.048 247.523 98.136C248.123 98.256 248.595 98.408 248.939 98.592C249.291 98.776 249.543 98.992 249.695 99.24C249.847 99.48 249.923 99.76 249.923 100.08C249.923 100.448 249.823 100.78 249.623 101.076C249.431 101.372 249.143 101.608 248.759 101.784C248.383 101.96 247.911 102.048 247.343 102.048Z" fill="white"/>
</svg>
