<svg width="349" height="96" viewBox="0 0 349 96" fill="none" xmlns="http://www.w3.org/2000/svg">
<path d="M0.588 8.4H10.668V9.016H7.7V27.384H8.708C10.2947 27.384 11.5547 26.8987 12.488 25.928C13.44 24.9573 14.4013 23.464 15.372 21.448H15.96L15.428 28H0.588V27.384H2.24V9.016H0.588V8.4ZM23.6797 21.42H24.4917V19.264C24.4917 17.4907 24.389 16.3053 24.1837 15.708C23.997 15.092 23.6237 14.784 23.0637 14.784C22.7277 14.784 22.4197 14.8773 22.1397 15.064C21.8784 15.232 21.7477 15.4747 21.7477 15.792C21.7477 16.0907 21.8037 16.3987 21.9157 16.716H22.6157C22.765 17.108 22.8397 17.584 22.8397 18.144C22.8397 18.6853 22.6064 19.1613 22.1397 19.572C21.673 19.964 21.085 20.16 20.3757 20.16C18.7704 20.16 17.9677 19.3853 17.9677 17.836C17.9677 15.54 19.9184 14.392 23.8197 14.392C26.041 14.392 27.5717 14.7747 28.4117 15.54C29.2704 16.2867 29.6997 17.668 29.6997 19.684V25.368C29.6997 26.3387 29.9704 26.824 30.5117 26.824C31.1464 26.824 31.5197 25.8627 31.6317 23.94L32.0517 23.968C31.977 25.6107 31.669 26.74 31.1277 27.356C30.5864 27.972 29.6997 28.28 28.4677 28.28C26.2277 28.28 24.9397 27.5893 24.6037 26.208C24.361 26.9173 23.997 27.44 23.5117 27.776C23.0264 28.112 22.317 28.28 21.3837 28.28C18.621 28.28 17.2397 27.1507 17.2397 24.892C17.2397 23.5667 17.7624 22.6613 18.8077 22.176C19.8717 21.672 21.4957 21.42 23.6797 21.42ZM22.5597 24.864C22.5597 25.8347 22.6064 26.46 22.6997 26.74C22.8117 27.02 23.0077 27.16 23.2877 27.16C23.5864 27.16 23.857 26.9267 24.0997 26.46C24.361 25.9747 24.4917 25.312 24.4917 24.472V21.868H24.2957C23.1384 21.868 22.5597 22.7173 22.5597 24.416V24.864ZM32.3829 14.672H39.1309V17.248C39.4295 16.3893 39.8869 15.6987 40.5029 15.176C41.1189 14.6533 42.0522 14.392 43.3029 14.392C46.1962 14.392 47.6429 15.9507 47.6429 19.068V27.496H49.2109V28H41.2869V27.496H42.4349V18.396C42.4349 17.276 42.3602 16.5573 42.2109 16.24C42.0615 15.904 41.7909 15.736 41.3989 15.736C40.8015 15.736 40.2695 16.128 39.8029 16.912C39.3549 17.696 39.1309 18.648 39.1309 19.768V27.496H40.3349V28H32.3829V27.496H33.9229V15.176H32.3829V14.672ZM55.2648 22.204C55.2648 24.164 55.3674 25.4707 55.5728 26.124C55.7781 26.7587 56.1514 27.076 56.6928 27.076C57.2528 27.076 57.7288 26.8333 58.1208 26.348C58.5314 25.8627 58.7368 25.144 58.7368 24.192V18.088C58.7368 17.2853 58.5781 16.604 58.2608 16.044C57.9434 15.484 57.4768 15.204 56.8608 15.204C56.2448 15.204 55.8248 15.6147 55.6008 16.436C55.3768 17.2573 55.2648 18.6947 55.2648 20.748V22.204ZM59.1008 28L58.7928 26.04C58.1581 27.5333 56.8701 28.28 54.9288 28.28C53.3234 28.28 52.0728 27.7013 51.1768 26.544C50.2994 25.3867 49.8608 23.66 49.8608 21.364C49.8608 16.716 51.7088 14.392 55.4048 14.392C57.0474 14.392 58.1301 14.8493 58.6528 15.764V7.504H56.9448V7H63.9448V27.496H65.3168V28H59.1008ZM66.4123 28.28V23.268H66.7483C67.2336 24.892 67.8869 26.0307 68.7083 26.684C69.5296 27.3373 70.5563 27.664 71.7883 27.664C73.6923 27.664 74.6443 27.0573 74.6443 25.844C74.6443 25.3213 74.4109 24.9293 73.9443 24.668C73.2163 24.2573 72.2829 23.94 71.1443 23.716C69.8749 23.38 68.8109 22.932 67.9523 22.372C66.9256 21.7 66.4123 20.636 66.4123 19.18C66.4123 17.724 66.8603 16.5667 67.7563 15.708C68.6523 14.8307 69.8469 14.392 71.3403 14.392C72.2549 14.392 73.1976 14.6067 74.1683 15.036C74.5229 15.1853 74.7936 15.26 74.9803 15.26C75.1669 15.26 75.3256 15.1947 75.4563 15.064C75.5869 14.9333 75.7456 14.6907 75.9323 14.336H76.2403V18.62H75.9043C74.9523 16.1933 73.4776 14.98 71.4803 14.98C70.6029 14.98 69.9496 15.1387 69.5203 15.456C69.0909 15.7547 68.8763 16.1373 68.8763 16.604C68.8763 16.884 68.9416 17.108 69.0723 17.276C69.2029 17.4253 69.3056 17.5373 69.3803 17.612C69.4549 17.6867 69.5763 17.7707 69.7443 17.864C69.9123 17.9387 70.0523 18.004 70.1643 18.06C70.2763 18.0973 70.4443 18.1533 70.6683 18.228C70.9109 18.3027 71.0883 18.3493 71.2003 18.368C72.4696 18.6853 73.3843 18.9653 73.9443 19.208C74.5043 19.432 75.0363 19.712 75.5403 20.048C76.5669 20.7573 77.0803 21.9053 77.0803 23.492C77.0803 25.06 76.6136 26.2547 75.6803 27.076C74.7469 27.8787 73.4683 28.28 71.8443 28.28C70.6869 28.28 69.5669 28.0093 68.4843 27.468C68.2603 27.3187 68.0829 27.244 67.9523 27.244C67.5416 27.244 67.1403 27.5893 66.7483 28.28H66.4123ZM85.7489 14.896C84.9276 14.896 84.3396 15.344 83.9849 16.24C83.6302 17.136 83.4529 18.62 83.4529 20.692V22.148C83.4529 23.996 83.6582 25.3213 84.0689 26.124C84.4796 26.9267 85.2356 27.328 86.3369 27.328C87.4382 27.328 88.3156 26.9547 88.9689 26.208C89.6222 25.4613 90.0422 24.612 90.2289 23.66L90.7329 23.716C90.3782 25.3213 89.7249 26.4787 88.7729 27.188C87.8022 27.916 86.4676 28.28 84.7689 28.28C82.6036 28.28 80.9422 27.7013 79.7849 26.544C78.6276 25.368 78.0489 23.66 78.0489 21.42C78.0489 19.1613 78.7022 17.4253 80.0089 16.212C81.3342 14.9987 83.1729 14.392 85.5249 14.392C87.1862 14.392 88.4556 14.7187 89.3329 15.372C90.2102 16.0067 90.6489 16.8093 90.6489 17.78C90.6489 18.7507 90.4342 19.46 90.0049 19.908C89.5942 20.356 89.0156 20.58 88.2689 20.58C87.5409 20.58 86.9529 20.384 86.5049 19.992C86.0569 19.6 85.8329 19.0213 85.8329 18.256C85.8329 17.92 85.8796 17.584 85.9729 17.248H86.8969C87.0276 16.8747 87.0929 16.5387 87.0929 16.24C87.0929 15.344 86.6449 14.896 85.7489 14.896ZM98.1641 21.42H98.9761V19.264C98.9761 17.4907 98.8734 16.3053 98.6681 15.708C98.4814 15.092 98.1081 14.784 97.5481 14.784C97.2121 14.784 96.9041 14.8773 96.6241 15.064C96.3627 15.232 96.2321 15.4747 96.2321 15.792C96.2321 16.0907 96.2881 16.3987 96.4001 16.716H97.1001C97.2494 17.108 97.3241 17.584 97.3241 18.144C97.3241 18.6853 97.0907 19.1613 96.6241 19.572C96.1574 19.964 95.5694 20.16 94.8601 20.16C93.2547 20.16 92.4521 19.3853 92.4521 17.836C92.4521 15.54 94.4027 14.392 98.3041 14.392C100.525 14.392 102.056 14.7747 102.896 15.54C103.755 16.2867 104.184 17.668 104.184 19.684V25.368C104.184 26.3387 104.455 26.824 104.996 26.824C105.631 26.824 106.004 25.8627 106.116 23.94L106.536 23.968C106.461 25.6107 106.153 26.74 105.612 27.356C105.071 27.972 104.184 28.28 102.952 28.28C100.712 28.28 99.4241 27.5893 99.0881 26.208C98.8454 26.9173 98.4814 27.44 97.9961 27.776C97.5107 28.112 96.8014 28.28 95.8681 28.28C93.1054 28.28 91.7241 27.1507 91.7241 24.892C91.7241 23.5667 92.2467 22.6613 93.2921 22.176C94.3561 21.672 95.9801 21.42 98.1641 21.42ZM97.0441 24.864C97.0441 25.8347 97.0907 26.46 97.1841 26.74C97.2961 27.02 97.4921 27.16 97.7721 27.16C98.0707 27.16 98.3414 26.9267 98.5841 26.46C98.8454 25.9747 98.9761 25.312 98.9761 24.472V21.868H98.7801C97.6227 21.868 97.0441 22.7173 97.0441 24.416V24.864ZM116.758 20.468C116.758 18.5453 116.664 17.2573 116.478 16.604C116.291 15.932 115.927 15.596 115.386 15.596C114.844 15.596 114.359 15.9507 113.93 16.66C113.5 17.3507 113.286 18.284 113.286 19.46V24.584C113.286 25.3867 113.444 26.068 113.762 26.628C114.079 27.188 114.546 27.468 115.162 27.468C115.778 27.468 116.198 27.0573 116.422 26.236C116.646 25.4147 116.758 23.9773 116.758 21.924V20.468ZM113.23 14.672V16.884C113.958 15.2227 115.246 14.392 117.094 14.392C118.699 14.392 119.94 14.9707 120.818 16.128C121.714 17.2853 122.162 19.04 122.162 21.392C122.162 23.744 121.676 25.48 120.706 26.6C119.754 27.72 118.316 28.28 116.394 28.28C115.498 28.28 114.826 28.168 114.378 27.944C113.93 27.72 113.566 27.3747 113.286 26.908V34.16H116.898V34.664H106.538V34.16H108.078V15.176H106.594V14.672H113.23ZM130.363 28.28C127.955 28.28 126.144 27.664 124.931 26.432C123.736 25.1813 123.139 23.4547 123.139 21.252C123.139 19.0307 123.811 17.332 125.155 16.156C126.517 14.98 128.244 14.392 130.335 14.392C134.572 14.392 136.607 16.52 136.439 20.776H128.543V21.868C128.543 23.6973 128.776 25.0787 129.243 26.012C129.709 26.9453 130.521 27.412 131.679 27.412C133.844 27.412 135.263 26.2547 135.935 23.94L136.439 24.024C136.084 25.368 135.44 26.4133 134.507 27.16C133.592 27.9067 132.211 28.28 130.363 28.28ZM128.571 20.216H131.455V18.844C131.455 17.332 131.361 16.3053 131.175 15.764C131.007 15.204 130.652 14.924 130.111 14.924C129.588 14.924 129.196 15.2227 128.935 15.82C128.692 16.3987 128.571 17.4067 128.571 18.844V20.216ZM12.096 61.468L10.052 55.42H4.508L2.352 61.468H4.452V62H0.168V61.468H1.484L8.624 42.232H10.92L17.976 61.468H19.264V62H10.108V61.468H12.096ZM7.392 47.468L4.76 54.804H9.828L7.392 47.468ZM29.0734 49.456C28.3827 49.456 27.7761 49.904 27.2534 50.8C26.7307 51.696 26.4694 52.76 26.4694 53.992V61.496H28.4574V62H19.7214V61.496H21.2614V49.176H19.7214V48.672H26.4694V51.36C26.7121 50.408 27.1787 49.68 27.8694 49.176C28.5601 48.6533 29.3441 48.392 30.2214 48.392C31.0987 48.392 31.8081 48.644 32.3494 49.148C32.9094 49.6333 33.1894 50.3333 33.1894 51.248C33.1894 52.144 32.9841 52.8347 32.5734 53.32C32.1627 53.8053 31.5281 54.048 30.6694 54.048C29.8294 54.048 29.2041 53.768 28.7934 53.208C28.4014 52.648 28.3547 51.8733 28.6534 50.884H29.6614C30.1281 49.932 29.9321 49.456 29.0734 49.456ZM41.288 48.896C40.4666 48.896 39.8786 49.344 39.524 50.24C39.1693 51.136 38.992 52.62 38.992 54.692V56.148C38.992 57.996 39.1973 59.3213 39.608 60.124C40.0186 60.9267 40.7746 61.328 41.876 61.328C42.9773 61.328 43.8546 60.9547 44.508 60.208C45.1613 59.4613 45.5813 58.612 45.768 57.66L46.272 57.716C45.9173 59.3213 45.264 60.4787 44.312 61.188C43.3413 61.916 42.0066 62.28 40.308 62.28C38.1426 62.28 36.4813 61.7013 35.324 60.544C34.1666 59.368 33.588 57.66 33.588 55.42C33.588 53.1613 34.2413 51.4253 35.548 50.212C36.8733 48.9987 38.712 48.392 41.064 48.392C42.7253 48.392 43.9946 48.7187 44.872 49.372C45.7493 50.0067 46.188 50.8093 46.188 51.78C46.188 52.7507 45.9733 53.46 45.544 53.908C45.1333 54.356 44.5546 54.58 43.808 54.58C43.08 54.58 42.492 54.384 42.044 53.992C41.596 53.6 41.372 53.0213 41.372 52.256C41.372 51.92 41.4186 51.584 41.512 51.248H42.436C42.5666 50.8747 42.632 50.5387 42.632 50.24C42.632 49.344 42.184 48.896 41.288 48.896ZM46.7097 41H53.4577V51.248C53.7564 50.3893 54.2137 49.6987 54.8297 49.176C55.4457 48.6533 56.379 48.392 57.6297 48.392C60.523 48.392 61.9697 49.9507 61.9697 53.068V61.496H63.5377V62H55.6137V61.496H56.7617V52.396C56.7617 51.276 56.687 50.5573 56.5377 50.24C56.3884 49.904 56.1177 49.736 55.7257 49.736C55.1284 49.736 54.5964 50.128 54.1297 50.912C53.6817 51.696 53.4577 52.648 53.4577 53.768V61.496H54.6617V62H46.7097V61.496H48.2497V41.504H46.7097V41ZM68.0796 46.74C67.0903 46.74 66.3809 46.488 65.9516 45.984C65.5409 45.48 65.3356 44.8547 65.3356 44.108C65.3356 43.3613 65.5596 42.7453 66.0076 42.26C66.4743 41.7747 67.1743 41.532 68.1076 41.532C69.0409 41.532 69.7503 41.756 70.2356 42.204C70.7209 42.6333 70.9636 43.2587 70.9636 44.08C70.9636 44.8827 70.7303 45.5267 70.2636 46.012C69.7969 46.4973 69.0689 46.74 68.0796 46.74ZM63.8516 48.672H70.7116V61.496H72.2796V62H63.9636V61.496H65.5036V49.176H63.8516V48.672ZM74.2503 57.996V49.176H72.7103V48.672H74.2503V45.06L79.4583 43.772V48.672H83.0983V49.176H79.4583V58.612C79.4583 59.4893 79.5423 60.1333 79.7103 60.544C79.897 60.9547 80.2703 61.16 80.8303 61.16C81.3903 61.16 81.8756 60.88 82.2863 60.32C82.7156 59.76 82.9956 58.9947 83.1263 58.024L83.6023 58.08C83.453 59.368 83.0423 60.3947 82.3703 61.16C81.6983 61.9067 80.5876 62.28 79.0383 62.28C77.489 62.28 76.3036 61.972 75.4823 61.356C74.661 60.74 74.2503 59.62 74.2503 57.996ZM91.2338 62.28C88.8258 62.28 87.0152 61.664 85.8018 60.432C84.6072 59.1813 84.0098 57.4547 84.0098 55.252C84.0098 53.0307 84.6818 51.332 86.0258 50.156C87.3885 48.98 89.1152 48.392 91.2058 48.392C95.4432 48.392 97.4778 50.52 97.3098 54.776H89.4138V55.868C89.4138 57.6973 89.6472 59.0787 90.1138 60.012C90.5805 60.9453 91.3925 61.412 92.5498 61.412C94.7152 61.412 96.1338 60.2547 96.8058 57.94L97.3098 58.024C96.9552 59.368 96.3112 60.4133 95.3778 61.16C94.4632 61.9067 93.0818 62.28 91.2338 62.28ZM89.4418 54.216H92.3258V52.844C92.3258 51.332 92.2325 50.3053 92.0458 49.764C91.8778 49.204 91.5232 48.924 90.9818 48.924C90.4592 48.924 90.0672 49.2227 89.8058 49.82C89.5632 50.3987 89.4418 51.4067 89.4418 52.844V54.216ZM106.147 48.896C105.326 48.896 104.738 49.344 104.383 50.24C104.029 51.136 103.851 52.62 103.851 54.692V56.148C103.851 57.996 104.057 59.3213 104.467 60.124C104.878 60.9267 105.634 61.328 106.735 61.328C107.837 61.328 108.714 60.9547 109.367 60.208C110.021 59.4613 110.441 58.612 110.627 57.66L111.131 57.716C110.777 59.3213 110.123 60.4787 109.171 61.188C108.201 61.916 106.866 62.28 105.167 62.28C103.002 62.28 101.341 61.7013 100.183 60.544C99.026 59.368 98.4473 57.66 98.4473 55.42C98.4473 53.1613 99.1007 51.4253 100.407 50.212C101.733 48.9987 103.571 48.392 105.923 48.392C107.585 48.392 108.854 48.7187 109.731 49.372C110.609 50.0067 111.047 50.8093 111.047 51.78C111.047 52.7507 110.833 53.46 110.403 53.908C109.993 54.356 109.414 54.58 108.667 54.58C107.939 54.58 107.351 54.384 106.903 53.992C106.455 53.6 106.231 53.0213 106.231 52.256C106.231 51.92 106.278 51.584 106.371 51.248H107.295C107.426 50.8747 107.491 50.5387 107.491 50.24C107.491 49.344 107.043 48.896 106.147 48.896ZM113.243 57.996V49.176H111.703V48.672H113.243V45.06L118.451 43.772V48.672H122.091V49.176H118.451V58.612C118.451 59.4893 118.535 60.1333 118.703 60.544C118.889 60.9547 119.263 61.16 119.823 61.16C120.383 61.16 120.868 60.88 121.279 60.32C121.708 59.76 121.988 58.9947 122.119 58.024L122.595 58.08C122.445 59.368 122.035 60.3947 121.363 61.16C120.691 61.9067 119.58 62.28 118.031 62.28C116.481 62.28 115.296 61.972 114.475 61.356C113.653 60.74 113.243 59.62 113.243 57.996ZM139.105 62H132.721L132.413 59.956C132.115 60.7027 131.667 61.2813 131.069 61.692C130.491 62.084 129.623 62.28 128.465 62.28C125.572 62.28 124.125 60.7213 124.125 57.604V49.176H122.557V48.672H129.333V58.276C129.333 59.396 129.408 60.1333 129.557 60.488C129.725 60.8427 130.043 61.02 130.509 61.02C130.995 61.02 131.424 60.7307 131.797 60.152C132.171 59.5733 132.357 58.7707 132.357 57.744V49.176H131.069V48.672H137.565V61.496H139.105V62ZM149.03 49.456C148.34 49.456 147.733 49.904 147.21 50.8C146.688 51.696 146.426 52.76 146.426 53.992V61.496H148.414V62H139.678V61.496H141.218V49.176H139.678V48.672H146.426V51.36C146.669 50.408 147.136 49.68 147.826 49.176C148.517 48.6533 149.301 48.392 150.178 48.392C151.056 48.392 151.765 48.644 152.306 49.148C152.866 49.6333 153.146 50.3333 153.146 51.248C153.146 52.144 152.941 52.8347 152.53 53.32C152.12 53.8053 151.485 54.048 150.626 54.048C149.786 54.048 149.161 53.768 148.75 53.208C148.358 52.648 148.312 51.8733 148.61 50.884H149.618C150.085 49.932 149.889 49.456 149.03 49.456ZM160.769 62.28C158.361 62.28 156.55 61.664 155.337 60.432C154.142 59.1813 153.545 57.4547 153.545 55.252C153.545 53.0307 154.217 51.332 155.561 50.156C156.924 48.98 158.65 48.392 160.741 48.392C164.978 48.392 167.013 50.52 166.845 54.776H158.949V55.868C158.949 57.6973 159.182 59.0787 159.649 60.012C160.116 60.9453 160.928 61.412 162.085 61.412C164.25 61.412 165.669 60.2547 166.341 57.94L166.845 58.024C166.49 59.368 165.846 60.4133 164.913 61.16C163.998 61.9067 162.617 62.28 160.769 62.28ZM158.977 54.216H161.861V52.844C161.861 51.332 161.768 50.3053 161.581 49.764C161.413 49.204 161.058 48.924 160.517 48.924C159.994 48.924 159.602 49.2227 159.341 49.82C159.098 50.3987 158.977 51.4067 158.977 52.844V54.216ZM173.014 42.4H181.246C184.064 42.4 186.164 42.8107 187.546 43.632C188.927 44.4347 189.618 45.8813 189.618 47.972C189.618 50.2867 188.778 51.8827 187.098 52.76C185.53 53.5627 183.336 53.964 180.518 53.964H180.294V61.468H183.794V62H173.014V61.468H174.834V42.932H173.014V42.4ZM180.294 42.932V53.432H180.882C182.002 53.432 182.776 53.0493 183.206 52.284C183.635 51.5187 183.85 50.2773 183.85 48.56V47.216C183.85 45.6293 183.644 44.5187 183.234 43.884C182.842 43.2493 182.114 42.932 181.05 42.932H180.294ZM199.972 49.456C199.281 49.456 198.675 49.904 198.152 50.8C197.629 51.696 197.368 52.76 197.368 53.992V61.496H199.356V62H190.62V61.496H192.16V49.176H190.62V48.672H197.368V51.36C197.611 50.408 198.077 49.68 198.768 49.176C199.459 48.6533 200.243 48.392 201.12 48.392C201.997 48.392 202.707 48.644 203.248 49.148C203.808 49.6333 204.088 50.3333 204.088 51.248C204.088 52.144 203.883 52.8347 203.472 53.32C203.061 53.8053 202.427 54.048 201.568 54.048C200.728 54.048 200.103 53.768 199.692 53.208C199.3 52.648 199.253 51.8733 199.552 50.884H200.56C201.027 49.932 200.831 49.456 199.972 49.456ZM213.39 56.484V54.104C213.39 52.2933 213.288 50.9773 213.082 50.156C212.896 49.316 212.448 48.896 211.738 48.896C211.328 48.896 210.992 49.0173 210.73 49.26C210.488 49.484 210.31 49.8667 210.198 50.408C210.03 51.248 209.946 52.5267 209.946 54.244V56.428C209.946 58.4627 210.002 59.6853 210.114 60.096C210.245 60.5067 210.376 60.8427 210.506 61.104C210.712 61.552 211.113 61.776 211.71 61.776C212.438 61.776 212.914 61.356 213.138 60.516C213.306 59.9187 213.39 58.5747 213.39 56.484ZM211.654 62.28C209.321 62.28 207.557 61.6827 206.362 60.488C205.168 59.2933 204.57 57.5853 204.57 55.364C204.57 53.124 205.205 51.4067 206.474 50.212C207.762 48.9987 209.564 48.392 211.878 48.392C214.193 48.392 215.92 48.952 217.058 50.072C218.197 51.1733 218.766 52.8627 218.766 55.14C218.766 59.9 216.396 62.28 211.654 62.28ZM226.298 48.672V59.592C226.298 62.6533 225.766 64.9867 224.702 66.592C223.656 68.1973 221.939 69 219.55 69C218 69 216.871 68.692 216.162 68.076C215.434 67.46 215.07 66.7413 215.07 65.92C215.07 65.0987 215.312 64.464 215.798 64.016C216.283 63.5867 216.89 63.372 217.618 63.372C218.346 63.372 218.896 63.568 219.27 63.96C219.624 64.3707 219.802 64.8187 219.802 65.304C219.802 65.7893 219.746 66.256 219.634 66.704H218.57C218.271 67.208 218.234 67.6373 218.458 67.992C218.663 68.3467 219.046 68.524 219.606 68.524C220.184 68.524 220.576 68.1973 220.782 67.544C220.987 66.9093 221.09 65.584 221.09 63.568V49.176H219.27V48.672H226.298ZM223.638 46.74C222.648 46.74 221.939 46.488 221.51 45.984C221.099 45.48 220.894 44.8547 220.894 44.108C220.894 43.3613 221.118 42.7453 221.566 42.26C222.032 41.7747 222.732 41.532 223.666 41.532C224.599 41.532 225.308 41.756 225.794 42.204C226.279 42.6333 226.522 43.2587 226.522 44.08C226.522 44.8827 226.288 45.5267 225.822 46.012C225.355 46.4973 224.627 46.74 223.638 46.74ZM235.609 62.28C233.201 62.28 231.39 61.664 230.177 60.432C228.982 59.1813 228.385 57.4547 228.385 55.252C228.385 53.0307 229.057 51.332 230.401 50.156C231.764 48.98 233.49 48.392 235.581 48.392C239.818 48.392 241.853 50.52 241.685 54.776H233.789V55.868C233.789 57.6973 234.022 59.0787 234.489 60.012C234.956 60.9453 235.768 61.412 236.925 61.412C239.09 61.412 240.509 60.2547 241.181 57.94L241.685 58.024C241.33 59.368 240.686 60.4133 239.753 61.16C238.838 61.9067 237.457 62.28 235.609 62.28ZM233.817 54.216H236.701V52.844C236.701 51.332 236.608 50.3053 236.421 49.764C236.253 49.204 235.898 48.924 235.357 48.924C234.834 48.924 234.442 49.2227 234.181 49.82C233.938 50.3987 233.817 51.4067 233.817 52.844V54.216ZM250.522 48.896C249.701 48.896 249.113 49.344 248.758 50.24C248.404 51.136 248.226 52.62 248.226 54.692V56.148C248.226 57.996 248.432 59.3213 248.842 60.124C249.253 60.9267 250.009 61.328 251.11 61.328C252.212 61.328 253.089 60.9547 253.742 60.208C254.396 59.4613 254.816 58.612 255.002 57.66L255.506 57.716C255.152 59.3213 254.498 60.4787 253.546 61.188C252.576 61.916 251.241 62.28 249.542 62.28C247.377 62.28 245.716 61.7013 244.558 60.544C243.401 59.368 242.822 57.66 242.822 55.42C242.822 53.1613 243.476 51.4253 244.782 50.212C246.108 48.9987 247.946 48.392 250.298 48.392C251.96 48.392 253.229 48.7187 254.106 49.372C254.984 50.0067 255.422 50.8093 255.422 51.78C255.422 52.7507 255.208 53.46 254.778 53.908C254.368 54.356 253.789 54.58 253.042 54.58C252.314 54.58 251.726 54.384 251.278 53.992C250.83 53.6 250.606 53.0213 250.606 52.256C250.606 51.92 250.653 51.584 250.746 51.248H251.67C251.801 50.8747 251.866 50.5387 251.866 50.24C251.866 49.344 251.418 48.896 250.522 48.896ZM257.618 57.996V49.176H256.078V48.672H257.618V45.06L262.826 43.772V48.672H266.466V49.176H262.826V58.612C262.826 59.4893 262.91 60.1333 263.078 60.544C263.264 60.9547 263.638 61.16 264.198 61.16C264.758 61.16 265.243 60.88 265.654 60.32C266.083 59.76 266.363 58.9947 266.494 58.024L266.97 58.08C266.82 59.368 266.41 60.3947 265.738 61.16C265.066 61.9067 263.955 62.28 262.406 62.28C260.856 62.28 259.671 61.972 258.85 61.356C258.028 60.74 257.618 59.62 257.618 57.996ZM267.881 62.28V57.268H268.217C268.702 58.892 269.356 60.0307 270.177 60.684C270.998 61.3373 272.025 61.664 273.257 61.664C275.161 61.664 276.113 61.0573 276.113 59.844C276.113 59.3213 275.88 58.9293 275.413 58.668C274.685 58.2573 273.752 57.94 272.613 57.716C271.344 57.38 270.28 56.932 269.421 56.372C268.394 55.7 267.881 54.636 267.881 53.18C267.881 51.724 268.329 50.5667 269.225 49.708C270.121 48.8307 271.316 48.392 272.809 48.392C273.724 48.392 274.666 48.6067 275.637 49.036C275.992 49.1853 276.262 49.26 276.449 49.26C276.636 49.26 276.794 49.1947 276.925 49.064C277.056 48.9333 277.214 48.6907 277.401 48.336H277.709V52.62H277.373C276.421 50.1933 274.946 48.98 272.949 48.98C272.072 48.98 271.418 49.1387 270.989 49.456C270.56 49.7547 270.345 50.1373 270.345 50.604C270.345 50.884 270.41 51.108 270.541 51.276C270.672 51.4253 270.774 51.5373 270.849 51.612C270.924 51.6867 271.045 51.7707 271.213 51.864C271.381 51.9387 271.521 52.004 271.633 52.06C271.745 52.0973 271.913 52.1533 272.137 52.228C272.38 52.3027 272.557 52.3493 272.669 52.368C273.938 52.6853 274.853 52.9653 275.413 53.208C275.973 53.432 276.505 53.712 277.009 54.048C278.036 54.7573 278.549 55.9053 278.549 57.492C278.549 59.06 278.082 60.2547 277.149 61.076C276.216 61.8787 274.937 62.28 273.313 62.28C272.156 62.28 271.036 62.0093 269.953 61.468C269.729 61.3187 269.552 61.244 269.421 61.244C269.01 61.244 268.609 61.5893 268.217 62.28H267.881Z" fill="black"/>
<path d="M4.74 78.12C3.588 78.12 2.684 77.796 2.028 77.148C1.38 76.5 1.056 75.564 1.056 74.34V69.6H2.616V74.28C2.616 75.144 2.8 75.772 3.168 76.164C3.544 76.556 4.072 76.752 4.752 76.752C5.432 76.752 5.956 76.556 6.324 76.164C6.692 75.772 6.876 75.144 6.876 74.28V69.6H8.412V74.34C8.412 75.564 8.084 76.5 7.428 77.148C6.78 77.796 5.884 78.12 4.74 78.12ZM14.0888 71.52C14.6008 71.52 15.0568 71.62 15.4568 71.82C15.8648 72.02 16.1848 72.328 16.4168 72.744C16.6488 73.152 16.7648 73.68 16.7648 74.328V78H15.2648V74.52C15.2648 73.952 15.1288 73.528 14.8568 73.248C14.5928 72.968 14.2208 72.828 13.7408 72.828C13.3888 72.828 13.0768 72.9 12.8048 73.044C12.5328 73.188 12.3208 73.404 12.1688 73.692C12.0248 73.972 11.9528 74.328 11.9528 74.76V78H10.4528V71.592H11.8808V73.32L11.6288 72.792C11.8528 72.384 12.1768 72.072 12.6008 71.856C13.0328 71.632 13.5288 71.52 14.0888 71.52ZM21.3913 78.084C20.7753 78.084 20.2193 77.948 19.7233 77.676C19.2353 77.396 18.8513 77.012 18.5713 76.524C18.2913 76.036 18.1513 75.46 18.1513 74.796C18.1513 74.132 18.2913 73.556 18.5713 73.068C18.8513 72.58 19.2353 72.2 19.7233 71.928C20.2193 71.656 20.7753 71.52 21.3913 71.52C21.9273 71.52 22.4073 71.64 22.8313 71.88C23.2553 72.112 23.5913 72.468 23.8393 72.948C24.0873 73.428 24.2113 74.044 24.2113 74.796C24.2113 75.54 24.0913 76.156 23.8513 76.644C23.6113 77.124 23.2793 77.484 22.8553 77.724C22.4313 77.964 21.9433 78.084 21.3913 78.084ZM21.5713 76.8C21.9313 76.8 22.2513 76.72 22.5313 76.56C22.8193 76.4 23.0473 76.168 23.2153 75.864C23.3913 75.56 23.4793 75.204 23.4793 74.796C23.4793 74.38 23.3913 74.024 23.2153 73.728C23.0473 73.424 22.8193 73.192 22.5313 73.032C22.2513 72.872 21.9313 72.792 21.5713 72.792C21.2113 72.792 20.8873 72.872 20.5993 73.032C20.3193 73.192 20.0913 73.424 19.9153 73.728C19.7473 74.024 19.6633 74.38 19.6633 74.796C19.6633 75.204 19.7473 75.56 19.9153 75.864C20.0913 76.168 20.3193 76.4 20.5993 76.56C20.8873 76.72 21.2113 76.8 21.5713 76.8ZM23.5153 78V76.488L23.5753 74.784L23.4553 73.08V69.096H24.9433V78H23.5153ZM29.9296 78.084C29.2176 78.084 28.5936 77.944 28.0576 77.664C27.5296 77.376 27.1176 76.984 26.8216 76.488C26.5336 75.992 26.3896 75.428 26.3896 74.796C26.3896 74.156 26.5296 73.592 26.8096 73.104C27.0976 72.608 27.4896 72.22 27.9856 71.94C28.4896 71.66 29.0616 71.52 29.7016 71.52C30.3256 71.52 30.8816 71.656 31.3696 71.928C31.8576 72.2 32.2416 72.584 32.5216 73.08C32.8016 73.576 32.9416 74.16 32.9416 74.832C32.9416 74.896 32.9376 74.968 32.9296 75.048C32.9296 75.128 32.9256 75.204 32.9176 75.276H27.5776V74.28H32.1256L31.5376 74.592C31.5456 74.224 31.4696 73.9 31.3096 73.62C31.1496 73.34 30.9296 73.12 30.6496 72.96C30.3776 72.8 30.0616 72.72 29.7016 72.72C29.3336 72.72 29.0096 72.8 28.7296 72.96C28.4576 73.12 28.2416 73.344 28.0816 73.632C27.9296 73.912 27.8536 74.244 27.8536 74.628V74.868C27.8536 75.252 27.9416 75.592 28.1176 75.888C28.2936 76.184 28.5416 76.412 28.8616 76.572C29.1816 76.732 29.5496 76.812 29.9656 76.812C30.3256 76.812 30.6496 76.756 30.9376 76.644C31.2256 76.532 31.4816 76.356 31.7056 76.116L32.5096 77.04C32.2216 77.376 31.8576 77.636 31.4176 77.82C30.9856 77.996 30.4896 78.084 29.9296 78.084ZM34.3824 78V71.592H35.8104V73.356L35.6424 72.84C35.8344 72.408 36.1344 72.08 36.5424 71.856C36.9584 71.632 37.4744 71.52 38.0904 71.52V72.948C38.0264 72.932 37.9664 72.924 37.9104 72.924C37.8544 72.916 37.7984 72.912 37.7424 72.912C37.1744 72.912 36.7224 73.08 36.3864 73.416C36.0504 73.744 35.8824 74.236 35.8824 74.892V78H34.3824ZM42.2083 80.412C41.6163 80.412 41.0363 80.332 40.4683 80.172C39.9083 80.02 39.4483 79.796 39.0883 79.5L39.7603 78.372C40.0403 78.604 40.3923 78.788 40.8163 78.924C41.2483 79.068 41.6843 79.14 42.1243 79.14C42.8283 79.14 43.3443 78.976 43.6723 78.648C44.0003 78.328 44.1643 77.844 44.1643 77.196V76.056L44.2843 74.604L44.2363 73.152V71.592H45.6643V77.028C45.6643 78.188 45.3683 79.04 44.7763 79.584C44.1843 80.136 43.3283 80.412 42.2083 80.412ZM42.0163 77.712C41.4083 77.712 40.8563 77.584 40.3603 77.328C39.8723 77.064 39.4843 76.7 39.1963 76.236C38.9163 75.772 38.7763 75.228 38.7763 74.604C38.7763 73.988 38.9163 73.448 39.1963 72.984C39.4843 72.52 39.8723 72.16 40.3603 71.904C40.8563 71.648 41.4083 71.52 42.0163 71.52C42.5603 71.52 43.0483 71.628 43.4803 71.844C43.9123 72.06 44.2563 72.396 44.5123 72.852C44.7763 73.308 44.9083 73.892 44.9083 74.604C44.9083 75.316 44.7763 75.904 44.5123 76.368C44.2563 76.824 43.9123 77.164 43.4803 77.388C43.0483 77.604 42.5603 77.712 42.0163 77.712ZM42.2443 76.44C42.6203 76.44 42.9563 76.364 43.2523 76.212C43.5483 76.052 43.7763 75.836 43.9363 75.564C44.1043 75.284 44.1883 74.964 44.1883 74.604C44.1883 74.244 44.1043 73.928 43.9363 73.656C43.7763 73.376 43.5483 73.164 43.2523 73.02C42.9563 72.868 42.6203 72.792 42.2443 72.792C41.8683 72.792 41.5283 72.868 41.2243 73.02C40.9283 73.164 40.6963 73.376 40.5283 73.656C40.3683 73.928 40.2883 74.244 40.2883 74.604C40.2883 74.964 40.3683 75.284 40.5283 75.564C40.6963 75.836 40.9283 76.052 41.2243 76.212C41.5283 76.364 41.8683 76.44 42.2443 76.44ZM47.6363 78V71.592H49.0643V73.356L48.8963 72.84C49.0883 72.408 49.3883 72.08 49.7963 71.856C50.2123 71.632 50.7283 71.52 51.3443 71.52V72.948C51.2803 72.932 51.2203 72.924 51.1643 72.924C51.1083 72.916 51.0523 72.912 50.9963 72.912C50.4283 72.912 49.9763 73.08 49.6403 73.416C49.3043 73.744 49.1363 74.236 49.1363 74.892V78H47.6363ZM56.1078 78V76.704L56.0238 76.428V74.16C56.0238 73.72 55.8918 73.38 55.6278 73.14C55.3638 72.892 54.9638 72.768 54.4278 72.768C54.0678 72.768 53.7118 72.824 53.3598 72.936C53.0158 73.048 52.7238 73.204 52.4838 73.404L51.8958 72.312C52.2398 72.048 52.6478 71.852 53.1198 71.724C53.5998 71.588 54.0958 71.52 54.6078 71.52C55.5358 71.52 56.2518 71.744 56.7558 72.192C57.2678 72.632 57.5238 73.316 57.5238 74.244V78H56.1078ZM54.0918 78.084C53.6118 78.084 53.1918 78.004 52.8318 77.844C52.4718 77.676 52.1918 77.448 51.9918 77.16C51.7998 76.864 51.7038 76.532 51.7038 76.164C51.7038 75.804 51.7878 75.48 51.9558 75.192C52.1318 74.904 52.4158 74.676 52.8078 74.508C53.1998 74.34 53.7198 74.256 54.3678 74.256H56.2278V75.252H54.4758C53.9638 75.252 53.6198 75.336 53.4438 75.504C53.2678 75.664 53.1798 75.864 53.1798 76.104C53.1798 76.376 53.2878 76.592 53.5038 76.752C53.7198 76.912 54.0198 76.992 54.4038 76.992C54.7718 76.992 55.0998 76.908 55.3878 76.74C55.6838 76.572 55.8958 76.324 56.0238 75.996L56.2758 76.896C56.1318 77.272 55.8718 77.564 55.4958 77.772C55.1278 77.98 54.6598 78.084 54.0918 78.084ZM62.1726 78.084C61.5566 78.084 61.0006 77.948 60.5046 77.676C60.0166 77.396 59.6326 77.012 59.3526 76.524C59.0726 76.036 58.9326 75.46 58.9326 74.796C58.9326 74.132 59.0726 73.556 59.3526 73.068C59.6326 72.58 60.0166 72.2 60.5046 71.928C61.0006 71.656 61.5566 71.52 62.1726 71.52C62.7086 71.52 63.1886 71.64 63.6126 71.88C64.0366 72.112 64.3726 72.468 64.6206 72.948C64.8686 73.428 64.9926 74.044 64.9926 74.796C64.9926 75.54 64.8726 76.156 64.6326 76.644C64.3926 77.124 64.0606 77.484 63.6366 77.724C63.2126 77.964 62.7246 78.084 62.1726 78.084ZM62.3526 76.8C62.7126 76.8 63.0326 76.72 63.3126 76.56C63.6006 76.4 63.8286 76.168 63.9966 75.864C64.1726 75.56 64.2606 75.204 64.2606 74.796C64.2606 74.38 64.1726 74.024 63.9966 73.728C63.8286 73.424 63.6006 73.192 63.3126 73.032C63.0326 72.872 62.7126 72.792 62.3526 72.792C61.9926 72.792 61.6686 72.872 61.3806 73.032C61.1006 73.192 60.8726 73.424 60.6966 73.728C60.5286 74.024 60.4446 74.38 60.4446 74.796C60.4446 75.204 60.5286 75.56 60.6966 75.864C60.8726 76.168 61.1006 76.4 61.3806 76.56C61.6686 76.72 61.9926 76.8 62.3526 76.8ZM64.2966 78V76.488L64.3566 74.784L64.2366 73.08V69.096H65.7246V78H64.2966ZM70.4108 78.084C69.8668 78.084 69.3868 77.984 68.9708 77.784C68.5548 77.576 68.2308 77.264 67.9988 76.848C67.7668 76.424 67.6508 75.892 67.6508 75.252V71.592H69.1508V75.048C69.1508 75.624 69.2788 76.056 69.5348 76.344C69.7988 76.624 70.1708 76.764 70.6508 76.764C71.0028 76.764 71.3068 76.692 71.5628 76.548C71.8268 76.404 72.0308 76.188 72.1748 75.9C72.3268 75.612 72.4028 75.256 72.4028 74.832V71.592H73.9028V78H72.4748V76.272L72.7268 76.8C72.5108 77.216 72.1948 77.536 71.7788 77.76C71.3628 77.976 70.9068 78.084 70.4108 78.084ZM79.8148 78V76.704L79.7308 76.428V74.16C79.7308 73.72 79.5988 73.38 79.3348 73.14C79.0708 72.892 78.6708 72.768 78.1348 72.768C77.7748 72.768 77.4188 72.824 77.0668 72.936C76.7228 73.048 76.4308 73.204 76.1908 73.404L75.6028 72.312C75.9468 72.048 76.3548 71.852 76.8268 71.724C77.3068 71.588 77.8028 71.52 78.3148 71.52C79.2428 71.52 79.9588 71.744 80.4628 72.192C80.9748 72.632 81.2308 73.316 81.2308 74.244V78H79.8148ZM77.7988 78.084C77.3188 78.084 76.8988 78.004 76.5388 77.844C76.1788 77.676 75.8988 77.448 75.6988 77.16C75.5068 76.864 75.4108 76.532 75.4108 76.164C75.4108 75.804 75.4948 75.48 75.6628 75.192C75.8388 74.904 76.1228 74.676 76.5148 74.508C76.9068 74.34 77.4268 74.256 78.0748 74.256H79.9348V75.252H78.1828C77.6708 75.252 77.3268 75.336 77.1508 75.504C76.9748 75.664 76.8868 75.864 76.8868 76.104C76.8868 76.376 76.9948 76.592 77.2108 76.752C77.4268 76.912 77.7268 76.992 78.1108 76.992C78.4788 76.992 78.8068 76.908 79.0948 76.74C79.3908 76.572 79.6028 76.324 79.7308 75.996L79.9828 76.896C79.8388 77.272 79.5788 77.564 79.2028 77.772C78.8348 77.98 78.3668 78.084 77.7988 78.084ZM85.5679 78.084C84.8639 78.084 84.3199 77.904 83.9359 77.544C83.5519 77.176 83.3599 76.636 83.3599 75.924V70.176H84.8599V75.888C84.8599 76.192 84.9359 76.428 85.0879 76.596C85.2479 76.764 85.4679 76.848 85.7479 76.848C86.0839 76.848 86.3639 76.76 86.5879 76.584L87.0079 77.652C86.8319 77.796 86.6159 77.904 86.3599 77.976C86.1039 78.048 85.8399 78.084 85.5679 78.084ZM82.3039 72.84V71.64H86.5759V72.84H82.3039ZM91.0429 78.084C90.3309 78.084 89.7069 77.944 89.1709 77.664C88.6429 77.376 88.2309 76.984 87.9349 76.488C87.6469 75.992 87.5029 75.428 87.5029 74.796C87.5029 74.156 87.6429 73.592 87.9229 73.104C88.2109 72.608 88.6029 72.22 89.0989 71.94C89.6029 71.66 90.1749 71.52 90.8149 71.52C91.4389 71.52 91.9949 71.656 92.4829 71.928C92.9709 72.2 93.3549 72.584 93.6349 73.08C93.9149 73.576 94.0549 74.16 94.0549 74.832C94.0549 74.896 94.0509 74.968 94.0429 75.048C94.0429 75.128 94.0389 75.204 94.0309 75.276H88.6909V74.28H93.2389L92.6509 74.592C92.6589 74.224 92.5829 73.9 92.4229 73.62C92.2629 73.34 92.0429 73.12 91.7629 72.96C91.4909 72.8 91.1749 72.72 90.8149 72.72C90.4469 72.72 90.1229 72.8 89.8429 72.96C89.5709 73.12 89.3549 73.344 89.1949 73.632C89.0429 73.912 88.9669 74.244 88.9669 74.628V74.868C88.9669 75.252 89.0549 75.592 89.2309 75.888C89.4069 76.184 89.6549 76.412 89.9749 76.572C90.2949 76.732 90.6629 76.812 91.0789 76.812C91.4389 76.812 91.7629 76.756 92.0509 76.644C92.3389 76.532 92.5949 76.356 92.8189 76.116L93.6229 77.04C93.3349 77.376 92.9709 77.636 92.5309 77.82C92.0989 77.996 91.6029 78.084 91.0429 78.084ZM102.76 78V76.704L102.676 76.428V74.16C102.676 73.72 102.544 73.38 102.28 73.14C102.016 72.892 101.616 72.768 101.08 72.768C100.72 72.768 100.364 72.824 100.012 72.936C99.6681 73.048 99.3761 73.204 99.1361 73.404L98.5481 72.312C98.8921 72.048 99.3001 71.852 99.7721 71.724C100.252 71.588 100.748 71.52 101.26 71.52C102.188 71.52 102.904 71.744 103.408 72.192C103.92 72.632 104.176 73.316 104.176 74.244V78H102.76ZM100.744 78.084C100.264 78.084 99.8441 78.004 99.4841 77.844C99.1241 77.676 98.8441 77.448 98.6441 77.16C98.4521 76.864 98.3561 76.532 98.3561 76.164C98.3561 75.804 98.4401 75.48 98.6081 75.192C98.7841 74.904 99.0681 74.676 99.4601 74.508C99.8521 74.34 100.372 74.256 101.02 74.256H102.88V75.252H101.128C100.616 75.252 100.272 75.336 100.096 75.504C99.9201 75.664 99.8321 75.864 99.8321 76.104C99.8321 76.376 99.9401 76.592 100.156 76.752C100.372 76.912 100.672 76.992 101.056 76.992C101.424 76.992 101.752 76.908 102.04 76.74C102.336 76.572 102.548 76.324 102.676 75.996L102.928 76.896C102.784 77.272 102.524 77.564 102.148 77.772C101.78 77.98 101.312 78.084 100.744 78.084ZM109.053 78.084C108.381 78.084 107.781 77.944 107.253 77.664C106.733 77.376 106.325 76.984 106.029 76.488C105.733 75.992 105.585 75.428 105.585 74.796C105.585 74.156 105.733 73.592 106.029 73.104C106.325 72.608 106.733 72.22 107.253 71.94C107.781 71.66 108.381 71.52 109.053 71.52C109.677 71.52 110.225 71.648 110.697 71.904C111.177 72.152 111.541 72.52 111.789 73.008L110.637 73.68C110.445 73.376 110.209 73.152 109.929 73.008C109.657 72.864 109.361 72.792 109.041 72.792C108.673 72.792 108.341 72.872 108.045 73.032C107.749 73.192 107.517 73.424 107.349 73.728C107.181 74.024 107.097 74.38 107.097 74.796C107.097 75.212 107.181 75.572 107.349 75.876C107.517 76.172 107.749 76.4 108.045 76.56C108.341 76.72 108.673 76.8 109.041 76.8C109.361 76.8 109.657 76.728 109.929 76.584C110.209 76.44 110.445 76.216 110.637 75.912L111.789 76.584C111.541 77.064 111.177 77.436 110.697 77.7C110.225 77.956 109.677 78.084 109.053 78.084ZM117.034 78V76.704L116.95 76.428V74.16C116.95 73.72 116.818 73.38 116.554 73.14C116.29 72.892 115.89 72.768 115.354 72.768C114.994 72.768 114.638 72.824 114.286 72.936C113.942 73.048 113.65 73.204 113.41 73.404L112.822 72.312C113.166 72.048 113.574 71.852 114.046 71.724C114.526 71.588 115.022 71.52 115.534 71.52C116.462 71.52 117.178 71.744 117.682 72.192C118.194 72.632 118.45 73.316 118.45 74.244V78H117.034ZM115.018 78.084C114.538 78.084 114.118 78.004 113.758 77.844C113.398 77.676 113.118 77.448 112.918 77.16C112.726 76.864 112.63 76.532 112.63 76.164C112.63 75.804 112.714 75.48 112.882 75.192C113.058 74.904 113.342 74.676 113.734 74.508C114.126 74.34 114.646 74.256 115.294 74.256H117.154V75.252H115.402C114.89 75.252 114.546 75.336 114.37 75.504C114.194 75.664 114.106 75.864 114.106 76.104C114.106 76.376 114.214 76.592 114.43 76.752C114.646 76.912 114.946 76.992 115.33 76.992C115.698 76.992 116.026 76.908 116.314 76.74C116.61 76.572 116.822 76.324 116.95 75.996L117.202 76.896C117.058 77.272 116.798 77.564 116.422 77.772C116.054 77.98 115.586 78.084 115.018 78.084ZM123.098 78.084C122.482 78.084 121.926 77.948 121.43 77.676C120.942 77.396 120.558 77.012 120.278 76.524C119.998 76.036 119.858 75.46 119.858 74.796C119.858 74.132 119.998 73.556 120.278 73.068C120.558 72.58 120.942 72.2 121.43 71.928C121.926 71.656 122.482 71.52 123.098 71.52C123.634 71.52 124.114 71.64 124.538 71.88C124.962 72.112 125.298 72.468 125.546 72.948C125.794 73.428 125.918 74.044 125.918 74.796C125.918 75.54 125.798 76.156 125.558 76.644C125.318 77.124 124.986 77.484 124.562 77.724C124.138 77.964 123.65 78.084 123.098 78.084ZM123.278 76.8C123.638 76.8 123.958 76.72 124.238 76.56C124.526 76.4 124.754 76.168 124.922 75.864C125.098 75.56 125.186 75.204 125.186 74.796C125.186 74.38 125.098 74.024 124.922 73.728C124.754 73.424 124.526 73.192 124.238 73.032C123.958 72.872 123.638 72.792 123.278 72.792C122.918 72.792 122.594 72.872 122.306 73.032C122.026 73.192 121.798 73.424 121.622 73.728C121.454 74.024 121.37 74.38 121.37 74.796C121.37 75.204 121.454 75.56 121.622 75.864C121.798 76.168 122.026 76.4 122.306 76.56C122.594 76.72 122.918 76.8 123.278 76.8ZM125.222 78V76.488L125.282 74.784L125.162 73.08V69.096H126.65V78H125.222ZM131.637 78.084C130.925 78.084 130.301 77.944 129.765 77.664C129.237 77.376 128.825 76.984 128.529 76.488C128.241 75.992 128.097 75.428 128.097 74.796C128.097 74.156 128.237 73.592 128.517 73.104C128.805 72.608 129.197 72.22 129.693 71.94C130.197 71.66 130.769 71.52 131.409 71.52C132.033 71.52 132.589 71.656 133.077 71.928C133.565 72.2 133.949 72.584 134.229 73.08C134.509 73.576 134.649 74.16 134.649 74.832C134.649 74.896 134.645 74.968 134.637 75.048C134.637 75.128 134.633 75.204 134.625 75.276H129.285V74.28H133.833L133.245 74.592C133.253 74.224 133.177 73.9 133.017 73.62C132.857 73.34 132.637 73.12 132.357 72.96C132.085 72.8 131.769 72.72 131.409 72.72C131.041 72.72 130.717 72.8 130.437 72.96C130.165 73.12 129.949 73.344 129.789 73.632C129.637 73.912 129.561 74.244 129.561 74.628V74.868C129.561 75.252 129.649 75.592 129.825 75.888C130.001 76.184 130.249 76.412 130.569 76.572C130.889 76.732 131.257 76.812 131.673 76.812C132.033 76.812 132.357 76.756 132.645 76.644C132.933 76.532 133.189 76.356 133.413 76.116L134.217 77.04C133.929 77.376 133.565 77.636 133.125 77.82C132.693 77.996 132.197 78.084 131.637 78.084ZM144.177 71.52C144.689 71.52 145.141 71.62 145.533 71.82C145.933 72.02 146.245 72.328 146.469 72.744C146.693 73.152 146.805 73.68 146.805 74.328V78H145.305V74.52C145.305 73.952 145.181 73.528 144.933 73.248C144.685 72.968 144.329 72.828 143.865 72.828C143.537 72.828 143.245 72.9 142.989 73.044C142.741 73.188 142.545 73.4 142.401 73.68C142.265 73.96 142.197 74.316 142.197 74.748V78H140.697V74.52C140.697 73.952 140.573 73.528 140.325 73.248C140.077 72.968 139.721 72.828 139.257 72.828C138.929 72.828 138.637 72.9 138.381 73.044C138.133 73.188 137.937 73.4 137.793 73.68C137.657 73.96 137.589 74.316 137.589 74.748V78H136.089V71.592H137.517V73.296L137.265 72.792C137.481 72.376 137.793 72.06 138.201 71.844C138.617 71.628 139.089 71.52 139.617 71.52C140.217 71.52 140.737 71.668 141.177 71.964C141.625 72.26 141.921 72.708 142.065 73.308L141.477 73.104C141.685 72.624 142.029 72.24 142.509 71.952C142.989 71.664 143.545 71.52 144.177 71.52ZM148.722 78V71.592H150.222V78H148.722ZM149.478 70.536C149.198 70.536 148.966 70.448 148.782 70.272C148.606 70.096 148.518 69.884 148.518 69.636C148.518 69.38 148.606 69.168 148.782 69C148.966 68.824 149.198 68.736 149.478 68.736C149.758 68.736 149.986 68.82 150.162 68.988C150.346 69.148 150.438 69.352 150.438 69.6C150.438 69.864 150.35 70.088 150.174 70.272C149.998 70.448 149.766 70.536 149.478 70.536ZM155.131 78.084C154.459 78.084 153.859 77.944 153.331 77.664C152.811 77.376 152.403 76.984 152.107 76.488C151.811 75.992 151.663 75.428 151.663 74.796C151.663 74.156 151.811 73.592 152.107 73.104C152.403 72.608 152.811 72.22 153.331 71.94C153.859 71.66 154.459 71.52 155.131 71.52C155.755 71.52 156.303 71.648 156.775 71.904C157.255 72.152 157.619 72.52 157.867 73.008L156.715 73.68C156.523 73.376 156.287 73.152 156.007 73.008C155.735 72.864 155.439 72.792 155.119 72.792C154.751 72.792 154.419 72.872 154.123 73.032C153.827 73.192 153.595 73.424 153.427 73.728C153.259 74.024 153.175 74.38 153.175 74.796C153.175 75.212 153.259 75.572 153.427 75.876C153.595 76.172 153.827 76.4 154.123 76.56C154.419 76.72 154.751 76.8 155.119 76.8C155.439 76.8 155.735 76.728 156.007 76.584C156.287 76.44 156.523 76.216 156.715 75.912L157.867 76.584C157.619 77.064 157.255 77.436 156.775 77.7C156.303 77.956 155.755 78.084 155.131 78.084ZM163.896 78L161.544 71.592H162.96L164.976 77.244H164.304L166.416 71.592H167.676L169.728 77.244H169.068L171.144 71.592H172.476L170.112 78H168.672L166.8 72.996H167.244L165.336 78H163.896ZM176.212 78.084C175.556 78.084 174.972 77.944 174.46 77.664C173.948 77.376 173.544 76.984 173.248 76.488C172.952 75.992 172.804 75.428 172.804 74.796C172.804 74.156 172.952 73.592 173.248 73.104C173.544 72.608 173.948 72.22 174.46 71.94C174.972 71.66 175.556 71.52 176.212 71.52C176.876 71.52 177.464 71.66 177.976 71.94C178.496 72.22 178.9 72.604 179.188 73.092C179.484 73.58 179.632 74.148 179.632 74.796C179.632 75.428 179.484 75.992 179.188 76.488C178.9 76.984 178.496 77.376 177.976 77.664C177.464 77.944 176.876 78.084 176.212 78.084ZM176.212 76.8C176.58 76.8 176.908 76.72 177.196 76.56C177.484 76.4 177.708 76.168 177.868 75.864C178.036 75.56 178.12 75.204 178.12 74.796C178.12 74.38 178.036 74.024 177.868 73.728C177.708 73.424 177.484 73.192 177.196 73.032C176.908 72.872 176.584 72.792 176.224 72.792C175.856 72.792 175.528 72.872 175.24 73.032C174.96 73.192 174.736 73.424 174.568 73.728C174.4 74.024 174.316 74.38 174.316 74.796C174.316 75.204 174.4 75.56 174.568 75.864C174.736 76.168 174.96 76.4 175.24 76.56C175.528 76.72 175.852 76.8 176.212 76.8ZM181.066 78V71.592H182.494V73.356L182.326 72.84C182.518 72.408 182.818 72.08 183.226 71.856C183.642 71.632 184.158 71.52 184.774 71.52V72.948C184.71 72.932 184.65 72.924 184.594 72.924C184.538 72.916 184.482 72.912 184.426 72.912C183.858 72.912 183.406 73.08 183.07 73.416C182.734 73.744 182.566 74.236 182.566 74.892V78H181.066ZM187.271 76.572L187.307 74.688L190.655 71.592H192.455L189.611 74.448L188.819 75.108L187.271 76.572ZM186.047 78V69.096H187.547V78H186.047ZM190.883 78L188.543 75.108L189.491 73.908L192.707 78H190.883ZM195.456 78.084C194.92 78.084 194.404 78.016 193.908 77.88C193.42 77.736 193.032 77.564 192.744 77.364L193.32 76.224C193.608 76.408 193.952 76.56 194.352 76.68C194.752 76.8 195.152 76.86 195.552 76.86C196.024 76.86 196.364 76.796 196.572 76.668C196.788 76.54 196.896 76.368 196.896 76.152C196.896 75.976 196.824 75.844 196.68 75.756C196.536 75.66 196.348 75.588 196.116 75.54C195.884 75.492 195.624 75.448 195.336 75.408C195.056 75.368 194.772 75.316 194.484 75.252C194.204 75.18 193.948 75.08 193.716 74.952C193.484 74.816 193.296 74.636 193.152 74.412C193.008 74.188 192.936 73.892 192.936 73.524C192.936 73.116 193.052 72.764 193.284 72.468C193.516 72.164 193.84 71.932 194.256 71.772C194.68 71.604 195.18 71.52 195.756 71.52C196.188 71.52 196.624 71.568 197.064 71.664C197.504 71.76 197.868 71.896 198.156 72.072L197.58 73.212C197.276 73.028 196.968 72.904 196.656 72.84C196.352 72.768 196.048 72.732 195.744 72.732C195.288 72.732 194.948 72.8 194.724 72.936C194.508 73.072 194.4 73.244 194.4 73.452C194.4 73.644 194.472 73.788 194.616 73.884C194.76 73.98 194.948 74.056 195.18 74.112C195.412 74.168 195.668 74.216 195.948 74.256C196.236 74.288 196.52 74.34 196.8 74.412C197.08 74.484 197.336 74.584 197.568 74.712C197.808 74.832 198 75.004 198.144 75.228C198.288 75.452 198.36 75.744 198.36 76.104C198.36 76.504 198.24 76.852 198 77.148C197.768 77.444 197.436 77.676 197.004 77.844C196.572 78.004 196.056 78.084 195.456 78.084Z" fill="white"/>
</svg>
