<svg width="349" height="99" viewBox="0 0 349 99" fill="none" xmlns="http://www.w3.org/2000/svg">
<path d="M0.588 8.4H10.668V9.016H7.7V27.384H8.708C10.2947 27.384 11.5547 26.8987 12.488 25.928C13.44 24.9573 14.4013 23.464 15.372 21.448H15.96L15.428 28H0.588V27.384H2.24V9.016H0.588V8.4ZM23.6797 21.42H24.4917V19.264C24.4917 17.4907 24.389 16.3053 24.1837 15.708C23.997 15.092 23.6237 14.784 23.0637 14.784C22.7277 14.784 22.4197 14.8773 22.1397 15.064C21.8784 15.232 21.7477 15.4747 21.7477 15.792C21.7477 16.0907 21.8037 16.3987 21.9157 16.716H22.6157C22.765 17.108 22.8397 17.584 22.8397 18.144C22.8397 18.6853 22.6064 19.1613 22.1397 19.572C21.673 19.964 21.085 20.16 20.3757 20.16C18.7704 20.16 17.9677 19.3853 17.9677 17.836C17.9677 15.54 19.9184 14.392 23.8197 14.392C26.041 14.392 27.5717 14.7747 28.4117 15.54C29.2704 16.2867 29.6997 17.668 29.6997 19.684V25.368C29.6997 26.3387 29.9704 26.824 30.5117 26.824C31.1464 26.824 31.5197 25.8627 31.6317 23.94L32.0517 23.968C31.977 25.6107 31.669 26.74 31.1277 27.356C30.5864 27.972 29.6997 28.28 28.4677 28.28C26.2277 28.28 24.9397 27.5893 24.6037 26.208C24.361 26.9173 23.997 27.44 23.5117 27.776C23.0264 28.112 22.317 28.28 21.3837 28.28C18.621 28.28 17.2397 27.1507 17.2397 24.892C17.2397 23.5667 17.7624 22.6613 18.8077 22.176C19.8717 21.672 21.4957 21.42 23.6797 21.42ZM22.5597 24.864C22.5597 25.8347 22.6064 26.46 22.6997 26.74C22.8117 27.02 23.0077 27.16 23.2877 27.16C23.5864 27.16 23.857 26.9267 24.0997 26.46C24.361 25.9747 24.4917 25.312 24.4917 24.472V21.868H24.2957C23.1384 21.868 22.5597 22.7173 22.5597 24.416V24.864ZM32.3829 14.672H39.1309V17.248C39.4295 16.3893 39.8869 15.6987 40.5029 15.176C41.1189 14.6533 42.0522 14.392 43.3029 14.392C46.1962 14.392 47.6429 15.9507 47.6429 19.068V27.496H49.2109V28H41.2869V27.496H42.4349V18.396C42.4349 17.276 42.3602 16.5573 42.2109 16.24C42.0615 15.904 41.7909 15.736 41.3989 15.736C40.8015 15.736 40.2695 16.128 39.8029 16.912C39.3549 17.696 39.1309 18.648 39.1309 19.768V27.496H40.3349V28H32.3829V27.496H33.9229V15.176H32.3829V14.672ZM55.2648 22.204C55.2648 24.164 55.3674 25.4707 55.5728 26.124C55.7781 26.7587 56.1514 27.076 56.6928 27.076C57.2528 27.076 57.7288 26.8333 58.1208 26.348C58.5314 25.8627 58.7368 25.144 58.7368 24.192V18.088C58.7368 17.2853 58.5781 16.604 58.2608 16.044C57.9434 15.484 57.4768 15.204 56.8608 15.204C56.2448 15.204 55.8248 15.6147 55.6008 16.436C55.3768 17.2573 55.2648 18.6947 55.2648 20.748V22.204ZM59.1008 28L58.7928 26.04C58.1581 27.5333 56.8701 28.28 54.9288 28.28C53.3234 28.28 52.0728 27.7013 51.1768 26.544C50.2994 25.3867 49.8608 23.66 49.8608 21.364C49.8608 16.716 51.7088 14.392 55.4048 14.392C57.0474 14.392 58.1301 14.8493 58.6528 15.764V7.504H56.9448V7H63.9448V27.496H65.3168V28H59.1008ZM66.4123 28.28V23.268H66.7483C67.2336 24.892 67.8869 26.0307 68.7083 26.684C69.5296 27.3373 70.5563 27.664 71.7883 27.664C73.6923 27.664 74.6443 27.0573 74.6443 25.844C74.6443 25.3213 74.4109 24.9293 73.9443 24.668C73.2163 24.2573 72.2829 23.94 71.1443 23.716C69.8749 23.38 68.8109 22.932 67.9523 22.372C66.9256 21.7 66.4123 20.636 66.4123 19.18C66.4123 17.724 66.8603 16.5667 67.7563 15.708C68.6523 14.8307 69.8469 14.392 71.3403 14.392C72.2549 14.392 73.1976 14.6067 74.1683 15.036C74.5229 15.1853 74.7936 15.26 74.9803 15.26C75.1669 15.26 75.3256 15.1947 75.4563 15.064C75.5869 14.9333 75.7456 14.6907 75.9323 14.336H76.2403V18.62H75.9043C74.9523 16.1933 73.4776 14.98 71.4803 14.98C70.6029 14.98 69.9496 15.1387 69.5203 15.456C69.0909 15.7547 68.8763 16.1373 68.8763 16.604C68.8763 16.884 68.9416 17.108 69.0723 17.276C69.2029 17.4253 69.3056 17.5373 69.3803 17.612C69.4549 17.6867 69.5763 17.7707 69.7443 17.864C69.9123 17.9387 70.0523 18.004 70.1643 18.06C70.2763 18.0973 70.4443 18.1533 70.6683 18.228C70.9109 18.3027 71.0883 18.3493 71.2003 18.368C72.4696 18.6853 73.3843 18.9653 73.9443 19.208C74.5043 19.432 75.0363 19.712 75.5403 20.048C76.5669 20.7573 77.0803 21.9053 77.0803 23.492C77.0803 25.06 76.6136 26.2547 75.6803 27.076C74.7469 27.8787 73.4683 28.28 71.8443 28.28C70.6869 28.28 69.5669 28.0093 68.4843 27.468C68.2603 27.3187 68.0829 27.244 67.9523 27.244C67.5416 27.244 67.1403 27.5893 66.7483 28.28H66.4123ZM85.7489 14.896C84.9276 14.896 84.3396 15.344 83.9849 16.24C83.6302 17.136 83.4529 18.62 83.4529 20.692V22.148C83.4529 23.996 83.6582 25.3213 84.0689 26.124C84.4796 26.9267 85.2356 27.328 86.3369 27.328C87.4382 27.328 88.3156 26.9547 88.9689 26.208C89.6222 25.4613 90.0422 24.612 90.2289 23.66L90.7329 23.716C90.3782 25.3213 89.7249 26.4787 88.7729 27.188C87.8022 27.916 86.4676 28.28 84.7689 28.28C82.6036 28.28 80.9422 27.7013 79.7849 26.544C78.6276 25.368 78.0489 23.66 78.0489 21.42C78.0489 19.1613 78.7022 17.4253 80.0089 16.212C81.3342 14.9987 83.1729 14.392 85.5249 14.392C87.1862 14.392 88.4556 14.7187 89.3329 15.372C90.2102 16.0067 90.6489 16.8093 90.6489 17.78C90.6489 18.7507 90.4342 19.46 90.0049 19.908C89.5942 20.356 89.0156 20.58 88.2689 20.58C87.5409 20.58 86.9529 20.384 86.5049 19.992C86.0569 19.6 85.8329 19.0213 85.8329 18.256C85.8329 17.92 85.8796 17.584 85.9729 17.248H86.8969C87.0276 16.8747 87.0929 16.5387 87.0929 16.24C87.0929 15.344 86.6449 14.896 85.7489 14.896ZM98.1641 21.42H98.9761V19.264C98.9761 17.4907 98.8734 16.3053 98.6681 15.708C98.4814 15.092 98.1081 14.784 97.5481 14.784C97.2121 14.784 96.9041 14.8773 96.6241 15.064C96.3627 15.232 96.2321 15.4747 96.2321 15.792C96.2321 16.0907 96.2881 16.3987 96.4001 16.716H97.1001C97.2494 17.108 97.3241 17.584 97.3241 18.144C97.3241 18.6853 97.0907 19.1613 96.6241 19.572C96.1574 19.964 95.5694 20.16 94.8601 20.16C93.2547 20.16 92.4521 19.3853 92.4521 17.836C92.4521 15.54 94.4027 14.392 98.3041 14.392C100.525 14.392 102.056 14.7747 102.896 15.54C103.755 16.2867 104.184 17.668 104.184 19.684V25.368C104.184 26.3387 104.455 26.824 104.996 26.824C105.631 26.824 106.004 25.8627 106.116 23.94L106.536 23.968C106.461 25.6107 106.153 26.74 105.612 27.356C105.071 27.972 104.184 28.28 102.952 28.28C100.712 28.28 99.4241 27.5893 99.0881 26.208C98.8454 26.9173 98.4814 27.44 97.9961 27.776C97.5107 28.112 96.8014 28.28 95.8681 28.28C93.1054 28.28 91.7241 27.1507 91.7241 24.892C91.7241 23.5667 92.2467 22.6613 93.2921 22.176C94.3561 21.672 95.9801 21.42 98.1641 21.42ZM97.0441 24.864C97.0441 25.8347 97.0907 26.46 97.1841 26.74C97.2961 27.02 97.4921 27.16 97.7721 27.16C98.0707 27.16 98.3414 26.9267 98.5841 26.46C98.8454 25.9747 98.9761 25.312 98.9761 24.472V21.868H98.7801C97.6227 21.868 97.0441 22.7173 97.0441 24.416V24.864ZM116.758 20.468C116.758 18.5453 116.664 17.2573 116.478 16.604C116.291 15.932 115.927 15.596 115.386 15.596C114.844 15.596 114.359 15.9507 113.93 16.66C113.5 17.3507 113.286 18.284 113.286 19.46V24.584C113.286 25.3867 113.444 26.068 113.762 26.628C114.079 27.188 114.546 27.468 115.162 27.468C115.778 27.468 116.198 27.0573 116.422 26.236C116.646 25.4147 116.758 23.9773 116.758 21.924V20.468ZM113.23 14.672V16.884C113.958 15.2227 115.246 14.392 117.094 14.392C118.699 14.392 119.94 14.9707 120.818 16.128C121.714 17.2853 122.162 19.04 122.162 21.392C122.162 23.744 121.676 25.48 120.706 26.6C119.754 27.72 118.316 28.28 116.394 28.28C115.498 28.28 114.826 28.168 114.378 27.944C113.93 27.72 113.566 27.3747 113.286 26.908V34.16H116.898V34.664H106.538V34.16H108.078V15.176H106.594V14.672H113.23ZM130.363 28.28C127.955 28.28 126.144 27.664 124.931 26.432C123.736 25.1813 123.139 23.4547 123.139 21.252C123.139 19.0307 123.811 17.332 125.155 16.156C126.517 14.98 128.244 14.392 130.335 14.392C134.572 14.392 136.607 16.52 136.439 20.776H128.543V21.868C128.543 23.6973 128.776 25.0787 129.243 26.012C129.709 26.9453 130.521 27.412 131.679 27.412C133.844 27.412 135.263 26.2547 135.935 23.94L136.439 24.024C136.084 25.368 135.44 26.4133 134.507 27.16C133.592 27.9067 132.211 28.28 130.363 28.28ZM128.571 20.216H131.455V18.844C131.455 17.332 131.361 16.3053 131.175 15.764C131.007 15.204 130.652 14.924 130.111 14.924C129.588 14.924 129.196 15.2227 128.935 15.82C128.692 16.3987 128.571 17.4067 128.571 18.844V20.216ZM12.096 61.468L10.052 55.42H4.508L2.352 61.468H4.452V62H0.168V61.468H1.484L8.624 42.232H10.92L17.976 61.468H19.264V62H10.108V61.468H12.096ZM7.392 47.468L4.76 54.804H9.828L7.392 47.468ZM29.0734 49.456C28.3827 49.456 27.7761 49.904 27.2534 50.8C26.7307 51.696 26.4694 52.76 26.4694 53.992V61.496H28.4574V62H19.7214V61.496H21.2614V49.176H19.7214V48.672H26.4694V51.36C26.7121 50.408 27.1787 49.68 27.8694 49.176C28.5601 48.6533 29.3441 48.392 30.2214 48.392C31.0987 48.392 31.8081 48.644 32.3494 49.148C32.9094 49.6333 33.1894 50.3333 33.1894 51.248C33.1894 52.144 32.9841 52.8347 32.5734 53.32C32.1627 53.8053 31.5281 54.048 30.6694 54.048C29.8294 54.048 29.2041 53.768 28.7934 53.208C28.4014 52.648 28.3547 51.8733 28.6534 50.884H29.6614C30.1281 49.932 29.9321 49.456 29.0734 49.456ZM41.288 48.896C40.4666 48.896 39.8786 49.344 39.524 50.24C39.1693 51.136 38.992 52.62 38.992 54.692V56.148C38.992 57.996 39.1973 59.3213 39.608 60.124C40.0186 60.9267 40.7746 61.328 41.876 61.328C42.9773 61.328 43.8546 60.9547 44.508 60.208C45.1613 59.4613 45.5813 58.612 45.768 57.66L46.272 57.716C45.9173 59.3213 45.264 60.4787 44.312 61.188C43.3413 61.916 42.0066 62.28 40.308 62.28C38.1426 62.28 36.4813 61.7013 35.324 60.544C34.1666 59.368 33.588 57.66 33.588 55.42C33.588 53.1613 34.2413 51.4253 35.548 50.212C36.8733 48.9987 38.712 48.392 41.064 48.392C42.7253 48.392 43.9946 48.7187 44.872 49.372C45.7493 50.0067 46.188 50.8093 46.188 51.78C46.188 52.7507 45.9733 53.46 45.544 53.908C45.1333 54.356 44.5546 54.58 43.808 54.58C43.08 54.58 42.492 54.384 42.044 53.992C41.596 53.6 41.372 53.0213 41.372 52.256C41.372 51.92 41.4186 51.584 41.512 51.248H42.436C42.5666 50.8747 42.632 50.5387 42.632 50.24C42.632 49.344 42.184 48.896 41.288 48.896ZM46.7097 41H53.4577V51.248C53.7564 50.3893 54.2137 49.6987 54.8297 49.176C55.4457 48.6533 56.379 48.392 57.6297 48.392C60.523 48.392 61.9697 49.9507 61.9697 53.068V61.496H63.5377V62H55.6137V61.496H56.7617V52.396C56.7617 51.276 56.687 50.5573 56.5377 50.24C56.3884 49.904 56.1177 49.736 55.7257 49.736C55.1284 49.736 54.5964 50.128 54.1297 50.912C53.6817 51.696 53.4577 52.648 53.4577 53.768V61.496H54.6617V62H46.7097V61.496H48.2497V41.504H46.7097V41ZM68.0796 46.74C67.0903 46.74 66.3809 46.488 65.9516 45.984C65.5409 45.48 65.3356 44.8547 65.3356 44.108C65.3356 43.3613 65.5596 42.7453 66.0076 42.26C66.4743 41.7747 67.1743 41.532 68.1076 41.532C69.0409 41.532 69.7503 41.756 70.2356 42.204C70.7209 42.6333 70.9636 43.2587 70.9636 44.08C70.9636 44.8827 70.7303 45.5267 70.2636 46.012C69.7969 46.4973 69.0689 46.74 68.0796 46.74ZM63.8516 48.672H70.7116V61.496H72.2796V62H63.9636V61.496H65.5036V49.176H63.8516V48.672ZM74.2503 57.996V49.176H72.7103V48.672H74.2503V45.06L79.4583 43.772V48.672H83.0983V49.176H79.4583V58.612C79.4583 59.4893 79.5423 60.1333 79.7103 60.544C79.897 60.9547 80.2703 61.16 80.8303 61.16C81.3903 61.16 81.8756 60.88 82.2863 60.32C82.7156 59.76 82.9956 58.9947 83.1263 58.024L83.6023 58.08C83.453 59.368 83.0423 60.3947 82.3703 61.16C81.6983 61.9067 80.5876 62.28 79.0383 62.28C77.489 62.28 76.3036 61.972 75.4823 61.356C74.661 60.74 74.2503 59.62 74.2503 57.996ZM91.2338 62.28C88.8258 62.28 87.0152 61.664 85.8018 60.432C84.6072 59.1813 84.0098 57.4547 84.0098 55.252C84.0098 53.0307 84.6818 51.332 86.0258 50.156C87.3885 48.98 89.1152 48.392 91.2058 48.392C95.4432 48.392 97.4778 50.52 97.3098 54.776H89.4138V55.868C89.4138 57.6973 89.6472 59.0787 90.1138 60.012C90.5805 60.9453 91.3925 61.412 92.5498 61.412C94.7152 61.412 96.1338 60.2547 96.8058 57.94L97.3098 58.024C96.9552 59.368 96.3112 60.4133 95.3778 61.16C94.4632 61.9067 93.0818 62.28 91.2338 62.28ZM89.4418 54.216H92.3258V52.844C92.3258 51.332 92.2325 50.3053 92.0458 49.764C91.8778 49.204 91.5232 48.924 90.9818 48.924C90.4592 48.924 90.0672 49.2227 89.8058 49.82C89.5632 50.3987 89.4418 51.4067 89.4418 52.844V54.216ZM106.147 48.896C105.326 48.896 104.738 49.344 104.383 50.24C104.029 51.136 103.851 52.62 103.851 54.692V56.148C103.851 57.996 104.057 59.3213 104.467 60.124C104.878 60.9267 105.634 61.328 106.735 61.328C107.837 61.328 108.714 60.9547 109.367 60.208C110.021 59.4613 110.441 58.612 110.627 57.66L111.131 57.716C110.777 59.3213 110.123 60.4787 109.171 61.188C108.201 61.916 106.866 62.28 105.167 62.28C103.002 62.28 101.341 61.7013 100.183 60.544C99.026 59.368 98.4473 57.66 98.4473 55.42C98.4473 53.1613 99.1007 51.4253 100.407 50.212C101.733 48.9987 103.571 48.392 105.923 48.392C107.585 48.392 108.854 48.7187 109.731 49.372C110.609 50.0067 111.047 50.8093 111.047 51.78C111.047 52.7507 110.833 53.46 110.403 53.908C109.993 54.356 109.414 54.58 108.667 54.58C107.939 54.58 107.351 54.384 106.903 53.992C106.455 53.6 106.231 53.0213 106.231 52.256C106.231 51.92 106.278 51.584 106.371 51.248H107.295C107.426 50.8747 107.491 50.5387 107.491 50.24C107.491 49.344 107.043 48.896 106.147 48.896ZM113.243 57.996V49.176H111.703V48.672H113.243V45.06L118.451 43.772V48.672H122.091V49.176H118.451V58.612C118.451 59.4893 118.535 60.1333 118.703 60.544C118.889 60.9547 119.263 61.16 119.823 61.16C120.383 61.16 120.868 60.88 121.279 60.32C121.708 59.76 121.988 58.9947 122.119 58.024L122.595 58.08C122.445 59.368 122.035 60.3947 121.363 61.16C120.691 61.9067 119.58 62.28 118.031 62.28C116.481 62.28 115.296 61.972 114.475 61.356C113.653 60.74 113.243 59.62 113.243 57.996ZM139.105 62H132.721L132.413 59.956C132.115 60.7027 131.667 61.2813 131.069 61.692C130.491 62.084 129.623 62.28 128.465 62.28C125.572 62.28 124.125 60.7213 124.125 57.604V49.176H122.557V48.672H129.333V58.276C129.333 59.396 129.408 60.1333 129.557 60.488C129.725 60.8427 130.043 61.02 130.509 61.02C130.995 61.02 131.424 60.7307 131.797 60.152C132.171 59.5733 132.357 58.7707 132.357 57.744V49.176H131.069V48.672H137.565V61.496H139.105V62ZM149.03 49.456C148.34 49.456 147.733 49.904 147.21 50.8C146.688 51.696 146.426 52.76 146.426 53.992V61.496H148.414V62H139.678V61.496H141.218V49.176H139.678V48.672H146.426V51.36C146.669 50.408 147.136 49.68 147.826 49.176C148.517 48.6533 149.301 48.392 150.178 48.392C151.056 48.392 151.765 48.644 152.306 49.148C152.866 49.6333 153.146 50.3333 153.146 51.248C153.146 52.144 152.941 52.8347 152.53 53.32C152.12 53.8053 151.485 54.048 150.626 54.048C149.786 54.048 149.161 53.768 148.75 53.208C148.358 52.648 148.312 51.8733 148.61 50.884H149.618C150.085 49.932 149.889 49.456 149.03 49.456ZM160.769 62.28C158.361 62.28 156.55 61.664 155.337 60.432C154.142 59.1813 153.545 57.4547 153.545 55.252C153.545 53.0307 154.217 51.332 155.561 50.156C156.924 48.98 158.65 48.392 160.741 48.392C164.978 48.392 167.013 50.52 166.845 54.776H158.949V55.868C158.949 57.6973 159.182 59.0787 159.649 60.012C160.116 60.9453 160.928 61.412 162.085 61.412C164.25 61.412 165.669 60.2547 166.341 57.94L166.845 58.024C166.49 59.368 165.846 60.4133 164.913 61.16C163.998 61.9067 162.617 62.28 160.769 62.28ZM158.977 54.216H161.861V52.844C161.861 51.332 161.768 50.3053 161.581 49.764C161.413 49.204 161.058 48.924 160.517 48.924C159.994 48.924 159.602 49.2227 159.341 49.82C159.098 50.3987 158.977 51.4067 158.977 52.844V54.216ZM173.014 42.4H181.246C184.064 42.4 186.164 42.8107 187.546 43.632C188.927 44.4347 189.618 45.8813 189.618 47.972C189.618 50.2867 188.778 51.8827 187.098 52.76C185.53 53.5627 183.336 53.964 180.518 53.964H180.294V61.468H183.794V62H173.014V61.468H174.834V42.932H173.014V42.4ZM180.294 42.932V53.432H180.882C182.002 53.432 182.776 53.0493 183.206 52.284C183.635 51.5187 183.85 50.2773 183.85 48.56V47.216C183.85 45.6293 183.644 44.5187 183.234 43.884C182.842 43.2493 182.114 42.932 181.05 42.932H180.294ZM199.972 49.456C199.281 49.456 198.675 49.904 198.152 50.8C197.629 51.696 197.368 52.76 197.368 53.992V61.496H199.356V62H190.62V61.496H192.16V49.176H190.62V48.672H197.368V51.36C197.611 50.408 198.077 49.68 198.768 49.176C199.459 48.6533 200.243 48.392 201.12 48.392C201.997 48.392 202.707 48.644 203.248 49.148C203.808 49.6333 204.088 50.3333 204.088 51.248C204.088 52.144 203.883 52.8347 203.472 53.32C203.061 53.8053 202.427 54.048 201.568 54.048C200.728 54.048 200.103 53.768 199.692 53.208C199.3 52.648 199.253 51.8733 199.552 50.884H200.56C201.027 49.932 200.831 49.456 199.972 49.456ZM213.39 56.484V54.104C213.39 52.2933 213.288 50.9773 213.082 50.156C212.896 49.316 212.448 48.896 211.738 48.896C211.328 48.896 210.992 49.0173 210.73 49.26C210.488 49.484 210.31 49.8667 210.198 50.408C210.03 51.248 209.946 52.5267 209.946 54.244V56.428C209.946 58.4627 210.002 59.6853 210.114 60.096C210.245 60.5067 210.376 60.8427 210.506 61.104C210.712 61.552 211.113 61.776 211.71 61.776C212.438 61.776 212.914 61.356 213.138 60.516C213.306 59.9187 213.39 58.5747 213.39 56.484ZM211.654 62.28C209.321 62.28 207.557 61.6827 206.362 60.488C205.168 59.2933 204.57 57.5853 204.57 55.364C204.57 53.124 205.205 51.4067 206.474 50.212C207.762 48.9987 209.564 48.392 211.878 48.392C214.193 48.392 215.92 48.952 217.058 50.072C218.197 51.1733 218.766 52.8627 218.766 55.14C218.766 59.9 216.396 62.28 211.654 62.28ZM226.298 48.672V59.592C226.298 62.6533 225.766 64.9867 224.702 66.592C223.656 68.1973 221.939 69 219.55 69C218 69 216.871 68.692 216.162 68.076C215.434 67.46 215.07 66.7413 215.07 65.92C215.07 65.0987 215.312 64.464 215.798 64.016C216.283 63.5867 216.89 63.372 217.618 63.372C218.346 63.372 218.896 63.568 219.27 63.96C219.624 64.3707 219.802 64.8187 219.802 65.304C219.802 65.7893 219.746 66.256 219.634 66.704H218.57C218.271 67.208 218.234 67.6373 218.458 67.992C218.663 68.3467 219.046 68.524 219.606 68.524C220.184 68.524 220.576 68.1973 220.782 67.544C220.987 66.9093 221.09 65.584 221.09 63.568V49.176H219.27V48.672H226.298ZM223.638 46.74C222.648 46.74 221.939 46.488 221.51 45.984C221.099 45.48 220.894 44.8547 220.894 44.108C220.894 43.3613 221.118 42.7453 221.566 42.26C222.032 41.7747 222.732 41.532 223.666 41.532C224.599 41.532 225.308 41.756 225.794 42.204C226.279 42.6333 226.522 43.2587 226.522 44.08C226.522 44.8827 226.288 45.5267 225.822 46.012C225.355 46.4973 224.627 46.74 223.638 46.74ZM235.609 62.28C233.201 62.28 231.39 61.664 230.177 60.432C228.982 59.1813 228.385 57.4547 228.385 55.252C228.385 53.0307 229.057 51.332 230.401 50.156C231.764 48.98 233.49 48.392 235.581 48.392C239.818 48.392 241.853 50.52 241.685 54.776H233.789V55.868C233.789 57.6973 234.022 59.0787 234.489 60.012C234.956 60.9453 235.768 61.412 236.925 61.412C239.09 61.412 240.509 60.2547 241.181 57.94L241.685 58.024C241.33 59.368 240.686 60.4133 239.753 61.16C238.838 61.9067 237.457 62.28 235.609 62.28ZM233.817 54.216H236.701V52.844C236.701 51.332 236.608 50.3053 236.421 49.764C236.253 49.204 235.898 48.924 235.357 48.924C234.834 48.924 234.442 49.2227 234.181 49.82C233.938 50.3987 233.817 51.4067 233.817 52.844V54.216ZM250.522 48.896C249.701 48.896 249.113 49.344 248.758 50.24C248.404 51.136 248.226 52.62 248.226 54.692V56.148C248.226 57.996 248.432 59.3213 248.842 60.124C249.253 60.9267 250.009 61.328 251.11 61.328C252.212 61.328 253.089 60.9547 253.742 60.208C254.396 59.4613 254.816 58.612 255.002 57.66L255.506 57.716C255.152 59.3213 254.498 60.4787 253.546 61.188C252.576 61.916 251.241 62.28 249.542 62.28C247.377 62.28 245.716 61.7013 244.558 60.544C243.401 59.368 242.822 57.66 242.822 55.42C242.822 53.1613 243.476 51.4253 244.782 50.212C246.108 48.9987 247.946 48.392 250.298 48.392C251.96 48.392 253.229 48.7187 254.106 49.372C254.984 50.0067 255.422 50.8093 255.422 51.78C255.422 52.7507 255.208 53.46 254.778 53.908C254.368 54.356 253.789 54.58 253.042 54.58C252.314 54.58 251.726 54.384 251.278 53.992C250.83 53.6 250.606 53.0213 250.606 52.256C250.606 51.92 250.653 51.584 250.746 51.248H251.67C251.801 50.8747 251.866 50.5387 251.866 50.24C251.866 49.344 251.418 48.896 250.522 48.896ZM257.618 57.996V49.176H256.078V48.672H257.618V45.06L262.826 43.772V48.672H266.466V49.176H262.826V58.612C262.826 59.4893 262.91 60.1333 263.078 60.544C263.264 60.9547 263.638 61.16 264.198 61.16C264.758 61.16 265.243 60.88 265.654 60.32C266.083 59.76 266.363 58.9947 266.494 58.024L266.97 58.08C266.82 59.368 266.41 60.3947 265.738 61.16C265.066 61.9067 263.955 62.28 262.406 62.28C260.856 62.28 259.671 61.972 258.85 61.356C258.028 60.74 257.618 59.62 257.618 57.996ZM267.881 62.28V57.268H268.217C268.702 58.892 269.356 60.0307 270.177 60.684C270.998 61.3373 272.025 61.664 273.257 61.664C275.161 61.664 276.113 61.0573 276.113 59.844C276.113 59.3213 275.88 58.9293 275.413 58.668C274.685 58.2573 273.752 57.94 272.613 57.716C271.344 57.38 270.28 56.932 269.421 56.372C268.394 55.7 267.881 54.636 267.881 53.18C267.881 51.724 268.329 50.5667 269.225 49.708C270.121 48.8307 271.316 48.392 272.809 48.392C273.724 48.392 274.666 48.6067 275.637 49.036C275.992 49.1853 276.262 49.26 276.449 49.26C276.636 49.26 276.794 49.1947 276.925 49.064C277.056 48.9333 277.214 48.6907 277.401 48.336H277.709V52.62H277.373C276.421 50.1933 274.946 48.98 272.949 48.98C272.072 48.98 271.418 49.1387 270.989 49.456C270.56 49.7547 270.345 50.1373 270.345 50.604C270.345 50.884 270.41 51.108 270.541 51.276C270.672 51.4253 270.774 51.5373 270.849 51.612C270.924 51.6867 271.045 51.7707 271.213 51.864C271.381 51.9387 271.521 52.004 271.633 52.06C271.745 52.0973 271.913 52.1533 272.137 52.228C272.38 52.3027 272.557 52.3493 272.669 52.368C273.938 52.6853 274.853 52.9653 275.413 53.208C275.973 53.432 276.505 53.712 277.009 54.048C278.036 54.7573 278.549 55.9053 278.549 57.492C278.549 59.06 278.082 60.2547 277.149 61.076C276.216 61.8787 274.937 62.28 273.313 62.28C272.156 62.28 271.036 62.0093 269.953 61.468C269.729 61.3187 269.552 61.244 269.421 61.244C269.01 61.244 268.609 61.5893 268.217 62.28H267.881Z" fill="black"/>
<path d="M5.124 79.192C4.356 79.192 3.676 79.052 3.084 78.772C2.492 78.484 2.028 78.088 1.692 77.584C1.364 77.08 1.2 76.504 1.2 75.856V70.252C1.2 70.068 1.26 69.92 1.38 69.808C1.5 69.688 1.648 69.628 1.824 69.628C2.008 69.628 2.156 69.688 2.268 69.808C2.388 69.92 2.448 70.068 2.448 70.252V75.856C2.448 76.288 2.56 76.672 2.784 77.008C3.016 77.336 3.332 77.596 3.732 77.788C4.14 77.972 4.604 78.064 5.124 78.064C5.628 78.064 6.072 77.972 6.456 77.788C6.848 77.596 7.152 77.336 7.368 77.008C7.592 76.672 7.704 76.288 7.704 75.856V70.252C7.704 70.068 7.764 69.92 7.884 69.808C8.004 69.688 8.152 69.628 8.328 69.628C8.512 69.628 8.66 69.688 8.772 69.808C8.884 69.92 8.94 70.068 8.94 70.252V75.856C8.94 76.504 8.776 77.08 8.448 77.584C8.128 78.088 7.68 78.484 7.104 78.772C6.528 79.052 5.868 79.192 5.124 79.192ZM16.7607 79.012C16.5847 79.012 16.4367 78.956 16.3167 78.844C16.2047 78.724 16.1487 78.576 16.1487 78.4V75.448C16.1487 74.992 16.0647 74.62 15.8967 74.332C15.7287 74.044 15.5007 73.832 15.2127 73.696C14.9327 73.552 14.6087 73.48 14.2407 73.48C13.9047 73.48 13.6007 73.548 13.3287 73.684C13.0567 73.82 12.8407 74.004 12.6807 74.236C12.5207 74.46 12.4407 74.72 12.4407 75.016H11.6847C11.6847 74.512 11.8047 74.064 12.0447 73.672C12.2927 73.272 12.6287 72.956 13.0527 72.724C13.4767 72.492 13.9527 72.376 14.4807 72.376C15.0327 72.376 15.5247 72.496 15.9567 72.736C16.3967 72.968 16.7407 73.312 16.9887 73.768C17.2447 74.224 17.3727 74.784 17.3727 75.448V78.4C17.3727 78.576 17.3127 78.724 17.1927 78.844C17.0807 78.956 16.9367 79.012 16.7607 79.012ZM11.8287 79.012C11.6527 79.012 11.5047 78.956 11.3847 78.844C11.2727 78.724 11.2167 78.576 11.2167 78.4V73.048C11.2167 72.864 11.2727 72.716 11.3847 72.604C11.5047 72.492 11.6527 72.436 11.8287 72.436C12.0127 72.436 12.1607 72.492 12.2727 72.604C12.3847 72.716 12.4407 72.864 12.4407 73.048V78.4C12.4407 78.576 12.3847 78.724 12.2727 78.844C12.1607 78.956 12.0127 79.012 11.8287 79.012ZM22.3724 79.048C21.7484 79.048 21.1844 78.904 20.6804 78.616C20.1844 78.32 19.7884 77.92 19.4924 77.416C19.2044 76.912 19.0604 76.344 19.0604 75.712C19.0604 75.08 19.1924 74.516 19.4564 74.02C19.7284 73.516 20.0964 73.12 20.5604 72.832C21.0244 72.536 21.5484 72.388 22.1324 72.388C22.6044 72.388 23.0404 72.488 23.4404 72.688C23.8404 72.88 24.1764 73.144 24.4484 73.48V70.24C24.4484 70.056 24.5044 69.908 24.6164 69.796C24.7364 69.684 24.8844 69.628 25.0604 69.628C25.2444 69.628 25.3924 69.684 25.5044 69.796C25.6164 69.908 25.6724 70.056 25.6724 70.24V75.712C25.6724 76.344 25.5244 76.912 25.2284 77.416C24.9404 77.92 24.5484 78.32 24.0524 78.616C23.5564 78.904 22.9964 79.048 22.3724 79.048ZM22.3724 77.968C22.7804 77.968 23.1444 77.872 23.4644 77.68C23.7844 77.48 24.0364 77.208 24.2204 76.864C24.4044 76.52 24.4964 76.136 24.4964 75.712C24.4964 75.28 24.4044 74.896 24.2204 74.56C24.0364 74.224 23.7844 73.96 23.4644 73.768C23.1444 73.568 22.7804 73.468 22.3724 73.468C21.9724 73.468 21.6084 73.568 21.2804 73.768C20.9604 73.96 20.7044 74.224 20.5124 74.56C20.3284 74.896 20.2364 75.28 20.2364 75.712C20.2364 76.136 20.3284 76.52 20.5124 76.864C20.7044 77.208 20.9604 77.48 21.2804 77.68C21.6084 77.872 21.9724 77.968 22.3724 77.968ZM30.9179 79.048C30.2539 79.048 29.6619 78.908 29.1419 78.628C28.6299 78.34 28.2259 77.948 27.9299 77.452C27.6419 76.948 27.4979 76.372 27.4979 75.724C27.4979 75.068 27.6339 74.492 27.9059 73.996C28.1859 73.492 28.5699 73.1 29.0579 72.82C29.5459 72.532 30.1059 72.388 30.7379 72.388C31.3619 72.388 31.8979 72.528 32.3459 72.808C32.7939 73.08 33.1339 73.46 33.3659 73.948C33.6059 74.428 33.7259 74.984 33.7259 75.616C33.7259 75.768 33.6739 75.896 33.5699 76C33.4659 76.096 33.3339 76.144 33.1739 76.144H28.3379V75.184H33.1379L32.6459 75.52C32.6379 75.12 32.5579 74.764 32.4059 74.452C32.2539 74.132 32.0379 73.88 31.7579 73.696C31.4779 73.512 31.1379 73.42 30.7379 73.42C30.2819 73.42 29.8899 73.52 29.5619 73.72C29.2419 73.92 28.9979 74.196 28.8299 74.548C28.6619 74.892 28.5779 75.284 28.5779 75.724C28.5779 76.164 28.6779 76.556 28.8779 76.9C29.0779 77.244 29.3539 77.516 29.7059 77.716C30.0579 77.916 30.4619 78.016 30.9179 78.016C31.1659 78.016 31.4179 77.972 31.6739 77.884C31.9379 77.788 32.1499 77.68 32.3099 77.56C32.4299 77.472 32.5579 77.428 32.6939 77.428C32.8379 77.42 32.9619 77.46 33.0659 77.548C33.2019 77.668 33.2739 77.8 33.2819 77.944C33.2899 78.088 33.2259 78.212 33.0899 78.316C32.8179 78.532 32.4779 78.708 32.0699 78.844C31.6699 78.98 31.2859 79.048 30.9179 79.048ZM35.875 74.896C35.875 74.416 35.991 73.988 36.223 73.612C36.463 73.228 36.783 72.924 37.183 72.7C37.583 72.476 38.023 72.364 38.503 72.364C38.983 72.364 39.339 72.444 39.571 72.604C39.811 72.756 39.903 72.94 39.847 73.156C39.823 73.268 39.775 73.356 39.703 73.42C39.639 73.476 39.563 73.512 39.475 73.528C39.387 73.544 39.291 73.54 39.187 73.516C38.675 73.412 38.215 73.404 37.807 73.492C37.399 73.58 37.075 73.744 36.835 73.984C36.603 74.224 36.487 74.528 36.487 74.896H35.875ZM35.887 79C35.695 79 35.547 78.952 35.443 78.856C35.339 78.752 35.287 78.6 35.287 78.4V73.036C35.287 72.844 35.339 72.696 35.443 72.592C35.547 72.488 35.695 72.436 35.887 72.436C36.087 72.436 36.235 72.488 36.331 72.592C36.435 72.688 36.487 72.836 36.487 73.036V78.4C36.487 78.592 36.435 78.74 36.331 78.844C36.235 78.948 36.087 79 35.887 79ZM43.3785 79.048C42.7785 79.048 42.2465 78.908 41.7825 78.628C41.3265 78.34 40.9665 77.948 40.7025 77.452C40.4385 76.948 40.3065 76.372 40.3065 75.724C40.3065 75.068 40.4465 74.492 40.7265 73.996C41.0145 73.492 41.4065 73.1 41.9025 72.82C42.3985 72.532 42.9705 72.388 43.6185 72.388C44.2585 72.388 44.8265 72.532 45.3225 72.82C45.8185 73.1 46.2065 73.492 46.4865 73.996C46.7745 74.492 46.9185 75.068 46.9185 75.724H46.2105C46.2105 76.372 46.0865 76.948 45.8385 77.452C45.5985 77.948 45.2665 78.34 44.8425 78.628C44.4185 78.908 43.9305 79.048 43.3785 79.048ZM43.5945 81.724C43.0265 81.724 42.4945 81.612 41.9985 81.388C41.5025 81.164 41.0825 80.836 40.7385 80.404C40.6345 80.268 40.5945 80.128 40.6185 79.984C40.6505 79.84 40.7305 79.724 40.8585 79.636C41.0025 79.54 41.1505 79.508 41.3025 79.54C41.4625 79.572 41.5905 79.652 41.6865 79.78C41.9025 80.052 42.1745 80.264 42.5025 80.416C42.8305 80.568 43.2025 80.644 43.6185 80.644C44.0025 80.644 44.3545 80.552 44.6745 80.368C45.0025 80.184 45.2625 79.912 45.4545 79.552C45.6465 79.192 45.7425 78.752 45.7425 78.232V76.528L46.1385 75.472L46.9185 75.724V78.316C46.9185 78.948 46.7785 79.52 46.4985 80.032C46.2185 80.552 45.8265 80.964 45.3225 81.268C44.8265 81.572 44.2505 81.724 43.5945 81.724ZM43.6185 77.968C44.0345 77.968 44.4025 77.872 44.7225 77.68C45.0425 77.488 45.2905 77.224 45.4665 76.888C45.6505 76.552 45.7425 76.164 45.7425 75.724C45.7425 75.284 45.6505 74.896 45.4665 74.56C45.2905 74.216 45.0425 73.948 44.7225 73.756C44.4025 73.564 44.0345 73.468 43.6185 73.468C43.2025 73.468 42.8345 73.564 42.5145 73.756C42.1945 73.948 41.9425 74.216 41.7585 74.56C41.5745 74.896 41.4825 75.284 41.4825 75.724C41.4825 76.164 41.5745 76.552 41.7585 76.888C41.9425 77.224 42.1945 77.488 42.5145 77.68C42.8345 77.872 43.2025 77.968 43.6185 77.968ZM49.3282 74.896C49.3282 74.416 49.4442 73.988 49.6762 73.612C49.9162 73.228 50.2362 72.924 50.6362 72.7C51.0362 72.476 51.4762 72.364 51.9562 72.364C52.4362 72.364 52.7922 72.444 53.0242 72.604C53.2642 72.756 53.3562 72.94 53.3002 73.156C53.2762 73.268 53.2282 73.356 53.1562 73.42C53.0922 73.476 53.0162 73.512 52.9282 73.528C52.8402 73.544 52.7442 73.54 52.6402 73.516C52.1282 73.412 51.6682 73.404 51.2602 73.492C50.8522 73.58 50.5282 73.744 50.2882 73.984C50.0562 74.224 49.9402 74.528 49.9402 74.896H49.3282ZM49.3402 79C49.1482 79 49.0002 78.952 48.8962 78.856C48.7922 78.752 48.7402 78.6 48.7402 78.4V73.036C48.7402 72.844 48.7922 72.696 48.8962 72.592C49.0002 72.488 49.1482 72.436 49.3402 72.436C49.5402 72.436 49.6882 72.488 49.7842 72.592C49.8882 72.688 49.9402 72.836 49.9402 73.036V78.4C49.9402 78.592 49.8882 78.74 49.7842 78.844C49.6882 78.948 49.5402 79 49.3402 79ZM56.8316 79.048C56.2476 79.048 55.7236 78.904 55.2596 78.616C54.7956 78.32 54.4276 77.924 54.1556 77.428C53.8916 76.924 53.7596 76.356 53.7596 75.724C53.7596 75.092 53.9036 74.524 54.1916 74.02C54.4876 73.516 54.8836 73.12 55.3796 72.832C55.8836 72.536 56.4476 72.388 57.0716 72.388C57.6956 72.388 58.2556 72.536 58.7516 72.832C59.2476 73.12 59.6396 73.516 59.9276 74.02C60.2236 74.524 60.3716 75.092 60.3716 75.724H59.9036C59.9036 76.356 59.7676 76.924 59.4956 77.428C59.2316 77.924 58.8676 78.32 58.4036 78.616C57.9396 78.904 57.4156 79.048 56.8316 79.048ZM57.0716 77.968C57.4796 77.968 57.8436 77.872 58.1636 77.68C58.4836 77.48 58.7356 77.212 58.9196 76.876C59.1036 76.532 59.1956 76.148 59.1956 75.724C59.1956 75.292 59.1036 74.908 58.9196 74.572C58.7356 74.228 58.4836 73.96 58.1636 73.768C57.8436 73.568 57.4796 73.468 57.0716 73.468C56.6716 73.468 56.3076 73.568 55.9796 73.768C55.6596 73.96 55.4036 74.228 55.2116 74.572C55.0276 74.908 54.9356 75.292 54.9356 75.724C54.9356 76.148 55.0276 76.532 55.2116 76.876C55.4036 77.212 55.6596 77.48 55.9796 77.68C56.3076 77.872 56.6716 77.968 57.0716 77.968ZM59.7596 79.012C59.5836 79.012 59.4356 78.956 59.3156 78.844C59.2036 78.724 59.1476 78.576 59.1476 78.4V76.564L59.3756 75.292L60.3716 75.724V78.4C60.3716 78.576 60.3116 78.724 60.1916 78.844C60.0796 78.956 59.9356 79.012 59.7596 79.012ZM65.1693 79.048C64.5453 79.048 63.9813 78.904 63.4773 78.616C62.9813 78.32 62.5853 77.92 62.2893 77.416C62.0013 76.912 61.8573 76.344 61.8573 75.712C61.8573 75.08 61.9893 74.516 62.2533 74.02C62.5253 73.516 62.8933 73.12 63.3573 72.832C63.8213 72.536 64.3453 72.388 64.9293 72.388C65.4013 72.388 65.8373 72.488 66.2373 72.688C66.6373 72.88 66.9733 73.144 67.2453 73.48V70.24C67.2453 70.056 67.3013 69.908 67.4133 69.796C67.5333 69.684 67.6813 69.628 67.8573 69.628C68.0413 69.628 68.1893 69.684 68.3013 69.796C68.4133 69.908 68.4693 70.056 68.4693 70.24V75.712C68.4693 76.344 68.3213 76.912 68.0253 77.416C67.7373 77.92 67.3453 78.32 66.8493 78.616C66.3533 78.904 65.7933 79.048 65.1693 79.048ZM65.1693 77.968C65.5773 77.968 65.9413 77.872 66.2613 77.68C66.5813 77.48 66.8333 77.208 67.0173 76.864C67.2013 76.52 67.2933 76.136 67.2933 75.712C67.2933 75.28 67.2013 74.896 67.0173 74.56C66.8333 74.224 66.5813 73.96 66.2613 73.768C65.9413 73.568 65.5773 73.468 65.1693 73.468C64.7693 73.468 64.4053 73.568 64.0773 73.768C63.7573 73.96 63.5013 74.224 63.3093 74.56C63.1253 74.896 63.0333 75.28 63.0333 75.712C63.0333 76.136 63.1253 76.52 63.3093 76.864C63.5013 77.208 63.7573 77.48 64.0773 77.68C64.4053 77.872 64.7693 77.968 65.1693 77.968ZM73.3908 79.06C72.8388 79.06 72.3428 78.944 71.9028 78.712C71.4708 78.472 71.1268 78.124 70.8708 77.668C70.6228 77.212 70.4988 76.652 70.4988 75.988V73.036C70.4988 72.86 70.5548 72.716 70.6668 72.604C70.7868 72.484 70.9348 72.424 71.1108 72.424C71.2868 72.424 71.4308 72.484 71.5428 72.604C71.6628 72.716 71.7228 72.86 71.7228 73.036V75.988C71.7228 76.436 71.8068 76.808 71.9748 77.104C72.1428 77.392 72.3708 77.608 72.6588 77.752C72.9468 77.888 73.2708 77.956 73.6308 77.956C73.9748 77.956 74.2788 77.888 74.5428 77.752C74.8148 77.616 75.0308 77.432 75.1908 77.2C75.3508 76.968 75.4308 76.708 75.4308 76.42H76.1868C76.1868 76.916 76.0628 77.364 75.8148 77.764C75.5748 78.164 75.2428 78.48 74.8188 78.712C74.4028 78.944 73.9268 79.06 73.3908 79.06ZM76.0428 79C75.8668 79 75.7188 78.944 75.5988 78.832C75.4868 78.712 75.4308 78.564 75.4308 78.388V73.036C75.4308 72.852 75.4868 72.704 75.5988 72.592C75.7188 72.48 75.8668 72.424 76.0428 72.424C76.2268 72.424 76.3748 72.48 76.4868 72.592C76.5988 72.704 76.6548 72.852 76.6548 73.036V78.388C76.6548 78.564 76.5988 78.712 76.4868 78.832C76.3748 78.944 76.2268 79 76.0428 79ZM81.5465 79.048C80.9625 79.048 80.4385 78.904 79.9745 78.616C79.5105 78.32 79.1425 77.924 78.8705 77.428C78.6065 76.924 78.4745 76.356 78.4745 75.724C78.4745 75.092 78.6185 74.524 78.9065 74.02C79.2025 73.516 79.5985 73.12 80.0945 72.832C80.5985 72.536 81.1625 72.388 81.7865 72.388C82.4105 72.388 82.9705 72.536 83.4665 72.832C83.9625 73.12 84.3545 73.516 84.6425 74.02C84.9385 74.524 85.0865 75.092 85.0865 75.724H84.6185C84.6185 76.356 84.4825 76.924 84.2105 77.428C83.9465 77.924 83.5825 78.32 83.1185 78.616C82.6545 78.904 82.1305 79.048 81.5465 79.048ZM81.7865 77.968C82.1945 77.968 82.5585 77.872 82.8785 77.68C83.1985 77.48 83.4505 77.212 83.6345 76.876C83.8185 76.532 83.9105 76.148 83.9105 75.724C83.9105 75.292 83.8185 74.908 83.6345 74.572C83.4505 74.228 83.1985 73.96 82.8785 73.768C82.5585 73.568 82.1945 73.468 81.7865 73.468C81.3865 73.468 81.0225 73.568 80.6945 73.768C80.3745 73.96 80.1185 74.228 79.9265 74.572C79.7425 74.908 79.6505 75.292 79.6505 75.724C79.6505 76.148 79.7425 76.532 79.9265 76.876C80.1185 77.212 80.3745 77.48 80.6945 77.68C81.0225 77.872 81.3865 77.968 81.7865 77.968ZM84.4745 79.012C84.2985 79.012 84.1505 78.956 84.0305 78.844C83.9185 78.724 83.8625 78.576 83.8625 78.4V76.564L84.0905 75.292L85.0865 75.724V78.4C85.0865 78.576 85.0265 78.724 84.9065 78.844C84.7945 78.956 84.6505 79.012 84.4745 79.012ZM89.2961 79C88.8961 79 88.5361 78.9 88.2161 78.7C87.8961 78.492 87.6441 78.212 87.4601 77.86C87.2761 77.508 87.1841 77.112 87.1841 76.672V70.948C87.1841 70.772 87.2401 70.628 87.3521 70.516C87.4641 70.404 87.6081 70.348 87.7841 70.348C87.9601 70.348 88.1041 70.404 88.2161 70.516C88.3281 70.628 88.3841 70.772 88.3841 70.948V76.672C88.3841 76.992 88.4721 77.26 88.6481 77.476C88.8241 77.692 89.0401 77.8 89.2961 77.8H89.7041C89.8481 77.8 89.9681 77.856 90.0641 77.968C90.1681 78.08 90.2201 78.224 90.2201 78.4C90.2201 78.576 90.1521 78.72 90.0161 78.832C89.8881 78.944 89.7201 79 89.5121 79H89.2961ZM86.6321 73.708C86.4641 73.708 86.3281 73.66 86.2241 73.564C86.1201 73.468 86.0681 73.348 86.0681 73.204C86.0681 73.044 86.1201 72.916 86.2241 72.82C86.3281 72.724 86.4641 72.676 86.6321 72.676H89.4041C89.5721 72.676 89.7081 72.724 89.8121 72.82C89.9161 72.916 89.9681 73.044 89.9681 73.204C89.9681 73.348 89.9161 73.468 89.8121 73.564C89.7081 73.66 89.5721 73.708 89.4041 73.708H86.6321ZM94.8085 79.048C94.1445 79.048 93.5525 78.908 93.0325 78.628C92.5205 78.34 92.1165 77.948 91.8205 77.452C91.5325 76.948 91.3885 76.372 91.3885 75.724C91.3885 75.068 91.5245 74.492 91.7965 73.996C92.0765 73.492 92.4605 73.1 92.9485 72.82C93.4365 72.532 93.9965 72.388 94.6285 72.388C95.2525 72.388 95.7885 72.528 96.2365 72.808C96.6845 73.08 97.0245 73.46 97.2565 73.948C97.4965 74.428 97.6165 74.984 97.6165 75.616C97.6165 75.768 97.5645 75.896 97.4605 76C97.3565 76.096 97.2245 76.144 97.0645 76.144H92.2285V75.184H97.0285L96.5365 75.52C96.5285 75.12 96.4485 74.764 96.2965 74.452C96.1445 74.132 95.9285 73.88 95.6485 73.696C95.3685 73.512 95.0285 73.42 94.6285 73.42C94.1725 73.42 93.7805 73.52 93.4525 73.72C93.1325 73.92 92.8885 74.196 92.7205 74.548C92.5525 74.892 92.4685 75.284 92.4685 75.724C92.4685 76.164 92.5685 76.556 92.7685 76.9C92.9685 77.244 93.2445 77.516 93.5965 77.716C93.9485 77.916 94.3525 78.016 94.8085 78.016C95.0565 78.016 95.3085 77.972 95.5645 77.884C95.8285 77.788 96.0405 77.68 96.2005 77.56C96.3205 77.472 96.4485 77.428 96.5845 77.428C96.7285 77.42 96.8525 77.46 96.9565 77.548C97.0925 77.668 97.1645 77.8 97.1725 77.944C97.1805 78.088 97.1165 78.212 96.9805 78.316C96.7085 78.532 96.3685 78.708 95.9605 78.844C95.5605 78.98 95.1765 79.048 94.8085 79.048ZM105.429 79.048C104.845 79.048 104.321 78.904 103.857 78.616C103.393 78.32 103.025 77.924 102.753 77.428C102.489 76.924 102.357 76.356 102.357 75.724C102.357 75.092 102.501 74.524 102.789 74.02C103.085 73.516 103.481 73.12 103.977 72.832C104.481 72.536 105.045 72.388 105.669 72.388C106.293 72.388 106.853 72.536 107.349 72.832C107.845 73.12 108.237 73.516 108.525 74.02C108.821 74.524 108.969 75.092 108.969 75.724H108.501C108.501 76.356 108.365 76.924 108.093 77.428C107.829 77.924 107.465 78.32 107.001 78.616C106.537 78.904 106.013 79.048 105.429 79.048ZM105.669 77.968C106.077 77.968 106.441 77.872 106.761 77.68C107.081 77.48 107.333 77.212 107.517 76.876C107.701 76.532 107.793 76.148 107.793 75.724C107.793 75.292 107.701 74.908 107.517 74.572C107.333 74.228 107.081 73.96 106.761 73.768C106.441 73.568 106.077 73.468 105.669 73.468C105.269 73.468 104.905 73.568 104.577 73.768C104.257 73.96 104.001 74.228 103.809 74.572C103.625 74.908 103.533 75.292 103.533 75.724C103.533 76.148 103.625 76.532 103.809 76.876C104.001 77.212 104.257 77.48 104.577 77.68C104.905 77.872 105.269 77.968 105.669 77.968ZM108.357 79.012C108.181 79.012 108.033 78.956 107.913 78.844C107.801 78.724 107.745 78.576 107.745 78.4V76.564L107.973 75.292L108.969 75.724V78.4C108.969 78.576 108.909 78.724 108.789 78.844C108.677 78.956 108.533 79.012 108.357 79.012ZM113.767 79.048C113.127 79.048 112.555 78.904 112.051 78.616C111.555 78.32 111.163 77.924 110.875 77.428C110.595 76.924 110.455 76.356 110.455 75.724C110.455 75.076 110.595 74.5 110.875 73.996C111.155 73.492 111.539 73.1 112.027 72.82C112.515 72.532 113.075 72.388 113.707 72.388C114.179 72.388 114.611 72.48 115.003 72.664C115.395 72.84 115.747 73.108 116.059 73.468C116.171 73.596 116.211 73.728 116.179 73.864C116.147 74 116.059 74.12 115.915 74.224C115.803 74.304 115.679 74.332 115.543 74.308C115.407 74.276 115.283 74.204 115.171 74.092C114.779 73.676 114.291 73.468 113.707 73.468C113.299 73.468 112.939 73.564 112.627 73.756C112.315 73.94 112.071 74.2 111.895 74.536C111.719 74.872 111.631 75.268 111.631 75.724C111.631 76.156 111.719 76.54 111.895 76.876C112.079 77.212 112.331 77.48 112.651 77.68C112.971 77.872 113.343 77.968 113.767 77.968C114.047 77.968 114.291 77.936 114.499 77.872C114.715 77.8 114.911 77.692 115.087 77.548C115.215 77.444 115.347 77.388 115.483 77.38C115.619 77.364 115.739 77.4 115.843 77.488C115.979 77.6 116.055 77.728 116.071 77.872C116.087 78.008 116.039 78.132 115.927 78.244C115.351 78.78 114.631 79.048 113.767 79.048ZM120.734 79.048C120.15 79.048 119.626 78.904 119.162 78.616C118.698 78.32 118.33 77.924 118.058 77.428C117.794 76.924 117.662 76.356 117.662 75.724C117.662 75.092 117.806 74.524 118.094 74.02C118.39 73.516 118.786 73.12 119.282 72.832C119.786 72.536 120.35 72.388 120.974 72.388C121.598 72.388 122.158 72.536 122.654 72.832C123.15 73.12 123.542 73.516 123.83 74.02C124.126 74.524 124.274 75.092 124.274 75.724H123.806C123.806 76.356 123.67 76.924 123.398 77.428C123.134 77.924 122.77 78.32 122.306 78.616C121.842 78.904 121.318 79.048 120.734 79.048ZM120.974 77.968C121.382 77.968 121.746 77.872 122.066 77.68C122.386 77.48 122.638 77.212 122.822 76.876C123.006 76.532 123.098 76.148 123.098 75.724C123.098 75.292 123.006 74.908 122.822 74.572C122.638 74.228 122.386 73.96 122.066 73.768C121.746 73.568 121.382 73.468 120.974 73.468C120.574 73.468 120.21 73.568 119.882 73.768C119.562 73.96 119.306 74.228 119.114 74.572C118.93 74.908 118.838 75.292 118.838 75.724C118.838 76.148 118.93 76.532 119.114 76.876C119.306 77.212 119.562 77.48 119.882 77.68C120.21 77.872 120.574 77.968 120.974 77.968ZM123.662 79.012C123.486 79.012 123.338 78.956 123.218 78.844C123.106 78.724 123.05 78.576 123.05 78.4V76.564L123.278 75.292L124.274 75.724V78.4C124.274 78.576 124.214 78.724 124.094 78.844C123.982 78.956 123.838 79.012 123.662 79.012ZM129.072 79.048C128.448 79.048 127.884 78.904 127.38 78.616C126.884 78.32 126.488 77.92 126.192 77.416C125.904 76.912 125.76 76.344 125.76 75.712C125.76 75.08 125.892 74.516 126.156 74.02C126.428 73.516 126.796 73.12 127.26 72.832C127.724 72.536 128.248 72.388 128.832 72.388C129.304 72.388 129.74 72.488 130.14 72.688C130.54 72.88 130.876 73.144 131.148 73.48V70.24C131.148 70.056 131.204 69.908 131.316 69.796C131.436 69.684 131.584 69.628 131.76 69.628C131.944 69.628 132.092 69.684 132.204 69.796C132.316 69.908 132.372 70.056 132.372 70.24V75.712C132.372 76.344 132.224 76.912 131.928 77.416C131.64 77.92 131.248 78.32 130.752 78.616C130.256 78.904 129.696 79.048 129.072 79.048ZM129.072 77.968C129.48 77.968 129.844 77.872 130.164 77.68C130.484 77.48 130.736 77.208 130.92 76.864C131.104 76.52 131.196 76.136 131.196 75.712C131.196 75.28 131.104 74.896 130.92 74.56C130.736 74.224 130.484 73.96 130.164 73.768C129.844 73.568 129.48 73.468 129.072 73.468C128.672 73.468 128.308 73.568 127.98 73.768C127.66 73.96 127.404 74.224 127.212 74.56C127.028 74.896 126.936 75.28 126.936 75.712C126.936 76.136 127.028 76.52 127.212 76.864C127.404 77.208 127.66 77.48 127.98 77.68C128.308 77.872 128.672 77.968 129.072 77.968ZM137.617 79.048C136.953 79.048 136.361 78.908 135.841 78.628C135.329 78.34 134.925 77.948 134.629 77.452C134.341 76.948 134.197 76.372 134.197 75.724C134.197 75.068 134.333 74.492 134.605 73.996C134.885 73.492 135.269 73.1 135.757 72.82C136.245 72.532 136.805 72.388 137.437 72.388C138.061 72.388 138.597 72.528 139.045 72.808C139.493 73.08 139.833 73.46 140.065 73.948C140.305 74.428 140.425 74.984 140.425 75.616C140.425 75.768 140.373 75.896 140.269 76C140.165 76.096 140.033 76.144 139.873 76.144H135.037V75.184H139.837L139.345 75.52C139.337 75.12 139.257 74.764 139.105 74.452C138.953 74.132 138.737 73.88 138.457 73.696C138.177 73.512 137.837 73.42 137.437 73.42C136.981 73.42 136.589 73.52 136.261 73.72C135.941 73.92 135.697 74.196 135.529 74.548C135.361 74.892 135.277 75.284 135.277 75.724C135.277 76.164 135.377 76.556 135.577 76.9C135.777 77.244 136.053 77.516 136.405 77.716C136.757 77.916 137.161 78.016 137.617 78.016C137.865 78.016 138.117 77.972 138.373 77.884C138.637 77.788 138.849 77.68 139.009 77.56C139.129 77.472 139.257 77.428 139.393 77.428C139.537 77.42 139.661 77.46 139.765 77.548C139.901 77.668 139.973 77.8 139.981 77.944C139.989 78.088 139.925 78.212 139.789 78.316C139.517 78.532 139.177 78.708 138.769 78.844C138.369 78.98 137.985 79.048 137.617 79.048ZM150.602 79.012C150.426 79.012 150.278 78.956 150.158 78.844C150.046 78.724 149.99 78.576 149.99 78.4V74.968C149.99 74.464 149.866 74.092 149.618 73.852C149.37 73.604 149.046 73.48 148.646 73.48C148.23 73.48 147.886 73.624 147.614 73.912C147.35 74.2 147.218 74.568 147.218 75.016H146.222C146.222 74.496 146.334 74.04 146.558 73.648C146.782 73.248 147.094 72.936 147.494 72.712C147.902 72.488 148.366 72.376 148.886 72.376C149.342 72.376 149.746 72.476 150.098 72.676C150.45 72.876 150.722 73.172 150.914 73.564C151.114 73.948 151.214 74.416 151.214 74.968V78.4C151.214 78.576 151.158 78.724 151.046 78.844C150.934 78.956 150.786 79.012 150.602 79.012ZM142.598 79.012C142.422 79.012 142.274 78.956 142.154 78.844C142.042 78.724 141.986 78.576 141.986 78.4V73.06C141.986 72.876 142.042 72.728 142.154 72.616C142.274 72.504 142.422 72.448 142.598 72.448C142.782 72.448 142.93 72.504 143.042 72.616C143.154 72.728 143.21 72.876 143.21 73.06V78.4C143.21 78.576 143.154 78.724 143.042 78.844C142.93 78.956 142.782 79.012 142.598 79.012ZM146.606 79.012C146.43 79.012 146.282 78.956 146.162 78.844C146.05 78.724 145.994 78.576 145.994 78.4V74.968C145.994 74.464 145.87 74.092 145.622 73.852C145.374 73.604 145.05 73.48 144.65 73.48C144.234 73.48 143.89 73.624 143.618 73.912C143.346 74.2 143.21 74.568 143.21 75.016H142.454C142.454 74.496 142.558 74.04 142.766 73.648C142.974 73.248 143.262 72.936 143.63 72.712C143.998 72.488 144.418 72.376 144.89 72.376C145.346 72.376 145.75 72.476 146.102 72.676C146.454 72.876 146.726 73.172 146.918 73.564C147.118 73.948 147.218 74.416 147.218 74.968V78.4C147.218 78.576 147.162 78.724 147.05 78.844C146.938 78.956 146.79 79.012 146.606 79.012ZM153.98 79C153.804 79 153.656 78.944 153.536 78.832C153.424 78.712 153.368 78.564 153.368 78.388V73.048C153.368 72.864 153.424 72.716 153.536 72.604C153.656 72.492 153.804 72.436 153.98 72.436C154.164 72.436 154.312 72.492 154.424 72.604C154.536 72.716 154.592 72.864 154.592 73.048V78.388C154.592 78.564 154.536 78.712 154.424 78.832C154.312 78.944 154.164 79 153.98 79ZM153.98 71.368C153.764 71.368 153.576 71.292 153.416 71.14C153.264 70.98 153.188 70.792 153.188 70.576C153.188 70.36 153.264 70.176 153.416 70.024C153.576 69.864 153.764 69.784 153.98 69.784C154.196 69.784 154.38 69.864 154.532 70.024C154.692 70.176 154.772 70.36 154.772 70.576C154.772 70.792 154.692 70.98 154.532 71.14C154.38 71.292 154.196 71.368 153.98 71.368ZM159.845 79.048C159.205 79.048 158.633 78.904 158.129 78.616C157.633 78.32 157.241 77.924 156.953 77.428C156.673 76.924 156.533 76.356 156.533 75.724C156.533 75.076 156.673 74.5 156.953 73.996C157.233 73.492 157.617 73.1 158.105 72.82C158.593 72.532 159.153 72.388 159.785 72.388C160.257 72.388 160.689 72.48 161.081 72.664C161.473 72.84 161.825 73.108 162.137 73.468C162.249 73.596 162.289 73.728 162.257 73.864C162.225 74 162.137 74.12 161.993 74.224C161.881 74.304 161.757 74.332 161.621 74.308C161.485 74.276 161.361 74.204 161.249 74.092C160.857 73.676 160.369 73.468 159.785 73.468C159.377 73.468 159.017 73.564 158.705 73.756C158.393 73.94 158.149 74.2 157.973 74.536C157.797 74.872 157.709 75.268 157.709 75.724C157.709 76.156 157.797 76.54 157.973 76.876C158.157 77.212 158.409 77.48 158.729 77.68C159.049 77.872 159.421 77.968 159.845 77.968C160.125 77.968 160.369 77.936 160.577 77.872C160.793 77.8 160.989 77.692 161.165 77.548C161.293 77.444 161.425 77.388 161.561 77.38C161.697 77.364 161.817 77.4 161.921 77.488C162.057 77.6 162.133 77.728 162.149 77.872C162.165 78.008 162.117 78.132 162.005 78.244C161.429 78.78 160.709 79.048 159.845 79.048ZM169.104 79C168.976 79 168.856 78.964 168.744 78.892C168.64 78.812 168.568 78.716 168.528 78.604L166.752 73.276C166.688 73.028 166.688 72.828 166.752 72.676C166.824 72.516 166.976 72.436 167.208 72.436C167.36 72.436 167.484 72.48 167.58 72.568C167.684 72.648 167.768 72.788 167.832 72.988L169.344 77.716H168.924L170.352 72.892C170.392 72.756 170.46 72.648 170.556 72.568C170.652 72.48 170.784 72.436 170.952 72.436C171.112 72.436 171.24 72.48 171.336 72.568C171.44 72.648 171.508 72.756 171.54 72.892L172.704 77.428H172.524L173.94 72.988C174.052 72.62 174.26 72.436 174.564 72.436C174.788 72.436 174.94 72.516 175.02 72.676C175.1 72.828 175.096 73.028 175.008 73.276L173.232 78.604C173.2 78.716 173.132 78.812 173.028 78.892C172.924 78.964 172.804 79 172.668 79C172.54 79 172.42 78.964 172.308 78.892C172.196 78.812 172.124 78.716 172.092 78.604L170.856 74.032H170.976L169.68 78.604C169.648 78.716 169.576 78.812 169.464 78.892C169.36 78.964 169.24 79 169.104 79ZM179.064 79.048C178.416 79.048 177.844 78.908 177.348 78.628C176.852 78.34 176.46 77.948 176.172 77.452C175.892 76.948 175.752 76.372 175.752 75.724C175.752 75.068 175.892 74.492 176.172 73.996C176.46 73.492 176.852 73.1 177.348 72.82C177.844 72.532 178.416 72.388 179.064 72.388C179.704 72.388 180.272 72.532 180.768 72.82C181.264 73.1 181.652 73.492 181.932 73.996C182.22 74.492 182.364 75.068 182.364 75.724C182.364 76.372 182.224 76.948 181.944 77.452C181.664 77.948 181.276 78.34 180.78 78.628C180.284 78.908 179.712 79.048 179.064 79.048ZM179.064 77.968C179.48 77.968 179.848 77.872 180.168 77.68C180.488 77.488 180.736 77.224 180.912 76.888C181.096 76.552 181.188 76.164 181.188 75.724C181.188 75.284 181.096 74.896 180.912 74.56C180.736 74.216 180.488 73.948 180.168 73.756C179.848 73.564 179.48 73.468 179.064 73.468C178.648 73.468 178.28 73.564 177.96 73.756C177.64 73.948 177.388 74.216 177.204 74.56C177.02 74.896 176.928 75.284 176.928 75.724C176.928 76.164 177.02 76.552 177.204 76.888C177.388 77.224 177.64 77.488 177.96 77.68C178.28 77.872 178.648 77.968 179.064 77.968ZM184.773 74.896C184.773 74.416 184.889 73.988 185.121 73.612C185.361 73.228 185.681 72.924 186.081 72.7C186.481 72.476 186.921 72.364 187.401 72.364C187.881 72.364 188.237 72.444 188.469 72.604C188.709 72.756 188.801 72.94 188.745 73.156C188.721 73.268 188.673 73.356 188.601 73.42C188.537 73.476 188.461 73.512 188.373 73.528C188.285 73.544 188.189 73.54 188.085 73.516C187.573 73.412 187.113 73.404 186.705 73.492C186.297 73.58 185.973 73.744 185.733 73.984C185.501 74.224 185.385 74.528 185.385 74.896H184.773ZM184.785 79C184.593 79 184.445 78.952 184.341 78.856C184.237 78.752 184.185 78.6 184.185 78.4V73.036C184.185 72.844 184.237 72.696 184.341 72.592C184.445 72.488 184.593 72.436 184.785 72.436C184.985 72.436 185.133 72.488 185.229 72.592C185.333 72.688 185.385 72.836 185.385 73.036V78.4C185.385 78.592 185.333 78.74 185.229 78.844C185.133 78.948 184.985 79 184.785 79ZM191.173 76.6L190.429 75.784L194.113 72.496C194.233 72.384 194.365 72.332 194.509 72.34C194.661 72.348 194.789 72.412 194.893 72.532C195.005 72.652 195.057 72.784 195.049 72.928C195.041 73.072 194.977 73.2 194.857 73.312L191.173 76.6ZM190.609 79C190.433 79 190.289 78.948 190.177 78.844C190.073 78.732 190.021 78.588 190.021 78.412V70.216C190.021 70.04 190.073 69.9 190.177 69.796C190.289 69.684 190.433 69.628 190.609 69.628C190.785 69.628 190.925 69.684 191.029 69.796C191.141 69.9 191.197 70.04 191.197 70.216V78.412C191.197 78.588 191.141 78.732 191.029 78.844C190.925 78.948 190.785 79 190.609 79ZM194.893 78.94C194.765 79.044 194.621 79.088 194.461 79.072C194.309 79.064 194.181 78.996 194.077 78.868L191.641 75.856L192.481 75.064L194.977 78.136C195.081 78.264 195.125 78.404 195.109 78.556C195.101 78.7 195.029 78.828 194.893 78.94ZM199.241 79.048C198.681 79.048 198.161 78.964 197.681 78.796C197.209 78.62 196.841 78.4 196.577 78.136C196.457 78.008 196.405 77.864 196.421 77.704C196.445 77.536 196.525 77.4 196.661 77.296C196.821 77.168 196.977 77.116 197.129 77.14C197.289 77.156 197.425 77.224 197.537 77.344C197.673 77.496 197.889 77.64 198.185 77.776C198.489 77.904 198.825 77.968 199.193 77.968C199.657 77.968 200.009 77.892 200.249 77.74C200.497 77.588 200.625 77.392 200.633 77.152C200.641 76.912 200.525 76.704 200.285 76.528C200.053 76.352 199.625 76.208 199.001 76.096C198.193 75.936 197.605 75.696 197.237 75.376C196.877 75.056 196.697 74.664 196.697 74.2C196.697 73.792 196.817 73.456 197.057 73.192C197.297 72.92 197.605 72.72 197.981 72.592C198.357 72.456 198.749 72.388 199.157 72.388C199.685 72.388 200.153 72.472 200.561 72.64C200.969 72.808 201.293 73.04 201.533 73.336C201.645 73.464 201.697 73.6 201.689 73.744C201.681 73.88 201.613 73.996 201.485 74.092C201.357 74.18 201.205 74.208 201.029 74.176C200.853 74.144 200.705 74.072 200.585 73.96C200.385 73.768 200.169 73.636 199.937 73.564C199.705 73.492 199.437 73.456 199.133 73.456C198.781 73.456 198.481 73.516 198.233 73.636C197.993 73.756 197.873 73.932 197.873 74.164C197.873 74.308 197.909 74.44 197.981 74.56C198.061 74.672 198.213 74.776 198.437 74.872C198.661 74.96 198.989 75.048 199.421 75.136C200.021 75.256 200.493 75.408 200.837 75.592C201.189 75.776 201.441 75.992 201.593 76.24C201.745 76.48 201.821 76.76 201.821 77.08C201.821 77.448 201.721 77.78 201.521 78.076C201.329 78.372 201.041 78.608 200.657 78.784C200.281 78.96 199.809 79.048 199.241 79.048Z" fill="white"/>
</svg>
