<svg width="350" height="96" viewBox="0 0 350 96" fill="none" xmlns="http://www.w3.org/2000/svg">
<path d="M2.596 27V7.4H9.204V21.876H18.052V27H2.596ZM29.2227 27V24.284L28.7747 23.556V18.404C28.7747 17.6573 28.5414 17.088 28.0747 16.696C27.6267 16.304 26.8894 16.108 25.8627 16.108C25.172 16.108 24.472 16.22 23.7627 16.444C23.0534 16.6493 22.4467 16.9387 21.9427 17.312L19.9267 13.14C20.8227 12.58 21.896 12.1507 23.1467 11.852C24.3974 11.5533 25.62 11.404 26.8147 11.404C29.4467 11.404 31.4814 11.992 32.9187 13.168C34.3747 14.344 35.1027 16.2107 35.1027 18.768V27H29.2227ZM24.8827 27.28C23.632 27.28 22.5867 27.0653 21.7467 26.636C20.9067 26.2067 20.272 25.6373 19.8427 24.928C19.4134 24.2 19.1987 23.3973 19.1987 22.52C19.1987 21.5307 19.4507 20.6907 19.9547 20C20.4587 19.3093 21.224 18.7867 22.2507 18.432C23.296 18.0773 24.612 17.9 26.1987 17.9H29.3907V20.952H27.2067C26.5347 20.952 26.04 21.064 25.7227 21.288C25.424 21.4933 25.2747 21.8107 25.2747 22.24C25.2747 22.5947 25.4054 22.8933 25.6667 23.136C25.9467 23.36 26.32 23.472 26.7867 23.472C27.216 23.472 27.608 23.36 27.9627 23.136C28.336 22.8933 28.6067 22.52 28.7747 22.016L29.5867 23.892C29.344 25.0307 28.8307 25.88 28.0467 26.44C27.2627 27 26.208 27.28 24.8827 27.28ZM48.4775 11.404C49.6535 11.404 50.7175 11.6467 51.6695 12.132C52.6215 12.5987 53.3682 13.336 53.9095 14.344C54.4695 15.352 54.7495 16.6587 54.7495 18.264V27H48.4215V19.356C48.4215 18.404 48.2535 17.732 47.9175 17.34C47.5815 16.9293 47.1242 16.724 46.5455 16.724C46.1162 16.724 45.7148 16.8267 45.3415 17.032C44.9868 17.2187 44.6975 17.536 44.4735 17.984C44.2682 18.432 44.1655 19.0387 44.1655 19.804V27H37.8375V11.684H43.8575V16.164L42.6535 14.876C43.2508 13.7187 44.0535 12.8507 45.0615 12.272C46.0882 11.6933 47.2268 11.404 48.4775 11.404ZM64.4911 27.28C63.1658 27.28 61.9338 26.9627 60.7951 26.328C59.6751 25.6747 58.7791 24.76 58.1071 23.584C57.4351 22.3893 57.0991 20.9707 57.0991 19.328C57.0991 17.6853 57.4351 16.276 58.1071 15.1C58.7791 13.9053 59.6751 12.9907 60.7951 12.356C61.9338 11.7213 63.1658 11.404 64.4911 11.404C65.8351 11.404 66.9364 11.6933 67.7951 12.272C68.6538 12.832 69.2884 13.7 69.6991 14.876C70.1098 16.0333 70.3151 17.5173 70.3151 19.328C70.3151 21.1573 70.1191 22.66 69.7271 23.836C69.3538 25.012 68.7378 25.88 67.8791 26.44C67.0391 27 65.9098 27.28 64.4911 27.28ZM66.0031 22.352C66.4698 22.352 66.8898 22.24 67.2631 22.016C67.6364 21.792 67.9351 21.456 68.1591 21.008C68.3831 20.5413 68.4951 19.9813 68.4951 19.328C68.4951 18.656 68.3831 18.1053 68.1591 17.676C67.9351 17.228 67.6364 16.892 67.2631 16.668C66.8898 16.444 66.4698 16.332 66.0031 16.332C65.5364 16.332 65.1164 16.444 64.7431 16.668C64.3698 16.892 64.0711 17.228 63.8471 17.676C63.6231 18.1053 63.5111 18.656 63.5111 19.328C63.5111 19.9813 63.6231 20.5413 63.8471 21.008C64.0711 21.456 64.3698 21.792 64.7431 22.016C65.1164 22.24 65.5364 22.352 66.0031 22.352ZM68.6911 27V24.928L68.6631 19.328L68.3831 13.728V6.224H74.7111V27H68.6911ZM83.5053 27.28C82.1986 27.28 80.9106 27.14 79.6413 26.86C78.3719 26.58 77.3453 26.216 76.5613 25.768L78.2973 21.596C79.0253 22.0253 79.8653 22.3613 80.8173 22.604C81.7879 22.8467 82.7306 22.968 83.6453 22.968C84.4106 22.968 84.9239 22.9027 85.1853 22.772C85.4653 22.6413 85.6053 22.464 85.6053 22.24C85.6053 22.016 85.4466 21.8573 85.1293 21.764C84.8119 21.652 84.3919 21.568 83.8693 21.512C83.3466 21.456 82.7679 21.3907 82.1333 21.316C81.5173 21.2227 80.8919 21.092 80.2573 20.924C79.6226 20.756 79.0439 20.504 78.5213 20.168C77.9986 19.832 77.5786 19.384 77.2613 18.824C76.9439 18.2453 76.7853 17.5173 76.7853 16.64C76.7853 15.6693 77.0746 14.792 77.6533 14.008C78.2506 13.224 79.1279 12.5987 80.2853 12.132C81.4613 11.6467 82.9079 11.404 84.6253 11.404C85.7453 11.404 86.8653 11.5067 87.9853 11.712C89.1053 11.9173 90.0666 12.2347 90.8693 12.664L89.1333 16.836C88.3493 16.4067 87.5746 16.1173 86.8093 15.968C86.0626 15.8 85.3626 15.716 84.7093 15.716C83.9066 15.716 83.3559 15.7907 83.0573 15.94C82.7773 16.0893 82.6373 16.2573 82.6373 16.444C82.6373 16.668 82.7959 16.836 83.1133 16.948C83.4306 17.06 83.8506 17.144 84.3733 17.2C84.8959 17.256 85.4653 17.3307 86.0813 17.424C86.7159 17.4987 87.3413 17.6293 87.9573 17.816C88.5919 17.984 89.1706 18.236 89.6933 18.572C90.2159 18.908 90.6359 19.3653 90.9533 19.944C91.2706 20.504 91.4293 21.2227 91.4293 22.1C91.4293 23.0147 91.1399 23.8733 90.5613 24.676C89.9826 25.46 89.1053 26.0947 87.9293 26.58C86.7533 27.0467 85.2786 27.28 83.5053 27.28ZM101.577 27.28C99.8226 27.28 98.264 26.944 96.9013 26.272C95.5386 25.6 94.4653 24.6667 93.6813 23.472C92.916 22.2587 92.5333 20.8773 92.5333 19.328C92.5333 17.7787 92.916 16.4067 93.6813 15.212C94.4653 14.0173 95.5386 13.084 96.9013 12.412C98.264 11.74 99.8226 11.404 101.577 11.404C103.444 11.404 105.04 11.8053 106.365 12.608C107.691 13.4107 108.605 14.5213 109.109 15.94L104.209 18.348C103.892 17.6387 103.5 17.1253 103.033 16.808C102.585 16.4907 102.091 16.332 101.549 16.332C101.083 16.332 100.644 16.444 100.233 16.668C99.8413 16.892 99.524 17.228 99.2813 17.676C99.0573 18.1053 98.9453 18.656 98.9453 19.328C98.9453 20 99.0573 20.56 99.2813 21.008C99.524 21.456 99.8413 21.792 100.233 22.016C100.644 22.24 101.083 22.352 101.549 22.352C102.091 22.352 102.585 22.1933 103.033 21.876C103.5 21.5587 103.892 21.0453 104.209 20.336L109.109 22.744C108.605 24.1627 107.691 25.2733 106.365 26.076C105.04 26.8787 103.444 27.28 101.577 27.28ZM119.84 27V24.284L119.392 23.556V18.404C119.392 17.6573 119.159 17.088 118.692 16.696C118.244 16.304 117.507 16.108 116.48 16.108C115.789 16.108 115.089 16.22 114.38 16.444C113.671 16.6493 113.064 16.9387 112.56 17.312L110.544 13.14C111.44 12.58 112.513 12.1507 113.764 11.852C115.015 11.5533 116.237 11.404 117.432 11.404C120.064 11.404 122.099 11.992 123.536 13.168C124.992 14.344 125.72 16.2107 125.72 18.768V27H119.84ZM115.5 27.28C114.249 27.28 113.204 27.0653 112.364 26.636C111.524 26.2067 110.889 25.6373 110.46 24.928C110.031 24.2 109.816 23.3973 109.816 22.52C109.816 21.5307 110.068 20.6907 110.572 20C111.076 19.3093 111.841 18.7867 112.868 18.432C113.913 18.0773 115.229 17.9 116.816 17.9H120.008V20.952H117.824C117.152 20.952 116.657 21.064 116.34 21.288C116.041 21.4933 115.892 21.8107 115.892 22.24C115.892 22.5947 116.023 22.8933 116.284 23.136C116.564 23.36 116.937 23.472 117.404 23.472C117.833 23.472 118.225 23.36 118.58 23.136C118.953 22.8933 119.224 22.52 119.392 22.016L120.204 23.892C119.961 25.0307 119.448 25.88 118.664 26.44C117.88 27 116.825 27.28 115.5 27.28ZM138.675 27.28C137.349 27.28 136.248 27 135.371 26.44C134.512 25.8613 133.877 24.9933 133.467 23.836C133.056 22.66 132.851 21.1667 132.851 19.356C132.851 17.508 133.037 16.0053 133.411 14.848C133.803 13.672 134.428 12.804 135.287 12.244C136.145 11.684 137.275 11.404 138.675 11.404C140.019 11.404 141.251 11.7307 142.371 12.384C143.491 13.0187 144.387 13.9333 145.059 15.128C145.731 16.304 146.067 17.7133 146.067 19.356C146.067 20.9987 145.731 22.4173 145.059 23.612C144.387 24.788 143.491 25.6933 142.371 26.328C141.251 26.9627 140.019 27.28 138.675 27.28ZM128.455 32.432V11.684H134.475V13.756L134.503 19.356L134.783 24.956V32.432H128.455ZM137.163 22.352C137.629 22.352 138.049 22.24 138.423 22.016C138.796 21.792 139.095 21.456 139.319 21.008C139.543 20.56 139.655 20.0093 139.655 19.356C139.655 18.684 139.543 18.124 139.319 17.676C139.095 17.228 138.796 16.892 138.423 16.668C138.049 16.444 137.629 16.332 137.163 16.332C136.696 16.332 136.276 16.444 135.903 16.668C135.529 16.892 135.231 17.228 135.007 17.676C134.783 18.124 134.671 18.684 134.671 19.356C134.671 20.0093 134.783 20.56 135.007 21.008C135.231 21.456 135.529 21.792 135.903 22.016C136.276 22.24 136.696 22.352 137.163 22.352ZM156.516 27.28C154.649 27.28 153.016 26.9347 151.616 26.244C150.235 25.5533 149.161 24.6107 148.396 23.416C147.631 22.2027 147.248 20.84 147.248 19.328C147.248 17.7787 147.621 16.4067 148.368 15.212C149.133 14.0173 150.169 13.084 151.476 12.412C152.801 11.74 154.285 11.404 155.928 11.404C157.44 11.404 158.831 11.7027 160.1 12.3C161.388 12.8973 162.415 13.784 163.18 14.96C163.964 16.136 164.356 17.592 164.356 19.328C164.356 19.552 164.347 19.804 164.328 20.084C164.309 20.3453 164.291 20.588 164.272 20.812H152.484V17.76H160.912L158.532 18.572C158.532 17.9747 158.42 17.4707 158.196 17.06C157.991 16.6307 157.701 16.304 157.328 16.08C156.955 15.8373 156.507 15.716 155.984 15.716C155.461 15.716 155.004 15.8373 154.612 16.08C154.239 16.304 153.949 16.6307 153.744 17.06C153.539 17.4707 153.436 17.9747 153.436 18.572V19.524C153.436 20.1773 153.567 20.7373 153.828 21.204C154.089 21.6707 154.463 22.0253 154.948 22.268C155.433 22.492 156.021 22.604 156.712 22.604C157.421 22.604 158 22.5107 158.448 22.324C158.915 22.1373 159.4 21.8573 159.904 21.484L163.208 24.816C162.461 25.6187 161.537 26.2347 160.436 26.664C159.353 27.0747 158.047 27.28 156.516 27.28ZM0.468 61L9.036 41.4H15.532L24.1 61H17.268L10.94 44.536H13.516L7.188 61H0.468ZM5.564 57.584L7.244 52.824H16.26L17.94 57.584H5.564ZM24.9586 61V45.684H30.9786V50.304L29.9986 48.988C30.4653 47.7933 31.2119 46.8973 32.2386 46.3C33.2653 45.7027 34.4973 45.404 35.9346 45.404V51.004C35.6546 50.9667 35.4026 50.9387 35.1786 50.92C34.9733 50.9013 34.7586 50.892 34.5346 50.892C33.5826 50.892 32.7986 51.144 32.1826 51.648C31.5853 52.1333 31.2866 52.9827 31.2866 54.196V61H24.9586ZM45.8234 61.28C44.0687 61.28 42.5101 60.944 41.1474 60.272C39.7847 59.6 38.7114 58.6667 37.9274 57.472C37.1621 56.2587 36.7794 54.8773 36.7794 53.328C36.7794 51.7787 37.1621 50.4067 37.9274 49.212C38.7114 48.0173 39.7847 47.084 41.1474 46.412C42.5101 45.74 44.0687 45.404 45.8234 45.404C47.6901 45.404 49.2861 45.8053 50.6114 46.608C51.9367 47.4107 52.8514 48.5213 53.3554 49.94L48.4554 52.348C48.1381 51.6387 47.7461 51.1253 47.2794 50.808C46.8314 50.4907 46.3367 50.332 45.7954 50.332C45.3287 50.332 44.8901 50.444 44.4794 50.668C44.0874 50.892 43.7701 51.228 43.5274 51.676C43.3034 52.1053 43.1914 52.656 43.1914 53.328C43.1914 54 43.3034 54.56 43.5274 55.008C43.7701 55.456 44.0874 55.792 44.4794 56.016C44.8901 56.24 45.3287 56.352 45.7954 56.352C46.3367 56.352 46.8314 56.1933 47.2794 55.876C47.7461 55.5587 48.1381 55.0453 48.4554 54.336L53.3554 56.744C52.8514 58.1627 51.9367 59.2733 50.6114 60.076C49.2861 60.8787 47.6901 61.28 45.8234 61.28ZM65.458 45.404C66.634 45.404 67.698 45.6467 68.65 46.132C69.602 46.5987 70.3486 47.336 70.89 48.344C71.45 49.352 71.73 50.6587 71.73 52.264V61H65.402V53.356C65.402 52.404 65.234 51.732 64.898 51.34C64.562 50.9293 64.1046 50.724 63.526 50.724C63.0966 50.724 62.6953 50.8267 62.322 51.032C61.9673 51.2187 61.678 51.536 61.454 51.984C61.2486 52.432 61.146 53.0387 61.146 53.804V61H54.818V40.224H61.146V50.164L59.634 48.876C60.2313 47.7187 61.034 46.8507 62.042 46.272C63.0686 45.6933 64.2073 45.404 65.458 45.404ZM74.4781 61V45.684H80.8061V61H74.4781ZM77.6421 44.452C76.4848 44.452 75.5608 44.144 74.8701 43.528C74.1795 42.912 73.8341 42.1467 73.8341 41.232C73.8341 40.3173 74.1795 39.552 74.8701 38.936C75.5608 38.32 76.4848 38.012 77.6421 38.012C78.7995 38.012 79.7235 38.3013 80.4141 38.88C81.1048 39.4587 81.4501 40.2053 81.4501 41.12C81.4501 42.0907 81.1048 42.8933 80.4141 43.528C79.7235 44.144 78.7995 44.452 77.6421 44.452ZM91.0029 61.28C88.8936 61.28 87.2509 60.776 86.0749 59.768C84.8989 58.7413 84.3109 57.1733 84.3109 55.064V42.24H90.6389V55.008C90.6389 55.4747 90.7603 55.8387 91.0029 56.1C91.2643 56.3613 91.5816 56.492 91.9549 56.492C92.4963 56.492 92.9723 56.352 93.3829 56.072L94.8949 60.468C94.4096 60.748 93.8216 60.9533 93.1309 61.084C92.4589 61.2147 91.7496 61.28 91.0029 61.28ZM82.2109 51.144V46.524H93.7749V51.144H82.2109ZM104.536 61.28C102.669 61.28 101.036 60.9347 99.6357 60.244C98.2544 59.5533 97.181 58.6107 96.4157 57.416C95.6504 56.2027 95.2677 54.84 95.2677 53.328C95.2677 51.7787 95.641 50.4067 96.3877 49.212C97.153 48.0173 98.189 47.084 99.4957 46.412C100.821 45.74 102.305 45.404 103.948 45.404C105.46 45.404 106.85 45.7027 108.12 46.3C109.408 46.8973 110.434 47.784 111.2 48.96C111.984 50.136 112.376 51.592 112.376 53.328C112.376 53.552 112.366 53.804 112.348 54.084C112.329 54.3453 112.31 54.588 112.292 54.812H100.504V51.76H108.932L106.552 52.572C106.552 51.9747 106.44 51.4707 106.216 51.06C106.01 50.6307 105.721 50.304 105.348 50.08C104.974 49.8373 104.526 49.716 104.004 49.716C103.481 49.716 103.024 49.8373 102.632 50.08C102.258 50.304 101.969 50.6307 101.764 51.06C101.558 51.4707 101.456 51.9747 101.456 52.572V53.524C101.456 54.1773 101.586 54.7373 101.848 55.204C102.109 55.6707 102.482 56.0253 102.968 56.268C103.453 56.492 104.041 56.604 104.732 56.604C105.441 56.604 106.02 56.5107 106.468 56.324C106.934 56.1373 107.42 55.8573 107.924 55.484L111.228 58.816C110.481 59.6187 109.557 60.2347 108.456 60.664C107.373 61.0747 106.066 61.28 104.536 61.28ZM122.605 61.28C120.85 61.28 119.291 60.944 117.929 60.272C116.566 59.6 115.493 58.6667 114.709 57.472C113.943 56.2587 113.561 54.8773 113.561 53.328C113.561 51.7787 113.943 50.4067 114.709 49.212C115.493 48.0173 116.566 47.084 117.929 46.412C119.291 45.74 120.85 45.404 122.605 45.404C124.471 45.404 126.067 45.8053 127.393 46.608C128.718 47.4107 129.633 48.5213 130.137 49.94L125.237 52.348C124.919 51.6387 124.527 51.1253 124.061 50.808C123.613 50.4907 123.118 50.332 122.577 50.332C122.11 50.332 121.671 50.444 121.261 50.668C120.869 50.892 120.551 51.228 120.309 51.676C120.085 52.1053 119.973 52.656 119.973 53.328C119.973 54 120.085 54.56 120.309 55.008C120.551 55.456 120.869 55.792 121.261 56.016C121.671 56.24 122.11 56.352 122.577 56.352C123.118 56.352 123.613 56.1933 124.061 55.876C124.527 55.5587 124.919 55.0453 125.237 54.336L130.137 56.744C129.633 58.1627 128.718 59.2733 127.393 60.076C126.067 60.8787 124.471 61.28 122.605 61.28ZM139.265 61.28C137.155 61.28 135.513 60.776 134.337 59.768C133.161 58.7413 132.573 57.1733 132.573 55.064V42.24H138.901V55.008C138.901 55.4747 139.022 55.8387 139.265 56.1C139.526 56.3613 139.843 56.492 140.217 56.492C140.758 56.492 141.234 56.352 141.645 56.072L143.157 60.468C142.671 60.748 142.083 60.9533 141.393 61.084C140.721 61.2147 140.011 61.28 139.265 61.28ZM130.473 51.144V46.524H142.037V51.144H130.473ZM151.136 61.28C149.922 61.28 148.821 61.0373 147.832 60.552C146.861 60.048 146.096 59.2733 145.536 58.228C144.976 57.164 144.696 55.8013 144.696 54.14V45.684H151.024V53.048C151.024 54.1307 151.201 54.8867 151.556 55.316C151.91 55.7453 152.396 55.96 153.012 55.96C153.385 55.96 153.73 55.8667 154.048 55.68C154.384 55.4747 154.654 55.148 154.86 54.7C155.065 54.2333 155.168 53.6267 155.168 52.88V45.684H161.496V61H155.476V56.576L156.68 57.78C156.138 58.9747 155.364 59.8613 154.356 60.44C153.366 61 152.293 61.28 151.136 61.28ZM164.302 61V45.684H170.322V50.304L169.342 48.988C169.809 47.7933 170.556 46.8973 171.582 46.3C172.609 45.7027 173.841 45.404 175.278 45.404V51.004C174.998 50.9667 174.746 50.9387 174.522 50.92C174.317 50.9013 174.102 50.892 173.878 50.892C172.926 50.892 172.142 51.144 171.526 51.648C170.929 52.1333 170.63 52.9827 170.63 54.196V61H164.302ZM185.391 61.28C183.524 61.28 181.891 60.9347 180.491 60.244C179.11 59.5533 178.036 58.6107 177.271 57.416C176.506 56.2027 176.123 54.84 176.123 53.328C176.123 51.7787 176.496 50.4067 177.243 49.212C178.008 48.0173 179.044 47.084 180.351 46.412C181.676 45.74 183.16 45.404 184.803 45.404C186.315 45.404 187.706 45.7027 188.975 46.3C190.263 46.8973 191.29 47.784 192.055 48.96C192.839 50.136 193.231 51.592 193.231 53.328C193.231 53.552 193.222 53.804 193.203 54.084C193.184 54.3453 193.166 54.588 193.147 54.812H181.359V51.76H189.787L187.407 52.572C187.407 51.9747 187.295 51.4707 187.071 51.06C186.866 50.6307 186.576 50.304 186.203 50.08C185.83 49.8373 185.382 49.716 184.859 49.716C184.336 49.716 183.879 49.8373 183.487 50.08C183.114 50.304 182.824 50.6307 182.619 51.06C182.414 51.4707 182.311 51.9747 182.311 52.572V53.524C182.311 54.1773 182.442 54.7373 182.703 55.204C182.964 55.6707 183.338 56.0253 183.823 56.268C184.308 56.492 184.896 56.604 185.587 56.604C186.296 56.604 186.875 56.5107 187.323 56.324C187.79 56.1373 188.275 55.8573 188.779 55.484L192.083 58.816C191.336 59.6187 190.412 60.2347 189.311 60.664C188.228 61.0747 186.922 61.28 185.391 61.28ZM203.819 61V41.4H213.255C215.084 41.4 216.661 41.6987 217.987 42.296C219.331 42.8933 220.367 43.752 221.095 44.872C221.823 45.9733 222.187 47.28 222.187 48.792C222.187 50.304 221.823 51.6107 221.095 52.712C220.367 53.8133 219.331 54.672 217.987 55.288C216.661 55.8853 215.084 56.184 213.255 56.184H207.487L210.427 53.356V61H203.819ZM210.427 54.084L207.487 51.088H212.835C213.749 51.088 214.421 50.8827 214.851 50.472C215.299 50.0613 215.523 49.5013 215.523 48.792C215.523 48.0827 215.299 47.5227 214.851 47.112C214.421 46.7013 213.749 46.496 212.835 46.496H207.487L210.427 43.5V54.084ZM224.431 61V45.684H230.451V50.304L229.471 48.988C229.938 47.7933 230.685 46.8973 231.711 46.3C232.738 45.7027 233.97 45.404 235.407 45.404V51.004C235.127 50.9667 234.875 50.9387 234.651 50.92C234.446 50.9013 234.231 50.892 234.007 50.892C233.055 50.892 232.271 51.144 231.655 51.648C231.058 52.1333 230.759 52.9827 230.759 54.196V61H224.431ZM245.156 61.28C243.42 61.28 241.88 60.944 240.536 60.272C239.211 59.5813 238.165 58.6387 237.4 57.444C236.635 56.2493 236.252 54.8773 236.252 53.328C236.252 51.7787 236.635 50.4067 237.4 49.212C238.165 48.0173 239.211 47.084 240.536 46.412C241.88 45.74 243.42 45.404 245.156 45.404C246.892 45.404 248.432 45.74 249.776 46.412C251.12 47.084 252.165 48.0173 252.912 49.212C253.677 50.4067 254.06 51.7787 254.06 53.328C254.06 54.8773 253.677 56.2493 252.912 57.444C252.165 58.6387 251.12 59.5813 249.776 60.272C248.432 60.944 246.892 61.28 245.156 61.28ZM245.156 56.352C245.623 56.352 246.043 56.24 246.416 56.016C246.789 55.792 247.088 55.456 247.312 55.008C247.536 54.5413 247.648 53.9813 247.648 53.328C247.648 52.656 247.536 52.1053 247.312 51.676C247.088 51.228 246.789 50.892 246.416 50.668C246.043 50.444 245.623 50.332 245.156 50.332C244.689 50.332 244.269 50.444 243.896 50.668C243.523 50.892 243.224 51.228 243 51.676C242.776 52.1053 242.664 52.656 242.664 53.328C242.664 53.9813 242.776 54.5413 243 55.008C243.224 55.456 243.523 55.792 243.896 56.016C244.269 56.24 244.689 56.352 245.156 56.352ZM255.901 66.712C255.154 66.712 254.445 66.6467 253.773 66.516C253.082 66.3853 252.494 66.1987 252.009 65.956L253.521 61.56C253.969 61.8027 254.445 61.924 254.949 61.924C255.322 61.924 255.63 61.784 255.873 61.504C256.134 61.224 256.265 60.776 256.265 60.16V45.684H262.593V60.216C262.593 62.1947 262.005 63.772 260.829 64.948C259.653 66.124 258.01 66.712 255.901 66.712ZM259.429 44.452C258.271 44.452 257.347 44.144 256.657 43.528C255.966 42.912 255.621 42.1467 255.621 41.232C255.621 40.3173 255.966 39.552 256.657 38.936C257.347 38.32 258.271 38.012 259.429 38.012C260.586 38.012 261.51 38.3013 262.201 38.88C262.891 39.4587 263.237 40.2053 263.237 41.12C263.237 42.0907 262.891 42.8933 262.201 43.528C261.51 44.144 260.586 44.452 259.429 44.452ZM273.848 61.28C271.982 61.28 270.348 60.9347 268.948 60.244C267.567 59.5533 266.494 58.6107 265.728 57.416C264.963 56.2027 264.58 54.84 264.58 53.328C264.58 51.7787 264.954 50.4067 265.7 49.212C266.466 48.0173 267.502 47.084 268.808 46.412C270.134 45.74 271.618 45.404 273.26 45.404C274.772 45.404 276.163 45.7027 277.432 46.3C278.72 46.8973 279.747 47.784 280.512 48.96C281.296 50.136 281.688 51.592 281.688 53.328C281.688 53.552 281.679 53.804 281.66 54.084C281.642 54.3453 281.623 54.588 281.604 54.812H269.816V51.76H278.244L275.864 52.572C275.864 51.9747 275.752 51.4707 275.528 51.06C275.323 50.6307 275.034 50.304 274.66 50.08C274.287 49.8373 273.839 49.716 273.316 49.716C272.794 49.716 272.336 49.8373 271.944 50.08C271.571 50.304 271.282 50.6307 271.076 51.06C270.871 51.4707 270.768 51.9747 270.768 52.572V53.524C270.768 54.1773 270.899 54.7373 271.16 55.204C271.422 55.6707 271.795 56.0253 272.28 56.268C272.766 56.492 273.354 56.604 274.044 56.604C274.754 56.604 275.332 56.5107 275.78 56.324C276.247 56.1373 276.732 55.8573 277.236 55.484L280.54 58.816C279.794 59.6187 278.87 60.2347 277.768 60.664C276.686 61.0747 275.379 61.28 273.848 61.28ZM291.917 61.28C290.162 61.28 288.604 60.944 287.241 60.272C285.878 59.6 284.805 58.6667 284.021 57.472C283.256 56.2587 282.873 54.8773 282.873 53.328C282.873 51.7787 283.256 50.4067 284.021 49.212C284.805 48.0173 285.878 47.084 287.241 46.412C288.604 45.74 290.162 45.404 291.917 45.404C293.784 45.404 295.38 45.8053 296.705 46.608C298.03 47.4107 298.945 48.5213 299.449 49.94L294.549 52.348C294.232 51.6387 293.84 51.1253 293.373 50.808C292.925 50.4907 292.43 50.332 291.889 50.332C291.422 50.332 290.984 50.444 290.573 50.668C290.181 50.892 289.864 51.228 289.621 51.676C289.397 52.1053 289.285 52.656 289.285 53.328C289.285 54 289.397 54.56 289.621 55.008C289.864 55.456 290.181 55.792 290.573 56.016C290.984 56.24 291.422 56.352 291.889 56.352C292.43 56.352 292.925 56.1933 293.373 55.876C293.84 55.5587 294.232 55.0453 294.549 54.336L299.449 56.744C298.945 58.1627 298.03 59.2733 296.705 60.076C295.38 60.8787 293.784 61.28 291.917 61.28ZM308.577 61.28C306.468 61.28 304.825 60.776 303.649 59.768C302.473 58.7413 301.885 57.1733 301.885 55.064V42.24H308.213V55.008C308.213 55.4747 308.334 55.8387 308.577 56.1C308.838 56.3613 309.156 56.492 309.529 56.492C310.07 56.492 310.546 56.352 310.957 56.072L312.469 60.468C311.984 60.748 311.396 60.9533 310.705 61.084C310.033 61.2147 309.324 61.28 308.577 61.28ZM299.785 51.144V46.524H311.349V51.144H299.785ZM320.056 61.28C318.749 61.28 317.461 61.14 316.192 60.86C314.923 60.58 313.896 60.216 313.112 59.768L314.848 55.596C315.576 56.0253 316.416 56.3613 317.368 56.604C318.339 56.8467 319.281 56.968 320.196 56.968C320.961 56.968 321.475 56.9027 321.736 56.772C322.016 56.6413 322.156 56.464 322.156 56.24C322.156 56.016 321.997 55.8573 321.68 55.764C321.363 55.652 320.943 55.568 320.42 55.512C319.897 55.456 319.319 55.3907 318.684 55.316C318.068 55.2227 317.443 55.092 316.808 54.924C316.173 54.756 315.595 54.504 315.072 54.168C314.549 53.832 314.129 53.384 313.812 52.824C313.495 52.2453 313.336 51.5173 313.336 50.64C313.336 49.6693 313.625 48.792 314.204 48.008C314.801 47.224 315.679 46.5987 316.836 46.132C318.012 45.6467 319.459 45.404 321.176 45.404C322.296 45.404 323.416 45.5067 324.536 45.712C325.656 45.9173 326.617 46.2347 327.42 46.664L325.684 50.836C324.9 50.4067 324.125 50.1173 323.36 49.968C322.613 49.8 321.913 49.716 321.26 49.716C320.457 49.716 319.907 49.7907 319.608 49.94C319.328 50.0893 319.188 50.2573 319.188 50.444C319.188 50.668 319.347 50.836 319.664 50.948C319.981 51.06 320.401 51.144 320.924 51.2C321.447 51.256 322.016 51.3307 322.632 51.424C323.267 51.4987 323.892 51.6293 324.508 51.816C325.143 51.984 325.721 52.236 326.244 52.572C326.767 52.908 327.187 53.3653 327.504 53.944C327.821 54.504 327.98 55.2227 327.98 56.1C327.98 57.0147 327.691 57.8733 327.112 58.676C326.533 59.46 325.656 60.0947 324.48 60.58C323.304 61.0467 321.829 61.28 320.056 61.28Z" fill="black"/>
<path d="M6.408 84.16C4.98933 84.16 3.88533 83.8187 3.096 83.136C2.31733 82.4533 1.928 81.4667 1.928 80.176V73.696H3.672V80.112C3.672 80.976 3.90667 81.6213 4.376 82.048C4.856 82.4747 5.53333 82.688 6.408 82.688C7.272 82.688 7.93867 82.4747 8.408 82.048C8.888 81.6213 9.128 80.976 9.128 80.112V73.696H10.856V80.176C10.856 81.4667 10.4667 82.4533 9.688 83.136C8.90933 83.8187 7.816 84.16 6.408 84.16ZM12.7893 84V76.416H14.3893L14.4693 77.216C14.8106 76.9493 15.2159 76.7253 15.6853 76.544C16.1653 76.352 16.6933 76.256 17.2693 76.256C18.2506 76.256 18.9653 76.4853 19.4133 76.944C19.8613 77.4027 20.0853 78.1173 20.0853 79.088V84H18.3573V79.168C18.3573 78.5813 18.2346 78.1707 17.9893 77.936C17.7546 77.7013 17.3066 77.584 16.6453 77.584C16.2506 77.584 15.8613 77.664 15.4773 77.824C15.1039 77.984 14.7893 78.192 14.5333 78.448V84H12.7893ZM25.019 84.16C24.3363 84.16 23.7337 84.0427 23.211 83.808C22.6883 83.5733 22.283 83.184 21.995 82.64C21.707 82.096 21.563 81.3653 21.563 80.448C21.563 79.5413 21.7177 78.7787 22.027 78.16C22.3363 77.5307 22.763 77.056 23.307 76.736C23.8617 76.416 24.4857 76.256 25.179 76.256C25.6377 76.256 26.043 76.3093 26.395 76.416C26.7577 76.5227 27.1043 76.688 27.435 76.912V73.216H29.179V84H27.691L27.579 83.248C27.2377 83.5573 26.8643 83.7867 26.459 83.936C26.0537 84.0853 25.5737 84.16 25.019 84.16ZM25.483 82.848C26.2617 82.848 26.9123 82.5813 27.435 82.048V78.256C26.9337 77.808 26.3043 77.584 25.547 77.584C24.811 77.584 24.2563 77.8293 23.883 78.32C23.5097 78.8107 23.323 79.5253 23.323 80.464C23.323 81.3707 23.4937 81.9947 23.835 82.336C24.187 82.6773 24.7363 82.848 25.483 82.848ZM34.8793 84.16C33.5566 84.16 32.5326 83.8347 31.8073 83.184C31.0819 82.5333 30.7193 81.536 30.7193 80.192C30.7193 78.976 31.0286 78.016 31.6473 77.312C32.2659 76.608 33.2046 76.256 34.4633 76.256C35.6153 76.256 36.4793 76.56 37.0553 77.168C37.6419 77.7653 37.9353 78.5387 37.9353 79.488V80.896H32.3832C32.4686 81.632 32.7353 82.1387 33.1833 82.416C33.6313 82.6933 34.3139 82.832 35.2313 82.832C35.6153 82.832 36.0099 82.7947 36.4153 82.72C36.8206 82.6453 37.1726 82.5493 37.4713 82.432V83.712C37.1299 83.8613 36.7353 83.9733 36.2873 84.048C35.8499 84.1227 35.3806 84.16 34.8793 84.16ZM32.3832 79.76H36.3993V79.232C36.3993 78.7093 36.2553 78.304 35.9673 78.016C35.6793 77.7173 35.1939 77.568 34.5113 77.568C33.7006 77.568 33.1406 77.744 32.8313 78.096C32.5326 78.448 32.3832 79.0027 32.3832 79.76ZM39.633 84V76.416H41.233L41.329 77.296C41.6917 77.0613 42.1237 76.848 42.625 76.656C43.1263 76.464 43.6223 76.3307 44.113 76.256V77.584C43.8143 77.6373 43.489 77.7173 43.137 77.824C42.7957 77.92 42.4703 78.032 42.161 78.16C41.8517 78.2773 41.5903 78.4 41.377 78.528V84H39.633ZM48.455 86.816C47.8897 86.816 47.3243 86.7787 46.759 86.704C46.1937 86.64 45.7137 86.5387 45.319 86.4V85.056C45.7457 85.1947 46.2363 85.3013 46.791 85.376C47.3457 85.4507 47.8737 85.488 48.375 85.488C49.143 85.488 49.703 85.4453 50.055 85.36C50.407 85.2747 50.583 85.0827 50.583 84.784C50.583 84.56 50.4977 84.4 50.327 84.304C50.1563 84.2187 49.831 84.176 49.351 84.176H47.303C45.927 84.176 45.239 83.6907 45.239 82.72C45.239 82.4107 45.3297 82.1227 45.511 81.856C45.6923 81.5893 45.9803 81.3867 46.375 81.248C45.9377 81.0347 45.6123 80.7413 45.399 80.368C45.1963 79.9947 45.095 79.5467 45.095 79.024C45.095 78.0533 45.383 77.3493 45.959 76.912C46.5457 76.4747 47.4203 76.256 48.583 76.256C48.8283 76.256 49.0843 76.2773 49.351 76.32C49.6177 76.352 49.8257 76.384 49.975 76.416H52.759L52.711 77.552H51.431C51.6337 77.7227 51.783 77.936 51.879 78.192C51.975 78.448 52.023 78.7253 52.023 79.024C52.023 79.8347 51.7777 80.4747 51.287 80.944C50.7963 81.4027 50.055 81.632 49.063 81.632C48.8923 81.632 48.7323 81.6267 48.583 81.616C48.4443 81.5947 48.2897 81.5733 48.119 81.552C47.799 81.584 47.511 81.6693 47.255 81.808C46.999 81.9467 46.871 82.1333 46.871 82.368C46.871 82.528 46.935 82.6453 47.063 82.72C47.191 82.784 47.4043 82.816 47.703 82.816H49.831C50.5883 82.816 51.1697 82.9813 51.575 83.312C51.991 83.632 52.199 84.1013 52.199 84.72C52.199 85.4667 51.8737 86 51.223 86.32C50.583 86.6507 49.6603 86.816 48.455 86.816ZM48.583 80.528C49.2763 80.528 49.7563 80.4107 50.023 80.176C50.3003 79.9413 50.439 79.5413 50.439 78.976C50.439 78.4107 50.3003 78 50.023 77.744C49.7563 77.488 49.2763 77.36 48.583 77.36C47.9323 77.36 47.4577 77.4827 47.159 77.728C46.8603 77.9733 46.711 78.3893 46.711 78.976C46.711 79.52 46.8497 79.9147 47.127 80.16C47.415 80.4053 47.9003 80.528 48.583 80.528ZM53.8361 84V76.416H55.4361L55.5321 77.296C55.8948 77.0613 56.3268 76.848 56.8281 76.656C57.3295 76.464 57.8255 76.3307 58.3161 76.256V77.584C58.0175 77.6373 57.6921 77.7173 57.3401 77.824C56.9988 77.92 56.6735 78.032 56.3641 78.16C56.0548 78.2773 55.7935 78.4 55.5801 78.528V84H53.8361ZM61.4698 84.16C60.9898 84.16 60.5418 84.0747 60.1258 83.904C59.7204 83.7333 59.3951 83.4773 59.1497 83.136C58.9044 82.784 58.7818 82.352 58.7818 81.84C58.7818 81.1147 59.0271 80.5333 59.5178 80.096C60.0191 79.648 60.7871 79.424 61.8218 79.424H64.2538V79.088C64.2538 78.7253 64.1951 78.4373 64.0778 78.224C63.9711 78.0107 63.7684 77.856 63.4698 77.76C63.1818 77.664 62.7551 77.616 62.1898 77.616C61.2938 77.616 60.4564 77.7493 59.6778 78.016V76.72C60.0191 76.5813 60.4351 76.4693 60.9258 76.384C61.4164 76.2987 61.9444 76.256 62.5098 76.256C63.6191 76.256 64.4618 76.48 65.0378 76.928C65.6244 77.376 65.9178 78.1067 65.9178 79.12V84H64.4298L64.3178 83.232C64.0084 83.5307 63.6244 83.76 63.1658 83.92C62.7178 84.08 62.1524 84.16 61.4698 84.16ZM61.9338 82.912C62.4564 82.912 62.9098 82.8267 63.2938 82.656C63.6884 82.4747 64.0084 82.2347 64.2538 81.936V80.608H61.8538C61.3418 80.608 60.9684 80.7093 60.7338 80.912C60.5098 81.104 60.3978 81.4027 60.3978 81.808C60.3978 82.2027 60.5311 82.4853 60.7978 82.656C61.0644 82.8267 61.4431 82.912 61.9338 82.912ZM70.9878 84.16C70.3051 84.16 69.7024 84.0427 69.1798 83.808C68.6571 83.5733 68.2518 83.184 67.9638 82.64C67.6758 82.096 67.5318 81.3653 67.5318 80.448C67.5318 79.5413 67.6864 78.7787 67.9958 78.16C68.3051 77.5307 68.7318 77.056 69.2758 76.736C69.8304 76.416 70.4544 76.256 71.1478 76.256C71.6064 76.256 72.0118 76.3093 72.3638 76.416C72.7264 76.5227 73.0731 76.688 73.4038 76.912V73.216H75.1478V84H73.6598L73.5478 83.248C73.2064 83.5573 72.8331 83.7867 72.4278 83.936C72.0224 84.0853 71.5424 84.16 70.9878 84.16ZM71.4518 82.848C72.2304 82.848 72.8811 82.5813 73.4038 82.048V78.256C72.9024 77.808 72.2731 77.584 71.5158 77.584C70.7798 77.584 70.2251 77.8293 69.8518 78.32C69.4784 78.8107 69.2918 79.5253 69.2918 80.464C69.2918 81.3707 69.4624 81.9947 69.8038 82.336C70.1558 82.6773 70.7051 82.848 71.4518 82.848ZM79.9003 84.16C78.9936 84.16 78.2949 83.9093 77.8043 83.408C77.3243 82.9067 77.0843 82.1707 77.0843 81.2V76.416H78.8283V81.2C78.8283 81.7653 78.9669 82.1813 79.2443 82.448C79.5216 82.7147 79.9483 82.848 80.5243 82.848C80.9509 82.848 81.3456 82.768 81.7083 82.608C82.0709 82.448 82.3856 82.2347 82.6523 81.968V76.416H84.3802V84H82.7963L82.7163 83.216C82.3749 83.4827 81.9696 83.7067 81.5003 83.888C81.0309 84.0693 80.4976 84.16 79.9003 84.16ZM88.5479 84.16C88.0679 84.16 87.6199 84.0747 87.2039 83.904C86.7985 83.7333 86.4732 83.4773 86.2279 83.136C85.9825 82.784 85.8599 82.352 85.8599 81.84C85.8599 81.1147 86.1052 80.5333 86.5959 80.096C87.0972 79.648 87.8652 79.424 88.8999 79.424H91.3319V79.088C91.3319 78.7253 91.2732 78.4373 91.1559 78.224C91.0492 78.0107 90.8465 77.856 90.5479 77.76C90.2599 77.664 89.8332 77.616 89.2679 77.616C88.3719 77.616 87.5345 77.7493 86.7559 78.016V76.72C87.0972 76.5813 87.5132 76.4693 88.0039 76.384C88.4945 76.2987 89.0225 76.256 89.5879 76.256C90.6972 76.256 91.5399 76.48 92.1159 76.928C92.7025 77.376 92.9959 78.1067 92.9959 79.12V84H91.5079L91.3959 83.232C91.0865 83.5307 90.7025 83.76 90.2439 83.92C89.7959 84.08 89.2305 84.16 88.5479 84.16ZM89.0119 82.912C89.5345 82.912 89.9879 82.8267 90.3719 82.656C90.7665 82.4747 91.0865 82.2347 91.3319 81.936V80.608H88.9319C88.4199 80.608 88.0465 80.7093 87.8119 80.912C87.5879 81.104 87.4759 81.4027 87.4759 81.808C87.4759 82.2027 87.6092 82.4853 87.8759 82.656C88.1425 82.8267 88.5212 82.912 89.0119 82.912ZM97.8259 84.16C97.0152 84.16 96.4072 83.9467 96.0019 83.52C95.6072 83.0827 95.4099 82.4907 95.4099 81.744V77.776H94.2899V76.416H95.4099V74.672L97.1379 74.144V76.416H99.1539L99.0419 77.776H97.1379V81.648C97.1379 82.0853 97.2392 82.3947 97.4419 82.576C97.6445 82.7467 97.9752 82.832 98.4339 82.832C98.7219 82.832 99.0259 82.7787 99.3459 82.672V83.904C98.9299 84.0747 98.4232 84.16 97.8259 84.16ZM104.52 84.16C103.197 84.16 102.173 83.8347 101.448 83.184C100.723 82.5333 100.36 81.536 100.36 80.192C100.36 78.976 100.669 78.016 101.288 77.312C101.907 76.608 102.845 76.256 104.104 76.256C105.256 76.256 106.12 76.56 106.696 77.168C107.283 77.7653 107.576 78.5387 107.576 79.488V80.896H102.024C102.109 81.632 102.376 82.1387 102.824 82.416C103.272 82.6933 103.955 82.832 104.872 82.832C105.256 82.832 105.651 82.7947 106.056 82.72C106.461 82.6453 106.813 82.5493 107.112 82.432V83.712C106.771 83.8613 106.376 83.9733 105.928 84.048C105.491 84.1227 105.021 84.16 104.52 84.16ZM102.024 79.76H106.04V79.232C106.04 78.7093 105.896 78.304 105.608 78.016C105.32 77.7173 104.835 77.568 104.152 77.568C103.341 77.568 102.781 77.744 102.472 78.096C102.173 78.448 102.024 79.0027 102.024 79.76ZM115.329 84.16C114.849 84.16 114.401 84.0747 113.985 83.904C113.58 83.7333 113.254 83.4773 113.009 83.136C112.764 82.784 112.641 82.352 112.641 81.84C112.641 81.1147 112.886 80.5333 113.377 80.096C113.878 79.648 114.646 79.424 115.681 79.424H118.113V79.088C118.113 78.7253 118.054 78.4373 117.937 78.224C117.83 78.0107 117.628 77.856 117.329 77.76C117.041 77.664 116.614 77.616 116.049 77.616C115.153 77.616 114.316 77.7493 113.537 78.016V76.72C113.878 76.5813 114.294 76.4693 114.785 76.384C115.276 76.2987 115.804 76.256 116.369 76.256C117.478 76.256 118.321 76.48 118.897 76.928C119.484 77.376 119.777 78.1067 119.777 79.12V84H118.289L118.177 83.232C117.868 83.5307 117.484 83.76 117.025 83.92C116.577 84.08 116.012 84.16 115.329 84.16ZM115.793 82.912C116.316 82.912 116.769 82.8267 117.153 82.656C117.548 82.4747 117.868 82.2347 118.113 81.936V80.608H115.713C115.201 80.608 114.828 80.7093 114.593 80.912C114.369 81.104 114.257 81.4027 114.257 81.808C114.257 82.2027 114.39 82.4853 114.657 82.656C114.924 82.8267 115.302 82.912 115.793 82.912ZM125.439 84.16C124.106 84.16 123.098 83.824 122.415 83.152C121.732 82.4693 121.391 81.488 121.391 80.208C121.391 78.8747 121.764 77.8827 122.511 77.232C123.268 76.5813 124.276 76.256 125.535 76.256C126.058 76.256 126.495 76.2933 126.847 76.368C127.21 76.4427 127.556 76.56 127.887 76.72V78.016C127.332 77.7387 126.66 77.6 125.871 77.6C124.996 77.6 124.324 77.7973 123.855 78.192C123.386 78.576 123.151 79.248 123.151 80.208C123.151 81.1147 123.359 81.7813 123.775 82.208C124.191 82.624 124.879 82.832 125.839 82.832C126.596 82.832 127.284 82.688 127.903 82.4V83.728C127.551 83.8667 127.172 83.9733 126.767 84.048C126.372 84.1227 125.93 84.16 125.439 84.16ZM131.657 84.16C131.177 84.16 130.729 84.0747 130.313 83.904C129.908 83.7333 129.583 83.4773 129.337 83.136C129.092 82.784 128.969 82.352 128.969 81.84C128.969 81.1147 129.215 80.5333 129.705 80.096C130.207 79.648 130.975 79.424 132.009 79.424H134.441V79.088C134.441 78.7253 134.383 78.4373 134.265 78.224C134.159 78.0107 133.956 77.856 133.657 77.76C133.369 77.664 132.943 77.616 132.377 77.616C131.481 77.616 130.644 77.7493 129.865 78.016V76.72C130.207 76.5813 130.623 76.4693 131.113 76.384C131.604 76.2987 132.132 76.256 132.697 76.256C133.807 76.256 134.649 76.48 135.225 76.928C135.812 77.376 136.105 78.1067 136.105 79.12V84H134.617L134.505 83.232C134.196 83.5307 133.812 83.76 133.353 83.92C132.905 84.08 132.34 84.16 131.657 84.16ZM132.121 82.912C132.644 82.912 133.097 82.8267 133.481 82.656C133.876 82.4747 134.196 82.2347 134.441 81.936V80.608H132.041C131.529 80.608 131.156 80.7093 130.921 80.912C130.697 81.104 130.585 81.4027 130.585 81.808C130.585 82.2027 130.719 82.4853 130.985 82.656C131.252 82.8267 131.631 82.912 132.121 82.912ZM141.175 84.16C140.493 84.16 139.89 84.0427 139.367 83.808C138.845 83.5733 138.439 83.184 138.151 82.64C137.863 82.096 137.719 81.3653 137.719 80.448C137.719 79.5413 137.874 78.7787 138.183 78.16C138.493 77.5307 138.919 77.056 139.463 76.736C140.018 76.416 140.642 76.256 141.335 76.256C141.794 76.256 142.199 76.3093 142.551 76.416C142.914 76.5227 143.261 76.688 143.591 76.912V73.216H145.335V84H143.847L143.735 83.248C143.394 83.5573 143.021 83.7867 142.615 83.936C142.21 84.0853 141.73 84.16 141.175 84.16ZM141.639 82.848C142.418 82.848 143.069 82.5813 143.591 82.048V78.256C143.09 77.808 142.461 77.584 141.703 77.584C140.967 77.584 140.413 77.8293 140.039 78.32C139.666 78.8107 139.479 79.5253 139.479 80.464C139.479 81.3707 139.65 81.9947 139.991 82.336C140.343 82.6773 140.893 82.848 141.639 82.848ZM151.036 84.16C149.713 84.16 148.689 83.8347 147.964 83.184C147.238 82.5333 146.876 81.536 146.876 80.192C146.876 78.976 147.185 78.016 147.804 77.312C148.422 76.608 149.361 76.256 150.62 76.256C151.772 76.256 152.636 76.56 153.212 77.168C153.798 77.7653 154.092 78.5387 154.092 79.488V80.896H148.539C148.625 81.632 148.892 82.1387 149.34 82.416C149.788 82.6933 150.47 82.832 151.388 82.832C151.772 82.832 152.166 82.7947 152.572 82.72C152.977 82.6453 153.329 82.5493 153.628 82.432V83.712C153.286 83.8613 152.892 83.9733 152.444 84.048C152.006 84.1227 151.537 84.16 151.036 84.16ZM148.539 79.76H152.556V79.232C152.556 78.7093 152.412 78.304 152.124 78.016C151.836 77.7173 151.35 77.568 150.668 77.568C149.857 77.568 149.297 77.744 148.988 78.096C148.689 78.448 148.539 79.0027 148.539 79.76ZM155.789 84V76.416H157.389L157.469 77.216C157.843 76.9173 158.253 76.6827 158.701 76.512C159.149 76.3413 159.629 76.256 160.141 76.256C160.685 76.256 161.107 76.3467 161.405 76.528C161.715 76.6987 161.949 76.9387 162.109 77.248C162.461 76.96 162.867 76.7253 163.325 76.544C163.784 76.352 164.333 76.256 164.973 76.256C165.848 76.256 166.493 76.48 166.909 76.928C167.325 77.376 167.533 78.064 167.533 78.992V84H165.821V79.168C165.821 78.5813 165.699 78.1707 165.453 77.936C165.208 77.7013 164.808 77.584 164.253 77.584C163.891 77.584 163.544 77.648 163.213 77.776C162.893 77.904 162.616 78.096 162.381 78.352C162.413 78.4693 162.435 78.592 162.445 78.72C162.456 78.848 162.461 78.9867 162.461 79.136V84H160.845V79.184C160.845 78.6293 160.749 78.224 160.557 77.968C160.365 77.712 160.003 77.584 159.469 77.584C159.096 77.584 158.739 77.6747 158.397 77.856C158.067 78.0267 157.768 78.2347 157.501 78.48V84H155.789ZM170.132 74.832V73.392H172.036V74.832H170.132ZM170.276 84V77.744H169.124L169.284 76.416H172.02V84H170.276ZM177.783 84.16C176.45 84.16 175.442 83.824 174.759 83.152C174.076 82.4693 173.735 81.488 173.735 80.208C173.735 78.8747 174.108 77.8827 174.855 77.232C175.612 76.5813 176.62 76.256 177.879 76.256C178.402 76.256 178.839 76.2933 179.191 76.368C179.554 76.4427 179.9 76.56 180.231 76.72V78.016C179.676 77.7387 179.004 77.6 178.215 77.6C177.34 77.6 176.668 77.7973 176.199 78.192C175.73 78.576 175.495 79.248 175.495 80.208C175.495 81.1147 175.703 81.7813 176.119 82.208C176.535 82.624 177.223 82.832 178.183 82.832C178.94 82.832 179.628 82.688 180.247 82.4V83.728C179.895 83.8667 179.516 83.9733 179.111 84.048C178.716 84.1227 178.274 84.16 177.783 84.16ZM187.001 84L185.001 76.416H186.745L188.057 81.936L189.545 77.344V76.416H190.873L192.521 81.936L193.833 76.416H195.561L193.577 84H191.929L190.313 79.04L188.665 84H187.001ZM200.171 84.16C198.806 84.16 197.803 83.8187 197.163 83.136C196.534 82.4533 196.219 81.4773 196.219 80.208C196.219 78.9387 196.539 77.9627 197.179 77.28C197.819 76.5973 198.817 76.256 200.171 76.256C201.537 76.256 202.539 76.5973 203.179 77.28C203.819 77.9627 204.139 78.9387 204.139 80.208C204.139 81.4773 203.819 82.4533 203.179 83.136C202.55 83.8187 201.547 84.16 200.171 84.16ZM200.171 82.688C200.971 82.688 201.537 82.496 201.867 82.112C202.209 81.7173 202.379 81.0827 202.379 80.208C202.379 79.3333 202.209 78.704 201.867 78.32C201.537 77.936 200.971 77.744 200.171 77.744C199.382 77.744 198.817 77.936 198.475 78.32C198.145 78.704 197.979 79.3333 197.979 80.208C197.979 81.0827 198.145 81.7173 198.475 82.112C198.817 82.496 199.382 82.688 200.171 82.688ZM205.836 84V76.416H207.436L207.532 77.296C207.895 77.0613 208.327 76.848 208.828 76.656C209.329 76.464 209.825 76.3307 210.316 76.256V77.584C210.017 77.6373 209.692 77.7173 209.34 77.824C208.999 77.92 208.673 78.032 208.364 78.16C208.055 78.2773 207.793 78.4 207.58 78.528V84H205.836ZM211.586 84V73.216H213.33V79.456L216.514 76.416H218.514L215.426 79.472L218.69 84H216.85L214.338 80.4L213.33 81.36V84H211.586ZM222.145 84.16C221.623 84.16 221.121 84.1227 220.641 84.048C220.172 83.9733 219.783 83.8827 219.473 83.776V82.304C219.836 82.4427 220.236 82.5493 220.673 82.624C221.111 82.6987 221.527 82.736 221.921 82.736C222.519 82.736 222.945 82.6827 223.201 82.576C223.457 82.4693 223.585 82.2613 223.585 81.952C223.585 81.728 223.505 81.552 223.345 81.424C223.196 81.296 222.967 81.1787 222.657 81.072C222.359 80.9653 221.975 80.8373 221.505 80.688C221.057 80.5387 220.668 80.3787 220.337 80.208C220.007 80.0267 219.751 79.7973 219.569 79.52C219.388 79.2427 219.297 78.88 219.297 78.432C219.297 77.7387 219.548 77.2053 220.049 76.832C220.551 76.448 221.356 76.256 222.465 76.256C222.903 76.256 223.319 76.288 223.713 76.352C224.108 76.416 224.444 76.496 224.721 76.592V78.048C224.423 77.9307 224.092 77.84 223.729 77.776C223.377 77.712 223.047 77.68 222.737 77.68C222.183 77.68 221.761 77.728 221.473 77.824C221.196 77.92 221.057 78.112 221.057 78.4C221.057 78.6987 221.201 78.912 221.489 79.04C221.788 79.1573 222.263 79.3227 222.913 79.536C223.511 79.7173 223.985 79.9093 224.337 80.112C224.689 80.3147 224.94 80.56 225.089 80.848C225.249 81.1253 225.329 81.488 225.329 81.936C225.329 82.6827 225.057 83.2427 224.513 83.616C223.969 83.9787 223.18 84.16 222.145 84.16Z" fill="white"/>
</svg>
