<svg width="80" height="80" viewBox="0 0 80 80" fill="none" xmlns="http://www.w3.org/2000/svg">
<circle cx="40" cy="40" r="40" fill="#397B41"/>
<path d="M29.8613 32.0225V57H21.4824V32.0225H29.8613ZM30.3945 24.3099C30.4115 25.5366 29.984 26.5615 29.1123 27.3849C28.2406 28.2082 27.0938 28.6199 25.6719 28.6199H25.6211C24.2331 28.6199 23.1159 28.2082 22.2695 27.3849C21.4232 26.5615 21 25.5366 21 24.3099C21 23.0665 21.4359 22.0374 22.3076 21.2224C23.1794 20.4075 24.3177 20 25.7227 20C27.1276 20 28.2533 20.4075 29.0996 21.2224C29.946 22.0374 30.3776 23.0665 30.3945 24.3099ZM60 42.6839V57H51.6465V43.6417C51.6465 41.8774 51.3037 40.4953 50.6182 39.4956C49.9326 38.4958 48.862 37.9959 47.4063 37.9959C46.3398 37.9959 45.4469 38.2858 44.7275 38.8655C44.0081 39.4452 43.4707 40.1635 43.1152 41.0204C42.929 41.5245 42.8359 42.205 42.8359 43.062V57H34.4824C34.5163 50.2956 34.5332 44.8599 34.5332 40.6928C34.5332 36.5257 34.5247 34.0388 34.5078 33.2323L34.4824 32.0225H42.8359V35.6519H42.7852C43.1237 35.1142 43.4707 34.6437 43.8262 34.2405C44.1816 33.8372 44.6598 33.4003 45.2607 32.9298C45.8617 32.4594 46.598 32.0939 47.4697 31.8334C48.3415 31.573 49.3105 31.4428 50.377 31.4428C53.2715 31.4428 55.599 32.3963 57.3594 34.3035C59.1198 36.2106 60 39.0041 60 42.6839Z" fill="black"/>
</svg>
