<svg width="108" height="88" viewBox="0 0 108 88" fill="none" xmlns="http://www.w3.org/2000/svg">
<rect x="45.291" width="20.9032" height="40.8116" fill="#111111"/>
<rect y="47.1884" width="13.9355" height="40.8116" fill="#111111"/>
<path d="M15.6777 47.1884H29.6132V87.9999H15.6777V47.1884Z" fill="#111111"/>
<rect x="74.9023" y="47.1884" width="10.4516" height="40.8116" fill="#111111"/>
<path d="M87.0977 47.1884C98.6422 47.1884 108.001 56.547 108.001 68.0916V87.9999H87.0977V47.1884Z" fill="#111111"/>
<path d="M0 0H13.9355V40.8116H0V0Z" fill="#111111"/>
<path d="M47.0332 47.1884H59.2268L73.1622 87.9999H60.9687L47.0332 47.1884Z" fill="#111111"/>
<path d="M45.291 47.1884L59.2264 87.9999H31.3555L45.291 47.1884Z" fill="#111111"/>
<path d="M15.6777 0C22.412 0 27.8713 5.45924 27.8713 12.1935V13.6039H28.2029C35.7161 13.6039 41.8068 19.6945 41.8068 27.2077C41.8068 34.7209 35.7161 40.8116 28.2029 40.8116H22.6455H15.6777V0Z" fill="#111111"/>
</svg>
