<svg width="320" height="320" viewBox="0 0 320 320" fill="none" xmlns="http://www.w3.org/2000/svg">
<circle cx="160" cy="160" r="160" fill="#ECA829"/>
<path d="M116.297 38H124.307V38.57H122.657V58.43H124.307V59H115.157V58.43H116.807V39.68H116.687L112.187 59H108.437L103.157 39.59H103.037V58.43H104.687V59H100.607V58.43H102.257V38.57H100.607V38H108.707L112.697 53.45L116.297 38ZM132.553 51.95H133.423V49.64C133.423 47.74 133.313 46.47 133.093 45.83C132.893 45.17 132.493 44.84 131.893 44.84C131.533 44.84 131.203 44.94 130.903 45.14C130.623 45.32 130.483 45.58 130.483 45.92C130.483 46.24 130.543 46.57 130.663 46.91H131.413C131.573 47.33 131.653 47.84 131.653 48.44C131.653 49.02 131.403 49.53 130.903 49.97C130.403 50.39 129.773 50.6 129.013 50.6C127.293 50.6 126.433 49.77 126.433 48.11C126.433 45.65 128.523 44.42 132.703 44.42C135.083 44.42 136.723 44.83 137.623 45.65C138.543 46.45 139.003 47.93 139.003 50.09V56.18C139.003 57.22 139.293 57.74 139.873 57.74C140.553 57.74 140.953 56.71 141.073 54.65L141.523 54.68C141.443 56.44 141.113 57.65 140.533 58.31C139.953 58.97 139.003 59.3 137.683 59.3C135.283 59.3 133.903 58.56 133.543 57.08C133.283 57.84 132.893 58.4 132.373 58.76C131.853 59.12 131.093 59.3 130.093 59.3C127.133 59.3 125.653 58.09 125.653 55.67C125.653 54.25 126.213 53.28 127.333 52.76C128.473 52.22 130.213 51.95 132.553 51.95ZM131.353 55.64C131.353 56.68 131.403 57.35 131.503 57.65C131.623 57.95 131.833 58.1 132.133 58.1C132.453 58.1 132.743 57.85 133.003 57.35C133.283 56.83 133.423 56.12 133.423 55.22V52.43H133.213C131.973 52.43 131.353 53.34 131.353 55.16V55.64ZM151.838 45.56C151.098 45.56 150.448 46.04 149.888 47C149.328 47.96 149.048 49.1 149.048 50.42V58.46H151.178V59H141.818V58.46H143.468V45.26H141.818V44.72H149.048V47.6C149.308 46.58 149.808 45.8 150.548 45.26C151.288 44.7 152.128 44.42 153.068 44.42C154.008 44.42 154.768 44.69 155.348 45.23C155.948 45.75 156.248 46.5 156.248 47.48C156.248 48.44 156.028 49.18 155.588 49.7C155.148 50.22 154.468 50.48 153.548 50.48C152.648 50.48 151.978 50.18 151.538 49.58C151.118 48.98 151.068 48.15 151.388 47.09H152.468C152.968 46.07 152.758 45.56 151.838 45.56ZM168.408 43.16L169.248 42.65C169.368 42.03 169.128 41.72 168.528 41.72C167.668 41.72 167.238 42.38 167.238 43.7C167.238 44.22 167.308 44.82 167.448 45.5C168.968 46.52 169.728 47.83 169.728 49.43C169.728 51.01 169.178 52.24 168.078 53.12C166.978 54 165.488 54.44 163.608 54.44C162.828 54.44 162.018 54.36 161.178 54.2C160.298 54.76 159.858 55.18 159.858 55.46C159.858 55.74 160.498 55.88 161.778 55.88H164.838C169.378 55.88 171.648 57.51 171.648 60.77C171.648 62.53 170.958 63.92 169.578 64.94C168.218 65.98 166.088 66.5 163.188 66.5C158.248 66.5 155.778 65.43 155.778 63.29C155.778 62.13 156.548 61.33 158.088 60.89L159.888 61.7C159.728 62.28 159.648 62.83 159.648 63.35C159.648 65.07 160.928 65.93 163.488 65.93C165.048 65.93 166.248 65.64 167.088 65.06C167.928 64.48 168.348 63.76 168.348 62.9C168.348 62.04 168.088 61.46 167.568 61.16C167.068 60.88 166.058 60.74 164.538 60.74H161.628C160.008 60.74 158.848 60.47 158.148 59.93C157.448 59.39 157.098 58.73 157.098 57.95C157.098 57.15 157.348 56.49 157.848 55.97C158.348 55.43 159.238 54.77 160.518 53.99C158.198 53.33 157.038 51.81 157.038 49.43C157.038 47.93 157.578 46.72 158.658 45.8C159.738 44.88 161.358 44.42 163.518 44.42C164.818 44.42 165.928 44.67 166.848 45.17C166.728 44.63 166.668 44.14 166.668 43.7C166.668 42.58 166.968 41.77 167.568 41.27C168.168 40.77 168.838 40.52 169.578 40.52C170.318 40.52 170.908 40.72 171.348 41.12C171.808 41.5 172.038 42.03 172.038 42.71C172.038 43.39 171.858 43.9 171.498 44.24C171.138 44.56 170.698 44.72 170.178 44.72C169.678 44.72 169.258 44.59 168.918 44.33C168.598 44.05 168.428 43.66 168.408 43.16ZM162.048 48.77V50.39C162.048 51.73 162.158 52.64 162.378 53.12C162.618 53.6 162.968 53.84 163.428 53.84C163.908 53.84 164.248 53.61 164.448 53.15C164.668 52.67 164.778 51.7 164.778 50.24V48.77C164.778 47.21 164.678 46.19 164.478 45.71C164.278 45.21 163.938 44.96 163.458 44.96C162.998 44.96 162.648 45.22 162.408 45.74C162.168 46.24 162.048 47.25 162.048 48.77ZM180.834 53.09V50.54C180.834 48.6 180.724 47.19 180.504 46.31C180.304 45.41 179.824 44.96 179.064 44.96C178.624 44.96 178.264 45.09 177.984 45.35C177.724 45.59 177.534 46 177.414 46.58C177.234 47.48 177.144 48.85 177.144 50.69V53.03C177.144 55.21 177.204 56.52 177.324 56.96C177.464 57.4 177.604 57.76 177.744 58.04C177.964 58.52 178.394 58.76 179.034 58.76C179.814 58.76 180.324 58.31 180.564 57.41C180.744 56.77 180.834 55.33 180.834 53.09ZM178.974 59.3C176.474 59.3 174.584 58.66 173.304 57.38C172.024 56.1 171.384 54.27 171.384 51.89C171.384 49.49 172.064 47.65 173.424 46.37C174.804 45.07 176.734 44.42 179.214 44.42C181.694 44.42 183.544 45.02 184.764 46.22C185.984 47.4 186.594 49.21 186.594 51.65C186.594 56.75 184.054 59.3 178.974 59.3ZM188.933 54.71V45.26H187.283V44.72H188.933V40.85L194.513 39.47V44.72H198.413V45.26H194.513V55.37C194.513 56.31 194.603 57 194.783 57.44C194.983 57.88 195.383 58.1 195.983 58.1C196.583 58.1 197.103 57.8 197.543 57.2C198.003 56.6 198.303 55.78 198.443 54.74L198.953 54.8C198.793 56.18 198.353 57.28 197.633 58.1C196.913 58.9 195.723 59.3 194.063 59.3C192.403 59.3 191.133 58.97 190.253 58.31C189.373 57.65 188.933 56.45 188.933 54.71ZM200.844 45.44L200.574 45.02C202.434 43.8 203.364 42.58 203.364 41.36C203.364 40.72 203.094 40.36 202.554 40.28L201.294 41.45C200.894 41.31 200.524 41.06 200.184 40.7C199.864 40.32 199.704 39.84 199.704 39.26C199.704 38.68 199.934 38.19 200.394 37.79C200.854 37.37 201.454 37.16 202.194 37.16C202.954 37.16 203.574 37.42 204.054 37.94C204.554 38.44 204.804 39.14 204.804 40.04C204.804 42 203.484 43.8 200.844 45.44ZM204.734 59.3V53.93H205.094C205.614 55.67 206.314 56.89 207.194 57.59C208.074 58.29 209.174 58.64 210.494 58.64C212.534 58.64 213.554 57.99 213.554 56.69C213.554 56.13 213.304 55.71 212.804 55.43C212.024 54.99 211.024 54.65 209.804 54.41C208.444 54.05 207.304 53.57 206.384 52.97C205.284 52.25 204.734 51.11 204.734 49.55C204.734 47.99 205.214 46.75 206.174 45.83C207.134 44.89 208.414 44.42 210.014 44.42C210.994 44.42 212.004 44.65 213.044 45.11C213.424 45.27 213.714 45.35 213.914 45.35C214.114 45.35 214.284 45.28 214.424 45.14C214.564 45 214.734 44.74 214.934 44.36H215.264V48.95H214.904C213.884 46.35 212.304 45.05 210.164 45.05C209.224 45.05 208.524 45.22 208.064 45.56C207.604 45.88 207.374 46.29 207.374 46.79C207.374 47.09 207.444 47.33 207.584 47.51C207.724 47.67 207.834 47.79 207.914 47.87C207.994 47.95 208.124 48.04 208.304 48.14C208.484 48.22 208.634 48.29 208.754 48.35C208.874 48.39 209.054 48.45 209.294 48.53C209.554 48.61 209.744 48.66 209.864 48.68C211.224 49.02 212.204 49.32 212.804 49.58C213.404 49.82 213.974 50.12 214.514 50.48C215.614 51.24 216.164 52.47 216.164 54.17C216.164 55.85 215.664 57.13 214.664 58.01C213.664 58.87 212.294 59.3 210.554 59.3C209.314 59.3 208.114 59.01 206.954 58.43C206.714 58.27 206.524 58.19 206.384 58.19C205.944 58.19 205.514 58.56 205.094 59.3H204.734ZM61.5665 72H70.5365C73.3165 72 75.3965 72.38 76.7765 73.14C78.1765 73.88 78.8765 75.14 78.8765 76.92C78.8765 79.66 77.2265 81.3 73.9265 81.84V81.9C77.9265 82.4 79.9265 84.14 79.9265 87.12C79.9265 89.3 79.1065 90.83 77.4665 91.71C75.8265 92.57 73.4665 93 70.3865 93H61.5665V92.43H63.5165V72.57H61.5665V72ZM69.3665 82.38V92.43H70.7765C71.8765 92.43 72.6465 92.05 73.0865 91.29C73.5265 90.53 73.7465 89.41 73.7465 87.93V86.34C73.7465 85.02 73.4765 84.03 72.9365 83.37C72.3965 82.71 71.4365 82.38 70.0565 82.38H69.3665ZM69.3665 72.57V81.81H70.1465C71.1865 81.81 71.9065 81.5 72.3065 80.88C72.7265 80.24 72.9365 79.27 72.9365 77.97V76.56C72.9365 75.08 72.7565 74.05 72.3965 73.47C72.0365 72.87 71.3465 72.57 70.3265 72.57H69.3665ZM98.5619 93H91.7219L91.3919 90.81C91.0719 91.61 90.5919 92.23 89.9519 92.67C89.3319 93.09 88.4019 93.3 87.1619 93.3C84.0619 93.3 82.5119 91.63 82.5119 88.29V79.26H80.8319V78.72H88.0919V89.01C88.0919 90.21 88.1719 91 88.3319 91.38C88.5119 91.76 88.8519 91.95 89.3519 91.95C89.8719 91.95 90.3319 91.64 90.7319 91.02C91.1319 90.4 91.3319 89.54 91.3319 88.44V79.26H89.9519V78.72H96.9119V92.46H98.5619V93ZM99.866 93.3V87.93H100.226C100.746 89.67 101.446 90.89 102.326 91.59C103.206 92.29 104.306 92.64 105.626 92.64C107.666 92.64 108.686 91.99 108.686 90.69C108.686 90.13 108.436 89.71 107.936 89.43C107.156 88.99 106.156 88.65 104.936 88.41C103.576 88.05 102.436 87.57 101.516 86.97C100.416 86.25 99.866 85.11 99.866 83.55C99.866 81.99 100.346 80.75 101.306 79.83C102.266 78.89 103.546 78.42 105.146 78.42C106.126 78.42 107.136 78.65 108.176 79.11C108.556 79.27 108.846 79.35 109.046 79.35C109.246 79.35 109.416 79.28 109.556 79.14C109.696 79 109.866 78.74 110.066 78.36H110.396V82.95H110.036C109.016 80.35 107.436 79.05 105.296 79.05C104.356 79.05 103.656 79.22 103.196 79.56C102.736 79.88 102.506 80.29 102.506 80.79C102.506 81.09 102.576 81.33 102.716 81.51C102.856 81.67 102.966 81.79 103.046 81.87C103.126 81.95 103.256 82.04 103.436 82.14C103.616 82.22 103.766 82.29 103.886 82.35C104.006 82.39 104.186 82.45 104.426 82.53C104.686 82.61 104.876 82.66 104.996 82.68C106.356 83.02 107.336 83.32 107.936 83.58C108.536 83.82 109.106 84.12 109.646 84.48C110.746 85.24 111.296 86.47 111.296 88.17C111.296 89.85 110.796 91.13 109.796 92.01C108.796 92.87 107.426 93.3 105.686 93.3C104.446 93.3 103.246 93.01 102.086 92.43C101.846 92.27 101.656 92.19 101.516 92.19C101.076 92.19 100.646 92.56 100.226 93.3H99.866ZM113.391 88.71V79.26H111.741V78.72H113.391V74.85L118.971 73.47V78.72H122.871V79.26H118.971V89.37C118.971 90.31 119.061 91 119.241 91.44C119.441 91.88 119.841 92.1 120.441 92.1C121.041 92.1 121.561 91.8 122.001 91.2C122.461 90.6 122.761 89.78 122.901 88.74L123.411 88.8C123.251 90.18 122.811 91.28 122.091 92.1C121.371 92.9 120.181 93.3 118.521 93.3C116.861 93.3 115.591 92.97 114.711 92.31C113.831 91.65 113.391 90.45 113.391 88.71ZM123.577 70.5H130.927V92.46H132.607V93H123.697V92.46H125.347V71.04H123.577V70.5ZM137.6 76.65C136.54 76.65 135.78 76.38 135.32 75.84C134.88 75.3 134.66 74.63 134.66 73.83C134.66 73.03 134.9 72.37 135.38 71.85C135.88 71.33 136.63 71.07 137.63 71.07C138.63 71.07 139.39 71.31 139.91 71.79C140.43 72.25 140.69 72.92 140.69 73.8C140.69 74.66 140.44 75.35 139.94 75.87C139.44 76.39 138.66 76.65 137.6 76.65ZM133.07 78.72H140.42V92.46H142.1V93H133.19V92.46H134.84V79.26H133.07V78.72ZM142.771 78.72H150.001V81.48C150.321 80.56 150.811 79.82 151.471 79.26C152.131 78.7 153.131 78.42 154.471 78.42C157.571 78.42 159.121 80.09 159.121 83.43V92.46H160.801V93H152.311V92.46H153.541V82.71C153.541 81.51 153.461 80.74 153.301 80.4C153.141 80.04 152.851 79.86 152.431 79.86C151.791 79.86 151.221 80.28 150.721 81.12C150.241 81.96 150.001 82.98 150.001 84.18V92.46H151.291V93H142.771V92.46H144.421V79.26H142.771V78.72ZM173.227 77.16L174.067 76.65C174.187 76.03 173.947 75.72 173.347 75.72C172.487 75.72 172.057 76.38 172.057 77.7C172.057 78.22 172.127 78.82 172.267 79.5C173.787 80.52 174.547 81.83 174.547 83.43C174.547 85.01 173.997 86.24 172.897 87.12C171.797 88 170.307 88.44 168.427 88.44C167.647 88.44 166.837 88.36 165.997 88.2C165.117 88.76 164.677 89.18 164.677 89.46C164.677 89.74 165.317 89.88 166.597 89.88H169.657C174.197 89.88 176.467 91.51 176.467 94.77C176.467 96.53 175.777 97.92 174.397 98.94C173.037 99.98 170.907 100.5 168.007 100.5C163.067 100.5 160.597 99.43 160.597 97.29C160.597 96.13 161.367 95.33 162.907 94.89L164.707 95.7C164.547 96.28 164.467 96.83 164.467 97.35C164.467 99.07 165.747 99.93 168.307 99.93C169.867 99.93 171.067 99.64 171.907 99.06C172.747 98.48 173.167 97.76 173.167 96.9C173.167 96.04 172.907 95.46 172.387 95.16C171.887 94.88 170.877 94.74 169.357 94.74H166.447C164.827 94.74 163.667 94.47 162.967 93.93C162.267 93.39 161.917 92.73 161.917 91.95C161.917 91.15 162.167 90.49 162.667 89.97C163.167 89.43 164.057 88.77 165.337 87.99C163.017 87.33 161.857 85.81 161.857 83.43C161.857 81.93 162.397 80.72 163.477 79.8C164.557 78.88 166.177 78.42 168.337 78.42C169.637 78.42 170.747 78.67 171.667 79.17C171.547 78.63 171.487 78.14 171.487 77.7C171.487 76.58 171.787 75.77 172.387 75.27C172.987 74.77 173.657 74.52 174.397 74.52C175.137 74.52 175.727 74.72 176.167 75.12C176.627 75.5 176.857 76.03 176.857 76.71C176.857 77.39 176.677 77.9 176.317 78.24C175.957 78.56 175.517 78.72 174.997 78.72C174.497 78.72 174.077 78.59 173.737 78.33C173.417 78.05 173.247 77.66 173.227 77.16ZM166.867 82.77V84.39C166.867 85.73 166.977 86.64 167.197 87.12C167.437 87.6 167.787 87.84 168.247 87.84C168.727 87.84 169.067 87.61 169.267 87.15C169.487 86.67 169.597 85.7 169.597 84.24V82.77C169.597 81.21 169.497 80.19 169.297 79.71C169.097 79.21 168.757 78.96 168.277 78.96C167.817 78.96 167.467 79.22 167.227 79.74C166.987 80.24 166.867 81.25 166.867 82.77ZM182.592 72H191.562C194.342 72 196.422 72.38 197.802 73.14C199.202 73.88 199.902 75.14 199.902 76.92C199.902 79.66 198.252 81.3 194.952 81.84V81.9C198.952 82.4 200.952 84.14 200.952 87.12C200.952 89.3 200.132 90.83 198.492 91.71C196.852 92.57 194.492 93 191.412 93H182.592V92.43H184.542V72.57H182.592V72ZM190.392 82.38V92.43H191.802C192.902 92.43 193.672 92.05 194.112 91.29C194.552 90.53 194.772 89.41 194.772 87.93V86.34C194.772 85.02 194.502 84.03 193.962 83.37C193.422 82.71 192.462 82.38 191.082 82.38H190.392ZM190.392 72.57V81.81H191.172C192.212 81.81 192.932 81.5 193.332 80.88C193.752 80.24 193.962 79.27 193.962 77.97V76.56C193.962 75.08 193.782 74.05 193.422 73.47C193.062 72.87 192.372 72.57 191.352 72.57H190.392ZM212.057 79.56C211.317 79.56 210.667 80.04 210.107 81C209.547 81.96 209.267 83.1 209.267 84.42V92.46H211.397V93H202.037V92.46H203.687V79.26H202.037V78.72H209.267V81.6C209.527 80.58 210.027 79.8 210.767 79.26C211.507 78.7 212.347 78.42 213.287 78.42C214.227 78.42 214.987 78.69 215.567 79.23C216.167 79.75 216.467 80.5 216.467 81.48C216.467 82.44 216.247 83.18 215.807 83.7C215.367 84.22 214.687 84.48 213.767 84.48C212.867 84.48 212.197 84.18 211.757 83.58C211.337 82.98 211.287 82.15 211.607 81.09H212.687C213.187 80.07 212.977 79.56 212.057 79.56ZM221.301 76.65C220.241 76.65 219.481 76.38 219.021 75.84C218.581 75.3 218.361 74.63 218.361 73.83C218.361 73.03 218.601 72.37 219.081 71.85C219.581 71.33 220.331 71.07 221.331 71.07C222.331 71.07 223.091 71.31 223.611 71.79C224.131 72.25 224.391 72.92 224.391 73.8C224.391 74.66 224.141 75.35 223.641 75.87C223.141 76.39 222.361 76.65 221.301 76.65ZM216.771 78.72H224.121V92.46H225.801V93H216.891V92.46H218.541V79.26H216.771V78.72ZM233.612 85.95H234.482V83.64C234.482 81.74 234.372 80.47 234.152 79.83C233.952 79.17 233.552 78.84 232.952 78.84C232.592 78.84 232.262 78.94 231.962 79.14C231.682 79.32 231.542 79.58 231.542 79.92C231.542 80.24 231.602 80.57 231.722 80.91H232.472C232.632 81.33 232.712 81.84 232.712 82.44C232.712 83.02 232.462 83.53 231.962 83.97C231.462 84.39 230.832 84.6 230.072 84.6C228.352 84.6 227.492 83.77 227.492 82.11C227.492 79.65 229.582 78.42 233.762 78.42C236.142 78.42 237.782 78.83 238.682 79.65C239.602 80.45 240.062 81.93 240.062 84.09V90.18C240.062 91.22 240.352 91.74 240.932 91.74C241.612 91.74 242.012 90.71 242.132 88.65L242.582 88.68C242.502 90.44 242.172 91.65 241.592 92.31C241.012 92.97 240.062 93.3 238.742 93.3C236.342 93.3 234.962 92.56 234.602 91.08C234.342 91.84 233.952 92.4 233.432 92.76C232.912 93.12 232.152 93.3 231.152 93.3C228.192 93.3 226.712 92.09 226.712 89.67C226.712 88.25 227.272 87.28 228.392 86.76C229.532 86.22 231.272 85.95 233.612 85.95ZM232.412 89.64C232.412 90.68 232.462 91.35 232.562 91.65C232.682 91.95 232.892 92.1 233.192 92.1C233.512 92.1 233.802 91.85 234.062 91.35C234.342 90.83 234.482 90.12 234.482 89.22V86.43H234.272C233.032 86.43 232.412 87.34 232.412 89.16V89.64ZM242.937 78.72H250.167V81.48C250.487 80.56 250.977 79.82 251.637 79.26C252.297 78.7 253.297 78.42 254.637 78.42C257.737 78.42 259.287 80.09 259.287 83.43V92.46H260.967V93H252.477V92.46H253.707V82.71C253.707 81.51 253.627 80.74 253.467 80.4C253.307 80.04 253.017 79.86 252.597 79.86C251.957 79.86 251.387 80.28 250.887 81.12C250.407 81.96 250.167 82.98 250.167 84.18V92.46H251.457V93H242.937V92.46H244.587V79.26H242.937V78.72Z" fill="#1C2122"/>
<path d="M76.438 114L80.218 105.6H81.754L85.546 114H83.914L80.662 106.428H81.286L78.046 114H76.438ZM78.178 112.056L78.598 110.832H83.134L83.554 112.056H78.178ZM90.1063 107.52C90.6183 107.52 91.0743 107.62 91.4743 107.82C91.8823 108.02 92.2023 108.328 92.4343 108.744C92.6663 109.152 92.7823 109.68 92.7823 110.328V114H91.2823V110.52C91.2823 109.952 91.1463 109.528 90.8743 109.248C90.6103 108.968 90.2383 108.828 89.7583 108.828C89.4063 108.828 89.0943 108.9 88.8223 109.044C88.5503 109.188 88.3383 109.404 88.1863 109.692C88.0423 109.972 87.9703 110.328 87.9703 110.76V114H86.4703V107.592H87.8983V109.32L87.6463 108.792C87.8703 108.384 88.1943 108.072 88.6183 107.856C89.0503 107.632 89.5463 107.52 90.1063 107.52ZM94.6852 114V107.592H96.1852V114H94.6852ZM95.4412 106.536C95.1612 106.536 94.9292 106.448 94.7452 106.272C94.5692 106.096 94.4812 105.884 94.4812 105.636C94.4812 105.38 94.5692 105.168 94.7452 105C94.9292 104.824 95.1612 104.736 95.4412 104.736C95.7212 104.736 95.9492 104.82 96.1252 104.988C96.3092 105.148 96.4012 105.352 96.4012 105.6C96.4012 105.864 96.3132 106.088 96.1372 106.272C95.9612 106.448 95.7292 106.536 95.4412 106.536ZM106.242 107.52C106.754 107.52 107.206 107.62 107.598 107.82C107.998 108.02 108.31 108.328 108.534 108.744C108.758 109.152 108.87 109.68 108.87 110.328V114H107.37V110.52C107.37 109.952 107.246 109.528 106.998 109.248C106.75 108.968 106.394 108.828 105.93 108.828C105.602 108.828 105.31 108.9 105.054 109.044C104.806 109.188 104.61 109.4 104.466 109.68C104.33 109.96 104.262 110.316 104.262 110.748V114H102.762V110.52C102.762 109.952 102.638 109.528 102.39 109.248C102.142 108.968 101.786 108.828 101.322 108.828C100.994 108.828 100.702 108.9 100.446 109.044C100.198 109.188 100.002 109.4 99.8579 109.68C99.7219 109.96 99.6539 110.316 99.6539 110.748V114H98.1539V107.592H99.5819V109.296L99.3299 108.792C99.5459 108.376 99.8579 108.06 100.266 107.844C100.682 107.628 101.154 107.52 101.682 107.52C102.282 107.52 102.802 107.668 103.242 107.964C103.69 108.26 103.986 108.708 104.13 109.308L103.542 109.104C103.75 108.624 104.094 108.24 104.574 107.952C105.054 107.664 105.61 107.52 106.242 107.52ZM114.735 114V112.704L114.651 112.428V110.16C114.651 109.72 114.519 109.38 114.255 109.14C113.991 108.892 113.591 108.768 113.055 108.768C112.695 108.768 112.339 108.824 111.987 108.936C111.643 109.048 111.351 109.204 111.111 109.404L110.523 108.312C110.867 108.048 111.275 107.852 111.747 107.724C112.227 107.588 112.723 107.52 113.235 107.52C114.163 107.52 114.879 107.744 115.383 108.192C115.895 108.632 116.151 109.316 116.151 110.244V114H114.735ZM112.719 114.084C112.239 114.084 111.819 114.004 111.459 113.844C111.099 113.676 110.819 113.448 110.619 113.16C110.427 112.864 110.331 112.532 110.331 112.164C110.331 111.804 110.415 111.48 110.583 111.192C110.759 110.904 111.043 110.676 111.435 110.508C111.827 110.34 112.347 110.256 112.995 110.256H114.855V111.252H113.103C112.591 111.252 112.247 111.336 112.071 111.504C111.895 111.664 111.807 111.864 111.807 112.104C111.807 112.376 111.915 112.592 112.131 112.752C112.347 112.912 112.647 112.992 113.031 112.992C113.399 112.992 113.727 112.908 114.015 112.74C114.311 112.572 114.523 112.324 114.651 111.996L114.903 112.896C114.759 113.272 114.499 113.564 114.123 113.772C113.755 113.98 113.287 114.084 112.719 114.084ZM120.488 114.084C119.784 114.084 119.24 113.904 118.856 113.544C118.472 113.176 118.28 112.636 118.28 111.924V106.176H119.78V111.888C119.78 112.192 119.856 112.428 120.008 112.596C120.168 112.764 120.388 112.848 120.668 112.848C121.004 112.848 121.284 112.76 121.508 112.584L121.928 113.652C121.752 113.796 121.536 113.904 121.28 113.976C121.024 114.048 120.76 114.084 120.488 114.084ZM117.224 108.84V107.64H121.496V108.84H117.224ZM123.162 114V107.592H124.662V114H123.162ZM123.918 106.536C123.638 106.536 123.406 106.448 123.222 106.272C123.046 106.096 122.958 105.884 122.958 105.636C122.958 105.38 123.046 105.168 123.222 105C123.406 104.824 123.638 104.736 123.918 104.736C124.198 104.736 124.426 104.82 124.602 104.988C124.786 105.148 124.878 105.352 124.878 105.6C124.878 105.864 124.79 106.088 124.614 106.272C124.438 106.448 124.206 106.536 123.918 106.536ZM129.51 114.084C128.854 114.084 128.27 113.944 127.758 113.664C127.246 113.376 126.842 112.984 126.546 112.488C126.25 111.992 126.102 111.428 126.102 110.796C126.102 110.156 126.25 109.592 126.546 109.104C126.842 108.608 127.246 108.22 127.758 107.94C128.27 107.66 128.854 107.52 129.51 107.52C130.174 107.52 130.762 107.66 131.274 107.94C131.794 108.22 132.198 108.604 132.486 109.092C132.782 109.58 132.93 110.148 132.93 110.796C132.93 111.428 132.782 111.992 132.486 112.488C132.198 112.984 131.794 113.376 131.274 113.664C130.762 113.944 130.174 114.084 129.51 114.084ZM129.51 112.8C129.878 112.8 130.206 112.72 130.494 112.56C130.782 112.4 131.006 112.168 131.166 111.864C131.334 111.56 131.418 111.204 131.418 110.796C131.418 110.38 131.334 110.024 131.166 109.728C131.006 109.424 130.782 109.192 130.494 109.032C130.206 108.872 129.882 108.792 129.522 108.792C129.154 108.792 128.826 108.872 128.538 109.032C128.258 109.192 128.034 109.424 127.866 109.728C127.698 110.024 127.614 110.38 127.614 110.796C127.614 111.204 127.698 111.56 127.866 111.864C128.034 112.168 128.258 112.4 128.538 112.56C128.826 112.72 129.15 112.8 129.51 112.8ZM138.001 107.52C138.513 107.52 138.969 107.62 139.369 107.82C139.777 108.02 140.097 108.328 140.329 108.744C140.561 109.152 140.677 109.68 140.677 110.328V114H139.177V110.52C139.177 109.952 139.041 109.528 138.769 109.248C138.505 108.968 138.133 108.828 137.653 108.828C137.301 108.828 136.989 108.9 136.717 109.044C136.445 109.188 136.233 109.404 136.081 109.692C135.937 109.972 135.865 110.328 135.865 110.76V114H134.365V107.592H135.793V109.32L135.541 108.792C135.765 108.384 136.089 108.072 136.513 107.856C136.945 107.632 137.441 107.52 138.001 107.52ZM148.464 114.12C147.88 114.12 147.356 114.024 146.892 113.832C146.428 113.64 146.064 113.376 145.8 113.04C145.536 112.704 145.404 112.316 145.404 111.876C145.404 111.476 145.492 111.116 145.668 110.796C145.844 110.476 146.124 110.172 146.508 109.884C146.892 109.588 147.384 109.292 147.984 108.996C148.456 108.764 148.824 108.56 149.088 108.384C149.36 108.208 149.548 108.04 149.652 107.88C149.764 107.72 149.82 107.552 149.82 107.376C149.82 107.136 149.736 106.944 149.568 106.8C149.4 106.648 149.16 106.572 148.848 106.572C148.512 106.572 148.248 106.656 148.056 106.824C147.872 106.984 147.78 107.196 147.78 107.46C147.78 107.596 147.804 107.728 147.852 107.856C147.908 107.984 148.004 108.128 148.14 108.288C148.276 108.448 148.472 108.652 148.728 108.9L153.168 113.16L152.34 114.132L147.54 109.524C147.268 109.26 147.048 109.016 146.88 108.792C146.712 108.568 146.592 108.352 146.52 108.144C146.448 107.928 146.412 107.708 146.412 107.484C146.412 107.092 146.512 106.748 146.712 106.452C146.912 106.148 147.196 105.916 147.564 105.756C147.932 105.588 148.36 105.504 148.848 105.504C149.304 105.504 149.696 105.58 150.024 105.732C150.36 105.876 150.62 106.088 150.804 106.368C150.996 106.64 151.092 106.968 151.092 107.352C151.092 107.688 151.008 108 150.84 108.288C150.672 108.568 150.408 108.836 150.048 109.092C149.696 109.348 149.224 109.616 148.632 109.896C148.192 110.112 147.844 110.316 147.588 110.508C147.332 110.7 147.148 110.892 147.036 111.084C146.924 111.276 146.868 111.488 146.868 111.72C146.868 111.952 146.936 112.156 147.072 112.332C147.216 112.508 147.416 112.648 147.672 112.752C147.928 112.848 148.228 112.896 148.572 112.896C149.084 112.896 149.548 112.784 149.964 112.56C150.388 112.328 150.744 111.984 151.032 111.528C151.32 111.072 151.528 110.508 151.656 109.836L152.868 110.232C152.7 111.04 152.408 111.736 151.992 112.32C151.584 112.896 151.08 113.34 150.48 113.652C149.88 113.964 149.208 114.12 148.464 114.12ZM160.433 114.12C159.777 114.12 159.149 114.028 158.549 113.844C157.949 113.652 157.473 113.408 157.121 113.112L157.661 111.9C157.997 112.164 158.413 112.384 158.909 112.56C159.405 112.736 159.913 112.824 160.433 112.824C160.873 112.824 161.229 112.776 161.501 112.68C161.773 112.584 161.973 112.456 162.101 112.296C162.229 112.128 162.293 111.94 162.293 111.732C162.293 111.476 162.201 111.272 162.017 111.12C161.833 110.96 161.593 110.836 161.297 110.748C161.009 110.652 160.685 110.564 160.325 110.484C159.973 110.404 159.617 110.312 159.257 110.208C158.905 110.096 158.581 109.956 158.285 109.788C157.997 109.612 157.761 109.38 157.577 109.092C157.393 108.804 157.301 108.436 157.301 107.988C157.301 107.532 157.421 107.116 157.661 106.74C157.909 106.356 158.281 106.052 158.777 105.828C159.281 105.596 159.917 105.48 160.685 105.48C161.189 105.48 161.689 105.544 162.185 105.672C162.681 105.8 163.113 105.984 163.481 106.224L162.989 107.436C162.613 107.212 162.225 107.048 161.825 106.944C161.425 106.832 161.041 106.776 160.673 106.776C160.241 106.776 159.889 106.828 159.617 106.932C159.353 107.036 159.157 107.172 159.029 107.34C158.909 107.508 158.849 107.7 158.849 107.916C158.849 108.172 158.937 108.38 159.113 108.54C159.297 108.692 159.533 108.812 159.821 108.9C160.117 108.988 160.445 109.076 160.805 109.164C161.165 109.244 161.521 109.336 161.873 109.44C162.233 109.544 162.557 109.68 162.845 109.848C163.141 110.016 163.377 110.244 163.553 110.532C163.737 110.82 163.829 111.184 163.829 111.624C163.829 112.072 163.705 112.488 163.457 112.872C163.217 113.248 162.845 113.552 162.341 113.784C161.837 114.008 161.201 114.12 160.433 114.12ZM168.112 114.084C167.456 114.084 166.872 113.944 166.36 113.664C165.848 113.376 165.444 112.984 165.148 112.488C164.852 111.992 164.704 111.428 164.704 110.796C164.704 110.156 164.852 109.592 165.148 109.104C165.444 108.608 165.848 108.22 166.36 107.94C166.872 107.66 167.456 107.52 168.112 107.52C168.776 107.52 169.364 107.66 169.876 107.94C170.396 108.22 170.8 108.604 171.088 109.092C171.384 109.58 171.532 110.148 171.532 110.796C171.532 111.428 171.384 111.992 171.088 112.488C170.8 112.984 170.396 113.376 169.876 113.664C169.364 113.944 168.776 114.084 168.112 114.084ZM168.112 112.8C168.48 112.8 168.808 112.72 169.096 112.56C169.384 112.4 169.608 112.168 169.768 111.864C169.936 111.56 170.02 111.204 170.02 110.796C170.02 110.38 169.936 110.024 169.768 109.728C169.608 109.424 169.384 109.192 169.096 109.032C168.808 108.872 168.484 108.792 168.124 108.792C167.756 108.792 167.428 108.872 167.14 109.032C166.86 109.192 166.636 109.424 166.468 109.728C166.3 110.024 166.216 110.38 166.216 110.796C166.216 111.204 166.3 111.56 166.468 111.864C166.636 112.168 166.86 112.4 167.14 112.56C167.428 112.72 167.752 112.8 168.112 112.8ZM175.678 114.084C175.134 114.084 174.654 113.984 174.238 113.784C173.822 113.576 173.498 113.264 173.266 112.848C173.034 112.424 172.918 111.892 172.918 111.252V107.592H174.418V111.048C174.418 111.624 174.546 112.056 174.802 112.344C175.066 112.624 175.438 112.764 175.918 112.764C176.27 112.764 176.574 112.692 176.83 112.548C177.094 112.404 177.298 112.188 177.442 111.9C177.594 111.612 177.67 111.256 177.67 110.832V107.592H179.17V114H177.742V112.272L177.994 112.8C177.778 113.216 177.462 113.536 177.046 113.76C176.63 113.976 176.174 114.084 175.678 114.084ZM184.77 107.52C185.282 107.52 185.738 107.62 186.138 107.82C186.546 108.02 186.866 108.328 187.098 108.744C187.33 109.152 187.446 109.68 187.446 110.328V114H185.946V110.52C185.946 109.952 185.81 109.528 185.538 109.248C185.274 108.968 184.902 108.828 184.422 108.828C184.07 108.828 183.758 108.9 183.486 109.044C183.214 109.188 183.002 109.404 182.85 109.692C182.706 109.972 182.634 110.328 182.634 110.76V114H181.134V107.592H182.562V109.32L182.31 108.792C182.534 108.384 182.858 108.072 183.282 107.856C183.714 107.632 184.21 107.52 184.77 107.52ZM192.073 114.084C191.457 114.084 190.901 113.948 190.405 113.676C189.917 113.396 189.533 113.012 189.253 112.524C188.973 112.036 188.833 111.46 188.833 110.796C188.833 110.132 188.973 109.556 189.253 109.068C189.533 108.58 189.917 108.2 190.405 107.928C190.901 107.656 191.457 107.52 192.073 107.52C192.609 107.52 193.089 107.64 193.513 107.88C193.937 108.112 194.273 108.468 194.521 108.948C194.769 109.428 194.893 110.044 194.893 110.796C194.893 111.54 194.773 112.156 194.533 112.644C194.293 113.124 193.961 113.484 193.537 113.724C193.113 113.964 192.625 114.084 192.073 114.084ZM192.253 112.8C192.613 112.8 192.933 112.72 193.213 112.56C193.501 112.4 193.729 112.168 193.897 111.864C194.073 111.56 194.161 111.204 194.161 110.796C194.161 110.38 194.073 110.024 193.897 109.728C193.729 109.424 193.501 109.192 193.213 109.032C192.933 108.872 192.613 108.792 192.253 108.792C191.893 108.792 191.569 108.872 191.281 109.032C191.001 109.192 190.773 109.424 190.597 109.728C190.429 110.024 190.345 110.38 190.345 110.796C190.345 111.204 190.429 111.56 190.597 111.864C190.773 112.168 191.001 112.4 191.281 112.56C191.569 112.72 191.893 112.8 192.253 112.8ZM194.197 114V112.488L194.257 110.784L194.137 109.08V105.096H195.625V114H194.197ZM201.06 114V105.6H204.732C205.644 105.6 206.444 105.776 207.132 106.128C207.82 106.48 208.356 106.968 208.74 107.592C209.124 108.216 209.316 108.952 209.316 109.8C209.316 110.64 209.124 111.376 208.74 112.008C208.356 112.632 207.82 113.12 207.132 113.472C206.444 113.824 205.644 114 204.732 114H201.06ZM202.62 112.68H204.66C205.292 112.68 205.836 112.56 206.292 112.32C206.756 112.08 207.112 111.744 207.36 111.312C207.616 110.88 207.744 110.376 207.744 109.8C207.744 109.216 207.616 108.712 207.36 108.288C207.112 107.856 206.756 107.52 206.292 107.28C205.836 107.04 205.292 106.92 204.66 106.92H202.62V112.68ZM213.842 114.084C213.13 114.084 212.506 113.944 211.97 113.664C211.442 113.376 211.03 112.984 210.734 112.488C210.446 111.992 210.302 111.428 210.302 110.796C210.302 110.156 210.442 109.592 210.722 109.104C211.01 108.608 211.402 108.22 211.898 107.94C212.402 107.66 212.974 107.52 213.614 107.52C214.238 107.52 214.794 107.656 215.282 107.928C215.77 108.2 216.154 108.584 216.434 109.08C216.714 109.576 216.854 110.16 216.854 110.832C216.854 110.896 216.85 110.968 216.842 111.048C216.842 111.128 216.838 111.204 216.83 111.276H211.49V110.28H216.038L215.45 110.592C215.458 110.224 215.382 109.9 215.222 109.62C215.062 109.34 214.842 109.12 214.562 108.96C214.29 108.8 213.974 108.72 213.614 108.72C213.246 108.72 212.922 108.8 212.642 108.96C212.37 109.12 212.154 109.344 211.994 109.632C211.842 109.912 211.766 110.244 211.766 110.628V110.868C211.766 111.252 211.854 111.592 212.03 111.888C212.206 112.184 212.454 112.412 212.774 112.572C213.094 112.732 213.462 112.812 213.878 112.812C214.238 112.812 214.562 112.756 214.85 112.644C215.138 112.532 215.394 112.356 215.618 112.116L216.422 113.04C216.134 113.376 215.77 113.636 215.33 113.82C214.898 113.996 214.402 114.084 213.842 114.084ZM220.275 114.084C219.739 114.084 219.223 114.016 218.727 113.88C218.239 113.736 217.851 113.564 217.563 113.364L218.139 112.224C218.427 112.408 218.771 112.56 219.171 112.68C219.571 112.8 219.971 112.86 220.371 112.86C220.843 112.86 221.183 112.796 221.391 112.668C221.607 112.54 221.715 112.368 221.715 112.152C221.715 111.976 221.643 111.844 221.499 111.756C221.355 111.66 221.167 111.588 220.935 111.54C220.703 111.492 220.443 111.448 220.155 111.408C219.875 111.368 219.591 111.316 219.303 111.252C219.023 111.18 218.767 111.08 218.535 110.952C218.303 110.816 218.115 110.636 217.971 110.412C217.827 110.188 217.755 109.892 217.755 109.524C217.755 109.116 217.871 108.764 218.103 108.468C218.335 108.164 218.659 107.932 219.075 107.772C219.499 107.604 219.999 107.52 220.575 107.52C221.007 107.52 221.443 107.568 221.883 107.664C222.323 107.76 222.687 107.896 222.975 108.072L222.399 109.212C222.095 109.028 221.787 108.904 221.475 108.84C221.171 108.768 220.867 108.732 220.563 108.732C220.107 108.732 219.767 108.8 219.543 108.936C219.327 109.072 219.219 109.244 219.219 109.452C219.219 109.644 219.291 109.788 219.435 109.884C219.579 109.98 219.767 110.056 219.999 110.112C220.231 110.168 220.487 110.216 220.767 110.256C221.055 110.288 221.339 110.34 221.619 110.412C221.899 110.484 222.155 110.584 222.387 110.712C222.627 110.832 222.819 111.004 222.963 111.228C223.107 111.452 223.179 111.744 223.179 112.104C223.179 112.504 223.059 112.852 222.819 113.148C222.587 113.444 222.255 113.676 221.823 113.844C221.391 114.004 220.875 114.084 220.275 114.084ZM224.47 114V107.592H225.97V114H224.47ZM225.226 106.536C224.946 106.536 224.714 106.448 224.53 106.272C224.354 106.096 224.266 105.884 224.266 105.636C224.266 105.38 224.354 105.168 224.53 105C224.714 104.824 224.946 104.736 225.226 104.736C225.506 104.736 225.734 104.82 225.91 104.988C226.094 105.148 226.186 105.352 226.186 105.6C226.186 105.864 226.098 106.088 225.922 106.272C225.746 106.448 225.514 106.536 225.226 106.536ZM230.843 116.412C230.251 116.412 229.671 116.332 229.103 116.172C228.543 116.02 228.083 115.796 227.723 115.5L228.395 114.372C228.675 114.604 229.027 114.788 229.451 114.924C229.883 115.068 230.319 115.14 230.759 115.14C231.463 115.14 231.979 114.976 232.307 114.648C232.635 114.328 232.799 113.844 232.799 113.196V112.056L232.919 110.604L232.871 109.152V107.592H234.299V113.028C234.299 114.188 234.003 115.04 233.411 115.584C232.819 116.136 231.963 116.412 230.843 116.412ZM230.651 113.712C230.043 113.712 229.491 113.584 228.995 113.328C228.507 113.064 228.119 112.7 227.831 112.236C227.551 111.772 227.411 111.228 227.411 110.604C227.411 109.988 227.551 109.448 227.831 108.984C228.119 108.52 228.507 108.16 228.995 107.904C229.491 107.648 230.043 107.52 230.651 107.52C231.195 107.52 231.683 107.628 232.115 107.844C232.547 108.06 232.891 108.396 233.147 108.852C233.411 109.308 233.543 109.892 233.543 110.604C233.543 111.316 233.411 111.904 233.147 112.368C232.891 112.824 232.547 113.164 232.115 113.388C231.683 113.604 231.195 113.712 230.651 113.712ZM230.879 112.44C231.255 112.44 231.591 112.364 231.887 112.212C232.183 112.052 232.411 111.836 232.571 111.564C232.739 111.284 232.823 110.964 232.823 110.604C232.823 110.244 232.739 109.928 232.571 109.656C232.411 109.376 232.183 109.164 231.887 109.02C231.591 108.868 231.255 108.792 230.879 108.792C230.503 108.792 230.163 108.868 229.859 109.02C229.563 109.164 229.331 109.376 229.163 109.656C229.003 109.928 228.923 110.244 228.923 110.604C228.923 110.964 229.003 111.284 229.163 111.564C229.331 111.836 229.563 112.052 229.859 112.212C230.163 112.364 230.503 112.44 230.879 112.44ZM239.907 107.52C240.419 107.52 240.875 107.62 241.275 107.82C241.683 108.02 242.003 108.328 242.235 108.744C242.467 109.152 242.583 109.68 242.583 110.328V114H241.083V110.52C241.083 109.952 240.947 109.528 240.675 109.248C240.411 108.968 240.039 108.828 239.559 108.828C239.207 108.828 238.895 108.9 238.623 109.044C238.351 109.188 238.139 109.404 237.987 109.692C237.843 109.972 237.771 110.328 237.771 110.76V114H236.271V107.592H237.699V109.32L237.447 108.792C237.671 108.384 237.995 108.072 238.419 107.856C238.851 107.632 239.347 107.52 239.907 107.52Z" fill="white"/>
</svg>
