<svg width="320" height="320" viewBox="0 0 320 320" fill="none" xmlns="http://www.w3.org/2000/svg">
<circle cx="160" cy="160" r="160" fill="#ECA829"/>
<path d="M116.297 38H124.307V38.57H122.657V58.43H124.307V59H115.157V58.43H116.807V39.68H116.687L112.187 59H108.437L103.157 39.59H103.037V58.43H104.687V59H100.607V58.43H102.257V38.57H100.607V38H108.707L112.697 53.45L116.297 38ZM132.553 51.95H133.423V49.64C133.423 47.74 133.313 46.47 133.093 45.83C132.893 45.17 132.493 44.84 131.893 44.84C131.533 44.84 131.203 44.94 130.903 45.14C130.623 45.32 130.483 45.58 130.483 45.92C130.483 46.24 130.543 46.57 130.663 46.91H131.413C131.573 47.33 131.653 47.84 131.653 48.44C131.653 49.02 131.403 49.53 130.903 49.97C130.403 50.39 129.773 50.6 129.013 50.6C127.293 50.6 126.433 49.77 126.433 48.11C126.433 45.65 128.523 44.42 132.703 44.42C135.083 44.42 136.723 44.83 137.623 45.65C138.543 46.45 139.003 47.93 139.003 50.09V56.18C139.003 57.22 139.293 57.74 139.873 57.74C140.553 57.74 140.953 56.71 141.073 54.65L141.523 54.68C141.443 56.44 141.113 57.65 140.533 58.31C139.953 58.97 139.003 59.3 137.683 59.3C135.283 59.3 133.903 58.56 133.543 57.08C133.283 57.84 132.893 58.4 132.373 58.76C131.853 59.12 131.093 59.3 130.093 59.3C127.133 59.3 125.653 58.09 125.653 55.67C125.653 54.25 126.213 53.28 127.333 52.76C128.473 52.22 130.213 51.95 132.553 51.95ZM131.353 55.64C131.353 56.68 131.403 57.35 131.503 57.65C131.623 57.95 131.833 58.1 132.133 58.1C132.453 58.1 132.743 57.85 133.003 57.35C133.283 56.83 133.423 56.12 133.423 55.22V52.43H133.213C131.973 52.43 131.353 53.34 131.353 55.16V55.64ZM151.838 45.56C151.098 45.56 150.448 46.04 149.888 47C149.328 47.96 149.048 49.1 149.048 50.42V58.46H151.178V59H141.818V58.46H143.468V45.26H141.818V44.72H149.048V47.6C149.308 46.58 149.808 45.8 150.548 45.26C151.288 44.7 152.128 44.42 153.068 44.42C154.008 44.42 154.768 44.69 155.348 45.23C155.948 45.75 156.248 46.5 156.248 47.48C156.248 48.44 156.028 49.18 155.588 49.7C155.148 50.22 154.468 50.48 153.548 50.48C152.648 50.48 151.978 50.18 151.538 49.58C151.118 48.98 151.068 48.15 151.388 47.09H152.468C152.968 46.07 152.758 45.56 151.838 45.56ZM168.408 43.16L169.248 42.65C169.368 42.03 169.128 41.72 168.528 41.72C167.668 41.72 167.238 42.38 167.238 43.7C167.238 44.22 167.308 44.82 167.448 45.5C168.968 46.52 169.728 47.83 169.728 49.43C169.728 51.01 169.178 52.24 168.078 53.12C166.978 54 165.488 54.44 163.608 54.44C162.828 54.44 162.018 54.36 161.178 54.2C160.298 54.76 159.858 55.18 159.858 55.46C159.858 55.74 160.498 55.88 161.778 55.88H164.838C169.378 55.88 171.648 57.51 171.648 60.77C171.648 62.53 170.958 63.92 169.578 64.94C168.218 65.98 166.088 66.5 163.188 66.5C158.248 66.5 155.778 65.43 155.778 63.29C155.778 62.13 156.548 61.33 158.088 60.89L159.888 61.7C159.728 62.28 159.648 62.83 159.648 63.35C159.648 65.07 160.928 65.93 163.488 65.93C165.048 65.93 166.248 65.64 167.088 65.06C167.928 64.48 168.348 63.76 168.348 62.9C168.348 62.04 168.088 61.46 167.568 61.16C167.068 60.88 166.058 60.74 164.538 60.74H161.628C160.008 60.74 158.848 60.47 158.148 59.93C157.448 59.39 157.098 58.73 157.098 57.95C157.098 57.15 157.348 56.49 157.848 55.97C158.348 55.43 159.238 54.77 160.518 53.99C158.198 53.33 157.038 51.81 157.038 49.43C157.038 47.93 157.578 46.72 158.658 45.8C159.738 44.88 161.358 44.42 163.518 44.42C164.818 44.42 165.928 44.67 166.848 45.17C166.728 44.63 166.668 44.14 166.668 43.7C166.668 42.58 166.968 41.77 167.568 41.27C168.168 40.77 168.838 40.52 169.578 40.52C170.318 40.52 170.908 40.72 171.348 41.12C171.808 41.5 172.038 42.03 172.038 42.71C172.038 43.39 171.858 43.9 171.498 44.24C171.138 44.56 170.698 44.72 170.178 44.72C169.678 44.72 169.258 44.59 168.918 44.33C168.598 44.05 168.428 43.66 168.408 43.16ZM162.048 48.77V50.39C162.048 51.73 162.158 52.64 162.378 53.12C162.618 53.6 162.968 53.84 163.428 53.84C163.908 53.84 164.248 53.61 164.448 53.15C164.668 52.67 164.778 51.7 164.778 50.24V48.77C164.778 47.21 164.678 46.19 164.478 45.71C164.278 45.21 163.938 44.96 163.458 44.96C162.998 44.96 162.648 45.22 162.408 45.74C162.168 46.24 162.048 47.25 162.048 48.77ZM180.834 53.09V50.54C180.834 48.6 180.724 47.19 180.504 46.31C180.304 45.41 179.824 44.96 179.064 44.96C178.624 44.96 178.264 45.09 177.984 45.35C177.724 45.59 177.534 46 177.414 46.58C177.234 47.48 177.144 48.85 177.144 50.69V53.03C177.144 55.21 177.204 56.52 177.324 56.96C177.464 57.4 177.604 57.76 177.744 58.04C177.964 58.52 178.394 58.76 179.034 58.76C179.814 58.76 180.324 58.31 180.564 57.41C180.744 56.77 180.834 55.33 180.834 53.09ZM178.974 59.3C176.474 59.3 174.584 58.66 173.304 57.38C172.024 56.1 171.384 54.27 171.384 51.89C171.384 49.49 172.064 47.65 173.424 46.37C174.804 45.07 176.734 44.42 179.214 44.42C181.694 44.42 183.544 45.02 184.764 46.22C185.984 47.4 186.594 49.21 186.594 51.65C186.594 56.75 184.054 59.3 178.974 59.3ZM188.933 54.71V45.26H187.283V44.72H188.933V40.85L194.513 39.47V44.72H198.413V45.26H194.513V55.37C194.513 56.31 194.603 57 194.783 57.44C194.983 57.88 195.383 58.1 195.983 58.1C196.583 58.1 197.103 57.8 197.543 57.2C198.003 56.6 198.303 55.78 198.443 54.74L198.953 54.8C198.793 56.18 198.353 57.28 197.633 58.1C196.913 58.9 195.723 59.3 194.063 59.3C192.403 59.3 191.133 58.97 190.253 58.31C189.373 57.65 188.933 56.45 188.933 54.71ZM200.844 45.44L200.574 45.02C202.434 43.8 203.364 42.58 203.364 41.36C203.364 40.72 203.094 40.36 202.554 40.28L201.294 41.45C200.894 41.31 200.524 41.06 200.184 40.7C199.864 40.32 199.704 39.84 199.704 39.26C199.704 38.68 199.934 38.19 200.394 37.79C200.854 37.37 201.454 37.16 202.194 37.16C202.954 37.16 203.574 37.42 204.054 37.94C204.554 38.44 204.804 39.14 204.804 40.04C204.804 42 203.484 43.8 200.844 45.44ZM204.734 59.3V53.93H205.094C205.614 55.67 206.314 56.89 207.194 57.59C208.074 58.29 209.174 58.64 210.494 58.64C212.534 58.64 213.554 57.99 213.554 56.69C213.554 56.13 213.304 55.71 212.804 55.43C212.024 54.99 211.024 54.65 209.804 54.41C208.444 54.05 207.304 53.57 206.384 52.97C205.284 52.25 204.734 51.11 204.734 49.55C204.734 47.99 205.214 46.75 206.174 45.83C207.134 44.89 208.414 44.42 210.014 44.42C210.994 44.42 212.004 44.65 213.044 45.11C213.424 45.27 213.714 45.35 213.914 45.35C214.114 45.35 214.284 45.28 214.424 45.14C214.564 45 214.734 44.74 214.934 44.36H215.264V48.95H214.904C213.884 46.35 212.304 45.05 210.164 45.05C209.224 45.05 208.524 45.22 208.064 45.56C207.604 45.88 207.374 46.29 207.374 46.79C207.374 47.09 207.444 47.33 207.584 47.51C207.724 47.67 207.834 47.79 207.914 47.87C207.994 47.95 208.124 48.04 208.304 48.14C208.484 48.22 208.634 48.29 208.754 48.35C208.874 48.39 209.054 48.45 209.294 48.53C209.554 48.61 209.744 48.66 209.864 48.68C211.224 49.02 212.204 49.32 212.804 49.58C213.404 49.82 213.974 50.12 214.514 50.48C215.614 51.24 216.164 52.47 216.164 54.17C216.164 55.85 215.664 57.13 214.664 58.01C213.664 58.87 212.294 59.3 210.554 59.3C209.314 59.3 208.114 59.01 206.954 58.43C206.714 58.27 206.524 58.19 206.384 58.19C205.944 58.19 205.514 58.56 205.094 59.3H204.734ZM61.5665 72H70.5365C73.3165 72 75.3965 72.38 76.7765 73.14C78.1765 73.88 78.8765 75.14 78.8765 76.92C78.8765 79.66 77.2265 81.3 73.9265 81.84V81.9C77.9265 82.4 79.9265 84.14 79.9265 87.12C79.9265 89.3 79.1065 90.83 77.4665 91.71C75.8265 92.57 73.4665 93 70.3865 93H61.5665V92.43H63.5165V72.57H61.5665V72ZM69.3665 82.38V92.43H70.7765C71.8765 92.43 72.6465 92.05 73.0865 91.29C73.5265 90.53 73.7465 89.41 73.7465 87.93V86.34C73.7465 85.02 73.4765 84.03 72.9365 83.37C72.3965 82.71 71.4365 82.38 70.0565 82.38H69.3665ZM69.3665 72.57V81.81H70.1465C71.1865 81.81 71.9065 81.5 72.3065 80.88C72.7265 80.24 72.9365 79.27 72.9365 77.97V76.56C72.9365 75.08 72.7565 74.05 72.3965 73.47C72.0365 72.87 71.3465 72.57 70.3265 72.57H69.3665ZM98.5619 93H91.7219L91.3919 90.81C91.0719 91.61 90.5919 92.23 89.9519 92.67C89.3319 93.09 88.4019 93.3 87.1619 93.3C84.0619 93.3 82.5119 91.63 82.5119 88.29V79.26H80.8319V78.72H88.0919V89.01C88.0919 90.21 88.1719 91 88.3319 91.38C88.5119 91.76 88.8519 91.95 89.3519 91.95C89.8719 91.95 90.3319 91.64 90.7319 91.02C91.1319 90.4 91.3319 89.54 91.3319 88.44V79.26H89.9519V78.72H96.9119V92.46H98.5619V93ZM99.866 93.3V87.93H100.226C100.746 89.67 101.446 90.89 102.326 91.59C103.206 92.29 104.306 92.64 105.626 92.64C107.666 92.64 108.686 91.99 108.686 90.69C108.686 90.13 108.436 89.71 107.936 89.43C107.156 88.99 106.156 88.65 104.936 88.41C103.576 88.05 102.436 87.57 101.516 86.97C100.416 86.25 99.866 85.11 99.866 83.55C99.866 81.99 100.346 80.75 101.306 79.83C102.266 78.89 103.546 78.42 105.146 78.42C106.126 78.42 107.136 78.65 108.176 79.11C108.556 79.27 108.846 79.35 109.046 79.35C109.246 79.35 109.416 79.28 109.556 79.14C109.696 79 109.866 78.74 110.066 78.36H110.396V82.95H110.036C109.016 80.35 107.436 79.05 105.296 79.05C104.356 79.05 103.656 79.22 103.196 79.56C102.736 79.88 102.506 80.29 102.506 80.79C102.506 81.09 102.576 81.33 102.716 81.51C102.856 81.67 102.966 81.79 103.046 81.87C103.126 81.95 103.256 82.04 103.436 82.14C103.616 82.22 103.766 82.29 103.886 82.35C104.006 82.39 104.186 82.45 104.426 82.53C104.686 82.61 104.876 82.66 104.996 82.68C106.356 83.02 107.336 83.32 107.936 83.58C108.536 83.82 109.106 84.12 109.646 84.48C110.746 85.24 111.296 86.47 111.296 88.17C111.296 89.85 110.796 91.13 109.796 92.01C108.796 92.87 107.426 93.3 105.686 93.3C104.446 93.3 103.246 93.01 102.086 92.43C101.846 92.27 101.656 92.19 101.516 92.19C101.076 92.19 100.646 92.56 100.226 93.3H99.866ZM113.391 88.71V79.26H111.741V78.72H113.391V74.85L118.971 73.47V78.72H122.871V79.26H118.971V89.37C118.971 90.31 119.061 91 119.241 91.44C119.441 91.88 119.841 92.1 120.441 92.1C121.041 92.1 121.561 91.8 122.001 91.2C122.461 90.6 122.761 89.78 122.901 88.74L123.411 88.8C123.251 90.18 122.811 91.28 122.091 92.1C121.371 92.9 120.181 93.3 118.521 93.3C116.861 93.3 115.591 92.97 114.711 92.31C113.831 91.65 113.391 90.45 113.391 88.71ZM123.577 70.5H130.927V92.46H132.607V93H123.697V92.46H125.347V71.04H123.577V70.5ZM137.6 76.65C136.54 76.65 135.78 76.38 135.32 75.84C134.88 75.3 134.66 74.63 134.66 73.83C134.66 73.03 134.9 72.37 135.38 71.85C135.88 71.33 136.63 71.07 137.63 71.07C138.63 71.07 139.39 71.31 139.91 71.79C140.43 72.25 140.69 72.92 140.69 73.8C140.69 74.66 140.44 75.35 139.94 75.87C139.44 76.39 138.66 76.65 137.6 76.65ZM133.07 78.72H140.42V92.46H142.1V93H133.19V92.46H134.84V79.26H133.07V78.72ZM142.771 78.72H150.001V81.48C150.321 80.56 150.811 79.82 151.471 79.26C152.131 78.7 153.131 78.42 154.471 78.42C157.571 78.42 159.121 80.09 159.121 83.43V92.46H160.801V93H152.311V92.46H153.541V82.71C153.541 81.51 153.461 80.74 153.301 80.4C153.141 80.04 152.851 79.86 152.431 79.86C151.791 79.86 151.221 80.28 150.721 81.12C150.241 81.96 150.001 82.98 150.001 84.18V92.46H151.291V93H142.771V92.46H144.421V79.26H142.771V78.72ZM173.227 77.16L174.067 76.65C174.187 76.03 173.947 75.72 173.347 75.72C172.487 75.72 172.057 76.38 172.057 77.7C172.057 78.22 172.127 78.82 172.267 79.5C173.787 80.52 174.547 81.83 174.547 83.43C174.547 85.01 173.997 86.24 172.897 87.12C171.797 88 170.307 88.44 168.427 88.44C167.647 88.44 166.837 88.36 165.997 88.2C165.117 88.76 164.677 89.18 164.677 89.46C164.677 89.74 165.317 89.88 166.597 89.88H169.657C174.197 89.88 176.467 91.51 176.467 94.77C176.467 96.53 175.777 97.92 174.397 98.94C173.037 99.98 170.907 100.5 168.007 100.5C163.067 100.5 160.597 99.43 160.597 97.29C160.597 96.13 161.367 95.33 162.907 94.89L164.707 95.7C164.547 96.28 164.467 96.83 164.467 97.35C164.467 99.07 165.747 99.93 168.307 99.93C169.867 99.93 171.067 99.64 171.907 99.06C172.747 98.48 173.167 97.76 173.167 96.9C173.167 96.04 172.907 95.46 172.387 95.16C171.887 94.88 170.877 94.74 169.357 94.74H166.447C164.827 94.74 163.667 94.47 162.967 93.93C162.267 93.39 161.917 92.73 161.917 91.95C161.917 91.15 162.167 90.49 162.667 89.97C163.167 89.43 164.057 88.77 165.337 87.99C163.017 87.33 161.857 85.81 161.857 83.43C161.857 81.93 162.397 80.72 163.477 79.8C164.557 78.88 166.177 78.42 168.337 78.42C169.637 78.42 170.747 78.67 171.667 79.17C171.547 78.63 171.487 78.14 171.487 77.7C171.487 76.58 171.787 75.77 172.387 75.27C172.987 74.77 173.657 74.52 174.397 74.52C175.137 74.52 175.727 74.72 176.167 75.12C176.627 75.5 176.857 76.03 176.857 76.71C176.857 77.39 176.677 77.9 176.317 78.24C175.957 78.56 175.517 78.72 174.997 78.72C174.497 78.72 174.077 78.59 173.737 78.33C173.417 78.05 173.247 77.66 173.227 77.16ZM166.867 82.77V84.39C166.867 85.73 166.977 86.64 167.197 87.12C167.437 87.6 167.787 87.84 168.247 87.84C168.727 87.84 169.067 87.61 169.267 87.15C169.487 86.67 169.597 85.7 169.597 84.24V82.77C169.597 81.21 169.497 80.19 169.297 79.71C169.097 79.21 168.757 78.96 168.277 78.96C167.817 78.96 167.467 79.22 167.227 79.74C166.987 80.24 166.867 81.25 166.867 82.77ZM182.592 72H191.562C194.342 72 196.422 72.38 197.802 73.14C199.202 73.88 199.902 75.14 199.902 76.92C199.902 79.66 198.252 81.3 194.952 81.84V81.9C198.952 82.4 200.952 84.14 200.952 87.12C200.952 89.3 200.132 90.83 198.492 91.71C196.852 92.57 194.492 93 191.412 93H182.592V92.43H184.542V72.57H182.592V72ZM190.392 82.38V92.43H191.802C192.902 92.43 193.672 92.05 194.112 91.29C194.552 90.53 194.772 89.41 194.772 87.93V86.34C194.772 85.02 194.502 84.03 193.962 83.37C193.422 82.71 192.462 82.38 191.082 82.38H190.392ZM190.392 72.57V81.81H191.172C192.212 81.81 192.932 81.5 193.332 80.88C193.752 80.24 193.962 79.27 193.962 77.97V76.56C193.962 75.08 193.782 74.05 193.422 73.47C193.062 72.87 192.372 72.57 191.352 72.57H190.392ZM212.057 79.56C211.317 79.56 210.667 80.04 210.107 81C209.547 81.96 209.267 83.1 209.267 84.42V92.46H211.397V93H202.037V92.46H203.687V79.26H202.037V78.72H209.267V81.6C209.527 80.58 210.027 79.8 210.767 79.26C211.507 78.7 212.347 78.42 213.287 78.42C214.227 78.42 214.987 78.69 215.567 79.23C216.167 79.75 216.467 80.5 216.467 81.48C216.467 82.44 216.247 83.18 215.807 83.7C215.367 84.22 214.687 84.48 213.767 84.48C212.867 84.48 212.197 84.18 211.757 83.58C211.337 82.98 211.287 82.15 211.607 81.09H212.687C213.187 80.07 212.977 79.56 212.057 79.56ZM221.301 76.65C220.241 76.65 219.481 76.38 219.021 75.84C218.581 75.3 218.361 74.63 218.361 73.83C218.361 73.03 218.601 72.37 219.081 71.85C219.581 71.33 220.331 71.07 221.331 71.07C222.331 71.07 223.091 71.31 223.611 71.79C224.131 72.25 224.391 72.92 224.391 73.8C224.391 74.66 224.141 75.35 223.641 75.87C223.141 76.39 222.361 76.65 221.301 76.65ZM216.771 78.72H224.121V92.46H225.801V93H216.891V92.46H218.541V79.26H216.771V78.72ZM233.612 85.95H234.482V83.64C234.482 81.74 234.372 80.47 234.152 79.83C233.952 79.17 233.552 78.84 232.952 78.84C232.592 78.84 232.262 78.94 231.962 79.14C231.682 79.32 231.542 79.58 231.542 79.92C231.542 80.24 231.602 80.57 231.722 80.91H232.472C232.632 81.33 232.712 81.84 232.712 82.44C232.712 83.02 232.462 83.53 231.962 83.97C231.462 84.39 230.832 84.6 230.072 84.6C228.352 84.6 227.492 83.77 227.492 82.11C227.492 79.65 229.582 78.42 233.762 78.42C236.142 78.42 237.782 78.83 238.682 79.65C239.602 80.45 240.062 81.93 240.062 84.09V90.18C240.062 91.22 240.352 91.74 240.932 91.74C241.612 91.74 242.012 90.71 242.132 88.65L242.582 88.68C242.502 90.44 242.172 91.65 241.592 92.31C241.012 92.97 240.062 93.3 238.742 93.3C236.342 93.3 234.962 92.56 234.602 91.08C234.342 91.84 233.952 92.4 233.432 92.76C232.912 93.12 232.152 93.3 231.152 93.3C228.192 93.3 226.712 92.09 226.712 89.67C226.712 88.25 227.272 87.28 228.392 86.76C229.532 86.22 231.272 85.95 233.612 85.95ZM232.412 89.64C232.412 90.68 232.462 91.35 232.562 91.65C232.682 91.95 232.892 92.1 233.192 92.1C233.512 92.1 233.802 91.85 234.062 91.35C234.342 90.83 234.482 90.12 234.482 89.22V86.43H234.272C233.032 86.43 232.412 87.34 232.412 89.16V89.64ZM242.937 78.72H250.167V81.48C250.487 80.56 250.977 79.82 251.637 79.26C252.297 78.7 253.297 78.42 254.637 78.42C257.737 78.42 259.287 80.09 259.287 83.43V92.46H260.967V93H252.477V92.46H253.707V82.71C253.707 81.51 253.627 80.74 253.467 80.4C253.307 80.04 253.017 79.86 252.597 79.86C251.957 79.86 251.387 80.28 250.887 81.12C250.407 81.96 250.167 82.98 250.167 84.18V92.46H251.457V93H242.937V92.46H244.587V79.26H242.937V78.72Z" fill="#1C2122"/>
<path d="M76.7987 112C76.5747 112 76.4027 111.904 76.2827 111.712C76.1627 111.52 76.1507 111.316 76.2467 111.1L79.6187 103.048C79.7387 102.768 79.9347 102.628 80.2067 102.628C80.4947 102.628 80.6907 102.768 80.7947 103.048L84.1787 111.124C84.2667 111.348 84.2507 111.552 84.1307 111.736C84.0187 111.912 83.8467 112 83.6147 112C83.4947 112 83.3787 111.968 83.2667 111.904C83.1627 111.832 83.0867 111.736 83.0387 111.616L80.0627 104.224H80.3987L77.3747 111.616C77.3187 111.744 77.2347 111.84 77.1227 111.904C77.0187 111.968 76.9107 112 76.7987 112ZM77.4347 109.936L77.9147 108.904H82.6187L83.0987 109.936H77.4347ZM91.0322 112.012C90.8562 112.012 90.7082 111.956 90.5882 111.844C90.4762 111.724 90.4202 111.576 90.4202 111.4V108.448C90.4202 107.992 90.3362 107.62 90.1682 107.332C90.0002 107.044 89.7722 106.832 89.4842 106.696C89.2042 106.552 88.8802 106.48 88.5122 106.48C88.1762 106.48 87.8722 106.548 87.6002 106.684C87.3282 106.82 87.1122 107.004 86.9522 107.236C86.7922 107.46 86.7122 107.72 86.7122 108.016H85.9562C85.9562 107.512 86.0762 107.064 86.3162 106.672C86.5642 106.272 86.9002 105.956 87.3242 105.724C87.7482 105.492 88.2242 105.376 88.7522 105.376C89.3042 105.376 89.7962 105.496 90.2282 105.736C90.6682 105.968 91.0122 106.312 91.2602 106.768C91.5162 107.224 91.6442 107.784 91.6442 108.448V111.4C91.6442 111.576 91.5842 111.724 91.4642 111.844C91.3522 111.956 91.2082 112.012 91.0322 112.012ZM86.1002 112.012C85.9242 112.012 85.7762 111.956 85.6562 111.844C85.5442 111.724 85.4882 111.576 85.4882 111.4V106.048C85.4882 105.864 85.5442 105.716 85.6562 105.604C85.7762 105.492 85.9242 105.436 86.1002 105.436C86.2842 105.436 86.4322 105.492 86.5442 105.604C86.6562 105.716 86.7122 105.864 86.7122 106.048V111.4C86.7122 111.576 86.6562 111.724 86.5442 111.844C86.4322 111.956 86.2842 112.012 86.1002 112.012ZM94.3999 112C94.2239 112 94.0759 111.944 93.9559 111.832C93.8439 111.712 93.7879 111.564 93.7879 111.388V106.048C93.7879 105.864 93.8439 105.716 93.9559 105.604C94.0759 105.492 94.2239 105.436 94.3999 105.436C94.5839 105.436 94.7319 105.492 94.8439 105.604C94.9559 105.716 95.0119 105.864 95.0119 106.048V111.388C95.0119 111.564 94.9559 111.712 94.8439 111.832C94.7319 111.944 94.5839 112 94.3999 112ZM94.3999 104.368C94.1839 104.368 93.9959 104.292 93.8359 104.14C93.6839 103.98 93.6079 103.792 93.6079 103.576C93.6079 103.36 93.6839 103.176 93.8359 103.024C93.9959 102.864 94.1839 102.784 94.3999 102.784C94.6159 102.784 94.7999 102.864 94.9519 103.024C95.1119 103.176 95.1919 103.36 95.1919 103.576C95.1919 103.792 95.1119 103.98 94.9519 104.14C94.7999 104.292 94.6159 104.368 94.3999 104.368ZM105.905 112.012C105.729 112.012 105.581 111.956 105.461 111.844C105.349 111.724 105.293 111.576 105.293 111.4V107.968C105.293 107.464 105.169 107.092 104.921 106.852C104.673 106.604 104.349 106.48 103.949 106.48C103.533 106.48 103.189 106.624 102.917 106.912C102.653 107.2 102.521 107.568 102.521 108.016H101.525C101.525 107.496 101.637 107.04 101.861 106.648C102.085 106.248 102.397 105.936 102.797 105.712C103.205 105.488 103.669 105.376 104.189 105.376C104.645 105.376 105.049 105.476 105.401 105.676C105.753 105.876 106.025 106.172 106.217 106.564C106.417 106.948 106.517 107.416 106.517 107.968V111.4C106.517 111.576 106.461 111.724 106.349 111.844C106.237 111.956 106.089 112.012 105.905 112.012ZM97.901 112.012C97.725 112.012 97.577 111.956 97.457 111.844C97.345 111.724 97.289 111.576 97.289 111.4V106.06C97.289 105.876 97.345 105.728 97.457 105.616C97.577 105.504 97.725 105.448 97.901 105.448C98.085 105.448 98.233 105.504 98.345 105.616C98.457 105.728 98.513 105.876 98.513 106.06V111.4C98.513 111.576 98.457 111.724 98.345 111.844C98.233 111.956 98.085 112.012 97.901 112.012ZM101.909 112.012C101.733 112.012 101.585 111.956 101.465 111.844C101.353 111.724 101.297 111.576 101.297 111.4V107.968C101.297 107.464 101.173 107.092 100.925 106.852C100.677 106.604 100.353 106.48 99.953 106.48C99.537 106.48 99.193 106.624 98.921 106.912C98.649 107.2 98.513 107.568 98.513 108.016H97.757C97.757 107.496 97.861 107.04 98.069 106.648C98.277 106.248 98.565 105.936 98.933 105.712C99.301 105.488 99.721 105.376 100.193 105.376C100.649 105.376 101.053 105.476 101.405 105.676C101.757 105.876 102.029 106.172 102.221 106.564C102.421 106.948 102.521 107.416 102.521 107.968V111.4C102.521 111.576 102.465 111.724 102.353 111.844C102.241 111.956 102.093 112.012 101.909 112.012ZM111.287 112.048C110.703 112.048 110.179 111.904 109.715 111.616C109.251 111.32 108.883 110.924 108.611 110.428C108.347 109.924 108.215 109.356 108.215 108.724C108.215 108.092 108.359 107.524 108.647 107.02C108.943 106.516 109.339 106.12 109.835 105.832C110.339 105.536 110.903 105.388 111.527 105.388C112.151 105.388 112.711 105.536 113.207 105.832C113.703 106.12 114.095 106.516 114.383 107.02C114.679 107.524 114.827 108.092 114.827 108.724H114.359C114.359 109.356 114.223 109.924 113.951 110.428C113.687 110.924 113.323 111.32 112.859 111.616C112.395 111.904 111.871 112.048 111.287 112.048ZM111.527 110.968C111.935 110.968 112.299 110.872 112.619 110.68C112.939 110.48 113.191 110.212 113.375 109.876C113.559 109.532 113.651 109.148 113.651 108.724C113.651 108.292 113.559 107.908 113.375 107.572C113.191 107.228 112.939 106.96 112.619 106.768C112.299 106.568 111.935 106.468 111.527 106.468C111.127 106.468 110.763 106.568 110.435 106.768C110.115 106.96 109.859 107.228 109.667 107.572C109.483 107.908 109.391 108.292 109.391 108.724C109.391 109.148 109.483 109.532 109.667 109.876C109.859 110.212 110.115 110.48 110.435 110.68C110.763 110.872 111.127 110.968 111.527 110.968ZM114.215 112.012C114.039 112.012 113.891 111.956 113.771 111.844C113.659 111.724 113.603 111.576 113.603 111.4V109.564L113.831 108.292L114.827 108.724V111.4C114.827 111.576 114.767 111.724 114.647 111.844C114.535 111.956 114.391 112.012 114.215 112.012ZM119.036 112C118.636 112 118.276 111.9 117.956 111.7C117.636 111.492 117.384 111.212 117.2 110.86C117.016 110.508 116.924 110.112 116.924 109.672V103.948C116.924 103.772 116.98 103.628 117.092 103.516C117.204 103.404 117.348 103.348 117.524 103.348C117.7 103.348 117.844 103.404 117.956 103.516C118.068 103.628 118.124 103.772 118.124 103.948V109.672C118.124 109.992 118.212 110.26 118.388 110.476C118.564 110.692 118.78 110.8 119.036 110.8H119.444C119.588 110.8 119.708 110.856 119.804 110.968C119.908 111.08 119.96 111.224 119.96 111.4C119.96 111.576 119.892 111.72 119.756 111.832C119.628 111.944 119.46 112 119.252 112H119.036ZM116.372 106.708C116.204 106.708 116.068 106.66 115.964 106.564C115.86 106.468 115.808 106.348 115.808 106.204C115.808 106.044 115.86 105.916 115.964 105.82C116.068 105.724 116.204 105.676 116.372 105.676H119.144C119.312 105.676 119.448 105.724 119.552 105.82C119.656 105.916 119.708 106.044 119.708 106.204C119.708 106.348 119.656 106.468 119.552 106.564C119.448 106.66 119.312 106.708 119.144 106.708H116.372ZM122.197 112C122.021 112 121.873 111.944 121.753 111.832C121.641 111.712 121.585 111.564 121.585 111.388V106.048C121.585 105.864 121.641 105.716 121.753 105.604C121.873 105.492 122.021 105.436 122.197 105.436C122.381 105.436 122.529 105.492 122.641 105.604C122.753 105.716 122.809 105.864 122.809 106.048V111.388C122.809 111.564 122.753 111.712 122.641 111.832C122.529 111.944 122.381 112 122.197 112ZM122.197 104.368C121.981 104.368 121.793 104.292 121.633 104.14C121.481 103.98 121.405 103.792 121.405 103.576C121.405 103.36 121.481 103.176 121.633 103.024C121.793 102.864 121.981 102.784 122.197 102.784C122.413 102.784 122.597 102.864 122.749 103.024C122.909 103.176 122.989 103.36 122.989 103.576C122.989 103.792 122.909 103.98 122.749 104.14C122.597 104.292 122.413 104.368 122.197 104.368ZM128.062 112.048C127.414 112.048 126.842 111.908 126.346 111.628C125.85 111.34 125.458 110.948 125.17 110.452C124.89 109.948 124.75 109.372 124.75 108.724C124.75 108.068 124.89 107.492 125.17 106.996C125.458 106.492 125.85 106.1 126.346 105.82C126.842 105.532 127.414 105.388 128.062 105.388C128.702 105.388 129.27 105.532 129.766 105.82C130.262 106.1 130.65 106.492 130.93 106.996C131.218 107.492 131.362 108.068 131.362 108.724C131.362 109.372 131.222 109.948 130.942 110.452C130.662 110.948 130.274 111.34 129.778 111.628C129.282 111.908 128.71 112.048 128.062 112.048ZM128.062 110.968C128.478 110.968 128.846 110.872 129.166 110.68C129.486 110.488 129.734 110.224 129.91 109.888C130.094 109.552 130.186 109.164 130.186 108.724C130.186 108.284 130.094 107.896 129.91 107.56C129.734 107.216 129.486 106.948 129.166 106.756C128.846 106.564 128.478 106.468 128.062 106.468C127.646 106.468 127.278 106.564 126.958 106.756C126.638 106.948 126.386 107.216 126.202 107.56C126.018 107.896 125.926 108.284 125.926 108.724C125.926 109.164 126.018 109.552 126.202 109.888C126.386 110.224 126.638 110.488 126.958 110.68C127.278 110.872 127.646 110.968 128.062 110.968ZM138.728 112.012C138.552 112.012 138.404 111.956 138.284 111.844C138.172 111.724 138.116 111.576 138.116 111.4V108.448C138.116 107.992 138.032 107.62 137.864 107.332C137.696 107.044 137.468 106.832 137.18 106.696C136.9 106.552 136.576 106.48 136.208 106.48C135.872 106.48 135.568 106.548 135.296 106.684C135.024 106.82 134.808 107.004 134.648 107.236C134.488 107.46 134.408 107.72 134.408 108.016H133.652C133.652 107.512 133.772 107.064 134.012 106.672C134.26 106.272 134.596 105.956 135.02 105.724C135.444 105.492 135.92 105.376 136.448 105.376C137 105.376 137.492 105.496 137.924 105.736C138.364 105.968 138.708 106.312 138.956 106.768C139.212 107.224 139.34 107.784 139.34 108.448V111.4C139.34 111.576 139.28 111.724 139.16 111.844C139.048 111.956 138.904 112.012 138.728 112.012ZM133.796 112.012C133.62 112.012 133.472 111.956 133.352 111.844C133.24 111.724 133.184 111.576 133.184 111.4V106.048C133.184 105.864 133.24 105.716 133.352 105.604C133.472 105.492 133.62 105.436 133.796 105.436C133.98 105.436 134.128 105.492 134.24 105.604C134.352 105.716 134.408 105.864 134.408 106.048V111.4C134.408 111.576 134.352 111.724 134.24 111.844C134.128 111.956 133.98 112.012 133.796 112.012ZM146.883 112.168C146.379 112.168 145.935 112.076 145.551 111.892C145.167 111.7 144.867 111.432 144.651 111.088C144.443 110.736 144.339 110.316 144.339 109.828C144.339 109.284 144.523 108.792 144.891 108.352C145.259 107.912 145.743 107.452 146.343 106.972L147.339 106.18C147.763 105.844 148.035 105.548 148.155 105.292C148.275 105.036 148.339 104.772 148.347 104.5C148.347 104.196 148.243 103.932 148.035 103.708C147.835 103.484 147.543 103.372 147.159 103.372C146.807 103.372 146.523 103.476 146.307 103.684C146.091 103.892 145.983 104.136 145.983 104.416C145.983 104.624 146.027 104.828 146.115 105.028C146.211 105.228 146.363 105.432 146.571 105.64L152.031 111.088C152.159 111.216 152.231 111.336 152.247 111.448C152.263 111.56 152.207 111.68 152.079 111.808C151.823 112.064 151.567 112.064 151.311 111.808L145.791 106.3C145.519 106.02 145.311 105.728 145.167 105.424C145.023 105.112 144.951 104.784 144.951 104.44C144.951 104.056 145.047 103.712 145.239 103.408C145.431 103.096 145.695 102.852 146.031 102.676C146.367 102.5 146.743 102.412 147.159 102.412C147.591 102.412 147.971 102.504 148.299 102.688C148.635 102.872 148.899 103.124 149.091 103.444C149.283 103.764 149.379 104.124 149.379 104.524C149.379 104.836 149.323 105.12 149.211 105.376C149.107 105.632 148.943 105.884 148.719 106.132C148.495 106.372 148.203 106.636 147.843 106.924L146.895 107.68C146.623 107.896 146.379 108.116 146.163 108.34C145.947 108.564 145.775 108.796 145.647 109.036C145.527 109.268 145.467 109.516 145.467 109.78C145.467 110.228 145.591 110.568 145.839 110.8C146.087 111.024 146.435 111.136 146.883 111.136C147.363 111.136 147.779 111.028 148.131 110.812C148.491 110.588 148.855 110.284 149.223 109.9L150.975 108.052C151.095 107.924 151.207 107.844 151.311 107.812C151.415 107.78 151.531 107.824 151.659 107.944C151.787 108.064 151.851 108.188 151.851 108.316C151.859 108.444 151.803 108.576 151.683 108.712L149.931 110.56C149.515 111.032 149.063 111.42 148.575 111.724C148.087 112.02 147.523 112.168 146.883 112.168ZM160.268 112.12C159.756 112.12 159.268 112.04 158.804 111.88C158.34 111.72 157.936 111.496 157.592 111.208C157.248 110.92 156.996 110.588 156.836 110.212C156.756 110.044 156.756 109.888 156.836 109.744C156.924 109.6 157.068 109.508 157.268 109.468C157.412 109.436 157.552 109.46 157.688 109.54C157.832 109.612 157.94 109.724 158.012 109.876C158.108 110.076 158.264 110.26 158.48 110.428C158.704 110.596 158.972 110.732 159.284 110.836C159.596 110.94 159.924 110.992 160.268 110.992C160.652 110.992 161.004 110.932 161.324 110.812C161.652 110.692 161.916 110.52 162.116 110.296C162.316 110.064 162.416 109.78 162.416 109.444C162.416 109.02 162.248 108.64 161.912 108.304C161.584 107.968 161.04 107.76 160.28 107.68C159.288 107.584 158.508 107.292 157.94 106.804C157.372 106.316 157.088 105.712 157.088 104.992C157.088 104.464 157.236 104.016 157.532 103.648C157.828 103.28 158.228 103 158.732 102.808C159.244 102.616 159.812 102.52 160.436 102.52C160.924 102.52 161.348 102.588 161.708 102.724C162.076 102.86 162.396 103.048 162.668 103.288C162.94 103.528 163.176 103.812 163.376 104.14C163.488 104.316 163.532 104.484 163.508 104.644C163.492 104.796 163.416 104.916 163.28 105.004C163.128 105.1 162.964 105.12 162.788 105.064C162.612 105.008 162.48 104.904 162.392 104.752C162.264 104.52 162.108 104.324 161.924 104.164C161.74 104.004 161.524 103.88 161.276 103.792C161.028 103.696 160.736 103.648 160.4 103.648C159.808 103.64 159.312 103.752 158.912 103.984C158.512 104.208 158.312 104.556 158.312 105.028C158.312 105.268 158.372 105.5 158.492 105.724C158.62 105.94 158.848 106.128 159.176 106.288C159.512 106.448 159.992 106.56 160.616 106.624C161.568 106.72 162.308 107.012 162.836 107.5C163.372 107.98 163.64 108.616 163.64 109.408C163.64 109.864 163.544 110.26 163.352 110.596C163.168 110.932 162.916 111.216 162.596 111.448C162.284 111.672 161.924 111.84 161.516 111.952C161.116 112.064 160.7 112.12 160.268 112.12ZM168.41 112.048C167.762 112.048 167.19 111.908 166.694 111.628C166.198 111.34 165.806 110.948 165.518 110.452C165.238 109.948 165.098 109.372 165.098 108.724C165.098 108.068 165.238 107.492 165.518 106.996C165.806 106.492 166.198 106.1 166.694 105.82C167.19 105.532 167.762 105.388 168.41 105.388C169.05 105.388 169.618 105.532 170.114 105.82C170.61 106.1 170.998 106.492 171.278 106.996C171.566 107.492 171.71 108.068 171.71 108.724C171.71 109.372 171.57 109.948 171.29 110.452C171.01 110.948 170.622 111.34 170.126 111.628C169.63 111.908 169.058 112.048 168.41 112.048ZM168.41 110.968C168.826 110.968 169.194 110.872 169.514 110.68C169.834 110.488 170.082 110.224 170.258 109.888C170.442 109.552 170.534 109.164 170.534 108.724C170.534 108.284 170.442 107.896 170.258 107.56C170.082 107.216 169.834 106.948 169.514 106.756C169.194 106.564 168.826 106.468 168.41 106.468C167.994 106.468 167.626 106.564 167.306 106.756C166.986 106.948 166.734 107.216 166.55 107.56C166.366 107.896 166.274 108.284 166.274 108.724C166.274 109.164 166.366 109.552 166.55 109.888C166.734 110.224 166.986 110.488 167.306 110.68C167.626 110.872 167.994 110.968 168.41 110.968ZM176.291 112.06C175.739 112.06 175.243 111.944 174.803 111.712C174.371 111.472 174.027 111.124 173.771 110.668C173.523 110.212 173.399 109.652 173.399 108.988V106.036C173.399 105.86 173.455 105.716 173.567 105.604C173.687 105.484 173.835 105.424 174.011 105.424C174.187 105.424 174.331 105.484 174.443 105.604C174.563 105.716 174.623 105.86 174.623 106.036V108.988C174.623 109.436 174.707 109.808 174.875 110.104C175.043 110.392 175.271 110.608 175.559 110.752C175.847 110.888 176.171 110.956 176.531 110.956C176.875 110.956 177.179 110.888 177.443 110.752C177.715 110.616 177.931 110.432 178.091 110.2C178.251 109.968 178.331 109.708 178.331 109.42H179.087C179.087 109.916 178.963 110.364 178.715 110.764C178.475 111.164 178.143 111.48 177.719 111.712C177.303 111.944 176.827 112.06 176.291 112.06ZM178.943 112C178.767 112 178.619 111.944 178.499 111.832C178.387 111.712 178.331 111.564 178.331 111.388V106.036C178.331 105.852 178.387 105.704 178.499 105.592C178.619 105.48 178.767 105.424 178.943 105.424C179.127 105.424 179.275 105.48 179.387 105.592C179.499 105.704 179.555 105.852 179.555 106.036V111.388C179.555 111.564 179.499 111.712 179.387 111.832C179.275 111.944 179.127 112 178.943 112ZM187.255 112.012C187.079 112.012 186.931 111.956 186.811 111.844C186.699 111.724 186.643 111.576 186.643 111.4V108.448C186.643 107.992 186.559 107.62 186.391 107.332C186.223 107.044 185.995 106.832 185.707 106.696C185.427 106.552 185.103 106.48 184.735 106.48C184.399 106.48 184.095 106.548 183.823 106.684C183.551 106.82 183.335 107.004 183.175 107.236C183.015 107.46 182.935 107.72 182.935 108.016H182.179C182.179 107.512 182.299 107.064 182.539 106.672C182.787 106.272 183.123 105.956 183.547 105.724C183.971 105.492 184.447 105.376 184.975 105.376C185.527 105.376 186.019 105.496 186.451 105.736C186.891 105.968 187.235 106.312 187.483 106.768C187.739 107.224 187.867 107.784 187.867 108.448V111.4C187.867 111.576 187.807 111.724 187.687 111.844C187.575 111.956 187.431 112.012 187.255 112.012ZM182.323 112.012C182.147 112.012 181.999 111.956 181.879 111.844C181.767 111.724 181.711 111.576 181.711 111.4V106.048C181.711 105.864 181.767 105.716 181.879 105.604C181.999 105.492 182.147 105.436 182.323 105.436C182.507 105.436 182.655 105.492 182.767 105.604C182.879 105.716 182.935 105.864 182.935 106.048V111.4C182.935 111.576 182.879 111.724 182.767 111.844C182.655 111.956 182.507 112.012 182.323 112.012ZM192.867 112.048C192.243 112.048 191.679 111.904 191.175 111.616C190.679 111.32 190.283 110.92 189.987 110.416C189.699 109.912 189.555 109.344 189.555 108.712C189.555 108.08 189.687 107.516 189.951 107.02C190.223 106.516 190.591 106.12 191.055 105.832C191.519 105.536 192.043 105.388 192.627 105.388C193.099 105.388 193.535 105.488 193.935 105.688C194.335 105.88 194.671 106.144 194.943 106.48V103.24C194.943 103.056 194.999 102.908 195.111 102.796C195.231 102.684 195.379 102.628 195.555 102.628C195.739 102.628 195.887 102.684 195.999 102.796C196.111 102.908 196.167 103.056 196.167 103.24V108.712C196.167 109.344 196.019 109.912 195.723 110.416C195.435 110.92 195.043 111.32 194.547 111.616C194.051 111.904 193.491 112.048 192.867 112.048ZM192.867 110.968C193.275 110.968 193.639 110.872 193.959 110.68C194.279 110.48 194.531 110.208 194.715 109.864C194.899 109.52 194.991 109.136 194.991 108.712C194.991 108.28 194.899 107.896 194.715 107.56C194.531 107.224 194.279 106.96 193.959 106.768C193.639 106.568 193.275 106.468 192.867 106.468C192.467 106.468 192.103 106.568 191.775 106.768C191.455 106.96 191.199 107.224 191.007 107.56C190.823 107.896 190.731 108.28 190.731 108.712C190.731 109.136 190.823 109.52 191.007 109.864C191.199 110.208 191.455 110.48 191.775 110.68C192.103 110.872 192.467 110.968 192.867 110.968ZM202.588 112C202.412 112 202.264 111.94 202.144 111.82C202.024 111.7 201.964 111.552 201.964 111.376V103.252C201.964 103.068 202.024 102.92 202.144 102.808C202.264 102.688 202.412 102.628 202.588 102.628H204.76C205.448 102.628 206.072 102.744 206.632 102.976C207.2 103.2 207.692 103.524 208.108 103.948C208.524 104.364 208.844 104.856 209.068 105.424C209.292 105.992 209.404 106.62 209.404 107.308C209.404 107.996 209.292 108.628 209.068 109.204C208.844 109.772 208.524 110.268 208.108 110.692C207.692 111.108 207.2 111.432 206.632 111.664C206.072 111.888 205.448 112 204.76 112H202.588ZM203.212 110.896H204.76C205.432 110.896 206.024 110.744 206.536 110.44C207.056 110.128 207.464 109.704 207.76 109.168C208.056 108.624 208.204 108.004 208.204 107.308C208.204 106.604 208.056 105.984 207.76 105.448C207.464 104.912 207.056 104.492 206.536 104.188C206.024 103.884 205.432 103.732 204.76 103.732H203.212V110.896ZM214.326 112.048C213.662 112.048 213.07 111.908 212.55 111.628C212.038 111.34 211.634 110.948 211.338 110.452C211.05 109.948 210.906 109.372 210.906 108.724C210.906 108.068 211.042 107.492 211.314 106.996C211.594 106.492 211.978 106.1 212.466 105.82C212.954 105.532 213.514 105.388 214.146 105.388C214.77 105.388 215.306 105.528 215.754 105.808C216.202 106.08 216.542 106.46 216.774 106.948C217.014 107.428 217.134 107.984 217.134 108.616C217.134 108.768 217.082 108.896 216.978 109C216.874 109.096 216.742 109.144 216.582 109.144H211.746V108.184H216.546L216.054 108.52C216.046 108.12 215.966 107.764 215.814 107.452C215.662 107.132 215.446 106.88 215.166 106.696C214.886 106.512 214.546 106.42 214.146 106.42C213.69 106.42 213.298 106.52 212.97 106.72C212.65 106.92 212.406 107.196 212.238 107.548C212.07 107.892 211.986 108.284 211.986 108.724C211.986 109.164 212.086 109.556 212.286 109.9C212.486 110.244 212.762 110.516 213.114 110.716C213.466 110.916 213.87 111.016 214.326 111.016C214.574 111.016 214.826 110.972 215.082 110.884C215.346 110.788 215.558 110.68 215.718 110.56C215.838 110.472 215.966 110.428 216.102 110.428C216.246 110.42 216.37 110.46 216.474 110.548C216.61 110.668 216.682 110.8 216.69 110.944C216.698 111.088 216.634 111.212 216.498 111.316C216.226 111.532 215.886 111.708 215.478 111.844C215.078 111.98 214.694 112.048 214.326 112.048ZM221.083 112.048C220.523 112.048 220.003 111.964 219.523 111.796C219.051 111.62 218.683 111.4 218.419 111.136C218.299 111.008 218.247 110.864 218.263 110.704C218.287 110.536 218.367 110.4 218.503 110.296C218.663 110.168 218.819 110.116 218.971 110.14C219.131 110.156 219.267 110.224 219.379 110.344C219.515 110.496 219.731 110.64 220.027 110.776C220.331 110.904 220.667 110.968 221.035 110.968C221.499 110.968 221.851 110.892 222.091 110.74C222.339 110.588 222.467 110.392 222.475 110.152C222.483 109.912 222.367 109.704 222.127 109.528C221.895 109.352 221.467 109.208 220.843 109.096C220.035 108.936 219.447 108.696 219.079 108.376C218.719 108.056 218.539 107.664 218.539 107.2C218.539 106.792 218.659 106.456 218.899 106.192C219.139 105.92 219.447 105.72 219.823 105.592C220.199 105.456 220.591 105.388 220.999 105.388C221.527 105.388 221.995 105.472 222.403 105.64C222.811 105.808 223.135 106.04 223.375 106.336C223.487 106.464 223.539 106.6 223.531 106.744C223.523 106.88 223.455 106.996 223.327 107.092C223.199 107.18 223.047 107.208 222.871 107.176C222.695 107.144 222.547 107.072 222.427 106.96C222.227 106.768 222.011 106.636 221.779 106.564C221.547 106.492 221.279 106.456 220.975 106.456C220.623 106.456 220.323 106.516 220.075 106.636C219.835 106.756 219.715 106.932 219.715 107.164C219.715 107.308 219.751 107.44 219.823 107.56C219.903 107.672 220.055 107.776 220.279 107.872C220.503 107.96 220.831 108.048 221.263 108.136C221.863 108.256 222.335 108.408 222.679 108.592C223.031 108.776 223.283 108.992 223.435 109.24C223.587 109.48 223.663 109.76 223.663 110.08C223.663 110.448 223.563 110.78 223.363 111.076C223.171 111.372 222.883 111.608 222.499 111.784C222.123 111.96 221.651 112.048 221.083 112.048ZM225.943 112C225.767 112 225.619 111.944 225.499 111.832C225.387 111.712 225.331 111.564 225.331 111.388V106.048C225.331 105.864 225.387 105.716 225.499 105.604C225.619 105.492 225.767 105.436 225.943 105.436C226.127 105.436 226.275 105.492 226.387 105.604C226.499 105.716 226.555 105.864 226.555 106.048V111.388C226.555 111.564 226.499 111.712 226.387 111.832C226.275 111.944 226.127 112 225.943 112ZM225.943 104.368C225.727 104.368 225.539 104.292 225.379 104.14C225.227 103.98 225.151 103.792 225.151 103.576C225.151 103.36 225.227 103.176 225.379 103.024C225.539 102.864 225.727 102.784 225.943 102.784C226.159 102.784 226.343 102.864 226.495 103.024C226.655 103.176 226.735 103.36 226.735 103.576C226.735 103.792 226.655 103.98 226.495 104.14C226.343 104.292 226.159 104.368 225.943 104.368ZM231.568 112.048C230.968 112.048 230.436 111.908 229.972 111.628C229.516 111.34 229.156 110.948 228.892 110.452C228.628 109.948 228.496 109.372 228.496 108.724C228.496 108.068 228.636 107.492 228.916 106.996C229.204 106.492 229.596 106.1 230.092 105.82C230.588 105.532 231.16 105.388 231.808 105.388C232.448 105.388 233.016 105.532 233.512 105.82C234.008 106.1 234.396 106.492 234.676 106.996C234.964 107.492 235.108 108.068 235.108 108.724H234.4C234.4 109.372 234.276 109.948 234.028 110.452C233.788 110.948 233.456 111.34 233.032 111.628C232.608 111.908 232.12 112.048 231.568 112.048ZM231.784 114.724C231.216 114.724 230.684 114.612 230.188 114.388C229.692 114.164 229.272 113.836 228.928 113.404C228.824 113.268 228.784 113.128 228.808 112.984C228.84 112.84 228.92 112.724 229.048 112.636C229.192 112.54 229.34 112.508 229.492 112.54C229.652 112.572 229.78 112.652 229.876 112.78C230.092 113.052 230.364 113.264 230.692 113.416C231.02 113.568 231.392 113.644 231.808 113.644C232.192 113.644 232.544 113.552 232.864 113.368C233.192 113.184 233.452 112.912 233.644 112.552C233.836 112.192 233.932 111.752 233.932 111.232V109.528L234.328 108.472L235.108 108.724V111.316C235.108 111.948 234.968 112.52 234.688 113.032C234.408 113.552 234.016 113.964 233.512 114.268C233.016 114.572 232.44 114.724 231.784 114.724ZM231.808 110.968C232.224 110.968 232.592 110.872 232.912 110.68C233.232 110.488 233.48 110.224 233.656 109.888C233.84 109.552 233.932 109.164 233.932 108.724C233.932 108.284 233.84 107.896 233.656 107.56C233.48 107.216 233.232 106.948 232.912 106.756C232.592 106.564 232.224 106.468 231.808 106.468C231.392 106.468 231.024 106.564 230.704 106.756C230.384 106.948 230.132 107.216 229.948 107.56C229.764 107.896 229.672 108.284 229.672 108.724C229.672 109.164 229.764 109.552 229.948 109.888C230.132 110.224 230.384 110.488 230.704 110.68C231.024 110.872 231.392 110.968 231.808 110.968ZM242.474 112.012C242.298 112.012 242.15 111.956 242.03 111.844C241.918 111.724 241.862 111.576 241.862 111.4V108.448C241.862 107.992 241.778 107.62 241.61 107.332C241.442 107.044 241.214 106.832 240.926 106.696C240.646 106.552 240.322 106.48 239.954 106.48C239.618 106.48 239.314 106.548 239.042 106.684C238.77 106.82 238.554 107.004 238.394 107.236C238.234 107.46 238.154 107.72 238.154 108.016H237.398C237.398 107.512 237.518 107.064 237.758 106.672C238.006 106.272 238.342 105.956 238.766 105.724C239.19 105.492 239.666 105.376 240.194 105.376C240.746 105.376 241.238 105.496 241.67 105.736C242.11 105.968 242.454 106.312 242.702 106.768C242.958 107.224 243.086 107.784 243.086 108.448V111.4C243.086 111.576 243.026 111.724 242.906 111.844C242.794 111.956 242.65 112.012 242.474 112.012ZM237.542 112.012C237.366 112.012 237.218 111.956 237.098 111.844C236.986 111.724 236.93 111.576 236.93 111.4V106.048C236.93 105.864 236.986 105.716 237.098 105.604C237.218 105.492 237.366 105.436 237.542 105.436C237.726 105.436 237.874 105.492 237.986 105.604C238.098 105.716 238.154 105.864 238.154 106.048V111.4C238.154 111.576 238.098 111.724 237.986 111.844C237.874 111.956 237.726 112.012 237.542 112.012Z" fill="white"/>
</svg>
