<svg width="320" height="320" viewBox="0 0 320 320" fill="none" xmlns="http://www.w3.org/2000/svg">
<circle cx="160" cy="160" r="160" fill="#3C54D4"/>
<path d="M132.28 59.32C128.93 59.32 126.381 58.4667 124.632 56.76C122.882 55.0533 122.008 52.3973 122.008 48.792C122.008 44.9733 122.882 42.232 124.632 40.568C126.381 38.904 128.93 38.072 132.28 38.072C135.629 38.072 138.178 38.904 139.928 40.568C141.677 42.232 142.552 44.9733 142.552 48.792C142.552 52.3973 141.677 55.0533 139.928 56.76C138.178 58.4667 135.629 59.32 132.28 59.32ZM132.28 54.936C134.008 54.936 135.266 54.4453 136.056 53.464C136.866 52.4613 137.272 50.904 137.272 48.792C137.272 46.488 136.866 44.8667 136.056 43.928C135.266 42.968 134.008 42.488 132.28 42.488C130.53 42.488 129.25 42.968 128.44 43.928C127.65 44.8667 127.256 46.488 127.256 48.792C127.256 50.904 127.65 52.4613 128.44 53.464C129.25 54.4453 130.53 54.936 132.28 54.936ZM151.419 59.32C149.542 59.32 148.155 58.84 147.259 57.88C146.384 56.92 145.947 55.5973 145.947 53.912V47.736H143.899V43.832H145.947V40.664L151.099 39.288V43.832H154.779L154.555 47.736H151.099V53.56C151.099 54.2853 151.28 54.7973 151.643 55.096C152.006 55.3733 152.55 55.512 153.275 55.512C153.894 55.512 154.523 55.4053 155.163 55.192V58.68C154.16 59.1067 152.912 59.32 151.419 59.32ZM163.388 59.32C161.51 59.32 160.124 58.84 159.228 57.88C158.353 56.92 157.916 55.5973 157.916 53.912V47.736H155.868V43.832H157.916V40.664L163.068 39.288V43.832H166.748L166.524 47.736H163.068V53.56C163.068 54.2853 163.249 54.7973 163.612 55.096C163.974 55.3733 164.518 55.512 165.244 55.512C165.862 55.512 166.492 55.4053 167.132 55.192V58.68C166.129 59.1067 164.881 59.32 163.388 59.32ZM177.02 59.32C174.098 59.32 171.943 58.648 170.556 57.304C169.17 55.9387 168.476 53.976 168.476 51.416C168.476 48.8773 169.17 46.9253 170.556 45.56C171.964 44.1947 174.119 43.512 177.02 43.512C179.943 43.512 182.098 44.1947 183.484 45.56C184.892 46.9253 185.596 48.8773 185.596 51.416C185.596 53.976 184.903 55.9387 183.516 57.304C182.13 58.648 179.964 59.32 177.02 59.32ZM177.02 55.288C178.215 55.288 179.068 54.9893 179.58 54.392C180.092 53.7947 180.348 52.8027 180.348 51.416C180.348 50.0293 180.092 49.0373 179.58 48.44C179.068 47.8427 178.215 47.544 177.02 47.544C175.847 47.544 175.004 47.8427 174.492 48.44C173.98 49.0373 173.724 50.0293 173.724 51.416C173.724 52.8027 173.98 53.7947 174.492 54.392C175.004 54.9893 175.847 55.288 177.02 55.288ZM188.21 59V43.832H193.106L193.266 45.24C193.927 44.8347 194.749 44.472 195.73 44.152C196.711 43.8107 197.693 43.5973 198.674 43.512V47.384C198.119 47.448 197.501 47.5547 196.818 47.704C196.157 47.832 195.517 47.992 194.898 48.184C194.301 48.376 193.789 48.5787 193.362 48.792V59H188.21ZM78.7009 91.32C75.1382 91.32 72.4289 90.424 70.5729 88.632C68.7169 86.8187 67.7889 84.2693 67.7889 80.984C67.7889 77.5493 68.7382 74.872 70.6369 72.952C72.5355 71.032 75.3302 70.072 79.0209 70.072C80.2795 70.072 81.4102 70.1467 82.4129 70.296C83.4369 70.4453 84.4075 70.6693 85.3249 70.968V75.384C84.4075 75.0427 83.4475 74.808 82.4449 74.68C81.4635 74.552 80.4502 74.488 79.4049 74.488C77.1862 74.488 75.5649 75.0213 74.5409 76.088C73.5382 77.1333 73.0369 78.7653 73.0369 80.984C73.0369 83.0107 73.5169 84.5147 74.4769 85.496C75.4369 86.456 76.8555 86.936 78.7329 86.936C79.9702 86.936 81.1222 86.7653 82.1889 86.424V82.52H77.7409V79.288H86.5089V89.496C85.7835 89.9653 84.7702 90.392 83.4689 90.776C82.1889 91.1387 80.5995 91.32 78.7009 91.32ZM93.8836 91.32C92.9236 91.32 92.0276 91.1493 91.1956 90.808C90.385 90.4667 89.7343 89.944 89.2436 89.24C88.753 88.5147 88.5076 87.6187 88.5076 86.552C88.5076 84.9947 89.0303 83.7787 90.0756 82.904C91.1423 82.008 92.7316 81.56 94.8436 81.56H99.0676V81.208C99.0676 80.44 98.8116 79.896 98.2996 79.576C97.7876 79.2347 96.8276 79.064 95.4196 79.064C93.6916 79.064 91.9956 79.3307 90.3316 79.864V76.536C91.0783 76.2373 91.985 75.992 93.0516 75.8C94.1396 75.608 95.281 75.512 96.4756 75.512C98.8223 75.512 100.657 75.992 101.98 76.952C103.324 77.912 103.996 79.4373 103.996 81.528V91H99.4836L99.2276 89.72C98.673 90.232 97.9583 90.6267 97.0836 90.904C96.2303 91.1813 95.1636 91.32 93.8836 91.32ZM95.5156 88.152C96.3263 88.152 97.0303 88.0133 97.6276 87.736C98.225 87.4587 98.705 87.1067 99.0676 86.68V84.536H95.4196C93.905 84.536 93.1476 85.144 93.1476 86.36C93.1476 86.9147 93.3396 87.352 93.7236 87.672C94.1076 87.992 94.705 88.152 95.5156 88.152ZM107.085 91V75.832H111.853L112.013 77.176C112.696 76.6853 113.464 76.2907 114.317 75.992C115.17 75.672 116.088 75.512 117.069 75.512C118.093 75.512 118.893 75.672 119.469 75.992C120.045 76.2907 120.493 76.7173 120.813 77.272C121.517 76.76 122.306 76.344 123.181 76.024C124.077 75.6827 125.122 75.512 126.317 75.512C128.088 75.512 129.389 75.9707 130.221 76.888C131.053 77.8053 131.469 79.2027 131.469 81.08V91H126.381V81.688C126.381 80.856 126.2 80.2587 125.837 79.896C125.496 79.512 124.93 79.32 124.141 79.32C123.65 79.32 123.17 79.4267 122.701 79.64C122.232 79.832 121.837 80.1093 121.517 80.472C121.56 80.7067 121.581 80.9307 121.581 81.144C121.602 81.3573 121.613 81.6133 121.613 81.912V91H116.813V81.624C116.813 80.856 116.674 80.28 116.397 79.896C116.141 79.512 115.64 79.32 114.893 79.32C114.36 79.32 113.858 79.4587 113.389 79.736C112.92 80.0133 112.493 80.3333 112.109 80.696V91H107.085ZM142.526 91.32C139.88 91.32 137.758 90.6693 136.158 89.368C134.558 88.0453 133.758 86.0613 133.758 83.416C133.758 81.0053 134.419 79.0853 135.742 77.656C137.064 76.2267 139.048 75.512 141.694 75.512C144.104 75.512 145.971 76.1307 147.294 77.368C148.616 78.6053 149.278 80.2693 149.278 82.36V85.08H138.526C138.76 86.0827 139.304 86.7867 140.158 87.192C141.032 87.576 142.216 87.768 143.71 87.768C144.542 87.768 145.384 87.6933 146.238 87.544C147.112 87.3947 147.838 87.2027 148.414 86.968V90.328C147.688 90.6693 146.824 90.9147 145.822 91.064C144.819 91.2347 143.72 91.32 142.526 91.32ZM138.526 82.104H144.798V81.432C144.798 80.6853 144.574 80.0987 144.126 79.672C143.678 79.224 142.92 79 141.854 79C140.616 79 139.752 79.256 139.262 79.768C138.771 80.2587 138.526 81.0373 138.526 82.104ZM165.333 91.32C163.967 91.32 162.687 91.2133 161.493 91C160.319 90.808 159.306 90.52 158.453 90.136V85.752C159.391 86.1573 160.426 86.488 161.557 86.744C162.709 87 163.797 87.128 164.821 87.128C166.101 87.128 167.05 87.0107 167.669 86.776C168.309 86.5413 168.629 86.0293 168.629 85.24C168.629 84.7067 168.469 84.28 168.149 83.96C167.85 83.64 167.349 83.3627 166.645 83.128C165.962 82.872 165.023 82.5733 163.829 82.232C162.421 81.8053 161.301 81.336 160.469 80.824C159.637 80.2907 159.039 79.6507 158.677 78.904C158.314 78.1573 158.133 77.24 158.133 76.152C158.133 74.1893 158.837 72.6853 160.245 71.64C161.653 70.5947 163.733 70.072 166.485 70.072C167.679 70.072 168.842 70.168 169.973 70.36C171.103 70.5307 172.021 70.7333 172.725 70.968V75.384C171.807 75.0213 170.879 74.7547 169.941 74.584C169.023 74.4133 168.127 74.328 167.253 74.328C166.101 74.328 165.162 74.4347 164.437 74.648C163.733 74.8613 163.381 75.352 163.381 76.12C163.381 76.568 163.509 76.9307 163.765 77.208C164.021 77.464 164.458 77.6987 165.077 77.912C165.717 78.1253 166.581 78.3813 167.669 78.68C169.354 79.128 170.645 79.672 171.541 80.312C172.437 80.9307 173.055 81.656 173.397 82.488C173.738 83.2987 173.909 84.216 173.909 85.24C173.909 87.0533 173.205 88.5253 171.797 89.656C170.389 90.7653 168.234 91.32 165.333 91.32ZM182.294 91.32C180.417 91.32 179.03 90.84 178.134 89.88C177.259 88.92 176.822 87.5973 176.822 85.912V79.736H174.774V75.832H176.822V72.664L181.974 71.288V75.832H185.654L185.43 79.736H181.974V85.56C181.974 86.2853 182.155 86.7973 182.518 87.096C182.881 87.3733 183.425 87.512 184.15 87.512C184.769 87.512 185.398 87.4053 186.038 87.192V90.68C185.035 91.1067 183.787 91.32 182.294 91.32ZM193.239 91.32C191.447 91.32 190.049 90.8187 189.047 89.816C188.044 88.792 187.543 87.3093 187.543 85.368V75.832H192.695V85.08C192.695 85.9333 192.897 86.5627 193.303 86.968C193.729 87.352 194.359 87.544 195.191 87.544C195.809 87.544 196.396 87.416 196.951 87.16C197.505 86.904 197.964 86.584 198.327 86.2V75.832H203.479V91H198.679L198.519 89.72C197.9 90.1893 197.153 90.5733 196.279 90.872C195.404 91.1707 194.391 91.32 193.239 91.32ZM213.109 91.32C211.637 91.32 210.379 91.0853 209.333 90.616C208.288 90.1467 207.488 89.3787 206.933 88.312C206.379 87.224 206.101 85.7733 206.101 83.96C206.101 82.1253 206.421 80.5893 207.061 79.352C207.701 78.0933 208.576 77.144 209.685 76.504C210.816 75.8427 212.107 75.512 213.557 75.512C214.347 75.512 215.051 75.5973 215.669 75.768C216.309 75.9387 216.907 76.1947 217.461 76.536V69.432H222.613V91H218.165L217.877 89.72C217.259 90.2533 216.565 90.6587 215.797 90.936C215.029 91.192 214.133 91.32 213.109 91.32ZM214.581 87.576C215.712 87.576 216.672 87.192 217.461 86.424V80.28C216.736 79.6187 215.808 79.288 214.677 79.288C213.589 79.288 212.757 79.704 212.181 80.536C211.627 81.3467 211.349 82.4987 211.349 83.992C211.349 85.4427 211.616 86.4027 212.149 86.872C212.704 87.3413 213.515 87.576 214.581 87.576ZM226.89 73.432V69.56H232.49V73.432H226.89ZM227.306 91V79.64H225.066L225.514 75.832H232.458V91H227.306ZM243.645 91.32C240.723 91.32 238.568 90.648 237.181 89.304C235.795 87.9387 235.101 85.976 235.101 83.416C235.101 80.8773 235.795 78.9253 237.181 77.56C238.589 76.1947 240.744 75.512 243.645 75.512C246.568 75.512 248.723 76.1947 250.109 77.56C251.517 78.9253 252.221 80.8773 252.221 83.416C252.221 85.976 251.528 87.9387 250.141 89.304C248.755 90.648 246.589 91.32 243.645 91.32ZM243.645 87.288C244.84 87.288 245.693 86.9893 246.205 86.392C246.717 85.7947 246.973 84.8027 246.973 83.416C246.973 82.0293 246.717 81.0373 246.205 80.44C245.693 79.8427 244.84 79.544 243.645 79.544C242.472 79.544 241.629 79.8427 241.117 80.44C240.605 81.0373 240.349 82.0293 240.349 83.416C240.349 84.8027 240.605 85.7947 241.117 86.392C241.629 86.9893 242.472 87.288 243.645 87.288Z" fill="white"/>
<path d="M114.61 120V109.696H121.618V111.056H116.354V114.176H121.026V115.52H116.354V120H114.61ZM125.174 120.16C124.267 120.16 123.568 119.909 123.078 119.408C122.598 118.907 122.358 118.171 122.358 117.2V112.416H124.102V117.2C124.102 117.765 124.24 118.181 124.518 118.448C124.795 118.715 125.222 118.848 125.798 118.848C126.224 118.848 126.619 118.768 126.982 118.608C127.344 118.448 127.659 118.235 127.926 117.968V112.416H129.654V120H128.07L127.99 119.216C127.648 119.483 127.243 119.707 126.774 119.888C126.304 120.069 125.771 120.16 125.174 120.16ZM133.576 120.16C132.957 120.16 132.488 120.011 132.168 119.712C131.848 119.403 131.688 118.896 131.688 118.192V109.216H133.432V118.032C133.432 118.331 133.485 118.533 133.592 118.64C133.698 118.747 133.858 118.8 134.072 118.8C134.328 118.8 134.573 118.768 134.808 118.704V119.968C134.605 120.043 134.408 120.091 134.216 120.112C134.034 120.144 133.821 120.16 133.576 120.16ZM137.654 120.16C137.035 120.16 136.566 120.011 136.246 119.712C135.926 119.403 135.766 118.896 135.766 118.192V109.216H137.51V118.032C137.51 118.331 137.563 118.533 137.67 118.64C137.776 118.747 137.936 118.8 138.15 118.8C138.406 118.8 138.651 118.768 138.886 118.704V119.968C138.683 120.043 138.486 120.091 138.294 120.112C138.112 120.144 137.899 120.16 137.654 120.16ZM139.93 116.368V115.008H146.042V116.368H139.93ZM150.631 120.16C149.82 120.16 149.212 119.947 148.807 119.52C148.412 119.083 148.215 118.491 148.215 117.744V113.776H147.095V112.416H148.215V110.672L149.943 110.144V112.416H151.959L151.847 113.776H149.943V117.648C149.943 118.085 150.044 118.395 150.247 118.576C150.449 118.747 150.78 118.832 151.239 118.832C151.527 118.832 151.831 118.779 152.151 118.672V119.904C151.735 120.075 151.228 120.16 150.631 120.16ZM154.125 110.832V109.392H156.029V110.832H154.125ZM154.269 120V113.744H153.117L153.277 112.416H156.013V120H154.269ZM158.047 120V112.416H159.647L159.727 113.216C160.1 112.917 160.511 112.683 160.959 112.512C161.407 112.341 161.887 112.256 162.399 112.256C162.943 112.256 163.364 112.347 163.663 112.528C163.972 112.699 164.207 112.939 164.367 113.248C164.719 112.96 165.124 112.725 165.583 112.544C166.042 112.352 166.591 112.256 167.231 112.256C168.106 112.256 168.751 112.48 169.167 112.928C169.583 113.376 169.791 114.064 169.791 114.992V120H168.079V115.168C168.079 114.581 167.956 114.171 167.711 113.936C167.466 113.701 167.066 113.584 166.511 113.584C166.148 113.584 165.802 113.648 165.471 113.776C165.151 113.904 164.874 114.096 164.639 114.352C164.671 114.469 164.692 114.592 164.703 114.72C164.714 114.848 164.719 114.987 164.719 115.136V120H163.103V115.184C163.103 114.629 163.007 114.224 162.815 113.968C162.623 113.712 162.26 113.584 161.727 113.584C161.354 113.584 160.996 113.675 160.655 113.856C160.324 114.027 160.026 114.235 159.759 114.48V120H158.047ZM175.434 120.16C174.111 120.16 173.087 119.835 172.362 119.184C171.637 118.533 171.274 117.536 171.274 116.192C171.274 114.976 171.583 114.016 172.202 113.312C172.821 112.608 173.759 112.256 175.018 112.256C176.17 112.256 177.034 112.56 177.61 113.168C178.197 113.765 178.49 114.539 178.49 115.488V116.896H172.938C173.023 117.632 173.29 118.139 173.738 118.416C174.186 118.693 174.869 118.832 175.786 118.832C176.17 118.832 176.565 118.795 176.97 118.72C177.375 118.645 177.727 118.549 178.026 118.432V119.712C177.685 119.861 177.29 119.973 176.842 120.048C176.405 120.123 175.935 120.16 175.434 120.16ZM172.938 115.76H176.954V115.232C176.954 114.709 176.81 114.304 176.522 114.016C176.234 113.717 175.749 113.568 175.066 113.568C174.255 113.568 173.695 113.744 173.386 114.096C173.087 114.448 172.938 115.003 172.938 115.76ZM184.883 110.832V109.392H186.787V110.832H184.883ZM184.323 123.744C183.705 123.744 183.177 123.659 182.739 123.488V122.224C182.921 122.277 183.091 122.315 183.251 122.336C183.422 122.368 183.577 122.384 183.715 122.384C184.217 122.384 184.563 122.293 184.755 122.112C184.958 121.931 185.059 121.632 185.059 121.216V113.744H183.907L184.067 112.416H186.787V121.376C186.787 122.091 186.579 122.661 186.163 123.088C185.758 123.525 185.145 123.744 184.323 123.744ZM192.429 120.16C191.064 120.16 190.061 119.819 189.421 119.136C188.792 118.453 188.477 117.477 188.477 116.208C188.477 114.939 188.797 113.963 189.437 113.28C190.077 112.597 191.074 112.256 192.429 112.256C193.794 112.256 194.797 112.597 195.437 113.28C196.077 113.963 196.397 114.939 196.397 116.208C196.397 117.477 196.077 118.453 195.437 119.136C194.808 119.819 193.805 120.16 192.429 120.16ZM192.429 118.688C193.229 118.688 193.794 118.496 194.125 118.112C194.466 117.717 194.637 117.083 194.637 116.208C194.637 115.333 194.466 114.704 194.125 114.32C193.794 113.936 193.229 113.744 192.429 113.744C191.64 113.744 191.074 113.936 190.733 114.32C190.402 114.704 190.237 115.333 190.237 116.208C190.237 117.083 190.402 117.717 190.733 118.112C191.074 118.496 191.64 118.688 192.429 118.688ZM202.254 120.16C201.699 120.16 201.219 120.085 200.814 119.936C200.409 119.787 200.035 119.557 199.694 119.248L199.598 120H198.094V109.216H199.838V112.912C200.499 112.475 201.294 112.256 202.222 112.256C203.299 112.256 204.147 112.565 204.766 113.184C205.395 113.792 205.71 114.779 205.71 116.144C205.71 117.52 205.401 118.533 204.782 119.184C204.163 119.835 203.321 120.16 202.254 120.16ZM201.79 118.848C202.579 118.848 203.134 118.624 203.454 118.176C203.785 117.728 203.95 117.051 203.95 116.144C203.95 115.205 203.774 114.544 203.422 114.16C203.07 113.776 202.515 113.584 201.758 113.584C200.969 113.584 200.329 113.803 199.838 114.24V118.048C200.339 118.581 200.99 118.848 201.79 118.848Z" fill="white"/>
</svg>
