<svg width="250" height="250" viewBox="0 0 250 250" fill="none" xmlns="http://www.w3.org/2000/svg">
<circle cx="125" cy="125" r="125" fill="#F56A96"/>
<path d="M46.2039 43H55.0239C58.0439 43 60.2939 43.44 61.7739 44.32C63.2539 45.18 63.9939 46.73 63.9939 48.97C63.9939 51.45 63.0939 53.16 61.2939 54.1C59.6139 54.96 57.2639 55.39 54.2439 55.39H54.0039V63.43H57.7539V64H46.2039V63.43H48.1539V43.57H46.2039V43ZM54.0039 43.57V54.82H54.6339C55.8339 54.82 56.6639 54.41 57.1239 53.59C57.5839 52.77 57.8139 51.44 57.8139 49.6V48.16C57.8139 46.46 57.5939 45.27 57.1539 44.59C56.7339 43.91 55.9539 43.57 54.8139 43.57H54.0039ZM74.0076 56.98C74.0076 55.08 73.8376 53.75 73.4976 52.99C73.1776 52.23 72.4376 51.85 71.2776 51.85C70.1176 51.85 68.8476 52.28 67.4676 53.14L66.9576 52.9V43.33L67.4376 42.97C68.6576 43.15 70.5076 43.37 72.9876 43.63C75.4676 43.87 76.8976 43.99 77.2776 43.99C77.6776 43.99 77.9576 43.9 78.1176 43.72C78.2976 43.52 78.4476 43.19 78.5676 42.73L79.0176 42.79C78.7176 45.85 78.3276 47.67 77.8476 48.25C77.5876 48.55 77.2576 48.7 76.8576 48.7C76.4576 48.7 75.6176 48.53 74.3376 48.19L67.7976 46.48L67.6476 52.3C69.1076 51.52 70.6176 51.13 72.1776 51.13C73.7376 51.13 75.0376 51.31 76.0776 51.67C77.1176 52.01 77.9176 52.49 78.4776 53.11C79.5376 54.29 80.0676 55.72 80.0676 57.4C80.0676 59.54 79.2976 61.23 77.7576 62.47C76.2376 63.69 74.1376 64.3 71.4576 64.3C70.0176 64.3 68.6876 64 67.4676 63.4C66.8076 63.06 66.2676 62.58 65.8476 61.96C65.4476 61.32 65.2476 60.59 65.2476 59.77C65.2476 58.93 65.4776 58.24 65.9376 57.7C66.4176 57.16 67.0676 56.89 67.8876 56.89C68.7276 56.89 69.3776 57.1 69.8376 57.52C70.3176 57.92 70.5576 58.45 70.5576 59.11C70.5576 59.75 70.4676 60.3 70.2876 60.76H69.2976C69.1776 61.08 69.1176 61.46 69.1176 61.9C69.1176 62.32 69.2876 62.73 69.6276 63.13C69.9676 63.51 70.4676 63.7 71.1276 63.7C71.7876 63.7 72.2876 63.6 72.6276 63.4C72.9676 63.18 73.2276 62.92 73.4076 62.62C73.5876 62.32 73.7276 61.85 73.8276 61.21C73.9476 60.29 74.0076 58.88 74.0076 56.98ZM84.8988 64.3C84.0388 64.3 83.3888 64.05 82.9487 63.55C82.5288 63.03 82.3188 62.41 82.3188 61.69C82.3188 60.95 82.5388 60.33 82.9788 59.83C83.4388 59.33 84.0788 59.08 84.8988 59.08C85.7188 59.08 86.3688 59.29 86.8488 59.71C87.3288 60.13 87.5688 60.76 87.5688 61.6C87.5688 62.44 87.3388 63.1 86.8788 63.58C86.4388 64.06 85.7788 64.3 84.8988 64.3ZM98.8405 49.72V61.42C98.8405 64.7 98.2705 67.2 97.1305 68.92C96.0105 70.64 94.1705 71.5 91.6105 71.5C89.9505 71.5 88.7405 71.17 87.9805 70.51C87.2005 69.85 86.8105 69.08 86.8105 68.2C86.8105 67.32 87.0705 66.64 87.5905 66.16C88.1105 65.7 88.7605 65.47 89.5405 65.47C90.3205 65.47 90.9105 65.68 91.3105 66.1C91.6905 66.54 91.8805 67.02 91.8805 67.54C91.8805 68.06 91.8205 68.56 91.7005 69.04H90.5605C90.2405 69.58 90.2005 70.04 90.4405 70.42C90.6605 70.8 91.0705 70.99 91.6705 70.99C92.2905 70.99 92.7105 70.64 92.9305 69.94C93.1505 69.26 93.2605 67.84 93.2605 65.68V50.26H91.3105V49.72H98.8405ZM95.9905 47.65C94.9305 47.65 94.1705 47.38 93.7105 46.84C93.2705 46.3 93.0505 45.63 93.0505 44.83C93.0505 44.03 93.2905 43.37 93.7705 42.85C94.2705 42.33 95.0205 42.07 96.0205 42.07C97.0205 42.07 97.7805 42.31 98.3005 42.79C98.8205 43.25 99.0805 43.92 99.0805 44.8C99.0805 45.66 98.8305 46.35 98.3305 46.87C97.8305 47.39 97.0505 47.65 95.9905 47.65ZM101.412 64.3V58.93H101.772C102.292 60.67 102.992 61.89 103.872 62.59C104.752 63.29 105.852 63.64 107.172 63.64C109.212 63.64 110.232 62.99 110.232 61.69C110.232 61.13 109.982 60.71 109.482 60.43C108.702 59.99 107.702 59.65 106.482 59.41C105.122 59.05 103.982 58.57 103.062 57.97C101.962 57.25 101.412 56.11 101.412 54.55C101.412 52.99 101.892 51.75 102.852 50.83C103.812 49.89 105.092 49.42 106.692 49.42C107.672 49.42 108.682 49.65 109.722 50.11C110.102 50.27 110.392 50.35 110.592 50.35C110.792 50.35 110.962 50.28 111.102 50.14C111.242 50 111.412 49.74 111.612 49.36H111.942V53.95H111.582C110.562 51.35 108.982 50.05 106.842 50.05C105.902 50.05 105.202 50.22 104.742 50.56C104.282 50.88 104.052 51.29 104.052 51.79C104.052 52.09 104.122 52.33 104.262 52.51C104.402 52.67 104.512 52.79 104.592 52.87C104.672 52.95 104.802 53.04 104.982 53.14C105.162 53.22 105.312 53.29 105.432 53.35C105.552 53.39 105.732 53.45 105.972 53.53C106.232 53.61 106.422 53.66 106.542 53.68C107.902 54.02 108.882 54.32 109.482 54.58C110.082 54.82 110.652 55.12 111.192 55.48C112.292 56.24 112.842 57.47 112.842 59.17C112.842 60.85 112.342 62.13 111.342 63.01C110.342 63.87 108.972 64.3 107.232 64.3C105.992 64.3 104.792 64.01 103.632 63.43C103.392 63.27 103.202 63.19 103.062 63.19C102.622 63.19 102.192 63.56 101.772 64.3H101.412ZM129.38 50.26V49.72H137.12V50.26H135.89L138.59 60.37L141.26 50.26H139.19V49.72H143.24V50.26H141.98L138.38 64H134.27L131.66 54.79L128.84 64H124.82L120.38 50.26H119.03V49.72H128.12V50.26H126.32L129.08 60.46L131.24 53.44L130.49 50.26H129.38ZM152.775 58.09V55.54C152.775 53.6 152.665 52.19 152.445 51.31C152.245 50.41 151.765 49.96 151.005 49.96C150.565 49.96 150.205 50.09 149.925 50.35C149.665 50.59 149.475 51 149.355 51.58C149.175 52.48 149.085 53.85 149.085 55.69V58.03C149.085 60.21 149.145 61.52 149.265 61.96C149.405 62.4 149.545 62.76 149.685 63.04C149.905 63.52 150.335 63.76 150.975 63.76C151.755 63.76 152.265 63.31 152.505 62.41C152.685 61.77 152.775 60.33 152.775 58.09ZM150.915 64.3C148.415 64.3 146.525 63.66 145.245 62.38C143.965 61.1 143.325 59.27 143.325 56.89C143.325 54.49 144.005 52.65 145.365 51.37C146.745 50.07 148.675 49.42 151.155 49.42C153.635 49.42 155.485 50.02 156.705 51.22C157.925 52.4 158.535 54.21 158.535 56.65C158.535 61.75 155.995 64.3 150.915 64.3ZM169.394 50.56C168.654 50.56 168.004 51.04 167.444 52C166.884 52.96 166.604 54.1 166.604 55.42V63.46H168.734V64H159.374V63.46H161.024V50.26H159.374V49.72H166.604V52.6C166.864 51.58 167.364 50.8 168.104 50.26C168.844 49.7 169.684 49.42 170.624 49.42C171.564 49.42 172.324 49.69 172.904 50.23C173.504 50.75 173.804 51.5 173.804 52.48C173.804 53.44 173.584 54.18 173.144 54.7C172.704 55.22 172.024 55.48 171.104 55.48C170.204 55.48 169.534 55.18 169.094 54.58C168.674 53.98 168.624 53.15 168.944 52.09H170.024C170.524 51.07 170.314 50.56 169.394 50.56ZM183.745 64V63.46H185.125L181.735 56.5L181.165 56.65V63.46H182.545V64H173.935V63.46H175.585V42.04H173.815V41.5H181.165V56.05L181.645 55.87L188.395 50.26H185.575V49.72H191.485V50.26H189.385L185.815 53.29L191.005 63.46H192.085V64H183.745ZM193.228 64.3V58.93H193.588C194.108 60.67 194.808 61.89 195.688 62.59C196.568 63.29 197.668 63.64 198.988 63.64C201.028 63.64 202.048 62.99 202.048 61.69C202.048 61.13 201.798 60.71 201.298 60.43C200.518 59.99 199.518 59.65 198.298 59.41C196.938 59.05 195.798 58.57 194.878 57.97C193.778 57.25 193.228 56.11 193.228 54.55C193.228 52.99 193.708 51.75 194.668 50.83C195.628 49.89 196.908 49.42 198.508 49.42C199.488 49.42 200.498 49.65 201.538 50.11C201.918 50.27 202.208 50.35 202.408 50.35C202.608 50.35 202.778 50.28 202.918 50.14C203.058 50 203.228 49.74 203.428 49.36H203.758V53.95H203.398C202.378 51.35 200.798 50.05 198.658 50.05C197.718 50.05 197.018 50.22 196.558 50.56C196.098 50.88 195.868 51.29 195.868 51.79C195.868 52.09 195.938 52.33 196.078 52.51C196.218 52.67 196.328 52.79 196.408 52.87C196.488 52.95 196.618 53.04 196.798 53.14C196.978 53.22 197.128 53.29 197.248 53.35C197.368 53.39 197.548 53.45 197.788 53.53C198.048 53.61 198.238 53.66 198.358 53.68C199.718 54.02 200.698 54.32 201.298 54.58C201.898 54.82 202.468 55.12 203.008 55.48C204.108 56.24 204.658 57.47 204.658 59.17C204.658 60.85 204.158 62.13 203.158 63.01C202.158 63.87 200.788 64.3 199.048 64.3C197.808 64.3 196.608 64.01 195.448 63.43C195.208 63.27 195.018 63.19 194.878 63.19C194.438 63.19 194.008 63.56 193.588 64.3H193.228Z" fill="black"/>
</svg>
