<svg width="250" height="250" viewBox="0 0 250 250" fill="none" xmlns="http://www.w3.org/2000/svg">
<circle cx="125" cy="125" r="125" fill="#ED1F5E"/>
<path d="M62.0631 34.2H69.1191C71.5351 34.2 73.3351 34.552 74.5191 35.256C75.7031 35.944 76.2951 37.184 76.2951 38.976C76.2951 40.96 75.5751 42.328 74.1351 43.08C72.7911 43.768 70.9111 44.112 68.4951 44.112H68.3031V50.544H71.3031V51H62.0631V50.544H63.6231V34.656H62.0631V34.2ZM68.3031 34.656V43.656H68.8071C69.7671 43.656 70.4311 43.328 70.7991 42.672C71.1671 42.016 71.3511 40.952 71.3511 39.48V38.328C71.3511 36.968 71.1751 36.016 70.8231 35.472C70.4871 34.928 69.8631 34.656 68.9511 34.656H68.3031ZM84.3061 45.384C84.3061 43.864 84.1701 42.8 83.8981 42.192C83.6421 41.584 83.0501 41.28 82.1221 41.28C81.1941 41.28 80.1781 41.624 79.0741 42.312L78.6661 42.12V34.464L79.0501 34.176C80.0261 34.32 81.5061 34.496 83.4901 34.704C85.4741 34.896 86.6181 34.992 86.9221 34.992C87.2421 34.992 87.4661 34.92 87.5941 34.776C87.7381 34.616 87.8581 34.352 87.9541 33.984L88.3141 34.032C88.0741 36.48 87.7621 37.936 87.3781 38.4C87.1701 38.64 86.9061 38.76 86.5861 38.76C86.2661 38.76 85.5941 38.624 84.5701 38.352L79.3381 36.984L79.2181 41.64C80.3861 41.016 81.5941 40.704 82.8421 40.704C84.0901 40.704 85.1301 40.848 85.9621 41.136C86.7941 41.408 87.4341 41.792 87.8821 42.288C88.7301 43.232 89.1541 44.376 89.1541 45.72C89.1541 47.432 88.5381 48.784 87.3061 49.776C86.0901 50.752 84.4101 51.24 82.2661 51.24C81.1141 51.24 80.0501 51 79.0741 50.52C78.5461 50.248 78.1141 49.864 77.7781 49.368C77.4581 48.856 77.2981 48.272 77.2981 47.616C77.2981 46.944 77.4821 46.392 77.8501 45.96C78.2341 45.528 78.7541 45.312 79.4101 45.312C80.0821 45.312 80.6021 45.48 80.9701 45.816C81.3541 46.136 81.5461 46.56 81.5461 47.088C81.5461 47.6 81.4741 48.04 81.3301 48.408H80.5381C80.4421 48.664 80.3941 48.968 80.3941 49.32C80.3941 49.656 80.5301 49.984 80.8021 50.304C81.0741 50.608 81.4741 50.76 82.0021 50.76C82.5301 50.76 82.9301 50.68 83.2021 50.52C83.4741 50.344 83.6821 50.136 83.8261 49.896C83.9701 49.656 84.0821 49.28 84.1621 48.768C84.2581 48.032 84.3061 46.904 84.3061 45.384ZM93.019 51.24C92.331 51.24 91.811 51.04 91.459 50.64C91.123 50.224 90.955 49.728 90.955 49.152C90.955 48.56 91.131 48.064 91.483 47.664C91.851 47.264 92.363 47.064 93.019 47.064C93.675 47.064 94.195 47.232 94.579 47.568C94.963 47.904 95.155 48.408 95.155 49.08C95.155 49.752 94.971 50.28 94.603 50.664C94.251 51.048 93.723 51.24 93.019 51.24ZM104.172 39.576V48.936C104.172 51.56 103.716 53.56 102.804 54.936C101.908 56.312 100.436 57 98.3884 57C97.0604 57 96.0924 56.736 95.4844 56.208C94.8604 55.68 94.5484 55.064 94.5484 54.36C94.5484 53.656 94.7564 53.112 95.1724 52.728C95.5884 52.36 96.1084 52.176 96.7324 52.176C97.3564 52.176 97.8284 52.344 98.1484 52.68C98.4524 53.032 98.6044 53.416 98.6044 53.832C98.6044 54.248 98.5564 54.648 98.4604 55.032H97.5484C97.2924 55.464 97.2604 55.832 97.4524 56.136C97.6284 56.44 97.9564 56.592 98.4364 56.592C98.9324 56.592 99.2684 56.312 99.4444 55.752C99.6204 55.208 99.7084 54.072 99.7084 52.344V40.008H98.1484V39.576H104.172ZM101.892 37.92C101.044 37.92 100.436 37.704 100.068 37.272C99.7164 36.84 99.5404 36.304 99.5404 35.664C99.5404 35.024 99.7324 34.496 100.116 34.08C100.516 33.664 101.116 33.456 101.916 33.456C102.716 33.456 103.324 33.648 103.74 34.032C104.156 34.4 104.364 34.936 104.364 35.64C104.364 36.328 104.164 36.88 103.764 37.296C103.364 37.712 102.74 37.92 101.892 37.92ZM106.229 51.24V46.944H106.518C106.934 48.336 107.494 49.312 108.198 49.872C108.902 50.432 109.782 50.712 110.838 50.712C112.47 50.712 113.286 50.192 113.286 49.152C113.286 48.704 113.086 48.368 112.686 48.144C112.062 47.792 111.262 47.52 110.286 47.328C109.198 47.04 108.286 46.656 107.55 46.176C106.67 45.6 106.229 44.688 106.229 43.44C106.229 42.192 106.613 41.2 107.382 40.464C108.15 39.712 109.174 39.336 110.454 39.336C111.238 39.336 112.046 39.52 112.878 39.888C113.182 40.016 113.414 40.08 113.574 40.08C113.734 40.08 113.87 40.024 113.982 39.912C114.094 39.8 114.23 39.592 114.39 39.288H114.654V42.96H114.366C113.55 40.88 112.286 39.84 110.574 39.84C109.822 39.84 109.262 39.976 108.894 40.248C108.526 40.504 108.342 40.832 108.342 41.232C108.342 41.472 108.398 41.664 108.51 41.808C108.622 41.936 108.71 42.032 108.774 42.096C108.838 42.16 108.942 42.232 109.086 42.312C109.23 42.376 109.35 42.432 109.446 42.48C109.542 42.512 109.686 42.56 109.878 42.624C110.086 42.688 110.238 42.728 110.334 42.744C111.422 43.016 112.206 43.256 112.686 43.464C113.166 43.656 113.622 43.896 114.054 44.184C114.934 44.792 115.374 45.776 115.374 47.136C115.374 48.48 114.974 49.504 114.174 50.208C113.374 50.896 112.278 51.24 110.886 51.24C109.894 51.24 108.934 51.008 108.006 50.544C107.814 50.416 107.662 50.352 107.55 50.352C107.198 50.352 106.854 50.648 106.518 51.24H106.229ZM128.604 40.008V39.576H134.796V40.008H133.812L135.972 48.096L138.108 40.008H136.452V39.576H139.692V40.008H138.684L135.804 51H132.516L130.428 43.632L128.172 51H124.956L121.404 40.008H120.324V39.576H127.596V40.008H126.156L128.364 48.168L130.092 42.552L129.492 40.008H128.604ZM147.32 46.272V44.232C147.32 42.68 147.232 41.552 147.056 40.848C146.896 40.128 146.512 39.768 145.904 39.768C145.552 39.768 145.264 39.872 145.04 40.08C144.832 40.272 144.68 40.6 144.584 41.064C144.44 41.784 144.368 42.88 144.368 44.352V46.224C144.368 47.968 144.416 49.016 144.512 49.368C144.624 49.72 144.736 50.008 144.848 50.232C145.024 50.616 145.368 50.808 145.88 50.808C146.504 50.808 146.912 50.448 147.104 49.728C147.248 49.216 147.32 48.064 147.32 46.272ZM145.832 51.24C143.832 51.24 142.32 50.728 141.296 49.704C140.272 48.68 139.76 47.216 139.76 45.312C139.76 43.392 140.304 41.92 141.392 40.896C142.496 39.856 144.04 39.336 146.024 39.336C148.008 39.336 149.488 39.816 150.464 40.776C151.44 41.72 151.928 43.168 151.928 45.12C151.928 49.2 149.896 51.24 145.832 51.24ZM160.615 40.248C160.023 40.248 159.503 40.632 159.055 41.4C158.607 42.168 158.383 43.08 158.383 44.136V50.568H160.087V51H152.599V50.568H153.919V40.008H152.599V39.576H158.383V41.88C158.591 41.064 158.991 40.44 159.583 40.008C160.175 39.56 160.847 39.336 161.599 39.336C162.351 39.336 162.959 39.552 163.423 39.984C163.903 40.4 164.143 41 164.143 41.784C164.143 42.552 163.967 43.144 163.615 43.56C163.263 43.976 162.719 44.184 161.983 44.184C161.263 44.184 160.727 43.944 160.375 43.464C160.039 42.984 159.999 42.32 160.255 41.472H161.119C161.519 40.656 161.351 40.248 160.615 40.248ZM172.096 51V50.568H173.2L170.488 45L170.032 45.12V50.568H171.136V51H164.248V50.568H165.568V33.432H164.152V33H170.032V44.64L170.416 44.496L175.816 40.008H173.56V39.576H178.288V40.008H176.608L173.752 42.432L177.904 50.568H178.768V51H172.096ZM179.683 51.24V46.944H179.971C180.387 48.336 180.947 49.312 181.651 49.872C182.355 50.432 183.235 50.712 184.291 50.712C185.923 50.712 186.739 50.192 186.739 49.152C186.739 48.704 186.539 48.368 186.139 48.144C185.515 47.792 184.715 47.52 183.739 47.328C182.651 47.04 181.739 46.656 181.003 46.176C180.123 45.6 179.683 44.688 179.683 43.44C179.683 42.192 180.067 41.2 180.835 40.464C181.603 39.712 182.627 39.336 183.907 39.336C184.691 39.336 185.499 39.52 186.331 39.888C186.635 40.016 186.867 40.08 187.027 40.08C187.187 40.08 187.323 40.024 187.435 39.912C187.547 39.8 187.683 39.592 187.843 39.288H188.107V42.96H187.819C187.003 40.88 185.739 39.84 184.027 39.84C183.275 39.84 182.715 39.976 182.347 40.248C181.979 40.504 181.795 40.832 181.795 41.232C181.795 41.472 181.851 41.664 181.963 41.808C182.075 41.936 182.163 42.032 182.227 42.096C182.291 42.16 182.395 42.232 182.539 42.312C182.683 42.376 182.803 42.432 182.899 42.48C182.995 42.512 183.139 42.56 183.331 42.624C183.539 42.688 183.691 42.728 183.787 42.744C184.875 43.016 185.659 43.256 186.139 43.464C186.619 43.656 187.075 43.896 187.507 44.184C188.387 44.792 188.827 45.776 188.827 47.136C188.827 48.48 188.427 49.504 187.627 50.208C186.827 50.896 185.731 51.24 184.339 51.24C183.347 51.24 182.387 51.008 181.459 50.544C181.267 50.416 181.115 50.352 181.003 50.352C180.651 50.352 180.307 50.648 179.971 51.24H179.683Z" fill="white"/>
<path d="M107.78 223.12C107.14 223.12 106.544 223.016 105.992 222.808C105.448 222.592 104.972 222.292 104.564 221.908C104.164 221.516 103.852 221.056 103.628 220.528C103.404 220 103.292 219.424 103.292 218.8C103.292 218.176 103.404 217.6 103.628 217.072C103.852 216.544 104.168 216.088 104.576 215.704C104.984 215.312 105.46 215.012 106.004 214.804C106.548 214.588 107.144 214.48 107.792 214.48C108.48 214.48 109.108 214.6 109.676 214.84C110.244 215.072 110.724 215.42 111.116 215.884L110.108 216.832C109.804 216.504 109.464 216.26 109.088 216.1C108.712 215.932 108.304 215.848 107.864 215.848C107.424 215.848 107.02 215.92 106.652 216.064C106.292 216.208 105.976 216.412 105.704 216.676C105.44 216.94 105.232 217.252 105.08 217.612C104.936 217.972 104.864 218.368 104.864 218.8C104.864 219.232 104.936 219.628 105.08 219.988C105.232 220.348 105.44 220.66 105.704 220.924C105.976 221.188 106.292 221.392 106.652 221.536C107.02 221.68 107.424 221.752 107.864 221.752C108.304 221.752 108.712 221.672 109.088 221.512C109.464 221.344 109.804 221.092 110.108 220.756L111.116 221.716C110.724 222.172 110.244 222.52 109.676 222.76C109.108 223 108.476 223.12 107.78 223.12ZM115.1 223.084C114.444 223.084 113.86 222.944 113.348 222.664C112.836 222.376 112.432 221.984 112.136 221.488C111.84 220.992 111.692 220.428 111.692 219.796C111.692 219.156 111.84 218.592 112.136 218.104C112.432 217.608 112.836 217.22 113.348 216.94C113.86 216.66 114.444 216.52 115.1 216.52C115.764 216.52 116.352 216.66 116.864 216.94C117.384 217.22 117.788 217.604 118.076 218.092C118.372 218.58 118.52 219.148 118.52 219.796C118.52 220.428 118.372 220.992 118.076 221.488C117.788 221.984 117.384 222.376 116.864 222.664C116.352 222.944 115.764 223.084 115.1 223.084ZM115.1 221.8C115.468 221.8 115.796 221.72 116.084 221.56C116.372 221.4 116.596 221.168 116.756 220.864C116.924 220.56 117.008 220.204 117.008 219.796C117.008 219.38 116.924 219.024 116.756 218.728C116.596 218.424 116.372 218.192 116.084 218.032C115.796 217.872 115.472 217.792 115.112 217.792C114.744 217.792 114.416 217.872 114.128 218.032C113.848 218.192 113.624 218.424 113.456 218.728C113.288 219.024 113.204 219.38 113.204 219.796C113.204 220.204 113.288 220.56 113.456 220.864C113.624 221.168 113.848 221.4 114.128 221.56C114.416 221.72 114.74 221.8 115.1 221.8ZM122.667 223.084C122.051 223.084 121.495 222.948 120.999 222.676C120.511 222.396 120.127 222.012 119.847 221.524C119.567 221.036 119.427 220.46 119.427 219.796C119.427 219.132 119.567 218.556 119.847 218.068C120.127 217.58 120.511 217.2 120.999 216.928C121.495 216.656 122.051 216.52 122.667 216.52C123.203 216.52 123.683 216.64 124.107 216.88C124.531 217.112 124.867 217.468 125.115 217.948C125.363 218.428 125.487 219.044 125.487 219.796C125.487 220.54 125.367 221.156 125.127 221.644C124.887 222.124 124.555 222.484 124.131 222.724C123.707 222.964 123.219 223.084 122.667 223.084ZM122.847 221.8C123.207 221.8 123.527 221.72 123.807 221.56C124.095 221.4 124.323 221.168 124.491 220.864C124.667 220.56 124.755 220.204 124.755 219.796C124.755 219.38 124.667 219.024 124.491 218.728C124.323 218.424 124.095 218.192 123.807 218.032C123.527 217.872 123.207 217.792 122.847 217.792C122.487 217.792 122.163 217.872 121.875 218.032C121.595 218.192 121.367 218.424 121.191 218.728C121.023 219.024 120.939 219.38 120.939 219.796C120.939 220.204 121.023 220.56 121.191 220.864C121.367 221.168 121.595 221.4 121.875 221.56C122.163 221.72 122.487 221.8 122.847 221.8ZM124.791 223V221.488L124.851 219.784L124.731 218.08V214.096H126.219V223H124.791ZM128.193 223V216.592H129.693V223H128.193ZM128.949 215.536C128.669 215.536 128.437 215.448 128.253 215.272C128.077 215.096 127.989 214.884 127.989 214.636C127.989 214.38 128.077 214.168 128.253 214C128.437 213.824 128.669 213.736 128.949 213.736C129.229 213.736 129.457 213.82 129.633 213.988C129.817 214.148 129.909 214.352 129.909 214.6C129.909 214.864 129.821 215.088 129.645 215.272C129.469 215.448 129.237 215.536 128.949 215.536ZM135.298 216.52C135.81 216.52 136.266 216.62 136.666 216.82C137.074 217.02 137.394 217.328 137.626 217.744C137.858 218.152 137.974 218.68 137.974 219.328V223H136.474V219.52C136.474 218.952 136.338 218.528 136.066 218.248C135.802 217.968 135.43 217.828 134.95 217.828C134.598 217.828 134.286 217.9 134.014 218.044C133.742 218.188 133.53 218.404 133.378 218.692C133.234 218.972 133.162 219.328 133.162 219.76V223H131.662V216.592H133.09V218.32L132.838 217.792C133.062 217.384 133.386 217.072 133.81 216.856C134.242 216.632 134.738 216.52 135.298 216.52ZM142.792 225.412C142.2 225.412 141.62 225.332 141.052 225.172C140.492 225.02 140.032 224.796 139.672 224.5L140.344 223.372C140.624 223.604 140.976 223.788 141.4 223.924C141.832 224.068 142.268 224.14 142.708 224.14C143.412 224.14 143.928 223.976 144.256 223.648C144.584 223.328 144.748 222.844 144.748 222.196V221.056L144.868 219.604L144.82 218.152V216.592H146.248V222.028C146.248 223.188 145.952 224.04 145.36 224.584C144.768 225.136 143.912 225.412 142.792 225.412ZM142.6 222.712C141.992 222.712 141.44 222.584 140.944 222.328C140.456 222.064 140.068 221.7 139.78 221.236C139.5 220.772 139.36 220.228 139.36 219.604C139.36 218.988 139.5 218.448 139.78 217.984C140.068 217.52 140.456 217.16 140.944 216.904C141.44 216.648 141.992 216.52 142.6 216.52C143.144 216.52 143.632 216.628 144.064 216.844C144.496 217.06 144.84 217.396 145.096 217.852C145.36 218.308 145.492 218.892 145.492 219.604C145.492 220.316 145.36 220.904 145.096 221.368C144.84 221.824 144.496 222.164 144.064 222.388C143.632 222.604 143.144 222.712 142.6 222.712ZM142.828 221.44C143.204 221.44 143.54 221.364 143.836 221.212C144.132 221.052 144.36 220.836 144.52 220.564C144.688 220.284 144.772 219.964 144.772 219.604C144.772 219.244 144.688 218.928 144.52 218.656C144.36 218.376 144.132 218.164 143.836 218.02C143.54 217.868 143.204 217.792 142.828 217.792C142.452 217.792 142.112 217.868 141.808 218.02C141.512 218.164 141.28 218.376 141.112 218.656C140.952 218.928 140.872 219.244 140.872 219.604C140.872 219.964 140.952 220.284 141.112 220.564C141.28 220.836 141.512 221.052 141.808 221.212C142.112 221.364 142.452 221.44 142.828 221.44Z" fill="white"/>
</svg>
