<svg width="250" height="250" viewBox="0 0 250 250" fill="none" xmlns="http://www.w3.org/2000/svg">
<circle cx="125" cy="125" r="125" fill="#ED1F5E"/>
<path d="M62.0631 34.2H69.1191C71.5351 34.2 73.3351 34.552 74.5191 35.256C75.7031 35.944 76.2951 37.184 76.2951 38.976C76.2951 40.96 75.5751 42.328 74.1351 43.08C72.7911 43.768 70.9111 44.112 68.4951 44.112H68.3031V50.544H71.3031V51H62.0631V50.544H63.6231V34.656H62.0631V34.2ZM68.3031 34.656V43.656H68.8071C69.7671 43.656 70.4311 43.328 70.7991 42.672C71.1671 42.016 71.3511 40.952 71.3511 39.48V38.328C71.3511 36.968 71.1751 36.016 70.8231 35.472C70.4871 34.928 69.8631 34.656 68.9511 34.656H68.3031ZM84.3061 45.384C84.3061 43.864 84.1701 42.8 83.8981 42.192C83.6421 41.584 83.0501 41.28 82.1221 41.28C81.1941 41.28 80.1781 41.624 79.0741 42.312L78.6661 42.12V34.464L79.0501 34.176C80.0261 34.32 81.5061 34.496 83.4901 34.704C85.4741 34.896 86.6181 34.992 86.9221 34.992C87.2421 34.992 87.4661 34.92 87.5941 34.776C87.7381 34.616 87.8581 34.352 87.9541 33.984L88.3141 34.032C88.0741 36.48 87.7621 37.936 87.3781 38.4C87.1701 38.64 86.9061 38.76 86.5861 38.76C86.2661 38.76 85.5941 38.624 84.5701 38.352L79.3381 36.984L79.2181 41.64C80.3861 41.016 81.5941 40.704 82.8421 40.704C84.0901 40.704 85.1301 40.848 85.9621 41.136C86.7941 41.408 87.4341 41.792 87.8821 42.288C88.7301 43.232 89.1541 44.376 89.1541 45.72C89.1541 47.432 88.5381 48.784 87.3061 49.776C86.0901 50.752 84.4101 51.24 82.2661 51.24C81.1141 51.24 80.0501 51 79.0741 50.52C78.5461 50.248 78.1141 49.864 77.7781 49.368C77.4581 48.856 77.2981 48.272 77.2981 47.616C77.2981 46.944 77.4821 46.392 77.8501 45.96C78.2341 45.528 78.7541 45.312 79.4101 45.312C80.0821 45.312 80.6021 45.48 80.9701 45.816C81.3541 46.136 81.5461 46.56 81.5461 47.088C81.5461 47.6 81.4741 48.04 81.3301 48.408H80.5381C80.4421 48.664 80.3941 48.968 80.3941 49.32C80.3941 49.656 80.5301 49.984 80.8021 50.304C81.0741 50.608 81.4741 50.76 82.0021 50.76C82.5301 50.76 82.9301 50.68 83.2021 50.52C83.4741 50.344 83.6821 50.136 83.8261 49.896C83.9701 49.656 84.0821 49.28 84.1621 48.768C84.2581 48.032 84.3061 46.904 84.3061 45.384ZM93.019 51.24C92.331 51.24 91.811 51.04 91.459 50.64C91.123 50.224 90.955 49.728 90.955 49.152C90.955 48.56 91.131 48.064 91.483 47.664C91.851 47.264 92.363 47.064 93.019 47.064C93.675 47.064 94.195 47.232 94.579 47.568C94.963 47.904 95.155 48.408 95.155 49.08C95.155 49.752 94.971 50.28 94.603 50.664C94.251 51.048 93.723 51.24 93.019 51.24ZM104.172 39.576V48.936C104.172 51.56 103.716 53.56 102.804 54.936C101.908 56.312 100.436 57 98.3884 57C97.0604 57 96.0924 56.736 95.4844 56.208C94.8604 55.68 94.5484 55.064 94.5484 54.36C94.5484 53.656 94.7564 53.112 95.1724 52.728C95.5884 52.36 96.1084 52.176 96.7324 52.176C97.3564 52.176 97.8284 52.344 98.1484 52.68C98.4524 53.032 98.6044 53.416 98.6044 53.832C98.6044 54.248 98.5564 54.648 98.4604 55.032H97.5484C97.2924 55.464 97.2604 55.832 97.4524 56.136C97.6284 56.44 97.9564 56.592 98.4364 56.592C98.9324 56.592 99.2684 56.312 99.4444 55.752C99.6204 55.208 99.7084 54.072 99.7084 52.344V40.008H98.1484V39.576H104.172ZM101.892 37.92C101.044 37.92 100.436 37.704 100.068 37.272C99.7164 36.84 99.5404 36.304 99.5404 35.664C99.5404 35.024 99.7324 34.496 100.116 34.08C100.516 33.664 101.116 33.456 101.916 33.456C102.716 33.456 103.324 33.648 103.74 34.032C104.156 34.4 104.364 34.936 104.364 35.64C104.364 36.328 104.164 36.88 103.764 37.296C103.364 37.712 102.74 37.92 101.892 37.92ZM106.229 51.24V46.944H106.518C106.934 48.336 107.494 49.312 108.198 49.872C108.902 50.432 109.782 50.712 110.838 50.712C112.47 50.712 113.286 50.192 113.286 49.152C113.286 48.704 113.086 48.368 112.686 48.144C112.062 47.792 111.262 47.52 110.286 47.328C109.198 47.04 108.286 46.656 107.55 46.176C106.67 45.6 106.229 44.688 106.229 43.44C106.229 42.192 106.613 41.2 107.382 40.464C108.15 39.712 109.174 39.336 110.454 39.336C111.238 39.336 112.046 39.52 112.878 39.888C113.182 40.016 113.414 40.08 113.574 40.08C113.734 40.08 113.87 40.024 113.982 39.912C114.094 39.8 114.23 39.592 114.39 39.288H114.654V42.96H114.366C113.55 40.88 112.286 39.84 110.574 39.84C109.822 39.84 109.262 39.976 108.894 40.248C108.526 40.504 108.342 40.832 108.342 41.232C108.342 41.472 108.398 41.664 108.51 41.808C108.622 41.936 108.71 42.032 108.774 42.096C108.838 42.16 108.942 42.232 109.086 42.312C109.23 42.376 109.35 42.432 109.446 42.48C109.542 42.512 109.686 42.56 109.878 42.624C110.086 42.688 110.238 42.728 110.334 42.744C111.422 43.016 112.206 43.256 112.686 43.464C113.166 43.656 113.622 43.896 114.054 44.184C114.934 44.792 115.374 45.776 115.374 47.136C115.374 48.48 114.974 49.504 114.174 50.208C113.374 50.896 112.278 51.24 110.886 51.24C109.894 51.24 108.934 51.008 108.006 50.544C107.814 50.416 107.662 50.352 107.55 50.352C107.198 50.352 106.854 50.648 106.518 51.24H106.229ZM128.604 40.008V39.576H134.796V40.008H133.812L135.972 48.096L138.108 40.008H136.452V39.576H139.692V40.008H138.684L135.804 51H132.516L130.428 43.632L128.172 51H124.956L121.404 40.008H120.324V39.576H127.596V40.008H126.156L128.364 48.168L130.092 42.552L129.492 40.008H128.604ZM147.32 46.272V44.232C147.32 42.68 147.232 41.552 147.056 40.848C146.896 40.128 146.512 39.768 145.904 39.768C145.552 39.768 145.264 39.872 145.04 40.08C144.832 40.272 144.68 40.6 144.584 41.064C144.44 41.784 144.368 42.88 144.368 44.352V46.224C144.368 47.968 144.416 49.016 144.512 49.368C144.624 49.72 144.736 50.008 144.848 50.232C145.024 50.616 145.368 50.808 145.88 50.808C146.504 50.808 146.912 50.448 147.104 49.728C147.248 49.216 147.32 48.064 147.32 46.272ZM145.832 51.24C143.832 51.24 142.32 50.728 141.296 49.704C140.272 48.68 139.76 47.216 139.76 45.312C139.76 43.392 140.304 41.92 141.392 40.896C142.496 39.856 144.04 39.336 146.024 39.336C148.008 39.336 149.488 39.816 150.464 40.776C151.44 41.72 151.928 43.168 151.928 45.12C151.928 49.2 149.896 51.24 145.832 51.24ZM160.615 40.248C160.023 40.248 159.503 40.632 159.055 41.4C158.607 42.168 158.383 43.08 158.383 44.136V50.568H160.087V51H152.599V50.568H153.919V40.008H152.599V39.576H158.383V41.88C158.591 41.064 158.991 40.44 159.583 40.008C160.175 39.56 160.847 39.336 161.599 39.336C162.351 39.336 162.959 39.552 163.423 39.984C163.903 40.4 164.143 41 164.143 41.784C164.143 42.552 163.967 43.144 163.615 43.56C163.263 43.976 162.719 44.184 161.983 44.184C161.263 44.184 160.727 43.944 160.375 43.464C160.039 42.984 159.999 42.32 160.255 41.472H161.119C161.519 40.656 161.351 40.248 160.615 40.248ZM172.096 51V50.568H173.2L170.488 45L170.032 45.12V50.568H171.136V51H164.248V50.568H165.568V33.432H164.152V33H170.032V44.64L170.416 44.496L175.816 40.008H173.56V39.576H178.288V40.008H176.608L173.752 42.432L177.904 50.568H178.768V51H172.096ZM179.683 51.24V46.944H179.971C180.387 48.336 180.947 49.312 181.651 49.872C182.355 50.432 183.235 50.712 184.291 50.712C185.923 50.712 186.739 50.192 186.739 49.152C186.739 48.704 186.539 48.368 186.139 48.144C185.515 47.792 184.715 47.52 183.739 47.328C182.651 47.04 181.739 46.656 181.003 46.176C180.123 45.6 179.683 44.688 179.683 43.44C179.683 42.192 180.067 41.2 180.835 40.464C181.603 39.712 182.627 39.336 183.907 39.336C184.691 39.336 185.499 39.52 186.331 39.888C186.635 40.016 186.867 40.08 187.027 40.08C187.187 40.08 187.323 40.024 187.435 39.912C187.547 39.8 187.683 39.592 187.843 39.288H188.107V42.96H187.819C187.003 40.88 185.739 39.84 184.027 39.84C183.275 39.84 182.715 39.976 182.347 40.248C181.979 40.504 181.795 40.832 181.795 41.232C181.795 41.472 181.851 41.664 181.963 41.808C182.075 41.936 182.163 42.032 182.227 42.096C182.291 42.16 182.395 42.232 182.539 42.312C182.683 42.376 182.803 42.432 182.899 42.48C182.995 42.512 183.139 42.56 183.331 42.624C183.539 42.688 183.691 42.728 183.787 42.744C184.875 43.016 185.659 43.256 186.139 43.464C186.619 43.656 187.075 43.896 187.507 44.184C188.387 44.792 188.827 45.776 188.827 47.136C188.827 48.48 188.427 49.504 187.627 50.208C186.827 50.896 185.731 51.24 184.339 51.24C183.347 51.24 182.387 51.008 181.459 50.544C181.267 50.416 181.115 50.352 181.003 50.352C180.651 50.352 180.307 50.648 179.971 51.24H179.683Z" fill="white"/>
<path d="M107.759 221.12C107.111 221.12 106.503 221 105.935 220.76C105.375 220.512 104.883 220.172 104.459 219.74C104.043 219.3 103.715 218.788 103.475 218.204C103.243 217.62 103.127 216.988 103.127 216.308C103.127 215.636 103.243 215.012 103.475 214.436C103.715 213.852 104.043 213.344 104.459 212.912C104.883 212.472 105.375 212.128 105.935 211.88C106.495 211.632 107.103 211.508 107.759 211.508C108.375 211.508 108.903 211.588 109.343 211.748C109.791 211.908 110.239 212.172 110.687 212.54C110.751 212.588 110.799 212.64 110.831 212.696C110.871 212.744 110.895 212.796 110.903 212.852C110.919 212.9 110.927 212.96 110.927 213.032C110.927 213.184 110.871 213.312 110.759 213.416C110.655 213.512 110.527 213.568 110.375 213.584C110.223 213.592 110.075 213.54 109.931 213.428C109.635 213.172 109.327 212.976 109.007 212.84C108.695 212.704 108.279 212.636 107.759 212.636C107.287 212.636 106.843 212.732 106.427 212.924C106.011 213.116 105.643 213.38 105.323 213.716C105.011 214.052 104.767 214.444 104.591 214.892C104.415 215.332 104.327 215.804 104.327 216.308C104.327 216.82 104.415 217.3 104.591 217.748C104.767 218.188 105.011 218.576 105.323 218.912C105.643 219.248 106.011 219.512 106.427 219.704C106.843 219.888 107.287 219.98 107.759 219.98C108.167 219.98 108.551 219.912 108.911 219.776C109.279 219.632 109.631 219.436 109.967 219.188C110.111 219.084 110.251 219.04 110.387 219.056C110.531 219.064 110.651 219.12 110.747 219.224C110.843 219.32 110.891 219.456 110.891 219.632C110.891 219.712 110.875 219.792 110.843 219.872C110.811 219.944 110.763 220.012 110.699 220.076C110.267 220.42 109.803 220.68 109.307 220.856C108.819 221.032 108.303 221.12 107.759 221.12ZM115.263 221.048C114.615 221.048 114.043 220.908 113.547 220.628C113.051 220.34 112.659 219.948 112.371 219.452C112.091 218.948 111.951 218.372 111.951 217.724C111.951 217.068 112.091 216.492 112.371 215.996C112.659 215.492 113.051 215.1 113.547 214.82C114.043 214.532 114.615 214.388 115.263 214.388C115.903 214.388 116.471 214.532 116.967 214.82C117.463 215.1 117.851 215.492 118.131 215.996C118.419 216.492 118.563 217.068 118.563 217.724C118.563 218.372 118.423 218.948 118.143 219.452C117.863 219.948 117.475 220.34 116.979 220.628C116.483 220.908 115.911 221.048 115.263 221.048ZM115.263 219.968C115.679 219.968 116.047 219.872 116.367 219.68C116.687 219.488 116.935 219.224 117.111 218.888C117.295 218.552 117.387 218.164 117.387 217.724C117.387 217.284 117.295 216.896 117.111 216.56C116.935 216.216 116.687 215.948 116.367 215.756C116.047 215.564 115.679 215.468 115.263 215.468C114.847 215.468 114.479 215.564 114.159 215.756C113.839 215.948 113.587 216.216 113.403 216.56C113.219 216.896 113.127 217.284 113.127 217.724C113.127 218.164 113.219 218.552 113.403 218.888C113.587 219.224 113.839 219.488 114.159 219.68C114.479 219.872 114.847 219.968 115.263 219.968ZM123.361 221.048C122.737 221.048 122.173 220.904 121.669 220.616C121.173 220.32 120.777 219.92 120.481 219.416C120.193 218.912 120.049 218.344 120.049 217.712C120.049 217.08 120.181 216.516 120.445 216.02C120.717 215.516 121.085 215.12 121.549 214.832C122.013 214.536 122.537 214.388 123.121 214.388C123.593 214.388 124.029 214.488 124.429 214.688C124.829 214.88 125.165 215.144 125.437 215.48V212.24C125.437 212.056 125.493 211.908 125.605 211.796C125.725 211.684 125.873 211.628 126.049 211.628C126.233 211.628 126.381 211.684 126.493 211.796C126.605 211.908 126.661 212.056 126.661 212.24V217.712C126.661 218.344 126.513 218.912 126.217 219.416C125.929 219.92 125.537 220.32 125.041 220.616C124.545 220.904 123.985 221.048 123.361 221.048ZM123.361 219.968C123.769 219.968 124.133 219.872 124.453 219.68C124.773 219.48 125.025 219.208 125.209 218.864C125.393 218.52 125.485 218.136 125.485 217.712C125.485 217.28 125.393 216.896 125.209 216.56C125.025 216.224 124.773 215.96 124.453 215.768C124.133 215.568 123.769 215.468 123.361 215.468C122.961 215.468 122.597 215.568 122.269 215.768C121.949 215.96 121.693 216.224 121.501 216.56C121.317 216.896 121.225 217.28 121.225 217.712C121.225 218.136 121.317 218.52 121.501 218.864C121.693 219.208 121.949 219.48 122.269 219.68C122.597 219.872 122.961 219.968 123.361 219.968ZM129.554 221C129.378 221 129.23 220.944 129.11 220.832C128.998 220.712 128.942 220.564 128.942 220.388V215.048C128.942 214.864 128.998 214.716 129.11 214.604C129.23 214.492 129.378 214.436 129.554 214.436C129.738 214.436 129.886 214.492 129.998 214.604C130.11 214.716 130.166 214.864 130.166 215.048V220.388C130.166 220.564 130.11 220.712 129.998 220.832C129.886 220.944 129.738 221 129.554 221ZM129.554 213.368C129.338 213.368 129.15 213.292 128.99 213.14C128.838 212.98 128.762 212.792 128.762 212.576C128.762 212.36 128.838 212.176 128.99 212.024C129.15 211.864 129.338 211.784 129.554 211.784C129.77 211.784 129.954 211.864 130.106 212.024C130.266 212.176 130.346 212.36 130.346 212.576C130.346 212.792 130.266 212.98 130.106 213.14C129.954 213.292 129.77 213.368 129.554 213.368ZM137.987 221.012C137.811 221.012 137.663 220.956 137.543 220.844C137.431 220.724 137.375 220.576 137.375 220.4V217.448C137.375 216.992 137.291 216.62 137.123 216.332C136.955 216.044 136.727 215.832 136.439 215.696C136.159 215.552 135.835 215.48 135.467 215.48C135.131 215.48 134.827 215.548 134.555 215.684C134.283 215.82 134.067 216.004 133.907 216.236C133.747 216.46 133.667 216.72 133.667 217.016H132.911C132.911 216.512 133.031 216.064 133.271 215.672C133.519 215.272 133.855 214.956 134.279 214.724C134.703 214.492 135.179 214.376 135.707 214.376C136.259 214.376 136.751 214.496 137.183 214.736C137.623 214.968 137.967 215.312 138.215 215.768C138.471 216.224 138.599 216.784 138.599 217.448V220.4C138.599 220.576 138.539 220.724 138.419 220.844C138.307 220.956 138.163 221.012 137.987 221.012ZM133.055 221.012C132.879 221.012 132.731 220.956 132.611 220.844C132.499 220.724 132.443 220.576 132.443 220.4V215.048C132.443 214.864 132.499 214.716 132.611 214.604C132.731 214.492 132.879 214.436 133.055 214.436C133.239 214.436 133.387 214.492 133.499 214.604C133.611 214.716 133.667 214.864 133.667 215.048V220.4C133.667 220.576 133.611 220.724 133.499 220.844C133.387 220.956 133.239 221.012 133.055 221.012ZM143.359 221.048C142.759 221.048 142.227 220.908 141.763 220.628C141.307 220.34 140.947 219.948 140.683 219.452C140.419 218.948 140.287 218.372 140.287 217.724C140.287 217.068 140.427 216.492 140.707 215.996C140.995 215.492 141.387 215.1 141.883 214.82C142.379 214.532 142.951 214.388 143.599 214.388C144.239 214.388 144.807 214.532 145.303 214.82C145.799 215.1 146.187 215.492 146.467 215.996C146.755 216.492 146.899 217.068 146.899 217.724H146.191C146.191 218.372 146.067 218.948 145.819 219.452C145.579 219.948 145.247 220.34 144.823 220.628C144.399 220.908 143.911 221.048 143.359 221.048ZM143.575 223.724C143.007 223.724 142.475 223.612 141.979 223.388C141.483 223.164 141.063 222.836 140.719 222.404C140.615 222.268 140.575 222.128 140.599 221.984C140.631 221.84 140.711 221.724 140.839 221.636C140.983 221.54 141.131 221.508 141.283 221.54C141.443 221.572 141.571 221.652 141.667 221.78C141.883 222.052 142.155 222.264 142.483 222.416C142.811 222.568 143.183 222.644 143.599 222.644C143.983 222.644 144.335 222.552 144.655 222.368C144.983 222.184 145.243 221.912 145.435 221.552C145.627 221.192 145.723 220.752 145.723 220.232V218.528L146.119 217.472L146.899 217.724V220.316C146.899 220.948 146.759 221.52 146.479 222.032C146.199 222.552 145.807 222.964 145.303 223.268C144.807 223.572 144.231 223.724 143.575 223.724ZM143.599 219.968C144.015 219.968 144.383 219.872 144.703 219.68C145.023 219.488 145.271 219.224 145.447 218.888C145.631 218.552 145.723 218.164 145.723 217.724C145.723 217.284 145.631 216.896 145.447 216.56C145.271 216.216 145.023 215.948 144.703 215.756C144.383 215.564 144.015 215.468 143.599 215.468C143.183 215.468 142.815 215.564 142.495 215.756C142.175 215.948 141.923 216.216 141.739 216.56C141.555 216.896 141.463 217.284 141.463 217.724C141.463 218.164 141.555 218.552 141.739 218.888C141.923 219.224 142.175 219.488 142.495 219.68C142.815 219.872 143.183 219.968 143.599 219.968Z" fill="white"/>
</svg>
