<svg width="250" height="250" viewBox="0 0 250 250" fill="none" xmlns="http://www.w3.org/2000/svg">
<circle cx="125" cy="125" r="125" fill="#DC635F"/>
<path d="M73.1647 36.2H80.2207C82.6367 36.2 84.4367 36.552 85.6207 37.256C86.8047 37.944 87.3967 39.184 87.3967 40.976C87.3967 42.96 86.6767 44.328 85.2367 45.08C83.8927 45.768 82.0127 46.112 79.5967 46.112H79.4047V52.544H82.4047V53H73.1647V52.544H74.7247V36.656H73.1647V36.2ZM79.4047 36.656V45.656H79.9087C80.8687 45.656 81.5327 45.328 81.9007 44.672C82.2687 44.016 82.4527 42.952 82.4527 41.48V40.328C82.4527 38.968 82.2767 38.016 81.9247 37.472C81.5887 36.928 80.9647 36.656 80.0527 36.656H79.4047ZM93.1719 47.36H93.8679V45.512C93.8679 43.992 93.7799 42.976 93.6039 42.464C93.4439 41.936 93.1239 41.672 92.6439 41.672C92.3559 41.672 92.0919 41.752 91.8519 41.912C91.6279 42.056 91.5159 42.264 91.5159 42.536C91.5159 42.792 91.5639 43.056 91.6599 43.328H92.2599C92.3879 43.664 92.4519 44.072 92.4519 44.552C92.4519 45.016 92.2519 45.424 91.8519 45.776C91.4519 46.112 90.9479 46.28 90.3399 46.28C88.9639 46.28 88.2759 45.616 88.2759 44.288C88.2759 42.32 89.9479 41.336 93.2919 41.336C95.1959 41.336 96.5079 41.664 97.2279 42.32C97.9639 42.96 98.3319 44.144 98.3319 45.872V50.744C98.3319 51.576 98.5639 51.992 99.0279 51.992C99.5719 51.992 99.8919 51.168 99.9879 49.52L100.348 49.544C100.284 50.952 100.02 51.92 99.5559 52.448C99.0919 52.976 98.3319 53.24 97.2759 53.24C95.3559 53.24 94.2519 52.648 93.9639 51.464C93.7559 52.072 93.4439 52.52 93.0279 52.808C92.6119 53.096 92.0039 53.24 91.2039 53.24C88.8359 53.24 87.6519 52.272 87.6519 50.336C87.6519 49.2 88.0999 48.424 88.9959 48.008C89.9079 47.576 91.2999 47.36 93.1719 47.36ZM92.2119 50.312C92.2119 51.144 92.2519 51.68 92.3319 51.92C92.4279 52.16 92.5959 52.28 92.8359 52.28C93.0919 52.28 93.3239 52.08 93.5319 51.68C93.7559 51.264 93.8679 50.696 93.8679 49.976V47.744H93.6999C92.7079 47.744 92.2119 48.472 92.2119 49.928V50.312ZM104.112 39.92C103.264 39.92 102.656 39.704 102.288 39.272C101.936 38.84 101.76 38.304 101.76 37.664C101.76 37.024 101.952 36.496 102.336 36.08C102.736 35.664 103.336 35.456 104.136 35.456C104.936 35.456 105.544 35.648 105.96 36.032C106.376 36.4 106.584 36.936 106.584 37.64C106.584 38.328 106.384 38.88 105.984 39.296C105.584 39.712 104.96 39.92 104.112 39.92ZM100.488 41.576H106.368V52.568H107.712V53H100.584V52.568H101.904V42.008H100.488V41.576ZM108.249 41.576H114.033V43.784C114.289 43.048 114.681 42.456 115.209 42.008C115.737 41.56 116.537 41.336 117.609 41.336C120.089 41.336 121.329 42.672 121.329 45.344V52.568H122.673V53H115.881V52.568H116.865V44.768C116.865 43.808 116.801 43.192 116.673 42.92C116.545 42.632 116.313 42.488 115.977 42.488C115.465 42.488 115.009 42.824 114.609 43.496C114.225 44.168 114.033 44.984 114.033 45.944V52.568H115.065V53H108.249V52.568H109.569V42.008H108.249V41.576ZM124.073 49.568V42.008H122.753V41.576H124.073V38.48L128.537 37.376V41.576H131.657V42.008H128.537V50.096C128.537 50.848 128.609 51.4 128.753 51.752C128.913 52.104 129.233 52.28 129.713 52.28C130.193 52.28 130.609 52.04 130.961 51.56C131.329 51.08 131.569 50.424 131.681 49.592L132.089 49.64C131.961 50.744 131.609 51.624 131.033 52.28C130.457 52.92 129.505 53.24 128.177 53.24C126.849 53.24 125.833 52.976 125.129 52.448C124.425 51.92 124.073 50.96 124.073 49.568ZM135.846 39.92C134.998 39.92 134.39 39.704 134.022 39.272C133.67 38.84 133.494 38.304 133.494 37.664C133.494 37.024 133.686 36.496 134.07 36.08C134.47 35.664 135.07 35.456 135.87 35.456C136.67 35.456 137.278 35.648 137.694 36.032C138.11 36.4 138.318 36.936 138.318 37.64C138.318 38.328 138.118 38.88 137.718 39.296C137.318 39.712 136.694 39.92 135.846 39.92ZM132.222 41.576H138.102V52.568H139.446V53H132.318V52.568H133.638V42.008H132.222V41.576ZM139.983 41.576H145.767V43.784C146.023 43.048 146.415 42.456 146.943 42.008C147.471 41.56 148.271 41.336 149.343 41.336C151.823 41.336 153.063 42.672 153.063 45.344V52.568H154.407V53H147.615V52.568H148.599V44.768C148.599 43.808 148.535 43.192 148.407 42.92C148.279 42.632 148.047 42.488 147.711 42.488C147.199 42.488 146.743 42.824 146.343 43.496C145.959 44.168 145.767 44.984 145.767 45.944V52.568H146.799V53H139.983V52.568H141.303V42.008H139.983V41.576ZM164.348 40.328L165.02 39.92C165.116 39.424 164.924 39.176 164.444 39.176C163.756 39.176 163.412 39.704 163.412 40.76C163.412 41.176 163.468 41.656 163.58 42.2C164.796 43.016 165.404 44.064 165.404 45.344C165.404 46.608 164.964 47.592 164.084 48.296C163.204 49 162.012 49.352 160.508 49.352C159.884 49.352 159.236 49.288 158.564 49.16C157.86 49.608 157.508 49.944 157.508 50.168C157.508 50.392 158.02 50.504 159.044 50.504H161.492C165.124 50.504 166.94 51.808 166.94 54.416C166.94 55.824 166.388 56.936 165.284 57.752C164.196 58.584 162.492 59 160.172 59C156.22 59 154.244 58.144 154.244 56.432C154.244 55.504 154.86 54.864 156.092 54.512L157.532 55.16C157.404 55.624 157.34 56.064 157.34 56.48C157.34 57.856 158.364 58.544 160.412 58.544C161.66 58.544 162.62 58.312 163.292 57.848C163.964 57.384 164.3 56.808 164.3 56.12C164.3 55.432 164.092 54.968 163.676 54.728C163.276 54.504 162.468 54.392 161.252 54.392H158.924C157.628 54.392 156.7 54.176 156.14 53.744C155.58 53.312 155.3 52.784 155.3 52.16C155.3 51.52 155.5 50.992 155.9 50.576C156.3 50.144 157.012 49.616 158.036 48.992C156.18 48.464 155.252 47.248 155.252 45.344C155.252 44.144 155.684 43.176 156.548 42.44C157.412 41.704 158.708 41.336 160.436 41.336C161.476 41.336 162.364 41.536 163.1 41.936C163.004 41.504 162.956 41.112 162.956 40.76C162.956 39.864 163.196 39.216 163.676 38.816C164.156 38.416 164.692 38.216 165.284 38.216C165.876 38.216 166.348 38.376 166.7 38.696C167.068 39 167.252 39.424 167.252 39.968C167.252 40.512 167.108 40.92 166.82 41.192C166.532 41.448 166.18 41.576 165.764 41.576C165.364 41.576 165.028 41.472 164.756 41.264C164.5 41.04 164.364 40.728 164.348 40.328ZM159.26 44.816V46.112C159.26 47.184 159.348 47.912 159.524 48.296C159.716 48.68 159.996 48.872 160.364 48.872C160.748 48.872 161.02 48.688 161.18 48.32C161.356 47.936 161.444 47.16 161.444 45.992V44.816C161.444 43.568 161.364 42.752 161.204 42.368C161.044 41.968 160.772 41.768 160.388 41.768C160.02 41.768 159.74 41.976 159.548 42.392C159.356 42.792 159.26 43.6 159.26 44.816ZM167.581 53.24V48.944H167.869C168.285 50.336 168.845 51.312 169.549 51.872C170.253 52.432 171.133 52.712 172.189 52.712C173.821 52.712 174.637 52.192 174.637 51.152C174.637 50.704 174.437 50.368 174.037 50.144C173.413 49.792 172.613 49.52 171.637 49.328C170.549 49.04 169.637 48.656 168.901 48.176C168.021 47.6 167.581 46.688 167.581 45.44C167.581 44.192 167.965 43.2 168.733 42.464C169.501 41.712 170.525 41.336 171.805 41.336C172.589 41.336 173.397 41.52 174.229 41.888C174.533 42.016 174.765 42.08 174.925 42.08C175.085 42.08 175.221 42.024 175.333 41.912C175.445 41.8 175.581 41.592 175.741 41.288H176.005V44.96H175.717C174.901 42.88 173.637 41.84 171.925 41.84C171.173 41.84 170.613 41.976 170.245 42.248C169.877 42.504 169.693 42.832 169.693 43.232C169.693 43.472 169.749 43.664 169.861 43.808C169.973 43.936 170.061 44.032 170.125 44.096C170.189 44.16 170.293 44.232 170.437 44.312C170.581 44.376 170.701 44.432 170.797 44.48C170.893 44.512 171.037 44.56 171.229 44.624C171.437 44.688 171.589 44.728 171.685 44.744C172.773 45.016 173.557 45.256 174.037 45.464C174.517 45.656 174.973 45.896 175.405 46.184C176.285 46.792 176.725 47.776 176.725 49.136C176.725 50.48 176.325 51.504 175.525 52.208C174.725 52.896 173.629 53.24 172.237 53.24C171.245 53.24 170.285 53.008 169.357 52.544C169.165 52.416 169.013 52.352 168.901 52.352C168.549 52.352 168.205 52.648 167.869 53.24H167.581Z" fill="white"/>
</svg>
