<svg width="250" height="250" viewBox="0 0 250 250" fill="none" xmlns="http://www.w3.org/2000/svg">
<circle cx="125" cy="125" r="125" fill="#DC635F"/>
<path d="M81.5645 38.9336C81.5645 41.4036 80.8991 43.3952 79.5684 44.9082C78.2467 46.4121 76.5332 47.1641 74.4277 47.1641C73.1517 47.1641 72.0762 46.9362 71.2012 46.4805C70.39 46.043 69.9844 45.5462 69.9844 44.9902V44.9219C69.9844 44.5391 70.0983 44.2109 70.3262 43.9375C70.554 43.6641 70.832 43.5273 71.1602 43.5273C71.3151 43.5273 71.7526 43.6823 72.4727 43.9922C73.2018 44.3021 73.8626 44.457 74.4551 44.457C75.6947 44.457 76.7201 43.9603 77.5312 42.9668C78.3424 41.9733 78.748 40.7064 78.748 39.166C78.748 37.5801 78.1328 36.2995 76.9023 35.3242C75.6719 34.349 74.054 33.8613 72.0488 33.8613C71.4655 33.8613 70.6361 33.9297 69.5605 34.0664C69.7246 36.6823 69.8066 38.6966 69.8066 40.1094C69.8066 43.1719 69.7428 45.9062 69.6152 48.3125C69.4603 51.1745 69.1139 53.6764 68.5762 55.8184C68.3848 56.584 67.9746 56.9668 67.3457 56.9668C66.3796 56.9668 65.8965 56.3151 65.8965 55.0117C65.8965 55.1576 66.1654 53.0749 66.7031 48.7637C66.8854 47.278 66.9766 45.3457 66.9766 42.9668C66.9766 39.7858 66.9036 37.0879 66.7578 34.873C66.1198 35.2012 65.4134 35.7389 64.6387 36.4863C64.0553 37.0514 63.5951 37.334 63.2578 37.334C62.8841 37.334 62.5605 37.1973 62.2871 36.9238C62.0046 36.6504 61.8633 36.3314 61.8633 35.9668C61.8633 35.5658 62.2461 34.9961 63.0117 34.2578C65.1901 32.1706 68.084 31.127 71.6934 31.127C74.7194 31.127 77.1211 31.8333 78.8984 33.2461C80.6758 34.6497 81.5645 36.5456 81.5645 38.9336ZM95.7422 45.7148C95.7422 48.2122 95.3776 50.8236 94.6484 53.5488C94.2839 54.916 93.7415 55.5996 93.0215 55.5996C92.2832 55.5996 91.9141 55.1803 91.9141 54.3418C91.9141 54.1504 91.9232 54.0091 91.9414 53.918C91.0117 54.4193 90.0501 54.6699 89.0566 54.6699C87.2975 54.6699 85.9212 54.1732 84.9277 53.1797C83.9434 52.1862 83.4512 50.7962 83.4512 49.0098C83.4512 47.196 83.9844 45.7604 85.0508 44.7031C86.1172 43.6367 87.5345 43.1035 89.3027 43.1035C90.8431 43.1035 92.1419 43.6185 93.1992 44.6484C93.026 41.0482 91.6908 39.248 89.1934 39.248C88.6374 39.248 88.0404 39.4167 87.4023 39.7539C86.7734 40.082 86.3633 40.2461 86.1719 40.2461C85.862 40.2461 85.584 40.1185 85.3379 39.8633C85.0918 39.6081 84.9688 39.3164 84.9688 38.9883C84.9688 38.4414 85.3652 37.9355 86.1582 37.4707C87.0059 36.9694 88.0176 36.7188 89.1934 36.7188C93.5592 36.7188 95.7422 39.7174 95.7422 45.7148ZM92.9668 48.9277C92.9668 46.6126 91.8776 45.4551 89.6992 45.4551C87.3112 45.4551 86.1172 46.6035 86.1172 48.9004C86.1172 51.2155 87.3021 52.373 89.6719 52.373C90.7018 52.373 91.5085 52.0723 92.0918 51.4707C92.6751 50.86 92.9668 50.0124 92.9668 48.9277ZM103.467 33.2734C103.467 34.5677 102.833 35.2148 101.566 35.2148C101.056 35.2148 100.623 35.0371 100.268 34.6816C99.9212 34.3262 99.748 33.8978 99.748 33.3965C99.748 32.8496 99.9395 32.3848 100.322 32.002C100.705 31.6191 101.174 31.4277 101.73 31.4277C102.25 31.4277 102.669 31.5964 102.988 31.9336C103.307 32.2708 103.467 32.7174 103.467 33.2734ZM102.879 38.4824C102.879 43.9785 102.683 48.0391 102.291 50.6641C102.136 51.7214 101.963 52.4323 101.771 52.7969C101.525 53.2799 101.129 53.5215 100.582 53.5215C100.217 53.5215 99.9076 53.403 99.6523 53.166C99.3971 52.9199 99.2695 52.6283 99.2695 52.291C99.2695 52.3366 99.3424 52.0221 99.4883 51.3477C99.6615 50.582 99.8027 49.7116 99.9121 48.7363C100.058 47.3509 100.131 45.8014 100.131 44.0879C100.131 43.3405 100.122 42.5521 100.104 41.7227C100.085 40.8932 100.076 40.4421 100.076 40.3691C100.076 39.1387 100.181 38.2819 100.391 37.7988C100.609 37.2702 101.02 37.0059 101.621 37.0059C102.46 37.0059 102.879 37.498 102.879 38.4824ZM120.502 44.7031C120.502 46.8724 120.146 49.028 119.436 51.1699C118.998 52.5007 118.456 53.166 117.809 53.166C117.462 53.166 117.166 53.0612 116.92 52.8516C116.674 52.6328 116.551 52.373 116.551 52.0723C116.551 51.9902 116.77 51.1608 117.207 49.584C117.645 47.998 117.863 46.4258 117.863 44.8672C117.863 41.3216 116.756 39.5488 114.541 39.5488C113.274 39.5488 112.24 40.0182 111.438 40.957C110.608 41.9232 110.193 43.1992 110.193 44.7852C110.193 45.6693 110.316 46.9043 110.562 48.4902C110.818 50.0671 110.945 51.1927 110.945 51.8672C110.945 53.4349 110.499 54.2188 109.605 54.2188C109.15 54.2188 108.835 54.1185 108.662 53.918C108.525 53.763 108.411 53.444 108.32 52.9609C108.311 52.3958 108.197 50.7643 107.979 48.0664C107.605 44.293 107.418 41.6133 107.418 40.0273C107.418 37.2656 107.951 35.8848 109.018 35.8848C109.364 35.8848 109.66 35.9941 109.906 36.2129C110.152 36.4225 110.275 36.6686 110.275 36.9512C110.275 37.1517 110.221 37.5299 110.111 38.0859C110.002 38.6419 109.947 39.1113 109.947 39.4941V39.8086C111.296 37.9766 112.937 37.0605 114.869 37.0605C116.646 37.0605 118.027 37.7214 119.012 39.043C120.005 40.3555 120.502 42.2422 120.502 44.7031ZM135.131 41.2578C135.131 41.5768 135.031 41.8503 134.83 42.0781C134.63 42.2969 134.393 42.4062 134.119 42.4062C133.982 42.4062 133.458 42.2285 132.547 41.873C131.645 41.5176 130.76 41.3398 129.895 41.3398C129.621 41.3398 129.334 41.3581 129.033 41.3945C128.696 42.8802 128.527 44.2428 128.527 45.4824C128.527 47.0775 128.796 48.3034 129.334 49.1602C129.872 50.0169 130.619 50.4453 131.576 50.4453C131.868 50.4453 132.251 50.3542 132.725 50.1719C133.208 49.9805 133.554 49.8848 133.764 49.8848C134.493 49.8848 134.857 50.3132 134.857 51.1699C134.857 51.7259 134.557 52.1771 133.955 52.5234C133.354 52.8698 132.533 53.043 131.494 53.043C127.63 53.043 125.697 50.4681 125.697 45.3184C125.697 44.2337 125.829 43.0397 126.094 41.7363C125.839 41.7728 125.287 41.8776 124.439 42.0508C123.883 42.1602 123.473 42.2148 123.209 42.2148C122.234 42.2148 121.746 41.8411 121.746 41.0938C121.746 40.0729 123.428 39.4076 126.791 39.0977C127.484 36.901 128.331 35.8027 129.334 35.8027C129.644 35.8027 129.908 35.9167 130.127 36.1445C130.346 36.3633 130.455 36.6322 130.455 36.9512C130.455 37.1882 130.387 37.4889 130.25 37.8535C130.113 38.209 129.977 38.569 129.84 38.9336C133.367 39.0521 135.131 39.8268 135.131 41.2578ZM141.174 33.2734C141.174 34.5677 140.54 35.2148 139.273 35.2148C138.763 35.2148 138.33 35.0371 137.975 34.6816C137.628 34.3262 137.455 33.8978 137.455 33.3965C137.455 32.8496 137.646 32.3848 138.029 32.002C138.412 31.6191 138.882 31.4277 139.438 31.4277C139.957 31.4277 140.376 31.5964 140.695 31.9336C141.014 32.2708 141.174 32.7174 141.174 33.2734ZM140.586 38.4824C140.586 43.9785 140.39 48.0391 139.998 50.6641C139.843 51.7214 139.67 52.4323 139.479 52.7969C139.232 53.2799 138.836 53.5215 138.289 53.5215C137.924 53.5215 137.615 53.403 137.359 53.166C137.104 52.9199 136.977 52.6283 136.977 52.291C136.977 52.3366 137.049 52.0221 137.195 51.3477C137.368 50.582 137.51 49.7116 137.619 48.7363C137.765 47.3509 137.838 45.8014 137.838 44.0879C137.838 43.3405 137.829 42.5521 137.811 41.7227C137.792 40.8932 137.783 40.4421 137.783 40.3691C137.783 39.1387 137.888 38.2819 138.098 37.7988C138.316 37.2702 138.727 37.0059 139.328 37.0059C140.167 37.0059 140.586 37.498 140.586 38.4824ZM158.209 44.7031C158.209 46.8724 157.854 49.028 157.143 51.1699C156.705 52.5007 156.163 53.166 155.516 53.166C155.169 53.166 154.873 53.0612 154.627 52.8516C154.381 52.6328 154.258 52.373 154.258 52.0723C154.258 51.9902 154.477 51.1608 154.914 49.584C155.352 47.998 155.57 46.4258 155.57 44.8672C155.57 41.3216 154.463 39.5488 152.248 39.5488C150.981 39.5488 149.947 40.0182 149.145 40.957C148.315 41.9232 147.9 43.1992 147.9 44.7852C147.9 45.6693 148.023 46.9043 148.27 48.4902C148.525 50.0671 148.652 51.1927 148.652 51.8672C148.652 53.4349 148.206 54.2188 147.312 54.2188C146.857 54.2188 146.542 54.1185 146.369 53.918C146.232 53.763 146.118 53.444 146.027 52.9609C146.018 52.3958 145.904 50.7643 145.686 48.0664C145.312 44.293 145.125 41.6133 145.125 40.0273C145.125 37.2656 145.658 35.8848 146.725 35.8848C147.071 35.8848 147.367 35.9941 147.613 36.2129C147.859 36.4225 147.982 36.6686 147.982 36.9512C147.982 37.1517 147.928 37.5299 147.818 38.0859C147.709 38.6419 147.654 39.1113 147.654 39.4941V39.8086C149.003 37.9766 150.644 37.0605 152.576 37.0605C154.354 37.0605 155.734 37.7214 156.719 39.043C157.712 40.3555 158.209 42.2422 158.209 44.7031ZM174.834 35.8301C174.834 36.541 174.433 36.8965 173.631 36.8965C173.521 36.8965 173.289 36.8783 172.934 36.8418C172.478 36.7962 172.1 36.7643 171.799 36.7461C172.902 37.9583 173.453 39.3984 173.453 41.0664C173.453 42.6888 172.879 44.0241 171.73 45.0723C170.591 46.1113 169.105 46.6309 167.273 46.6309C166.863 46.6309 166.207 46.5853 165.305 46.4941C164.53 47.0775 163.915 47.7702 163.459 48.5723C165.236 48.3626 166.412 48.2578 166.986 48.2578C170.723 48.2578 172.592 49.5475 172.592 52.127C172.592 53.6855 171.885 54.9069 170.473 55.791C169.069 56.6842 167.105 57.1309 164.58 57.1309C162.994 57.1309 161.727 56.8255 160.779 56.2148C159.895 55.6406 159.453 54.9206 159.453 54.0547C159.453 53.7448 159.585 53.4759 159.85 53.248C160.114 53.0202 160.424 52.9062 160.779 52.9062C161.016 52.9062 161.253 53.0111 161.49 53.2207C161.718 53.4668 161.946 53.7083 162.174 53.9453C162.62 54.3919 163.468 54.6152 164.717 54.6152C166.321 54.6152 167.57 54.4056 168.463 53.9863C169.329 53.5853 169.762 53.0293 169.762 52.3184C169.762 51.2884 168.568 50.7734 166.18 50.7734C165.615 50.7734 164.867 50.8281 163.938 50.9375C163.017 51.0378 162.374 51.0879 162.01 51.0879C161.126 51.0879 160.684 50.778 160.684 50.1582C160.684 49.2923 161.536 47.8203 163.24 45.7422C161.837 44.7487 161.135 43.3177 161.135 41.4492C161.135 39.7174 161.755 38.2363 162.994 37.0059C164.234 35.7754 165.751 35.1602 167.547 35.1602C167.93 35.1602 168.367 35.2057 168.859 35.2969C169.16 34.8503 170.131 34.627 171.771 34.627C173.813 34.627 174.834 35.028 174.834 35.8301ZM170.855 40.8066C170.855 39.7949 170.55 38.9837 169.939 38.373C169.338 37.7624 168.54 37.457 167.547 37.457C166.453 37.457 165.56 37.8262 164.867 38.5645C164.174 39.2936 163.828 40.2461 163.828 41.4219C163.828 43.3268 164.967 44.2793 167.246 44.2793C168.395 44.2793 169.283 43.9785 169.912 43.377C170.541 42.7663 170.855 41.9095 170.855 40.8066ZM186.77 39.1934C186.77 40.1048 186.309 40.5605 185.389 40.5605C185.07 40.5605 184.819 40.4466 184.637 40.2188C184.509 40.0091 184.377 39.7949 184.24 39.5762C183.675 38.847 182.923 38.4824 181.984 38.4824C180.371 38.4824 179.564 39.3984 179.564 41.2305C179.564 41.8685 179.71 42.4154 180.002 42.8711C180.248 43.263 180.69 43.7051 181.328 44.1973C182.768 45.3001 183.666 46.0612 184.021 46.4805C184.769 47.3372 185.143 48.3216 185.143 49.4336C185.143 50.8919 184.669 52.0814 183.721 53.002C182.773 53.9134 181.538 54.3691 180.016 54.3691C178.566 54.3691 177.377 53.9909 176.447 53.2344C175.545 52.5052 175.094 51.5846 175.094 50.4727C175.094 49.3516 175.577 48.791 176.543 48.791C177.354 48.791 177.773 49.4154 177.801 50.6641C178.457 51.4479 179.195 51.8398 180.016 51.8398C180.699 51.8398 181.255 51.6348 181.684 51.2246C182.121 50.8053 182.34 50.2858 182.34 49.666C182.34 49.1009 182.076 48.5677 181.547 48.0664C181.538 48.0482 180.868 47.515 179.537 46.4668C177.696 45.0085 176.775 43.2995 176.775 41.3398C176.775 39.7448 177.263 38.4551 178.238 37.4707C179.223 36.4863 180.508 35.9941 182.094 35.9941C183.397 35.9941 184.514 36.3359 185.443 37.0195C186.327 37.6667 186.77 38.3913 186.77 39.1934Z" fill="white"/>
</svg>
