<svg width="30" height="36" viewBox="0 0 30 36" fill="none" xmlns="http://www.w3.org/2000/svg">
<path d="M17.3868 7.45392C16.2976 3.38272 12.9526 0.417725 8.99321 0.417725C4.15041 0.417725 0.224609 4.85252 0.224609 10.3231C0.224609 15.2079 3.35561 19.2639 7.47361 20.0771C6.5 20.5 6 21.5 6 21.5C6 22 6 23 6 23C6.5 23 7.67327 22.9395 8 23C7.8464 23.7772 7.9604 25.1428 8.5 26C9.4218 27.4648 10.1556 28.769 10 30C9.8334 31.3182 8.7054 32.4466 6.5 34.5C6.5 34.5 7 35 7.21981 35.1023C12.0188 30.6343 11.2578 28.8615 9.37101 25.8633C8.86181 25.0539 8.807 23.6962 9 23C9.5299 22.9664 11.1172 23.3219 11.1172 23.3219C11.2698 23.1714 11.9166 22.1975 12 22V21L10.2388 20.1273C12.059 19.8349 13.6982 18.9099 14.979 17.5575C14.5792 16.5299 14.356 15.3945 14.356 14.1997C14.3558 11.4293 15.5496 8.97492 17.3868 7.45392ZM13 4C13.0426 3.99736 12.9617 4.01877 13 4H12C11.967 3.97303 11.5202 3.03756 11.5 3C11.4957 2.95756 11.5 2 11.5 2C11.473 2.03304 11.5123 1.95915 11.5 2C11.5 2 12.467 2.47303 12.5 2.5C12.5 2.5 13 2.84252 13 3V4ZM14 4.5C14.8584 5.521 15.5734 6.186 16 7.5C15.997 7.54288 15 8.5 15 8.5L14.5 7.5C14.0994 6.266 13 5 13 5L14 4.5Z" fill="black"/>
<path d="M29.7998 14.4142C29.7998 9.79724 26.4866 6.05444 22.3994 6.05444C18.3122 6.05444 14.999 9.79744 14.999 14.4142C14.999 18.5368 17.6414 21.9598 21.117 22.6462L20.3336 23.4218C20.0734 23.6783 19.5027 24.1346 19.5 24.5C19.5 24.5 20.5 25 21.5 25.5C21.3704 26.156 21.5448 27.2766 22 28C22.778 29.2362 23.1312 29.9612 23 31C22.8594 32.1126 22.3612 32.7672 20.5 34.5L20.5025 34.4977C20.5 34.5 20.5 35 20.9085 35.3216C24.9587 31.5508 24.3106 30.06 22.7182 27.5296C22.2884 26.8466 22.3372 26.0876 22.5 25.5L24.132 25.7647C24.5 25.5 24.5 24 24.5 24C24.2988 23.6167 23.707 22.9488 23.4504 22.6886C27.0396 22.1118 29.7998 18.628 29.7998 14.4142ZM25.5 9L25.2812 9.20712L25 9L24.5 8.5C24.5 8.5 24.4772 8.02788 24.5 8C24.5 8 24.9642 8.00362 25 8C25.0345 8.01036 25.9721 8.47724 26 8.5L25.5 9ZM26.5 9C27.2246 9.8616 27.9793 10.7864 28 12L27.9449 12.4788C27.9449 12.4788 27.2281 12.6282 27.1641 12.5967C27 11.5 26.6788 10.8072 26 10L25.9297 9.20712C25.9297 9.20712 26.4444 9.0468 26.5 9Z" fill="black"/>
</svg>
