<svg width="25" height="30" viewBox="0 0 25 30" fill="none" xmlns="http://www.w3.org/2000/svg">
<path d="M18.9062 1L18.8791 8.86527L25 9.46082L18.9062 1Z" fill="black"/>
<path d="M17.6238 1H3C3 1 3.80867 15.5006 3 29.3182C3 29.3182 17.0757 30.2471 24.2725 29.9364L24.8071 10.7296L17.1501 10.8429L17.6238 1ZM5.79822 4.8679H12.3184L11.8887 10.8332H5.79822V4.8679ZM20.5608 26.745L5.79822 27.0201V24.8256L20.5608 23.6604V26.745ZM20.5608 21.5306L5.79822 21.8057V19.6112L20.5608 18.446V21.5306ZM20.5608 12.9597V16.0443L5.79822 16.3195V14.125L20.5608 12.9597Z" fill="black"/>
</svg>
