<svg width="320" height="320" viewBox="0 0 320 320" fill="none" xmlns="http://www.w3.org/2000/svg">
<circle cx="160" cy="160" r="160" fill="#3C54D4"/>
<path d="M99.9758 59V38.392H110.28C112.712 38.392 114.504 39.032 115.656 40.312C116.808 41.592 117.384 43.3093 117.384 45.464C117.384 46.8507 117.032 48.0667 116.328 49.112C115.624 50.1573 114.664 50.936 113.448 51.448C113.746 51.6827 113.981 51.9493 114.152 52.248C114.344 52.5253 114.546 52.92 114.76 53.432L117.192 59H111.816L109.512 53.752C109.32 53.304 109.074 52.984 108.776 52.792C108.477 52.5787 108.05 52.472 107.496 52.472H105.128V59H99.9758ZM105.128 48.504H108.936C109.938 48.504 110.717 48.2587 111.272 47.768C111.848 47.256 112.136 46.488 112.136 45.464C112.136 43.3947 111.144 42.36 109.16 42.36H105.128V48.504ZM127.442 59.32C124.52 59.32 122.365 58.648 120.978 57.304C119.592 55.9387 118.898 53.976 118.898 51.416C118.898 48.8773 119.592 46.9253 120.978 45.56C122.386 44.1947 124.541 43.512 127.442 43.512C130.365 43.512 132.52 44.1947 133.906 45.56C135.314 46.9253 136.018 48.8773 136.018 51.416C136.018 53.976 135.325 55.9387 133.938 57.304C132.552 58.648 130.386 59.32 127.442 59.32ZM127.442 55.288C128.637 55.288 129.49 54.9893 130.002 54.392C130.514 53.7947 130.77 52.8027 130.77 51.416C130.77 50.0293 130.514 49.0373 130.002 48.44C129.49 47.8427 128.637 47.544 127.442 47.544C126.269 47.544 125.426 47.8427 124.914 48.44C124.402 49.0373 124.146 50.0293 124.146 51.416C124.146 52.8027 124.402 53.7947 124.914 54.392C125.426 54.9893 126.269 55.288 127.442 55.288ZM148.136 59.32C147.112 59.32 146.216 59.192 145.448 58.936C144.68 58.6587 143.987 58.2533 143.368 57.72L143.112 59H138.632V37.432H143.784V44.536C144.36 44.1947 145.011 43.9387 145.736 43.768C146.461 43.5973 147.208 43.512 147.976 43.512C150.195 43.512 151.944 44.1307 153.224 45.368C154.504 46.584 155.144 48.5573 155.144 51.288C155.144 54.0187 154.515 56.0453 153.256 57.368C151.997 58.6693 150.291 59.32 148.136 59.32ZM146.664 55.576C147.816 55.576 148.637 55.2347 149.128 54.552C149.64 53.848 149.896 52.7707 149.896 51.32C149.896 49.8267 149.629 48.7813 149.096 48.184C148.584 47.5867 147.773 47.288 146.664 47.288C145.448 47.288 144.488 47.608 143.784 48.248V54.424C144.552 55.192 145.512 55.576 146.664 55.576ZM165.661 59.32C162.738 59.32 160.584 58.648 159.197 57.304C157.81 55.9387 157.117 53.976 157.117 51.416C157.117 48.8773 157.81 46.9253 159.197 45.56C160.605 44.1947 162.76 43.512 165.661 43.512C168.584 43.512 170.738 44.1947 172.125 45.56C173.533 46.9253 174.237 48.8773 174.237 51.416C174.237 53.976 173.544 55.9387 172.157 57.304C170.77 58.648 168.605 59.32 165.661 59.32ZM165.661 55.288C166.856 55.288 167.709 54.9893 168.221 54.392C168.733 53.7947 168.989 52.8027 168.989 51.416C168.989 50.0293 168.733 49.0373 168.221 48.44C167.709 47.8427 166.856 47.544 165.661 47.544C164.488 47.544 163.645 47.8427 163.133 48.44C162.621 49.0373 162.365 50.0293 162.365 51.416C162.365 52.8027 162.621 53.7947 163.133 54.392C163.645 54.9893 164.488 55.288 165.661 55.288ZM181.523 59.32C179.859 59.32 178.664 58.9573 177.939 58.232C177.213 57.5067 176.851 56.344 176.851 54.744V37.432H182.003V54.232C182.003 54.7227 182.099 55.064 182.291 55.256C182.504 55.4267 182.813 55.512 183.219 55.512C183.795 55.512 184.307 55.4373 184.755 55.288V58.776C184.264 58.968 183.773 59.1067 183.283 59.192C182.813 59.2773 182.227 59.32 181.523 59.32ZM194.599 59.32C191.676 59.32 189.521 58.648 188.135 57.304C186.748 55.9387 186.055 53.976 186.055 51.416C186.055 48.8773 186.748 46.9253 188.135 45.56C189.543 44.1947 191.697 43.512 194.599 43.512C197.521 43.512 199.676 44.1947 201.062 45.56C202.471 46.9253 203.175 48.8773 203.175 51.416C203.175 53.976 202.481 55.9387 201.095 57.304C199.708 58.648 197.543 59.32 194.599 59.32ZM194.599 55.288C195.793 55.288 196.647 54.9893 197.159 54.392C197.671 53.7947 197.927 52.8027 197.927 51.416C197.927 50.0293 197.671 49.0373 197.159 48.44C196.647 47.8427 195.793 47.544 194.599 47.544C193.425 47.544 192.583 47.8427 192.071 48.44C191.559 49.0373 191.303 50.0293 191.303 51.416C191.303 52.8027 191.559 53.7947 192.071 54.392C192.583 54.9893 193.425 55.288 194.599 55.288ZM203.551 59L209.375 51.288L203.775 43.832H209.375L212.191 47.64L215.007 43.832H220.607L215.007 51.288L220.831 59H215.199L212.191 55L209.183 59H203.551Z" fill="white"/>
<path d="M78.3361 90V79.696H80.0801V88.656H85.3601V90H78.3361ZM89.1104 90.16C88.6304 90.16 88.1824 90.0747 87.7664 89.904C87.361 89.7333 87.0357 89.4773 86.7904 89.136C86.545 88.784 86.4224 88.352 86.4224 87.84C86.4224 87.1147 86.6677 86.5333 87.1584 86.096C87.6597 85.648 88.4277 85.424 89.4624 85.424H91.8944V85.088C91.8944 84.7253 91.8357 84.4373 91.7184 84.224C91.6117 84.0107 91.409 83.856 91.1104 83.76C90.8224 83.664 90.3957 83.616 89.8304 83.616C88.9344 83.616 88.097 83.7493 87.3184 84.016V82.72C87.6597 82.5813 88.0757 82.4693 88.5664 82.384C89.057 82.2987 89.585 82.256 90.1504 82.256C91.2597 82.256 92.1024 82.48 92.6784 82.928C93.265 83.376 93.5584 84.1067 93.5584 85.12V90H92.0704L91.9584 89.232C91.649 89.5307 91.265 89.76 90.8064 89.92C90.3584 90.08 89.793 90.16 89.1104 90.16ZM89.5744 88.912C90.097 88.912 90.5504 88.8267 90.9344 88.656C91.329 88.4747 91.649 88.2347 91.8944 87.936V86.608H89.4944C88.9824 86.608 88.609 86.7093 88.3744 86.912C88.1504 87.104 88.0384 87.4027 88.0384 87.808C88.0384 88.2027 88.1717 88.4853 88.4384 88.656C88.705 88.8267 89.0837 88.912 89.5744 88.912ZM96.4856 92.816C95.9096 92.816 95.419 92.7413 95.0136 92.592V91.296C95.195 91.36 95.3603 91.4027 95.5096 91.424C95.6696 91.4453 95.8296 91.456 95.9896 91.456C96.3203 91.456 96.587 91.4027 96.7896 91.296C96.9923 91.1893 97.1683 91.0187 97.3176 90.784C97.4776 90.56 97.6483 90.2667 97.8296 89.904L94.4536 82.416H96.2616L98.6936 88.048L101.158 82.416H102.95L99.8616 89.568C99.595 90.208 99.307 90.768 98.9976 91.248C98.699 91.7387 98.347 92.1227 97.9416 92.4C97.547 92.6773 97.0616 92.816 96.4856 92.816ZM107.457 90.16C106.135 90.16 105.111 89.8347 104.385 89.184C103.66 88.5333 103.297 87.536 103.297 86.192C103.297 84.976 103.607 84.016 104.225 83.312C104.844 82.608 105.783 82.256 107.041 82.256C108.193 82.256 109.057 82.56 109.633 83.168C110.22 83.7653 110.513 84.5387 110.513 85.488V86.896H104.961C105.047 87.632 105.313 88.1387 105.761 88.416C106.209 88.6933 106.892 88.832 107.809 88.832C108.193 88.832 108.588 88.7947 108.993 88.72C109.399 88.6453 109.751 88.5493 110.049 88.432V89.712C109.708 89.8613 109.313 89.9733 108.865 90.048C108.428 90.1227 107.959 90.16 107.457 90.16ZM104.961 85.76H108.977V85.232C108.977 84.7093 108.833 84.304 108.545 84.016C108.257 83.7173 107.772 83.568 107.089 83.568C106.279 83.568 105.719 83.744 105.409 84.096C105.111 84.448 104.961 85.0027 104.961 85.76ZM112.211 90V82.416H113.811L113.907 83.296C114.27 83.0613 114.702 82.848 115.203 82.656C115.704 82.464 116.2 82.3307 116.691 82.256V83.584C116.392 83.6373 116.067 83.7173 115.715 83.824C115.374 83.92 115.048 84.032 114.739 84.16C114.43 84.2773 114.168 84.4 113.955 84.528V90H112.211ZM121.489 90.16C120.166 90.16 119.142 89.8347 118.417 89.184C117.691 88.5333 117.329 87.536 117.329 86.192C117.329 84.976 117.638 84.016 118.257 83.312C118.875 82.608 119.814 82.256 121.073 82.256C122.225 82.256 123.089 82.56 123.665 83.168C124.251 83.7653 124.545 84.5387 124.545 85.488V86.896H118.993C119.078 87.632 119.345 88.1387 119.793 88.416C120.241 88.6933 120.923 88.832 121.841 88.832C122.225 88.832 122.619 88.7947 123.025 88.72C123.43 88.6453 123.782 88.5493 124.081 88.432V89.712C123.739 89.8613 123.345 89.9733 122.897 90.048C122.459 90.1227 121.99 90.16 121.489 90.16ZM118.993 85.76H123.009V85.232C123.009 84.7093 122.865 84.304 122.577 84.016C122.289 83.7173 121.803 83.568 121.121 83.568C120.31 83.568 119.75 83.744 119.441 84.096C119.142 84.448 118.993 85.0027 118.993 85.76ZM129.378 90.16C128.696 90.16 128.093 90.0427 127.57 89.808C127.048 89.5733 126.642 89.184 126.354 88.64C126.066 88.096 125.922 87.3653 125.922 86.448C125.922 85.5413 126.077 84.7787 126.386 84.16C126.696 83.5307 127.122 83.056 127.666 82.736C128.221 82.416 128.845 82.256 129.538 82.256C129.997 82.256 130.402 82.3093 130.754 82.416C131.117 82.5227 131.464 82.688 131.794 82.912V79.216H133.538V90H132.05L131.938 89.248C131.597 89.5573 131.224 89.7867 130.818 89.936C130.413 90.0853 129.933 90.16 129.378 90.16ZM129.842 88.848C130.621 88.848 131.272 88.5813 131.794 88.048V84.256C131.293 83.808 130.664 83.584 129.906 83.584C129.17 83.584 128.616 83.8293 128.242 84.32C127.869 84.8107 127.682 85.5253 127.682 86.464C127.682 87.3707 127.853 87.9947 128.194 88.336C128.546 88.6773 129.096 88.848 129.842 88.848ZM142.97 90.16C141.637 90.16 140.629 89.824 139.946 89.152C139.264 88.4693 138.922 87.488 138.922 86.208C138.922 84.8747 139.296 83.8827 140.042 83.232C140.8 82.5813 141.808 82.256 143.066 82.256C143.589 82.256 144.026 82.2933 144.378 82.368C144.741 82.4427 145.088 82.56 145.418 82.72V84.016C144.864 83.7387 144.192 83.6 143.402 83.6C142.528 83.6 141.856 83.7973 141.386 84.192C140.917 84.576 140.682 85.248 140.682 86.208C140.682 87.1147 140.89 87.7813 141.306 88.208C141.722 88.624 142.41 88.832 143.37 88.832C144.128 88.832 144.816 88.688 145.434 88.4V89.728C145.082 89.8667 144.704 89.9733 144.298 90.048C143.904 90.1227 143.461 90.16 142.97 90.16ZM148.709 90.16C148.09 90.16 147.621 90.0107 147.301 89.712C146.981 89.4027 146.821 88.896 146.821 88.192V79.216H148.565V88.032C148.565 88.3307 148.618 88.5333 148.725 88.64C148.831 88.7467 148.991 88.8 149.205 88.8C149.461 88.8 149.706 88.768 149.941 88.704V89.968C149.738 90.0427 149.541 90.0907 149.349 90.112C149.167 90.144 148.954 90.16 148.709 90.16ZM154.937 90.16C153.572 90.16 152.569 89.8187 151.929 89.136C151.3 88.4533 150.985 87.4773 150.985 86.208C150.985 84.9387 151.305 83.9627 151.945 83.28C152.585 82.5973 153.582 82.256 154.937 82.256C156.302 82.256 157.305 82.5973 157.945 83.28C158.585 83.9627 158.905 84.9387 158.905 86.208C158.905 87.4773 158.585 88.4533 157.945 89.136C157.316 89.8187 156.313 90.16 154.937 90.16ZM154.937 88.688C155.737 88.688 156.302 88.496 156.633 88.112C156.974 87.7173 157.145 87.0827 157.145 86.208C157.145 85.3333 156.974 84.704 156.633 84.32C156.302 83.936 155.737 83.744 154.937 83.744C154.148 83.744 153.582 83.936 153.241 84.32C152.91 84.704 152.745 85.3333 152.745 86.208C152.745 87.0827 152.91 87.7173 153.241 88.112C153.582 88.496 154.148 88.688 154.937 88.688ZM163.498 90.16C162.687 90.16 162.079 89.9467 161.674 89.52C161.279 89.0827 161.082 88.4907 161.082 87.744V83.776H159.962V82.416H161.082V80.672L162.81 80.144V82.416H164.826L164.714 83.776H162.81V87.648C162.81 88.0853 162.911 88.3947 163.114 88.576C163.316 88.7467 163.647 88.832 164.106 88.832C164.394 88.832 164.698 88.7787 165.018 88.672V89.904C164.602 90.0747 164.095 90.16 163.498 90.16ZM166.352 90V79.216H168.096V83.152C168.426 82.8853 168.821 82.672 169.28 82.512C169.738 82.3413 170.256 82.256 170.832 82.256C171.792 82.256 172.501 82.4853 172.96 82.944C173.418 83.4027 173.648 84.1173 173.648 85.088V90H171.92V85.168C171.92 84.5813 171.792 84.1707 171.536 83.936C171.29 83.7013 170.858 83.584 170.24 83.584C169.856 83.584 169.466 83.6693 169.072 83.84C168.677 84 168.352 84.2133 168.096 84.48V90H166.352ZM176.242 80.832V79.392H178.146V80.832H176.242ZM176.386 90V83.744H175.234L175.394 82.416H178.13V90H176.386ZM180.164 90V82.416H181.764L181.844 83.216C182.186 82.9493 182.591 82.7253 183.06 82.544C183.54 82.352 184.068 82.256 184.644 82.256C185.626 82.256 186.34 82.4853 186.788 82.944C187.236 83.4027 187.46 84.1173 187.46 85.088V90H185.732V85.168C185.732 84.5813 185.61 84.1707 185.364 83.936C185.13 83.7013 184.682 83.584 184.02 83.584C183.626 83.584 183.236 83.664 182.852 83.824C182.479 83.984 182.164 84.192 181.908 84.448V90H180.164ZM192.486 92.816C191.921 92.816 191.356 92.7787 190.79 92.704C190.225 92.64 189.745 92.5387 189.35 92.4V91.056C189.777 91.1947 190.268 91.3013 190.822 91.376C191.377 91.4507 191.905 91.488 192.406 91.488C193.174 91.488 193.734 91.4453 194.086 91.36C194.438 91.2747 194.614 91.0827 194.614 90.784C194.614 90.56 194.529 90.4 194.358 90.304C194.188 90.2187 193.862 90.176 193.382 90.176H191.334C189.958 90.176 189.27 89.6907 189.27 88.72C189.27 88.4107 189.361 88.1227 189.542 87.856C189.724 87.5893 190.012 87.3867 190.406 87.248C189.969 87.0347 189.644 86.7413 189.43 86.368C189.228 85.9947 189.126 85.5467 189.126 85.024C189.126 84.0533 189.414 83.3493 189.99 82.912C190.577 82.4747 191.452 82.256 192.614 82.256C192.86 82.256 193.116 82.2773 193.382 82.32C193.649 82.352 193.857 82.384 194.006 82.416H196.79L196.742 83.552H195.462C195.665 83.7227 195.814 83.936 195.91 84.192C196.006 84.448 196.054 84.7253 196.054 85.024C196.054 85.8347 195.809 86.4747 195.318 86.944C194.828 87.4027 194.086 87.632 193.094 87.632C192.924 87.632 192.764 87.6267 192.614 87.616C192.476 87.5947 192.321 87.5733 192.15 87.552C191.83 87.584 191.542 87.6693 191.286 87.808C191.03 87.9467 190.902 88.1333 190.902 88.368C190.902 88.528 190.966 88.6453 191.094 88.72C191.222 88.784 191.436 88.816 191.734 88.816H193.862C194.62 88.816 195.201 88.9813 195.606 89.312C196.022 89.632 196.23 90.1013 196.23 90.72C196.23 91.4667 195.905 92 195.254 92.32C194.614 92.6507 193.692 92.816 192.486 92.816ZM192.614 86.528C193.308 86.528 193.788 86.4107 194.054 86.176C194.332 85.9413 194.47 85.5413 194.47 84.976C194.47 84.4107 194.332 84 194.054 83.744C193.788 83.488 193.308 83.36 192.614 83.36C191.964 83.36 191.489 83.4827 191.19 83.728C190.892 83.9733 190.742 84.3893 190.742 84.976C190.742 85.52 190.881 85.9147 191.158 86.16C191.446 86.4053 191.932 86.528 192.614 86.528ZM203.641 90L201.641 82.416H203.385L204.697 87.936L206.185 83.344V82.416H207.513L209.161 87.936L210.473 82.416H212.201L210.217 90H208.569L206.953 85.04L205.305 90H203.641ZM216.812 90.16C215.447 90.16 214.444 89.8187 213.804 89.136C213.175 88.4533 212.86 87.4773 212.86 86.208C212.86 84.9387 213.18 83.9627 213.82 83.28C214.46 82.5973 215.457 82.256 216.812 82.256C218.177 82.256 219.18 82.5973 219.82 83.28C220.46 83.9627 220.78 84.9387 220.78 86.208C220.78 87.4773 220.46 88.4533 219.82 89.136C219.191 89.8187 218.188 90.16 216.812 90.16ZM216.812 88.688C217.612 88.688 218.177 88.496 218.508 88.112C218.849 87.7173 219.02 87.0827 219.02 86.208C219.02 85.3333 218.849 84.704 218.508 84.32C218.177 83.936 217.612 83.744 216.812 83.744C216.023 83.744 215.457 83.936 215.116 84.32C214.785 84.704 214.62 85.3333 214.62 86.208C214.62 87.0827 214.785 87.7173 215.116 88.112C215.457 88.496 216.023 88.688 216.812 88.688ZM222.477 90V82.416H224.077L224.173 83.296C224.535 83.0613 224.967 82.848 225.469 82.656C225.97 82.464 226.466 82.3307 226.957 82.256V83.584C226.658 83.6373 226.333 83.7173 225.981 83.824C225.639 83.92 225.314 84.032 225.005 84.16C224.695 84.2773 224.434 84.4 224.221 84.528V90H222.477ZM228.227 90V79.216H229.971V85.456L233.155 82.416H235.155L232.067 85.472L235.331 90H233.491L230.979 86.4L229.971 87.36V90H228.227ZM238.786 90.16C238.263 90.16 237.762 90.1227 237.282 90.048C236.813 89.9733 236.423 89.8827 236.114 89.776V88.304C236.477 88.4427 236.877 88.5493 237.314 88.624C237.751 88.6987 238.167 88.736 238.562 88.736C239.159 88.736 239.586 88.6827 239.842 88.576C240.098 88.4693 240.226 88.2613 240.226 87.952C240.226 87.728 240.146 87.552 239.986 87.424C239.837 87.296 239.607 87.1787 239.298 87.072C238.999 86.9653 238.615 86.8373 238.146 86.688C237.698 86.5387 237.309 86.3787 236.978 86.208C236.647 86.0267 236.391 85.7973 236.21 85.52C236.029 85.2427 235.938 84.88 235.938 84.432C235.938 83.7387 236.189 83.2053 236.69 82.832C237.191 82.448 237.997 82.256 239.106 82.256C239.543 82.256 239.959 82.288 240.354 82.352C240.749 82.416 241.085 82.496 241.362 82.592V84.048C241.063 83.9307 240.733 83.84 240.37 83.776C240.018 83.712 239.687 83.68 239.378 83.68C238.823 83.68 238.402 83.728 238.114 83.824C237.837 83.92 237.698 84.112 237.698 84.4C237.698 84.6987 237.842 84.912 238.13 85.04C238.429 85.1573 238.903 85.3227 239.554 85.536C240.151 85.7173 240.626 85.9093 240.978 86.112C241.33 86.3147 241.581 86.56 241.73 86.848C241.89 87.1253 241.97 87.488 241.97 87.936C241.97 88.6827 241.698 89.2427 241.154 89.616C240.61 89.9787 239.821 90.16 238.786 90.16Z" fill="white"/>
</svg>
