<svg width="400" height="400" viewBox="0 0 400 400" fill="none" xmlns="http://www.w3.org/2000/svg">
<circle cx="200" cy="200" r="200" fill="#2444F5"/>
<path d="M130.402 101V87.368H125.026V84.2H139.666V87.368H134.29V101H130.402ZM141.758 101V84.2H149.03C150.534 84.2 151.83 84.448 152.918 84.944C154.006 85.424 154.846 86.12 155.438 87.032C156.03 87.944 156.326 89.032 156.326 90.296C156.326 91.544 156.03 92.624 155.438 93.536C154.846 94.432 154.006 95.12 152.918 95.6C151.83 96.08 150.534 96.32 149.03 96.32H143.918L145.646 94.616V101H141.758ZM152.438 101L148.238 94.904H152.39L156.638 101H152.438ZM145.646 95.048L143.918 93.224H148.814C150.014 93.224 150.91 92.968 151.502 92.456C152.094 91.928 152.39 91.208 152.39 90.296C152.39 89.368 152.094 88.648 151.502 88.136C150.91 87.624 150.014 87.368 148.814 87.368H143.918L145.646 85.52V95.048ZM157.198 101L164.686 84.2H168.526L176.038 101H171.958L165.814 86.168H167.35L161.182 101H157.198ZM160.942 97.4L161.974 94.448H170.614L171.67 97.4H160.942ZM185.587 101.288C184.291 101.288 183.083 101.08 181.963 100.664C180.859 100.232 179.899 99.624 179.083 98.84C178.267 98.056 177.627 97.136 177.163 96.08C176.715 95.024 176.491 93.864 176.491 92.6C176.491 91.336 176.715 90.176 177.163 89.12C177.627 88.064 178.267 87.144 179.083 86.36C179.915 85.576 180.883 84.976 181.987 84.56C183.091 84.128 184.299 83.912 185.611 83.912C187.067 83.912 188.379 84.168 189.547 84.68C190.731 85.176 191.723 85.912 192.523 86.888L190.027 89.192C189.451 88.536 188.811 88.048 188.107 87.728C187.403 87.392 186.635 87.224 185.803 87.224C185.019 87.224 184.299 87.352 183.643 87.608C182.987 87.864 182.419 88.232 181.939 88.712C181.459 89.192 181.083 89.76 180.811 90.416C180.555 91.072 180.427 91.8 180.427 92.6C180.427 93.4 180.555 94.128 180.811 94.784C181.083 95.44 181.459 96.008 181.939 96.488C182.419 96.968 182.987 97.336 183.643 97.592C184.299 97.848 185.019 97.976 185.803 97.976C186.635 97.976 187.403 97.816 188.107 97.496C188.811 97.16 189.451 96.656 190.027 95.984L192.523 98.288C191.723 99.264 190.731 100.008 189.547 100.52C188.379 101.032 187.059 101.288 185.587 101.288ZM198.628 97.16L198.412 92.672L206.452 84.2H210.772L203.524 92L201.364 94.304L198.628 97.16ZM195.148 101V84.2H199.012V101H195.148ZM206.644 101L200.668 93.68L203.212 90.92L211.18 101H206.644ZM220.345 101.288C219.049 101.288 217.841 101.08 216.721 100.664C215.617 100.232 214.657 99.624 213.84 98.84C213.025 98.056 212.385 97.136 211.921 96.08C211.473 95.024 211.249 93.864 211.249 92.6C211.249 91.336 211.473 90.176 211.921 89.12C212.385 88.064 213.025 87.144 213.84 86.36C214.673 85.576 215.641 84.976 216.745 84.56C217.849 84.128 219.057 83.912 220.369 83.912C221.825 83.912 223.137 84.168 224.305 84.68C225.489 85.176 226.481 85.912 227.281 86.888L224.785 89.192C224.209 88.536 223.569 88.048 222.865 87.728C222.161 87.392 221.393 87.224 220.561 87.224C219.777 87.224 219.057 87.352 218.401 87.608C217.745 87.864 217.177 88.232 216.697 88.712C216.217 89.192 215.841 89.76 215.569 90.416C215.313 91.072 215.185 91.8 215.185 92.6C215.185 93.4 215.313 94.128 215.569 94.784C215.841 95.44 216.217 96.008 216.697 96.488C217.177 96.968 217.745 97.336 218.401 97.592C219.057 97.848 219.777 97.976 220.561 97.976C221.393 97.976 222.161 97.816 222.865 97.496C223.569 97.16 224.209 96.656 224.785 95.984L227.281 98.288C226.481 99.264 225.489 100.008 224.305 100.52C223.137 101.032 221.817 101.288 220.345 101.288ZM237.715 101.288C236.387 101.288 235.155 101.072 234.019 100.64C232.899 100.208 231.923 99.6 231.09 98.816C230.275 98.032 229.635 97.112 229.171 96.056C228.723 95 228.499 93.848 228.499 92.6C228.499 91.352 228.723 90.2 229.171 89.144C229.635 88.088 230.283 87.168 231.115 86.384C231.947 85.6 232.923 84.992 234.043 84.56C235.163 84.128 236.379 83.912 237.691 83.912C239.019 83.912 240.234 84.128 241.339 84.56C242.459 84.992 243.427 85.6 244.243 86.384C245.075 87.168 245.723 88.088 246.187 89.144C246.651 90.184 246.883 91.336 246.883 92.6C246.883 93.848 246.651 95.008 246.187 96.08C245.723 97.136 245.075 98.056 244.243 98.84C243.427 99.608 242.459 100.208 241.339 100.64C240.234 101.072 239.026 101.288 237.715 101.288ZM237.691 97.976C238.443 97.976 239.131 97.848 239.755 97.592C240.395 97.336 240.955 96.968 241.435 96.488C241.915 96.008 242.283 95.44 242.539 94.784C242.811 94.128 242.947 93.4 242.947 92.6C242.947 91.8 242.811 91.072 242.539 90.416C242.283 89.76 241.915 89.192 241.435 88.712C240.971 88.232 240.419 87.864 239.779 87.608C239.139 87.352 238.443 87.224 237.691 87.224C236.939 87.224 236.243 87.352 235.603 87.608C234.979 87.864 234.427 88.232 233.947 88.712C233.467 89.192 233.091 89.76 232.819 90.416C232.563 91.072 232.435 91.8 232.435 92.6C232.435 93.384 232.563 94.112 232.819 94.784C233.091 95.44 233.459 96.008 233.923 96.488C234.403 96.968 234.963 97.336 235.603 97.592C236.243 97.848 236.939 97.976 237.691 97.976ZM249.805 101V84.2H253.693V101H249.805ZM257.68 101V84.2H260.896L270.808 96.296H269.247V84.2H273.088V101H269.896L259.96 88.904H261.52V101H257.68Z" fill="white"/>
<path d="M186.431 30.6201L193.188 30.63L199.944 37.3172L206.69 30.63H213.447L220.203 37.3172V44.0044L199.944 64.066L179.675 44.0044V37.3172L186.431 30.6201Z" stroke="#EA7C23" stroke-width="0.300183"/>
<path d="M192.941 30.6201L179.606 43.8167" stroke="#EA7C23" stroke-width="0.300183"/>
<path d="M192.96 37.3765L186.461 43.8069" stroke="#EA7C23" stroke-width="0.300183"/>
<path d="M199.786 37.3567L186.441 50.5731" stroke="#EA7C23" stroke-width="0.300183"/>
<path d="M213.466 30.6398L193.326 50.5829" stroke="#EA7C23" stroke-width="0.300183"/>
<path d="M213.427 37.3862L193.613 57.2997H206.869" stroke="#EA7C23" stroke-width="0.300183"/>
<path d="M220.173 37.4355L200.042 57.3688" stroke="#EA7C23" stroke-width="0.300183"/>
<path d="M179.438 44.014H220.391" stroke="#EA7C23" stroke-width="0.300183"/>
<path d="M186.293 50.7507H213.595" stroke="#EA7C23" stroke-width="0.300183"/>
<path d="M179.458 37.327H220.391" stroke="#EA7C23" stroke-width="0.300183"/>
<path d="M186.284 31.8052C186.561 31.8033 186.831 31.7194 187.06 31.5641C187.29 31.4088 187.468 31.189 187.572 30.9326C187.677 30.6761 187.703 30.3944 187.648 30.123C187.593 29.8515 187.459 29.6025 187.262 29.4073C187.066 29.2122 186.816 29.0796 186.544 29.0262C186.272 28.9729 185.99 29.0013 185.735 29.1077C185.479 29.2142 185.261 29.3939 185.107 29.6244C184.953 29.8548 184.871 30.1256 184.871 30.4026C184.871 30.5876 184.908 30.7708 184.979 30.9417C185.05 31.1125 185.154 31.2675 185.285 31.3979C185.417 31.5283 185.572 31.6314 185.744 31.7013C185.915 31.7712 186.099 31.8065 186.284 31.8052Z" fill="white"/>
<path d="M193.11 31.8053C193.387 31.8053 193.658 31.723 193.889 31.5689C194.12 31.4148 194.299 31.1957 194.406 30.9394C194.512 30.6831 194.539 30.4011 194.485 30.129C194.431 29.8569 194.298 29.607 194.101 29.4108C193.905 29.2147 193.655 29.0811 193.383 29.027C193.111 28.9728 192.829 29.0006 192.573 29.1068C192.317 29.2129 192.098 29.3927 191.943 29.6234C191.789 29.854 191.707 30.1252 191.707 30.4026C191.707 30.7746 191.855 31.1314 192.118 31.3944C192.381 31.6575 192.738 31.8053 193.11 31.8053Z" fill="white"/>
<path d="M186.284 38.6011C186.561 38.5992 186.831 38.5153 187.06 38.36C187.29 38.2047 187.468 37.9849 187.572 37.7285C187.677 37.472 187.703 37.1903 187.648 36.9189C187.593 36.6474 187.459 36.3984 187.262 36.2032C187.066 36.0081 186.816 35.8755 186.544 35.8221C186.272 35.7688 185.99 35.7972 185.735 35.9036C185.479 36.0101 185.261 36.1898 185.107 36.4203C184.953 36.6507 184.871 36.9215 184.871 37.1985C184.874 37.5714 185.024 37.9282 185.288 38.1909C185.553 38.4537 185.911 38.6011 186.284 38.6011Z" fill="white"/>
<path d="M179.458 45.3969C179.735 45.395 180.006 45.311 180.235 45.1557C180.464 45.0004 180.643 44.7807 180.747 44.5242C180.852 44.2678 180.878 43.9861 180.823 43.7146C180.768 43.4432 180.633 43.1942 180.437 42.999C180.24 42.8038 179.99 42.6712 179.719 42.6179C179.447 42.5646 179.165 42.5929 178.91 42.6994C178.654 42.8058 178.435 42.9856 178.282 43.216C178.128 43.4465 178.046 43.7173 178.046 43.9943C178.049 44.3672 178.198 44.7239 178.463 44.9867C178.728 45.2495 179.085 45.3969 179.458 45.3969Z" fill="white"/>
<path d="M186.284 45.3969C186.561 45.395 186.831 45.311 187.06 45.1557C187.29 45.0004 187.468 44.7807 187.572 44.5242C187.677 44.2678 187.703 43.9861 187.648 43.7146C187.593 43.4432 187.459 43.1942 187.262 42.999C187.066 42.8038 186.816 42.6712 186.544 42.6179C186.272 42.5646 185.99 42.5929 185.735 42.6994C185.479 42.8058 185.261 42.9856 185.107 43.216C184.953 43.4465 184.871 43.7173 184.871 43.9943C184.874 44.3672 185.024 44.7239 185.288 44.9867C185.553 45.2495 185.911 45.3969 186.284 45.3969Z" fill="white"/>
<path d="M193.109 45.3674C193.386 45.3654 193.656 45.2815 193.886 45.1262C194.115 44.9709 194.293 44.7512 194.398 44.4947C194.503 44.2382 194.529 43.9565 194.474 43.6851C194.419 43.4137 194.284 43.1647 194.088 42.9695C193.891 42.7743 193.641 42.6417 193.369 42.5884C193.098 42.535 192.816 42.5634 192.56 42.6698C192.305 42.7763 192.086 42.9561 191.932 43.1865C191.779 43.417 191.697 43.6877 191.697 43.9647C191.697 44.1498 191.733 44.333 191.804 44.5038C191.876 44.6746 191.98 44.8297 192.111 44.9601C192.242 45.0904 192.398 45.1935 192.569 45.2634C192.741 45.3334 192.924 45.3687 193.109 45.3674Z" fill="white"/>
<path d="M186.294 52.2026C186.571 52.2026 186.842 52.1203 187.073 51.9662C187.304 51.8121 187.483 51.593 187.59 51.3367C187.696 51.0804 187.724 50.7984 187.669 50.5263C187.615 50.2543 187.482 50.0043 187.286 49.8082C187.089 49.612 186.839 49.4784 186.567 49.4243C186.295 49.3702 186.013 49.3979 185.757 49.5041C185.501 49.6103 185.282 49.79 185.128 50.0207C184.973 50.2514 184.891 50.5226 184.891 50.8C184.894 51.1712 185.042 51.5264 185.305 51.7889C185.567 52.0514 185.923 52.2 186.294 52.2026Z" fill="white"/>
<path d="M193.11 52.2026C193.387 52.2026 193.658 52.1203 193.889 51.9662C194.12 51.8121 194.299 51.593 194.406 51.3367C194.512 51.0804 194.539 50.7984 194.485 50.5263C194.431 50.2543 194.298 50.0043 194.101 49.8082C193.905 49.612 193.655 49.4784 193.383 49.4243C193.111 49.3702 192.829 49.3979 192.573 49.5041C192.317 49.6103 192.098 49.79 191.943 50.0207C191.789 50.2514 191.707 50.5226 191.707 50.8C191.71 51.1712 191.858 51.5264 192.121 51.7889C192.383 52.0514 192.738 52.2 193.11 52.2026Z" fill="white"/>
<path d="M193.11 58.9789C193.387 58.9789 193.658 58.8966 193.889 58.7425C194.12 58.5883 194.299 58.3693 194.406 58.113C194.512 57.8567 194.539 57.5747 194.485 57.3026C194.431 57.0305 194.298 56.7806 194.101 56.5844C193.905 56.3882 193.655 56.2547 193.383 56.2005C193.111 56.1464 192.829 56.1742 192.573 56.2804C192.317 56.3865 192.098 56.5663 191.943 56.797C191.789 57.0276 191.707 57.2988 191.707 57.5762C191.707 57.9482 191.855 58.305 192.118 58.568C192.381 58.8311 192.738 58.9789 193.11 58.9789Z" fill="white"/>
<path d="M199.945 58.9788C200.222 58.9769 200.492 58.8929 200.721 58.7376C200.951 58.5823 201.129 58.3626 201.234 58.1061C201.338 57.8497 201.365 57.568 201.309 57.2965C201.254 57.0251 201.12 56.7761 200.923 56.5809C200.727 56.3858 200.477 56.2531 200.205 56.1998C199.933 56.1465 199.652 56.1748 199.396 56.2813C199.14 56.3877 198.922 56.5675 198.768 56.798C198.614 57.0284 198.532 57.2992 198.532 57.5762C198.532 57.7612 198.569 57.9444 198.64 58.1152C198.711 58.2861 198.815 58.4411 198.947 58.5715C199.078 58.7019 199.234 58.805 199.405 58.8749C199.576 58.9448 199.76 58.9801 199.945 58.9788Z" fill="white"/>
<path d="M199.945 65.7748C200.222 65.7729 200.492 65.689 200.721 65.5337C200.951 65.3784 201.129 65.1586 201.234 64.9022C201.338 64.6457 201.365 64.364 201.309 64.0926C201.254 63.8211 201.12 63.5721 200.923 63.377C200.727 63.1818 200.477 63.0492 200.205 62.9958C199.933 62.9425 199.652 62.9709 199.396 63.0773C199.14 63.1838 198.922 63.3635 198.768 63.594C198.614 63.8244 198.532 64.0952 198.532 64.3722C198.532 64.5572 198.569 64.7404 198.64 64.9113C198.711 65.0821 198.815 65.2371 198.947 65.3675C199.078 65.4979 199.234 65.601 199.405 65.6709C199.576 65.7408 199.76 65.7761 199.945 65.7748Z" fill="white"/>
<path d="M206.77 58.9788C207.046 58.9729 207.314 58.8858 207.541 58.7281C207.767 58.5705 207.943 58.3495 208.044 58.0927C208.146 57.8359 208.169 57.5549 208.112 57.2848C208.055 57.0147 207.919 56.7675 207.721 56.5743C207.524 56.3811 207.274 56.2505 207.003 56.1987C206.732 56.1469 206.451 56.1764 206.197 56.2834C205.942 56.3903 205.725 56.5701 205.572 56.8001C205.419 57.03 205.338 57.3 205.337 57.5761C205.336 57.7616 205.372 57.9454 205.442 58.1168C205.513 58.2882 205.617 58.4438 205.749 58.5744C205.88 58.7051 206.037 58.8081 206.209 58.8776C206.381 58.947 206.565 58.9814 206.75 58.9788" fill="white"/>
<path d="M199.945 52.2026C200.222 52.2006 200.492 52.1167 200.721 51.9614C200.951 51.8061 201.129 51.5864 201.234 51.3299C201.338 51.0734 201.365 50.7917 201.309 50.5203C201.254 50.2489 201.12 49.9999 200.923 49.8047C200.727 49.6095 200.477 49.4769 200.205 49.4236C199.933 49.3703 199.652 49.3986 199.396 49.505C199.14 49.6115 198.922 49.7913 198.768 50.0217C198.614 50.2522 198.532 50.5229 198.532 50.7999C198.535 51.1728 198.685 51.5296 198.949 51.7924C199.214 52.0551 199.572 52.2026 199.945 52.2026Z" fill="white"/>
<path d="M206.77 52.1928C207.046 52.1869 207.314 52.0997 207.541 51.9421C207.767 51.7845 207.943 51.5634 208.044 51.3067C208.146 51.0499 208.169 50.7689 208.112 50.4988C208.055 50.2287 207.919 49.9815 207.721 49.7883C207.524 49.5951 207.274 49.4644 207.003 49.4127C206.732 49.3609 206.451 49.3904 206.197 49.4974C205.942 49.6043 205.725 49.7841 205.572 50.014C205.419 50.244 205.337 50.514 205.337 50.7901C205.337 50.9752 205.374 51.1584 205.445 51.3292C205.516 51.5 205.62 51.6551 205.752 51.7855C205.883 51.9158 206.039 52.0189 206.21 52.0889C206.381 52.1588 206.565 52.1941 206.75 52.1928" fill="white"/>
<path d="M213.595 52.1928C213.967 52.1928 214.324 52.0451 214.587 51.782C214.85 51.519 214.998 51.1622 214.998 50.7902C214.998 50.4182 214.85 50.0614 214.587 49.7984C214.324 49.5354 213.967 49.3876 213.595 49.3876C213.223 49.3876 212.866 49.5354 212.603 49.7984C212.34 50.0614 212.192 50.4182 212.192 50.7902C212.192 51.1622 212.34 51.519 212.603 51.782C212.866 52.0451 213.223 52.1928 213.595 52.1928Z" fill="white"/>
<path d="M213.526 45.4167C213.804 45.4167 214.075 45.3342 214.306 45.1796C214.537 45.0251 214.717 44.8054 214.822 44.5485C214.928 44.2917 214.956 44.0091 214.901 43.7368C214.846 43.4644 214.711 43.2145 214.514 43.0188C214.317 42.823 214.066 42.6902 213.793 42.6372C213.521 42.5842 213.238 42.6134 212.982 42.7211C212.726 42.8288 212.508 43.0101 212.355 43.242C212.202 43.474 212.121 43.7461 212.123 44.024C212.126 44.3942 212.275 44.7485 212.537 45.0094C212.8 45.2703 213.155 45.4167 213.526 45.4167Z" fill="white"/>
<path d="M206.77 45.397C207.046 45.3912 207.314 45.304 207.541 45.1463C207.767 44.9887 207.943 44.7677 208.044 44.5109C208.146 44.2542 208.169 43.9731 208.112 43.703C208.055 43.4329 207.919 43.1858 207.721 42.9926C207.524 42.7993 207.274 42.6687 207.003 42.6169C206.732 42.5651 206.451 42.5946 206.197 42.7016C205.942 42.8086 205.725 42.9883 205.572 43.2183C205.419 43.4482 205.337 43.7182 205.337 43.9944C205.337 44.1794 205.374 44.3626 205.445 44.5334C205.516 44.7042 205.62 44.8593 205.752 44.9897C205.883 45.1201 206.039 45.2232 206.21 45.2931C206.381 45.363 206.565 45.3983 206.75 45.397" fill="white"/>
<path d="M199.945 45.3969C200.222 45.395 200.492 45.311 200.721 45.1557C200.951 45.0004 201.129 44.7807 201.234 44.5242C201.338 44.2678 201.365 43.9861 201.309 43.7146C201.254 43.4432 201.12 43.1942 200.923 42.999C200.727 42.8038 200.477 42.6712 200.205 42.6179C199.933 42.5646 199.652 42.5929 199.396 42.6994C199.14 42.8058 198.922 42.9856 198.768 43.216C198.614 43.4465 198.532 43.7173 198.532 43.9943C198.535 44.3672 198.685 44.7239 198.949 44.9867C199.214 45.2495 199.572 45.3969 199.945 45.3969Z" fill="white"/>
<path d="M199.945 38.6011C200.222 38.5992 200.492 38.5153 200.721 38.36C200.951 38.2047 201.129 37.9849 201.234 37.7285C201.338 37.472 201.365 37.1903 201.309 36.9189C201.254 36.6474 201.12 36.3984 200.923 36.2032C200.727 36.0081 200.477 35.8755 200.205 35.8221C199.933 35.7688 199.652 35.7972 199.396 35.9036C199.14 36.0101 198.922 36.1898 198.768 36.4203C198.614 36.6507 198.532 36.9215 198.532 37.1985C198.535 37.5714 198.685 37.9282 198.949 38.1909C199.214 38.4537 199.572 38.6011 199.945 38.6011Z" fill="white"/>
<path d="M206.769 31.8053C207.141 31.8053 207.498 31.6575 207.761 31.3944C208.024 31.1314 208.172 30.7746 208.172 30.4026C208.172 30.0306 208.024 29.6739 207.761 29.4108C207.498 29.1478 207.141 29 206.769 29C206.397 29 206.041 29.1478 205.778 29.4108C205.514 29.6739 205.367 30.0306 205.367 30.4026C205.367 30.7746 205.514 31.1314 205.778 31.3944C206.041 31.6575 206.397 31.8053 206.769 31.8053Z" fill="white"/>
<path d="M213.596 31.8052C213.873 31.8033 214.143 31.7194 214.372 31.5641C214.602 31.4088 214.78 31.189 214.884 30.9326C214.989 30.6761 215.015 30.3944 214.96 30.123C214.905 29.8515 214.771 29.6025 214.574 29.4073C214.378 29.2122 214.128 29.0796 213.856 29.0262C213.584 28.9729 213.302 29.0013 213.047 29.1077C212.791 29.2142 212.573 29.3939 212.419 29.6244C212.265 29.8548 212.183 30.1256 212.183 30.4026C212.186 30.7755 212.336 31.1323 212.6 31.395C212.865 31.6578 213.223 31.8052 213.596 31.8052Z" fill="white"/>
<path d="M206.77 38.6011C207.046 38.5953 207.314 38.5081 207.541 38.3504C207.767 38.1928 207.943 37.9718 208.044 37.715C208.146 37.4583 208.169 37.1772 208.112 36.9071C208.055 36.637 207.919 36.3899 207.721 36.1967C207.524 36.0034 207.274 35.8728 207.003 35.821C206.732 35.7692 206.451 35.7987 206.197 35.9057C205.942 36.0127 205.725 36.1924 205.572 36.4224C205.419 36.6523 205.337 36.9223 205.337 37.1985C205.337 37.3835 205.374 37.5667 205.445 37.7375C205.516 37.9083 205.62 38.0634 205.752 38.1938C205.883 38.3242 206.039 38.4273 206.21 38.4972C206.381 38.5671 206.565 38.6024 206.75 38.6011" fill="white"/>
<path d="M213.595 38.6012C213.872 38.6012 214.144 38.5189 214.374 38.3648C214.605 38.2107 214.785 37.9916 214.891 37.7353C214.997 37.479 215.025 37.197 214.971 36.9249C214.917 36.6528 214.783 36.4029 214.587 36.2067C214.391 36.0106 214.141 35.877 213.869 35.8229C213.597 35.7687 213.315 35.7965 213.058 35.9027C212.802 36.0088 212.583 36.1886 212.429 36.4193C212.275 36.6499 212.192 36.9211 212.192 37.1985C212.195 37.5697 212.344 37.925 212.606 38.1875C212.869 38.45 213.224 38.5986 213.595 38.6012Z" fill="white"/>
<path d="M220.421 45.3969C220.699 45.3969 220.97 45.3147 221.2 45.1606C221.431 45.0064 221.611 44.7874 221.717 44.5311C221.823 44.2748 221.851 43.9928 221.797 43.7207C221.743 43.4486 221.609 43.1987 221.413 43.0025C221.217 42.8063 220.967 42.6727 220.695 42.6186C220.423 42.5645 220.141 42.5923 219.884 42.6984C219.628 42.8046 219.409 42.9844 219.255 43.215C219.101 43.4457 219.019 43.7169 219.019 43.9943C219.021 44.3655 219.17 44.7208 219.432 44.9833C219.695 45.2457 220.05 45.3944 220.421 45.3969Z" fill="white"/>
<path d="M193.11 38.6012C193.387 38.6012 193.658 38.5189 193.889 38.3648C194.12 38.2107 194.299 37.9916 194.406 37.7353C194.512 37.479 194.539 37.197 194.485 36.9249C194.431 36.6528 194.298 36.4029 194.101 36.2067C193.905 36.0106 193.655 35.877 193.383 35.8229C193.111 35.7687 192.829 35.7965 192.573 35.9027C192.317 36.0088 192.098 36.1886 191.943 36.4193C191.789 36.6499 191.707 36.9211 191.707 37.1985C191.71 37.5697 191.858 37.925 192.121 38.1875C192.383 38.45 192.738 38.5986 193.11 38.6012Z" fill="white"/>
<path d="M179.458 38.6011C179.735 38.5992 180.006 38.5153 180.235 38.36C180.464 38.2047 180.643 37.9849 180.747 37.7285C180.852 37.472 180.878 37.1903 180.823 36.9189C180.768 36.6474 180.633 36.3984 180.437 36.2032C180.24 36.0081 179.99 35.8755 179.719 35.8221C179.447 35.7688 179.165 35.7972 178.91 35.9036C178.654 36.0101 178.435 36.1898 178.282 36.4203C178.128 36.6507 178.046 36.9215 178.046 37.1985C178.049 37.5714 178.198 37.9282 178.463 38.1909C178.728 38.4537 179.085 38.6011 179.458 38.6011Z" fill="white"/>
<path d="M220.421 38.6012C220.699 38.6012 220.97 38.5189 221.2 38.3648C221.431 38.2107 221.611 37.9916 221.717 37.7353C221.823 37.479 221.851 37.197 221.797 36.9249C221.743 36.6528 221.609 36.4029 221.413 36.2067C221.217 36.0106 220.967 35.877 220.695 35.8229C220.423 35.7687 220.141 35.7965 219.884 35.9027C219.628 36.0088 219.409 36.1886 219.255 36.4193C219.101 36.6499 219.019 36.9211 219.019 37.1985C219.021 37.5697 219.17 37.925 219.432 38.1875C219.695 38.45 220.05 38.5986 220.421 38.6012Z" fill="white"/>
<path d="M180.476 62.0607C181.776 61.9353 183.064 61.7074 184.328 61.3792C185.532 60.7927 186.892 60.6059 188.21 60.8458C189.543 61.2606 190.689 63.7597 190.689 63.7597L186.837 64.6783L181.77 63.6906L180.476 62.0607Z" fill="#C86522"/>
<path d="M151.01 50.1384H174.45C175.083 50.1327 175.695 50.3695 176.159 50.8002C176.959 51.5213 183.883 58.6135 183.883 58.6135C183.539 59.0158 183.107 59.3343 182.621 59.5448C182.135 59.7553 181.607 59.8523 181.078 59.8284C179.867 59.6283 178.768 58.9968 177.986 58.0504L175.784 55.9663C175.784 55.9663 175.369 55.6502 175.082 55.9663C174.796 56.2823 175.181 56.6379 175.181 56.6379L180.426 61.8139C181.872 62.9496 183.563 63.731 185.365 64.0956C188.704 64.8957 191.094 65.4291 191.094 65.4291C191.094 65.4291 193.267 65.8835 193.761 67.4738C194.049 68.4105 193.979 69.4209 193.563 70.3087L183.182 67.7602C181.53 67.413 179.91 66.9239 178.342 66.2983C175.704 65.3106 172.415 64.0561 171.694 63.7696C170.973 63.4832 167.802 62.1793 166.815 61.0434C166.396 60.5231 165.926 60.0465 165.412 59.621C165.412 59.621 165.323 59.4037 163.911 59.5222C162.498 59.6408 157.52 60.0161 157.52 60.0161C155.544 58.5345 153.868 56.6908 152.581 54.5834C150.773 51.4028 151.01 50.1384 151.01 50.1384Z" fill="#EA7C23"/>
<path d="M157.549 59.9765C156.957 59.5668 156.393 59.118 155.86 58.6331C155.169 57.9713 154.31 56.9736 154.31 56.9736C154.31 56.9736 165.58 56.9736 166.163 57.3786C166.746 57.7836 167.388 59.6999 169.748 61.0828C172.109 62.4656 181.473 66.0216 182.589 66.4365C183.706 66.8513 189.049 68.2342 189.415 68.3034C189.78 68.3725 193.959 69.2911 193.959 69.2911C193.959 69.2911 193.86 70.1209 193.613 70.2789C193.366 70.4369 189.069 69.1528 189.069 69.1528C189.069 69.1528 187.617 68.7676 185.75 68.3527L183.982 67.9576C182.935 67.7008 182.007 67.5527 181.088 67.2267C177.898 66.0908 174.658 64.8956 172.198 63.9078C170.912 63.4077 169.661 62.8202 168.454 62.1496C167.98 61.8137 167.239 61.3396 167.141 61.2408C166.825 60.8951 166.262 60.253 166.262 60.253C165.987 60.0082 165.7 59.7774 165.402 59.5616C165.103 59.4963 164.793 59.4963 164.493 59.5616L157.549 59.9765Z" fill="#C86522"/>
<path d="M175.023 56.4205C175.023 56.4205 173.66 55.0969 173.66 54.3264C173.66 53.1114 174.411 53.7732 174.865 54.1782C175.32 54.5832 175.586 55.0178 176.9 56.1538C178.214 57.2897 180.456 58.9986 181.582 58.8701C182.248 58.7913 182.875 58.5123 183.38 58.07L183.854 58.5541C183.54 58.9241 183.152 59.2243 182.714 59.4352C182.277 59.6462 181.801 59.7633 181.315 59.7789C180.661 59.7838 180.019 59.5984 179.468 59.2455C178.613 58.6667 177.83 57.9869 177.137 57.2206C177.137 57.2206 175.567 55.5907 175.162 55.8081C175.108 55.8287 175.059 55.8616 175.02 55.9041C174.981 55.9466 174.952 55.9975 174.936 56.0529C174.92 56.1084 174.916 56.1668 174.926 56.2237C174.936 56.2806 174.959 56.3344 174.994 56.381" fill="#C86522"/>
<path d="M218.564 62.7225C217.263 62.6022 215.975 62.3742 214.712 62.041C213.506 61.4591 212.148 61.2725 210.83 61.5076C209.496 61.9224 208.351 64.4709 208.351 64.4709L212.203 65.3994L217.27 64.4116L218.564 62.7225Z" fill="#C86522"/>
<path d="M248.02 50.8099H224.59C223.957 50.7974 223.344 51.0312 222.881 51.4619C222.081 52.1928 215.157 59.2751 215.157 59.2751C215.5 59.6791 215.931 59.9988 216.418 60.2095C216.904 60.4202 217.432 60.5162 217.962 60.4901C219.171 60.2917 220.269 59.6639 221.054 58.722L223.256 56.6575C223.256 56.6575 223.671 56.3414 223.958 56.6575C224.244 56.9736 223.859 57.3391 223.859 57.3391L218.614 62.5051C217.168 63.6408 215.477 64.4223 213.675 64.7869C210.336 65.587 207.946 66.1204 207.946 66.1204C207.946 66.1204 205.773 66.5846 205.279 68.1749C204.988 69.108 205.058 70.1165 205.476 71L215.868 68.4811C217.519 68.1281 219.138 67.6391 220.708 67.0192C223.345 65.9722 226.634 64.777 227.356 64.4807C228.077 64.1843 231.237 62.9002 232.215 61.7544C232.639 61.2232 233.115 60.7367 233.638 60.3024C233.638 60.3024 233.727 60.0851 235.139 60.2036C236.552 60.3222 241.53 60.6876 241.53 60.6876C243.506 59.206 245.182 57.3624 246.469 55.2549C248.237 52.1138 247.99 50.8593 247.99 50.8593" fill="#EA7C23"/>
<path d="M241.489 60.6086C242.084 60.2056 242.648 59.7599 243.178 59.2751C243.86 58.633 244.729 57.6453 244.729 57.6453C244.729 57.6453 233.459 57.6453 232.876 58.0502C232.293 58.4552 231.651 60.3616 229.29 61.7445C226.93 63.1274 217.565 66.6834 216.449 67.0982C215.333 67.5131 209.989 68.896 209.624 68.9651L205.08 69.9529C205.08 69.9529 205.179 70.7826 205.426 70.9407C205.673 71.0987 209.97 69.8146 209.97 69.8146C209.97 69.8146 211.422 69.4392 213.288 69.0145L215.057 68.6194C216.034 68.4272 217 68.1832 217.951 67.8884C221.141 66.7525 224.381 65.5672 226.841 64.5695C228.127 64.0694 229.378 63.482 230.584 62.8113C231.058 62.4853 231.799 62.0112 231.898 61.9124C232.214 61.5667 232.777 60.8654 232.777 60.8654C232.777 60.8654 233.419 60.3122 233.637 60.174C233.933 60.0974 234.242 60.0806 234.545 60.1246L241.489 60.6086Z" fill="#C86522"/>
<path d="M224.017 57.0823C224.017 57.0823 225.38 55.7685 225.38 54.9981C225.38 53.7732 224.629 54.4351 224.175 54.8499C223.72 55.2648 223.454 55.6895 222.14 56.8255C220.826 57.9614 218.584 59.6801 217.458 59.5418C216.79 59.468 216.162 59.1884 215.66 58.7417L215.186 59.2257C215.5 59.5958 215.888 59.896 216.326 60.1069C216.763 60.3179 217.239 60.4349 217.725 60.4506C218.379 60.4554 219.021 60.2701 219.572 59.9172C220.427 59.3564 221.21 58.693 221.903 57.9416C221.903 57.9416 223.473 56.3118 223.878 56.5291C223.932 56.5498 223.981 56.5827 224.02 56.6252C224.059 56.6676 224.088 56.7186 224.104 56.774C224.12 56.8295 224.124 56.8879 224.114 56.9448C224.104 57.0017 224.081 57.0555 224.046 57.102" fill="#C86522"/>
<path d="M109.215 357.12C108.575 357.12 107.979 357.016 107.427 356.808C106.883 356.592 106.407 356.292 105.999 355.908C105.599 355.516 105.287 355.056 105.063 354.528C104.839 354 104.727 353.424 104.727 352.8C104.727 352.176 104.839 351.6 105.063 351.072C105.287 350.544 105.603 350.088 106.011 349.704C106.419 349.312 106.895 349.012 107.439 348.804C107.983 348.588 108.579 348.48 109.227 348.48C109.915 348.48 110.543 348.6 111.111 348.84C111.679 349.072 112.159 349.42 112.551 349.884L111.543 350.832C111.239 350.504 110.899 350.26 110.523 350.1C110.147 349.932 109.739 349.848 109.299 349.848C108.859 349.848 108.455 349.92 108.087 350.064C107.727 350.208 107.411 350.412 107.139 350.676C106.875 350.94 106.667 351.252 106.515 351.612C106.371 351.972 106.299 352.368 106.299 352.8C106.299 353.232 106.371 353.628 106.515 353.988C106.667 354.348 106.875 354.66 107.139 354.924C107.411 355.188 107.727 355.392 108.087 355.536C108.455 355.68 108.859 355.752 109.299 355.752C109.739 355.752 110.147 355.672 110.523 355.512C110.899 355.344 111.239 355.092 111.543 354.756L112.551 355.716C112.159 356.172 111.679 356.52 111.111 356.76C110.543 357 109.911 357.12 109.215 357.12ZM113.902 357V350.592H115.33V352.356L115.162 351.84C115.354 351.408 115.654 351.08 116.062 350.856C116.478 350.632 116.994 350.52 117.61 350.52V351.948C117.546 351.932 117.486 351.924 117.43 351.924C117.374 351.916 117.318 351.912 117.262 351.912C116.694 351.912 116.242 352.08 115.906 352.416C115.57 352.744 115.402 353.236 115.402 353.892V357H113.902ZM121.704 357.084C121.048 357.084 120.464 356.944 119.952 356.664C119.44 356.376 119.036 355.984 118.74 355.488C118.444 354.992 118.296 354.428 118.296 353.796C118.296 353.156 118.444 352.592 118.74 352.104C119.036 351.608 119.44 351.22 119.952 350.94C120.464 350.66 121.048 350.52 121.704 350.52C122.368 350.52 122.956 350.66 123.468 350.94C123.988 351.22 124.392 351.604 124.68 352.092C124.976 352.58 125.124 353.148 125.124 353.796C125.124 354.428 124.976 354.992 124.68 355.488C124.392 355.984 123.988 356.376 123.468 356.664C122.956 356.944 122.368 357.084 121.704 357.084ZM121.704 355.8C122.072 355.8 122.4 355.72 122.688 355.56C122.976 355.4 123.2 355.168 123.36 354.864C123.528 354.56 123.612 354.204 123.612 353.796C123.612 353.38 123.528 353.024 123.36 352.728C123.2 352.424 122.976 352.192 122.688 352.032C122.4 351.872 122.076 351.792 121.716 351.792C121.348 351.792 121.02 351.872 120.732 352.032C120.452 352.192 120.228 352.424 120.06 352.728C119.892 353.024 119.808 353.38 119.808 353.796C119.808 354.204 119.892 354.56 120.06 354.864C120.228 355.168 120.452 355.4 120.732 355.56C121.02 355.72 121.344 355.8 121.704 355.8ZM127.798 357L125.446 350.592H126.862L128.878 356.244H128.206L130.318 350.592H131.578L133.63 356.244H132.97L135.046 350.592H136.378L134.014 357H132.574L130.702 351.996H131.146L129.238 357H127.798ZM139.946 357.084C139.33 357.084 138.774 356.948 138.278 356.676C137.79 356.396 137.406 356.012 137.126 355.524C136.846 355.036 136.706 354.46 136.706 353.796C136.706 353.132 136.846 352.556 137.126 352.068C137.406 351.58 137.79 351.2 138.278 350.928C138.774 350.656 139.33 350.52 139.946 350.52C140.482 350.52 140.962 350.64 141.386 350.88C141.81 351.112 142.146 351.468 142.394 351.948C142.642 352.428 142.766 353.044 142.766 353.796C142.766 354.54 142.646 355.156 142.406 355.644C142.166 356.124 141.834 356.484 141.41 356.724C140.986 356.964 140.498 357.084 139.946 357.084ZM140.126 355.8C140.486 355.8 140.806 355.72 141.086 355.56C141.374 355.4 141.602 355.168 141.77 354.864C141.946 354.56 142.034 354.204 142.034 353.796C142.034 353.38 141.946 353.024 141.77 352.728C141.602 352.424 141.374 352.192 141.086 352.032C140.806 351.872 140.486 351.792 140.126 351.792C139.766 351.792 139.442 351.872 139.154 352.032C138.874 352.192 138.646 352.424 138.47 352.728C138.302 353.024 138.218 353.38 138.218 353.796C138.218 354.204 138.302 354.56 138.47 354.864C138.646 355.168 138.874 355.4 139.154 355.56C139.442 355.72 139.766 355.8 140.126 355.8ZM142.07 357V355.488L142.13 353.784L142.01 352.08V348.096H143.498V357H142.07ZM145.676 357V350.232C145.676 349.56 145.872 349.024 146.264 348.624C146.664 348.216 147.232 348.012 147.968 348.012C148.232 348.012 148.48 348.04 148.712 348.096C148.952 348.152 149.152 348.24 149.312 348.36L148.904 349.488C148.792 349.4 148.664 349.336 148.52 349.296C148.376 349.248 148.228 349.224 148.076 349.224C147.764 349.224 147.528 349.312 147.368 349.488C147.208 349.656 147.128 349.912 147.128 350.256V350.976L147.176 351.648V357H145.676ZM144.62 351.84V350.64H148.892V351.84H144.62ZM152.614 357.084C152.07 357.084 151.59 356.984 151.174 356.784C150.758 356.576 150.434 356.264 150.202 355.848C149.97 355.424 149.854 354.892 149.854 354.252V350.592H151.354V354.048C151.354 354.624 151.482 355.056 151.738 355.344C152.002 355.624 152.374 355.764 152.854 355.764C153.206 355.764 153.51 355.692 153.766 355.548C154.03 355.404 154.234 355.188 154.378 354.9C154.53 354.612 154.606 354.256 154.606 353.832V350.592H156.106V357H154.678V355.272L154.93 355.8C154.714 356.216 154.398 356.536 153.982 356.76C153.566 356.976 153.11 357.084 152.614 357.084ZM160.782 357.084C160.166 357.084 159.61 356.948 159.114 356.676C158.626 356.396 158.242 356.012 157.962 355.524C157.682 355.036 157.542 354.46 157.542 353.796C157.542 353.132 157.682 352.556 157.962 352.068C158.242 351.58 158.626 351.2 159.114 350.928C159.61 350.656 160.166 350.52 160.782 350.52C161.318 350.52 161.798 350.64 162.222 350.88C162.646 351.112 162.982 351.468 163.23 351.948C163.478 352.428 163.602 353.044 163.602 353.796C163.602 354.54 163.482 355.156 163.242 355.644C163.002 356.124 162.67 356.484 162.246 356.724C161.822 356.964 161.334 357.084 160.782 357.084ZM160.962 355.8C161.322 355.8 161.642 355.72 161.922 355.56C162.21 355.4 162.438 355.168 162.606 354.864C162.782 354.56 162.87 354.204 162.87 353.796C162.87 353.38 162.782 353.024 162.606 352.728C162.438 352.424 162.21 352.192 161.922 352.032C161.642 351.872 161.322 351.792 160.962 351.792C160.602 351.792 160.278 351.872 159.99 352.032C159.71 352.192 159.482 352.424 159.306 352.728C159.138 353.024 159.054 353.38 159.054 353.796C159.054 354.204 159.138 354.56 159.306 354.864C159.482 355.168 159.71 355.4 159.99 355.56C160.278 355.72 160.602 355.8 160.962 355.8ZM162.906 357V355.488L162.966 353.784L162.846 352.08V348.096H164.334V357H162.906ZM169.944 350.52C170.456 350.52 170.912 350.62 171.312 350.82C171.72 351.02 172.04 351.328 172.272 351.744C172.504 352.152 172.62 352.68 172.62 353.328V357H171.12V353.52C171.12 352.952 170.984 352.528 170.712 352.248C170.448 351.968 170.076 351.828 169.596 351.828C169.244 351.828 168.932 351.9 168.66 352.044C168.388 352.188 168.176 352.404 168.024 352.692C167.88 352.972 167.808 353.328 167.808 353.76V357H166.308V350.592H167.736V352.32L167.484 351.792C167.708 351.384 168.032 351.072 168.456 350.856C168.888 350.632 169.384 350.52 169.944 350.52ZM174.523 357V350.592H176.023V357H174.523ZM175.279 349.536C174.999 349.536 174.767 349.448 174.583 349.272C174.407 349.096 174.319 348.884 174.319 348.636C174.319 348.38 174.407 348.168 174.583 348C174.767 347.824 174.999 347.736 175.279 347.736C175.559 347.736 175.787 347.82 175.963 347.988C176.147 348.148 176.239 348.352 176.239 348.6C176.239 348.864 176.151 349.088 175.975 349.272C175.799 349.448 175.567 349.536 175.279 349.536ZM181.628 350.52C182.14 350.52 182.596 350.62 182.996 350.82C183.404 351.02 183.724 351.328 183.956 351.744C184.188 352.152 184.304 352.68 184.304 353.328V357H182.804V353.52C182.804 352.952 182.668 352.528 182.396 352.248C182.132 351.968 181.76 351.828 181.28 351.828C180.928 351.828 180.616 351.9 180.344 352.044C180.072 352.188 179.86 352.404 179.708 352.692C179.564 352.972 179.492 353.328 179.492 353.76V357H177.992V350.592H179.42V352.32L179.168 351.792C179.392 351.384 179.716 351.072 180.14 350.856C180.572 350.632 181.068 350.52 181.628 350.52ZM189.122 359.412C188.53 359.412 187.95 359.332 187.382 359.172C186.822 359.02 186.362 358.796 186.002 358.5L186.674 357.372C186.954 357.604 187.306 357.788 187.73 357.924C188.162 358.068 188.598 358.14 189.038 358.14C189.742 358.14 190.258 357.976 190.586 357.648C190.914 357.328 191.078 356.844 191.078 356.196V355.056L191.198 353.604L191.15 352.152V350.592H192.578V356.028C192.578 357.188 192.282 358.04 191.69 358.584C191.098 359.136 190.242 359.412 189.122 359.412ZM188.93 356.712C188.322 356.712 187.77 356.584 187.274 356.328C186.786 356.064 186.398 355.7 186.11 355.236C185.83 354.772 185.69 354.228 185.69 353.604C185.69 352.988 185.83 352.448 186.11 351.984C186.398 351.52 186.786 351.16 187.274 350.904C187.77 350.648 188.322 350.52 188.93 350.52C189.474 350.52 189.962 350.628 190.394 350.844C190.826 351.06 191.17 351.396 191.426 351.852C191.69 352.308 191.822 352.892 191.822 353.604C191.822 354.316 191.69 354.904 191.426 355.368C191.17 355.824 190.826 356.164 190.394 356.388C189.962 356.604 189.474 356.712 188.93 356.712ZM189.158 355.44C189.534 355.44 189.87 355.364 190.166 355.212C190.462 355.052 190.69 354.836 190.85 354.564C191.018 354.284 191.102 353.964 191.102 353.604C191.102 353.244 191.018 352.928 190.85 352.656C190.69 352.376 190.462 352.164 190.166 352.02C189.87 351.868 189.534 351.792 189.158 351.792C188.782 351.792 188.442 351.868 188.138 352.02C187.842 352.164 187.61 352.376 187.442 352.656C187.282 352.928 187.202 353.244 187.202 353.604C187.202 353.964 187.282 354.284 187.442 354.564C187.61 354.836 187.842 355.052 188.138 355.212C188.442 355.364 188.782 355.44 189.158 355.44ZM196.823 357L200.603 348.6H202.139L205.931 357H204.299L201.047 349.428H201.671L198.431 357H196.823ZM198.563 355.056L198.983 353.832H203.519L203.939 355.056H198.563ZM210.407 357.084C209.887 357.084 209.411 356.964 208.979 356.724C208.555 356.484 208.215 356.124 207.959 355.644C207.711 355.156 207.587 354.54 207.587 353.796C207.587 353.044 207.707 352.428 207.947 351.948C208.195 351.468 208.531 351.112 208.955 350.88C209.379 350.64 209.863 350.52 210.407 350.52C211.039 350.52 211.595 350.656 212.075 350.928C212.563 351.2 212.947 351.58 213.227 352.068C213.515 352.556 213.659 353.132 213.659 353.796C213.659 354.46 213.515 355.04 213.227 355.536C212.947 356.024 212.563 356.404 212.075 356.676C211.595 356.948 211.039 357.084 210.407 357.084ZM206.855 359.328V350.592H208.283V352.104L208.235 353.808L208.355 355.512V359.328H206.855ZM210.239 355.8C210.599 355.8 210.919 355.72 211.199 355.56C211.487 355.4 211.715 355.168 211.883 354.864C212.051 354.56 212.135 354.204 212.135 353.796C212.135 353.38 212.051 353.024 211.883 352.728C211.715 352.424 211.487 352.192 211.199 352.032C210.919 351.872 210.599 351.792 210.239 351.792C209.879 351.792 209.555 351.872 209.267 352.032C208.979 352.192 208.751 352.424 208.583 352.728C208.415 353.024 208.331 353.38 208.331 353.796C208.331 354.204 208.415 354.56 208.583 354.864C208.751 355.168 208.979 355.4 209.267 355.56C209.555 355.72 209.879 355.8 210.239 355.8ZM218.634 357.084C218.114 357.084 217.638 356.964 217.206 356.724C216.782 356.484 216.442 356.124 216.186 355.644C215.938 355.156 215.814 354.54 215.814 353.796C215.814 353.044 215.934 352.428 216.174 351.948C216.422 351.468 216.758 351.112 217.182 350.88C217.606 350.64 218.09 350.52 218.634 350.52C219.266 350.52 219.822 350.656 220.302 350.928C220.79 351.2 221.174 351.58 221.454 352.068C221.742 352.556 221.886 353.132 221.886 353.796C221.886 354.46 221.742 355.04 221.454 355.536C221.174 356.024 220.79 356.404 220.302 356.676C219.822 356.948 219.266 357.084 218.634 357.084ZM215.082 359.328V350.592H216.51V352.104L216.462 353.808L216.582 355.512V359.328H215.082ZM218.466 355.8C218.826 355.8 219.146 355.72 219.426 355.56C219.714 355.4 219.942 355.168 220.11 354.864C220.278 354.56 220.362 354.204 220.362 353.796C220.362 353.38 220.278 353.024 220.11 352.728C219.942 352.424 219.714 352.192 219.426 352.032C219.146 351.872 218.826 351.792 218.466 351.792C218.106 351.792 217.782 351.872 217.494 352.032C217.206 352.192 216.978 352.424 216.81 352.728C216.642 353.024 216.558 353.38 216.558 353.796C216.558 354.204 216.642 354.56 216.81 354.864C216.978 355.168 217.206 355.4 217.494 355.56C217.782 355.72 218.106 355.8 218.466 355.8ZM226.829 357V350.232C226.829 349.56 227.025 349.024 227.417 348.624C227.817 348.216 228.385 348.012 229.121 348.012C229.385 348.012 229.633 348.04 229.865 348.096C230.105 348.152 230.305 348.24 230.465 348.36L230.057 349.488C229.945 349.4 229.817 349.336 229.673 349.296C229.529 349.248 229.381 349.224 229.229 349.224C228.917 349.224 228.681 349.312 228.521 349.488C228.361 349.656 228.281 349.912 228.281 350.256V350.976L228.329 351.648V357H226.829ZM225.773 351.84V350.64H230.045V351.84H225.773ZM233.841 357.084C233.185 357.084 232.601 356.944 232.089 356.664C231.577 356.376 231.173 355.984 230.877 355.488C230.581 354.992 230.433 354.428 230.433 353.796C230.433 353.156 230.581 352.592 230.877 352.104C231.173 351.608 231.577 351.22 232.089 350.94C232.601 350.66 233.185 350.52 233.841 350.52C234.505 350.52 235.093 350.66 235.605 350.94C236.125 351.22 236.529 351.604 236.817 352.092C237.113 352.58 237.261 353.148 237.261 353.796C237.261 354.428 237.113 354.992 236.817 355.488C236.529 355.984 236.125 356.376 235.605 356.664C235.093 356.944 234.505 357.084 233.841 357.084ZM233.841 355.8C234.209 355.8 234.537 355.72 234.825 355.56C235.113 355.4 235.337 355.168 235.497 354.864C235.665 354.56 235.749 354.204 235.749 353.796C235.749 353.38 235.665 353.024 235.497 352.728C235.337 352.424 235.113 352.192 234.825 352.032C234.537 351.872 234.213 351.792 233.853 351.792C233.485 351.792 233.157 351.872 232.869 352.032C232.589 352.192 232.365 352.424 232.197 352.728C232.029 353.024 231.945 353.38 231.945 353.796C231.945 354.204 232.029 354.56 232.197 354.864C232.365 355.168 232.589 355.4 232.869 355.56C233.157 355.72 233.481 355.8 233.841 355.8ZM238.695 357V350.592H240.123V352.356L239.955 351.84C240.147 351.408 240.447 351.08 240.855 350.856C241.271 350.632 241.787 350.52 242.403 350.52V351.948C242.339 351.932 242.279 351.924 242.223 351.924C242.167 351.916 242.111 351.912 242.055 351.912C241.487 351.912 241.035 352.08 240.699 352.416C240.363 352.744 240.195 353.236 240.195 353.892V357H238.695ZM251.082 357.12C250.442 357.12 249.846 357.016 249.294 356.808C248.75 356.592 248.274 356.292 247.866 355.908C247.466 355.516 247.154 355.056 246.93 354.528C246.706 354 246.594 353.424 246.594 352.8C246.594 352.176 246.706 351.6 246.93 351.072C247.154 350.544 247.47 350.088 247.878 349.704C248.286 349.312 248.762 349.012 249.306 348.804C249.85 348.588 250.446 348.48 251.094 348.48C251.782 348.48 252.41 348.6 252.978 348.84C253.546 349.072 254.026 349.42 254.418 349.884L253.41 350.832C253.106 350.504 252.766 350.26 252.39 350.1C252.014 349.932 251.606 349.848 251.166 349.848C250.726 349.848 250.322 349.92 249.954 350.064C249.594 350.208 249.278 350.412 249.006 350.676C248.742 350.94 248.534 351.252 248.382 351.612C248.238 351.972 248.166 352.368 248.166 352.8C248.166 353.232 248.238 353.628 248.382 353.988C248.534 354.348 248.742 354.66 249.006 354.924C249.278 355.188 249.594 355.392 249.954 355.536C250.322 355.68 250.726 355.752 251.166 355.752C251.606 355.752 252.014 355.672 252.39 355.512C252.766 355.344 253.106 355.092 253.41 354.756L254.418 355.716C254.026 356.172 253.546 356.52 252.978 356.76C252.41 357 251.778 357.12 251.082 357.12ZM259.405 350.52C259.917 350.52 260.373 350.62 260.773 350.82C261.181 351.02 261.501 351.328 261.733 351.744C261.965 352.152 262.081 352.68 262.081 353.328V357H260.581V353.52C260.581 352.952 260.445 352.528 260.173 352.248C259.909 351.968 259.537 351.828 259.057 351.828C258.705 351.828 258.393 351.9 258.121 352.044C257.849 352.188 257.637 352.404 257.485 352.692C257.341 352.972 257.269 353.328 257.269 353.76V357H255.769V348.096H257.269V352.32L256.945 351.792C257.169 351.384 257.493 351.072 257.917 350.856C258.349 350.632 258.845 350.52 259.405 350.52ZM263.984 357V350.592H265.484V357H263.984ZM264.74 349.536C264.46 349.536 264.228 349.448 264.044 349.272C263.868 349.096 263.78 348.884 263.78 348.636C263.78 348.38 263.868 348.168 264.044 348C264.228 347.824 264.46 347.736 264.74 347.736C265.02 347.736 265.248 347.82 265.424 347.988C265.608 348.148 265.7 348.352 265.7 348.6C265.7 348.864 265.612 349.088 265.436 349.272C265.26 349.448 265.028 349.536 264.74 349.536ZM271.089 350.52C271.601 350.52 272.057 350.62 272.457 350.82C272.865 351.02 273.185 351.328 273.417 351.744C273.649 352.152 273.765 352.68 273.765 353.328V357H272.265V353.52C272.265 352.952 272.129 352.528 271.857 352.248C271.593 351.968 271.221 351.828 270.741 351.828C270.389 351.828 270.077 351.9 269.805 352.044C269.533 352.188 269.321 352.404 269.169 352.692C269.025 352.972 268.953 353.328 268.953 353.76V357H267.453V350.592H268.881V352.32L268.629 351.792C268.853 351.384 269.177 351.072 269.601 350.856C270.033 350.632 270.529 350.52 271.089 350.52ZM278.691 357.084C277.979 357.084 277.355 356.944 276.819 356.664C276.291 356.376 275.879 355.984 275.583 355.488C275.295 354.992 275.151 354.428 275.151 353.796C275.151 353.156 275.291 352.592 275.571 352.104C275.859 351.608 276.251 351.22 276.747 350.94C277.251 350.66 277.823 350.52 278.463 350.52C279.087 350.52 279.643 350.656 280.131 350.928C280.619 351.2 281.003 351.584 281.283 352.08C281.563 352.576 281.703 353.16 281.703 353.832C281.703 353.896 281.699 353.968 281.691 354.048C281.691 354.128 281.687 354.204 281.679 354.276H276.339V353.28H280.887L280.299 353.592C280.307 353.224 280.231 352.9 280.071 352.62C279.911 352.34 279.691 352.12 279.411 351.96C279.139 351.8 278.823 351.72 278.463 351.72C278.095 351.72 277.771 351.8 277.491 351.96C277.219 352.12 277.003 352.344 276.843 352.632C276.691 352.912 276.615 353.244 276.615 353.628V353.868C276.615 354.252 276.703 354.592 276.879 354.888C277.055 355.184 277.303 355.412 277.623 355.572C277.943 355.732 278.311 355.812 278.727 355.812C279.087 355.812 279.411 355.756 279.699 355.644C279.987 355.532 280.243 355.356 280.467 355.116L281.271 356.04C280.983 356.376 280.619 356.636 280.179 356.82C279.747 356.996 279.251 357.084 278.691 357.084ZM285.124 357.084C284.588 357.084 284.072 357.016 283.576 356.88C283.088 356.736 282.7 356.564 282.412 356.364L282.988 355.224C283.276 355.408 283.62 355.56 284.02 355.68C284.42 355.8 284.82 355.86 285.22 355.86C285.692 355.86 286.032 355.796 286.24 355.668C286.456 355.54 286.564 355.368 286.564 355.152C286.564 354.976 286.492 354.844 286.348 354.756C286.204 354.66 286.016 354.588 285.784 354.54C285.552 354.492 285.292 354.448 285.004 354.408C284.724 354.368 284.44 354.316 284.152 354.252C283.872 354.18 283.616 354.08 283.384 353.952C283.152 353.816 282.964 353.636 282.82 353.412C282.676 353.188 282.604 352.892 282.604 352.524C282.604 352.116 282.72 351.764 282.952 351.468C283.184 351.164 283.508 350.932 283.924 350.772C284.348 350.604 284.848 350.52 285.424 350.52C285.856 350.52 286.292 350.568 286.732 350.664C287.172 350.76 287.536 350.896 287.824 351.072L287.248 352.212C286.944 352.028 286.636 351.904 286.324 351.84C286.02 351.768 285.716 351.732 285.412 351.732C284.956 351.732 284.616 351.8 284.392 351.936C284.176 352.072 284.068 352.244 284.068 352.452C284.068 352.644 284.14 352.788 284.284 352.884C284.428 352.98 284.616 353.056 284.848 353.112C285.08 353.168 285.336 353.216 285.616 353.256C285.904 353.288 286.188 353.34 286.468 353.412C286.748 353.484 287.004 353.584 287.236 353.712C287.476 353.832 287.668 354.004 287.812 354.228C287.956 354.452 288.028 354.744 288.028 355.104C288.028 355.504 287.908 355.852 287.668 356.148C287.436 356.444 287.104 356.676 286.672 356.844C286.24 357.004 285.724 357.084 285.124 357.084ZM292.332 357.084C291.62 357.084 290.996 356.944 290.46 356.664C289.932 356.376 289.52 355.984 289.224 355.488C288.936 354.992 288.792 354.428 288.792 353.796C288.792 353.156 288.932 352.592 289.212 352.104C289.5 351.608 289.892 351.22 290.388 350.94C290.892 350.66 291.464 350.52 292.104 350.52C292.728 350.52 293.284 350.656 293.772 350.928C294.26 351.2 294.644 351.584 294.924 352.08C295.204 352.576 295.344 353.16 295.344 353.832C295.344 353.896 295.34 353.968 295.332 354.048C295.332 354.128 295.328 354.204 295.32 354.276H289.98V353.28H294.528L293.94 353.592C293.948 353.224 293.872 352.9 293.712 352.62C293.552 352.34 293.332 352.12 293.052 351.96C292.78 351.8 292.464 351.72 292.104 351.72C291.736 351.72 291.412 351.8 291.132 351.96C290.86 352.12 290.644 352.344 290.484 352.632C290.332 352.912 290.256 353.244 290.256 353.628V353.868C290.256 354.252 290.344 354.592 290.52 354.888C290.696 355.184 290.944 355.412 291.264 355.572C291.584 355.732 291.952 355.812 292.368 355.812C292.728 355.812 293.052 355.756 293.34 355.644C293.628 355.532 293.884 355.356 294.108 355.116L294.912 356.04C294.624 356.376 294.26 356.636 293.82 356.82C293.388 356.996 292.892 357.084 292.332 357.084ZM153.58 372.084C152.908 372.084 152.308 371.944 151.78 371.664C151.26 371.376 150.852 370.984 150.556 370.488C150.26 369.992 150.112 369.428 150.112 368.796C150.112 368.156 150.26 367.592 150.556 367.104C150.852 366.608 151.26 366.22 151.78 365.94C152.308 365.66 152.908 365.52 153.58 365.52C154.204 365.52 154.752 365.648 155.224 365.904C155.704 366.152 156.068 366.52 156.316 367.008L155.164 367.68C154.972 367.376 154.736 367.152 154.456 367.008C154.184 366.864 153.888 366.792 153.568 366.792C153.2 366.792 152.868 366.872 152.572 367.032C152.276 367.192 152.044 367.424 151.876 367.728C151.708 368.024 151.624 368.38 151.624 368.796C151.624 369.212 151.708 369.572 151.876 369.876C152.044 370.172 152.276 370.4 152.572 370.56C152.868 370.72 153.2 370.8 153.568 370.8C153.888 370.8 154.184 370.728 154.456 370.584C154.736 370.44 154.972 370.216 155.164 369.912L156.316 370.584C156.068 371.064 155.704 371.436 155.224 371.7C154.752 371.956 154.204 372.084 153.58 372.084ZM161.19 365.52C161.702 365.52 162.158 365.62 162.558 365.82C162.966 366.02 163.286 366.328 163.518 366.744C163.75 367.152 163.866 367.68 163.866 368.328V372H162.366V368.52C162.366 367.952 162.23 367.528 161.958 367.248C161.694 366.968 161.322 366.828 160.842 366.828C160.49 366.828 160.178 366.9 159.906 367.044C159.634 367.188 159.422 367.404 159.27 367.692C159.126 367.972 159.054 368.328 159.054 368.76V372H157.554V363.096H159.054V367.32L158.73 366.792C158.954 366.384 159.278 366.072 159.702 365.856C160.134 365.632 160.63 365.52 161.19 365.52ZM165.769 372V365.592H167.197V367.356L167.029 366.84C167.221 366.408 167.521 366.08 167.929 365.856C168.345 365.632 168.861 365.52 169.477 365.52V366.948C169.413 366.932 169.353 366.924 169.297 366.924C169.241 366.916 169.185 366.912 169.129 366.912C168.561 366.912 168.109 367.08 167.773 367.416C167.437 367.744 167.269 368.236 167.269 368.892V372H165.769ZM173.571 372.084C172.915 372.084 172.331 371.944 171.819 371.664C171.307 371.376 170.903 370.984 170.607 370.488C170.311 369.992 170.163 369.428 170.163 368.796C170.163 368.156 170.311 367.592 170.607 367.104C170.903 366.608 171.307 366.22 171.819 365.94C172.331 365.66 172.915 365.52 173.571 365.52C174.235 365.52 174.823 365.66 175.335 365.94C175.855 366.22 176.259 366.604 176.547 367.092C176.843 367.58 176.991 368.148 176.991 368.796C176.991 369.428 176.843 369.992 176.547 370.488C176.259 370.984 175.855 371.376 175.335 371.664C174.823 371.944 174.235 372.084 173.571 372.084ZM173.571 370.8C173.939 370.8 174.267 370.72 174.555 370.56C174.843 370.4 175.067 370.168 175.227 369.864C175.395 369.56 175.479 369.204 175.479 368.796C175.479 368.38 175.395 368.024 175.227 367.728C175.067 367.424 174.843 367.192 174.555 367.032C174.267 366.872 173.943 366.792 173.583 366.792C173.215 366.792 172.887 366.872 172.599 367.032C172.319 367.192 172.095 367.424 171.927 367.728C171.759 368.024 171.675 368.38 171.675 368.796C171.675 369.204 171.759 369.56 171.927 369.864C172.095 370.168 172.319 370.4 172.599 370.56C172.887 370.72 173.211 370.8 173.571 370.8ZM182.061 365.52C182.573 365.52 183.029 365.62 183.429 365.82C183.837 366.02 184.157 366.328 184.389 366.744C184.621 367.152 184.737 367.68 184.737 368.328V372H183.237V368.52C183.237 367.952 183.101 367.528 182.829 367.248C182.565 366.968 182.193 366.828 181.713 366.828C181.361 366.828 181.049 366.9 180.777 367.044C180.505 367.188 180.293 367.404 180.141 367.692C179.997 367.972 179.925 368.328 179.925 368.76V372H178.425V365.592H179.853V367.32L179.601 366.792C179.825 366.384 180.149 366.072 180.573 365.856C181.005 365.632 181.501 365.52 182.061 365.52ZM186.64 372V365.592H188.14V372H186.64ZM187.396 364.536C187.116 364.536 186.884 364.448 186.7 364.272C186.524 364.096 186.436 363.884 186.436 363.636C186.436 363.38 186.524 363.168 186.7 363C186.884 362.824 187.116 362.736 187.396 362.736C187.676 362.736 187.904 362.82 188.08 362.988C188.264 363.148 188.356 363.352 188.356 363.6C188.356 363.864 188.268 364.088 188.092 364.272C187.916 364.448 187.684 364.536 187.396 364.536ZM193.049 372.084C192.377 372.084 191.777 371.944 191.249 371.664C190.729 371.376 190.321 370.984 190.025 370.488C189.729 369.992 189.581 369.428 189.581 368.796C189.581 368.156 189.729 367.592 190.025 367.104C190.321 366.608 190.729 366.22 191.249 365.94C191.777 365.66 192.377 365.52 193.049 365.52C193.673 365.52 194.221 365.648 194.693 365.904C195.173 366.152 195.537 366.52 195.785 367.008L194.633 367.68C194.441 367.376 194.205 367.152 193.925 367.008C193.653 366.864 193.357 366.792 193.037 366.792C192.669 366.792 192.337 366.872 192.041 367.032C191.745 367.192 191.513 367.424 191.345 367.728C191.177 368.024 191.093 368.38 191.093 368.796C191.093 369.212 191.177 369.572 191.345 369.876C191.513 370.172 191.745 370.4 192.041 370.56C192.337 370.72 192.669 370.8 193.037 370.8C193.357 370.8 193.653 370.728 193.925 370.584C194.205 370.44 194.441 370.216 194.633 369.912L195.785 370.584C195.537 371.064 195.173 371.436 194.693 371.7C194.221 371.956 193.673 372.084 193.049 372.084ZM203.95 372.084C203.43 372.084 202.954 371.964 202.522 371.724C202.098 371.484 201.758 371.124 201.502 370.644C201.254 370.156 201.13 369.54 201.13 368.796C201.13 368.044 201.25 367.428 201.49 366.948C201.738 366.468 202.074 366.112 202.498 365.88C202.922 365.64 203.406 365.52 203.95 365.52C204.582 365.52 205.138 365.656 205.618 365.928C206.106 366.2 206.49 366.58 206.77 367.068C207.058 367.556 207.202 368.132 207.202 368.796C207.202 369.46 207.058 370.04 206.77 370.536C206.49 371.024 206.106 371.404 205.618 371.676C205.138 371.948 204.582 372.084 203.95 372.084ZM200.398 374.328V365.592H201.826V367.104L201.778 368.808L201.898 370.512V374.328H200.398ZM203.782 370.8C204.142 370.8 204.462 370.72 204.742 370.56C205.03 370.4 205.258 370.168 205.426 369.864C205.594 369.56 205.678 369.204 205.678 368.796C205.678 368.38 205.594 368.024 205.426 367.728C205.258 367.424 205.03 367.192 204.742 367.032C204.462 366.872 204.142 366.792 203.782 366.792C203.422 366.792 203.098 366.872 202.81 367.032C202.522 367.192 202.294 367.424 202.126 367.728C201.958 368.024 201.874 368.38 201.874 368.796C201.874 369.204 201.958 369.56 202.126 369.864C202.294 370.168 202.522 370.4 202.81 370.56C203.098 370.72 203.422 370.8 203.782 370.8ZM212.491 372V370.704L212.407 370.428V368.16C212.407 367.72 212.275 367.38 212.011 367.14C211.747 366.892 211.347 366.768 210.811 366.768C210.451 366.768 210.095 366.824 209.743 366.936C209.399 367.048 209.107 367.204 208.867 367.404L208.279 366.312C208.623 366.048 209.031 365.852 209.503 365.724C209.983 365.588 210.479 365.52 210.991 365.52C211.919 365.52 212.635 365.744 213.139 366.192C213.651 366.632 213.907 367.316 213.907 368.244V372H212.491ZM210.475 372.084C209.995 372.084 209.575 372.004 209.215 371.844C208.855 371.676 208.575 371.448 208.375 371.16C208.183 370.864 208.087 370.532 208.087 370.164C208.087 369.804 208.171 369.48 208.339 369.192C208.515 368.904 208.799 368.676 209.191 368.508C209.583 368.34 210.103 368.256 210.751 368.256H212.611V369.252H210.859C210.347 369.252 210.003 369.336 209.827 369.504C209.651 369.664 209.563 369.864 209.563 370.104C209.563 370.376 209.671 370.592 209.887 370.752C210.103 370.912 210.403 370.992 210.787 370.992C211.155 370.992 211.483 370.908 211.771 370.74C212.067 370.572 212.279 370.324 212.407 369.996L212.659 370.896C212.515 371.272 212.255 371.564 211.879 371.772C211.511 371.98 211.043 372.084 210.475 372.084ZM218.244 372.084C217.54 372.084 216.996 371.904 216.612 371.544C216.228 371.176 216.036 370.636 216.036 369.924V364.176H217.536V369.888C217.536 370.192 217.612 370.428 217.764 370.596C217.924 370.764 218.144 370.848 218.424 370.848C218.76 370.848 219.04 370.76 219.264 370.584L219.684 371.652C219.508 371.796 219.292 371.904 219.036 371.976C218.78 372.048 218.516 372.084 218.244 372.084ZM214.98 366.84V365.64H219.252V366.84H214.98ZM220.918 372V365.592H222.418V372H220.918ZM221.674 364.536C221.394 364.536 221.162 364.448 220.978 364.272C220.802 364.096 220.714 363.884 220.714 363.636C220.714 363.38 220.802 363.168 220.978 363C221.162 362.824 221.394 362.736 221.674 362.736C221.954 362.736 222.182 362.82 222.358 362.988C222.542 363.148 222.634 363.352 222.634 363.6C222.634 363.864 222.546 364.088 222.37 364.272C222.194 364.448 221.962 364.536 221.674 364.536ZM227.398 372.084C226.686 372.084 226.062 371.944 225.526 371.664C224.998 371.376 224.586 370.984 224.29 370.488C224.002 369.992 223.858 369.428 223.858 368.796C223.858 368.156 223.998 367.592 224.278 367.104C224.566 366.608 224.958 366.22 225.454 365.94C225.958 365.66 226.53 365.52 227.17 365.52C227.794 365.52 228.35 365.656 228.838 365.928C229.326 366.2 229.71 366.584 229.99 367.08C230.27 367.576 230.41 368.16 230.41 368.832C230.41 368.896 230.406 368.968 230.398 369.048C230.398 369.128 230.394 369.204 230.386 369.276H225.046V368.28H229.594L229.006 368.592C229.014 368.224 228.938 367.9 228.778 367.62C228.618 367.34 228.398 367.12 228.118 366.96C227.846 366.8 227.53 366.72 227.17 366.72C226.802 366.72 226.478 366.8 226.198 366.96C225.926 367.12 225.71 367.344 225.55 367.632C225.398 367.912 225.322 368.244 225.322 368.628V368.868C225.322 369.252 225.41 369.592 225.586 369.888C225.762 370.184 226.01 370.412 226.33 370.572C226.65 370.732 227.018 370.812 227.434 370.812C227.794 370.812 228.118 370.756 228.406 370.644C228.694 370.532 228.95 370.356 229.174 370.116L229.978 371.04C229.69 371.376 229.326 371.636 228.886 371.82C228.454 371.996 227.958 372.084 227.398 372.084ZM235.487 365.52C235.999 365.52 236.455 365.62 236.855 365.82C237.263 366.02 237.583 366.328 237.815 366.744C238.047 367.152 238.163 367.68 238.163 368.328V372H236.663V368.52C236.663 367.952 236.527 367.528 236.255 367.248C235.991 366.968 235.619 366.828 235.139 366.828C234.787 366.828 234.475 366.9 234.203 367.044C233.931 367.188 233.719 367.404 233.567 367.692C233.423 367.972 233.351 368.328 233.351 368.76V372H231.851V365.592H233.279V367.32L233.027 366.792C233.251 366.384 233.575 366.072 233.999 365.856C234.431 365.632 234.927 365.52 235.487 365.52ZM242.478 372.084C241.774 372.084 241.23 371.904 240.846 371.544C240.462 371.176 240.27 370.636 240.27 369.924V364.176H241.77V369.888C241.77 370.192 241.846 370.428 241.998 370.596C242.158 370.764 242.378 370.848 242.658 370.848C242.994 370.848 243.274 370.76 243.498 370.584L243.918 371.652C243.742 371.796 243.526 371.904 243.27 371.976C243.014 372.048 242.75 372.084 242.478 372.084ZM239.214 366.84V365.64H243.486V366.84H239.214ZM247.132 372.084C246.596 372.084 246.08 372.016 245.584 371.88C245.096 371.736 244.708 371.564 244.42 371.364L244.996 370.224C245.284 370.408 245.628 370.56 246.028 370.68C246.428 370.8 246.828 370.86 247.228 370.86C247.7 370.86 248.04 370.796 248.248 370.668C248.464 370.54 248.572 370.368 248.572 370.152C248.572 369.976 248.5 369.844 248.356 369.756C248.212 369.66 248.024 369.588 247.792 369.54C247.56 369.492 247.3 369.448 247.012 369.408C246.732 369.368 246.448 369.316 246.16 369.252C245.88 369.18 245.624 369.08 245.392 368.952C245.16 368.816 244.972 368.636 244.828 368.412C244.684 368.188 244.612 367.892 244.612 367.524C244.612 367.116 244.728 366.764 244.96 366.468C245.192 366.164 245.516 365.932 245.932 365.772C246.356 365.604 246.856 365.52 247.432 365.52C247.864 365.52 248.3 365.568 248.74 365.664C249.18 365.76 249.544 365.896 249.832 366.072L249.256 367.212C248.952 367.028 248.644 366.904 248.332 366.84C248.028 366.768 247.724 366.732 247.42 366.732C246.964 366.732 246.624 366.8 246.4 366.936C246.184 367.072 246.076 367.244 246.076 367.452C246.076 367.644 246.148 367.788 246.292 367.884C246.436 367.98 246.624 368.056 246.856 368.112C247.088 368.168 247.344 368.216 247.624 368.256C247.912 368.288 248.196 368.34 248.476 368.412C248.756 368.484 249.012 368.584 249.244 368.712C249.484 368.832 249.676 369.004 249.82 369.228C249.964 369.452 250.036 369.744 250.036 370.104C250.036 370.504 249.916 370.852 249.676 371.148C249.444 371.444 249.112 371.676 248.68 371.844C248.248 372.004 247.732 372.084 247.132 372.084Z" fill="white"/>
</svg>
