<svg width="400" height="400" viewBox="0 0 400 400" fill="none" xmlns="http://www.w3.org/2000/svg">
<circle cx="200" cy="200" r="200" fill="#2444F5"/>
<path d="M186.431 30.6201L193.188 30.63L199.944 37.3172L206.69 30.63H213.447L220.203 37.3172V44.0044L199.944 64.066L179.675 44.0044V37.3172L186.431 30.6201Z" stroke="#EA7C23" stroke-width="0.300183"/>
<path d="M192.941 30.6201L179.606 43.8167" stroke="#EA7C23" stroke-width="0.300183"/>
<path d="M192.96 37.3765L186.461 43.8069" stroke="#EA7C23" stroke-width="0.300183"/>
<path d="M199.786 37.3567L186.441 50.5731" stroke="#EA7C23" stroke-width="0.300183"/>
<path d="M213.466 30.6398L193.326 50.5829" stroke="#EA7C23" stroke-width="0.300183"/>
<path d="M213.427 37.3862L193.613 57.2997H206.869" stroke="#EA7C23" stroke-width="0.300183"/>
<path d="M220.173 37.4355L200.042 57.3688" stroke="#EA7C23" stroke-width="0.300183"/>
<path d="M179.438 44.014H220.391" stroke="#EA7C23" stroke-width="0.300183"/>
<path d="M186.293 50.7507H213.595" stroke="#EA7C23" stroke-width="0.300183"/>
<path d="M179.458 37.327H220.391" stroke="#EA7C23" stroke-width="0.300183"/>
<path d="M186.284 31.8052C186.561 31.8033 186.831 31.7194 187.06 31.5641C187.29 31.4088 187.468 31.189 187.572 30.9326C187.677 30.6761 187.703 30.3944 187.648 30.123C187.593 29.8515 187.459 29.6025 187.262 29.4073C187.066 29.2122 186.816 29.0796 186.544 29.0262C186.272 28.9729 185.99 29.0013 185.735 29.1077C185.479 29.2142 185.261 29.3939 185.107 29.6244C184.953 29.8548 184.871 30.1256 184.871 30.4026C184.871 30.5876 184.908 30.7708 184.979 30.9417C185.05 31.1125 185.154 31.2675 185.285 31.3979C185.417 31.5283 185.572 31.6314 185.744 31.7013C185.915 31.7712 186.099 31.8065 186.284 31.8052Z" fill="white"/>
<path d="M193.11 31.8053C193.387 31.8053 193.658 31.723 193.889 31.5689C194.12 31.4148 194.299 31.1957 194.406 30.9394C194.512 30.6831 194.539 30.4011 194.485 30.129C194.431 29.8569 194.298 29.607 194.101 29.4108C193.905 29.2147 193.655 29.0811 193.383 29.027C193.111 28.9728 192.829 29.0006 192.573 29.1068C192.317 29.2129 192.098 29.3927 191.943 29.6234C191.789 29.854 191.707 30.1252 191.707 30.4026C191.707 30.7746 191.855 31.1314 192.118 31.3944C192.381 31.6575 192.738 31.8053 193.11 31.8053Z" fill="white"/>
<path d="M186.284 38.6011C186.561 38.5992 186.831 38.5153 187.06 38.36C187.29 38.2047 187.468 37.9849 187.572 37.7285C187.677 37.472 187.703 37.1903 187.648 36.9189C187.593 36.6474 187.459 36.3984 187.262 36.2032C187.066 36.0081 186.816 35.8755 186.544 35.8221C186.272 35.7688 185.99 35.7972 185.735 35.9036C185.479 36.0101 185.261 36.1898 185.107 36.4203C184.953 36.6507 184.871 36.9215 184.871 37.1985C184.874 37.5714 185.024 37.9282 185.288 38.1909C185.553 38.4537 185.911 38.6011 186.284 38.6011Z" fill="white"/>
<path d="M179.458 45.3969C179.735 45.395 180.006 45.311 180.235 45.1557C180.464 45.0004 180.643 44.7807 180.747 44.5242C180.852 44.2678 180.878 43.9861 180.823 43.7146C180.768 43.4432 180.633 43.1942 180.437 42.999C180.24 42.8038 179.99 42.6712 179.719 42.6179C179.447 42.5646 179.165 42.5929 178.91 42.6994C178.654 42.8058 178.435 42.9856 178.282 43.216C178.128 43.4465 178.046 43.7173 178.046 43.9943C178.049 44.3672 178.198 44.7239 178.463 44.9867C178.728 45.2495 179.085 45.3969 179.458 45.3969Z" fill="white"/>
<path d="M186.284 45.3969C186.561 45.395 186.831 45.311 187.06 45.1557C187.29 45.0004 187.468 44.7807 187.572 44.5242C187.677 44.2678 187.703 43.9861 187.648 43.7146C187.593 43.4432 187.459 43.1942 187.262 42.999C187.066 42.8038 186.816 42.6712 186.544 42.6179C186.272 42.5646 185.99 42.5929 185.735 42.6994C185.479 42.8058 185.261 42.9856 185.107 43.216C184.953 43.4465 184.871 43.7173 184.871 43.9943C184.874 44.3672 185.024 44.7239 185.288 44.9867C185.553 45.2495 185.911 45.3969 186.284 45.3969Z" fill="white"/>
<path d="M193.109 45.3674C193.386 45.3654 193.656 45.2815 193.886 45.1262C194.115 44.9709 194.293 44.7512 194.398 44.4947C194.503 44.2382 194.529 43.9565 194.474 43.6851C194.419 43.4137 194.284 43.1647 194.088 42.9695C193.891 42.7743 193.641 42.6417 193.369 42.5884C193.098 42.535 192.816 42.5634 192.56 42.6698C192.305 42.7763 192.086 42.9561 191.932 43.1865C191.779 43.417 191.697 43.6877 191.697 43.9647C191.697 44.1498 191.733 44.333 191.804 44.5038C191.876 44.6746 191.98 44.8297 192.111 44.9601C192.242 45.0904 192.398 45.1935 192.569 45.2634C192.741 45.3334 192.924 45.3687 193.109 45.3674Z" fill="white"/>
<path d="M186.294 52.2026C186.571 52.2026 186.842 52.1203 187.073 51.9662C187.304 51.8121 187.483 51.593 187.59 51.3367C187.696 51.0804 187.724 50.7984 187.669 50.5263C187.615 50.2543 187.482 50.0043 187.286 49.8082C187.089 49.612 186.839 49.4784 186.567 49.4243C186.295 49.3702 186.013 49.3979 185.757 49.5041C185.501 49.6103 185.282 49.79 185.128 50.0207C184.973 50.2514 184.891 50.5226 184.891 50.8C184.894 51.1712 185.042 51.5264 185.305 51.7889C185.567 52.0514 185.923 52.2 186.294 52.2026Z" fill="white"/>
<path d="M193.11 52.2026C193.387 52.2026 193.658 52.1203 193.889 51.9662C194.12 51.8121 194.299 51.593 194.406 51.3367C194.512 51.0804 194.539 50.7984 194.485 50.5263C194.431 50.2543 194.298 50.0043 194.101 49.8082C193.905 49.612 193.655 49.4784 193.383 49.4243C193.111 49.3702 192.829 49.3979 192.573 49.5041C192.317 49.6103 192.098 49.79 191.943 50.0207C191.789 50.2514 191.707 50.5226 191.707 50.8C191.71 51.1712 191.858 51.5264 192.121 51.7889C192.383 52.0514 192.738 52.2 193.11 52.2026Z" fill="white"/>
<path d="M193.11 58.9789C193.387 58.9789 193.658 58.8966 193.889 58.7425C194.12 58.5883 194.299 58.3693 194.406 58.113C194.512 57.8567 194.539 57.5747 194.485 57.3026C194.431 57.0305 194.298 56.7806 194.101 56.5844C193.905 56.3882 193.655 56.2547 193.383 56.2005C193.111 56.1464 192.829 56.1742 192.573 56.2804C192.317 56.3865 192.098 56.5663 191.943 56.797C191.789 57.0276 191.707 57.2988 191.707 57.5762C191.707 57.9482 191.855 58.305 192.118 58.568C192.381 58.8311 192.738 58.9789 193.11 58.9789Z" fill="white"/>
<path d="M199.945 58.9788C200.222 58.9769 200.492 58.8929 200.721 58.7376C200.951 58.5823 201.129 58.3626 201.234 58.1061C201.338 57.8497 201.365 57.568 201.309 57.2965C201.254 57.0251 201.12 56.7761 200.923 56.5809C200.727 56.3858 200.477 56.2531 200.205 56.1998C199.933 56.1465 199.652 56.1748 199.396 56.2813C199.14 56.3877 198.922 56.5675 198.768 56.798C198.614 57.0284 198.532 57.2992 198.532 57.5762C198.532 57.7612 198.569 57.9444 198.64 58.1152C198.711 58.2861 198.815 58.4411 198.947 58.5715C199.078 58.7019 199.234 58.805 199.405 58.8749C199.576 58.9448 199.76 58.9801 199.945 58.9788Z" fill="white"/>
<path d="M199.945 65.7748C200.222 65.7729 200.492 65.689 200.721 65.5337C200.951 65.3784 201.129 65.1586 201.234 64.9022C201.338 64.6457 201.365 64.364 201.309 64.0926C201.254 63.8211 201.12 63.5721 200.923 63.377C200.727 63.1818 200.477 63.0492 200.205 62.9958C199.933 62.9425 199.652 62.9709 199.396 63.0773C199.14 63.1838 198.922 63.3635 198.768 63.594C198.614 63.8244 198.532 64.0952 198.532 64.3722C198.532 64.5572 198.569 64.7404 198.64 64.9113C198.711 65.0821 198.815 65.2371 198.947 65.3675C199.078 65.4979 199.234 65.601 199.405 65.6709C199.576 65.7408 199.76 65.7761 199.945 65.7748Z" fill="white"/>
<path d="M206.77 58.9788C207.046 58.9729 207.314 58.8858 207.541 58.7281C207.767 58.5705 207.943 58.3495 208.044 58.0927C208.146 57.8359 208.169 57.5549 208.112 57.2848C208.055 57.0147 207.919 56.7675 207.721 56.5743C207.524 56.3811 207.274 56.2505 207.003 56.1987C206.732 56.1469 206.451 56.1764 206.197 56.2834C205.942 56.3903 205.725 56.5701 205.572 56.8001C205.419 57.03 205.338 57.3 205.337 57.5761C205.336 57.7616 205.372 57.9454 205.442 58.1168C205.513 58.2882 205.617 58.4438 205.749 58.5744C205.88 58.7051 206.037 58.8081 206.209 58.8776C206.381 58.947 206.565 58.9814 206.75 58.9788" fill="white"/>
<path d="M199.945 52.2026C200.222 52.2006 200.492 52.1167 200.721 51.9614C200.951 51.8061 201.129 51.5864 201.234 51.3299C201.338 51.0734 201.365 50.7917 201.309 50.5203C201.254 50.2489 201.12 49.9999 200.923 49.8047C200.727 49.6095 200.477 49.4769 200.205 49.4236C199.933 49.3703 199.652 49.3986 199.396 49.505C199.14 49.6115 198.922 49.7913 198.768 50.0217C198.614 50.2522 198.532 50.5229 198.532 50.7999C198.535 51.1728 198.685 51.5296 198.949 51.7924C199.214 52.0551 199.572 52.2026 199.945 52.2026Z" fill="white"/>
<path d="M206.77 52.1928C207.046 52.1869 207.314 52.0997 207.541 51.9421C207.767 51.7845 207.943 51.5634 208.044 51.3067C208.146 51.0499 208.169 50.7689 208.112 50.4988C208.055 50.2287 207.919 49.9815 207.721 49.7883C207.524 49.5951 207.274 49.4644 207.003 49.4127C206.732 49.3609 206.451 49.3904 206.197 49.4974C205.942 49.6043 205.725 49.7841 205.572 50.014C205.419 50.244 205.337 50.514 205.337 50.7901C205.337 50.9752 205.374 51.1584 205.445 51.3292C205.516 51.5 205.62 51.6551 205.752 51.7855C205.883 51.9158 206.039 52.0189 206.21 52.0889C206.381 52.1588 206.565 52.1941 206.75 52.1928" fill="white"/>
<path d="M213.595 52.1928C213.967 52.1928 214.324 52.0451 214.587 51.782C214.85 51.519 214.998 51.1622 214.998 50.7902C214.998 50.4182 214.85 50.0614 214.587 49.7984C214.324 49.5354 213.967 49.3876 213.595 49.3876C213.223 49.3876 212.866 49.5354 212.603 49.7984C212.34 50.0614 212.192 50.4182 212.192 50.7902C212.192 51.1622 212.34 51.519 212.603 51.782C212.866 52.0451 213.223 52.1928 213.595 52.1928Z" fill="white"/>
<path d="M213.526 45.4167C213.804 45.4167 214.075 45.3342 214.306 45.1796C214.537 45.0251 214.717 44.8054 214.822 44.5485C214.928 44.2917 214.956 44.0091 214.901 43.7368C214.846 43.4644 214.711 43.2145 214.514 43.0188C214.317 42.823 214.066 42.6902 213.793 42.6372C213.521 42.5842 213.238 42.6134 212.982 42.7211C212.726 42.8288 212.508 43.0101 212.355 43.242C212.202 43.474 212.121 43.7461 212.123 44.024C212.126 44.3942 212.275 44.7485 212.537 45.0094C212.8 45.2703 213.155 45.4167 213.526 45.4167Z" fill="white"/>
<path d="M206.77 45.397C207.046 45.3912 207.314 45.304 207.541 45.1463C207.767 44.9887 207.943 44.7677 208.044 44.5109C208.146 44.2542 208.169 43.9731 208.112 43.703C208.055 43.4329 207.919 43.1858 207.721 42.9926C207.524 42.7993 207.274 42.6687 207.003 42.6169C206.732 42.5651 206.451 42.5946 206.197 42.7016C205.942 42.8086 205.725 42.9883 205.572 43.2183C205.419 43.4482 205.337 43.7182 205.337 43.9944C205.337 44.1794 205.374 44.3626 205.445 44.5334C205.516 44.7042 205.62 44.8593 205.752 44.9897C205.883 45.1201 206.039 45.2232 206.21 45.2931C206.381 45.363 206.565 45.3983 206.75 45.397" fill="white"/>
<path d="M199.945 45.3969C200.222 45.395 200.492 45.311 200.721 45.1557C200.951 45.0004 201.129 44.7807 201.234 44.5242C201.338 44.2678 201.365 43.9861 201.309 43.7146C201.254 43.4432 201.12 43.1942 200.923 42.999C200.727 42.8038 200.477 42.6712 200.205 42.6179C199.933 42.5646 199.652 42.5929 199.396 42.6994C199.14 42.8058 198.922 42.9856 198.768 43.216C198.614 43.4465 198.532 43.7173 198.532 43.9943C198.535 44.3672 198.685 44.7239 198.949 44.9867C199.214 45.2495 199.572 45.3969 199.945 45.3969Z" fill="white"/>
<path d="M199.945 38.6011C200.222 38.5992 200.492 38.5153 200.721 38.36C200.951 38.2047 201.129 37.9849 201.234 37.7285C201.338 37.472 201.365 37.1903 201.309 36.9189C201.254 36.6474 201.12 36.3984 200.923 36.2032C200.727 36.0081 200.477 35.8755 200.205 35.8221C199.933 35.7688 199.652 35.7972 199.396 35.9036C199.14 36.0101 198.922 36.1898 198.768 36.4203C198.614 36.6507 198.532 36.9215 198.532 37.1985C198.535 37.5714 198.685 37.9282 198.949 38.1909C199.214 38.4537 199.572 38.6011 199.945 38.6011Z" fill="white"/>
<path d="M206.769 31.8053C207.141 31.8053 207.498 31.6575 207.761 31.3944C208.024 31.1314 208.172 30.7746 208.172 30.4026C208.172 30.0306 208.024 29.6739 207.761 29.4108C207.498 29.1478 207.141 29 206.769 29C206.397 29 206.041 29.1478 205.778 29.4108C205.514 29.6739 205.367 30.0306 205.367 30.4026C205.367 30.7746 205.514 31.1314 205.778 31.3944C206.041 31.6575 206.397 31.8053 206.769 31.8053Z" fill="white"/>
<path d="M213.596 31.8052C213.873 31.8033 214.143 31.7194 214.372 31.5641C214.602 31.4088 214.78 31.189 214.884 30.9326C214.989 30.6761 215.015 30.3944 214.96 30.123C214.905 29.8515 214.771 29.6025 214.574 29.4073C214.378 29.2122 214.128 29.0796 213.856 29.0262C213.584 28.9729 213.302 29.0013 213.047 29.1077C212.791 29.2142 212.573 29.3939 212.419 29.6244C212.265 29.8548 212.183 30.1256 212.183 30.4026C212.186 30.7755 212.336 31.1323 212.6 31.395C212.865 31.6578 213.223 31.8052 213.596 31.8052Z" fill="white"/>
<path d="M206.77 38.6011C207.046 38.5953 207.314 38.5081 207.541 38.3504C207.767 38.1928 207.943 37.9718 208.044 37.715C208.146 37.4583 208.169 37.1772 208.112 36.9071C208.055 36.637 207.919 36.3899 207.721 36.1967C207.524 36.0034 207.274 35.8728 207.003 35.821C206.732 35.7692 206.451 35.7987 206.197 35.9057C205.942 36.0127 205.725 36.1924 205.572 36.4224C205.419 36.6523 205.337 36.9223 205.337 37.1985C205.337 37.3835 205.374 37.5667 205.445 37.7375C205.516 37.9083 205.62 38.0634 205.752 38.1938C205.883 38.3242 206.039 38.4273 206.21 38.4972C206.381 38.5671 206.565 38.6024 206.75 38.6011" fill="white"/>
<path d="M213.595 38.6012C213.872 38.6012 214.144 38.5189 214.374 38.3648C214.605 38.2107 214.785 37.9916 214.891 37.7353C214.997 37.479 215.025 37.197 214.971 36.9249C214.917 36.6528 214.783 36.4029 214.587 36.2067C214.391 36.0106 214.141 35.877 213.869 35.8229C213.597 35.7687 213.315 35.7965 213.058 35.9027C212.802 36.0088 212.583 36.1886 212.429 36.4193C212.275 36.6499 212.192 36.9211 212.192 37.1985C212.195 37.5697 212.344 37.925 212.606 38.1875C212.869 38.45 213.224 38.5986 213.595 38.6012Z" fill="white"/>
<path d="M220.421 45.3969C220.699 45.3969 220.97 45.3147 221.2 45.1606C221.431 45.0064 221.611 44.7874 221.717 44.5311C221.823 44.2748 221.851 43.9928 221.797 43.7207C221.743 43.4486 221.609 43.1987 221.413 43.0025C221.217 42.8063 220.967 42.6727 220.695 42.6186C220.423 42.5645 220.141 42.5923 219.884 42.6984C219.628 42.8046 219.409 42.9844 219.255 43.215C219.101 43.4457 219.019 43.7169 219.019 43.9943C219.021 44.3655 219.17 44.7208 219.432 44.9833C219.695 45.2457 220.05 45.3944 220.421 45.3969Z" fill="white"/>
<path d="M193.11 38.6012C193.387 38.6012 193.658 38.5189 193.889 38.3648C194.12 38.2107 194.299 37.9916 194.406 37.7353C194.512 37.479 194.539 37.197 194.485 36.9249C194.431 36.6528 194.298 36.4029 194.101 36.2067C193.905 36.0106 193.655 35.877 193.383 35.8229C193.111 35.7687 192.829 35.7965 192.573 35.9027C192.317 36.0088 192.098 36.1886 191.943 36.4193C191.789 36.6499 191.707 36.9211 191.707 37.1985C191.71 37.5697 191.858 37.925 192.121 38.1875C192.383 38.45 192.738 38.5986 193.11 38.6012Z" fill="white"/>
<path d="M179.458 38.6011C179.735 38.5992 180.006 38.5153 180.235 38.36C180.464 38.2047 180.643 37.9849 180.747 37.7285C180.852 37.472 180.878 37.1903 180.823 36.9189C180.768 36.6474 180.633 36.3984 180.437 36.2032C180.24 36.0081 179.99 35.8755 179.719 35.8221C179.447 35.7688 179.165 35.7972 178.91 35.9036C178.654 36.0101 178.435 36.1898 178.282 36.4203C178.128 36.6507 178.046 36.9215 178.046 37.1985C178.049 37.5714 178.198 37.9282 178.463 38.1909C178.728 38.4537 179.085 38.6011 179.458 38.6011Z" fill="white"/>
<path d="M220.421 38.6012C220.699 38.6012 220.97 38.5189 221.2 38.3648C221.431 38.2107 221.611 37.9916 221.717 37.7353C221.823 37.479 221.851 37.197 221.797 36.9249C221.743 36.6528 221.609 36.4029 221.413 36.2067C221.217 36.0106 220.967 35.877 220.695 35.8229C220.423 35.7687 220.141 35.7965 219.884 35.9027C219.628 36.0088 219.409 36.1886 219.255 36.4193C219.101 36.6499 219.019 36.9211 219.019 37.1985C219.021 37.5697 219.17 37.925 219.432 38.1875C219.695 38.45 220.05 38.5986 220.421 38.6012Z" fill="white"/>
<path d="M180.476 62.0607C181.776 61.9353 183.064 61.7074 184.328 61.3792C185.532 60.7927 186.892 60.6059 188.21 60.8458C189.543 61.2606 190.689 63.7597 190.689 63.7597L186.837 64.6783L181.77 63.6906L180.476 62.0607Z" fill="#C86522"/>
<path d="M151.01 50.1384H174.45C175.083 50.1327 175.695 50.3695 176.159 50.8002C176.959 51.5213 183.883 58.6135 183.883 58.6135C183.539 59.0158 183.107 59.3343 182.621 59.5448C182.135 59.7553 181.607 59.8523 181.078 59.8284C179.867 59.6283 178.768 58.9968 177.986 58.0504L175.784 55.9663C175.784 55.9663 175.369 55.6502 175.082 55.9663C174.796 56.2823 175.181 56.6379 175.181 56.6379L180.426 61.8139C181.872 62.9496 183.563 63.731 185.365 64.0956C188.704 64.8957 191.094 65.4291 191.094 65.4291C191.094 65.4291 193.267 65.8835 193.761 67.4738C194.049 68.4105 193.979 69.4209 193.563 70.3087L183.182 67.7602C181.53 67.413 179.91 66.9239 178.342 66.2983C175.704 65.3106 172.415 64.0561 171.694 63.7696C170.973 63.4832 167.802 62.1793 166.815 61.0434C166.396 60.5231 165.926 60.0465 165.412 59.621C165.412 59.621 165.323 59.4037 163.911 59.5222C162.498 59.6408 157.52 60.0161 157.52 60.0161C155.544 58.5345 153.868 56.6908 152.581 54.5834C150.773 51.4028 151.01 50.1384 151.01 50.1384Z" fill="#EA7C23"/>
<path d="M157.549 59.9765C156.957 59.5668 156.393 59.118 155.86 58.6331C155.169 57.9713 154.31 56.9736 154.31 56.9736C154.31 56.9736 165.58 56.9736 166.163 57.3786C166.746 57.7836 167.388 59.6999 169.748 61.0828C172.109 62.4656 181.473 66.0216 182.589 66.4365C183.706 66.8513 189.049 68.2342 189.415 68.3034C189.78 68.3725 193.959 69.2911 193.959 69.2911C193.959 69.2911 193.86 70.1209 193.613 70.2789C193.366 70.4369 189.069 69.1528 189.069 69.1528C189.069 69.1528 187.617 68.7676 185.75 68.3527L183.982 67.9576C182.935 67.7008 182.007 67.5527 181.088 67.2267C177.898 66.0908 174.658 64.8956 172.198 63.9078C170.912 63.4077 169.661 62.8202 168.454 62.1496C167.98 61.8137 167.239 61.3396 167.141 61.2408C166.825 60.8951 166.262 60.253 166.262 60.253C165.987 60.0082 165.7 59.7774 165.402 59.5616C165.103 59.4963 164.793 59.4963 164.493 59.5616L157.549 59.9765Z" fill="#C86522"/>
<path d="M175.023 56.4205C175.023 56.4205 173.66 55.0969 173.66 54.3264C173.66 53.1114 174.411 53.7732 174.865 54.1782C175.32 54.5832 175.586 55.0178 176.9 56.1538C178.214 57.2897 180.456 58.9986 181.582 58.8701C182.248 58.7913 182.875 58.5123 183.38 58.07L183.854 58.5541C183.54 58.9241 183.152 59.2243 182.714 59.4352C182.277 59.6462 181.801 59.7633 181.315 59.7789C180.661 59.7838 180.019 59.5984 179.468 59.2455C178.613 58.6667 177.83 57.9869 177.137 57.2206C177.137 57.2206 175.567 55.5907 175.162 55.8081C175.108 55.8287 175.059 55.8616 175.02 55.9041C174.981 55.9466 174.952 55.9975 174.936 56.0529C174.92 56.1084 174.916 56.1668 174.926 56.2237C174.936 56.2806 174.959 56.3344 174.994 56.381" fill="#C86522"/>
<path d="M218.564 62.7225C217.263 62.6022 215.975 62.3742 214.712 62.041C213.506 61.4591 212.148 61.2725 210.83 61.5076C209.496 61.9224 208.351 64.4709 208.351 64.4709L212.203 65.3994L217.27 64.4116L218.564 62.7225Z" fill="#C86522"/>
<path d="M248.02 50.8099H224.59C223.957 50.7974 223.344 51.0312 222.881 51.4619C222.081 52.1928 215.157 59.2751 215.157 59.2751C215.5 59.6791 215.931 59.9988 216.418 60.2095C216.904 60.4202 217.432 60.5162 217.962 60.4901C219.171 60.2917 220.269 59.6639 221.054 58.722L223.256 56.6575C223.256 56.6575 223.671 56.3414 223.958 56.6575C224.244 56.9736 223.859 57.3391 223.859 57.3391L218.614 62.5051C217.168 63.6408 215.477 64.4223 213.675 64.7869C210.336 65.587 207.946 66.1204 207.946 66.1204C207.946 66.1204 205.773 66.5846 205.279 68.1749C204.988 69.108 205.058 70.1165 205.476 71L215.868 68.4811C217.519 68.1281 219.138 67.6391 220.708 67.0192C223.345 65.9722 226.634 64.777 227.356 64.4807C228.077 64.1843 231.237 62.9002 232.215 61.7544C232.639 61.2232 233.115 60.7367 233.638 60.3024C233.638 60.3024 233.727 60.0851 235.139 60.2036C236.552 60.3222 241.53 60.6876 241.53 60.6876C243.506 59.206 245.182 57.3624 246.469 55.2549C248.237 52.1138 247.99 50.8593 247.99 50.8593" fill="#EA7C23"/>
<path d="M241.489 60.6086C242.084 60.2056 242.648 59.7599 243.178 59.2751C243.86 58.633 244.729 57.6453 244.729 57.6453C244.729 57.6453 233.459 57.6453 232.876 58.0502C232.293 58.4552 231.651 60.3616 229.29 61.7445C226.93 63.1274 217.565 66.6834 216.449 67.0982C215.333 67.5131 209.989 68.896 209.624 68.9651L205.08 69.9529C205.08 69.9529 205.179 70.7826 205.426 70.9407C205.673 71.0987 209.97 69.8146 209.97 69.8146C209.97 69.8146 211.422 69.4392 213.288 69.0145L215.057 68.6194C216.034 68.4272 217 68.1832 217.951 67.8884C221.141 66.7525 224.381 65.5672 226.841 64.5695C228.127 64.0694 229.378 63.482 230.584 62.8113C231.058 62.4853 231.799 62.0112 231.898 61.9124C232.214 61.5667 232.777 60.8654 232.777 60.8654C232.777 60.8654 233.419 60.3122 233.637 60.174C233.933 60.0974 234.242 60.0806 234.545 60.1246L241.489 60.6086Z" fill="#C86522"/>
<path d="M224.017 57.0823C224.017 57.0823 225.38 55.7685 225.38 54.9981C225.38 53.7732 224.629 54.4351 224.175 54.8499C223.72 55.2648 223.454 55.6895 222.14 56.8255C220.826 57.9614 218.584 59.6801 217.458 59.5418C216.79 59.468 216.162 59.1884 215.66 58.7417L215.186 59.2257C215.5 59.5958 215.888 59.896 216.326 60.1069C216.763 60.3179 217.239 60.4349 217.725 60.4506C218.379 60.4554 219.021 60.2701 219.572 59.9172C220.427 59.3564 221.21 58.693 221.903 57.9416C221.903 57.9416 223.473 56.3118 223.878 56.5291C223.932 56.5498 223.981 56.5827 224.02 56.6252C224.059 56.6676 224.088 56.7186 224.104 56.774C224.12 56.8295 224.124 56.8879 224.114 56.9448C224.104 57.0017 224.081 57.0555 224.046 57.102" fill="#C86522"/>
</svg>
