<svg width="400" height="400" viewBox="0 0 400 400" fill="none" xmlns="http://www.w3.org/2000/svg">
<circle cx="200" cy="200" r="200" fill="#2444F5"/>
<path d="M130.402 101V87.368H125.026V84.2H139.666V87.368H134.29V101H130.402ZM141.758 101V84.2H149.03C150.534 84.2 151.83 84.448 152.918 84.944C154.006 85.424 154.846 86.12 155.438 87.032C156.03 87.944 156.326 89.032 156.326 90.296C156.326 91.544 156.03 92.624 155.438 93.536C154.846 94.432 154.006 95.12 152.918 95.6C151.83 96.08 150.534 96.32 149.03 96.32H143.918L145.646 94.616V101H141.758ZM152.438 101L148.238 94.904H152.39L156.638 101H152.438ZM145.646 95.048L143.918 93.224H148.814C150.014 93.224 150.91 92.968 151.502 92.456C152.094 91.928 152.39 91.208 152.39 90.296C152.39 89.368 152.094 88.648 151.502 88.136C150.91 87.624 150.014 87.368 148.814 87.368H143.918L145.646 85.52V95.048ZM157.198 101L164.686 84.2H168.526L176.038 101H171.958L165.814 86.168H167.35L161.182 101H157.198ZM160.942 97.4L161.974 94.448H170.614L171.67 97.4H160.942ZM185.587 101.288C184.291 101.288 183.083 101.08 181.963 100.664C180.859 100.232 179.899 99.624 179.083 98.84C178.267 98.056 177.627 97.136 177.163 96.08C176.715 95.024 176.491 93.864 176.491 92.6C176.491 91.336 176.715 90.176 177.163 89.12C177.627 88.064 178.267 87.144 179.083 86.36C179.915 85.576 180.883 84.976 181.987 84.56C183.091 84.128 184.299 83.912 185.611 83.912C187.067 83.912 188.379 84.168 189.547 84.68C190.731 85.176 191.723 85.912 192.523 86.888L190.027 89.192C189.451 88.536 188.811 88.048 188.107 87.728C187.403 87.392 186.635 87.224 185.803 87.224C185.019 87.224 184.299 87.352 183.643 87.608C182.987 87.864 182.419 88.232 181.939 88.712C181.459 89.192 181.083 89.76 180.811 90.416C180.555 91.072 180.427 91.8 180.427 92.6C180.427 93.4 180.555 94.128 180.811 94.784C181.083 95.44 181.459 96.008 181.939 96.488C182.419 96.968 182.987 97.336 183.643 97.592C184.299 97.848 185.019 97.976 185.803 97.976C186.635 97.976 187.403 97.816 188.107 97.496C188.811 97.16 189.451 96.656 190.027 95.984L192.523 98.288C191.723 99.264 190.731 100.008 189.547 100.52C188.379 101.032 187.059 101.288 185.587 101.288ZM198.628 97.16L198.412 92.672L206.452 84.2H210.772L203.524 92L201.364 94.304L198.628 97.16ZM195.148 101V84.2H199.012V101H195.148ZM206.644 101L200.668 93.68L203.212 90.92L211.18 101H206.644ZM220.345 101.288C219.049 101.288 217.841 101.08 216.721 100.664C215.617 100.232 214.657 99.624 213.84 98.84C213.025 98.056 212.385 97.136 211.921 96.08C211.473 95.024 211.249 93.864 211.249 92.6C211.249 91.336 211.473 90.176 211.921 89.12C212.385 88.064 213.025 87.144 213.84 86.36C214.673 85.576 215.641 84.976 216.745 84.56C217.849 84.128 219.057 83.912 220.369 83.912C221.825 83.912 223.137 84.168 224.305 84.68C225.489 85.176 226.481 85.912 227.281 86.888L224.785 89.192C224.209 88.536 223.569 88.048 222.865 87.728C222.161 87.392 221.393 87.224 220.561 87.224C219.777 87.224 219.057 87.352 218.401 87.608C217.745 87.864 217.177 88.232 216.697 88.712C216.217 89.192 215.841 89.76 215.569 90.416C215.313 91.072 215.185 91.8 215.185 92.6C215.185 93.4 215.313 94.128 215.569 94.784C215.841 95.44 216.217 96.008 216.697 96.488C217.177 96.968 217.745 97.336 218.401 97.592C219.057 97.848 219.777 97.976 220.561 97.976C221.393 97.976 222.161 97.816 222.865 97.496C223.569 97.16 224.209 96.656 224.785 95.984L227.281 98.288C226.481 99.264 225.489 100.008 224.305 100.52C223.137 101.032 221.817 101.288 220.345 101.288ZM237.715 101.288C236.387 101.288 235.155 101.072 234.019 100.64C232.899 100.208 231.923 99.6 231.09 98.816C230.275 98.032 229.635 97.112 229.171 96.056C228.723 95 228.499 93.848 228.499 92.6C228.499 91.352 228.723 90.2 229.171 89.144C229.635 88.088 230.283 87.168 231.115 86.384C231.947 85.6 232.923 84.992 234.043 84.56C235.163 84.128 236.379 83.912 237.691 83.912C239.019 83.912 240.234 84.128 241.339 84.56C242.459 84.992 243.427 85.6 244.243 86.384C245.075 87.168 245.723 88.088 246.187 89.144C246.651 90.184 246.883 91.336 246.883 92.6C246.883 93.848 246.651 95.008 246.187 96.08C245.723 97.136 245.075 98.056 244.243 98.84C243.427 99.608 242.459 100.208 241.339 100.64C240.234 101.072 239.026 101.288 237.715 101.288ZM237.691 97.976C238.443 97.976 239.131 97.848 239.755 97.592C240.395 97.336 240.955 96.968 241.435 96.488C241.915 96.008 242.283 95.44 242.539 94.784C242.811 94.128 242.947 93.4 242.947 92.6C242.947 91.8 242.811 91.072 242.539 90.416C242.283 89.76 241.915 89.192 241.435 88.712C240.971 88.232 240.419 87.864 239.779 87.608C239.139 87.352 238.443 87.224 237.691 87.224C236.939 87.224 236.243 87.352 235.603 87.608C234.979 87.864 234.427 88.232 233.947 88.712C233.467 89.192 233.091 89.76 232.819 90.416C232.563 91.072 232.435 91.8 232.435 92.6C232.435 93.384 232.563 94.112 232.819 94.784C233.091 95.44 233.459 96.008 233.923 96.488C234.403 96.968 234.963 97.336 235.603 97.592C236.243 97.848 236.939 97.976 237.691 97.976ZM249.805 101V84.2H253.693V101H249.805ZM257.68 101V84.2H260.896L270.808 96.296H269.247V84.2H273.088V101H269.896L259.96 88.904H261.52V101H257.68Z" fill="white"/>
<path d="M186.431 30.6201L193.188 30.63L199.944 37.3172L206.69 30.63H213.447L220.203 37.3172V44.0044L199.944 64.066L179.675 44.0044V37.3172L186.431 30.6201Z" stroke="#EA7C23" stroke-width="0.300183"/>
<path d="M192.941 30.6201L179.606 43.8167" stroke="#EA7C23" stroke-width="0.300183"/>
<path d="M192.96 37.3765L186.461 43.8069" stroke="#EA7C23" stroke-width="0.300183"/>
<path d="M199.786 37.3567L186.441 50.5731" stroke="#EA7C23" stroke-width="0.300183"/>
<path d="M213.466 30.6398L193.326 50.5829" stroke="#EA7C23" stroke-width="0.300183"/>
<path d="M213.427 37.3862L193.613 57.2997H206.869" stroke="#EA7C23" stroke-width="0.300183"/>
<path d="M220.173 37.4355L200.042 57.3688" stroke="#EA7C23" stroke-width="0.300183"/>
<path d="M179.438 44.014H220.391" stroke="#EA7C23" stroke-width="0.300183"/>
<path d="M186.293 50.7507H213.595" stroke="#EA7C23" stroke-width="0.300183"/>
<path d="M179.458 37.327H220.391" stroke="#EA7C23" stroke-width="0.300183"/>
<path d="M186.284 31.8052C186.561 31.8033 186.831 31.7194 187.06 31.5641C187.29 31.4088 187.468 31.189 187.572 30.9326C187.677 30.6761 187.703 30.3944 187.648 30.123C187.593 29.8515 187.459 29.6025 187.262 29.4073C187.066 29.2122 186.816 29.0796 186.544 29.0262C186.272 28.9729 185.99 29.0013 185.735 29.1077C185.479 29.2142 185.261 29.3939 185.107 29.6244C184.953 29.8548 184.871 30.1256 184.871 30.4026C184.871 30.5876 184.908 30.7708 184.979 30.9417C185.05 31.1125 185.154 31.2675 185.285 31.3979C185.417 31.5283 185.572 31.6314 185.744 31.7013C185.915 31.7712 186.099 31.8065 186.284 31.8052Z" fill="white"/>
<path d="M193.11 31.8053C193.387 31.8053 193.658 31.723 193.889 31.5689C194.12 31.4148 194.299 31.1957 194.406 30.9394C194.512 30.6831 194.539 30.4011 194.485 30.129C194.431 29.8569 194.298 29.607 194.101 29.4108C193.905 29.2147 193.655 29.0811 193.383 29.027C193.111 28.9728 192.829 29.0006 192.573 29.1068C192.317 29.2129 192.098 29.3927 191.943 29.6234C191.789 29.854 191.707 30.1252 191.707 30.4026C191.707 30.7746 191.855 31.1314 192.118 31.3944C192.381 31.6575 192.738 31.8053 193.11 31.8053Z" fill="white"/>
<path d="M186.284 38.6011C186.561 38.5992 186.831 38.5153 187.06 38.36C187.29 38.2047 187.468 37.9849 187.572 37.7285C187.677 37.472 187.703 37.1903 187.648 36.9189C187.593 36.6474 187.459 36.3984 187.262 36.2032C187.066 36.0081 186.816 35.8755 186.544 35.8221C186.272 35.7688 185.99 35.7972 185.735 35.9036C185.479 36.0101 185.261 36.1898 185.107 36.4203C184.953 36.6507 184.871 36.9215 184.871 37.1985C184.874 37.5714 185.024 37.9282 185.288 38.1909C185.553 38.4537 185.911 38.6011 186.284 38.6011Z" fill="white"/>
<path d="M179.458 45.3969C179.735 45.395 180.006 45.311 180.235 45.1557C180.464 45.0004 180.643 44.7807 180.747 44.5242C180.852 44.2678 180.878 43.9861 180.823 43.7146C180.768 43.4432 180.633 43.1942 180.437 42.999C180.24 42.8038 179.99 42.6712 179.719 42.6179C179.447 42.5646 179.165 42.5929 178.91 42.6994C178.654 42.8058 178.435 42.9856 178.282 43.216C178.128 43.4465 178.046 43.7173 178.046 43.9943C178.049 44.3672 178.198 44.7239 178.463 44.9867C178.728 45.2495 179.085 45.3969 179.458 45.3969Z" fill="white"/>
<path d="M186.284 45.3969C186.561 45.395 186.831 45.311 187.06 45.1557C187.29 45.0004 187.468 44.7807 187.572 44.5242C187.677 44.2678 187.703 43.9861 187.648 43.7146C187.593 43.4432 187.459 43.1942 187.262 42.999C187.066 42.8038 186.816 42.6712 186.544 42.6179C186.272 42.5646 185.99 42.5929 185.735 42.6994C185.479 42.8058 185.261 42.9856 185.107 43.216C184.953 43.4465 184.871 43.7173 184.871 43.9943C184.874 44.3672 185.024 44.7239 185.288 44.9867C185.553 45.2495 185.911 45.3969 186.284 45.3969Z" fill="white"/>
<path d="M193.109 45.3674C193.386 45.3654 193.656 45.2815 193.886 45.1262C194.115 44.9709 194.293 44.7512 194.398 44.4947C194.503 44.2382 194.529 43.9565 194.474 43.6851C194.419 43.4137 194.284 43.1647 194.088 42.9695C193.891 42.7743 193.641 42.6417 193.369 42.5884C193.098 42.535 192.816 42.5634 192.56 42.6698C192.305 42.7763 192.086 42.9561 191.932 43.1865C191.779 43.417 191.697 43.6877 191.697 43.9647C191.697 44.1498 191.733 44.333 191.804 44.5038C191.876 44.6746 191.98 44.8297 192.111 44.9601C192.242 45.0904 192.398 45.1935 192.569 45.2634C192.741 45.3334 192.924 45.3687 193.109 45.3674Z" fill="white"/>
<path d="M186.294 52.2026C186.571 52.2026 186.842 52.1203 187.073 51.9662C187.304 51.8121 187.483 51.593 187.59 51.3367C187.696 51.0804 187.724 50.7984 187.669 50.5263C187.615 50.2543 187.482 50.0043 187.286 49.8082C187.089 49.612 186.839 49.4784 186.567 49.4243C186.295 49.3702 186.013 49.3979 185.757 49.5041C185.501 49.6103 185.282 49.79 185.128 50.0207C184.973 50.2514 184.891 50.5226 184.891 50.8C184.894 51.1712 185.042 51.5264 185.305 51.7889C185.567 52.0514 185.923 52.2 186.294 52.2026Z" fill="white"/>
<path d="M193.11 52.2026C193.387 52.2026 193.658 52.1203 193.889 51.9662C194.12 51.8121 194.299 51.593 194.406 51.3367C194.512 51.0804 194.539 50.7984 194.485 50.5263C194.431 50.2543 194.298 50.0043 194.101 49.8082C193.905 49.612 193.655 49.4784 193.383 49.4243C193.111 49.3702 192.829 49.3979 192.573 49.5041C192.317 49.6103 192.098 49.79 191.943 50.0207C191.789 50.2514 191.707 50.5226 191.707 50.8C191.71 51.1712 191.858 51.5264 192.121 51.7889C192.383 52.0514 192.738 52.2 193.11 52.2026Z" fill="white"/>
<path d="M193.11 58.9789C193.387 58.9789 193.658 58.8966 193.889 58.7425C194.12 58.5883 194.299 58.3693 194.406 58.113C194.512 57.8567 194.539 57.5747 194.485 57.3026C194.431 57.0305 194.298 56.7806 194.101 56.5844C193.905 56.3882 193.655 56.2547 193.383 56.2005C193.111 56.1464 192.829 56.1742 192.573 56.2804C192.317 56.3865 192.098 56.5663 191.943 56.797C191.789 57.0276 191.707 57.2988 191.707 57.5762C191.707 57.9482 191.855 58.305 192.118 58.568C192.381 58.8311 192.738 58.9789 193.11 58.9789Z" fill="white"/>
<path d="M199.945 58.9788C200.222 58.9769 200.492 58.8929 200.721 58.7376C200.951 58.5823 201.129 58.3626 201.234 58.1061C201.338 57.8497 201.365 57.568 201.309 57.2965C201.254 57.0251 201.12 56.7761 200.923 56.5809C200.727 56.3858 200.477 56.2531 200.205 56.1998C199.933 56.1465 199.652 56.1748 199.396 56.2813C199.14 56.3877 198.922 56.5675 198.768 56.798C198.614 57.0284 198.532 57.2992 198.532 57.5762C198.532 57.7612 198.569 57.9444 198.64 58.1152C198.711 58.2861 198.815 58.4411 198.947 58.5715C199.078 58.7019 199.234 58.805 199.405 58.8749C199.576 58.9448 199.76 58.9801 199.945 58.9788Z" fill="white"/>
<path d="M199.945 65.7748C200.222 65.7729 200.492 65.689 200.721 65.5337C200.951 65.3784 201.129 65.1586 201.234 64.9022C201.338 64.6457 201.365 64.364 201.309 64.0926C201.254 63.8211 201.12 63.5721 200.923 63.377C200.727 63.1818 200.477 63.0492 200.205 62.9958C199.933 62.9425 199.652 62.9709 199.396 63.0773C199.14 63.1838 198.922 63.3635 198.768 63.594C198.614 63.8244 198.532 64.0952 198.532 64.3722C198.532 64.5572 198.569 64.7404 198.64 64.9113C198.711 65.0821 198.815 65.2371 198.947 65.3675C199.078 65.4979 199.234 65.601 199.405 65.6709C199.576 65.7408 199.76 65.7761 199.945 65.7748Z" fill="white"/>
<path d="M206.77 58.9788C207.046 58.9729 207.314 58.8858 207.541 58.7281C207.767 58.5705 207.943 58.3495 208.044 58.0927C208.146 57.8359 208.169 57.5549 208.112 57.2848C208.055 57.0147 207.919 56.7675 207.721 56.5743C207.524 56.3811 207.274 56.2505 207.003 56.1987C206.732 56.1469 206.451 56.1764 206.197 56.2834C205.942 56.3903 205.725 56.5701 205.572 56.8001C205.419 57.03 205.338 57.3 205.337 57.5761C205.336 57.7616 205.372 57.9454 205.442 58.1168C205.513 58.2882 205.617 58.4438 205.749 58.5744C205.88 58.7051 206.037 58.8081 206.209 58.8776C206.381 58.947 206.565 58.9814 206.75 58.9788" fill="white"/>
<path d="M199.945 52.2026C200.222 52.2006 200.492 52.1167 200.721 51.9614C200.951 51.8061 201.129 51.5864 201.234 51.3299C201.338 51.0734 201.365 50.7917 201.309 50.5203C201.254 50.2489 201.12 49.9999 200.923 49.8047C200.727 49.6095 200.477 49.4769 200.205 49.4236C199.933 49.3703 199.652 49.3986 199.396 49.505C199.14 49.6115 198.922 49.7913 198.768 50.0217C198.614 50.2522 198.532 50.5229 198.532 50.7999C198.535 51.1728 198.685 51.5296 198.949 51.7924C199.214 52.0551 199.572 52.2026 199.945 52.2026Z" fill="white"/>
<path d="M206.77 52.1928C207.046 52.1869 207.314 52.0997 207.541 51.9421C207.767 51.7845 207.943 51.5634 208.044 51.3067C208.146 51.0499 208.169 50.7689 208.112 50.4988C208.055 50.2287 207.919 49.9815 207.721 49.7883C207.524 49.5951 207.274 49.4644 207.003 49.4127C206.732 49.3609 206.451 49.3904 206.197 49.4974C205.942 49.6043 205.725 49.7841 205.572 50.014C205.419 50.244 205.337 50.514 205.337 50.7901C205.337 50.9752 205.374 51.1584 205.445 51.3292C205.516 51.5 205.62 51.6551 205.752 51.7855C205.883 51.9158 206.039 52.0189 206.21 52.0889C206.381 52.1588 206.565 52.1941 206.75 52.1928" fill="white"/>
<path d="M213.595 52.1928C213.967 52.1928 214.324 52.0451 214.587 51.782C214.85 51.519 214.998 51.1622 214.998 50.7902C214.998 50.4182 214.85 50.0614 214.587 49.7984C214.324 49.5354 213.967 49.3876 213.595 49.3876C213.223 49.3876 212.866 49.5354 212.603 49.7984C212.34 50.0614 212.192 50.4182 212.192 50.7902C212.192 51.1622 212.34 51.519 212.603 51.782C212.866 52.0451 213.223 52.1928 213.595 52.1928Z" fill="white"/>
<path d="M213.526 45.4167C213.804 45.4167 214.075 45.3342 214.306 45.1796C214.537 45.0251 214.717 44.8054 214.822 44.5485C214.928 44.2917 214.956 44.0091 214.901 43.7368C214.846 43.4644 214.711 43.2145 214.514 43.0188C214.317 42.823 214.066 42.6902 213.793 42.6372C213.521 42.5842 213.238 42.6134 212.982 42.7211C212.726 42.8288 212.508 43.0101 212.355 43.242C212.202 43.474 212.121 43.7461 212.123 44.024C212.126 44.3942 212.275 44.7485 212.537 45.0094C212.8 45.2703 213.155 45.4167 213.526 45.4167Z" fill="white"/>
<path d="M206.77 45.397C207.046 45.3912 207.314 45.304 207.541 45.1463C207.767 44.9887 207.943 44.7677 208.044 44.5109C208.146 44.2542 208.169 43.9731 208.112 43.703C208.055 43.4329 207.919 43.1858 207.721 42.9926C207.524 42.7993 207.274 42.6687 207.003 42.6169C206.732 42.5651 206.451 42.5946 206.197 42.7016C205.942 42.8086 205.725 42.9883 205.572 43.2183C205.419 43.4482 205.337 43.7182 205.337 43.9944C205.337 44.1794 205.374 44.3626 205.445 44.5334C205.516 44.7042 205.62 44.8593 205.752 44.9897C205.883 45.1201 206.039 45.2232 206.21 45.2931C206.381 45.363 206.565 45.3983 206.75 45.397" fill="white"/>
<path d="M199.945 45.3969C200.222 45.395 200.492 45.311 200.721 45.1557C200.951 45.0004 201.129 44.7807 201.234 44.5242C201.338 44.2678 201.365 43.9861 201.309 43.7146C201.254 43.4432 201.12 43.1942 200.923 42.999C200.727 42.8038 200.477 42.6712 200.205 42.6179C199.933 42.5646 199.652 42.5929 199.396 42.6994C199.14 42.8058 198.922 42.9856 198.768 43.216C198.614 43.4465 198.532 43.7173 198.532 43.9943C198.535 44.3672 198.685 44.7239 198.949 44.9867C199.214 45.2495 199.572 45.3969 199.945 45.3969Z" fill="white"/>
<path d="M199.945 38.6011C200.222 38.5992 200.492 38.5153 200.721 38.36C200.951 38.2047 201.129 37.9849 201.234 37.7285C201.338 37.472 201.365 37.1903 201.309 36.9189C201.254 36.6474 201.12 36.3984 200.923 36.2032C200.727 36.0081 200.477 35.8755 200.205 35.8221C199.933 35.7688 199.652 35.7972 199.396 35.9036C199.14 36.0101 198.922 36.1898 198.768 36.4203C198.614 36.6507 198.532 36.9215 198.532 37.1985C198.535 37.5714 198.685 37.9282 198.949 38.1909C199.214 38.4537 199.572 38.6011 199.945 38.6011Z" fill="white"/>
<path d="M206.769 31.8053C207.141 31.8053 207.498 31.6575 207.761 31.3944C208.024 31.1314 208.172 30.7746 208.172 30.4026C208.172 30.0306 208.024 29.6739 207.761 29.4108C207.498 29.1478 207.141 29 206.769 29C206.397 29 206.041 29.1478 205.778 29.4108C205.514 29.6739 205.367 30.0306 205.367 30.4026C205.367 30.7746 205.514 31.1314 205.778 31.3944C206.041 31.6575 206.397 31.8053 206.769 31.8053Z" fill="white"/>
<path d="M213.596 31.8052C213.873 31.8033 214.143 31.7194 214.372 31.5641C214.602 31.4088 214.78 31.189 214.884 30.9326C214.989 30.6761 215.015 30.3944 214.96 30.123C214.905 29.8515 214.771 29.6025 214.574 29.4073C214.378 29.2122 214.128 29.0796 213.856 29.0262C213.584 28.9729 213.302 29.0013 213.047 29.1077C212.791 29.2142 212.573 29.3939 212.419 29.6244C212.265 29.8548 212.183 30.1256 212.183 30.4026C212.186 30.7755 212.336 31.1323 212.6 31.395C212.865 31.6578 213.223 31.8052 213.596 31.8052Z" fill="white"/>
<path d="M206.77 38.6011C207.046 38.5953 207.314 38.5081 207.541 38.3504C207.767 38.1928 207.943 37.9718 208.044 37.715C208.146 37.4583 208.169 37.1772 208.112 36.9071C208.055 36.637 207.919 36.3899 207.721 36.1967C207.524 36.0034 207.274 35.8728 207.003 35.821C206.732 35.7692 206.451 35.7987 206.197 35.9057C205.942 36.0127 205.725 36.1924 205.572 36.4224C205.419 36.6523 205.337 36.9223 205.337 37.1985C205.337 37.3835 205.374 37.5667 205.445 37.7375C205.516 37.9083 205.62 38.0634 205.752 38.1938C205.883 38.3242 206.039 38.4273 206.21 38.4972C206.381 38.5671 206.565 38.6024 206.75 38.6011" fill="white"/>
<path d="M213.595 38.6012C213.872 38.6012 214.144 38.5189 214.374 38.3648C214.605 38.2107 214.785 37.9916 214.891 37.7353C214.997 37.479 215.025 37.197 214.971 36.9249C214.917 36.6528 214.783 36.4029 214.587 36.2067C214.391 36.0106 214.141 35.877 213.869 35.8229C213.597 35.7687 213.315 35.7965 213.058 35.9027C212.802 36.0088 212.583 36.1886 212.429 36.4193C212.275 36.6499 212.192 36.9211 212.192 37.1985C212.195 37.5697 212.344 37.925 212.606 38.1875C212.869 38.45 213.224 38.5986 213.595 38.6012Z" fill="white"/>
<path d="M220.421 45.3969C220.699 45.3969 220.97 45.3147 221.2 45.1606C221.431 45.0064 221.611 44.7874 221.717 44.5311C221.823 44.2748 221.851 43.9928 221.797 43.7207C221.743 43.4486 221.609 43.1987 221.413 43.0025C221.217 42.8063 220.967 42.6727 220.695 42.6186C220.423 42.5645 220.141 42.5923 219.884 42.6984C219.628 42.8046 219.409 42.9844 219.255 43.215C219.101 43.4457 219.019 43.7169 219.019 43.9943C219.021 44.3655 219.17 44.7208 219.432 44.9833C219.695 45.2457 220.05 45.3944 220.421 45.3969Z" fill="white"/>
<path d="M193.11 38.6012C193.387 38.6012 193.658 38.5189 193.889 38.3648C194.12 38.2107 194.299 37.9916 194.406 37.7353C194.512 37.479 194.539 37.197 194.485 36.9249C194.431 36.6528 194.298 36.4029 194.101 36.2067C193.905 36.0106 193.655 35.877 193.383 35.8229C193.111 35.7687 192.829 35.7965 192.573 35.9027C192.317 36.0088 192.098 36.1886 191.943 36.4193C191.789 36.6499 191.707 36.9211 191.707 37.1985C191.71 37.5697 191.858 37.925 192.121 38.1875C192.383 38.45 192.738 38.5986 193.11 38.6012Z" fill="white"/>
<path d="M179.458 38.6011C179.735 38.5992 180.006 38.5153 180.235 38.36C180.464 38.2047 180.643 37.9849 180.747 37.7285C180.852 37.472 180.878 37.1903 180.823 36.9189C180.768 36.6474 180.633 36.3984 180.437 36.2032C180.24 36.0081 179.99 35.8755 179.719 35.8221C179.447 35.7688 179.165 35.7972 178.91 35.9036C178.654 36.0101 178.435 36.1898 178.282 36.4203C178.128 36.6507 178.046 36.9215 178.046 37.1985C178.049 37.5714 178.198 37.9282 178.463 38.1909C178.728 38.4537 179.085 38.6011 179.458 38.6011Z" fill="white"/>
<path d="M220.421 38.6012C220.699 38.6012 220.97 38.5189 221.2 38.3648C221.431 38.2107 221.611 37.9916 221.717 37.7353C221.823 37.479 221.851 37.197 221.797 36.9249C221.743 36.6528 221.609 36.4029 221.413 36.2067C221.217 36.0106 220.967 35.877 220.695 35.8229C220.423 35.7687 220.141 35.7965 219.884 35.9027C219.628 36.0088 219.409 36.1886 219.255 36.4193C219.101 36.6499 219.019 36.9211 219.019 37.1985C219.021 37.5697 219.17 37.925 219.432 38.1875C219.695 38.45 220.05 38.5986 220.421 38.6012Z" fill="white"/>
<path d="M180.476 62.0607C181.776 61.9353 183.064 61.7074 184.328 61.3792C185.532 60.7927 186.892 60.6059 188.21 60.8458C189.543 61.2606 190.689 63.7597 190.689 63.7597L186.837 64.6783L181.77 63.6906L180.476 62.0607Z" fill="#C86522"/>
<path d="M151.01 50.1384H174.45C175.083 50.1327 175.695 50.3695 176.159 50.8002C176.959 51.5213 183.883 58.6135 183.883 58.6135C183.539 59.0158 183.107 59.3343 182.621 59.5448C182.135 59.7553 181.607 59.8523 181.078 59.8284C179.867 59.6283 178.768 58.9968 177.986 58.0504L175.784 55.9663C175.784 55.9663 175.369 55.6502 175.082 55.9663C174.796 56.2823 175.181 56.6379 175.181 56.6379L180.426 61.8139C181.872 62.9496 183.563 63.731 185.365 64.0956C188.704 64.8957 191.094 65.4291 191.094 65.4291C191.094 65.4291 193.267 65.8835 193.761 67.4738C194.049 68.4105 193.979 69.4209 193.563 70.3087L183.182 67.7602C181.53 67.413 179.91 66.9239 178.342 66.2983C175.704 65.3106 172.415 64.0561 171.694 63.7696C170.973 63.4832 167.802 62.1793 166.815 61.0434C166.396 60.5231 165.926 60.0465 165.412 59.621C165.412 59.621 165.323 59.4037 163.911 59.5222C162.498 59.6408 157.52 60.0161 157.52 60.0161C155.544 58.5345 153.868 56.6908 152.581 54.5834C150.773 51.4028 151.01 50.1384 151.01 50.1384Z" fill="#EA7C23"/>
<path d="M157.549 59.9765C156.957 59.5668 156.393 59.118 155.86 58.6331C155.169 57.9713 154.31 56.9736 154.31 56.9736C154.31 56.9736 165.58 56.9736 166.163 57.3786C166.746 57.7836 167.388 59.6999 169.748 61.0828C172.109 62.4656 181.473 66.0216 182.589 66.4365C183.706 66.8513 189.049 68.2342 189.415 68.3034C189.78 68.3725 193.959 69.2911 193.959 69.2911C193.959 69.2911 193.86 70.1209 193.613 70.2789C193.366 70.4369 189.069 69.1528 189.069 69.1528C189.069 69.1528 187.617 68.7676 185.75 68.3527L183.982 67.9576C182.935 67.7008 182.007 67.5527 181.088 67.2267C177.898 66.0908 174.658 64.8956 172.198 63.9078C170.912 63.4077 169.661 62.8202 168.454 62.1496C167.98 61.8137 167.239 61.3396 167.141 61.2408C166.825 60.8951 166.262 60.253 166.262 60.253C165.987 60.0082 165.7 59.7774 165.402 59.5616C165.103 59.4963 164.793 59.4963 164.493 59.5616L157.549 59.9765Z" fill="#C86522"/>
<path d="M175.023 56.4205C175.023 56.4205 173.66 55.0969 173.66 54.3264C173.66 53.1114 174.411 53.7732 174.865 54.1782C175.32 54.5832 175.586 55.0178 176.9 56.1538C178.214 57.2897 180.456 58.9986 181.582 58.8701C182.248 58.7913 182.875 58.5123 183.38 58.07L183.854 58.5541C183.54 58.9241 183.152 59.2243 182.714 59.4352C182.277 59.6462 181.801 59.7633 181.315 59.7789C180.661 59.7838 180.019 59.5984 179.468 59.2455C178.613 58.6667 177.83 57.9869 177.137 57.2206C177.137 57.2206 175.567 55.5907 175.162 55.8081C175.108 55.8287 175.059 55.8616 175.02 55.9041C174.981 55.9466 174.952 55.9975 174.936 56.0529C174.92 56.1084 174.916 56.1668 174.926 56.2237C174.936 56.2806 174.959 56.3344 174.994 56.381" fill="#C86522"/>
<path d="M218.564 62.7225C217.263 62.6022 215.975 62.3742 214.712 62.041C213.506 61.4591 212.148 61.2725 210.83 61.5076C209.496 61.9224 208.351 64.4709 208.351 64.4709L212.203 65.3994L217.27 64.4116L218.564 62.7225Z" fill="#C86522"/>
<path d="M248.02 50.8099H224.59C223.957 50.7974 223.344 51.0312 222.881 51.4619C222.081 52.1928 215.157 59.2751 215.157 59.2751C215.5 59.6791 215.931 59.9988 216.418 60.2095C216.904 60.4202 217.432 60.5162 217.962 60.4901C219.171 60.2917 220.269 59.6639 221.054 58.722L223.256 56.6575C223.256 56.6575 223.671 56.3414 223.958 56.6575C224.244 56.9736 223.859 57.3391 223.859 57.3391L218.614 62.5051C217.168 63.6408 215.477 64.4223 213.675 64.7869C210.336 65.587 207.946 66.1204 207.946 66.1204C207.946 66.1204 205.773 66.5846 205.279 68.1749C204.988 69.108 205.058 70.1165 205.476 71L215.868 68.4811C217.519 68.1281 219.138 67.6391 220.708 67.0192C223.345 65.9722 226.634 64.777 227.356 64.4807C228.077 64.1843 231.237 62.9002 232.215 61.7544C232.639 61.2232 233.115 60.7367 233.638 60.3024C233.638 60.3024 233.727 60.0851 235.139 60.2036C236.552 60.3222 241.53 60.6876 241.53 60.6876C243.506 59.206 245.182 57.3624 246.469 55.2549C248.237 52.1138 247.99 50.8593 247.99 50.8593" fill="#EA7C23"/>
<path d="M241.489 60.6086C242.084 60.2056 242.648 59.7599 243.178 59.2751C243.86 58.633 244.729 57.6453 244.729 57.6453C244.729 57.6453 233.459 57.6453 232.876 58.0502C232.293 58.4552 231.651 60.3616 229.29 61.7445C226.93 63.1274 217.565 66.6834 216.449 67.0982C215.333 67.5131 209.989 68.896 209.624 68.9651L205.08 69.9529C205.08 69.9529 205.179 70.7826 205.426 70.9407C205.673 71.0987 209.97 69.8146 209.97 69.8146C209.97 69.8146 211.422 69.4392 213.288 69.0145L215.057 68.6194C216.034 68.4272 217 68.1832 217.951 67.8884C221.141 66.7525 224.381 65.5672 226.841 64.5695C228.127 64.0694 229.378 63.482 230.584 62.8113C231.058 62.4853 231.799 62.0112 231.898 61.9124C232.214 61.5667 232.777 60.8654 232.777 60.8654C232.777 60.8654 233.419 60.3122 233.637 60.174C233.933 60.0974 234.242 60.0806 234.545 60.1246L241.489 60.6086Z" fill="#C86522"/>
<path d="M224.017 57.0823C224.017 57.0823 225.38 55.7685 225.38 54.9981C225.38 53.7732 224.629 54.4351 224.175 54.8499C223.72 55.2648 223.454 55.6895 222.14 56.8255C220.826 57.9614 218.584 59.6801 217.458 59.5418C216.79 59.468 216.162 59.1884 215.66 58.7417L215.186 59.2257C215.5 59.5958 215.888 59.896 216.326 60.1069C216.763 60.3179 217.239 60.4349 217.725 60.4506C218.379 60.4554 219.021 60.2701 219.572 59.9172C220.427 59.3564 221.21 58.693 221.903 57.9416C221.903 57.9416 223.473 56.3118 223.878 56.5291C223.932 56.5498 223.981 56.5827 224.02 56.6252C224.059 56.6676 224.088 56.7186 224.104 56.774C224.12 56.8295 224.124 56.8879 224.114 56.9448C224.104 57.0017 224.081 57.0555 224.046 57.102" fill="#C86522"/>
<path d="M108.82 355.12C108.172 355.12 107.564 355 106.996 354.76C106.436 354.512 105.944 354.172 105.52 353.74C105.104 353.3 104.776 352.788 104.536 352.204C104.304 351.62 104.188 350.988 104.188 350.308C104.188 349.636 104.304 349.012 104.536 348.436C104.776 347.852 105.104 347.344 105.52 346.912C105.944 346.472 106.436 346.128 106.996 345.88C107.556 345.632 108.164 345.508 108.82 345.508C109.436 345.508 109.964 345.588 110.404 345.748C110.852 345.908 111.3 346.172 111.748 346.54C111.812 346.588 111.86 346.64 111.892 346.696C111.932 346.744 111.956 346.796 111.964 346.852C111.98 346.9 111.988 346.96 111.988 347.032C111.988 347.184 111.932 347.312 111.82 347.416C111.716 347.512 111.588 347.568 111.436 347.584C111.284 347.592 111.136 347.54 110.992 347.428C110.696 347.172 110.388 346.976 110.068 346.84C109.756 346.704 109.34 346.636 108.82 346.636C108.348 346.636 107.904 346.732 107.488 346.924C107.072 347.116 106.704 347.38 106.384 347.716C106.072 348.052 105.828 348.444 105.652 348.892C105.476 349.332 105.388 349.804 105.388 350.308C105.388 350.82 105.476 351.3 105.652 351.748C105.828 352.188 106.072 352.576 106.384 352.912C106.704 353.248 107.072 353.512 107.488 353.704C107.904 353.888 108.348 353.98 108.82 353.98C109.228 353.98 109.612 353.912 109.972 353.776C110.34 353.632 110.692 353.436 111.028 353.188C111.172 353.084 111.312 353.04 111.448 353.056C111.592 353.064 111.712 353.12 111.808 353.224C111.904 353.32 111.952 353.456 111.952 353.632C111.952 353.712 111.936 353.792 111.904 353.872C111.872 353.944 111.824 354.012 111.76 354.076C111.328 354.42 110.864 354.68 110.368 354.856C109.88 355.032 109.364 355.12 108.82 355.12ZM114.416 350.896C114.416 350.416 114.532 349.988 114.764 349.612C115.004 349.228 115.324 348.924 115.724 348.7C116.124 348.476 116.564 348.364 117.044 348.364C117.524 348.364 117.88 348.444 118.112 348.604C118.352 348.756 118.444 348.94 118.388 349.156C118.364 349.268 118.316 349.356 118.244 349.42C118.18 349.476 118.104 349.512 118.016 349.528C117.928 349.544 117.832 349.54 117.728 349.516C117.216 349.412 116.756 349.404 116.348 349.492C115.94 349.58 115.616 349.744 115.376 349.984C115.144 350.224 115.028 350.528 115.028 350.896H114.416ZM114.428 355C114.236 355 114.088 354.952 113.984 354.856C113.88 354.752 113.828 354.6 113.828 354.4V349.036C113.828 348.844 113.88 348.696 113.984 348.592C114.088 348.488 114.236 348.436 114.428 348.436C114.628 348.436 114.776 348.488 114.872 348.592C114.976 348.688 115.028 348.836 115.028 349.036V354.4C115.028 354.592 114.976 354.74 114.872 354.844C114.776 354.948 114.628 355 114.428 355ZM122.16 355.048C121.512 355.048 120.94 354.908 120.444 354.628C119.948 354.34 119.556 353.948 119.268 353.452C118.988 352.948 118.848 352.372 118.848 351.724C118.848 351.068 118.988 350.492 119.268 349.996C119.556 349.492 119.948 349.1 120.444 348.82C120.94 348.532 121.512 348.388 122.16 348.388C122.8 348.388 123.368 348.532 123.864 348.82C124.36 349.1 124.748 349.492 125.028 349.996C125.316 350.492 125.46 351.068 125.46 351.724C125.46 352.372 125.32 352.948 125.04 353.452C124.76 353.948 124.372 354.34 123.876 354.628C123.38 354.908 122.808 355.048 122.16 355.048ZM122.16 353.968C122.576 353.968 122.944 353.872 123.264 353.68C123.584 353.488 123.832 353.224 124.008 352.888C124.192 352.552 124.284 352.164 124.284 351.724C124.284 351.284 124.192 350.896 124.008 350.56C123.832 350.216 123.584 349.948 123.264 349.756C122.944 349.564 122.576 349.468 122.16 349.468C121.744 349.468 121.376 349.564 121.056 349.756C120.736 349.948 120.484 350.216 120.3 350.56C120.116 350.896 120.024 351.284 120.024 351.724C120.024 352.164 120.116 352.552 120.3 352.888C120.484 353.224 120.736 353.488 121.056 353.68C121.376 353.872 121.744 353.968 122.16 353.968ZM128.43 355C128.302 355 128.182 354.964 128.07 354.892C127.966 354.812 127.894 354.716 127.854 354.604L126.078 349.276C126.014 349.028 126.014 348.828 126.078 348.676C126.15 348.516 126.302 348.436 126.534 348.436C126.686 348.436 126.81 348.48 126.906 348.568C127.01 348.648 127.094 348.788 127.158 348.988L128.67 353.716H128.25L129.678 348.892C129.718 348.756 129.786 348.648 129.882 348.568C129.978 348.48 130.11 348.436 130.278 348.436C130.438 348.436 130.566 348.48 130.662 348.568C130.766 348.648 130.834 348.756 130.866 348.892L132.03 353.428H131.85L133.266 348.988C133.378 348.62 133.586 348.436 133.89 348.436C134.114 348.436 134.266 348.516 134.346 348.676C134.426 348.828 134.422 349.028 134.334 349.276L132.558 354.604C132.526 354.716 132.458 354.812 132.354 354.892C132.25 354.964 132.13 355 131.994 355C131.866 355 131.746 354.964 131.634 354.892C131.522 354.812 131.45 354.716 131.418 354.604L130.182 350.032H130.302L129.006 354.604C128.974 354.716 128.902 354.812 128.79 354.892C128.686 354.964 128.566 355 128.43 355ZM138.39 355.048C137.766 355.048 137.202 354.904 136.698 354.616C136.202 354.32 135.806 353.92 135.51 353.416C135.222 352.912 135.078 352.344 135.078 351.712C135.078 351.08 135.21 350.516 135.474 350.02C135.746 349.516 136.114 349.12 136.578 348.832C137.042 348.536 137.566 348.388 138.15 348.388C138.622 348.388 139.058 348.488 139.458 348.688C139.858 348.88 140.194 349.144 140.466 349.48V346.24C140.466 346.056 140.522 345.908 140.634 345.796C140.754 345.684 140.902 345.628 141.078 345.628C141.262 345.628 141.41 345.684 141.522 345.796C141.634 345.908 141.69 346.056 141.69 346.24V351.712C141.69 352.344 141.542 352.912 141.246 353.416C140.958 353.92 140.566 354.32 140.07 354.616C139.574 354.904 139.014 355.048 138.39 355.048ZM138.39 353.968C138.798 353.968 139.162 353.872 139.482 353.68C139.802 353.48 140.054 353.208 140.238 352.864C140.422 352.52 140.514 352.136 140.514 351.712C140.514 351.28 140.422 350.896 140.238 350.56C140.054 350.224 139.802 349.96 139.482 349.768C139.162 349.568 138.798 349.468 138.39 349.468C137.99 349.468 137.626 349.568 137.298 349.768C136.978 349.96 136.722 350.224 136.53 350.56C136.346 350.896 136.254 351.28 136.254 351.712C136.254 352.136 136.346 352.52 136.53 352.864C136.722 353.208 136.978 353.48 137.298 353.68C137.626 353.872 137.99 353.968 138.39 353.968ZM144.559 355C144.407 355 144.271 354.944 144.151 354.832C144.031 354.72 143.971 354.572 143.971 354.388V348.472C143.971 347.896 144.083 347.396 144.307 346.972C144.539 346.548 144.859 346.22 145.267 345.988C145.675 345.748 146.147 345.628 146.683 345.628C146.859 345.628 147.003 345.68 147.115 345.784C147.235 345.888 147.295 346.02 147.295 346.18C147.295 346.332 147.235 346.464 147.115 346.576C147.003 346.68 146.859 346.732 146.683 346.732C146.387 346.732 146.127 346.8 145.903 346.936C145.679 347.072 145.503 347.26 145.375 347.5C145.255 347.74 145.195 348.024 145.195 348.352V354.388C145.195 354.572 145.139 354.72 145.027 354.832C144.915 354.944 144.759 355 144.559 355ZM143.455 349.708C143.287 349.708 143.151 349.66 143.047 349.564C142.943 349.468 142.891 349.348 142.891 349.204C142.891 349.044 142.943 348.916 143.047 348.82C143.151 348.724 143.287 348.676 143.455 348.676H146.419C146.587 348.676 146.723 348.724 146.827 348.82C146.931 348.916 146.983 349.044 146.983 349.204C146.983 349.348 146.931 349.468 146.827 349.564C146.723 349.66 146.587 349.708 146.419 349.708H143.455ZM151.018 355.06C150.466 355.06 149.97 354.944 149.53 354.712C149.098 354.472 148.754 354.124 148.498 353.668C148.25 353.212 148.126 352.652 148.126 351.988V349.036C148.126 348.86 148.182 348.716 148.294 348.604C148.414 348.484 148.562 348.424 148.738 348.424C148.914 348.424 149.058 348.484 149.17 348.604C149.29 348.716 149.35 348.86 149.35 349.036V351.988C149.35 352.436 149.434 352.808 149.602 353.104C149.77 353.392 149.998 353.608 150.286 353.752C150.574 353.888 150.898 353.956 151.258 353.956C151.602 353.956 151.906 353.888 152.17 353.752C152.442 353.616 152.658 353.432 152.818 353.2C152.978 352.968 153.058 352.708 153.058 352.42H153.814C153.814 352.916 153.69 353.364 153.442 353.764C153.202 354.164 152.87 354.48 152.446 354.712C152.03 354.944 151.554 355.06 151.018 355.06ZM153.67 355C153.494 355 153.346 354.944 153.226 354.832C153.114 354.712 153.058 354.564 153.058 354.388V349.036C153.058 348.852 153.114 348.704 153.226 348.592C153.346 348.48 153.494 348.424 153.67 348.424C153.854 348.424 154.002 348.48 154.114 348.592C154.226 348.704 154.282 348.852 154.282 349.036V354.388C154.282 354.564 154.226 354.712 154.114 354.832C154.002 354.944 153.854 355 153.67 355ZM159.413 355.048C158.789 355.048 158.225 354.904 157.721 354.616C157.225 354.32 156.829 353.92 156.533 353.416C156.245 352.912 156.101 352.344 156.101 351.712C156.101 351.08 156.233 350.516 156.497 350.02C156.769 349.516 157.137 349.12 157.601 348.832C158.065 348.536 158.589 348.388 159.173 348.388C159.645 348.388 160.081 348.488 160.481 348.688C160.881 348.88 161.217 349.144 161.489 349.48V346.24C161.489 346.056 161.545 345.908 161.657 345.796C161.777 345.684 161.925 345.628 162.101 345.628C162.285 345.628 162.433 345.684 162.545 345.796C162.657 345.908 162.713 346.056 162.713 346.24V351.712C162.713 352.344 162.565 352.912 162.269 353.416C161.981 353.92 161.589 354.32 161.093 354.616C160.597 354.904 160.037 355.048 159.413 355.048ZM159.413 353.968C159.821 353.968 160.185 353.872 160.505 353.68C160.825 353.48 161.077 353.208 161.261 352.864C161.445 352.52 161.537 352.136 161.537 351.712C161.537 351.28 161.445 350.896 161.261 350.56C161.077 350.224 160.825 349.96 160.505 349.768C160.185 349.568 159.821 349.468 159.413 349.468C159.013 349.468 158.649 349.568 158.321 349.768C158.001 349.96 157.745 350.224 157.553 350.56C157.369 350.896 157.277 351.28 157.277 351.712C157.277 352.136 157.369 352.52 157.553 352.864C157.745 353.208 158.001 353.48 158.321 353.68C158.649 353.872 159.013 353.968 159.413 353.968ZM170.419 355.012C170.243 355.012 170.095 354.956 169.975 354.844C169.863 354.724 169.807 354.576 169.807 354.4V351.448C169.807 350.992 169.723 350.62 169.555 350.332C169.387 350.044 169.159 349.832 168.871 349.696C168.591 349.552 168.267 349.48 167.899 349.48C167.563 349.48 167.259 349.548 166.987 349.684C166.715 349.82 166.499 350.004 166.339 350.236C166.179 350.46 166.099 350.72 166.099 351.016H165.343C165.343 350.512 165.463 350.064 165.703 349.672C165.951 349.272 166.287 348.956 166.711 348.724C167.135 348.492 167.611 348.376 168.139 348.376C168.691 348.376 169.183 348.496 169.615 348.736C170.055 348.968 170.399 349.312 170.647 349.768C170.903 350.224 171.031 350.784 171.031 351.448V354.4C171.031 354.576 170.971 354.724 170.851 354.844C170.739 354.956 170.595 355.012 170.419 355.012ZM165.487 355.012C165.311 355.012 165.163 354.956 165.043 354.844C164.931 354.724 164.875 354.576 164.875 354.4V349.048C164.875 348.864 164.931 348.716 165.043 348.604C165.163 348.492 165.311 348.436 165.487 348.436C165.671 348.436 165.819 348.492 165.931 348.604C166.043 348.716 166.099 348.864 166.099 349.048V354.4C166.099 354.576 166.043 354.724 165.931 354.844C165.819 354.956 165.671 355.012 165.487 355.012ZM173.787 355C173.611 355 173.463 354.944 173.343 354.832C173.231 354.712 173.175 354.564 173.175 354.388V349.048C173.175 348.864 173.231 348.716 173.343 348.604C173.463 348.492 173.611 348.436 173.787 348.436C173.971 348.436 174.119 348.492 174.231 348.604C174.343 348.716 174.399 348.864 174.399 349.048V354.388C174.399 354.564 174.343 354.712 174.231 354.832C174.119 354.944 173.971 355 173.787 355ZM173.787 347.368C173.571 347.368 173.383 347.292 173.223 347.14C173.071 346.98 172.995 346.792 172.995 346.576C172.995 346.36 173.071 346.176 173.223 346.024C173.383 345.864 173.571 345.784 173.787 345.784C174.003 345.784 174.187 345.864 174.339 346.024C174.499 346.176 174.579 346.36 174.579 346.576C174.579 346.792 174.499 346.98 174.339 347.14C174.187 347.292 174.003 347.368 173.787 347.368ZM182.22 355.012C182.044 355.012 181.896 354.956 181.776 354.844C181.664 354.724 181.608 354.576 181.608 354.4V351.448C181.608 350.992 181.524 350.62 181.356 350.332C181.188 350.044 180.96 349.832 180.672 349.696C180.392 349.552 180.068 349.48 179.7 349.48C179.364 349.48 179.06 349.548 178.788 349.684C178.516 349.82 178.3 350.004 178.14 350.236C177.98 350.46 177.9 350.72 177.9 351.016H177.144C177.144 350.512 177.264 350.064 177.504 349.672C177.752 349.272 178.088 348.956 178.512 348.724C178.936 348.492 179.412 348.376 179.94 348.376C180.492 348.376 180.984 348.496 181.416 348.736C181.856 348.968 182.2 349.312 182.448 349.768C182.704 350.224 182.832 350.784 182.832 351.448V354.4C182.832 354.576 182.772 354.724 182.652 354.844C182.54 354.956 182.396 355.012 182.22 355.012ZM177.288 355.012C177.112 355.012 176.964 354.956 176.844 354.844C176.732 354.724 176.676 354.576 176.676 354.4V349.048C176.676 348.864 176.732 348.716 176.844 348.604C176.964 348.492 177.112 348.436 177.288 348.436C177.472 348.436 177.62 348.492 177.732 348.604C177.844 348.716 177.9 348.864 177.9 349.048V354.4C177.9 354.576 177.844 354.724 177.732 354.844C177.62 354.956 177.472 355.012 177.288 355.012ZM187.591 355.048C186.991 355.048 186.459 354.908 185.995 354.628C185.539 354.34 185.179 353.948 184.915 353.452C184.651 352.948 184.519 352.372 184.519 351.724C184.519 351.068 184.659 350.492 184.939 349.996C185.227 349.492 185.619 349.1 186.115 348.82C186.611 348.532 187.183 348.388 187.831 348.388C188.471 348.388 189.039 348.532 189.535 348.82C190.031 349.1 190.419 349.492 190.699 349.996C190.987 350.492 191.131 351.068 191.131 351.724H190.423C190.423 352.372 190.299 352.948 190.051 353.452C189.811 353.948 189.479 354.34 189.055 354.628C188.631 354.908 188.143 355.048 187.591 355.048ZM187.807 357.724C187.239 357.724 186.707 357.612 186.211 357.388C185.715 357.164 185.295 356.836 184.951 356.404C184.847 356.268 184.807 356.128 184.831 355.984C184.863 355.84 184.943 355.724 185.071 355.636C185.215 355.54 185.363 355.508 185.515 355.54C185.675 355.572 185.803 355.652 185.899 355.78C186.115 356.052 186.387 356.264 186.715 356.416C187.043 356.568 187.415 356.644 187.831 356.644C188.215 356.644 188.567 356.552 188.887 356.368C189.215 356.184 189.475 355.912 189.667 355.552C189.859 355.192 189.955 354.752 189.955 354.232V352.528L190.351 351.472L191.131 351.724V354.316C191.131 354.948 190.991 355.52 190.711 356.032C190.431 356.552 190.039 356.964 189.535 357.268C189.039 357.572 188.463 357.724 187.807 357.724ZM187.831 353.968C188.247 353.968 188.615 353.872 188.935 353.68C189.255 353.488 189.503 353.224 189.679 352.888C189.863 352.552 189.955 352.164 189.955 351.724C189.955 351.284 189.863 350.896 189.679 350.56C189.503 350.216 189.255 349.948 188.935 349.756C188.615 349.564 188.247 349.468 187.831 349.468C187.415 349.468 187.047 349.564 186.727 349.756C186.407 349.948 186.155 350.216 185.971 350.56C185.787 350.896 185.695 351.284 185.695 351.724C185.695 352.164 185.787 352.552 185.971 352.888C186.155 353.224 186.407 353.488 186.727 353.68C187.047 353.872 187.415 353.968 187.831 353.968ZM196.217 355C195.993 355 195.821 354.904 195.701 354.712C195.581 354.52 195.569 354.316 195.665 354.1L199.037 346.048C199.157 345.768 199.353 345.628 199.625 345.628C199.913 345.628 200.109 345.768 200.213 346.048L203.597 354.124C203.685 354.348 203.669 354.552 203.549 354.736C203.437 354.912 203.265 355 203.033 355C202.913 355 202.797 354.968 202.685 354.904C202.581 354.832 202.505 354.736 202.457 354.616L199.481 347.224H199.817L196.793 354.616C196.737 354.744 196.653 354.84 196.541 354.904C196.437 354.968 196.329 355 196.217 355ZM196.853 352.936L197.333 351.904H202.037L202.517 352.936H196.853ZM205.518 357.808C205.342 357.808 205.194 357.748 205.074 357.628C204.962 357.516 204.906 357.372 204.906 357.196V351.724C204.914 351.092 205.062 350.524 205.35 350.02C205.638 349.516 206.03 349.12 206.526 348.832C207.022 348.536 207.582 348.388 208.206 348.388C208.838 348.388 209.402 348.536 209.898 348.832C210.394 349.12 210.786 349.516 211.074 350.02C211.37 350.524 211.518 351.092 211.518 351.724C211.518 352.356 211.382 352.924 211.11 353.428C210.846 353.924 210.482 354.32 210.018 354.616C209.554 354.904 209.03 355.048 208.446 355.048C207.974 355.048 207.538 354.952 207.138 354.76C206.746 354.56 206.41 354.292 206.13 353.956V357.196C206.13 357.372 206.074 357.516 205.962 357.628C205.85 357.748 205.702 357.808 205.518 357.808ZM208.206 353.968C208.614 353.968 208.978 353.872 209.298 353.68C209.618 353.48 209.87 353.212 210.054 352.876C210.246 352.532 210.342 352.148 210.342 351.724C210.342 351.292 210.246 350.908 210.054 350.572C209.87 350.228 209.618 349.96 209.298 349.768C208.978 349.568 208.614 349.468 208.206 349.468C207.806 349.468 207.442 349.568 207.114 349.768C206.794 349.96 206.542 350.228 206.358 350.572C206.174 350.908 206.082 351.292 206.082 351.724C206.082 352.148 206.174 352.532 206.358 352.876C206.542 353.212 206.794 353.48 207.114 353.68C207.442 353.872 207.806 353.968 208.206 353.968ZM213.956 357.808C213.78 357.808 213.632 357.748 213.512 357.628C213.4 357.516 213.344 357.372 213.344 357.196V351.724C213.352 351.092 213.5 350.524 213.788 350.02C214.076 349.516 214.468 349.12 214.964 348.832C215.46 348.536 216.02 348.388 216.644 348.388C217.276 348.388 217.84 348.536 218.336 348.832C218.832 349.12 219.224 349.516 219.512 350.02C219.808 350.524 219.956 351.092 219.956 351.724C219.956 352.356 219.82 352.924 219.548 353.428C219.284 353.924 218.92 354.32 218.456 354.616C217.992 354.904 217.468 355.048 216.884 355.048C216.412 355.048 215.976 354.952 215.576 354.76C215.184 354.56 214.848 354.292 214.568 353.956V357.196C214.568 357.372 214.512 357.516 214.4 357.628C214.288 357.748 214.14 357.808 213.956 357.808ZM216.644 353.968C217.052 353.968 217.416 353.872 217.736 353.68C218.056 353.48 218.308 353.212 218.492 352.876C218.684 352.532 218.78 352.148 218.78 351.724C218.78 351.292 218.684 350.908 218.492 350.572C218.308 350.228 218.056 349.96 217.736 349.768C217.416 349.568 217.052 349.468 216.644 349.468C216.244 349.468 215.88 349.568 215.552 349.768C215.232 349.96 214.98 350.228 214.796 350.572C214.612 350.908 214.52 351.292 214.52 351.724C214.52 352.148 214.612 352.532 214.796 352.876C214.98 353.212 215.232 353.48 215.552 353.68C215.88 353.872 216.244 353.968 216.644 353.968ZM226.005 355C225.853 355 225.717 354.944 225.597 354.832C225.477 354.72 225.417 354.572 225.417 354.388V348.472C225.417 347.896 225.529 347.396 225.753 346.972C225.985 346.548 226.305 346.22 226.713 345.988C227.121 345.748 227.593 345.628 228.129 345.628C228.305 345.628 228.449 345.68 228.561 345.784C228.681 345.888 228.741 346.02 228.741 346.18C228.741 346.332 228.681 346.464 228.561 346.576C228.449 346.68 228.305 346.732 228.129 346.732C227.833 346.732 227.573 346.8 227.349 346.936C227.125 347.072 226.949 347.26 226.821 347.5C226.701 347.74 226.641 348.024 226.641 348.352V354.388C226.641 354.572 226.585 354.72 226.473 354.832C226.361 354.944 226.205 355 226.005 355ZM224.901 349.708C224.733 349.708 224.597 349.66 224.493 349.564C224.389 349.468 224.337 349.348 224.337 349.204C224.337 349.044 224.389 348.916 224.493 348.82C224.597 348.724 224.733 348.676 224.901 348.676H227.865C228.033 348.676 228.169 348.724 228.273 348.82C228.377 348.916 228.429 349.044 228.429 349.204C228.429 349.348 228.377 349.468 228.273 349.564C228.169 349.66 228.033 349.708 227.865 349.708H224.901ZM232.445 355.048C231.797 355.048 231.225 354.908 230.729 354.628C230.233 354.34 229.841 353.948 229.553 353.452C229.273 352.948 229.133 352.372 229.133 351.724C229.133 351.068 229.273 350.492 229.553 349.996C229.841 349.492 230.233 349.1 230.729 348.82C231.225 348.532 231.797 348.388 232.445 348.388C233.085 348.388 233.653 348.532 234.149 348.82C234.645 349.1 235.033 349.492 235.313 349.996C235.601 350.492 235.745 351.068 235.745 351.724C235.745 352.372 235.605 352.948 235.325 353.452C235.045 353.948 234.657 354.34 234.161 354.628C233.665 354.908 233.093 355.048 232.445 355.048ZM232.445 353.968C232.861 353.968 233.229 353.872 233.549 353.68C233.869 353.488 234.117 353.224 234.293 352.888C234.477 352.552 234.569 352.164 234.569 351.724C234.569 351.284 234.477 350.896 234.293 350.56C234.117 350.216 233.869 349.948 233.549 349.756C233.229 349.564 232.861 349.468 232.445 349.468C232.029 349.468 231.661 349.564 231.341 349.756C231.021 349.948 230.769 350.216 230.585 350.56C230.401 350.896 230.309 351.284 230.309 351.724C230.309 352.164 230.401 352.552 230.585 352.888C230.769 353.224 231.021 353.488 231.341 353.68C231.661 353.872 232.029 353.968 232.445 353.968ZM238.154 350.896C238.154 350.416 238.27 349.988 238.502 349.612C238.742 349.228 239.062 348.924 239.462 348.7C239.862 348.476 240.302 348.364 240.782 348.364C241.262 348.364 241.618 348.444 241.85 348.604C242.09 348.756 242.182 348.94 242.126 349.156C242.102 349.268 242.054 349.356 241.982 349.42C241.918 349.476 241.842 349.512 241.754 349.528C241.666 349.544 241.57 349.54 241.466 349.516C240.954 349.412 240.494 349.404 240.086 349.492C239.678 349.58 239.354 349.744 239.114 349.984C238.882 350.224 238.766 350.528 238.766 350.896H238.154ZM238.166 355C237.974 355 237.826 354.952 237.722 354.856C237.618 354.752 237.566 354.6 237.566 354.4V349.036C237.566 348.844 237.618 348.696 237.722 348.592C237.826 348.488 237.974 348.436 238.166 348.436C238.366 348.436 238.514 348.488 238.61 348.592C238.714 348.688 238.766 348.836 238.766 349.036V354.4C238.766 354.592 238.714 354.74 238.61 354.844C238.514 354.948 238.366 355 238.166 355ZM251.238 355.12C250.59 355.12 249.982 355 249.414 354.76C248.854 354.512 248.362 354.172 247.938 353.74C247.522 353.3 247.194 352.788 246.954 352.204C246.722 351.62 246.606 350.988 246.606 350.308C246.606 349.636 246.722 349.012 246.954 348.436C247.194 347.852 247.522 347.344 247.938 346.912C248.362 346.472 248.854 346.128 249.414 345.88C249.974 345.632 250.582 345.508 251.238 345.508C251.854 345.508 252.382 345.588 252.822 345.748C253.27 345.908 253.718 346.172 254.166 346.54C254.23 346.588 254.278 346.64 254.31 346.696C254.35 346.744 254.374 346.796 254.382 346.852C254.398 346.9 254.406 346.96 254.406 347.032C254.406 347.184 254.35 347.312 254.238 347.416C254.134 347.512 254.006 347.568 253.854 347.584C253.702 347.592 253.554 347.54 253.41 347.428C253.114 347.172 252.806 346.976 252.486 346.84C252.174 346.704 251.758 346.636 251.238 346.636C250.766 346.636 250.322 346.732 249.906 346.924C249.49 347.116 249.122 347.38 248.802 347.716C248.49 348.052 248.246 348.444 248.07 348.892C247.894 349.332 247.806 349.804 247.806 350.308C247.806 350.82 247.894 351.3 248.07 351.748C248.246 352.188 248.49 352.576 248.802 352.912C249.122 353.248 249.49 353.512 249.906 353.704C250.322 353.888 250.766 353.98 251.238 353.98C251.646 353.98 252.03 353.912 252.39 353.776C252.758 353.632 253.11 353.436 253.446 353.188C253.59 353.084 253.73 353.04 253.866 353.056C254.01 353.064 254.13 353.12 254.226 353.224C254.322 353.32 254.37 353.456 254.37 353.632C254.37 353.712 254.354 353.792 254.322 353.872C254.29 353.944 254.242 354.012 254.178 354.076C253.746 354.42 253.282 354.68 252.786 354.856C252.298 355.032 251.782 355.12 251.238 355.12ZM256.858 352.612C256.682 352.612 256.534 352.556 256.414 352.444C256.302 352.324 256.246 352.176 256.246 352V346.24C256.246 346.056 256.302 345.908 256.414 345.796C256.534 345.684 256.682 345.628 256.858 345.628C257.042 345.628 257.19 345.684 257.302 345.796C257.414 345.908 257.47 346.056 257.47 346.24V352C257.47 352.176 257.414 352.324 257.302 352.444C257.19 352.556 257.042 352.612 256.858 352.612ZM261.79 355.012C261.614 355.012 261.466 354.956 261.346 354.844C261.234 354.724 261.178 354.576 261.178 354.4V351.448C261.178 350.992 261.094 350.62 260.926 350.332C260.758 350.044 260.53 349.832 260.242 349.696C259.962 349.552 259.638 349.48 259.27 349.48C258.934 349.48 258.63 349.548 258.358 349.684C258.086 349.82 257.87 350.004 257.71 350.236C257.55 350.46 257.47 350.72 257.47 351.016H256.714C256.714 350.512 256.834 350.064 257.074 349.672C257.322 349.272 257.658 348.956 258.082 348.724C258.506 348.492 258.982 348.376 259.51 348.376C260.062 348.376 260.554 348.496 260.986 348.736C261.426 348.968 261.77 349.312 262.018 349.768C262.274 350.224 262.402 350.784 262.402 351.448V354.4C262.402 354.576 262.342 354.724 262.222 354.844C262.11 354.956 261.966 355.012 261.79 355.012ZM256.858 355.012C256.682 355.012 256.534 354.956 256.414 354.844C256.302 354.724 256.246 354.576 256.246 354.4V349.048C256.246 348.864 256.302 348.716 256.414 348.604C256.534 348.492 256.682 348.436 256.858 348.436C257.042 348.436 257.19 348.492 257.302 348.604C257.414 348.716 257.47 348.864 257.47 349.048V354.4C257.47 354.576 257.414 354.724 257.302 354.844C257.19 354.956 257.042 355.012 256.858 355.012ZM265.169 355C264.993 355 264.845 354.944 264.725 354.832C264.613 354.712 264.557 354.564 264.557 354.388V349.048C264.557 348.864 264.613 348.716 264.725 348.604C264.845 348.492 264.993 348.436 265.169 348.436C265.353 348.436 265.501 348.492 265.613 348.604C265.725 348.716 265.781 348.864 265.781 349.048V354.388C265.781 354.564 265.725 354.712 265.613 354.832C265.501 354.944 265.353 355 265.169 355ZM265.169 347.368C264.953 347.368 264.765 347.292 264.605 347.14C264.453 346.98 264.377 346.792 264.377 346.576C264.377 346.36 264.453 346.176 264.605 346.024C264.765 345.864 264.953 345.784 265.169 345.784C265.385 345.784 265.569 345.864 265.721 346.024C265.881 346.176 265.961 346.36 265.961 346.576C265.961 346.792 265.881 346.98 265.721 347.14C265.569 347.292 265.385 347.368 265.169 347.368ZM273.603 355.012C273.427 355.012 273.279 354.956 273.159 354.844C273.047 354.724 272.991 354.576 272.991 354.4V351.448C272.991 350.992 272.907 350.62 272.739 350.332C272.571 350.044 272.343 349.832 272.055 349.696C271.775 349.552 271.451 349.48 271.083 349.48C270.747 349.48 270.443 349.548 270.171 349.684C269.899 349.82 269.683 350.004 269.523 350.236C269.363 350.46 269.283 350.72 269.283 351.016H268.527C268.527 350.512 268.647 350.064 268.887 349.672C269.135 349.272 269.471 348.956 269.895 348.724C270.319 348.492 270.795 348.376 271.323 348.376C271.875 348.376 272.367 348.496 272.799 348.736C273.239 348.968 273.583 349.312 273.831 349.768C274.087 350.224 274.215 350.784 274.215 351.448V354.4C274.215 354.576 274.155 354.724 274.035 354.844C273.923 354.956 273.779 355.012 273.603 355.012ZM268.671 355.012C268.495 355.012 268.347 354.956 268.227 354.844C268.115 354.724 268.059 354.576 268.059 354.4V349.048C268.059 348.864 268.115 348.716 268.227 348.604C268.347 348.492 268.495 348.436 268.671 348.436C268.855 348.436 269.003 348.492 269.115 348.604C269.227 348.716 269.283 348.864 269.283 349.048V354.4C269.283 354.576 269.227 354.724 269.115 354.844C269.003 354.956 268.855 355.012 268.671 355.012ZM279.322 355.048C278.658 355.048 278.066 354.908 277.546 354.628C277.034 354.34 276.63 353.948 276.334 353.452C276.046 352.948 275.902 352.372 275.902 351.724C275.902 351.068 276.038 350.492 276.31 349.996C276.59 349.492 276.974 349.1 277.462 348.82C277.95 348.532 278.51 348.388 279.142 348.388C279.766 348.388 280.302 348.528 280.75 348.808C281.198 349.08 281.538 349.46 281.77 349.948C282.01 350.428 282.13 350.984 282.13 351.616C282.13 351.768 282.078 351.896 281.974 352C281.87 352.096 281.738 352.144 281.578 352.144H276.742V351.184H281.542L281.05 351.52C281.042 351.12 280.962 350.764 280.81 350.452C280.658 350.132 280.442 349.88 280.162 349.696C279.882 349.512 279.542 349.42 279.142 349.42C278.686 349.42 278.294 349.52 277.966 349.72C277.646 349.92 277.402 350.196 277.234 350.548C277.066 350.892 276.982 351.284 276.982 351.724C276.982 352.164 277.082 352.556 277.282 352.9C277.482 353.244 277.758 353.516 278.11 353.716C278.462 353.916 278.866 354.016 279.322 354.016C279.57 354.016 279.822 353.972 280.078 353.884C280.342 353.788 280.554 353.68 280.714 353.56C280.834 353.472 280.962 353.428 281.098 353.428C281.242 353.42 281.366 353.46 281.47 353.548C281.606 353.668 281.678 353.8 281.686 353.944C281.694 354.088 281.63 354.212 281.494 354.316C281.222 354.532 280.882 354.708 280.474 354.844C280.074 354.98 279.69 355.048 279.322 355.048ZM286.079 355.048C285.519 355.048 284.999 354.964 284.519 354.796C284.047 354.62 283.679 354.4 283.415 354.136C283.295 354.008 283.243 353.864 283.259 353.704C283.283 353.536 283.363 353.4 283.499 353.296C283.659 353.168 283.815 353.116 283.967 353.14C284.127 353.156 284.263 353.224 284.375 353.344C284.511 353.496 284.727 353.64 285.023 353.776C285.327 353.904 285.663 353.968 286.031 353.968C286.495 353.968 286.847 353.892 287.087 353.74C287.335 353.588 287.463 353.392 287.471 353.152C287.479 352.912 287.363 352.704 287.123 352.528C286.891 352.352 286.463 352.208 285.839 352.096C285.031 351.936 284.443 351.696 284.075 351.376C283.715 351.056 283.535 350.664 283.535 350.2C283.535 349.792 283.655 349.456 283.895 349.192C284.135 348.92 284.443 348.72 284.819 348.592C285.195 348.456 285.587 348.388 285.995 348.388C286.523 348.388 286.991 348.472 287.399 348.64C287.807 348.808 288.131 349.04 288.371 349.336C288.483 349.464 288.535 349.6 288.527 349.744C288.519 349.88 288.451 349.996 288.323 350.092C288.195 350.18 288.043 350.208 287.867 350.176C287.691 350.144 287.543 350.072 287.423 349.96C287.223 349.768 287.007 349.636 286.775 349.564C286.543 349.492 286.275 349.456 285.971 349.456C285.619 349.456 285.319 349.516 285.071 349.636C284.831 349.756 284.711 349.932 284.711 350.164C284.711 350.308 284.747 350.44 284.819 350.56C284.899 350.672 285.051 350.776 285.275 350.872C285.499 350.96 285.827 351.048 286.259 351.136C286.859 351.256 287.331 351.408 287.675 351.592C288.027 351.776 288.279 351.992 288.431 352.24C288.583 352.48 288.659 352.76 288.659 353.08C288.659 353.448 288.559 353.78 288.359 354.076C288.167 354.372 287.879 354.608 287.495 354.784C287.119 354.96 286.647 355.048 286.079 355.048ZM293.291 355.048C292.627 355.048 292.035 354.908 291.515 354.628C291.003 354.34 290.599 353.948 290.303 353.452C290.015 352.948 289.871 352.372 289.871 351.724C289.871 351.068 290.007 350.492 290.279 349.996C290.559 349.492 290.943 349.1 291.431 348.82C291.919 348.532 292.479 348.388 293.111 348.388C293.735 348.388 294.271 348.528 294.719 348.808C295.167 349.08 295.507 349.46 295.739 349.948C295.979 350.428 296.099 350.984 296.099 351.616C296.099 351.768 296.047 351.896 295.943 352C295.839 352.096 295.707 352.144 295.547 352.144H290.711V351.184H295.511L295.019 351.52C295.011 351.12 294.931 350.764 294.779 350.452C294.627 350.132 294.411 349.88 294.131 349.696C293.851 349.512 293.511 349.42 293.111 349.42C292.655 349.42 292.263 349.52 291.935 349.72C291.615 349.92 291.371 350.196 291.203 350.548C291.035 350.892 290.951 351.284 290.951 351.724C290.951 352.164 291.051 352.556 291.251 352.9C291.451 353.244 291.727 353.516 292.079 353.716C292.431 353.916 292.835 354.016 293.291 354.016C293.539 354.016 293.791 353.972 294.047 353.884C294.311 353.788 294.523 353.68 294.683 353.56C294.803 353.472 294.931 353.428 295.067 353.428C295.211 353.42 295.335 353.46 295.439 353.548C295.575 353.668 295.647 353.8 295.655 353.944C295.663 354.088 295.599 354.212 295.463 354.316C295.191 354.532 294.851 354.708 294.443 354.844C294.043 354.98 293.659 355.048 293.291 355.048ZM152.4 368.048C151.76 368.048 151.188 367.904 150.684 367.616C150.188 367.32 149.796 366.924 149.508 366.428C149.228 365.924 149.088 365.356 149.088 364.724C149.088 364.076 149.228 363.5 149.508 362.996C149.788 362.492 150.172 362.1 150.66 361.82C151.148 361.532 151.708 361.388 152.34 361.388C152.812 361.388 153.244 361.48 153.636 361.664C154.028 361.84 154.38 362.108 154.692 362.468C154.804 362.596 154.844 362.728 154.812 362.864C154.78 363 154.692 363.12 154.548 363.224C154.436 363.304 154.312 363.332 154.176 363.308C154.04 363.276 153.916 363.204 153.804 363.092C153.412 362.676 152.924 362.468 152.34 362.468C151.932 362.468 151.572 362.564 151.26 362.756C150.948 362.94 150.704 363.2 150.528 363.536C150.352 363.872 150.264 364.268 150.264 364.724C150.264 365.156 150.352 365.54 150.528 365.876C150.712 366.212 150.964 366.48 151.284 366.68C151.604 366.872 151.976 366.968 152.4 366.968C152.68 366.968 152.924 366.936 153.132 366.872C153.348 366.8 153.544 366.692 153.72 366.548C153.848 366.444 153.98 366.388 154.116 366.38C154.252 366.364 154.372 366.4 154.476 366.488C154.612 366.6 154.688 366.728 154.704 366.872C154.72 367.008 154.672 367.132 154.56 367.244C153.984 367.78 153.264 368.048 152.4 368.048ZM157.243 365.612C157.067 365.612 156.919 365.556 156.799 365.444C156.687 365.324 156.631 365.176 156.631 365V359.24C156.631 359.056 156.687 358.908 156.799 358.796C156.919 358.684 157.067 358.628 157.243 358.628C157.427 358.628 157.575 358.684 157.687 358.796C157.799 358.908 157.855 359.056 157.855 359.24V365C157.855 365.176 157.799 365.324 157.687 365.444C157.575 365.556 157.427 365.612 157.243 365.612ZM162.175 368.012C161.999 368.012 161.851 367.956 161.731 367.844C161.619 367.724 161.563 367.576 161.563 367.4V364.448C161.563 363.992 161.479 363.62 161.311 363.332C161.143 363.044 160.915 362.832 160.627 362.696C160.347 362.552 160.023 362.48 159.655 362.48C159.319 362.48 159.015 362.548 158.743 362.684C158.471 362.82 158.255 363.004 158.095 363.236C157.935 363.46 157.855 363.72 157.855 364.016H157.099C157.099 363.512 157.219 363.064 157.459 362.672C157.707 362.272 158.043 361.956 158.467 361.724C158.891 361.492 159.367 361.376 159.895 361.376C160.447 361.376 160.939 361.496 161.371 361.736C161.811 361.968 162.155 362.312 162.403 362.768C162.659 363.224 162.787 363.784 162.787 364.448V367.4C162.787 367.576 162.727 367.724 162.607 367.844C162.495 367.956 162.351 368.012 162.175 368.012ZM157.243 368.012C157.067 368.012 156.919 367.956 156.799 367.844C156.687 367.724 156.631 367.576 156.631 367.4V362.048C156.631 361.864 156.687 361.716 156.799 361.604C156.919 361.492 157.067 361.436 157.243 361.436C157.427 361.436 157.575 361.492 157.687 361.604C157.799 361.716 157.855 361.864 157.855 362.048V367.4C157.855 367.576 157.799 367.724 157.687 367.844C157.575 367.956 157.427 368.012 157.243 368.012ZM165.41 363.896C165.41 363.416 165.526 362.988 165.758 362.612C165.998 362.228 166.318 361.924 166.718 361.7C167.118 361.476 167.558 361.364 168.038 361.364C168.518 361.364 168.874 361.444 169.106 361.604C169.346 361.756 169.438 361.94 169.382 362.156C169.358 362.268 169.31 362.356 169.238 362.42C169.174 362.476 169.098 362.512 169.01 362.528C168.922 362.544 168.826 362.54 168.722 362.516C168.21 362.412 167.75 362.404 167.342 362.492C166.934 362.58 166.61 362.744 166.37 362.984C166.138 363.224 166.022 363.528 166.022 363.896H165.41ZM165.422 368C165.23 368 165.082 367.952 164.978 367.856C164.874 367.752 164.822 367.6 164.822 367.4V362.036C164.822 361.844 164.874 361.696 164.978 361.592C165.082 361.488 165.23 361.436 165.422 361.436C165.622 361.436 165.77 361.488 165.866 361.592C165.97 361.688 166.022 361.836 166.022 362.036V367.4C166.022 367.592 165.97 367.74 165.866 367.844C165.77 367.948 165.622 368 165.422 368ZM173.154 368.048C172.506 368.048 171.934 367.908 171.438 367.628C170.942 367.34 170.55 366.948 170.262 366.452C169.982 365.948 169.842 365.372 169.842 364.724C169.842 364.068 169.982 363.492 170.262 362.996C170.55 362.492 170.942 362.1 171.438 361.82C171.934 361.532 172.506 361.388 173.154 361.388C173.794 361.388 174.362 361.532 174.858 361.82C175.354 362.1 175.742 362.492 176.022 362.996C176.31 363.492 176.454 364.068 176.454 364.724C176.454 365.372 176.314 365.948 176.034 366.452C175.754 366.948 175.366 367.34 174.87 367.628C174.374 367.908 173.802 368.048 173.154 368.048ZM173.154 366.968C173.57 366.968 173.938 366.872 174.258 366.68C174.578 366.488 174.826 366.224 175.002 365.888C175.186 365.552 175.278 365.164 175.278 364.724C175.278 364.284 175.186 363.896 175.002 363.56C174.826 363.216 174.578 362.948 174.258 362.756C173.938 362.564 173.57 362.468 173.154 362.468C172.738 362.468 172.37 362.564 172.05 362.756C171.73 362.948 171.478 363.216 171.294 363.56C171.11 363.896 171.018 364.284 171.018 364.724C171.018 365.164 171.11 365.552 171.294 365.888C171.478 366.224 171.73 366.488 172.05 366.68C172.37 366.872 172.738 366.968 173.154 366.968ZM183.819 368.012C183.643 368.012 183.495 367.956 183.375 367.844C183.263 367.724 183.207 367.576 183.207 367.4V364.448C183.207 363.992 183.123 363.62 182.955 363.332C182.787 363.044 182.559 362.832 182.271 362.696C181.991 362.552 181.667 362.48 181.299 362.48C180.963 362.48 180.659 362.548 180.387 362.684C180.115 362.82 179.899 363.004 179.739 363.236C179.579 363.46 179.499 363.72 179.499 364.016H178.743C178.743 363.512 178.863 363.064 179.103 362.672C179.351 362.272 179.687 361.956 180.111 361.724C180.535 361.492 181.011 361.376 181.539 361.376C182.091 361.376 182.583 361.496 183.015 361.736C183.455 361.968 183.799 362.312 184.047 362.768C184.303 363.224 184.431 363.784 184.431 364.448V367.4C184.431 367.576 184.371 367.724 184.251 367.844C184.139 367.956 183.995 368.012 183.819 368.012ZM178.887 368.012C178.711 368.012 178.563 367.956 178.443 367.844C178.331 367.724 178.275 367.576 178.275 367.4V362.048C178.275 361.864 178.331 361.716 178.443 361.604C178.563 361.492 178.711 361.436 178.887 361.436C179.071 361.436 179.219 361.492 179.331 361.604C179.443 361.716 179.499 361.864 179.499 362.048V367.4C179.499 367.576 179.443 367.724 179.331 367.844C179.219 367.956 179.071 368.012 178.887 368.012ZM187.187 368C187.011 368 186.863 367.944 186.743 367.832C186.631 367.712 186.575 367.564 186.575 367.388V362.048C186.575 361.864 186.631 361.716 186.743 361.604C186.863 361.492 187.011 361.436 187.187 361.436C187.371 361.436 187.519 361.492 187.631 361.604C187.743 361.716 187.799 361.864 187.799 362.048V367.388C187.799 367.564 187.743 367.712 187.631 367.832C187.519 367.944 187.371 368 187.187 368ZM187.187 360.368C186.971 360.368 186.783 360.292 186.623 360.14C186.471 359.98 186.395 359.792 186.395 359.576C186.395 359.36 186.471 359.176 186.623 359.024C186.783 358.864 186.971 358.784 187.187 358.784C187.403 358.784 187.587 358.864 187.739 359.024C187.899 359.176 187.979 359.36 187.979 359.576C187.979 359.792 187.899 359.98 187.739 360.14C187.587 360.292 187.403 360.368 187.187 360.368ZM193.052 368.048C192.412 368.048 191.84 367.904 191.336 367.616C190.84 367.32 190.448 366.924 190.16 366.428C189.88 365.924 189.74 365.356 189.74 364.724C189.74 364.076 189.88 363.5 190.16 362.996C190.44 362.492 190.824 362.1 191.312 361.82C191.8 361.532 192.36 361.388 192.992 361.388C193.464 361.388 193.896 361.48 194.288 361.664C194.68 361.84 195.032 362.108 195.344 362.468C195.456 362.596 195.496 362.728 195.464 362.864C195.432 363 195.344 363.12 195.2 363.224C195.088 363.304 194.964 363.332 194.828 363.308C194.692 363.276 194.568 363.204 194.456 363.092C194.064 362.676 193.576 362.468 192.992 362.468C192.584 362.468 192.224 362.564 191.912 362.756C191.6 362.94 191.356 363.2 191.18 363.536C191.004 363.872 190.916 364.268 190.916 364.724C190.916 365.156 191.004 365.54 191.18 365.876C191.364 366.212 191.616 366.48 191.936 366.68C192.256 366.872 192.628 366.968 193.052 366.968C193.332 366.968 193.576 366.936 193.784 366.872C194 366.8 194.196 366.692 194.372 366.548C194.5 366.444 194.632 366.388 194.768 366.38C194.904 366.364 195.024 366.4 195.128 366.488C195.264 366.6 195.34 366.728 195.356 366.872C195.372 367.008 195.324 367.132 195.212 367.244C194.636 367.78 193.916 368.048 193.052 368.048ZM201.411 370.808C201.235 370.808 201.087 370.748 200.967 370.628C200.855 370.516 200.799 370.372 200.799 370.196V364.724C200.807 364.092 200.955 363.524 201.243 363.02C201.531 362.516 201.923 362.12 202.419 361.832C202.915 361.536 203.475 361.388 204.099 361.388C204.731 361.388 205.295 361.536 205.791 361.832C206.287 362.12 206.679 362.516 206.967 363.02C207.263 363.524 207.411 364.092 207.411 364.724C207.411 365.356 207.275 365.924 207.003 366.428C206.739 366.924 206.375 367.32 205.911 367.616C205.447 367.904 204.923 368.048 204.339 368.048C203.867 368.048 203.431 367.952 203.031 367.76C202.639 367.56 202.303 367.292 202.023 366.956V370.196C202.023 370.372 201.967 370.516 201.855 370.628C201.743 370.748 201.595 370.808 201.411 370.808ZM204.099 366.968C204.507 366.968 204.871 366.872 205.191 366.68C205.511 366.48 205.763 366.212 205.947 365.876C206.139 365.532 206.235 365.148 206.235 364.724C206.235 364.292 206.139 363.908 205.947 363.572C205.763 363.228 205.511 362.96 205.191 362.768C204.871 362.568 204.507 362.468 204.099 362.468C203.699 362.468 203.335 362.568 203.007 362.768C202.687 362.96 202.435 363.228 202.251 363.572C202.067 363.908 201.975 364.292 201.975 364.724C201.975 365.148 202.067 365.532 202.251 365.876C202.435 366.212 202.687 366.48 203.007 366.68C203.335 366.872 203.699 366.968 204.099 366.968ZM211.972 368.048C211.388 368.048 210.864 367.904 210.4 367.616C209.936 367.32 209.568 366.924 209.296 366.428C209.032 365.924 208.9 365.356 208.9 364.724C208.9 364.092 209.044 363.524 209.332 363.02C209.628 362.516 210.024 362.12 210.52 361.832C211.024 361.536 211.588 361.388 212.212 361.388C212.836 361.388 213.396 361.536 213.892 361.832C214.388 362.12 214.78 362.516 215.068 363.02C215.364 363.524 215.512 364.092 215.512 364.724H215.044C215.044 365.356 214.908 365.924 214.636 366.428C214.372 366.924 214.008 367.32 213.544 367.616C213.08 367.904 212.556 368.048 211.972 368.048ZM212.212 366.968C212.62 366.968 212.984 366.872 213.304 366.68C213.624 366.48 213.876 366.212 214.06 365.876C214.244 365.532 214.336 365.148 214.336 364.724C214.336 364.292 214.244 363.908 214.06 363.572C213.876 363.228 213.624 362.96 213.304 362.768C212.984 362.568 212.62 362.468 212.212 362.468C211.812 362.468 211.448 362.568 211.12 362.768C210.8 362.96 210.544 363.228 210.352 363.572C210.168 363.908 210.076 364.292 210.076 364.724C210.076 365.148 210.168 365.532 210.352 365.876C210.544 366.212 210.8 366.48 211.12 366.68C211.448 366.872 211.812 366.968 212.212 366.968ZM214.9 368.012C214.724 368.012 214.576 367.956 214.456 367.844C214.344 367.724 214.288 367.576 214.288 367.4V365.564L214.516 364.292L215.512 364.724V367.4C215.512 367.576 215.452 367.724 215.332 367.844C215.22 367.956 215.076 368.012 214.9 368.012ZM219.722 368C219.322 368 218.962 367.9 218.642 367.7C218.322 367.492 218.07 367.212 217.886 366.86C217.702 366.508 217.61 366.112 217.61 365.672V359.948C217.61 359.772 217.666 359.628 217.778 359.516C217.89 359.404 218.034 359.348 218.21 359.348C218.386 359.348 218.53 359.404 218.642 359.516C218.754 359.628 218.81 359.772 218.81 359.948V365.672C218.81 365.992 218.898 366.26 219.074 366.476C219.25 366.692 219.466 366.8 219.722 366.8H220.13C220.274 366.8 220.394 366.856 220.49 366.968C220.594 367.08 220.646 367.224 220.646 367.4C220.646 367.576 220.578 367.72 220.442 367.832C220.314 367.944 220.146 368 219.938 368H219.722ZM217.058 362.708C216.89 362.708 216.754 362.66 216.65 362.564C216.546 362.468 216.494 362.348 216.494 362.204C216.494 362.044 216.546 361.916 216.65 361.82C216.754 361.724 216.89 361.676 217.058 361.676H219.83C219.998 361.676 220.134 361.724 220.238 361.82C220.342 361.916 220.394 362.044 220.394 362.204C220.394 362.348 220.342 362.468 220.238 362.564C220.134 362.66 219.998 362.708 219.83 362.708H217.058ZM222.882 368C222.706 368 222.558 367.944 222.438 367.832C222.326 367.712 222.27 367.564 222.27 367.388V362.048C222.27 361.864 222.326 361.716 222.438 361.604C222.558 361.492 222.706 361.436 222.882 361.436C223.066 361.436 223.214 361.492 223.326 361.604C223.438 361.716 223.494 361.864 223.494 362.048V367.388C223.494 367.564 223.438 367.712 223.326 367.832C223.214 367.944 223.066 368 222.882 368ZM222.882 360.368C222.666 360.368 222.478 360.292 222.318 360.14C222.166 359.98 222.09 359.792 222.09 359.576C222.09 359.36 222.166 359.176 222.318 359.024C222.478 358.864 222.666 358.784 222.882 358.784C223.098 358.784 223.282 358.864 223.434 359.024C223.594 359.176 223.674 359.36 223.674 359.576C223.674 359.792 223.594 359.98 223.434 360.14C223.282 360.292 223.098 360.368 222.882 360.368ZM228.855 368.048C228.191 368.048 227.599 367.908 227.079 367.628C226.567 367.34 226.163 366.948 225.867 366.452C225.579 365.948 225.435 365.372 225.435 364.724C225.435 364.068 225.571 363.492 225.843 362.996C226.123 362.492 226.507 362.1 226.995 361.82C227.483 361.532 228.043 361.388 228.675 361.388C229.299 361.388 229.835 361.528 230.283 361.808C230.731 362.08 231.071 362.46 231.303 362.948C231.543 363.428 231.663 363.984 231.663 364.616C231.663 364.768 231.611 364.896 231.507 365C231.403 365.096 231.271 365.144 231.111 365.144H226.275V364.184H231.075L230.583 364.52C230.575 364.12 230.495 363.764 230.343 363.452C230.191 363.132 229.975 362.88 229.695 362.696C229.415 362.512 229.075 362.42 228.675 362.42C228.219 362.42 227.827 362.52 227.499 362.72C227.179 362.92 226.935 363.196 226.767 363.548C226.599 363.892 226.515 364.284 226.515 364.724C226.515 365.164 226.615 365.556 226.815 365.9C227.015 366.244 227.291 366.516 227.643 366.716C227.995 366.916 228.399 367.016 228.855 367.016C229.103 367.016 229.355 366.972 229.611 366.884C229.875 366.788 230.087 366.68 230.247 366.56C230.367 366.472 230.495 366.428 230.631 366.428C230.775 366.42 230.899 366.46 231.003 366.548C231.139 366.668 231.211 366.8 231.219 366.944C231.227 367.088 231.163 367.212 231.027 367.316C230.755 367.532 230.415 367.708 230.007 367.844C229.607 367.98 229.223 368.048 228.855 368.048ZM238.769 368.012C238.593 368.012 238.445 367.956 238.325 367.844C238.213 367.724 238.157 367.576 238.157 367.4V364.448C238.157 363.992 238.073 363.62 237.905 363.332C237.737 363.044 237.509 362.832 237.221 362.696C236.941 362.552 236.617 362.48 236.249 362.48C235.913 362.48 235.609 362.548 235.337 362.684C235.065 362.82 234.849 363.004 234.689 363.236C234.529 363.46 234.449 363.72 234.449 364.016H233.693C233.693 363.512 233.813 363.064 234.053 362.672C234.301 362.272 234.637 361.956 235.061 361.724C235.485 361.492 235.961 361.376 236.489 361.376C237.041 361.376 237.533 361.496 237.965 361.736C238.405 361.968 238.749 362.312 238.997 362.768C239.253 363.224 239.381 363.784 239.381 364.448V367.4C239.381 367.576 239.321 367.724 239.201 367.844C239.089 367.956 238.945 368.012 238.769 368.012ZM233.837 368.012C233.661 368.012 233.513 367.956 233.393 367.844C233.281 367.724 233.225 367.576 233.225 367.4V362.048C233.225 361.864 233.281 361.716 233.393 361.604C233.513 361.492 233.661 361.436 233.837 361.436C234.021 361.436 234.169 361.492 234.281 361.604C234.393 361.716 234.449 361.864 234.449 362.048V367.4C234.449 367.576 234.393 367.724 234.281 367.844C234.169 367.956 234.021 368.012 233.837 368.012ZM243.792 368C243.392 368 243.032 367.9 242.712 367.7C242.392 367.492 242.14 367.212 241.956 366.86C241.772 366.508 241.68 366.112 241.68 365.672V359.948C241.68 359.772 241.736 359.628 241.848 359.516C241.96 359.404 242.104 359.348 242.28 359.348C242.456 359.348 242.6 359.404 242.712 359.516C242.824 359.628 242.88 359.772 242.88 359.948V365.672C242.88 365.992 242.968 366.26 243.144 366.476C243.32 366.692 243.536 366.8 243.792 366.8H244.2C244.344 366.8 244.464 366.856 244.56 366.968C244.664 367.08 244.716 367.224 244.716 367.4C244.716 367.576 244.648 367.72 244.512 367.832C244.384 367.944 244.216 368 244.008 368H243.792ZM241.128 362.708C240.96 362.708 240.824 362.66 240.72 362.564C240.616 362.468 240.564 362.348 240.564 362.204C240.564 362.044 240.616 361.916 240.72 361.82C240.824 361.724 240.96 361.676 241.128 361.676H243.9C244.068 361.676 244.204 361.724 244.308 361.82C244.412 361.916 244.464 362.044 244.464 362.204C244.464 362.348 244.412 362.468 244.308 362.564C244.204 362.66 244.068 362.708 243.9 362.708H241.128ZM248.609 368.048C248.049 368.048 247.529 367.964 247.049 367.796C246.577 367.62 246.209 367.4 245.945 367.136C245.825 367.008 245.773 366.864 245.789 366.704C245.813 366.536 245.893 366.4 246.029 366.296C246.189 366.168 246.345 366.116 246.497 366.14C246.657 366.156 246.793 366.224 246.905 366.344C247.041 366.496 247.257 366.64 247.553 366.776C247.857 366.904 248.193 366.968 248.561 366.968C249.025 366.968 249.377 366.892 249.617 366.74C249.865 366.588 249.993 366.392 250.001 366.152C250.009 365.912 249.893 365.704 249.653 365.528C249.421 365.352 248.993 365.208 248.369 365.096C247.561 364.936 246.973 364.696 246.605 364.376C246.245 364.056 246.065 363.664 246.065 363.2C246.065 362.792 246.185 362.456 246.425 362.192C246.665 361.92 246.973 361.72 247.349 361.592C247.725 361.456 248.117 361.388 248.525 361.388C249.053 361.388 249.521 361.472 249.929 361.64C250.337 361.808 250.661 362.04 250.901 362.336C251.013 362.464 251.065 362.6 251.057 362.744C251.049 362.88 250.981 362.996 250.853 363.092C250.725 363.18 250.573 363.208 250.397 363.176C250.221 363.144 250.073 363.072 249.953 362.96C249.753 362.768 249.537 362.636 249.305 362.564C249.073 362.492 248.805 362.456 248.501 362.456C248.149 362.456 247.849 362.516 247.601 362.636C247.361 362.756 247.241 362.932 247.241 363.164C247.241 363.308 247.277 363.44 247.349 363.56C247.429 363.672 247.581 363.776 247.805 363.872C248.029 363.96 248.357 364.048 248.789 364.136C249.389 364.256 249.861 364.408 250.205 364.592C250.557 364.776 250.809 364.992 250.961 365.24C251.113 365.48 251.189 365.76 251.189 366.08C251.189 366.448 251.089 366.78 250.889 367.076C250.697 367.372 250.409 367.608 250.025 367.784C249.649 367.96 249.177 368.048 248.609 368.048Z" fill="white"/>
</svg>
