<svg width="400" height="400" viewBox="0 0 400 400" fill="none" xmlns="http://www.w3.org/2000/svg">
<circle cx="200" cy="200" r="200" fill="#2444F5"/>
<path d="M130.402 101V87.368H125.026V84.2H139.666V87.368H134.29V101H130.402ZM141.758 101V84.2H149.03C150.534 84.2 151.83 84.448 152.918 84.944C154.006 85.424 154.846 86.12 155.438 87.032C156.03 87.944 156.326 89.032 156.326 90.296C156.326 91.544 156.03 92.624 155.438 93.536C154.846 94.432 154.006 95.12 152.918 95.6C151.83 96.08 150.534 96.32 149.03 96.32H143.918L145.646 94.616V101H141.758ZM152.438 101L148.238 94.904H152.39L156.638 101H152.438ZM145.646 95.048L143.918 93.224H148.814C150.014 93.224 150.91 92.968 151.502 92.456C152.094 91.928 152.39 91.208 152.39 90.296C152.39 89.368 152.094 88.648 151.502 88.136C150.91 87.624 150.014 87.368 148.814 87.368H143.918L145.646 85.52V95.048ZM157.198 101L164.686 84.2H168.526L176.038 101H171.958L165.814 86.168H167.35L161.182 101H157.198ZM160.942 97.4L161.974 94.448H170.614L171.67 97.4H160.942ZM185.587 101.288C184.291 101.288 183.083 101.08 181.963 100.664C180.859 100.232 179.899 99.624 179.083 98.84C178.267 98.056 177.627 97.136 177.163 96.08C176.715 95.024 176.491 93.864 176.491 92.6C176.491 91.336 176.715 90.176 177.163 89.12C177.627 88.064 178.267 87.144 179.083 86.36C179.915 85.576 180.883 84.976 181.987 84.56C183.091 84.128 184.299 83.912 185.611 83.912C187.067 83.912 188.379 84.168 189.547 84.68C190.731 85.176 191.723 85.912 192.523 86.888L190.027 89.192C189.451 88.536 188.811 88.048 188.107 87.728C187.403 87.392 186.635 87.224 185.803 87.224C185.019 87.224 184.299 87.352 183.643 87.608C182.987 87.864 182.419 88.232 181.939 88.712C181.459 89.192 181.083 89.76 180.811 90.416C180.555 91.072 180.427 91.8 180.427 92.6C180.427 93.4 180.555 94.128 180.811 94.784C181.083 95.44 181.459 96.008 181.939 96.488C182.419 96.968 182.987 97.336 183.643 97.592C184.299 97.848 185.019 97.976 185.803 97.976C186.635 97.976 187.403 97.816 188.107 97.496C188.811 97.16 189.451 96.656 190.027 95.984L192.523 98.288C191.723 99.264 190.731 100.008 189.547 100.52C188.379 101.032 187.059 101.288 185.587 101.288ZM198.628 97.16L198.412 92.672L206.452 84.2H210.772L203.524 92L201.364 94.304L198.628 97.16ZM195.148 101V84.2H199.012V101H195.148ZM206.644 101L200.668 93.68L203.212 90.92L211.18 101H206.644ZM220.345 101.288C219.049 101.288 217.841 101.08 216.721 100.664C215.617 100.232 214.657 99.624 213.84 98.84C213.025 98.056 212.385 97.136 211.921 96.08C211.473 95.024 211.249 93.864 211.249 92.6C211.249 91.336 211.473 90.176 211.921 89.12C212.385 88.064 213.025 87.144 213.84 86.36C214.673 85.576 215.641 84.976 216.745 84.56C217.849 84.128 219.057 83.912 220.369 83.912C221.825 83.912 223.137 84.168 224.305 84.68C225.489 85.176 226.481 85.912 227.281 86.888L224.785 89.192C224.209 88.536 223.569 88.048 222.865 87.728C222.161 87.392 221.393 87.224 220.561 87.224C219.777 87.224 219.057 87.352 218.401 87.608C217.745 87.864 217.177 88.232 216.697 88.712C216.217 89.192 215.841 89.76 215.569 90.416C215.313 91.072 215.185 91.8 215.185 92.6C215.185 93.4 215.313 94.128 215.569 94.784C215.841 95.44 216.217 96.008 216.697 96.488C217.177 96.968 217.745 97.336 218.401 97.592C219.057 97.848 219.777 97.976 220.561 97.976C221.393 97.976 222.161 97.816 222.865 97.496C223.569 97.16 224.209 96.656 224.785 95.984L227.281 98.288C226.481 99.264 225.489 100.008 224.305 100.52C223.137 101.032 221.817 101.288 220.345 101.288ZM237.715 101.288C236.387 101.288 235.155 101.072 234.019 100.64C232.899 100.208 231.923 99.6 231.09 98.816C230.275 98.032 229.635 97.112 229.171 96.056C228.723 95 228.499 93.848 228.499 92.6C228.499 91.352 228.723 90.2 229.171 89.144C229.635 88.088 230.283 87.168 231.115 86.384C231.947 85.6 232.923 84.992 234.043 84.56C235.163 84.128 236.379 83.912 237.691 83.912C239.019 83.912 240.234 84.128 241.339 84.56C242.459 84.992 243.427 85.6 244.243 86.384C245.075 87.168 245.723 88.088 246.187 89.144C246.651 90.184 246.883 91.336 246.883 92.6C246.883 93.848 246.651 95.008 246.187 96.08C245.723 97.136 245.075 98.056 244.243 98.84C243.427 99.608 242.459 100.208 241.339 100.64C240.234 101.072 239.026 101.288 237.715 101.288ZM237.691 97.976C238.443 97.976 239.131 97.848 239.755 97.592C240.395 97.336 240.955 96.968 241.435 96.488C241.915 96.008 242.283 95.44 242.539 94.784C242.811 94.128 242.947 93.4 242.947 92.6C242.947 91.8 242.811 91.072 242.539 90.416C242.283 89.76 241.915 89.192 241.435 88.712C240.971 88.232 240.419 87.864 239.779 87.608C239.139 87.352 238.443 87.224 237.691 87.224C236.939 87.224 236.243 87.352 235.603 87.608C234.979 87.864 234.427 88.232 233.947 88.712C233.467 89.192 233.091 89.76 232.819 90.416C232.563 91.072 232.435 91.8 232.435 92.6C232.435 93.384 232.563 94.112 232.819 94.784C233.091 95.44 233.459 96.008 233.923 96.488C234.403 96.968 234.963 97.336 235.603 97.592C236.243 97.848 236.939 97.976 237.691 97.976ZM249.805 101V84.2H253.693V101H249.805ZM257.68 101V84.2H260.896L270.808 96.296H269.247V84.2H273.088V101H269.896L259.96 88.904H261.52V101H257.68Z" fill="white"/>
<path d="M186.431 30.6201L193.188 30.63L199.944 37.3172L206.69 30.63H213.447L220.203 37.3172V44.0044L199.944 64.066L179.675 44.0044V37.3172L186.431 30.6201Z" stroke="#EA7C23" stroke-width="0.300183"/>
<path d="M192.941 30.6201L179.606 43.8167" stroke="#EA7C23" stroke-width="0.300183"/>
<path d="M192.96 37.3765L186.461 43.8069" stroke="#EA7C23" stroke-width="0.300183"/>
<path d="M199.786 37.3567L186.441 50.5731" stroke="#EA7C23" stroke-width="0.300183"/>
<path d="M213.466 30.6398L193.326 50.5829" stroke="#EA7C23" stroke-width="0.300183"/>
<path d="M213.427 37.3862L193.613 57.2997H206.869" stroke="#EA7C23" stroke-width="0.300183"/>
<path d="M220.173 37.4355L200.042 57.3688" stroke="#EA7C23" stroke-width="0.300183"/>
<path d="M179.438 44.014H220.391" stroke="#EA7C23" stroke-width="0.300183"/>
<path d="M186.293 50.7507H213.595" stroke="#EA7C23" stroke-width="0.300183"/>
<path d="M179.458 37.327H220.391" stroke="#EA7C23" stroke-width="0.300183"/>
<path d="M186.284 31.8052C186.561 31.8033 186.831 31.7194 187.06 31.5641C187.29 31.4088 187.468 31.189 187.572 30.9326C187.677 30.6761 187.703 30.3944 187.648 30.123C187.593 29.8515 187.459 29.6025 187.262 29.4073C187.066 29.2122 186.816 29.0796 186.544 29.0262C186.272 28.9729 185.99 29.0013 185.735 29.1077C185.479 29.2142 185.261 29.3939 185.107 29.6244C184.953 29.8548 184.871 30.1256 184.871 30.4026C184.871 30.5876 184.908 30.7708 184.979 30.9417C185.05 31.1125 185.154 31.2675 185.285 31.3979C185.417 31.5283 185.572 31.6314 185.744 31.7013C185.915 31.7712 186.099 31.8065 186.284 31.8052Z" fill="white"/>
<path d="M193.11 31.8053C193.387 31.8053 193.658 31.723 193.889 31.5689C194.12 31.4148 194.299 31.1957 194.406 30.9394C194.512 30.6831 194.539 30.4011 194.485 30.129C194.431 29.8569 194.298 29.607 194.101 29.4108C193.905 29.2147 193.655 29.0811 193.383 29.027C193.111 28.9728 192.829 29.0006 192.573 29.1068C192.317 29.2129 192.098 29.3927 191.943 29.6234C191.789 29.854 191.707 30.1252 191.707 30.4026C191.707 30.7746 191.855 31.1314 192.118 31.3944C192.381 31.6575 192.738 31.8053 193.11 31.8053Z" fill="white"/>
<path d="M186.284 38.6011C186.561 38.5992 186.831 38.5153 187.06 38.36C187.29 38.2047 187.468 37.9849 187.572 37.7285C187.677 37.472 187.703 37.1903 187.648 36.9189C187.593 36.6474 187.459 36.3984 187.262 36.2032C187.066 36.0081 186.816 35.8755 186.544 35.8221C186.272 35.7688 185.99 35.7972 185.735 35.9036C185.479 36.0101 185.261 36.1898 185.107 36.4203C184.953 36.6507 184.871 36.9215 184.871 37.1985C184.874 37.5714 185.024 37.9282 185.288 38.1909C185.553 38.4537 185.911 38.6011 186.284 38.6011Z" fill="white"/>
<path d="M179.458 45.3969C179.735 45.395 180.006 45.311 180.235 45.1557C180.464 45.0004 180.643 44.7807 180.747 44.5242C180.852 44.2678 180.878 43.9861 180.823 43.7146C180.768 43.4432 180.633 43.1942 180.437 42.999C180.24 42.8038 179.99 42.6712 179.719 42.6179C179.447 42.5646 179.165 42.5929 178.91 42.6994C178.654 42.8058 178.435 42.9856 178.282 43.216C178.128 43.4465 178.046 43.7173 178.046 43.9943C178.049 44.3672 178.198 44.7239 178.463 44.9867C178.728 45.2495 179.085 45.3969 179.458 45.3969Z" fill="white"/>
<path d="M186.284 45.3969C186.561 45.395 186.831 45.311 187.06 45.1557C187.29 45.0004 187.468 44.7807 187.572 44.5242C187.677 44.2678 187.703 43.9861 187.648 43.7146C187.593 43.4432 187.459 43.1942 187.262 42.999C187.066 42.8038 186.816 42.6712 186.544 42.6179C186.272 42.5646 185.99 42.5929 185.735 42.6994C185.479 42.8058 185.261 42.9856 185.107 43.216C184.953 43.4465 184.871 43.7173 184.871 43.9943C184.874 44.3672 185.024 44.7239 185.288 44.9867C185.553 45.2495 185.911 45.3969 186.284 45.3969Z" fill="white"/>
<path d="M193.109 45.3674C193.386 45.3654 193.656 45.2815 193.886 45.1262C194.115 44.9709 194.293 44.7512 194.398 44.4947C194.503 44.2382 194.529 43.9565 194.474 43.6851C194.419 43.4137 194.284 43.1647 194.088 42.9695C193.891 42.7743 193.641 42.6417 193.369 42.5884C193.098 42.535 192.816 42.5634 192.56 42.6698C192.305 42.7763 192.086 42.9561 191.932 43.1865C191.779 43.417 191.697 43.6877 191.697 43.9647C191.697 44.1498 191.733 44.333 191.804 44.5038C191.876 44.6746 191.98 44.8297 192.111 44.9601C192.242 45.0904 192.398 45.1935 192.569 45.2634C192.741 45.3334 192.924 45.3687 193.109 45.3674Z" fill="white"/>
<path d="M186.294 52.2026C186.571 52.2026 186.842 52.1203 187.073 51.9662C187.304 51.8121 187.483 51.593 187.59 51.3367C187.696 51.0804 187.724 50.7984 187.669 50.5263C187.615 50.2543 187.482 50.0043 187.286 49.8082C187.089 49.612 186.839 49.4784 186.567 49.4243C186.295 49.3702 186.013 49.3979 185.757 49.5041C185.501 49.6103 185.282 49.79 185.128 50.0207C184.973 50.2514 184.891 50.5226 184.891 50.8C184.894 51.1712 185.042 51.5264 185.305 51.7889C185.567 52.0514 185.923 52.2 186.294 52.2026Z" fill="white"/>
<path d="M193.11 52.2026C193.387 52.2026 193.658 52.1203 193.889 51.9662C194.12 51.8121 194.299 51.593 194.406 51.3367C194.512 51.0804 194.539 50.7984 194.485 50.5263C194.431 50.2543 194.298 50.0043 194.101 49.8082C193.905 49.612 193.655 49.4784 193.383 49.4243C193.111 49.3702 192.829 49.3979 192.573 49.5041C192.317 49.6103 192.098 49.79 191.943 50.0207C191.789 50.2514 191.707 50.5226 191.707 50.8C191.71 51.1712 191.858 51.5264 192.121 51.7889C192.383 52.0514 192.738 52.2 193.11 52.2026Z" fill="white"/>
<path d="M193.11 58.9789C193.387 58.9789 193.658 58.8966 193.889 58.7425C194.12 58.5883 194.299 58.3693 194.406 58.113C194.512 57.8567 194.539 57.5747 194.485 57.3026C194.431 57.0305 194.298 56.7806 194.101 56.5844C193.905 56.3882 193.655 56.2547 193.383 56.2005C193.111 56.1464 192.829 56.1742 192.573 56.2804C192.317 56.3865 192.098 56.5663 191.943 56.797C191.789 57.0276 191.707 57.2988 191.707 57.5762C191.707 57.9482 191.855 58.305 192.118 58.568C192.381 58.8311 192.738 58.9789 193.11 58.9789Z" fill="white"/>
<path d="M199.945 58.9788C200.222 58.9769 200.492 58.8929 200.721 58.7376C200.951 58.5823 201.129 58.3626 201.234 58.1061C201.338 57.8497 201.365 57.568 201.309 57.2965C201.254 57.0251 201.12 56.7761 200.923 56.5809C200.727 56.3858 200.477 56.2531 200.205 56.1998C199.933 56.1465 199.652 56.1748 199.396 56.2813C199.14 56.3877 198.922 56.5675 198.768 56.798C198.614 57.0284 198.532 57.2992 198.532 57.5762C198.532 57.7612 198.569 57.9444 198.64 58.1152C198.711 58.2861 198.815 58.4411 198.947 58.5715C199.078 58.7019 199.234 58.805 199.405 58.8749C199.576 58.9448 199.76 58.9801 199.945 58.9788Z" fill="white"/>
<path d="M199.945 65.7748C200.222 65.7729 200.492 65.689 200.721 65.5337C200.951 65.3784 201.129 65.1586 201.234 64.9022C201.338 64.6457 201.365 64.364 201.309 64.0926C201.254 63.8211 201.12 63.5721 200.923 63.377C200.727 63.1818 200.477 63.0492 200.205 62.9958C199.933 62.9425 199.652 62.9709 199.396 63.0773C199.14 63.1838 198.922 63.3635 198.768 63.594C198.614 63.8244 198.532 64.0952 198.532 64.3722C198.532 64.5572 198.569 64.7404 198.64 64.9113C198.711 65.0821 198.815 65.2371 198.947 65.3675C199.078 65.4979 199.234 65.601 199.405 65.6709C199.576 65.7408 199.76 65.7761 199.945 65.7748Z" fill="white"/>
<path d="M206.77 58.9788C207.046 58.9729 207.314 58.8858 207.541 58.7281C207.767 58.5705 207.943 58.3495 208.044 58.0927C208.146 57.8359 208.169 57.5549 208.112 57.2848C208.055 57.0147 207.919 56.7675 207.721 56.5743C207.524 56.3811 207.274 56.2505 207.003 56.1987C206.732 56.1469 206.451 56.1764 206.197 56.2834C205.942 56.3903 205.725 56.5701 205.572 56.8001C205.419 57.03 205.338 57.3 205.337 57.5761C205.336 57.7616 205.372 57.9454 205.442 58.1168C205.513 58.2882 205.617 58.4438 205.749 58.5744C205.88 58.7051 206.037 58.8081 206.209 58.8776C206.381 58.947 206.565 58.9814 206.75 58.9788" fill="white"/>
<path d="M199.945 52.2026C200.222 52.2006 200.492 52.1167 200.721 51.9614C200.951 51.8061 201.129 51.5864 201.234 51.3299C201.338 51.0734 201.365 50.7917 201.309 50.5203C201.254 50.2489 201.12 49.9999 200.923 49.8047C200.727 49.6095 200.477 49.4769 200.205 49.4236C199.933 49.3703 199.652 49.3986 199.396 49.505C199.14 49.6115 198.922 49.7913 198.768 50.0217C198.614 50.2522 198.532 50.5229 198.532 50.7999C198.535 51.1728 198.685 51.5296 198.949 51.7924C199.214 52.0551 199.572 52.2026 199.945 52.2026Z" fill="white"/>
<path d="M206.77 52.1928C207.046 52.1869 207.314 52.0997 207.541 51.9421C207.767 51.7845 207.943 51.5634 208.044 51.3067C208.146 51.0499 208.169 50.7689 208.112 50.4988C208.055 50.2287 207.919 49.9815 207.721 49.7883C207.524 49.5951 207.274 49.4644 207.003 49.4127C206.732 49.3609 206.451 49.3904 206.197 49.4974C205.942 49.6043 205.725 49.7841 205.572 50.014C205.419 50.244 205.337 50.514 205.337 50.7901C205.337 50.9752 205.374 51.1584 205.445 51.3292C205.516 51.5 205.62 51.6551 205.752 51.7855C205.883 51.9158 206.039 52.0189 206.21 52.0889C206.381 52.1588 206.565 52.1941 206.75 52.1928" fill="white"/>
<path d="M213.595 52.1928C213.967 52.1928 214.324 52.0451 214.587 51.782C214.85 51.519 214.998 51.1622 214.998 50.7902C214.998 50.4182 214.85 50.0614 214.587 49.7984C214.324 49.5354 213.967 49.3876 213.595 49.3876C213.223 49.3876 212.866 49.5354 212.603 49.7984C212.34 50.0614 212.192 50.4182 212.192 50.7902C212.192 51.1622 212.34 51.519 212.603 51.782C212.866 52.0451 213.223 52.1928 213.595 52.1928Z" fill="white"/>
<path d="M213.526 45.4167C213.804 45.4167 214.075 45.3342 214.306 45.1796C214.537 45.0251 214.717 44.8054 214.822 44.5485C214.928 44.2917 214.956 44.0091 214.901 43.7368C214.846 43.4644 214.711 43.2145 214.514 43.0188C214.317 42.823 214.066 42.6902 213.793 42.6372C213.521 42.5842 213.238 42.6134 212.982 42.7211C212.726 42.8288 212.508 43.0101 212.355 43.242C212.202 43.474 212.121 43.7461 212.123 44.024C212.126 44.3942 212.275 44.7485 212.537 45.0094C212.8 45.2703 213.155 45.4167 213.526 45.4167Z" fill="white"/>
<path d="M206.77 45.397C207.046 45.3912 207.314 45.304 207.541 45.1463C207.767 44.9887 207.943 44.7677 208.044 44.5109C208.146 44.2542 208.169 43.9731 208.112 43.703C208.055 43.4329 207.919 43.1858 207.721 42.9926C207.524 42.7993 207.274 42.6687 207.003 42.6169C206.732 42.5651 206.451 42.5946 206.197 42.7016C205.942 42.8086 205.725 42.9883 205.572 43.2183C205.419 43.4482 205.337 43.7182 205.337 43.9944C205.337 44.1794 205.374 44.3626 205.445 44.5334C205.516 44.7042 205.62 44.8593 205.752 44.9897C205.883 45.1201 206.039 45.2232 206.21 45.2931C206.381 45.363 206.565 45.3983 206.75 45.397" fill="white"/>
<path d="M199.945 45.3969C200.222 45.395 200.492 45.311 200.721 45.1557C200.951 45.0004 201.129 44.7807 201.234 44.5242C201.338 44.2678 201.365 43.9861 201.309 43.7146C201.254 43.4432 201.12 43.1942 200.923 42.999C200.727 42.8038 200.477 42.6712 200.205 42.6179C199.933 42.5646 199.652 42.5929 199.396 42.6994C199.14 42.8058 198.922 42.9856 198.768 43.216C198.614 43.4465 198.532 43.7173 198.532 43.9943C198.535 44.3672 198.685 44.7239 198.949 44.9867C199.214 45.2495 199.572 45.3969 199.945 45.3969Z" fill="white"/>
<path d="M199.945 38.6011C200.222 38.5992 200.492 38.5153 200.721 38.36C200.951 38.2047 201.129 37.9849 201.234 37.7285C201.338 37.472 201.365 37.1903 201.309 36.9189C201.254 36.6474 201.12 36.3984 200.923 36.2032C200.727 36.0081 200.477 35.8755 200.205 35.8221C199.933 35.7688 199.652 35.7972 199.396 35.9036C199.14 36.0101 198.922 36.1898 198.768 36.4203C198.614 36.6507 198.532 36.9215 198.532 37.1985C198.535 37.5714 198.685 37.9282 198.949 38.1909C199.214 38.4537 199.572 38.6011 199.945 38.6011Z" fill="white"/>
<path d="M206.769 31.8053C207.141 31.8053 207.498 31.6575 207.761 31.3944C208.024 31.1314 208.172 30.7746 208.172 30.4026C208.172 30.0306 208.024 29.6739 207.761 29.4108C207.498 29.1478 207.141 29 206.769 29C206.397 29 206.041 29.1478 205.778 29.4108C205.514 29.6739 205.367 30.0306 205.367 30.4026C205.367 30.7746 205.514 31.1314 205.778 31.3944C206.041 31.6575 206.397 31.8053 206.769 31.8053Z" fill="white"/>
<path d="M213.596 31.8052C213.873 31.8033 214.143 31.7194 214.372 31.5641C214.602 31.4088 214.78 31.189 214.884 30.9326C214.989 30.6761 215.015 30.3944 214.96 30.123C214.905 29.8515 214.771 29.6025 214.574 29.4073C214.378 29.2122 214.128 29.0796 213.856 29.0262C213.584 28.9729 213.302 29.0013 213.047 29.1077C212.791 29.2142 212.573 29.3939 212.419 29.6244C212.265 29.8548 212.183 30.1256 212.183 30.4026C212.186 30.7755 212.336 31.1323 212.6 31.395C212.865 31.6578 213.223 31.8052 213.596 31.8052Z" fill="white"/>
<path d="M206.77 38.6011C207.046 38.5953 207.314 38.5081 207.541 38.3504C207.767 38.1928 207.943 37.9718 208.044 37.715C208.146 37.4583 208.169 37.1772 208.112 36.9071C208.055 36.637 207.919 36.3899 207.721 36.1967C207.524 36.0034 207.274 35.8728 207.003 35.821C206.732 35.7692 206.451 35.7987 206.197 35.9057C205.942 36.0127 205.725 36.1924 205.572 36.4224C205.419 36.6523 205.337 36.9223 205.337 37.1985C205.337 37.3835 205.374 37.5667 205.445 37.7375C205.516 37.9083 205.62 38.0634 205.752 38.1938C205.883 38.3242 206.039 38.4273 206.21 38.4972C206.381 38.5671 206.565 38.6024 206.75 38.6011" fill="white"/>
<path d="M213.595 38.6012C213.872 38.6012 214.144 38.5189 214.374 38.3648C214.605 38.2107 214.785 37.9916 214.891 37.7353C214.997 37.479 215.025 37.197 214.971 36.9249C214.917 36.6528 214.783 36.4029 214.587 36.2067C214.391 36.0106 214.141 35.877 213.869 35.8229C213.597 35.7687 213.315 35.7965 213.058 35.9027C212.802 36.0088 212.583 36.1886 212.429 36.4193C212.275 36.6499 212.192 36.9211 212.192 37.1985C212.195 37.5697 212.344 37.925 212.606 38.1875C212.869 38.45 213.224 38.5986 213.595 38.6012Z" fill="white"/>
<path d="M220.421 45.3969C220.699 45.3969 220.97 45.3147 221.2 45.1606C221.431 45.0064 221.611 44.7874 221.717 44.5311C221.823 44.2748 221.851 43.9928 221.797 43.7207C221.743 43.4486 221.609 43.1987 221.413 43.0025C221.217 42.8063 220.967 42.6727 220.695 42.6186C220.423 42.5645 220.141 42.5923 219.884 42.6984C219.628 42.8046 219.409 42.9844 219.255 43.215C219.101 43.4457 219.019 43.7169 219.019 43.9943C219.021 44.3655 219.17 44.7208 219.432 44.9833C219.695 45.2457 220.05 45.3944 220.421 45.3969Z" fill="white"/>
<path d="M193.11 38.6012C193.387 38.6012 193.658 38.5189 193.889 38.3648C194.12 38.2107 194.299 37.9916 194.406 37.7353C194.512 37.479 194.539 37.197 194.485 36.9249C194.431 36.6528 194.298 36.4029 194.101 36.2067C193.905 36.0106 193.655 35.877 193.383 35.8229C193.111 35.7687 192.829 35.7965 192.573 35.9027C192.317 36.0088 192.098 36.1886 191.943 36.4193C191.789 36.6499 191.707 36.9211 191.707 37.1985C191.71 37.5697 191.858 37.925 192.121 38.1875C192.383 38.45 192.738 38.5986 193.11 38.6012Z" fill="white"/>
<path d="M179.458 38.6011C179.735 38.5992 180.006 38.5153 180.235 38.36C180.464 38.2047 180.643 37.9849 180.747 37.7285C180.852 37.472 180.878 37.1903 180.823 36.9189C180.768 36.6474 180.633 36.3984 180.437 36.2032C180.24 36.0081 179.99 35.8755 179.719 35.8221C179.447 35.7688 179.165 35.7972 178.91 35.9036C178.654 36.0101 178.435 36.1898 178.282 36.4203C178.128 36.6507 178.046 36.9215 178.046 37.1985C178.049 37.5714 178.198 37.9282 178.463 38.1909C178.728 38.4537 179.085 38.6011 179.458 38.6011Z" fill="white"/>
<path d="M220.421 38.6012C220.699 38.6012 220.97 38.5189 221.2 38.3648C221.431 38.2107 221.611 37.9916 221.717 37.7353C221.823 37.479 221.851 37.197 221.797 36.9249C221.743 36.6528 221.609 36.4029 221.413 36.2067C221.217 36.0106 220.967 35.877 220.695 35.8229C220.423 35.7687 220.141 35.7965 219.884 35.9027C219.628 36.0088 219.409 36.1886 219.255 36.4193C219.101 36.6499 219.019 36.9211 219.019 37.1985C219.021 37.5697 219.17 37.925 219.432 38.1875C219.695 38.45 220.05 38.5986 220.421 38.6012Z" fill="white"/>
<path d="M180.476 62.0607C181.776 61.9353 183.064 61.7074 184.328 61.3792C185.532 60.7927 186.892 60.6059 188.21 60.8458C189.543 61.2606 190.689 63.7597 190.689 63.7597L186.837 64.6783L181.77 63.6906L180.476 62.0607Z" fill="#C86522"/>
<path d="M151.01 50.1384H174.45C175.083 50.1327 175.695 50.3695 176.159 50.8002C176.959 51.5213 183.883 58.6135 183.883 58.6135C183.539 59.0158 183.107 59.3343 182.621 59.5448C182.135 59.7553 181.607 59.8523 181.078 59.8284C179.867 59.6283 178.768 58.9968 177.986 58.0504L175.784 55.9663C175.784 55.9663 175.369 55.6502 175.082 55.9663C174.796 56.2823 175.181 56.6379 175.181 56.6379L180.426 61.8139C181.872 62.9496 183.563 63.731 185.365 64.0956C188.704 64.8957 191.094 65.4291 191.094 65.4291C191.094 65.4291 193.267 65.8835 193.761 67.4738C194.049 68.4105 193.979 69.4209 193.563 70.3087L183.182 67.7602C181.53 67.413 179.91 66.9239 178.342 66.2983C175.704 65.3106 172.415 64.0561 171.694 63.7696C170.973 63.4832 167.802 62.1793 166.815 61.0434C166.396 60.5231 165.926 60.0465 165.412 59.621C165.412 59.621 165.323 59.4037 163.911 59.5222C162.498 59.6408 157.52 60.0161 157.52 60.0161C155.544 58.5345 153.868 56.6908 152.581 54.5834C150.773 51.4028 151.01 50.1384 151.01 50.1384Z" fill="#EA7C23"/>
<path d="M157.549 59.9765C156.957 59.5668 156.393 59.118 155.86 58.6331C155.169 57.9713 154.31 56.9736 154.31 56.9736C154.31 56.9736 165.58 56.9736 166.163 57.3786C166.746 57.7836 167.388 59.6999 169.748 61.0828C172.109 62.4656 181.473 66.0216 182.589 66.4365C183.706 66.8513 189.049 68.2342 189.415 68.3034C189.78 68.3725 193.959 69.2911 193.959 69.2911C193.959 69.2911 193.86 70.1209 193.613 70.2789C193.366 70.4369 189.069 69.1528 189.069 69.1528C189.069 69.1528 187.617 68.7676 185.75 68.3527L183.982 67.9576C182.935 67.7008 182.007 67.5527 181.088 67.2267C177.898 66.0908 174.658 64.8956 172.198 63.9078C170.912 63.4077 169.661 62.8202 168.454 62.1496C167.98 61.8137 167.239 61.3396 167.141 61.2408C166.825 60.8951 166.262 60.253 166.262 60.253C165.987 60.0082 165.7 59.7774 165.402 59.5616C165.103 59.4963 164.793 59.4963 164.493 59.5616L157.549 59.9765Z" fill="#C86522"/>
<path d="M175.023 56.4205C175.023 56.4205 173.66 55.0969 173.66 54.3264C173.66 53.1114 174.411 53.7732 174.865 54.1782C175.32 54.5832 175.586 55.0178 176.9 56.1538C178.214 57.2897 180.456 58.9986 181.582 58.8701C182.248 58.7913 182.875 58.5123 183.38 58.07L183.854 58.5541C183.54 58.9241 183.152 59.2243 182.714 59.4352C182.277 59.6462 181.801 59.7633 181.315 59.7789C180.661 59.7838 180.019 59.5984 179.468 59.2455C178.613 58.6667 177.83 57.9869 177.137 57.2206C177.137 57.2206 175.567 55.5907 175.162 55.8081C175.108 55.8287 175.059 55.8616 175.02 55.9041C174.981 55.9466 174.952 55.9975 174.936 56.0529C174.92 56.1084 174.916 56.1668 174.926 56.2237C174.936 56.2806 174.959 56.3344 174.994 56.381" fill="#C86522"/>
<path d="M218.564 62.7225C217.263 62.6022 215.975 62.3742 214.712 62.041C213.506 61.4591 212.148 61.2725 210.83 61.5076C209.496 61.9224 208.351 64.4709 208.351 64.4709L212.203 65.3994L217.27 64.4116L218.564 62.7225Z" fill="#C86522"/>
<path d="M248.02 50.8099H224.59C223.957 50.7974 223.344 51.0312 222.881 51.4619C222.081 52.1928 215.157 59.2751 215.157 59.2751C215.5 59.6791 215.931 59.9988 216.418 60.2095C216.904 60.4202 217.432 60.5162 217.962 60.4901C219.171 60.2917 220.269 59.6639 221.054 58.722L223.256 56.6575C223.256 56.6575 223.671 56.3414 223.958 56.6575C224.244 56.9736 223.859 57.3391 223.859 57.3391L218.614 62.5051C217.168 63.6408 215.477 64.4223 213.675 64.7869C210.336 65.587 207.946 66.1204 207.946 66.1204C207.946 66.1204 205.773 66.5846 205.279 68.1749C204.988 69.108 205.058 70.1165 205.476 71L215.868 68.4811C217.519 68.1281 219.138 67.6391 220.708 67.0192C223.345 65.9722 226.634 64.777 227.356 64.4807C228.077 64.1843 231.237 62.9002 232.215 61.7544C232.639 61.2232 233.115 60.7367 233.638 60.3024C233.638 60.3024 233.727 60.0851 235.139 60.2036C236.552 60.3222 241.53 60.6876 241.53 60.6876C243.506 59.206 245.182 57.3624 246.469 55.2549C248.237 52.1138 247.99 50.8593 247.99 50.8593" fill="#EA7C23"/>
<path d="M241.489 60.6086C242.084 60.2056 242.648 59.7599 243.178 59.2751C243.86 58.633 244.729 57.6453 244.729 57.6453C244.729 57.6453 233.459 57.6453 232.876 58.0502C232.293 58.4552 231.651 60.3616 229.29 61.7445C226.93 63.1274 217.565 66.6834 216.449 67.0982C215.333 67.5131 209.989 68.896 209.624 68.9651L205.08 69.9529C205.08 69.9529 205.179 70.7826 205.426 70.9407C205.673 71.0987 209.97 69.8146 209.97 69.8146C209.97 69.8146 211.422 69.4392 213.288 69.0145L215.057 68.6194C216.034 68.4272 217 68.1832 217.951 67.8884C221.141 66.7525 224.381 65.5672 226.841 64.5695C228.127 64.0694 229.378 63.482 230.584 62.8113C231.058 62.4853 231.799 62.0112 231.898 61.9124C232.214 61.5667 232.777 60.8654 232.777 60.8654C232.777 60.8654 233.419 60.3122 233.637 60.174C233.933 60.0974 234.242 60.0806 234.545 60.1246L241.489 60.6086Z" fill="#C86522"/>
<path d="M224.017 57.0823C224.017 57.0823 225.38 55.7685 225.38 54.9981C225.38 53.7732 224.629 54.4351 224.175 54.8499C223.72 55.2648 223.454 55.6895 222.14 56.8255C220.826 57.9614 218.584 59.6801 217.458 59.5418C216.79 59.468 216.162 59.1884 215.66 58.7417L215.186 59.2257C215.5 59.5958 215.888 59.896 216.326 60.1069C216.763 60.3179 217.239 60.4349 217.725 60.4506C218.379 60.4554 219.021 60.2701 219.572 59.9172C220.427 59.3564 221.21 58.693 221.903 57.9416C221.903 57.9416 223.473 56.3118 223.878 56.5291C223.932 56.5498 223.981 56.5827 224.02 56.6252C224.059 56.6676 224.088 56.7186 224.104 56.774C224.12 56.8295 224.124 56.8879 224.114 56.9448C224.104 57.0017 224.081 57.0555 224.046 57.102" fill="#C86522"/>
<path d="M108.82 354.12C108.172 354.12 107.564 354 106.996 353.76C106.436 353.512 105.944 353.172 105.52 352.74C105.104 352.3 104.776 351.788 104.536 351.204C104.304 350.62 104.188 349.988 104.188 349.308C104.188 348.636 104.304 348.012 104.536 347.436C104.776 346.852 105.104 346.344 105.52 345.912C105.944 345.472 106.436 345.128 106.996 344.88C107.556 344.632 108.164 344.508 108.82 344.508C109.436 344.508 109.964 344.588 110.404 344.748C110.852 344.908 111.3 345.172 111.748 345.54C111.812 345.588 111.86 345.64 111.892 345.696C111.932 345.744 111.956 345.796 111.964 345.852C111.98 345.9 111.988 345.96 111.988 346.032C111.988 346.184 111.932 346.312 111.82 346.416C111.716 346.512 111.588 346.568 111.436 346.584C111.284 346.592 111.136 346.54 110.992 346.428C110.696 346.172 110.388 345.976 110.068 345.84C109.756 345.704 109.34 345.636 108.82 345.636C108.348 345.636 107.904 345.732 107.488 345.924C107.072 346.116 106.704 346.38 106.384 346.716C106.072 347.052 105.828 347.444 105.652 347.892C105.476 348.332 105.388 348.804 105.388 349.308C105.388 349.82 105.476 350.3 105.652 350.748C105.828 351.188 106.072 351.576 106.384 351.912C106.704 352.248 107.072 352.512 107.488 352.704C107.904 352.888 108.348 352.98 108.82 352.98C109.228 352.98 109.612 352.912 109.972 352.776C110.34 352.632 110.692 352.436 111.028 352.188C111.172 352.084 111.312 352.04 111.448 352.056C111.592 352.064 111.712 352.12 111.808 352.224C111.904 352.32 111.952 352.456 111.952 352.632C111.952 352.712 111.936 352.792 111.904 352.872C111.872 352.944 111.824 353.012 111.76 353.076C111.328 353.42 110.864 353.68 110.368 353.856C109.88 354.032 109.364 354.12 108.82 354.12ZM114.416 349.896C114.416 349.416 114.532 348.988 114.764 348.612C115.004 348.228 115.324 347.924 115.724 347.7C116.124 347.476 116.564 347.364 117.044 347.364C117.524 347.364 117.88 347.444 118.112 347.604C118.352 347.756 118.444 347.94 118.388 348.156C118.364 348.268 118.316 348.356 118.244 348.42C118.18 348.476 118.104 348.512 118.016 348.528C117.928 348.544 117.832 348.54 117.728 348.516C117.216 348.412 116.756 348.404 116.348 348.492C115.94 348.58 115.616 348.744 115.376 348.984C115.144 349.224 115.028 349.528 115.028 349.896H114.416ZM114.428 354C114.236 354 114.088 353.952 113.984 353.856C113.88 353.752 113.828 353.6 113.828 353.4V348.036C113.828 347.844 113.88 347.696 113.984 347.592C114.088 347.488 114.236 347.436 114.428 347.436C114.628 347.436 114.776 347.488 114.872 347.592C114.976 347.688 115.028 347.836 115.028 348.036V353.4C115.028 353.592 114.976 353.74 114.872 353.844C114.776 353.948 114.628 354 114.428 354ZM122.16 354.048C121.512 354.048 120.94 353.908 120.444 353.628C119.948 353.34 119.556 352.948 119.268 352.452C118.988 351.948 118.848 351.372 118.848 350.724C118.848 350.068 118.988 349.492 119.268 348.996C119.556 348.492 119.948 348.1 120.444 347.82C120.94 347.532 121.512 347.388 122.16 347.388C122.8 347.388 123.368 347.532 123.864 347.82C124.36 348.1 124.748 348.492 125.028 348.996C125.316 349.492 125.46 350.068 125.46 350.724C125.46 351.372 125.32 351.948 125.04 352.452C124.76 352.948 124.372 353.34 123.876 353.628C123.38 353.908 122.808 354.048 122.16 354.048ZM122.16 352.968C122.576 352.968 122.944 352.872 123.264 352.68C123.584 352.488 123.832 352.224 124.008 351.888C124.192 351.552 124.284 351.164 124.284 350.724C124.284 350.284 124.192 349.896 124.008 349.56C123.832 349.216 123.584 348.948 123.264 348.756C122.944 348.564 122.576 348.468 122.16 348.468C121.744 348.468 121.376 348.564 121.056 348.756C120.736 348.948 120.484 349.216 120.3 349.56C120.116 349.896 120.024 350.284 120.024 350.724C120.024 351.164 120.116 351.552 120.3 351.888C120.484 352.224 120.736 352.488 121.056 352.68C121.376 352.872 121.744 352.968 122.16 352.968ZM128.43 354C128.302 354 128.182 353.964 128.07 353.892C127.966 353.812 127.894 353.716 127.854 353.604L126.078 348.276C126.014 348.028 126.014 347.828 126.078 347.676C126.15 347.516 126.302 347.436 126.534 347.436C126.686 347.436 126.81 347.48 126.906 347.568C127.01 347.648 127.094 347.788 127.158 347.988L128.67 352.716H128.25L129.678 347.892C129.718 347.756 129.786 347.648 129.882 347.568C129.978 347.48 130.11 347.436 130.278 347.436C130.438 347.436 130.566 347.48 130.662 347.568C130.766 347.648 130.834 347.756 130.866 347.892L132.03 352.428H131.85L133.266 347.988C133.378 347.62 133.586 347.436 133.89 347.436C134.114 347.436 134.266 347.516 134.346 347.676C134.426 347.828 134.422 348.028 134.334 348.276L132.558 353.604C132.526 353.716 132.458 353.812 132.354 353.892C132.25 353.964 132.13 354 131.994 354C131.866 354 131.746 353.964 131.634 353.892C131.522 353.812 131.45 353.716 131.418 353.604L130.182 349.032H130.302L129.006 353.604C128.974 353.716 128.902 353.812 128.79 353.892C128.686 353.964 128.566 354 128.43 354ZM138.39 354.048C137.766 354.048 137.202 353.904 136.698 353.616C136.202 353.32 135.806 352.92 135.51 352.416C135.222 351.912 135.078 351.344 135.078 350.712C135.078 350.08 135.21 349.516 135.474 349.02C135.746 348.516 136.114 348.12 136.578 347.832C137.042 347.536 137.566 347.388 138.15 347.388C138.622 347.388 139.058 347.488 139.458 347.688C139.858 347.88 140.194 348.144 140.466 348.48V345.24C140.466 345.056 140.522 344.908 140.634 344.796C140.754 344.684 140.902 344.628 141.078 344.628C141.262 344.628 141.41 344.684 141.522 344.796C141.634 344.908 141.69 345.056 141.69 345.24V350.712C141.69 351.344 141.542 351.912 141.246 352.416C140.958 352.92 140.566 353.32 140.07 353.616C139.574 353.904 139.014 354.048 138.39 354.048ZM138.39 352.968C138.798 352.968 139.162 352.872 139.482 352.68C139.802 352.48 140.054 352.208 140.238 351.864C140.422 351.52 140.514 351.136 140.514 350.712C140.514 350.28 140.422 349.896 140.238 349.56C140.054 349.224 139.802 348.96 139.482 348.768C139.162 348.568 138.798 348.468 138.39 348.468C137.99 348.468 137.626 348.568 137.298 348.768C136.978 348.96 136.722 349.224 136.53 349.56C136.346 349.896 136.254 350.28 136.254 350.712C136.254 351.136 136.346 351.52 136.53 351.864C136.722 352.208 136.978 352.48 137.298 352.68C137.626 352.872 137.99 352.968 138.39 352.968ZM144.559 354C144.407 354 144.271 353.944 144.151 353.832C144.031 353.72 143.971 353.572 143.971 353.388V347.472C143.971 346.896 144.083 346.396 144.307 345.972C144.539 345.548 144.859 345.22 145.267 344.988C145.675 344.748 146.147 344.628 146.683 344.628C146.859 344.628 147.003 344.68 147.115 344.784C147.235 344.888 147.295 345.02 147.295 345.18C147.295 345.332 147.235 345.464 147.115 345.576C147.003 345.68 146.859 345.732 146.683 345.732C146.387 345.732 146.127 345.8 145.903 345.936C145.679 346.072 145.503 346.26 145.375 346.5C145.255 346.74 145.195 347.024 145.195 347.352V353.388C145.195 353.572 145.139 353.72 145.027 353.832C144.915 353.944 144.759 354 144.559 354ZM143.455 348.708C143.287 348.708 143.151 348.66 143.047 348.564C142.943 348.468 142.891 348.348 142.891 348.204C142.891 348.044 142.943 347.916 143.047 347.82C143.151 347.724 143.287 347.676 143.455 347.676H146.419C146.587 347.676 146.723 347.724 146.827 347.82C146.931 347.916 146.983 348.044 146.983 348.204C146.983 348.348 146.931 348.468 146.827 348.564C146.723 348.66 146.587 348.708 146.419 348.708H143.455ZM151.018 354.06C150.466 354.06 149.97 353.944 149.53 353.712C149.098 353.472 148.754 353.124 148.498 352.668C148.25 352.212 148.126 351.652 148.126 350.988V348.036C148.126 347.86 148.182 347.716 148.294 347.604C148.414 347.484 148.562 347.424 148.738 347.424C148.914 347.424 149.058 347.484 149.17 347.604C149.29 347.716 149.35 347.86 149.35 348.036V350.988C149.35 351.436 149.434 351.808 149.602 352.104C149.77 352.392 149.998 352.608 150.286 352.752C150.574 352.888 150.898 352.956 151.258 352.956C151.602 352.956 151.906 352.888 152.17 352.752C152.442 352.616 152.658 352.432 152.818 352.2C152.978 351.968 153.058 351.708 153.058 351.42H153.814C153.814 351.916 153.69 352.364 153.442 352.764C153.202 353.164 152.87 353.48 152.446 353.712C152.03 353.944 151.554 354.06 151.018 354.06ZM153.67 354C153.494 354 153.346 353.944 153.226 353.832C153.114 353.712 153.058 353.564 153.058 353.388V348.036C153.058 347.852 153.114 347.704 153.226 347.592C153.346 347.48 153.494 347.424 153.67 347.424C153.854 347.424 154.002 347.48 154.114 347.592C154.226 347.704 154.282 347.852 154.282 348.036V353.388C154.282 353.564 154.226 353.712 154.114 353.832C154.002 353.944 153.854 354 153.67 354ZM159.413 354.048C158.789 354.048 158.225 353.904 157.721 353.616C157.225 353.32 156.829 352.92 156.533 352.416C156.245 351.912 156.101 351.344 156.101 350.712C156.101 350.08 156.233 349.516 156.497 349.02C156.769 348.516 157.137 348.12 157.601 347.832C158.065 347.536 158.589 347.388 159.173 347.388C159.645 347.388 160.081 347.488 160.481 347.688C160.881 347.88 161.217 348.144 161.489 348.48V345.24C161.489 345.056 161.545 344.908 161.657 344.796C161.777 344.684 161.925 344.628 162.101 344.628C162.285 344.628 162.433 344.684 162.545 344.796C162.657 344.908 162.713 345.056 162.713 345.24V350.712C162.713 351.344 162.565 351.912 162.269 352.416C161.981 352.92 161.589 353.32 161.093 353.616C160.597 353.904 160.037 354.048 159.413 354.048ZM159.413 352.968C159.821 352.968 160.185 352.872 160.505 352.68C160.825 352.48 161.077 352.208 161.261 351.864C161.445 351.52 161.537 351.136 161.537 350.712C161.537 350.28 161.445 349.896 161.261 349.56C161.077 349.224 160.825 348.96 160.505 348.768C160.185 348.568 159.821 348.468 159.413 348.468C159.013 348.468 158.649 348.568 158.321 348.768C158.001 348.96 157.745 349.224 157.553 349.56C157.369 349.896 157.277 350.28 157.277 350.712C157.277 351.136 157.369 351.52 157.553 351.864C157.745 352.208 158.001 352.48 158.321 352.68C158.649 352.872 159.013 352.968 159.413 352.968ZM170.419 354.012C170.243 354.012 170.095 353.956 169.975 353.844C169.863 353.724 169.807 353.576 169.807 353.4V350.448C169.807 349.992 169.723 349.62 169.555 349.332C169.387 349.044 169.159 348.832 168.871 348.696C168.591 348.552 168.267 348.48 167.899 348.48C167.563 348.48 167.259 348.548 166.987 348.684C166.715 348.82 166.499 349.004 166.339 349.236C166.179 349.46 166.099 349.72 166.099 350.016H165.343C165.343 349.512 165.463 349.064 165.703 348.672C165.951 348.272 166.287 347.956 166.711 347.724C167.135 347.492 167.611 347.376 168.139 347.376C168.691 347.376 169.183 347.496 169.615 347.736C170.055 347.968 170.399 348.312 170.647 348.768C170.903 349.224 171.031 349.784 171.031 350.448V353.4C171.031 353.576 170.971 353.724 170.851 353.844C170.739 353.956 170.595 354.012 170.419 354.012ZM165.487 354.012C165.311 354.012 165.163 353.956 165.043 353.844C164.931 353.724 164.875 353.576 164.875 353.4V348.048C164.875 347.864 164.931 347.716 165.043 347.604C165.163 347.492 165.311 347.436 165.487 347.436C165.671 347.436 165.819 347.492 165.931 347.604C166.043 347.716 166.099 347.864 166.099 348.048V353.4C166.099 353.576 166.043 353.724 165.931 353.844C165.819 353.956 165.671 354.012 165.487 354.012ZM173.787 354C173.611 354 173.463 353.944 173.343 353.832C173.231 353.712 173.175 353.564 173.175 353.388V348.048C173.175 347.864 173.231 347.716 173.343 347.604C173.463 347.492 173.611 347.436 173.787 347.436C173.971 347.436 174.119 347.492 174.231 347.604C174.343 347.716 174.399 347.864 174.399 348.048V353.388C174.399 353.564 174.343 353.712 174.231 353.832C174.119 353.944 173.971 354 173.787 354ZM173.787 346.368C173.571 346.368 173.383 346.292 173.223 346.14C173.071 345.98 172.995 345.792 172.995 345.576C172.995 345.36 173.071 345.176 173.223 345.024C173.383 344.864 173.571 344.784 173.787 344.784C174.003 344.784 174.187 344.864 174.339 345.024C174.499 345.176 174.579 345.36 174.579 345.576C174.579 345.792 174.499 345.98 174.339 346.14C174.187 346.292 174.003 346.368 173.787 346.368ZM182.22 354.012C182.044 354.012 181.896 353.956 181.776 353.844C181.664 353.724 181.608 353.576 181.608 353.4V350.448C181.608 349.992 181.524 349.62 181.356 349.332C181.188 349.044 180.96 348.832 180.672 348.696C180.392 348.552 180.068 348.48 179.7 348.48C179.364 348.48 179.06 348.548 178.788 348.684C178.516 348.82 178.3 349.004 178.14 349.236C177.98 349.46 177.9 349.72 177.9 350.016H177.144C177.144 349.512 177.264 349.064 177.504 348.672C177.752 348.272 178.088 347.956 178.512 347.724C178.936 347.492 179.412 347.376 179.94 347.376C180.492 347.376 180.984 347.496 181.416 347.736C181.856 347.968 182.2 348.312 182.448 348.768C182.704 349.224 182.832 349.784 182.832 350.448V353.4C182.832 353.576 182.772 353.724 182.652 353.844C182.54 353.956 182.396 354.012 182.22 354.012ZM177.288 354.012C177.112 354.012 176.964 353.956 176.844 353.844C176.732 353.724 176.676 353.576 176.676 353.4V348.048C176.676 347.864 176.732 347.716 176.844 347.604C176.964 347.492 177.112 347.436 177.288 347.436C177.472 347.436 177.62 347.492 177.732 347.604C177.844 347.716 177.9 347.864 177.9 348.048V353.4C177.9 353.576 177.844 353.724 177.732 353.844C177.62 353.956 177.472 354.012 177.288 354.012ZM187.591 354.048C186.991 354.048 186.459 353.908 185.995 353.628C185.539 353.34 185.179 352.948 184.915 352.452C184.651 351.948 184.519 351.372 184.519 350.724C184.519 350.068 184.659 349.492 184.939 348.996C185.227 348.492 185.619 348.1 186.115 347.82C186.611 347.532 187.183 347.388 187.831 347.388C188.471 347.388 189.039 347.532 189.535 347.82C190.031 348.1 190.419 348.492 190.699 348.996C190.987 349.492 191.131 350.068 191.131 350.724H190.423C190.423 351.372 190.299 351.948 190.051 352.452C189.811 352.948 189.479 353.34 189.055 353.628C188.631 353.908 188.143 354.048 187.591 354.048ZM187.807 356.724C187.239 356.724 186.707 356.612 186.211 356.388C185.715 356.164 185.295 355.836 184.951 355.404C184.847 355.268 184.807 355.128 184.831 354.984C184.863 354.84 184.943 354.724 185.071 354.636C185.215 354.54 185.363 354.508 185.515 354.54C185.675 354.572 185.803 354.652 185.899 354.78C186.115 355.052 186.387 355.264 186.715 355.416C187.043 355.568 187.415 355.644 187.831 355.644C188.215 355.644 188.567 355.552 188.887 355.368C189.215 355.184 189.475 354.912 189.667 354.552C189.859 354.192 189.955 353.752 189.955 353.232V351.528L190.351 350.472L191.131 350.724V353.316C191.131 353.948 190.991 354.52 190.711 355.032C190.431 355.552 190.039 355.964 189.535 356.268C189.039 356.572 188.463 356.724 187.807 356.724ZM187.831 352.968C188.247 352.968 188.615 352.872 188.935 352.68C189.255 352.488 189.503 352.224 189.679 351.888C189.863 351.552 189.955 351.164 189.955 350.724C189.955 350.284 189.863 349.896 189.679 349.56C189.503 349.216 189.255 348.948 188.935 348.756C188.615 348.564 188.247 348.468 187.831 348.468C187.415 348.468 187.047 348.564 186.727 348.756C186.407 348.948 186.155 349.216 185.971 349.56C185.787 349.896 185.695 350.284 185.695 350.724C185.695 351.164 185.787 351.552 185.971 351.888C186.155 352.224 186.407 352.488 186.727 352.68C187.047 352.872 187.415 352.968 187.831 352.968ZM196.217 354C195.993 354 195.821 353.904 195.701 353.712C195.581 353.52 195.569 353.316 195.665 353.1L199.037 345.048C199.157 344.768 199.353 344.628 199.625 344.628C199.913 344.628 200.109 344.768 200.213 345.048L203.597 353.124C203.685 353.348 203.669 353.552 203.549 353.736C203.437 353.912 203.265 354 203.033 354C202.913 354 202.797 353.968 202.685 353.904C202.581 353.832 202.505 353.736 202.457 353.616L199.481 346.224H199.817L196.793 353.616C196.737 353.744 196.653 353.84 196.541 353.904C196.437 353.968 196.329 354 196.217 354ZM196.853 351.936L197.333 350.904H202.037L202.517 351.936H196.853ZM205.518 356.808C205.342 356.808 205.194 356.748 205.074 356.628C204.962 356.516 204.906 356.372 204.906 356.196V350.724C204.914 350.092 205.062 349.524 205.35 349.02C205.638 348.516 206.03 348.12 206.526 347.832C207.022 347.536 207.582 347.388 208.206 347.388C208.838 347.388 209.402 347.536 209.898 347.832C210.394 348.12 210.786 348.516 211.074 349.02C211.37 349.524 211.518 350.092 211.518 350.724C211.518 351.356 211.382 351.924 211.11 352.428C210.846 352.924 210.482 353.32 210.018 353.616C209.554 353.904 209.03 354.048 208.446 354.048C207.974 354.048 207.538 353.952 207.138 353.76C206.746 353.56 206.41 353.292 206.13 352.956V356.196C206.13 356.372 206.074 356.516 205.962 356.628C205.85 356.748 205.702 356.808 205.518 356.808ZM208.206 352.968C208.614 352.968 208.978 352.872 209.298 352.68C209.618 352.48 209.87 352.212 210.054 351.876C210.246 351.532 210.342 351.148 210.342 350.724C210.342 350.292 210.246 349.908 210.054 349.572C209.87 349.228 209.618 348.96 209.298 348.768C208.978 348.568 208.614 348.468 208.206 348.468C207.806 348.468 207.442 348.568 207.114 348.768C206.794 348.96 206.542 349.228 206.358 349.572C206.174 349.908 206.082 350.292 206.082 350.724C206.082 351.148 206.174 351.532 206.358 351.876C206.542 352.212 206.794 352.48 207.114 352.68C207.442 352.872 207.806 352.968 208.206 352.968ZM213.956 356.808C213.78 356.808 213.632 356.748 213.512 356.628C213.4 356.516 213.344 356.372 213.344 356.196V350.724C213.352 350.092 213.5 349.524 213.788 349.02C214.076 348.516 214.468 348.12 214.964 347.832C215.46 347.536 216.02 347.388 216.644 347.388C217.276 347.388 217.84 347.536 218.336 347.832C218.832 348.12 219.224 348.516 219.512 349.02C219.808 349.524 219.956 350.092 219.956 350.724C219.956 351.356 219.82 351.924 219.548 352.428C219.284 352.924 218.92 353.32 218.456 353.616C217.992 353.904 217.468 354.048 216.884 354.048C216.412 354.048 215.976 353.952 215.576 353.76C215.184 353.56 214.848 353.292 214.568 352.956V356.196C214.568 356.372 214.512 356.516 214.4 356.628C214.288 356.748 214.14 356.808 213.956 356.808ZM216.644 352.968C217.052 352.968 217.416 352.872 217.736 352.68C218.056 352.48 218.308 352.212 218.492 351.876C218.684 351.532 218.78 351.148 218.78 350.724C218.78 350.292 218.684 349.908 218.492 349.572C218.308 349.228 218.056 348.96 217.736 348.768C217.416 348.568 217.052 348.468 216.644 348.468C216.244 348.468 215.88 348.568 215.552 348.768C215.232 348.96 214.98 349.228 214.796 349.572C214.612 349.908 214.52 350.292 214.52 350.724C214.52 351.148 214.612 351.532 214.796 351.876C214.98 352.212 215.232 352.48 215.552 352.68C215.88 352.872 216.244 352.968 216.644 352.968ZM226.005 354C225.853 354 225.717 353.944 225.597 353.832C225.477 353.72 225.417 353.572 225.417 353.388V347.472C225.417 346.896 225.529 346.396 225.753 345.972C225.985 345.548 226.305 345.22 226.713 344.988C227.121 344.748 227.593 344.628 228.129 344.628C228.305 344.628 228.449 344.68 228.561 344.784C228.681 344.888 228.741 345.02 228.741 345.18C228.741 345.332 228.681 345.464 228.561 345.576C228.449 345.68 228.305 345.732 228.129 345.732C227.833 345.732 227.573 345.8 227.349 345.936C227.125 346.072 226.949 346.26 226.821 346.5C226.701 346.74 226.641 347.024 226.641 347.352V353.388C226.641 353.572 226.585 353.72 226.473 353.832C226.361 353.944 226.205 354 226.005 354ZM224.901 348.708C224.733 348.708 224.597 348.66 224.493 348.564C224.389 348.468 224.337 348.348 224.337 348.204C224.337 348.044 224.389 347.916 224.493 347.82C224.597 347.724 224.733 347.676 224.901 347.676H227.865C228.033 347.676 228.169 347.724 228.273 347.82C228.377 347.916 228.429 348.044 228.429 348.204C228.429 348.348 228.377 348.468 228.273 348.564C228.169 348.66 228.033 348.708 227.865 348.708H224.901ZM232.445 354.048C231.797 354.048 231.225 353.908 230.729 353.628C230.233 353.34 229.841 352.948 229.553 352.452C229.273 351.948 229.133 351.372 229.133 350.724C229.133 350.068 229.273 349.492 229.553 348.996C229.841 348.492 230.233 348.1 230.729 347.82C231.225 347.532 231.797 347.388 232.445 347.388C233.085 347.388 233.653 347.532 234.149 347.82C234.645 348.1 235.033 348.492 235.313 348.996C235.601 349.492 235.745 350.068 235.745 350.724C235.745 351.372 235.605 351.948 235.325 352.452C235.045 352.948 234.657 353.34 234.161 353.628C233.665 353.908 233.093 354.048 232.445 354.048ZM232.445 352.968C232.861 352.968 233.229 352.872 233.549 352.68C233.869 352.488 234.117 352.224 234.293 351.888C234.477 351.552 234.569 351.164 234.569 350.724C234.569 350.284 234.477 349.896 234.293 349.56C234.117 349.216 233.869 348.948 233.549 348.756C233.229 348.564 232.861 348.468 232.445 348.468C232.029 348.468 231.661 348.564 231.341 348.756C231.021 348.948 230.769 349.216 230.585 349.56C230.401 349.896 230.309 350.284 230.309 350.724C230.309 351.164 230.401 351.552 230.585 351.888C230.769 352.224 231.021 352.488 231.341 352.68C231.661 352.872 232.029 352.968 232.445 352.968ZM238.154 349.896C238.154 349.416 238.27 348.988 238.502 348.612C238.742 348.228 239.062 347.924 239.462 347.7C239.862 347.476 240.302 347.364 240.782 347.364C241.262 347.364 241.618 347.444 241.85 347.604C242.09 347.756 242.182 347.94 242.126 348.156C242.102 348.268 242.054 348.356 241.982 348.42C241.918 348.476 241.842 348.512 241.754 348.528C241.666 348.544 241.57 348.54 241.466 348.516C240.954 348.412 240.494 348.404 240.086 348.492C239.678 348.58 239.354 348.744 239.114 348.984C238.882 349.224 238.766 349.528 238.766 349.896H238.154ZM238.166 354C237.974 354 237.826 353.952 237.722 353.856C237.618 353.752 237.566 353.6 237.566 353.4V348.036C237.566 347.844 237.618 347.696 237.722 347.592C237.826 347.488 237.974 347.436 238.166 347.436C238.366 347.436 238.514 347.488 238.61 347.592C238.714 347.688 238.766 347.836 238.766 348.036V353.4C238.766 353.592 238.714 353.74 238.61 353.844C238.514 353.948 238.366 354 238.166 354ZM251.238 354.12C250.59 354.12 249.982 354 249.414 353.76C248.854 353.512 248.362 353.172 247.938 352.74C247.522 352.3 247.194 351.788 246.954 351.204C246.722 350.62 246.606 349.988 246.606 349.308C246.606 348.636 246.722 348.012 246.954 347.436C247.194 346.852 247.522 346.344 247.938 345.912C248.362 345.472 248.854 345.128 249.414 344.88C249.974 344.632 250.582 344.508 251.238 344.508C251.854 344.508 252.382 344.588 252.822 344.748C253.27 344.908 253.718 345.172 254.166 345.54C254.23 345.588 254.278 345.64 254.31 345.696C254.35 345.744 254.374 345.796 254.382 345.852C254.398 345.9 254.406 345.96 254.406 346.032C254.406 346.184 254.35 346.312 254.238 346.416C254.134 346.512 254.006 346.568 253.854 346.584C253.702 346.592 253.554 346.54 253.41 346.428C253.114 346.172 252.806 345.976 252.486 345.84C252.174 345.704 251.758 345.636 251.238 345.636C250.766 345.636 250.322 345.732 249.906 345.924C249.49 346.116 249.122 346.38 248.802 346.716C248.49 347.052 248.246 347.444 248.07 347.892C247.894 348.332 247.806 348.804 247.806 349.308C247.806 349.82 247.894 350.3 248.07 350.748C248.246 351.188 248.49 351.576 248.802 351.912C249.122 352.248 249.49 352.512 249.906 352.704C250.322 352.888 250.766 352.98 251.238 352.98C251.646 352.98 252.03 352.912 252.39 352.776C252.758 352.632 253.11 352.436 253.446 352.188C253.59 352.084 253.73 352.04 253.866 352.056C254.01 352.064 254.13 352.12 254.226 352.224C254.322 352.32 254.37 352.456 254.37 352.632C254.37 352.712 254.354 352.792 254.322 352.872C254.29 352.944 254.242 353.012 254.178 353.076C253.746 353.42 253.282 353.68 252.786 353.856C252.298 354.032 251.782 354.12 251.238 354.12ZM256.858 351.612C256.682 351.612 256.534 351.556 256.414 351.444C256.302 351.324 256.246 351.176 256.246 351V345.24C256.246 345.056 256.302 344.908 256.414 344.796C256.534 344.684 256.682 344.628 256.858 344.628C257.042 344.628 257.19 344.684 257.302 344.796C257.414 344.908 257.47 345.056 257.47 345.24V351C257.47 351.176 257.414 351.324 257.302 351.444C257.19 351.556 257.042 351.612 256.858 351.612ZM261.79 354.012C261.614 354.012 261.466 353.956 261.346 353.844C261.234 353.724 261.178 353.576 261.178 353.4V350.448C261.178 349.992 261.094 349.62 260.926 349.332C260.758 349.044 260.53 348.832 260.242 348.696C259.962 348.552 259.638 348.48 259.27 348.48C258.934 348.48 258.63 348.548 258.358 348.684C258.086 348.82 257.87 349.004 257.71 349.236C257.55 349.46 257.47 349.72 257.47 350.016H256.714C256.714 349.512 256.834 349.064 257.074 348.672C257.322 348.272 257.658 347.956 258.082 347.724C258.506 347.492 258.982 347.376 259.51 347.376C260.062 347.376 260.554 347.496 260.986 347.736C261.426 347.968 261.77 348.312 262.018 348.768C262.274 349.224 262.402 349.784 262.402 350.448V353.4C262.402 353.576 262.342 353.724 262.222 353.844C262.11 353.956 261.966 354.012 261.79 354.012ZM256.858 354.012C256.682 354.012 256.534 353.956 256.414 353.844C256.302 353.724 256.246 353.576 256.246 353.4V348.048C256.246 347.864 256.302 347.716 256.414 347.604C256.534 347.492 256.682 347.436 256.858 347.436C257.042 347.436 257.19 347.492 257.302 347.604C257.414 347.716 257.47 347.864 257.47 348.048V353.4C257.47 353.576 257.414 353.724 257.302 353.844C257.19 353.956 257.042 354.012 256.858 354.012ZM265.169 354C264.993 354 264.845 353.944 264.725 353.832C264.613 353.712 264.557 353.564 264.557 353.388V348.048C264.557 347.864 264.613 347.716 264.725 347.604C264.845 347.492 264.993 347.436 265.169 347.436C265.353 347.436 265.501 347.492 265.613 347.604C265.725 347.716 265.781 347.864 265.781 348.048V353.388C265.781 353.564 265.725 353.712 265.613 353.832C265.501 353.944 265.353 354 265.169 354ZM265.169 346.368C264.953 346.368 264.765 346.292 264.605 346.14C264.453 345.98 264.377 345.792 264.377 345.576C264.377 345.36 264.453 345.176 264.605 345.024C264.765 344.864 264.953 344.784 265.169 344.784C265.385 344.784 265.569 344.864 265.721 345.024C265.881 345.176 265.961 345.36 265.961 345.576C265.961 345.792 265.881 345.98 265.721 346.14C265.569 346.292 265.385 346.368 265.169 346.368ZM273.603 354.012C273.427 354.012 273.279 353.956 273.159 353.844C273.047 353.724 272.991 353.576 272.991 353.4V350.448C272.991 349.992 272.907 349.62 272.739 349.332C272.571 349.044 272.343 348.832 272.055 348.696C271.775 348.552 271.451 348.48 271.083 348.48C270.747 348.48 270.443 348.548 270.171 348.684C269.899 348.82 269.683 349.004 269.523 349.236C269.363 349.46 269.283 349.72 269.283 350.016H268.527C268.527 349.512 268.647 349.064 268.887 348.672C269.135 348.272 269.471 347.956 269.895 347.724C270.319 347.492 270.795 347.376 271.323 347.376C271.875 347.376 272.367 347.496 272.799 347.736C273.239 347.968 273.583 348.312 273.831 348.768C274.087 349.224 274.215 349.784 274.215 350.448V353.4C274.215 353.576 274.155 353.724 274.035 353.844C273.923 353.956 273.779 354.012 273.603 354.012ZM268.671 354.012C268.495 354.012 268.347 353.956 268.227 353.844C268.115 353.724 268.059 353.576 268.059 353.4V348.048C268.059 347.864 268.115 347.716 268.227 347.604C268.347 347.492 268.495 347.436 268.671 347.436C268.855 347.436 269.003 347.492 269.115 347.604C269.227 347.716 269.283 347.864 269.283 348.048V353.4C269.283 353.576 269.227 353.724 269.115 353.844C269.003 353.956 268.855 354.012 268.671 354.012ZM279.322 354.048C278.658 354.048 278.066 353.908 277.546 353.628C277.034 353.34 276.63 352.948 276.334 352.452C276.046 351.948 275.902 351.372 275.902 350.724C275.902 350.068 276.038 349.492 276.31 348.996C276.59 348.492 276.974 348.1 277.462 347.82C277.95 347.532 278.51 347.388 279.142 347.388C279.766 347.388 280.302 347.528 280.75 347.808C281.198 348.08 281.538 348.46 281.77 348.948C282.01 349.428 282.13 349.984 282.13 350.616C282.13 350.768 282.078 350.896 281.974 351C281.87 351.096 281.738 351.144 281.578 351.144H276.742V350.184H281.542L281.05 350.52C281.042 350.12 280.962 349.764 280.81 349.452C280.658 349.132 280.442 348.88 280.162 348.696C279.882 348.512 279.542 348.42 279.142 348.42C278.686 348.42 278.294 348.52 277.966 348.72C277.646 348.92 277.402 349.196 277.234 349.548C277.066 349.892 276.982 350.284 276.982 350.724C276.982 351.164 277.082 351.556 277.282 351.9C277.482 352.244 277.758 352.516 278.11 352.716C278.462 352.916 278.866 353.016 279.322 353.016C279.57 353.016 279.822 352.972 280.078 352.884C280.342 352.788 280.554 352.68 280.714 352.56C280.834 352.472 280.962 352.428 281.098 352.428C281.242 352.42 281.366 352.46 281.47 352.548C281.606 352.668 281.678 352.8 281.686 352.944C281.694 353.088 281.63 353.212 281.494 353.316C281.222 353.532 280.882 353.708 280.474 353.844C280.074 353.98 279.69 354.048 279.322 354.048ZM286.079 354.048C285.519 354.048 284.999 353.964 284.519 353.796C284.047 353.62 283.679 353.4 283.415 353.136C283.295 353.008 283.243 352.864 283.259 352.704C283.283 352.536 283.363 352.4 283.499 352.296C283.659 352.168 283.815 352.116 283.967 352.14C284.127 352.156 284.263 352.224 284.375 352.344C284.511 352.496 284.727 352.64 285.023 352.776C285.327 352.904 285.663 352.968 286.031 352.968C286.495 352.968 286.847 352.892 287.087 352.74C287.335 352.588 287.463 352.392 287.471 352.152C287.479 351.912 287.363 351.704 287.123 351.528C286.891 351.352 286.463 351.208 285.839 351.096C285.031 350.936 284.443 350.696 284.075 350.376C283.715 350.056 283.535 349.664 283.535 349.2C283.535 348.792 283.655 348.456 283.895 348.192C284.135 347.92 284.443 347.72 284.819 347.592C285.195 347.456 285.587 347.388 285.995 347.388C286.523 347.388 286.991 347.472 287.399 347.64C287.807 347.808 288.131 348.04 288.371 348.336C288.483 348.464 288.535 348.6 288.527 348.744C288.519 348.88 288.451 348.996 288.323 349.092C288.195 349.18 288.043 349.208 287.867 349.176C287.691 349.144 287.543 349.072 287.423 348.96C287.223 348.768 287.007 348.636 286.775 348.564C286.543 348.492 286.275 348.456 285.971 348.456C285.619 348.456 285.319 348.516 285.071 348.636C284.831 348.756 284.711 348.932 284.711 349.164C284.711 349.308 284.747 349.44 284.819 349.56C284.899 349.672 285.051 349.776 285.275 349.872C285.499 349.96 285.827 350.048 286.259 350.136C286.859 350.256 287.331 350.408 287.675 350.592C288.027 350.776 288.279 350.992 288.431 351.24C288.583 351.48 288.659 351.76 288.659 352.08C288.659 352.448 288.559 352.78 288.359 353.076C288.167 353.372 287.879 353.608 287.495 353.784C287.119 353.96 286.647 354.048 286.079 354.048ZM293.291 354.048C292.627 354.048 292.035 353.908 291.515 353.628C291.003 353.34 290.599 352.948 290.303 352.452C290.015 351.948 289.871 351.372 289.871 350.724C289.871 350.068 290.007 349.492 290.279 348.996C290.559 348.492 290.943 348.1 291.431 347.82C291.919 347.532 292.479 347.388 293.111 347.388C293.735 347.388 294.271 347.528 294.719 347.808C295.167 348.08 295.507 348.46 295.739 348.948C295.979 349.428 296.099 349.984 296.099 350.616C296.099 350.768 296.047 350.896 295.943 351C295.839 351.096 295.707 351.144 295.547 351.144H290.711V350.184H295.511L295.019 350.52C295.011 350.12 294.931 349.764 294.779 349.452C294.627 349.132 294.411 348.88 294.131 348.696C293.851 348.512 293.511 348.42 293.111 348.42C292.655 348.42 292.263 348.52 291.935 348.72C291.615 348.92 291.371 349.196 291.203 349.548C291.035 349.892 290.951 350.284 290.951 350.724C290.951 351.164 291.051 351.556 291.251 351.9C291.451 352.244 291.727 352.516 292.079 352.716C292.431 352.916 292.835 353.016 293.291 353.016C293.539 353.016 293.791 352.972 294.047 352.884C294.311 352.788 294.523 352.68 294.683 352.56C294.803 352.472 294.931 352.428 295.067 352.428C295.211 352.42 295.335 352.46 295.439 352.548C295.575 352.668 295.647 352.8 295.655 352.944C295.663 353.088 295.599 353.212 295.463 353.316C295.191 353.532 294.851 353.708 294.443 353.844C294.043 353.98 293.659 354.048 293.291 354.048ZM152.4 367.048C151.76 367.048 151.188 366.904 150.684 366.616C150.188 366.32 149.796 365.924 149.508 365.428C149.228 364.924 149.088 364.356 149.088 363.724C149.088 363.076 149.228 362.5 149.508 361.996C149.788 361.492 150.172 361.1 150.66 360.82C151.148 360.532 151.708 360.388 152.34 360.388C152.812 360.388 153.244 360.48 153.636 360.664C154.028 360.84 154.38 361.108 154.692 361.468C154.804 361.596 154.844 361.728 154.812 361.864C154.78 362 154.692 362.12 154.548 362.224C154.436 362.304 154.312 362.332 154.176 362.308C154.04 362.276 153.916 362.204 153.804 362.092C153.412 361.676 152.924 361.468 152.34 361.468C151.932 361.468 151.572 361.564 151.26 361.756C150.948 361.94 150.704 362.2 150.528 362.536C150.352 362.872 150.264 363.268 150.264 363.724C150.264 364.156 150.352 364.54 150.528 364.876C150.712 365.212 150.964 365.48 151.284 365.68C151.604 365.872 151.976 365.968 152.4 365.968C152.68 365.968 152.924 365.936 153.132 365.872C153.348 365.8 153.544 365.692 153.72 365.548C153.848 365.444 153.98 365.388 154.116 365.38C154.252 365.364 154.372 365.4 154.476 365.488C154.612 365.6 154.688 365.728 154.704 365.872C154.72 366.008 154.672 366.132 154.56 366.244C153.984 366.78 153.264 367.048 152.4 367.048ZM157.243 364.612C157.067 364.612 156.919 364.556 156.799 364.444C156.687 364.324 156.631 364.176 156.631 364V358.24C156.631 358.056 156.687 357.908 156.799 357.796C156.919 357.684 157.067 357.628 157.243 357.628C157.427 357.628 157.575 357.684 157.687 357.796C157.799 357.908 157.855 358.056 157.855 358.24V364C157.855 364.176 157.799 364.324 157.687 364.444C157.575 364.556 157.427 364.612 157.243 364.612ZM162.175 367.012C161.999 367.012 161.851 366.956 161.731 366.844C161.619 366.724 161.563 366.576 161.563 366.4V363.448C161.563 362.992 161.479 362.62 161.311 362.332C161.143 362.044 160.915 361.832 160.627 361.696C160.347 361.552 160.023 361.48 159.655 361.48C159.319 361.48 159.015 361.548 158.743 361.684C158.471 361.82 158.255 362.004 158.095 362.236C157.935 362.46 157.855 362.72 157.855 363.016H157.099C157.099 362.512 157.219 362.064 157.459 361.672C157.707 361.272 158.043 360.956 158.467 360.724C158.891 360.492 159.367 360.376 159.895 360.376C160.447 360.376 160.939 360.496 161.371 360.736C161.811 360.968 162.155 361.312 162.403 361.768C162.659 362.224 162.787 362.784 162.787 363.448V366.4C162.787 366.576 162.727 366.724 162.607 366.844C162.495 366.956 162.351 367.012 162.175 367.012ZM157.243 367.012C157.067 367.012 156.919 366.956 156.799 366.844C156.687 366.724 156.631 366.576 156.631 366.4V361.048C156.631 360.864 156.687 360.716 156.799 360.604C156.919 360.492 157.067 360.436 157.243 360.436C157.427 360.436 157.575 360.492 157.687 360.604C157.799 360.716 157.855 360.864 157.855 361.048V366.4C157.855 366.576 157.799 366.724 157.687 366.844C157.575 366.956 157.427 367.012 157.243 367.012ZM165.41 362.896C165.41 362.416 165.526 361.988 165.758 361.612C165.998 361.228 166.318 360.924 166.718 360.7C167.118 360.476 167.558 360.364 168.038 360.364C168.518 360.364 168.874 360.444 169.106 360.604C169.346 360.756 169.438 360.94 169.382 361.156C169.358 361.268 169.31 361.356 169.238 361.42C169.174 361.476 169.098 361.512 169.01 361.528C168.922 361.544 168.826 361.54 168.722 361.516C168.21 361.412 167.75 361.404 167.342 361.492C166.934 361.58 166.61 361.744 166.37 361.984C166.138 362.224 166.022 362.528 166.022 362.896H165.41ZM165.422 367C165.23 367 165.082 366.952 164.978 366.856C164.874 366.752 164.822 366.6 164.822 366.4V361.036C164.822 360.844 164.874 360.696 164.978 360.592C165.082 360.488 165.23 360.436 165.422 360.436C165.622 360.436 165.77 360.488 165.866 360.592C165.97 360.688 166.022 360.836 166.022 361.036V366.4C166.022 366.592 165.97 366.74 165.866 366.844C165.77 366.948 165.622 367 165.422 367ZM173.154 367.048C172.506 367.048 171.934 366.908 171.438 366.628C170.942 366.34 170.55 365.948 170.262 365.452C169.982 364.948 169.842 364.372 169.842 363.724C169.842 363.068 169.982 362.492 170.262 361.996C170.55 361.492 170.942 361.1 171.438 360.82C171.934 360.532 172.506 360.388 173.154 360.388C173.794 360.388 174.362 360.532 174.858 360.82C175.354 361.1 175.742 361.492 176.022 361.996C176.31 362.492 176.454 363.068 176.454 363.724C176.454 364.372 176.314 364.948 176.034 365.452C175.754 365.948 175.366 366.34 174.87 366.628C174.374 366.908 173.802 367.048 173.154 367.048ZM173.154 365.968C173.57 365.968 173.938 365.872 174.258 365.68C174.578 365.488 174.826 365.224 175.002 364.888C175.186 364.552 175.278 364.164 175.278 363.724C175.278 363.284 175.186 362.896 175.002 362.56C174.826 362.216 174.578 361.948 174.258 361.756C173.938 361.564 173.57 361.468 173.154 361.468C172.738 361.468 172.37 361.564 172.05 361.756C171.73 361.948 171.478 362.216 171.294 362.56C171.11 362.896 171.018 363.284 171.018 363.724C171.018 364.164 171.11 364.552 171.294 364.888C171.478 365.224 171.73 365.488 172.05 365.68C172.37 365.872 172.738 365.968 173.154 365.968ZM183.819 367.012C183.643 367.012 183.495 366.956 183.375 366.844C183.263 366.724 183.207 366.576 183.207 366.4V363.448C183.207 362.992 183.123 362.62 182.955 362.332C182.787 362.044 182.559 361.832 182.271 361.696C181.991 361.552 181.667 361.48 181.299 361.48C180.963 361.48 180.659 361.548 180.387 361.684C180.115 361.82 179.899 362.004 179.739 362.236C179.579 362.46 179.499 362.72 179.499 363.016H178.743C178.743 362.512 178.863 362.064 179.103 361.672C179.351 361.272 179.687 360.956 180.111 360.724C180.535 360.492 181.011 360.376 181.539 360.376C182.091 360.376 182.583 360.496 183.015 360.736C183.455 360.968 183.799 361.312 184.047 361.768C184.303 362.224 184.431 362.784 184.431 363.448V366.4C184.431 366.576 184.371 366.724 184.251 366.844C184.139 366.956 183.995 367.012 183.819 367.012ZM178.887 367.012C178.711 367.012 178.563 366.956 178.443 366.844C178.331 366.724 178.275 366.576 178.275 366.4V361.048C178.275 360.864 178.331 360.716 178.443 360.604C178.563 360.492 178.711 360.436 178.887 360.436C179.071 360.436 179.219 360.492 179.331 360.604C179.443 360.716 179.499 360.864 179.499 361.048V366.4C179.499 366.576 179.443 366.724 179.331 366.844C179.219 366.956 179.071 367.012 178.887 367.012ZM187.187 367C187.011 367 186.863 366.944 186.743 366.832C186.631 366.712 186.575 366.564 186.575 366.388V361.048C186.575 360.864 186.631 360.716 186.743 360.604C186.863 360.492 187.011 360.436 187.187 360.436C187.371 360.436 187.519 360.492 187.631 360.604C187.743 360.716 187.799 360.864 187.799 361.048V366.388C187.799 366.564 187.743 366.712 187.631 366.832C187.519 366.944 187.371 367 187.187 367ZM187.187 359.368C186.971 359.368 186.783 359.292 186.623 359.14C186.471 358.98 186.395 358.792 186.395 358.576C186.395 358.36 186.471 358.176 186.623 358.024C186.783 357.864 186.971 357.784 187.187 357.784C187.403 357.784 187.587 357.864 187.739 358.024C187.899 358.176 187.979 358.36 187.979 358.576C187.979 358.792 187.899 358.98 187.739 359.14C187.587 359.292 187.403 359.368 187.187 359.368ZM193.052 367.048C192.412 367.048 191.84 366.904 191.336 366.616C190.84 366.32 190.448 365.924 190.16 365.428C189.88 364.924 189.74 364.356 189.74 363.724C189.74 363.076 189.88 362.5 190.16 361.996C190.44 361.492 190.824 361.1 191.312 360.82C191.8 360.532 192.36 360.388 192.992 360.388C193.464 360.388 193.896 360.48 194.288 360.664C194.68 360.84 195.032 361.108 195.344 361.468C195.456 361.596 195.496 361.728 195.464 361.864C195.432 362 195.344 362.12 195.2 362.224C195.088 362.304 194.964 362.332 194.828 362.308C194.692 362.276 194.568 362.204 194.456 362.092C194.064 361.676 193.576 361.468 192.992 361.468C192.584 361.468 192.224 361.564 191.912 361.756C191.6 361.94 191.356 362.2 191.18 362.536C191.004 362.872 190.916 363.268 190.916 363.724C190.916 364.156 191.004 364.54 191.18 364.876C191.364 365.212 191.616 365.48 191.936 365.68C192.256 365.872 192.628 365.968 193.052 365.968C193.332 365.968 193.576 365.936 193.784 365.872C194 365.8 194.196 365.692 194.372 365.548C194.5 365.444 194.632 365.388 194.768 365.38C194.904 365.364 195.024 365.4 195.128 365.488C195.264 365.6 195.34 365.728 195.356 365.872C195.372 366.008 195.324 366.132 195.212 366.244C194.636 366.78 193.916 367.048 193.052 367.048ZM201.411 369.808C201.235 369.808 201.087 369.748 200.967 369.628C200.855 369.516 200.799 369.372 200.799 369.196V363.724C200.807 363.092 200.955 362.524 201.243 362.02C201.531 361.516 201.923 361.12 202.419 360.832C202.915 360.536 203.475 360.388 204.099 360.388C204.731 360.388 205.295 360.536 205.791 360.832C206.287 361.12 206.679 361.516 206.967 362.02C207.263 362.524 207.411 363.092 207.411 363.724C207.411 364.356 207.275 364.924 207.003 365.428C206.739 365.924 206.375 366.32 205.911 366.616C205.447 366.904 204.923 367.048 204.339 367.048C203.867 367.048 203.431 366.952 203.031 366.76C202.639 366.56 202.303 366.292 202.023 365.956V369.196C202.023 369.372 201.967 369.516 201.855 369.628C201.743 369.748 201.595 369.808 201.411 369.808ZM204.099 365.968C204.507 365.968 204.871 365.872 205.191 365.68C205.511 365.48 205.763 365.212 205.947 364.876C206.139 364.532 206.235 364.148 206.235 363.724C206.235 363.292 206.139 362.908 205.947 362.572C205.763 362.228 205.511 361.96 205.191 361.768C204.871 361.568 204.507 361.468 204.099 361.468C203.699 361.468 203.335 361.568 203.007 361.768C202.687 361.96 202.435 362.228 202.251 362.572C202.067 362.908 201.975 363.292 201.975 363.724C201.975 364.148 202.067 364.532 202.251 364.876C202.435 365.212 202.687 365.48 203.007 365.68C203.335 365.872 203.699 365.968 204.099 365.968ZM211.972 367.048C211.388 367.048 210.864 366.904 210.4 366.616C209.936 366.32 209.568 365.924 209.296 365.428C209.032 364.924 208.9 364.356 208.9 363.724C208.9 363.092 209.044 362.524 209.332 362.02C209.628 361.516 210.024 361.12 210.52 360.832C211.024 360.536 211.588 360.388 212.212 360.388C212.836 360.388 213.396 360.536 213.892 360.832C214.388 361.12 214.78 361.516 215.068 362.02C215.364 362.524 215.512 363.092 215.512 363.724H215.044C215.044 364.356 214.908 364.924 214.636 365.428C214.372 365.924 214.008 366.32 213.544 366.616C213.08 366.904 212.556 367.048 211.972 367.048ZM212.212 365.968C212.62 365.968 212.984 365.872 213.304 365.68C213.624 365.48 213.876 365.212 214.06 364.876C214.244 364.532 214.336 364.148 214.336 363.724C214.336 363.292 214.244 362.908 214.06 362.572C213.876 362.228 213.624 361.96 213.304 361.768C212.984 361.568 212.62 361.468 212.212 361.468C211.812 361.468 211.448 361.568 211.12 361.768C210.8 361.96 210.544 362.228 210.352 362.572C210.168 362.908 210.076 363.292 210.076 363.724C210.076 364.148 210.168 364.532 210.352 364.876C210.544 365.212 210.8 365.48 211.12 365.68C211.448 365.872 211.812 365.968 212.212 365.968ZM214.9 367.012C214.724 367.012 214.576 366.956 214.456 366.844C214.344 366.724 214.288 366.576 214.288 366.4V364.564L214.516 363.292L215.512 363.724V366.4C215.512 366.576 215.452 366.724 215.332 366.844C215.22 366.956 215.076 367.012 214.9 367.012ZM219.722 367C219.322 367 218.962 366.9 218.642 366.7C218.322 366.492 218.07 366.212 217.886 365.86C217.702 365.508 217.61 365.112 217.61 364.672V358.948C217.61 358.772 217.666 358.628 217.778 358.516C217.89 358.404 218.034 358.348 218.21 358.348C218.386 358.348 218.53 358.404 218.642 358.516C218.754 358.628 218.81 358.772 218.81 358.948V364.672C218.81 364.992 218.898 365.26 219.074 365.476C219.25 365.692 219.466 365.8 219.722 365.8H220.13C220.274 365.8 220.394 365.856 220.49 365.968C220.594 366.08 220.646 366.224 220.646 366.4C220.646 366.576 220.578 366.72 220.442 366.832C220.314 366.944 220.146 367 219.938 367H219.722ZM217.058 361.708C216.89 361.708 216.754 361.66 216.65 361.564C216.546 361.468 216.494 361.348 216.494 361.204C216.494 361.044 216.546 360.916 216.65 360.82C216.754 360.724 216.89 360.676 217.058 360.676H219.83C219.998 360.676 220.134 360.724 220.238 360.82C220.342 360.916 220.394 361.044 220.394 361.204C220.394 361.348 220.342 361.468 220.238 361.564C220.134 361.66 219.998 361.708 219.83 361.708H217.058ZM222.882 367C222.706 367 222.558 366.944 222.438 366.832C222.326 366.712 222.27 366.564 222.27 366.388V361.048C222.27 360.864 222.326 360.716 222.438 360.604C222.558 360.492 222.706 360.436 222.882 360.436C223.066 360.436 223.214 360.492 223.326 360.604C223.438 360.716 223.494 360.864 223.494 361.048V366.388C223.494 366.564 223.438 366.712 223.326 366.832C223.214 366.944 223.066 367 222.882 367ZM222.882 359.368C222.666 359.368 222.478 359.292 222.318 359.14C222.166 358.98 222.09 358.792 222.09 358.576C222.09 358.36 222.166 358.176 222.318 358.024C222.478 357.864 222.666 357.784 222.882 357.784C223.098 357.784 223.282 357.864 223.434 358.024C223.594 358.176 223.674 358.36 223.674 358.576C223.674 358.792 223.594 358.98 223.434 359.14C223.282 359.292 223.098 359.368 222.882 359.368ZM228.855 367.048C228.191 367.048 227.599 366.908 227.079 366.628C226.567 366.34 226.163 365.948 225.867 365.452C225.579 364.948 225.435 364.372 225.435 363.724C225.435 363.068 225.571 362.492 225.843 361.996C226.123 361.492 226.507 361.1 226.995 360.82C227.483 360.532 228.043 360.388 228.675 360.388C229.299 360.388 229.835 360.528 230.283 360.808C230.731 361.08 231.071 361.46 231.303 361.948C231.543 362.428 231.663 362.984 231.663 363.616C231.663 363.768 231.611 363.896 231.507 364C231.403 364.096 231.271 364.144 231.111 364.144H226.275V363.184H231.075L230.583 363.52C230.575 363.12 230.495 362.764 230.343 362.452C230.191 362.132 229.975 361.88 229.695 361.696C229.415 361.512 229.075 361.42 228.675 361.42C228.219 361.42 227.827 361.52 227.499 361.72C227.179 361.92 226.935 362.196 226.767 362.548C226.599 362.892 226.515 363.284 226.515 363.724C226.515 364.164 226.615 364.556 226.815 364.9C227.015 365.244 227.291 365.516 227.643 365.716C227.995 365.916 228.399 366.016 228.855 366.016C229.103 366.016 229.355 365.972 229.611 365.884C229.875 365.788 230.087 365.68 230.247 365.56C230.367 365.472 230.495 365.428 230.631 365.428C230.775 365.42 230.899 365.46 231.003 365.548C231.139 365.668 231.211 365.8 231.219 365.944C231.227 366.088 231.163 366.212 231.027 366.316C230.755 366.532 230.415 366.708 230.007 366.844C229.607 366.98 229.223 367.048 228.855 367.048ZM238.769 367.012C238.593 367.012 238.445 366.956 238.325 366.844C238.213 366.724 238.157 366.576 238.157 366.4V363.448C238.157 362.992 238.073 362.62 237.905 362.332C237.737 362.044 237.509 361.832 237.221 361.696C236.941 361.552 236.617 361.48 236.249 361.48C235.913 361.48 235.609 361.548 235.337 361.684C235.065 361.82 234.849 362.004 234.689 362.236C234.529 362.46 234.449 362.72 234.449 363.016H233.693C233.693 362.512 233.813 362.064 234.053 361.672C234.301 361.272 234.637 360.956 235.061 360.724C235.485 360.492 235.961 360.376 236.489 360.376C237.041 360.376 237.533 360.496 237.965 360.736C238.405 360.968 238.749 361.312 238.997 361.768C239.253 362.224 239.381 362.784 239.381 363.448V366.4C239.381 366.576 239.321 366.724 239.201 366.844C239.089 366.956 238.945 367.012 238.769 367.012ZM233.837 367.012C233.661 367.012 233.513 366.956 233.393 366.844C233.281 366.724 233.225 366.576 233.225 366.4V361.048C233.225 360.864 233.281 360.716 233.393 360.604C233.513 360.492 233.661 360.436 233.837 360.436C234.021 360.436 234.169 360.492 234.281 360.604C234.393 360.716 234.449 360.864 234.449 361.048V366.4C234.449 366.576 234.393 366.724 234.281 366.844C234.169 366.956 234.021 367.012 233.837 367.012ZM243.792 367C243.392 367 243.032 366.9 242.712 366.7C242.392 366.492 242.14 366.212 241.956 365.86C241.772 365.508 241.68 365.112 241.68 364.672V358.948C241.68 358.772 241.736 358.628 241.848 358.516C241.96 358.404 242.104 358.348 242.28 358.348C242.456 358.348 242.6 358.404 242.712 358.516C242.824 358.628 242.88 358.772 242.88 358.948V364.672C242.88 364.992 242.968 365.26 243.144 365.476C243.32 365.692 243.536 365.8 243.792 365.8H244.2C244.344 365.8 244.464 365.856 244.56 365.968C244.664 366.08 244.716 366.224 244.716 366.4C244.716 366.576 244.648 366.72 244.512 366.832C244.384 366.944 244.216 367 244.008 367H243.792ZM241.128 361.708C240.96 361.708 240.824 361.66 240.72 361.564C240.616 361.468 240.564 361.348 240.564 361.204C240.564 361.044 240.616 360.916 240.72 360.82C240.824 360.724 240.96 360.676 241.128 360.676H243.9C244.068 360.676 244.204 360.724 244.308 360.82C244.412 360.916 244.464 361.044 244.464 361.204C244.464 361.348 244.412 361.468 244.308 361.564C244.204 361.66 244.068 361.708 243.9 361.708H241.128ZM248.609 367.048C248.049 367.048 247.529 366.964 247.049 366.796C246.577 366.62 246.209 366.4 245.945 366.136C245.825 366.008 245.773 365.864 245.789 365.704C245.813 365.536 245.893 365.4 246.029 365.296C246.189 365.168 246.345 365.116 246.497 365.14C246.657 365.156 246.793 365.224 246.905 365.344C247.041 365.496 247.257 365.64 247.553 365.776C247.857 365.904 248.193 365.968 248.561 365.968C249.025 365.968 249.377 365.892 249.617 365.74C249.865 365.588 249.993 365.392 250.001 365.152C250.009 364.912 249.893 364.704 249.653 364.528C249.421 364.352 248.993 364.208 248.369 364.096C247.561 363.936 246.973 363.696 246.605 363.376C246.245 363.056 246.065 362.664 246.065 362.2C246.065 361.792 246.185 361.456 246.425 361.192C246.665 360.92 246.973 360.72 247.349 360.592C247.725 360.456 248.117 360.388 248.525 360.388C249.053 360.388 249.521 360.472 249.929 360.64C250.337 360.808 250.661 361.04 250.901 361.336C251.013 361.464 251.065 361.6 251.057 361.744C251.049 361.88 250.981 361.996 250.853 362.092C250.725 362.18 250.573 362.208 250.397 362.176C250.221 362.144 250.073 362.072 249.953 361.96C249.753 361.768 249.537 361.636 249.305 361.564C249.073 361.492 248.805 361.456 248.501 361.456C248.149 361.456 247.849 361.516 247.601 361.636C247.361 361.756 247.241 361.932 247.241 362.164C247.241 362.308 247.277 362.44 247.349 362.56C247.429 362.672 247.581 362.776 247.805 362.872C248.029 362.96 248.357 363.048 248.789 363.136C249.389 363.256 249.861 363.408 250.205 363.592C250.557 363.776 250.809 363.992 250.961 364.24C251.113 364.48 251.189 364.76 251.189 365.08C251.189 365.448 251.089 365.78 250.889 366.076C250.697 366.372 250.409 366.608 250.025 366.784C249.649 366.96 249.177 367.048 248.609 367.048ZM184.481 387.192C183.713 387.192 183.033 387.052 182.441 386.772C181.849 386.484 181.385 386.088 181.049 385.584C180.721 385.08 180.557 384.504 180.557 383.856V378.252C180.557 378.068 180.617 377.92 180.737 377.808C180.857 377.688 181.005 377.628 181.181 377.628C181.365 377.628 181.513 377.688 181.625 377.808C181.745 377.92 181.805 378.068 181.805 378.252V383.856C181.805 384.288 181.917 384.672 182.141 385.008C182.373 385.336 182.689 385.596 183.089 385.788C183.497 385.972 183.961 386.064 184.481 386.064C184.985 386.064 185.429 385.972 185.813 385.788C186.205 385.596 186.509 385.336 186.725 385.008C186.949 384.672 187.061 384.288 187.061 383.856V378.252C187.061 378.068 187.121 377.92 187.241 377.808C187.361 377.688 187.509 377.628 187.685 377.628C187.869 377.628 188.017 377.688 188.129 377.808C188.241 377.92 188.297 378.068 188.297 378.252V383.856C188.297 384.504 188.133 385.08 187.805 385.584C187.485 386.088 187.037 386.484 186.461 386.772C185.885 387.052 185.225 387.192 184.481 387.192ZM190.658 387C190.474 387 190.334 386.944 190.238 386.832C190.142 386.712 190.094 386.576 190.094 386.424C190.094 386.264 190.142 386.12 190.238 385.992L193.262 381.96L193.802 381.48L196.562 377.808C196.674 377.688 196.822 377.628 197.006 377.628C197.174 377.628 197.306 377.68 197.402 377.784C197.498 377.888 197.55 378.016 197.558 378.168C197.566 378.32 197.522 378.468 197.426 378.612L194.51 382.5L193.994 382.956L191.09 386.82C190.97 386.94 190.826 387 190.658 387ZM196.934 387C196.83 387 196.738 386.984 196.658 386.952C196.586 386.912 196.518 386.852 196.454 386.772L193.658 382.896L193.214 382.524L190.394 378.612C190.298 378.484 190.258 378.344 190.274 378.192C190.29 378.04 190.346 377.908 190.442 377.796C190.546 377.684 190.682 377.628 190.85 377.628C191.058 377.628 191.206 377.688 191.294 377.808L193.958 381.504L194.414 381.876L197.378 385.992C197.474 386.12 197.518 386.264 197.51 386.424C197.502 386.584 197.446 386.72 197.342 386.832C197.246 386.944 197.11 387 196.934 387ZM201.168 387.168C200.664 387.168 200.22 387.076 199.836 386.892C199.452 386.7 199.152 386.432 198.936 386.088C198.728 385.736 198.624 385.316 198.624 384.828C198.624 384.284 198.808 383.792 199.176 383.352C199.544 382.912 200.028 382.452 200.628 381.972L201.624 381.18C202.048 380.844 202.32 380.548 202.44 380.292C202.56 380.036 202.624 379.772 202.632 379.5C202.632 379.196 202.528 378.932 202.32 378.708C202.12 378.484 201.828 378.372 201.444 378.372C201.092 378.372 200.808 378.476 200.592 378.684C200.376 378.892 200.268 379.136 200.268 379.416C200.268 379.624 200.312 379.828 200.4 380.028C200.496 380.228 200.648 380.432 200.856 380.64L206.316 386.088C206.444 386.216 206.516 386.336 206.532 386.448C206.548 386.56 206.492 386.68 206.364 386.808C206.108 387.064 205.852 387.064 205.596 386.808L200.076 381.3C199.804 381.02 199.596 380.728 199.452 380.424C199.308 380.112 199.236 379.784 199.236 379.44C199.236 379.056 199.332 378.712 199.524 378.408C199.716 378.096 199.98 377.852 200.316 377.676C200.652 377.5 201.028 377.412 201.444 377.412C201.876 377.412 202.256 377.504 202.584 377.688C202.92 377.872 203.184 378.124 203.376 378.444C203.568 378.764 203.664 379.124 203.664 379.524C203.664 379.836 203.608 380.12 203.496 380.376C203.392 380.632 203.228 380.884 203.004 381.132C202.78 381.372 202.488 381.636 202.128 381.924L201.18 382.68C200.908 382.896 200.664 383.116 200.448 383.34C200.232 383.564 200.06 383.796 199.932 384.036C199.812 384.268 199.752 384.516 199.752 384.78C199.752 385.228 199.876 385.568 200.124 385.8C200.372 386.024 200.72 386.136 201.168 386.136C201.648 386.136 202.064 386.028 202.416 385.812C202.776 385.588 203.14 385.284 203.508 384.9L205.26 383.052C205.38 382.924 205.492 382.844 205.596 382.812C205.7 382.78 205.816 382.824 205.944 382.944C206.072 383.064 206.136 383.188 206.136 383.316C206.144 383.444 206.088 383.576 205.968 383.712L204.216 385.56C203.8 386.032 203.348 386.42 202.86 386.724C202.372 387.02 201.808 387.168 201.168 387.168ZM211.985 387.192C211.217 387.192 210.537 387.052 209.945 386.772C209.353 386.484 208.889 386.088 208.553 385.584C208.225 385.08 208.061 384.504 208.061 383.856V378.252C208.061 378.068 208.121 377.92 208.241 377.808C208.361 377.688 208.509 377.628 208.685 377.628C208.869 377.628 209.017 377.688 209.129 377.808C209.249 377.92 209.309 378.068 209.309 378.252V383.856C209.309 384.288 209.421 384.672 209.645 385.008C209.877 385.336 210.193 385.596 210.593 385.788C211.001 385.972 211.465 386.064 211.985 386.064C212.489 386.064 212.933 385.972 213.317 385.788C213.709 385.596 214.013 385.336 214.229 385.008C214.453 384.672 214.565 384.288 214.565 383.856V378.252C214.565 378.068 214.625 377.92 214.745 377.808C214.865 377.688 215.013 377.628 215.189 377.628C215.373 377.628 215.521 377.688 215.633 377.808C215.745 377.92 215.801 378.068 215.801 378.252V383.856C215.801 384.504 215.637 385.08 215.309 385.584C214.989 386.088 214.541 386.484 213.965 386.772C213.389 387.052 212.729 387.192 211.985 387.192ZM218.822 387C218.646 387 218.498 386.94 218.378 386.82C218.258 386.7 218.198 386.552 218.198 386.376V378.252C218.198 378.068 218.258 377.92 218.378 377.808C218.498 377.688 218.646 377.628 218.822 377.628C219.006 377.628 219.154 377.688 219.266 377.808C219.386 377.92 219.446 378.068 219.446 378.252V386.376C219.446 386.552 219.386 386.7 219.266 386.82C219.154 386.94 219.006 387 218.822 387Z" fill="white"/>
</svg>
