<svg width="436" height="49" viewBox="0 0 436 49" fill="none" xmlns="http://www.w3.org/2000/svg">
<path d="M130.472 23V9.368H125.096V6.2H139.736V9.368H134.36V23H130.472ZM141.828 23V6.2H149.1C150.604 6.2 151.9 6.448 152.988 6.944C154.076 7.424 154.916 8.12 155.508 9.032C156.1 9.944 156.396 11.032 156.396 12.296C156.396 13.544 156.1 14.624 155.508 15.536C154.916 16.432 154.076 17.12 152.988 17.6C151.9 18.08 150.604 18.32 149.1 18.32H143.988L145.716 16.616V23H141.828ZM152.508 23L148.308 16.904H152.46L156.708 23H152.508ZM145.716 17.048L143.988 15.224H148.884C150.084 15.224 150.98 14.968 151.572 14.456C152.164 13.928 152.46 13.208 152.46 12.296C152.46 11.368 152.164 10.648 151.572 10.136C150.98 9.624 150.084 9.368 148.884 9.368H143.988L145.716 7.52V17.048ZM157.268 23L164.756 6.2H168.596L176.108 23H172.028L165.884 8.168H167.42L161.252 23H157.268ZM161.012 19.4L162.044 16.448H170.684L171.74 19.4H161.012ZM185.657 23.288C184.361 23.288 183.153 23.08 182.033 22.664C180.929 22.232 179.969 21.624 179.153 20.84C178.337 20.056 177.697 19.136 177.233 18.08C176.785 17.024 176.561 15.864 176.561 14.6C176.561 13.336 176.785 12.176 177.233 11.12C177.697 10.064 178.337 9.144 179.153 8.36C179.985 7.576 180.953 6.976 182.057 6.56C183.161 6.128 184.369 5.912 185.681 5.912C187.137 5.912 188.449 6.168 189.617 6.68C190.801 7.176 191.793 7.912 192.593 8.888L190.097 11.192C189.521 10.536 188.881 10.048 188.177 9.728C187.473 9.392 186.705 9.224 185.873 9.224C185.089 9.224 184.369 9.352 183.713 9.608C183.057 9.864 182.489 10.232 182.009 10.712C181.529 11.192 181.153 11.76 180.881 12.416C180.625 13.072 180.497 13.8 180.497 14.6C180.497 15.4 180.625 16.128 180.881 16.784C181.153 17.44 181.529 18.008 182.009 18.488C182.489 18.968 183.057 19.336 183.713 19.592C184.369 19.848 185.089 19.976 185.873 19.976C186.705 19.976 187.473 19.816 188.177 19.496C188.881 19.16 189.521 18.656 190.097 17.984L192.593 20.288C191.793 21.264 190.801 22.008 189.617 22.52C188.449 23.032 187.129 23.288 185.657 23.288ZM198.699 19.16L198.483 14.672L206.523 6.2H210.843L203.595 14L201.435 16.304L198.699 19.16ZM195.219 23V6.2H199.083V23H195.219ZM206.715 23L200.739 15.68L203.283 12.92L211.251 23H206.715ZM220.415 23.288C219.119 23.288 217.911 23.08 216.791 22.664C215.687 22.232 214.727 21.624 213.911 20.84C213.095 20.056 212.455 19.136 211.991 18.08C211.543 17.024 211.319 15.864 211.319 14.6C211.319 13.336 211.543 12.176 211.991 11.12C212.455 10.064 213.095 9.144 213.911 8.36C214.743 7.576 215.711 6.976 216.815 6.56C217.919 6.128 219.127 5.912 220.439 5.912C221.895 5.912 223.207 6.168 224.375 6.68C225.559 7.176 226.551 7.912 227.351 8.888L224.855 11.192C224.279 10.536 223.639 10.048 222.935 9.728C222.231 9.392 221.463 9.224 220.631 9.224C219.847 9.224 219.127 9.352 218.471 9.608C217.815 9.864 217.247 10.232 216.767 10.712C216.287 11.192 215.911 11.76 215.639 12.416C215.383 13.072 215.255 13.8 215.255 14.6C215.255 15.4 215.383 16.128 215.639 16.784C215.911 17.44 216.287 18.008 216.767 18.488C217.247 18.968 217.815 19.336 218.471 19.592C219.127 19.848 219.847 19.976 220.631 19.976C221.463 19.976 222.231 19.816 222.935 19.496C223.639 19.16 224.279 18.656 224.855 17.984L227.351 20.288C226.551 21.264 225.559 22.008 224.375 22.52C223.207 23.032 221.887 23.288 220.415 23.288ZM237.785 23.288C236.457 23.288 235.225 23.072 234.089 22.64C232.969 22.208 231.993 21.6 231.161 20.816C230.345 20.032 229.705 19.112 229.241 18.056C228.793 17 228.569 15.848 228.569 14.6C228.569 13.352 228.793 12.2 229.241 11.144C229.705 10.088 230.353 9.168 231.185 8.384C232.017 7.6 232.993 6.992 234.113 6.56C235.233 6.128 236.449 5.912 237.761 5.912C239.089 5.912 240.305 6.128 241.409 6.56C242.529 6.992 243.497 7.6 244.313 8.384C245.145 9.168 245.793 10.088 246.257 11.144C246.721 12.184 246.953 13.336 246.953 14.6C246.953 15.848 246.721 17.008 246.257 18.08C245.793 19.136 245.145 20.056 244.313 20.84C243.497 21.608 242.529 22.208 241.409 22.64C240.305 23.072 239.097 23.288 237.785 23.288ZM237.761 19.976C238.513 19.976 239.201 19.848 239.825 19.592C240.465 19.336 241.025 18.968 241.505 18.488C241.985 18.008 242.353 17.44 242.609 16.784C242.881 16.128 243.017 15.4 243.017 14.6C243.017 13.8 242.881 13.072 242.609 12.416C242.353 11.76 241.985 11.192 241.505 10.712C241.041 10.232 240.489 9.864 239.849 9.608C239.209 9.352 238.513 9.224 237.761 9.224C237.009 9.224 236.313 9.352 235.673 9.608C235.049 9.864 234.497 10.232 234.017 10.712C233.537 11.192 233.161 11.76 232.889 12.416C232.633 13.072 232.505 13.8 232.505 14.6C232.505 15.384 232.633 16.112 232.889 16.784C233.161 17.44 233.529 18.008 233.993 18.488C234.473 18.968 235.033 19.336 235.673 19.592C236.313 19.848 237.009 19.976 237.761 19.976ZM249.875 23V6.2H253.763V23H249.875ZM257.75 23V6.2H260.966L270.878 18.296H269.318V6.2H273.158V23H269.966L260.03 10.904H261.59V23H257.75Z" fill="#12296F"/>
<path d="M130.016 41.144C129.368 41.144 128.764 41.04 128.204 40.832C127.652 40.616 127.172 40.312 126.764 39.92C126.356 39.528 126.036 39.068 125.804 38.54C125.58 38.012 125.468 37.432 125.468 36.8C125.468 36.168 125.58 35.588 125.804 35.06C126.036 34.532 126.356 34.072 126.764 33.68C127.18 33.288 127.664 32.988 128.216 32.78C128.768 32.564 129.372 32.456 130.028 32.456C130.756 32.456 131.412 32.584 131.996 32.84C132.588 33.088 133.084 33.456 133.484 33.944L132.236 35.096C131.948 34.768 131.628 34.524 131.276 34.364C130.924 34.196 130.54 34.112 130.124 34.112C129.732 34.112 129.372 34.176 129.044 34.304C128.716 34.432 128.432 34.616 128.192 34.856C127.952 35.096 127.764 35.38 127.628 35.708C127.5 36.036 127.436 36.4 127.436 36.8C127.436 37.2 127.5 37.564 127.628 37.892C127.764 38.22 127.952 38.504 128.192 38.744C128.432 38.984 128.716 39.168 129.044 39.296C129.372 39.424 129.732 39.488 130.124 39.488C130.54 39.488 130.924 39.408 131.276 39.248C131.628 39.08 131.948 38.828 132.236 38.492L133.484 39.644C133.084 40.132 132.588 40.504 131.996 40.76C131.412 41.016 130.752 41.144 130.016 41.144ZM134.665 41V34.544H136.453V36.368L136.201 35.84C136.393 35.384 136.701 35.04 137.125 34.808C137.549 34.568 138.065 34.448 138.673 34.448V36.176C138.593 36.168 138.521 36.164 138.457 36.164C138.393 36.156 138.325 36.152 138.253 36.152C137.741 36.152 137.325 36.3 137.005 36.596C136.693 36.884 136.537 37.336 136.537 37.952V41H134.665ZM142.811 41.096C142.123 41.096 141.511 40.952 140.975 40.664C140.447 40.376 140.027 39.984 139.715 39.488C139.411 38.984 139.259 38.412 139.259 37.772C139.259 37.124 139.411 36.552 139.715 36.056C140.027 35.552 140.447 35.16 140.975 34.88C141.511 34.592 142.123 34.448 142.811 34.448C143.491 34.448 144.099 34.592 144.635 34.88C145.171 35.16 145.591 35.548 145.895 36.044C146.199 36.54 146.351 37.116 146.351 37.772C146.351 38.412 146.199 38.984 145.895 39.488C145.591 39.984 145.171 40.376 144.635 40.664C144.099 40.952 143.491 41.096 142.811 41.096ZM142.811 39.56C143.123 39.56 143.403 39.488 143.651 39.344C143.899 39.2 144.095 38.996 144.239 38.732C144.383 38.46 144.455 38.14 144.455 37.772C144.455 37.396 144.383 37.076 144.239 36.812C144.095 36.548 143.899 36.344 143.651 36.2C143.403 36.056 143.123 35.984 142.811 35.984C142.499 35.984 142.219 36.056 141.971 36.2C141.723 36.344 141.523 36.548 141.371 36.812C141.227 37.076 141.155 37.396 141.155 37.772C141.155 38.14 141.227 38.46 141.371 38.732C141.523 38.996 141.723 39.2 141.971 39.344C142.219 39.488 142.499 39.56 142.811 39.56ZM148.903 41L146.575 34.544H148.339L150.271 40.1H149.431L151.447 34.544H153.031L154.987 40.1H154.147L156.139 34.544H157.795L155.455 41H153.643L151.927 36.236H152.479L150.703 41H148.903ZM161.261 41.096C160.653 41.096 160.105 40.96 159.617 40.688C159.129 40.408 158.741 40.02 158.453 39.524C158.173 39.028 158.033 38.444 158.033 37.772C158.033 37.092 158.173 36.504 158.453 36.008C158.741 35.512 159.129 35.128 159.617 34.856C160.105 34.584 160.653 34.448 161.261 34.448C161.805 34.448 162.281 34.568 162.689 34.808C163.097 35.048 163.413 35.412 163.637 35.9C163.861 36.388 163.973 37.012 163.973 37.772C163.973 38.524 163.865 39.148 163.649 39.644C163.433 40.132 163.121 40.496 162.713 40.736C162.313 40.976 161.829 41.096 161.261 41.096ZM161.585 39.56C161.889 39.56 162.165 39.488 162.413 39.344C162.661 39.2 162.857 38.996 163.001 38.732C163.153 38.46 163.229 38.14 163.229 37.772C163.229 37.396 163.153 37.076 163.001 36.812C162.857 36.548 162.661 36.344 162.413 36.2C162.165 36.056 161.889 35.984 161.585 35.984C161.273 35.984 160.993 36.056 160.745 36.2C160.497 36.344 160.297 36.548 160.145 36.812C160.001 37.076 159.929 37.396 159.929 37.772C159.929 38.14 160.001 38.46 160.145 38.732C160.297 38.996 160.497 39.2 160.745 39.344C160.993 39.488 161.273 39.56 161.585 39.56ZM163.277 41V39.68L163.313 37.76L163.193 35.852V32.096H165.065V41H163.277ZM167.026 41V34.4C167.026 33.672 167.242 33.092 167.674 32.66C168.106 32.22 168.722 32 169.522 32C169.794 32 170.054 32.028 170.302 32.084C170.558 32.14 170.774 32.228 170.95 32.348L170.458 33.704C170.354 33.632 170.238 33.576 170.11 33.536C169.982 33.496 169.846 33.476 169.702 33.476C169.43 33.476 169.218 33.556 169.066 33.716C168.922 33.868 168.85 34.1 168.85 34.412V35.012L168.898 35.816V41H167.026ZM166.03 36.128V34.688H170.506V36.128H166.03ZM174.162 41.096C173.626 41.096 173.146 40.992 172.722 40.784C172.306 40.576 171.982 40.26 171.75 39.836C171.518 39.404 171.402 38.856 171.402 38.192V34.544H173.274V37.916C173.274 38.452 173.386 38.848 173.61 39.104C173.842 39.352 174.166 39.476 174.582 39.476C174.87 39.476 175.126 39.416 175.35 39.296C175.574 39.168 175.75 38.976 175.878 38.72C176.006 38.456 176.07 38.128 176.07 37.736V34.544H177.942V41H176.166V39.224L176.49 39.74C176.274 40.188 175.954 40.528 175.53 40.76C175.114 40.984 174.658 41.096 174.162 41.096ZM182.449 41.096C181.841 41.096 181.293 40.96 180.805 40.688C180.317 40.408 179.929 40.02 179.641 39.524C179.361 39.028 179.221 38.444 179.221 37.772C179.221 37.092 179.361 36.504 179.641 36.008C179.929 35.512 180.317 35.128 180.805 34.856C181.293 34.584 181.841 34.448 182.449 34.448C182.993 34.448 183.469 34.568 183.877 34.808C184.285 35.048 184.601 35.412 184.825 35.9C185.049 36.388 185.161 37.012 185.161 37.772C185.161 38.524 185.053 39.148 184.837 39.644C184.621 40.132 184.309 40.496 183.901 40.736C183.501 40.976 183.017 41.096 182.449 41.096ZM182.773 39.56C183.077 39.56 183.353 39.488 183.601 39.344C183.849 39.2 184.045 38.996 184.189 38.732C184.341 38.46 184.417 38.14 184.417 37.772C184.417 37.396 184.341 37.076 184.189 36.812C184.045 36.548 183.849 36.344 183.601 36.2C183.353 36.056 183.077 35.984 182.773 35.984C182.461 35.984 182.181 36.056 181.933 36.2C181.685 36.344 181.485 36.548 181.333 36.812C181.189 37.076 181.117 37.396 181.117 37.772C181.117 38.14 181.189 38.46 181.333 38.732C181.485 38.996 181.685 39.2 181.933 39.344C182.181 39.488 182.461 39.56 182.773 39.56ZM184.465 41V39.68L184.501 37.76L184.381 35.852V32.096H186.253V41H184.465ZM191.909 34.448C192.421 34.448 192.877 34.552 193.277 34.76C193.685 34.96 194.005 35.272 194.237 35.696C194.469 36.112 194.585 36.648 194.585 37.304V41H192.713V37.592C192.713 37.072 192.597 36.688 192.365 36.44C192.141 36.192 191.821 36.068 191.405 36.068C191.109 36.068 190.841 36.132 190.601 36.26C190.369 36.38 190.185 36.568 190.049 36.824C189.921 37.08 189.857 37.408 189.857 37.808V41H187.985V34.544H189.773V36.332L189.437 35.792C189.669 35.36 190.001 35.028 190.433 34.796C190.865 34.564 191.357 34.448 191.909 34.448ZM196.282 41V34.544H198.154V41H196.282ZM197.218 33.644C196.874 33.644 196.594 33.544 196.378 33.344C196.162 33.144 196.054 32.896 196.054 32.6C196.054 32.304 196.162 32.056 196.378 31.856C196.594 31.656 196.874 31.556 197.218 31.556C197.562 31.556 197.842 31.652 198.058 31.844C198.274 32.028 198.382 32.268 198.382 32.564C198.382 32.876 198.274 33.136 198.058 33.344C197.85 33.544 197.57 33.644 197.218 33.644ZM203.815 34.448C204.327 34.448 204.783 34.552 205.183 34.76C205.591 34.96 205.911 35.272 206.143 35.696C206.375 36.112 206.491 36.648 206.491 37.304V41H204.619V37.592C204.619 37.072 204.503 36.688 204.271 36.44C204.047 36.192 203.727 36.068 203.311 36.068C203.015 36.068 202.747 36.132 202.507 36.26C202.275 36.38 202.091 36.568 201.955 36.824C201.827 37.08 201.763 37.408 201.763 37.808V41H199.891V34.544H201.679V36.332L201.343 35.792C201.575 35.36 201.907 35.028 202.339 34.796C202.771 34.564 203.263 34.448 203.815 34.448ZM211.271 43.424C210.663 43.424 210.075 43.348 209.507 43.196C208.947 43.052 208.479 42.832 208.103 42.536L208.847 41.192C209.119 41.416 209.463 41.592 209.879 41.72C210.303 41.856 210.719 41.924 211.127 41.924C211.791 41.924 212.271 41.776 212.567 41.48C212.871 41.184 213.023 40.744 213.023 40.16V39.188L213.143 37.568L213.119 35.936V34.544H214.895V39.92C214.895 41.12 214.583 42.004 213.959 42.572C213.335 43.14 212.439 43.424 211.271 43.424ZM210.983 40.688C210.383 40.688 209.839 40.56 209.351 40.304C208.871 40.04 208.483 39.676 208.187 39.212C207.899 38.74 207.755 38.192 207.755 37.568C207.755 36.936 207.899 36.388 208.187 35.924C208.483 35.452 208.871 35.088 209.351 34.832C209.839 34.576 210.383 34.448 210.983 34.448C211.527 34.448 212.007 34.56 212.423 34.784C212.839 35 213.163 35.34 213.395 35.804C213.627 36.26 213.743 36.848 213.743 37.568C213.743 38.28 213.627 38.868 213.395 39.332C213.163 39.788 212.839 40.128 212.423 40.352C212.007 40.576 211.527 40.688 210.983 40.688ZM211.355 39.152C211.683 39.152 211.975 39.088 212.231 38.96C212.487 38.824 212.687 38.636 212.831 38.396C212.975 38.156 213.047 37.88 213.047 37.568C213.047 37.248 212.975 36.972 212.831 36.74C212.687 36.5 212.487 36.316 212.231 36.188C211.975 36.052 211.683 35.984 211.355 35.984C211.027 35.984 210.735 36.052 210.479 36.188C210.223 36.316 210.019 36.5 209.867 36.74C209.723 36.972 209.651 37.248 209.651 37.568C209.651 37.88 209.723 38.156 209.867 38.396C210.019 38.636 210.223 38.824 210.479 38.96C210.735 39.088 211.027 39.152 211.355 39.152ZM219.064 41L222.808 32.6H224.728L228.484 41H226.444L223.372 33.584H224.14L221.056 41H219.064ZM220.936 39.2L221.452 37.724H225.772L226.3 39.2H220.936ZM233.039 41.096C232.495 41.096 232.019 40.976 231.611 40.736C231.203 40.496 230.883 40.132 230.651 39.644C230.427 39.148 230.315 38.524 230.315 37.772C230.315 37.012 230.423 36.388 230.639 35.9C230.855 35.412 231.167 35.048 231.575 34.808C231.983 34.568 232.471 34.448 233.039 34.448C233.647 34.448 234.191 34.588 234.671 34.868C235.159 35.14 235.543 35.524 235.823 36.02C236.111 36.516 236.255 37.1 236.255 37.772C236.255 38.452 236.111 39.04 235.823 39.536C235.543 40.032 235.159 40.416 234.671 40.688C234.191 40.96 233.647 41.096 233.039 41.096ZM229.223 43.328V34.544H231.011V35.864L230.975 37.784L231.095 39.692V43.328H229.223ZM232.715 39.56C233.027 39.56 233.303 39.488 233.543 39.344C233.791 39.2 233.987 38.996 234.131 38.732C234.283 38.46 234.359 38.14 234.359 37.772C234.359 37.396 234.283 37.076 234.131 36.812C233.987 36.548 233.791 36.344 233.543 36.2C233.303 36.056 233.027 35.984 232.715 35.984C232.403 35.984 232.123 36.056 231.875 36.2C231.627 36.344 231.431 36.548 231.287 36.812C231.143 37.076 231.071 37.396 231.071 37.772C231.071 38.14 231.143 38.46 231.287 38.732C231.431 38.996 231.627 39.2 231.875 39.344C232.123 39.488 232.403 39.56 232.715 39.56ZM241.325 41.096C240.781 41.096 240.305 40.976 239.897 40.736C239.489 40.496 239.169 40.132 238.937 39.644C238.713 39.148 238.601 38.524 238.601 37.772C238.601 37.012 238.709 36.388 238.925 35.9C239.141 35.412 239.453 35.048 239.861 34.808C240.269 34.568 240.757 34.448 241.325 34.448C241.933 34.448 242.477 34.588 242.957 34.868C243.445 35.14 243.829 35.524 244.109 36.02C244.397 36.516 244.541 37.1 244.541 37.772C244.541 38.452 244.397 39.04 244.109 39.536C243.829 40.032 243.445 40.416 242.957 40.688C242.477 40.96 241.933 41.096 241.325 41.096ZM237.509 43.328V34.544H239.297V35.864L239.261 37.784L239.381 39.692V43.328H237.509ZM241.001 39.56C241.313 39.56 241.589 39.488 241.829 39.344C242.077 39.2 242.273 38.996 242.417 38.732C242.569 38.46 242.645 38.14 242.645 37.772C242.645 37.396 242.569 37.076 242.417 36.812C242.273 36.548 242.077 36.344 241.829 36.2C241.589 36.056 241.313 35.984 241.001 35.984C240.689 35.984 240.409 36.056 240.161 36.2C239.913 36.344 239.717 36.548 239.573 36.812C239.429 37.076 239.357 37.396 239.357 37.772C239.357 38.14 239.429 38.46 239.573 38.732C239.717 38.996 239.913 39.2 240.161 39.344C240.409 39.488 240.689 39.56 241.001 39.56ZM249.42 41V34.4C249.42 33.672 249.636 33.092 250.068 32.66C250.5 32.22 251.116 32 251.916 32C252.188 32 252.448 32.028 252.696 32.084C252.952 32.14 253.168 32.228 253.344 32.348L252.852 33.704C252.748 33.632 252.632 33.576 252.504 33.536C252.376 33.496 252.24 33.476 252.096 33.476C251.824 33.476 251.612 33.556 251.46 33.716C251.316 33.868 251.244 34.1 251.244 34.412V35.012L251.292 35.816V41H249.42ZM248.424 36.128V34.688H252.9V36.128H248.424ZM256.823 41.096C256.135 41.096 255.523 40.952 254.987 40.664C254.459 40.376 254.039 39.984 253.727 39.488C253.423 38.984 253.271 38.412 253.271 37.772C253.271 37.124 253.423 36.552 253.727 36.056C254.039 35.552 254.459 35.16 254.987 34.88C255.523 34.592 256.135 34.448 256.823 34.448C257.503 34.448 258.111 34.592 258.647 34.88C259.183 35.16 259.603 35.548 259.907 36.044C260.211 36.54 260.363 37.116 260.363 37.772C260.363 38.412 260.211 38.984 259.907 39.488C259.603 39.984 259.183 40.376 258.647 40.664C258.111 40.952 257.503 41.096 256.823 41.096ZM256.823 39.56C257.135 39.56 257.415 39.488 257.663 39.344C257.911 39.2 258.107 38.996 258.251 38.732C258.395 38.46 258.467 38.14 258.467 37.772C258.467 37.396 258.395 37.076 258.251 36.812C258.107 36.548 257.911 36.344 257.663 36.2C257.415 36.056 257.135 35.984 256.823 35.984C256.511 35.984 256.231 36.056 255.983 36.2C255.735 36.344 255.535 36.548 255.383 36.812C255.239 37.076 255.167 37.396 255.167 37.772C255.167 38.14 255.239 38.46 255.383 38.732C255.535 38.996 255.735 39.2 255.983 39.344C256.231 39.488 256.511 39.56 256.823 39.56ZM261.614 41V34.544H263.402V36.368L263.15 35.84C263.342 35.384 263.65 35.04 264.074 34.808C264.498 34.568 265.014 34.448 265.622 34.448V36.176C265.542 36.168 265.47 36.164 265.406 36.164C265.342 36.156 265.274 36.152 265.202 36.152C264.69 36.152 264.274 36.3 263.954 36.596C263.642 36.884 263.486 37.336 263.486 37.952V41H261.614ZM274.332 41.144C273.684 41.144 273.08 41.04 272.52 40.832C271.968 40.616 271.488 40.312 271.08 39.92C270.672 39.528 270.352 39.068 270.12 38.54C269.896 38.012 269.784 37.432 269.784 36.8C269.784 36.168 269.896 35.588 270.12 35.06C270.352 34.532 270.672 34.072 271.08 33.68C271.496 33.288 271.98 32.988 272.532 32.78C273.084 32.564 273.688 32.456 274.344 32.456C275.072 32.456 275.728 32.584 276.312 32.84C276.904 33.088 277.4 33.456 277.8 33.944L276.552 35.096C276.264 34.768 275.944 34.524 275.592 34.364C275.24 34.196 274.856 34.112 274.44 34.112C274.048 34.112 273.688 34.176 273.36 34.304C273.032 34.432 272.748 34.616 272.508 34.856C272.268 35.096 272.08 35.38 271.944 35.708C271.816 36.036 271.752 36.4 271.752 36.8C271.752 37.2 271.816 37.564 271.944 37.892C272.08 38.22 272.268 38.504 272.508 38.744C272.748 38.984 273.032 39.168 273.36 39.296C273.688 39.424 274.048 39.488 274.44 39.488C274.856 39.488 275.24 39.408 275.592 39.248C275.944 39.08 276.264 38.828 276.552 38.492L277.8 39.644C277.4 40.132 276.904 40.504 276.312 40.76C275.728 41.016 275.068 41.144 274.332 41.144ZM282.905 34.448C283.417 34.448 283.873 34.552 284.273 34.76C284.681 34.96 285.001 35.272 285.233 35.696C285.465 36.112 285.581 36.648 285.581 37.304V41H283.709V37.592C283.709 37.072 283.593 36.688 283.361 36.44C283.137 36.192 282.817 36.068 282.401 36.068C282.105 36.068 281.837 36.132 281.597 36.26C281.365 36.38 281.181 36.568 281.045 36.824C280.917 37.08 280.853 37.408 280.853 37.808V41H278.981V32.096H280.853V36.332L280.433 35.792C280.665 35.36 280.997 35.028 281.429 34.796C281.861 34.564 282.353 34.448 282.905 34.448ZM287.278 41V34.544H289.15V41H287.278ZM288.214 33.644C287.87 33.644 287.59 33.544 287.374 33.344C287.158 33.144 287.05 32.896 287.05 32.6C287.05 32.304 287.158 32.056 287.374 31.856C287.59 31.656 287.87 31.556 288.214 31.556C288.558 31.556 288.838 31.652 289.054 31.844C289.27 32.028 289.378 32.268 289.378 32.564C289.378 32.876 289.27 33.136 289.054 33.344C288.846 33.544 288.566 33.644 288.214 33.644ZM294.811 34.448C295.323 34.448 295.779 34.552 296.179 34.76C296.587 34.96 296.907 35.272 297.139 35.696C297.371 36.112 297.487 36.648 297.487 37.304V41H295.615V37.592C295.615 37.072 295.499 36.688 295.267 36.44C295.043 36.192 294.723 36.068 294.307 36.068C294.011 36.068 293.743 36.132 293.503 36.26C293.271 36.38 293.087 36.568 292.951 36.824C292.823 37.08 292.759 37.408 292.759 37.808V41H290.887V34.544H292.675V36.332L292.339 35.792C292.571 35.36 292.903 35.028 293.335 34.796C293.767 34.564 294.259 34.448 294.811 34.448ZM302.435 41.096C301.699 41.096 301.051 40.952 300.491 40.664C299.939 40.376 299.511 39.984 299.207 39.488C298.903 38.984 298.751 38.412 298.751 37.772C298.751 37.124 298.899 36.552 299.195 36.056C299.499 35.552 299.911 35.16 300.431 34.88C300.951 34.592 301.539 34.448 302.195 34.448C302.827 34.448 303.395 34.584 303.899 34.856C304.411 35.12 304.815 35.504 305.111 36.008C305.407 36.504 305.555 37.1 305.555 37.796C305.555 37.868 305.551 37.952 305.543 38.048C305.535 38.136 305.527 38.22 305.519 38.3H300.275V37.208H304.535L303.815 37.532C303.815 37.196 303.747 36.904 303.611 36.656C303.475 36.408 303.287 36.216 303.047 36.08C302.807 35.936 302.527 35.864 302.207 35.864C301.887 35.864 301.603 35.936 301.355 36.08C301.115 36.216 300.927 36.412 300.791 36.668C300.655 36.916 300.587 37.212 300.587 37.556V37.844C300.587 38.196 300.663 38.508 300.815 38.78C300.975 39.044 301.195 39.248 301.475 39.392C301.763 39.528 302.099 39.596 302.483 39.596C302.827 39.596 303.127 39.544 303.383 39.44C303.647 39.336 303.887 39.18 304.103 38.972L305.099 40.052C304.803 40.388 304.431 40.648 303.983 40.832C303.535 41.008 303.019 41.096 302.435 41.096ZM308.974 41.096C308.422 41.096 307.89 41.032 307.378 40.904C306.874 40.768 306.474 40.6 306.178 40.4L306.802 39.056C307.098 39.24 307.446 39.392 307.846 39.512C308.254 39.624 308.654 39.68 309.046 39.68C309.478 39.68 309.782 39.628 309.958 39.524C310.142 39.42 310.234 39.276 310.234 39.092C310.234 38.94 310.162 38.828 310.018 38.756C309.882 38.676 309.698 38.616 309.465 38.576C309.234 38.536 308.978 38.496 308.698 38.456C308.426 38.416 308.15 38.364 307.87 38.3C307.59 38.228 307.334 38.124 307.102 37.988C306.87 37.852 306.682 37.668 306.538 37.436C306.402 37.204 306.333 36.904 306.333 36.536C306.333 36.128 306.45 35.768 306.682 35.456C306.922 35.144 307.266 34.9 307.714 34.724C308.162 34.54 308.698 34.448 309.322 34.448C309.762 34.448 310.21 34.496 310.666 34.592C311.122 34.688 311.502 34.828 311.806 35.012L311.182 36.344C310.87 36.16 310.554 36.036 310.234 35.972C309.922 35.9 309.618 35.864 309.322 35.864C308.906 35.864 308.602 35.92 308.41 36.032C308.218 36.144 308.122 36.288 308.122 36.464C308.122 36.624 308.19 36.744 308.326 36.824C308.47 36.904 308.658 36.968 308.89 37.016C309.122 37.064 309.374 37.108 309.646 37.148C309.926 37.18 310.206 37.232 310.486 37.304C310.766 37.376 311.018 37.48 311.242 37.616C311.474 37.744 311.662 37.924 311.806 38.156C311.95 38.38 312.022 38.676 312.022 39.044C312.022 39.444 311.902 39.8 311.662 40.112C311.422 40.416 311.074 40.656 310.618 40.832C310.17 41.008 309.622 41.096 308.974 41.096ZM316.381 41.096C315.645 41.096 314.997 40.952 314.437 40.664C313.885 40.376 313.457 39.984 313.153 39.488C312.849 38.984 312.697 38.412 312.697 37.772C312.697 37.124 312.845 36.552 313.141 36.056C313.445 35.552 313.857 35.16 314.377 34.88C314.897 34.592 315.485 34.448 316.141 34.448C316.773 34.448 317.341 34.584 317.845 34.856C318.357 35.12 318.761 35.504 319.057 36.008C319.353 36.504 319.501 37.1 319.501 37.796C319.501 37.868 319.497 37.952 319.489 38.048C319.481 38.136 319.473 38.22 319.465 38.3H314.221V37.208H318.48L317.761 37.532C317.761 37.196 317.693 36.904 317.557 36.656C317.421 36.408 317.233 36.216 316.993 36.08C316.753 35.936 316.473 35.864 316.153 35.864C315.833 35.864 315.549 35.936 315.301 36.08C315.061 36.216 314.873 36.412 314.737 36.668C314.601 36.916 314.533 37.212 314.533 37.556V37.844C314.533 38.196 314.609 38.508 314.761 38.78C314.921 39.044 315.141 39.248 315.421 39.392C315.709 39.528 316.045 39.596 316.429 39.596C316.773 39.596 317.073 39.544 317.329 39.44C317.593 39.336 317.833 39.18 318.049 38.972L319.045 40.052C318.749 40.388 318.377 40.648 317.929 40.832C317.481 41.008 316.965 41.096 316.381 41.096ZM327.265 41.096C326.569 41.096 325.949 40.956 325.405 40.676C324.861 40.388 324.433 39.992 324.121 39.488C323.817 38.984 323.665 38.412 323.665 37.772C323.665 37.124 323.817 36.552 324.121 36.056C324.433 35.552 324.861 35.16 325.405 34.88C325.949 34.592 326.569 34.448 327.265 34.448C327.945 34.448 328.537 34.592 329.041 34.88C329.545 35.16 329.917 35.564 330.157 36.092L328.705 36.872C328.537 36.568 328.325 36.344 328.069 36.2C327.821 36.056 327.549 35.984 327.253 35.984C326.933 35.984 326.645 36.056 326.389 36.2C326.133 36.344 325.929 36.548 325.777 36.812C325.633 37.076 325.561 37.396 325.561 37.772C325.561 38.148 325.633 38.468 325.777 38.732C325.929 38.996 326.133 39.2 326.389 39.344C326.645 39.488 326.933 39.56 327.253 39.56C327.549 39.56 327.821 39.492 328.069 39.356C328.325 39.212 328.537 38.984 328.705 38.672L330.157 39.464C329.917 39.984 329.545 40.388 329.041 40.676C328.537 40.956 327.945 41.096 327.265 41.096ZM335.124 34.448C335.636 34.448 336.092 34.552 336.492 34.76C336.9 34.96 337.22 35.272 337.452 35.696C337.684 36.112 337.8 36.648 337.8 37.304V41H335.928V37.592C335.928 37.072 335.812 36.688 335.58 36.44C335.356 36.192 335.036 36.068 334.62 36.068C334.324 36.068 334.056 36.132 333.816 36.26C333.584 36.38 333.4 36.568 333.264 36.824C333.136 37.08 333.072 37.408 333.072 37.808V41H331.2V32.096H333.072V36.332L332.652 35.792C332.884 35.36 333.216 35.028 333.648 34.796C334.08 34.564 334.572 34.448 335.124 34.448ZM339.497 41V34.544H341.285V36.368L341.033 35.84C341.225 35.384 341.533 35.04 341.957 34.808C342.381 34.568 342.897 34.448 343.505 34.448V36.176C343.425 36.168 343.353 36.164 343.289 36.164C343.225 36.156 343.157 36.152 343.085 36.152C342.573 36.152 342.157 36.3 341.837 36.596C341.525 36.884 341.369 37.336 341.369 37.952V41H339.497ZM347.643 41.096C346.955 41.096 346.343 40.952 345.807 40.664C345.279 40.376 344.859 39.984 344.547 39.488C344.243 38.984 344.091 38.412 344.091 37.772C344.091 37.124 344.243 36.552 344.547 36.056C344.859 35.552 345.279 35.16 345.807 34.88C346.343 34.592 346.955 34.448 347.643 34.448C348.323 34.448 348.931 34.592 349.467 34.88C350.003 35.16 350.423 35.548 350.727 36.044C351.031 36.54 351.183 37.116 351.183 37.772C351.183 38.412 351.031 38.984 350.727 39.488C350.423 39.984 350.003 40.376 349.467 40.664C348.931 40.952 348.323 41.096 347.643 41.096ZM347.643 39.56C347.955 39.56 348.235 39.488 348.483 39.344C348.731 39.2 348.927 38.996 349.071 38.732C349.215 38.46 349.287 38.14 349.287 37.772C349.287 37.396 349.215 37.076 349.071 36.812C348.927 36.548 348.731 36.344 348.483 36.2C348.235 36.056 347.955 35.984 347.643 35.984C347.331 35.984 347.051 36.056 346.803 36.2C346.555 36.344 346.355 36.548 346.203 36.812C346.059 37.076 345.987 37.396 345.987 37.772C345.987 38.14 346.059 38.46 346.203 38.732C346.355 38.996 346.555 39.2 346.803 39.344C347.051 39.488 347.331 39.56 347.643 39.56ZM356.358 34.448C356.87 34.448 357.326 34.552 357.726 34.76C358.134 34.96 358.454 35.272 358.686 35.696C358.918 36.112 359.034 36.648 359.034 37.304V41H357.162V37.592C357.162 37.072 357.046 36.688 356.814 36.44C356.59 36.192 356.27 36.068 355.854 36.068C355.558 36.068 355.29 36.132 355.05 36.26C354.818 36.38 354.634 36.568 354.498 36.824C354.37 37.08 354.306 37.408 354.306 37.808V41H352.434V34.544H354.222V36.332L353.886 35.792C354.118 35.36 354.45 35.028 354.882 34.796C355.314 34.564 355.806 34.448 356.358 34.448ZM360.731 41V34.544H362.603V41H360.731ZM361.667 33.644C361.323 33.644 361.043 33.544 360.827 33.344C360.611 33.144 360.503 32.896 360.503 32.6C360.503 32.304 360.611 32.056 360.827 31.856C361.043 31.656 361.323 31.556 361.667 31.556C362.011 31.556 362.291 31.652 362.507 31.844C362.723 32.028 362.831 32.268 362.831 32.564C362.831 32.876 362.723 33.136 362.507 33.344C362.299 33.544 362.019 33.644 361.667 33.644ZM367.461 41.096C366.765 41.096 366.145 40.956 365.601 40.676C365.057 40.388 364.629 39.992 364.317 39.488C364.013 38.984 363.861 38.412 363.861 37.772C363.861 37.124 364.013 36.552 364.317 36.056C364.629 35.552 365.057 35.16 365.601 34.88C366.145 34.592 366.765 34.448 367.461 34.448C368.141 34.448 368.733 34.592 369.237 34.88C369.741 35.16 370.113 35.564 370.353 36.092L368.901 36.872C368.733 36.568 368.521 36.344 368.265 36.2C368.017 36.056 367.745 35.984 367.449 35.984C367.129 35.984 366.841 36.056 366.585 36.2C366.329 36.344 366.125 36.548 365.973 36.812C365.829 37.076 365.757 37.396 365.757 37.772C365.757 38.148 365.829 38.468 365.973 38.732C366.125 38.996 366.329 39.2 366.585 39.344C366.841 39.488 367.129 39.56 367.449 39.56C367.745 39.56 368.017 39.492 368.265 39.356C368.521 39.212 368.733 38.984 368.901 38.672L370.353 39.464C370.113 39.984 369.741 40.388 369.237 40.676C368.733 40.956 368.141 41.096 367.461 41.096ZM378.645 41.096C378.101 41.096 377.625 40.976 377.217 40.736C376.809 40.496 376.489 40.132 376.257 39.644C376.033 39.148 375.921 38.524 375.921 37.772C375.921 37.012 376.029 36.388 376.245 35.9C376.461 35.412 376.773 35.048 377.181 34.808C377.589 34.568 378.077 34.448 378.645 34.448C379.253 34.448 379.797 34.588 380.277 34.868C380.765 35.14 381.149 35.524 381.429 36.02C381.717 36.516 381.861 37.1 381.861 37.772C381.861 38.452 381.717 39.04 381.429 39.536C381.149 40.032 380.765 40.416 380.277 40.688C379.797 40.96 379.253 41.096 378.645 41.096ZM374.829 43.328V34.544H376.617V35.864L376.581 37.784L376.701 39.692V43.328H374.829ZM378.321 39.56C378.633 39.56 378.909 39.488 379.149 39.344C379.397 39.2 379.593 38.996 379.737 38.732C379.889 38.46 379.965 38.14 379.965 37.772C379.965 37.396 379.889 37.076 379.737 36.812C379.593 36.548 379.397 36.344 379.149 36.2C378.909 36.056 378.633 35.984 378.321 35.984C378.009 35.984 377.729 36.056 377.481 36.2C377.233 36.344 377.037 36.548 376.893 36.812C376.749 37.076 376.677 37.396 376.677 37.772C376.677 38.14 376.749 38.46 376.893 38.732C377.037 38.996 377.233 39.2 377.481 39.344C377.729 39.488 378.009 39.56 378.321 39.56ZM386.969 41V39.74L386.849 39.464V37.208C386.849 36.808 386.725 36.496 386.477 36.272C386.237 36.048 385.865 35.936 385.361 35.936C385.017 35.936 384.677 35.992 384.341 36.104C384.013 36.208 383.733 36.352 383.501 36.536L382.829 35.228C383.181 34.98 383.605 34.788 384.101 34.652C384.597 34.516 385.101 34.448 385.613 34.448C386.597 34.448 387.361 34.68 387.905 35.144C388.449 35.608 388.721 36.332 388.721 37.316V41H386.969ZM385.001 41.096C384.497 41.096 384.065 41.012 383.705 40.844C383.345 40.668 383.069 40.432 382.877 40.136C382.685 39.84 382.589 39.508 382.589 39.14C382.589 38.756 382.681 38.42 382.865 38.132C383.057 37.844 383.357 37.62 383.765 37.46C384.173 37.292 384.705 37.208 385.361 37.208H387.077V38.3H385.565C385.125 38.3 384.821 38.372 384.653 38.516C384.493 38.66 384.413 38.84 384.413 39.056C384.413 39.296 384.505 39.488 384.689 39.632C384.881 39.768 385.141 39.836 385.469 39.836C385.781 39.836 386.061 39.764 386.309 39.62C386.557 39.468 386.737 39.248 386.849 38.96L387.137 39.824C387.001 40.24 386.753 40.556 386.393 40.772C386.033 40.988 385.569 41.096 385.001 41.096ZM393.055 41.096C392.295 41.096 391.703 40.904 391.279 40.52C390.855 40.128 390.643 39.548 390.643 38.78V33.116H392.515V38.756C392.515 39.028 392.587 39.24 392.731 39.392C392.875 39.536 393.071 39.608 393.319 39.608C393.615 39.608 393.867 39.528 394.075 39.368L394.579 40.688C394.387 40.824 394.155 40.928 393.883 41C393.619 41.064 393.343 41.096 393.055 41.096ZM389.647 36.128V34.688H394.123V36.128H389.647ZM395.63 41V34.544H397.502V41H395.63ZM396.566 33.644C396.222 33.644 395.942 33.544 395.726 33.344C395.51 33.144 395.402 32.896 395.402 32.6C395.402 32.304 395.51 32.056 395.726 31.856C395.942 31.656 396.222 31.556 396.566 31.556C396.91 31.556 397.19 31.652 397.406 31.844C397.622 32.028 397.73 32.268 397.73 32.564C397.73 32.876 397.622 33.136 397.406 33.344C397.198 33.544 396.918 33.644 396.566 33.644ZM402.443 41.096C401.707 41.096 401.059 40.952 400.499 40.664C399.947 40.376 399.519 39.984 399.215 39.488C398.911 38.984 398.759 38.412 398.759 37.772C398.759 37.124 398.907 36.552 399.203 36.056C399.507 35.552 399.919 35.16 400.439 34.88C400.959 34.592 401.547 34.448 402.203 34.448C402.835 34.448 403.403 34.584 403.907 34.856C404.419 35.12 404.823 35.504 405.119 36.008C405.415 36.504 405.563 37.1 405.563 37.796C405.563 37.868 405.559 37.952 405.551 38.048C405.543 38.136 405.535 38.22 405.527 38.3H400.283V37.208H404.543L403.823 37.532C403.823 37.196 403.755 36.904 403.619 36.656C403.483 36.408 403.295 36.216 403.055 36.08C402.815 35.936 402.535 35.864 402.215 35.864C401.895 35.864 401.611 35.936 401.363 36.08C401.123 36.216 400.935 36.412 400.799 36.668C400.663 36.916 400.595 37.212 400.595 37.556V37.844C400.595 38.196 400.671 38.508 400.823 38.78C400.983 39.044 401.203 39.248 401.483 39.392C401.771 39.528 402.107 39.596 402.491 39.596C402.835 39.596 403.135 39.544 403.391 39.44C403.655 39.336 403.895 39.18 404.111 38.972L405.107 40.052C404.811 40.388 404.439 40.648 403.991 40.832C403.543 41.008 403.027 41.096 402.443 41.096ZM410.733 34.448C411.245 34.448 411.701 34.552 412.101 34.76C412.509 34.96 412.829 35.272 413.061 35.696C413.293 36.112 413.409 36.648 413.409 37.304V41H411.537V37.592C411.537 37.072 411.421 36.688 411.189 36.44C410.965 36.192 410.645 36.068 410.229 36.068C409.933 36.068 409.665 36.132 409.425 36.26C409.193 36.38 409.009 36.568 408.873 36.824C408.745 37.08 408.681 37.408 408.681 37.808V41H406.809V34.544H408.597V36.332L408.261 35.792C408.493 35.36 408.825 35.028 409.257 34.796C409.689 34.564 410.181 34.448 410.733 34.448ZM417.746 41.096C416.986 41.096 416.394 40.904 415.97 40.52C415.546 40.128 415.334 39.548 415.334 38.78V33.116H417.206V38.756C417.206 39.028 417.278 39.24 417.422 39.392C417.566 39.536 417.762 39.608 418.01 39.608C418.306 39.608 418.558 39.528 418.766 39.368L419.27 40.688C419.078 40.824 418.846 40.928 418.574 41C418.31 41.064 418.034 41.096 417.746 41.096ZM414.338 36.128V34.688H418.814V36.128H414.338ZM422.493 41.096C421.941 41.096 421.409 41.032 420.897 40.904C420.393 40.768 419.993 40.6 419.697 40.4L420.321 39.056C420.617 39.24 420.965 39.392 421.365 39.512C421.773 39.624 422.173 39.68 422.565 39.68C422.997 39.68 423.301 39.628 423.477 39.524C423.661 39.42 423.753 39.276 423.753 39.092C423.753 38.94 423.681 38.828 423.537 38.756C423.401 38.676 423.217 38.616 422.985 38.576C422.753 38.536 422.497 38.496 422.217 38.456C421.945 38.416 421.669 38.364 421.389 38.3C421.109 38.228 420.853 38.124 420.621 37.988C420.389 37.852 420.201 37.668 420.057 37.436C419.921 37.204 419.853 36.904 419.853 36.536C419.853 36.128 419.969 35.768 420.201 35.456C420.441 35.144 420.785 34.9 421.233 34.724C421.681 34.54 422.217 34.448 422.841 34.448C423.281 34.448 423.729 34.496 424.185 34.592C424.641 34.688 425.021 34.828 425.325 35.012L424.701 36.344C424.389 36.16 424.073 36.036 423.753 35.972C423.441 35.9 423.137 35.864 422.841 35.864C422.425 35.864 422.121 35.92 421.929 36.032C421.737 36.144 421.641 36.288 421.641 36.464C421.641 36.624 421.709 36.744 421.845 36.824C421.989 36.904 422.177 36.968 422.409 37.016C422.641 37.064 422.893 37.108 423.165 37.148C423.445 37.18 423.725 37.232 424.005 37.304C424.285 37.376 424.537 37.48 424.761 37.616C424.993 37.744 425.181 37.924 425.325 38.156C425.469 38.38 425.541 38.676 425.541 39.044C425.541 39.444 425.421 39.8 425.181 40.112C424.941 40.416 424.593 40.656 424.137 40.832C423.689 41.008 423.141 41.096 422.493 41.096Z" fill="#12296F"/>
<path d="M41.1744 1.8825L49.0259 1.89398L56.8773 9.66506L64.7172 1.89398H72.5687L80.4201 9.66506V17.4361L56.8773 40.7494L33.323 17.4361V9.66506L41.1744 1.8825Z" stroke="#EA7C23" stroke-width="0.348837"/>
<path d="M48.7389 1.8825L33.2427 17.218" stroke="#EA7C23" stroke-width="0.348837"/>
<path d="M48.762 9.73393L41.209 17.2066" stroke="#EA7C23" stroke-width="0.348837"/>
<path d="M56.6938 9.71097L41.186 25.0695" stroke="#EA7C23" stroke-width="0.348837"/>
<path d="M72.5916 1.90546L49.1865 25.081" stroke="#EA7C23" stroke-width="0.348837"/>
<path d="M72.5458 9.74541L49.5195 32.8865H64.9239" stroke="#EA7C23" stroke-width="0.348837"/>
<path d="M80.3858 9.80281L56.9922 32.9668" stroke="#EA7C23" stroke-width="0.348837"/>
<path d="M33.0476 17.4476H80.6383" stroke="#EA7C23" stroke-width="0.348837"/>
<path d="M41.0139 25.2761H72.741" stroke="#EA7C23" stroke-width="0.348837"/>
<path d="M33.0706 9.67653H80.6383" stroke="#EA7C23" stroke-width="0.348837"/>
<path d="M41.0023 3.25996C41.3242 3.2577 41.6382 3.16018 41.9047 2.9797C42.1712 2.79922 42.3784 2.54387 42.5 2.24584C42.6216 1.94781 42.6522 1.62044 42.5881 1.30502C42.5239 0.989594 42.3677 0.700235 42.1393 0.473426C41.9109 0.246617 41.6205 0.0925125 41.3046 0.0305443C40.9887 -0.0314239 40.6616 0.0015184 40.3644 0.125217C40.0673 0.248917 39.8134 0.457834 39.6348 0.725628C39.4562 0.993421 39.3608 1.3081 39.3608 1.62999C39.3608 1.84501 39.4034 2.05791 39.486 2.25642C39.5686 2.45493 39.6897 2.63512 39.8423 2.78663C39.9949 2.93814 40.1759 3.05796 40.375 3.1392C40.5741 3.22044 40.7873 3.26148 41.0023 3.25996Z" fill="white"/>
<path d="M48.9342 3.25995C49.2566 3.25995 49.5717 3.16435 49.8397 2.98525C50.1078 2.80615 50.3167 2.55158 50.4401 2.25374C50.5634 1.9559 50.5957 1.62817 50.5328 1.31198C50.4699 0.995799 50.3147 0.705365 50.0867 0.477409C49.8588 0.249453 49.5684 0.0942132 49.2522 0.0313202C48.936 -0.0315727 48.6082 0.000706249 48.3104 0.124075C48.0126 0.247444 47.758 0.456362 47.5789 0.72441C47.3998 0.992458 47.3042 1.3076 47.3042 1.62998C47.3042 2.06227 47.4759 2.47686 47.7816 2.78254C48.0873 3.08822 48.5019 3.25995 48.9342 3.25995Z" fill="white"/>
<path d="M41.0023 11.1573C41.3242 11.155 41.6382 11.0575 41.9047 10.877C42.1712 10.6966 42.3784 10.4412 42.5 10.1432C42.6216 9.84514 42.6522 9.51777 42.5881 9.20235C42.5239 8.88693 42.3677 8.59757 42.1393 8.37076C41.9109 8.14395 41.6205 7.98984 41.3046 7.92788C40.9887 7.86591 40.6616 7.89885 40.3644 8.02255C40.0673 8.14625 39.8134 8.35517 39.6348 8.62296C39.4562 8.89075 39.3608 9.20543 39.3608 9.52732C39.3639 9.96067 39.5381 10.3752 39.8457 10.6806C40.1532 10.9859 40.5689 11.1573 41.0023 11.1573Z" fill="white"/>
<path d="M33.0707 19.0546C33.3925 19.0524 33.7065 18.9548 33.9731 18.7744C34.2396 18.5939 34.4467 18.3385 34.5683 18.0405C34.69 17.7425 34.7206 17.4151 34.6564 17.0997C34.5922 16.7843 34.4361 16.4949 34.2077 16.2681C33.9793 16.0413 33.6888 15.8872 33.373 15.8252C33.0571 15.7632 32.73 15.7962 32.4328 15.9199C32.1356 16.0436 31.8817 16.2525 31.7031 16.5203C31.5245 16.7881 31.4292 17.1028 31.4292 17.4247C31.4322 17.858 31.6065 18.2726 31.914 18.5779C32.2215 18.8833 32.6373 19.0546 33.0707 19.0546Z" fill="white"/>
<path d="M41.0023 19.0546C41.3242 19.0524 41.6382 18.9548 41.9047 18.7744C42.1712 18.5939 42.3784 18.3385 42.5 18.0405C42.6216 17.7425 42.6522 17.4151 42.5881 17.0997C42.5239 16.7843 42.3677 16.4949 42.1393 16.2681C41.9109 16.0413 41.6205 15.8872 41.3046 15.8252C40.9887 15.7632 40.6616 15.7962 40.3644 15.9199C40.0673 16.0436 39.8134 16.2525 39.6348 16.5203C39.4562 16.7881 39.3608 17.1028 39.3608 17.4247C39.3639 17.858 39.5381 18.2726 39.8457 18.5779C40.1532 18.8833 40.5689 19.0546 41.0023 19.0546Z" fill="white"/>
<path d="M48.9342 19.0202C49.2561 19.0179 49.5701 18.9204 49.8366 18.7399C50.1031 18.5595 50.3103 18.3041 50.4319 18.0061C50.5535 17.7081 50.5841 17.3807 50.5199 17.0653C50.4558 16.7498 50.2996 16.4605 50.0712 16.2337C49.8428 16.0069 49.5524 15.8528 49.2365 15.7908C48.9206 15.7288 48.5935 15.7618 48.2963 15.8855C47.9991 16.0092 47.7452 16.2181 47.5666 16.4859C47.388 16.7537 47.2927 17.0683 47.2927 17.3902C47.2927 17.6053 47.3353 17.8182 47.4179 18.0167C47.5005 18.2152 47.6216 18.3954 47.7742 18.5469C47.9268 18.6984 48.1078 18.8182 48.3069 18.8994C48.506 18.9807 48.7192 19.0217 48.9342 19.0202Z" fill="white"/>
<path d="M41.0138 26.9635C41.3361 26.9635 41.6513 26.8679 41.9193 26.6888C42.1874 26.5097 42.3963 26.2551 42.5197 25.9573C42.643 25.6594 42.6753 25.3317 42.6124 25.0155C42.5495 24.6993 42.3943 24.4089 42.1663 24.1809C41.9384 23.953 41.6479 23.7977 41.3318 23.7348C41.0156 23.6719 40.6878 23.7042 40.39 23.8276C40.0922 23.951 39.8376 24.1599 39.6585 24.4279C39.4794 24.696 39.3838 25.0111 39.3838 25.3335C39.3868 25.7649 39.5595 26.1777 39.8645 26.4827C40.1696 26.7878 40.5824 26.9605 41.0138 26.9635Z" fill="white"/>
<path d="M48.9342 26.9635C49.2566 26.9635 49.5717 26.8679 49.8397 26.6888C50.1078 26.5097 50.3167 26.2551 50.4401 25.9573C50.5634 25.6594 50.5957 25.3317 50.5328 25.0155C50.4699 24.6993 50.3147 24.4089 50.0867 24.1809C49.8588 23.953 49.5684 23.7977 49.2522 23.7348C48.936 23.6719 48.6082 23.7042 48.3104 23.8276C48.0126 23.951 47.758 24.1599 47.5789 24.4279C47.3998 24.696 47.3042 25.0111 47.3042 25.3335C47.3072 25.7649 47.4799 26.1777 47.7849 26.4827C48.09 26.7878 48.5028 26.9605 48.9342 26.9635Z" fill="white"/>
<path d="M48.9342 34.8378C49.2566 34.8378 49.5717 34.7423 49.8397 34.5631C50.1078 34.384 50.3167 34.1295 50.4401 33.8316C50.5634 33.5338 50.5957 33.2061 50.5328 32.8899C50.4699 32.5737 50.3147 32.2833 50.0867 32.0553C49.8588 31.8274 49.5684 31.6721 49.2522 31.6092C48.936 31.5463 48.6082 31.5786 48.3104 31.702C48.0126 31.8253 47.758 32.0343 47.5789 32.3023C47.3998 32.5704 47.3042 32.8855 47.3042 33.2079C47.3042 33.6402 47.4759 34.0548 47.7816 34.3604C48.0873 34.6661 48.5019 34.8378 48.9342 34.8378Z" fill="white"/>
<path d="M56.8773 34.8379C57.1992 34.8356 57.5132 34.7381 57.7797 34.5576C58.0462 34.3771 58.2534 34.1218 58.375 33.8237C58.4966 33.5257 58.5272 33.1983 58.4631 32.8829C58.3989 32.5675 58.2427 32.2781 58.0143 32.0513C57.7859 31.8245 57.4955 31.6704 57.1796 31.6084C56.8637 31.5465 56.5366 31.5794 56.2394 31.7031C55.9423 31.8268 55.6884 32.0357 55.5098 32.3035C55.3312 32.5713 55.2358 32.886 55.2358 33.2079C55.2358 33.4229 55.2784 33.6358 55.361 33.8343C55.4436 34.0328 55.5647 34.213 55.7173 34.3645C55.8699 34.516 56.0509 34.6359 56.25 34.7171C56.4491 34.7983 56.6623 34.8394 56.8773 34.8379Z" fill="white"/>
<path d="M56.8773 42.7352C57.1992 42.7329 57.5132 42.6354 57.7797 42.4549C58.0462 42.2744 58.2534 42.0191 58.375 41.7211C58.4966 41.423 58.5272 41.0957 58.4631 40.7802C58.3989 40.4648 58.2427 40.1755 58.0143 39.9487C57.7859 39.7218 57.4955 39.5677 57.1796 39.5058C56.8637 39.4438 56.5366 39.4767 56.2394 39.6004C55.9423 39.7241 55.6884 39.9331 55.5098 40.2009C55.3312 40.4686 55.2358 40.7833 55.2358 41.1052C55.2358 41.3202 55.2784 41.5331 55.361 41.7316C55.4436 41.9302 55.5647 42.1103 55.7173 42.2619C55.8699 42.4134 56.0509 42.5332 56.25 42.6144C56.4491 42.6957 56.6623 42.7367 56.8773 42.7352Z" fill="white"/>
<path d="M64.8092 34.8378C65.1301 34.8311 65.4417 34.7297 65.7052 34.5466C65.9687 34.3634 66.1722 34.1065 66.2904 33.8081C66.4085 33.5098 66.4359 33.1832 66.3691 32.8693C66.3024 32.5554 66.1445 32.2682 65.9152 32.0437C65.686 31.8192 65.3955 31.6673 65.0803 31.6072C64.7651 31.547 64.4392 31.5812 64.1433 31.7055C63.8475 31.8299 63.5949 32.0387 63.4173 32.306C63.2397 32.5732 63.1449 32.887 63.1448 33.2079C63.1433 33.4233 63.1848 33.6369 63.2668 33.8361C63.3489 34.0353 63.47 34.2162 63.6228 34.368C63.7757 34.5198 63.9574 34.6396 64.1572 34.7202C64.357 34.8009 64.5708 34.8409 64.7863 34.8378" fill="white"/>
<path d="M56.8773 26.9635C57.1992 26.9612 57.5132 26.8637 57.7797 26.6832C58.0462 26.5027 58.2534 26.2474 58.375 25.9493C58.4966 25.6513 58.5272 25.3239 58.4631 25.0085C58.3989 24.6931 58.2427 24.4037 58.0143 24.1769C57.7859 23.9501 57.4955 23.796 57.1796 23.734C56.8637 23.6721 56.5366 23.705 56.2394 23.8287C55.9423 23.9524 55.6884 24.1613 55.5098 24.4291C55.3312 24.6969 55.2358 25.0116 55.2358 25.3335C55.2389 25.7668 55.4131 26.1814 55.7206 26.4868C56.0282 26.7921 56.4439 26.9635 56.8773 26.9635Z" fill="white"/>
<path d="M64.8092 26.952C65.13 26.9452 65.4417 26.8439 65.7052 26.6607C65.9687 26.4775 66.1722 26.2207 66.2903 25.9223C66.4084 25.6239 66.4358 25.2973 66.3691 24.9834C66.3024 24.6696 66.1445 24.3823 65.9152 24.1578C65.6859 23.9333 65.3955 23.7814 65.0803 23.7213C64.7651 23.6611 64.4391 23.6954 64.1433 23.8197C63.8475 23.944 63.5949 24.1529 63.4173 24.4201C63.2396 24.6874 63.1448 25.0011 63.1448 25.322C63.1448 25.537 63.1873 25.7499 63.2699 25.9484C63.3526 26.1469 63.4737 26.3271 63.6262 26.4787C63.7788 26.6302 63.9599 26.75 64.1589 26.8312C64.358 26.9125 64.5712 26.9535 64.7862 26.952" fill="white"/>
<path d="M72.7411 26.952C73.1734 26.952 73.5879 26.7803 73.8936 26.4746C74.1993 26.1689 74.371 25.7543 74.371 25.322C74.371 24.8897 74.1993 24.4751 73.8936 24.1694C73.5879 23.8638 73.1734 23.692 72.7411 23.692C72.3088 23.692 71.8942 23.8638 71.5885 24.1694C71.2828 24.4751 71.1111 24.8897 71.1111 25.322C71.1111 25.7543 71.2828 26.1689 71.5885 26.4746C71.8942 26.7803 72.3088 26.952 72.7411 26.952Z" fill="white"/>
<path d="M72.6605 19.0776C72.9834 19.0776 73.299 18.9817 73.5673 18.8021C73.8356 18.6225 74.0445 18.3672 74.1675 18.0687C74.2905 17.7702 74.3221 17.4419 74.2583 17.1254C74.1945 16.8089 74.0381 16.5185 73.809 16.291C73.5799 16.0635 73.2884 15.9092 72.9714 15.8476C72.6545 15.786 72.3264 15.8199 72.0288 15.945C71.7311 16.0702 71.4774 16.2809 71.2997 16.5504C71.1219 16.82 71.0283 17.1362 71.0306 17.4591C71.0336 17.8894 71.2067 18.301 71.512 18.6043C71.8174 18.9075 72.2302 19.0776 72.6605 19.0776Z" fill="white"/>
<path d="M64.8092 19.0546C65.13 19.0479 65.4417 18.9465 65.7052 18.7633C65.9687 18.5802 66.1722 18.3233 66.2903 18.0249C66.4084 17.7266 66.4358 17.4 66.3691 17.0861C66.3024 16.7722 66.1445 16.485 65.9152 16.2605C65.6859 16.0359 65.3955 15.8841 65.0803 15.8239C64.7651 15.7638 64.4391 15.798 64.1433 15.9223C63.8475 16.0466 63.5949 16.2555 63.4173 16.5228C63.2396 16.79 63.1448 17.1038 63.1448 17.4247C63.1448 17.6397 63.1873 17.8526 63.2699 18.0511C63.3526 18.2496 63.4737 18.4298 63.6262 18.5813C63.7788 18.7328 63.9599 18.8526 64.1589 18.9339C64.358 19.0151 64.5712 19.0561 64.7862 19.0546" fill="white"/>
<path d="M56.8773 19.0546C57.1992 19.0524 57.5132 18.9548 57.7797 18.7744C58.0462 18.5939 58.2534 18.3385 58.375 18.0405C58.4966 17.7425 58.5272 17.4151 58.4631 17.0997C58.3989 16.7843 58.2427 16.4949 58.0143 16.2681C57.7859 16.0413 57.4955 15.8872 57.1796 15.8252C56.8637 15.7632 56.5366 15.7962 56.2394 15.9199C55.9423 16.0436 55.6884 16.2525 55.5098 16.5203C55.3312 16.7881 55.2358 17.1028 55.2358 17.4247C55.2389 17.858 55.4131 18.2726 55.7206 18.5779C56.0282 18.8833 56.4439 19.0546 56.8773 19.0546Z" fill="white"/>
<path d="M56.8773 11.1573C57.1992 11.155 57.5132 11.0575 57.7797 10.877C58.0462 10.6966 58.2534 10.4412 58.375 10.1432C58.4966 9.84514 58.5272 9.51777 58.4631 9.20235C58.3989 8.88693 58.2427 8.59757 58.0143 8.37076C57.7859 8.14395 57.4955 7.98984 57.1796 7.92788C56.8637 7.86591 56.5366 7.89885 56.2394 8.02255C55.9423 8.14625 55.6884 8.35517 55.5098 8.62296C55.3312 8.89075 55.2358 9.20543 55.2358 9.52732C55.2389 9.96067 55.4131 10.3752 55.7206 10.6806C56.0282 10.9859 56.4439 11.1573 56.8773 11.1573Z" fill="white"/>
<path d="M64.8092 3.25995C65.2415 3.25995 65.6561 3.08822 65.9617 2.78254C66.2674 2.47686 66.4391 2.06227 66.4391 1.62997C66.4391 1.19768 66.2674 0.783088 65.9617 0.477409C65.6561 0.171729 65.2415 0 64.8092 0C64.3769 0 63.9623 0.171729 63.6566 0.477409C63.3509 0.783088 63.1792 1.19768 63.1792 1.62997C63.1792 2.06227 63.3509 2.47686 63.6566 2.78254C63.9623 3.08822 64.3769 3.25995 64.8092 3.25995Z" fill="white"/>
<path d="M72.7411 3.25996C73.0629 3.2577 73.3769 3.16018 73.6435 2.9797C73.91 2.79922 74.1171 2.54387 74.2388 2.24584C74.3604 1.94781 74.391 1.62044 74.3268 1.30502C74.2626 0.989594 74.1065 0.700235 73.8781 0.473426C73.6497 0.246617 73.3592 0.0925125 73.0434 0.0305443C72.7275 -0.0314239 72.4004 0.0015184 72.1032 0.125217C71.806 0.248917 71.5521 0.457834 71.3735 0.725628C71.1949 0.993421 71.0996 1.3081 71.0996 1.62999C71.1026 2.06334 71.2769 2.4779 71.5844 2.78326C71.8919 3.08861 72.3077 3.25997 72.7411 3.25996Z" fill="white"/>
<path d="M64.8092 11.1573C65.13 11.1505 65.4417 11.0492 65.7052 10.866C65.9687 10.6828 66.1722 10.426 66.2903 10.1276C66.4084 9.82923 66.4358 9.50263 66.3691 9.18875C66.3024 8.87486 66.1445 8.58766 65.9152 8.36314C65.6859 8.13861 65.3955 7.98676 65.0803 7.92661C64.7651 7.86645 64.4391 7.90068 64.1433 8.025C63.8475 8.14931 63.5949 8.35819 63.4173 8.62544C63.2396 8.89269 63.1448 9.20643 63.1448 9.52733C63.1448 9.74235 63.1873 9.95524 63.2699 10.1538C63.3526 10.3523 63.4737 10.5325 63.6262 10.684C63.7788 10.8355 63.9599 10.9553 64.1589 11.0365C64.358 11.1178 64.5712 11.1588 64.7862 11.1573" fill="white"/>
<path d="M72.7411 11.1573C73.0634 11.1573 73.3786 11.0617 73.6466 10.8826C73.9147 10.7035 74.1236 10.4489 74.247 10.1511C74.3703 9.85324 74.4026 9.52551 74.3397 9.20932C74.2768 8.89314 74.1216 8.6027 73.8936 8.37475C73.6657 8.14679 73.3752 7.99155 73.0591 7.92866C72.7429 7.86577 72.4151 7.89805 72.1173 8.02141C71.8195 8.14478 71.5649 8.3537 71.3858 8.62175C71.2067 8.8898 71.1111 9.20494 71.1111 9.52731C71.1141 9.95868 71.2868 10.3715 71.5918 10.6766C71.8968 10.9816 72.3097 11.1543 72.7411 11.1573Z" fill="white"/>
<path d="M80.6727 19.0546C80.9951 19.0546 81.3102 18.959 81.5783 18.7799C81.8463 18.6008 82.0552 18.3463 82.1786 18.0484C82.302 17.7506 82.3342 17.4229 82.2714 17.1067C82.2085 16.7905 82.0532 16.5001 81.8253 16.2721C81.5973 16.0441 81.3069 15.8889 80.9907 15.826C80.6745 15.7631 80.3468 15.7954 80.0489 15.9188C79.7511 16.0421 79.4965 16.2511 79.3174 16.5191C79.1383 16.7872 79.0427 17.1023 79.0427 17.4247C79.0457 17.856 79.2184 18.2689 79.5235 18.5739C79.8285 18.8789 80.2413 19.0516 80.6727 19.0546Z" fill="white"/>
<path d="M48.9342 11.1573C49.2566 11.1573 49.5717 11.0617 49.8397 10.8826C50.1078 10.7035 50.3167 10.4489 50.4401 10.1511C50.5634 9.85324 50.5957 9.52551 50.5328 9.20932C50.4699 8.89314 50.3147 8.6027 50.0867 8.37475C49.8588 8.14679 49.5684 7.99155 49.2522 7.92866C48.936 7.86577 48.6082 7.89805 48.3104 8.02141C48.0126 8.14478 47.758 8.3537 47.5789 8.62175C47.3998 8.8898 47.3042 9.20494 47.3042 9.52731C47.3072 9.95868 47.4799 10.3715 47.7849 10.6766C48.09 10.9816 48.5028 11.1543 48.9342 11.1573Z" fill="white"/>
<path d="M33.0707 11.1573C33.3925 11.155 33.7065 11.0575 33.9731 10.877C34.2396 10.6966 34.4467 10.4412 34.5683 10.1432C34.69 9.84514 34.7206 9.51777 34.6564 9.20235C34.5922 8.88693 34.4361 8.59757 34.2077 8.37076C33.9793 8.14395 33.6888 7.98984 33.373 7.92788C33.0571 7.86591 32.73 7.89885 32.4328 8.02255C32.1356 8.14625 31.8817 8.35517 31.7031 8.62296C31.5245 8.89075 31.4292 9.20543 31.4292 9.52732C31.4322 9.96067 31.6065 10.3752 31.914 10.6806C32.2215 10.9859 32.6373 11.1573 33.0707 11.1573Z" fill="white"/>
<path d="M80.6727 11.1573C80.9951 11.1573 81.3102 11.0617 81.5783 10.8826C81.8463 10.7035 82.0552 10.4489 82.1786 10.1511C82.302 9.85324 82.3342 9.52551 82.2714 9.20932C82.2085 8.89314 82.0532 8.6027 81.8253 8.37475C81.5973 8.14679 81.3069 7.99155 80.9907 7.92866C80.6745 7.86577 80.3468 7.89805 80.0489 8.02141C79.7511 8.14478 79.4965 8.3537 79.3174 8.62175C79.1383 8.8898 79.0427 9.20494 79.0427 9.52731C79.0457 9.95868 79.2184 10.3715 79.5235 10.6766C79.8285 10.9816 80.2413 11.1543 80.6727 11.1573Z" fill="white"/>
<path d="M34.2529 38.4192C35.7637 38.2735 37.2606 38.0086 38.7296 37.6272C40.129 36.9457 41.7094 36.7285 43.2408 37.0073C44.7904 37.4894 46.1219 40.3935 46.1219 40.3935L41.6452 41.4611L35.7566 40.3132L34.2529 38.4192Z" fill="#C86522"/>
<path d="M0.0118949 24.5644H27.2508C27.9867 24.5578 28.6972 24.8329 29.2367 25.3335C30.1664 26.1714 38.213 34.4131 38.213 34.4131C37.8126 34.8806 37.3109 35.2508 36.746 35.4954C36.1811 35.74 35.568 35.8528 34.9531 35.825C33.5453 35.5924 32.2692 34.8586 31.3602 33.7589L28.8005 31.3368C28.8005 31.3368 28.3184 30.9695 27.9855 31.3368C27.6526 31.7042 28.1003 32.1174 28.1003 32.1174L34.1955 38.1322C35.8753 39.452 37.8409 40.3601 39.9348 40.7838C43.8146 41.7136 46.5925 42.3334 46.5925 42.3334C46.5925 42.3334 49.1178 42.8615 49.6917 44.7095C50.0264 45.7981 49.9446 46.9723 49.4621 48.0039L37.398 45.0424C35.4778 44.6389 33.596 44.0705 31.7735 43.3436C28.7086 42.1957 24.8862 40.7379 24.0483 40.405C23.2103 40.0721 19.5257 38.557 18.3778 37.2369C17.8917 36.6323 17.3456 36.0785 16.7478 35.584C16.7478 35.584 16.6445 35.3314 15.0031 35.4692C13.3616 35.6069 7.57636 36.0431 7.57636 36.0431C5.28053 34.3213 3.33286 32.1789 1.83701 29.7298C-0.263594 26.0337 0.0118949 24.5644 0.0118949 24.5644Z" fill="#EA7C23"/>
<path d="M7.61072 35.9972C6.9224 35.5211 6.26665 34.9996 5.64786 34.4361C4.84435 33.667 3.8457 32.5077 3.8457 32.5077C3.8457 32.5077 16.9429 32.5077 17.6201 32.9783C18.2974 33.4489 19.0435 35.6758 21.7869 37.2828C24.5303 38.8898 35.4121 43.0222 36.7092 43.5043C38.0063 43.9864 44.2163 45.5934 44.641 45.6737C45.0657 45.7541 49.9212 46.8216 49.9212 46.8216C49.9212 46.8216 49.8064 47.7858 49.5194 47.9695C49.2325 48.1531 44.2392 46.6609 44.2392 46.6609C44.2392 46.6609 42.5519 46.2132 40.3824 45.7311L38.3277 45.272C37.111 44.9735 36.032 44.8014 34.9645 44.4226C31.2568 43.1025 27.4918 41.7136 24.6336 40.5657C23.1386 39.9846 21.6851 39.3019 20.2832 38.5225C19.7322 38.1322 18.8713 37.5813 18.7565 37.4665C18.3892 37.0647 17.7349 36.3186 17.7349 36.3186C17.4159 36.034 17.0826 35.7659 16.7363 35.5151C16.3884 35.4393 16.0282 35.4393 15.6802 35.5151L7.61072 35.9972Z" fill="#C86522"/>
<path d="M27.9166 31.8649C27.9166 31.8649 26.3325 30.3267 26.3325 29.4314C26.3325 28.0195 27.2049 28.7886 27.7329 29.2592C28.2609 29.7298 28.5709 30.2349 30.0975 31.5549C31.6242 32.875 34.2299 34.8608 35.5384 34.7116C36.3128 34.62 37.0412 34.2958 37.6276 33.7818L38.1785 34.3443C37.8134 34.7743 37.3623 35.1231 36.8542 35.3683C36.3461 35.6134 35.7924 35.7495 35.2285 35.7676C34.4681 35.7733 33.7224 35.5579 33.082 35.1478C32.0876 34.4752 31.1781 33.6851 30.373 32.7946C30.373 32.7946 28.5479 30.9007 28.0773 31.1532C28.0146 31.1772 27.9583 31.2154 27.9128 31.2648C27.8673 31.3141 27.8338 31.3733 27.8149 31.4378C27.796 31.5022 27.7923 31.5701 27.8039 31.6362C27.8156 31.7023 27.8424 31.7649 27.8821 31.8189" fill="#C86522"/>
<path d="M78.5147 39.1883C77.0032 39.0485 75.5058 38.7835 74.038 38.3962C72.637 37.7201 71.0584 37.5032 69.5269 37.7764C67.9773 38.2585 66.6458 41.22 66.6458 41.22L71.1224 42.299L77.011 41.1511L78.5147 39.1883Z" fill="#C86522"/>
<path d="M112.744 25.345H85.5166C84.7815 25.3304 84.0695 25.6021 83.5308 26.1026C82.6011 26.952 74.5545 35.1822 74.5545 35.1822C74.9533 35.6517 75.4547 36.0232 76.0199 36.268C76.5852 36.5129 77.1992 36.6244 77.8144 36.5941C79.2202 36.3635 80.4957 35.6341 81.4073 34.5394L83.967 32.1403C83.967 32.1403 84.4491 31.773 84.782 32.1403C85.1149 32.5077 84.6672 32.9324 84.6672 32.9324L78.572 38.9357C76.8922 40.2555 74.9266 41.1636 72.8327 41.5873C68.9529 42.5171 66.175 43.1369 66.175 43.1369C66.175 43.1369 63.6497 43.6764 63.0758 45.5245C62.7373 46.6088 62.8193 47.7808 63.3054 48.8074L75.381 45.8804C77.2994 45.4701 79.1807 44.9019 81.0055 44.1815C84.0703 42.9648 87.8927 41.5758 88.7307 41.2315C89.5686 40.8871 93.2418 39.3949 94.3782 38.0634C94.8703 37.4461 95.4242 36.8807 96.0311 36.376C96.0311 36.376 96.1344 36.1235 97.7759 36.2612C99.4174 36.3989 105.203 36.8237 105.203 36.8237C107.498 35.1019 109.446 32.9594 110.942 30.5104C112.997 26.8601 112.71 25.4024 112.71 25.4024" fill="#EA7C23"/>
<path d="M105.157 36.7318C105.848 36.2636 106.504 35.7456 107.12 35.1822C107.912 34.4361 108.922 33.2882 108.922 33.2882C108.922 33.2882 95.8245 33.2882 95.1472 33.7588C94.47 34.2295 93.7239 36.4449 90.9805 38.0519C88.2371 39.6589 77.3553 43.7912 76.0582 44.2733C74.7611 44.7554 68.5511 46.3625 68.1264 46.4428L62.8462 47.5907C62.8462 47.5907 62.961 48.5549 63.2479 48.7385C63.5349 48.9222 68.5281 47.43 68.5281 47.43C68.5281 47.43 70.2155 46.9938 72.385 46.5002L74.4397 46.0411C75.575 45.8177 76.6977 45.5341 77.8029 45.1916C81.5105 43.8716 85.2756 42.4941 88.1338 41.3348C89.6288 40.7536 91.0823 40.071 92.4842 39.2916C93.0352 38.9128 93.8961 38.3618 94.0109 38.247C94.3782 37.8453 95.0325 37.0303 95.0325 37.0303C95.0325 37.0303 95.7786 36.3875 96.0311 36.2268C96.3758 36.1378 96.7348 36.1183 97.0871 36.1694L105.157 36.7318Z" fill="#C86522"/>
<path d="M84.8508 32.6339C84.8508 32.6339 86.4349 31.1073 86.4349 30.2119C86.4349 28.7886 85.5625 29.5576 85.0345 30.0398C84.5065 30.5219 84.1965 31.0154 82.6699 32.3355C81.1432 33.6555 78.5375 35.6528 77.229 35.4921C76.453 35.4063 75.723 35.0814 75.1398 34.5624L74.5889 35.1248C74.954 35.5549 75.4051 35.9037 75.9132 36.1488C76.4213 36.394 76.9751 36.53 77.5389 36.5482C78.2993 36.5538 79.045 36.3385 79.6854 35.9283C80.6789 35.2767 81.5886 34.5057 82.3944 33.6326C82.3944 33.6326 84.2195 31.7386 84.6901 31.9911C84.7528 32.0152 84.8091 32.0534 84.8546 32.1027C84.9001 32.1521 84.9336 32.2113 84.9525 32.2757C84.9714 32.3401 84.9751 32.4081 84.9635 32.4742C84.9518 32.5403 84.925 32.6028 84.8853 32.6569" fill="#C86522"/>
</svg>
