<svg width="433" height="60" viewBox="0 0 433 60" fill="none" xmlns="http://www.w3.org/2000/svg">
<path d="M125.203 31V12.824H118.035V8.6H137.555V12.824H130.387V31H125.203ZM140.344 31V8.6H150.04C152.046 8.6 153.774 8.93067 155.224 9.592C156.675 10.232 157.795 11.16 158.584 12.376C159.374 13.592 159.768 15.0427 159.768 16.728C159.768 18.392 159.374 19.832 158.584 21.048C157.795 22.2427 156.675 23.16 155.224 23.8C153.774 24.44 152.046 24.76 150.04 24.76H143.224L145.528 22.488V31H140.344ZM154.584 31L148.984 22.872H154.52L160.184 31H154.584ZM145.528 23.064L143.224 20.632H149.752C151.352 20.632 152.547 20.2907 153.336 19.608C154.126 18.904 154.52 17.944 154.52 16.728C154.52 15.4907 154.126 14.5307 153.336 13.848C152.547 13.1653 151.352 12.824 149.752 12.824H143.224L145.528 10.36V23.064ZM160.931 31L170.915 8.6H176.035L186.051 31H180.611L172.419 11.224H174.467L166.243 31H160.931ZM165.923 26.2L167.299 22.264H178.819L180.227 26.2H165.923ZM198.783 31.384C197.055 31.384 195.444 31.1067 193.951 30.552C192.479 29.976 191.199 29.1653 190.111 28.12C189.023 27.0747 188.17 25.848 187.551 24.44C186.954 23.032 186.655 21.4853 186.655 19.8C186.655 18.1147 186.954 16.568 187.551 15.16C188.17 13.752 189.023 12.5253 190.111 11.48C191.22 10.4347 192.511 9.63467 193.983 9.08C195.455 8.504 197.066 8.216 198.815 8.216C200.756 8.216 202.506 8.55733 204.063 9.24C205.642 9.90133 206.964 10.8827 208.031 12.184L204.703 15.256C203.935 14.3813 203.082 13.7307 202.143 13.304C201.204 12.856 200.18 12.632 199.071 12.632C198.026 12.632 197.066 12.8027 196.191 13.144C195.316 13.4853 194.559 13.976 193.919 14.616C193.279 15.256 192.778 16.0133 192.415 16.888C192.074 17.7627 191.903 18.7333 191.903 19.8C191.903 20.8667 192.074 21.8373 192.415 22.712C192.778 23.5867 193.279 24.344 193.919 24.984C194.559 25.624 195.316 26.1147 196.191 26.456C197.066 26.7973 198.026 26.968 199.071 26.968C200.18 26.968 201.204 26.7547 202.143 26.328C203.082 25.88 203.935 25.208 204.703 24.312L208.031 27.384C206.964 28.6853 205.642 29.6773 204.063 30.36C202.506 31.0427 200.746 31.384 198.783 31.384ZM216.172 25.88L215.884 19.896L226.604 8.6H232.364L222.7 19L219.82 22.072L216.172 25.88ZM211.532 31V8.6H216.684V31H211.532ZM226.86 31L218.892 21.24L222.284 17.56L232.908 31H226.86ZM245.127 31.384C243.399 31.384 241.788 31.1067 240.295 30.552C238.823 29.976 237.543 29.1653 236.455 28.12C235.367 27.0747 234.513 25.848 233.895 24.44C233.297 23.032 232.999 21.4853 232.999 19.8C232.999 18.1147 233.297 16.568 233.895 15.16C234.513 13.752 235.367 12.5253 236.455 11.48C237.564 10.4347 238.855 9.63467 240.327 9.08C241.799 8.504 243.409 8.216 245.159 8.216C247.1 8.216 248.849 8.55733 250.407 9.24C251.985 9.90133 253.308 10.8827 254.375 12.184L251.047 15.256C250.279 14.3813 249.425 13.7307 248.487 13.304C247.548 12.856 246.524 12.632 245.415 12.632C244.369 12.632 243.409 12.8027 242.535 13.144C241.66 13.4853 240.903 13.976 240.263 14.616C239.623 15.256 239.121 16.0133 238.759 16.888C238.417 17.7627 238.247 18.7333 238.247 19.8C238.247 20.8667 238.417 21.8373 238.759 22.712C239.121 23.5867 239.623 24.344 240.263 24.984C240.903 25.624 241.66 26.1147 242.535 26.456C243.409 26.7973 244.369 26.968 245.415 26.968C246.524 26.968 247.548 26.7547 248.487 26.328C249.425 25.88 250.279 25.208 251.047 24.312L254.375 27.384C253.308 28.6853 251.985 29.6773 250.407 30.36C248.849 31.0427 247.089 31.384 245.127 31.384ZM268.287 31.384C266.516 31.384 264.873 31.096 263.359 30.52C261.865 29.944 260.564 29.1333 259.455 28.088C258.367 27.0427 257.513 25.816 256.895 24.408C256.297 23 255.999 21.464 255.999 19.8C255.999 18.136 256.297 16.6 256.895 15.192C257.513 13.784 258.377 12.5573 259.487 11.512C260.596 10.4667 261.897 9.656 263.391 9.08C264.884 8.504 266.505 8.216 268.255 8.216C270.025 8.216 271.647 8.504 273.119 9.08C274.612 9.656 275.903 10.4667 276.991 11.512C278.1 12.5573 278.964 13.784 279.583 15.192C280.201 16.5787 280.511 18.1147 280.511 19.8C280.511 21.464 280.201 23.0107 279.583 24.44C278.964 25.848 278.1 27.0747 276.991 28.12C275.903 29.144 274.612 29.944 273.119 30.52C271.647 31.096 270.036 31.384 268.287 31.384ZM268.255 26.968C269.257 26.968 270.175 26.7973 271.007 26.456C271.86 26.1147 272.607 25.624 273.247 24.984C273.887 24.344 274.377 23.5867 274.719 22.712C275.081 21.8373 275.263 20.8667 275.263 19.8C275.263 18.7333 275.081 17.7627 274.719 16.888C274.377 16.0133 273.887 15.256 273.247 14.616C272.628 13.976 271.892 13.4853 271.039 13.144C270.185 12.8027 269.257 12.632 268.255 12.632C267.252 12.632 266.324 12.8027 265.471 13.144C264.639 13.4853 263.903 13.976 263.263 14.616C262.623 15.256 262.121 16.0133 261.759 16.888C261.417 17.7627 261.247 18.7333 261.247 19.8C261.247 20.8453 261.417 21.816 261.759 22.712C262.121 23.5867 262.612 24.344 263.231 24.984C263.871 25.624 264.617 26.1147 265.471 26.456C266.324 26.7973 267.252 26.968 268.255 26.968ZM284.407 31V8.6H289.591V31H284.407ZM294.907 31V8.6H299.195L312.411 24.728H310.331V8.6H315.451V31H311.195L297.947 14.872H300.027V31H294.907Z" fill="white"/>
<path d="M128.016 53.144C127.16 53.144 126.384 52.96 125.688 52.592C125 52.216 124.456 51.7 124.056 51.044C123.664 50.38 123.468 49.632 123.468 48.8C123.468 47.968 123.664 47.224 124.056 46.568C124.456 45.904 125 45.388 125.688 45.02C126.384 44.644 127.164 44.456 128.028 44.456C128.756 44.456 129.412 44.584 129.996 44.84C130.588 45.096 131.084 45.464 131.484 45.944L130.236 47.096C129.668 46.44 128.964 46.112 128.124 46.112C127.604 46.112 127.14 46.228 126.732 46.46C126.324 46.684 126.004 47 125.772 47.408C125.548 47.816 125.436 48.28 125.436 48.8C125.436 49.32 125.548 49.784 125.772 50.192C126.004 50.6 126.324 50.92 126.732 51.152C127.14 51.376 127.604 51.488 128.124 51.488C128.964 51.488 129.668 51.156 130.236 50.492L131.484 51.644C131.084 52.132 130.588 52.504 129.996 52.76C129.404 53.016 128.744 53.144 128.016 53.144ZM134.453 47.396C134.677 47.084 134.977 46.848 135.353 46.688C135.737 46.528 136.177 46.448 136.673 46.448V48.176C136.465 48.16 136.325 48.152 136.253 48.152C135.717 48.152 135.297 48.304 134.993 48.608C134.689 48.904 134.537 49.352 134.537 49.952V53H132.665V46.544H134.453V47.396ZM140.799 53.096C140.119 53.096 139.507 52.956 138.963 52.676C138.427 52.388 138.007 51.992 137.703 51.488C137.399 50.984 137.247 50.412 137.247 49.772C137.247 49.132 137.399 48.56 137.703 48.056C138.007 47.552 138.427 47.16 138.963 46.88C139.507 46.592 140.119 46.448 140.799 46.448C141.479 46.448 142.087 46.592 142.623 46.88C143.159 47.16 143.579 47.552 143.883 48.056C144.187 48.56 144.339 49.132 144.339 49.772C144.339 50.412 144.187 50.984 143.883 51.488C143.579 51.992 143.159 52.388 142.623 52.676C142.087 52.956 141.479 53.096 140.799 53.096ZM140.799 51.56C141.279 51.56 141.671 51.4 141.975 51.08C142.287 50.752 142.443 50.316 142.443 49.772C142.443 49.228 142.287 48.796 141.975 48.476C141.671 48.148 141.279 47.984 140.799 47.984C140.319 47.984 139.923 48.148 139.611 48.476C139.299 48.796 139.143 49.228 139.143 49.772C139.143 50.316 139.299 50.752 139.611 51.08C139.923 51.4 140.319 51.56 140.799 51.56ZM155.803 46.544V50.108C155.803 51.06 155.543 51.796 155.023 52.316C154.503 52.836 153.763 53.096 152.803 53.096C152.339 53.096 151.927 53.024 151.567 52.88C151.215 52.736 150.919 52.504 150.679 52.184C150.439 52.504 150.143 52.736 149.791 52.88C149.439 53.024 149.023 53.096 148.543 53.096C147.575 53.096 146.835 52.836 146.323 52.316C145.811 51.796 145.555 51.06 145.555 50.108V46.544H147.427V49.964C147.427 50.5 147.519 50.896 147.703 51.152C147.887 51.4 148.175 51.524 148.567 51.524C148.967 51.524 149.263 51.396 149.455 51.14C149.647 50.884 149.743 50.492 149.743 49.964V46.544H151.615V49.964C151.615 50.492 151.711 50.884 151.903 51.14C152.095 51.396 152.391 51.524 152.791 51.524C153.183 51.524 153.471 51.4 153.655 51.152C153.839 50.896 153.931 50.5 153.931 49.964V46.544H155.803ZM164.061 44.096V53H162.273V52.256C161.809 52.816 161.137 53.096 160.257 53.096C159.649 53.096 159.097 52.96 158.601 52.688C158.113 52.416 157.729 52.028 157.449 51.524C157.169 51.02 157.029 50.436 157.029 49.772C157.029 49.108 157.169 48.524 157.449 48.02C157.729 47.516 158.113 47.128 158.601 46.856C159.097 46.584 159.649 46.448 160.257 46.448C161.081 46.448 161.725 46.708 162.189 47.228V44.096H164.061ZM160.581 51.56C161.053 51.56 161.445 51.4 161.757 51.08C162.069 50.752 162.225 50.316 162.225 49.772C162.225 49.228 162.069 48.796 161.757 48.476C161.445 48.148 161.053 47.984 160.581 47.984C160.101 47.984 159.705 48.148 159.393 48.476C159.081 48.796 158.925 49.228 158.925 49.772C158.925 50.316 159.081 50.752 159.393 51.08C159.705 51.4 160.101 51.56 160.581 51.56ZM167.618 46.688H169.274V48.128H167.666V53H165.794V46.4C165.794 45.664 166.01 45.08 166.442 44.648C166.882 44.216 167.498 44 168.29 44C168.57 44 168.834 44.032 169.082 44.096C169.338 44.152 169.55 44.236 169.718 44.348L169.226 45.704C169.01 45.552 168.758 45.476 168.47 45.476C167.902 45.476 167.618 45.788 167.618 46.412V46.688ZM176.716 46.544V53H174.94V52.232C174.692 52.512 174.396 52.728 174.052 52.88C173.708 53.024 173.336 53.096 172.936 53.096C172.088 53.096 171.416 52.852 170.92 52.364C170.424 51.876 170.176 51.152 170.176 50.192V46.544H172.048V49.916C172.048 50.956 172.484 51.476 173.356 51.476C173.804 51.476 174.164 51.332 174.436 51.044C174.708 50.748 174.844 50.312 174.844 49.736V46.544H176.716ZM185.026 44.096V53H183.238V52.256C182.774 52.816 182.102 53.096 181.222 53.096C180.614 53.096 180.062 52.96 179.566 52.688C179.078 52.416 178.694 52.028 178.414 51.524C178.134 51.02 177.994 50.436 177.994 49.772C177.994 49.108 178.134 48.524 178.414 48.02C178.694 47.516 179.078 47.128 179.566 46.856C180.062 46.584 180.614 46.448 181.222 46.448C182.046 46.448 182.69 46.708 183.154 47.228V44.096H185.026ZM181.546 51.56C182.018 51.56 182.41 51.4 182.722 51.08C183.034 50.752 183.19 50.316 183.19 49.772C183.19 49.228 183.034 48.796 182.722 48.476C182.41 48.148 182.018 47.984 181.546 47.984C181.066 47.984 180.67 48.148 180.358 48.476C180.046 48.796 179.89 49.228 179.89 49.772C179.89 50.316 180.046 50.752 180.358 51.08C180.67 51.4 181.066 51.56 181.546 51.56ZM190.683 46.448C191.483 46.448 192.127 46.688 192.615 47.168C193.111 47.648 193.359 48.36 193.359 49.304V53H191.487V49.592C191.487 49.08 191.375 48.7 191.151 48.452C190.927 48.196 190.603 48.068 190.179 48.068C189.707 48.068 189.331 48.216 189.051 48.512C188.771 48.8 188.631 49.232 188.631 49.808V53H186.759V46.544H188.547V47.3C188.795 47.028 189.103 46.82 189.471 46.676C189.839 46.524 190.243 46.448 190.683 46.448ZM195.055 46.544H196.927V53H195.055V46.544ZM195.991 45.644C195.647 45.644 195.367 45.544 195.151 45.344C194.935 45.144 194.827 44.896 194.827 44.6C194.827 44.304 194.935 44.056 195.151 43.856C195.367 43.656 195.647 43.556 195.991 43.556C196.335 43.556 196.615 43.652 196.831 43.844C197.047 44.036 197.155 44.276 197.155 44.564C197.155 44.876 197.047 45.136 196.831 45.344C196.615 45.544 196.335 45.644 195.991 45.644ZM202.589 46.448C203.389 46.448 204.033 46.688 204.521 47.168C205.017 47.648 205.265 48.36 205.265 49.304V53H203.393V49.592C203.393 49.08 203.281 48.7 203.057 48.452C202.833 48.196 202.509 48.068 202.085 48.068C201.613 48.068 201.237 48.216 200.957 48.512C200.677 48.8 200.537 49.232 200.537 49.808V53H198.665V46.544H200.453V47.3C200.701 47.028 201.009 46.82 201.377 46.676C201.745 46.524 202.149 46.448 202.589 46.448ZM213.692 46.544V51.92C213.692 53.104 213.384 53.984 212.768 54.56C212.152 55.136 211.252 55.424 210.068 55.424C209.444 55.424 208.852 55.348 208.292 55.196C207.732 55.044 207.268 54.824 206.9 54.536L207.644 53.192C207.916 53.416 208.26 53.592 208.676 53.72C209.092 53.856 209.508 53.924 209.924 53.924C210.572 53.924 211.048 53.776 211.352 53.48C211.664 53.192 211.82 52.752 211.82 52.16V51.884C211.332 52.42 210.652 52.688 209.78 52.688C209.188 52.688 208.644 52.56 208.148 52.304C207.66 52.04 207.272 51.672 206.984 51.2C206.696 50.728 206.552 50.184 206.552 49.568C206.552 48.952 206.696 48.408 206.984 47.936C207.272 47.464 207.66 47.1 208.148 46.844C208.644 46.58 209.188 46.448 209.78 46.448C210.716 46.448 211.428 46.756 211.916 47.372V46.544H213.692ZM210.152 51.152C210.648 51.152 211.052 51.008 211.364 50.72C211.684 50.424 211.844 50.04 211.844 49.568C211.844 49.096 211.684 48.716 211.364 48.428C211.052 48.132 210.648 47.984 210.152 47.984C209.656 47.984 209.248 48.132 208.928 48.428C208.608 48.716 208.448 49.096 208.448 49.568C208.448 50.04 208.608 50.424 208.928 50.72C209.248 51.008 209.656 51.152 210.152 51.152ZM222.745 44.456C223.521 44.456 224.197 44.608 224.773 44.912C225.349 45.216 225.797 45.664 226.117 46.256C226.437 46.848 226.597 47.564 226.597 48.404V53H224.653V50.984H220.813V53H218.893V48.404C218.893 47.564 219.053 46.848 219.373 46.256C219.693 45.664 220.141 45.216 220.717 44.912C221.293 44.608 221.969 44.456 222.745 44.456ZM224.653 49.424V48.224C224.653 47.528 224.481 47.004 224.137 46.652C223.793 46.292 223.325 46.112 222.733 46.112C222.133 46.112 221.661 46.292 221.317 46.652C220.981 47.004 220.813 47.528 220.813 48.224V49.424H224.653ZM232.2 46.448C232.8 46.448 233.344 46.588 233.832 46.868C234.328 47.14 234.716 47.528 234.996 48.032C235.276 48.528 235.416 49.108 235.416 49.772C235.416 50.436 235.276 51.02 234.996 51.524C234.716 52.02 234.328 52.408 233.832 52.688C233.344 52.96 232.8 53.096 232.2 53.096C231.376 53.096 230.728 52.836 230.256 52.316V55.328H228.384V46.544H230.172V47.288C230.636 46.728 231.312 46.448 232.2 46.448ZM231.876 51.56C232.356 51.56 232.748 51.4 233.052 51.08C233.364 50.752 233.52 50.316 233.52 49.772C233.52 49.228 233.364 48.796 233.052 48.476C232.748 48.148 232.356 47.984 231.876 47.984C231.396 47.984 231 48.148 230.688 48.476C230.384 48.796 230.232 49.228 230.232 49.772C230.232 50.316 230.384 50.752 230.688 51.08C231 51.4 231.396 51.56 231.876 51.56ZM240.485 46.448C241.085 46.448 241.629 46.588 242.117 46.868C242.613 47.14 243.001 47.528 243.281 48.032C243.561 48.528 243.701 49.108 243.701 49.772C243.701 50.436 243.561 51.02 243.281 51.524C243.001 52.02 242.613 52.408 242.117 52.688C241.629 52.96 241.085 53.096 240.485 53.096C239.661 53.096 239.013 52.836 238.541 52.316V55.328H236.669V46.544H238.457V47.288C238.921 46.728 239.597 46.448 240.485 46.448ZM240.161 51.56C240.641 51.56 241.033 51.4 241.337 51.08C241.649 50.752 241.805 50.316 241.805 49.772C241.805 49.228 241.649 48.796 241.337 48.476C241.033 48.148 240.641 47.984 240.161 47.984C239.681 47.984 239.285 48.148 238.973 48.476C238.669 48.796 238.517 49.228 238.517 49.772C238.517 50.316 238.669 50.752 238.973 51.08C239.285 51.4 239.681 51.56 240.161 51.56ZM250.176 46.688H251.832V48.128H250.224V53H248.352V46.4C248.352 45.664 248.568 45.08 249 44.648C249.44 44.216 250.056 44 250.848 44C251.128 44 251.392 44.032 251.64 44.096C251.896 44.152 252.108 44.236 252.276 44.348L251.784 45.704C251.568 45.552 251.316 45.476 251.028 45.476C250.46 45.476 250.176 45.788 250.176 46.412V46.688ZM255.76 53.096C255.08 53.096 254.468 52.956 253.924 52.676C253.388 52.388 252.968 51.992 252.664 51.488C252.36 50.984 252.208 50.412 252.208 49.772C252.208 49.132 252.36 48.56 252.664 48.056C252.968 47.552 253.388 47.16 253.924 46.88C254.468 46.592 255.08 46.448 255.76 46.448C256.44 46.448 257.048 46.592 257.584 46.88C258.12 47.16 258.54 47.552 258.844 48.056C259.148 48.56 259.3 49.132 259.3 49.772C259.3 50.412 259.148 50.984 258.844 51.488C258.54 51.992 258.12 52.388 257.584 52.676C257.048 52.956 256.44 53.096 255.76 53.096ZM255.76 51.56C256.24 51.56 256.632 51.4 256.936 51.08C257.248 50.752 257.404 50.316 257.404 49.772C257.404 49.228 257.248 48.796 256.936 48.476C256.632 48.148 256.24 47.984 255.76 47.984C255.28 47.984 254.884 48.148 254.572 48.476C254.26 48.796 254.104 49.228 254.104 49.772C254.104 50.316 254.26 50.752 254.572 51.08C254.884 51.4 255.28 51.56 255.76 51.56ZM262.34 47.396C262.564 47.084 262.864 46.848 263.24 46.688C263.624 46.528 264.064 46.448 264.56 46.448V48.176C264.352 48.16 264.212 48.152 264.14 48.152C263.604 48.152 263.184 48.304 262.88 48.608C262.576 48.904 262.424 49.352 262.424 49.952V53H260.552V46.544H262.34V47.396ZM273.27 53.144C272.414 53.144 271.638 52.96 270.942 52.592C270.254 52.216 269.71 51.7 269.31 51.044C268.918 50.38 268.722 49.632 268.722 48.8C268.722 47.968 268.918 47.224 269.31 46.568C269.71 45.904 270.254 45.388 270.942 45.02C271.638 44.644 272.418 44.456 273.282 44.456C274.01 44.456 274.666 44.584 275.25 44.84C275.842 45.096 276.338 45.464 276.738 45.944L275.49 47.096C274.922 46.44 274.218 46.112 273.378 46.112C272.858 46.112 272.394 46.228 271.986 46.46C271.578 46.684 271.258 47 271.026 47.408C270.802 47.816 270.69 48.28 270.69 48.8C270.69 49.32 270.802 49.784 271.026 50.192C271.258 50.6 271.578 50.92 271.986 51.152C272.394 51.376 272.858 51.488 273.378 51.488C274.218 51.488 274.922 51.156 275.49 50.492L276.738 51.644C276.338 52.132 275.842 52.504 275.25 52.76C274.658 53.016 273.998 53.144 273.27 53.144ZM281.843 46.448C282.643 46.448 283.287 46.688 283.775 47.168C284.271 47.648 284.519 48.36 284.519 49.304V53H282.647V49.592C282.647 49.08 282.535 48.7 282.311 48.452C282.087 48.196 281.763 48.068 281.339 48.068C280.867 48.068 280.491 48.216 280.211 48.512C279.931 48.8 279.791 49.232 279.791 49.808V53H277.919V44.096H279.791V47.216C280.039 46.968 280.339 46.78 280.691 46.652C281.043 46.516 281.427 46.448 281.843 46.448ZM286.216 46.544H288.088V53H286.216V46.544ZM287.152 45.644C286.808 45.644 286.528 45.544 286.312 45.344C286.096 45.144 285.988 44.896 285.988 44.6C285.988 44.304 286.096 44.056 286.312 43.856C286.528 43.656 286.808 43.556 287.152 43.556C287.496 43.556 287.776 43.652 287.992 43.844C288.208 44.036 288.316 44.276 288.316 44.564C288.316 44.876 288.208 45.136 287.992 45.344C287.776 45.544 287.496 45.644 287.152 45.644ZM293.749 46.448C294.549 46.448 295.193 46.688 295.681 47.168C296.177 47.648 296.425 48.36 296.425 49.304V53H294.553V49.592C294.553 49.08 294.441 48.7 294.217 48.452C293.993 48.196 293.669 48.068 293.245 48.068C292.773 48.068 292.397 48.216 292.117 48.512C291.837 48.8 291.697 49.232 291.697 49.808V53H289.825V46.544H291.613V47.3C291.861 47.028 292.169 46.82 292.537 46.676C292.905 46.524 293.309 46.448 293.749 46.448ZM301.444 51.596C301.78 51.596 302.076 51.548 302.332 51.452C302.596 51.348 302.84 51.188 303.064 50.972L304.06 52.052C303.452 52.748 302.564 53.096 301.396 53.096C300.668 53.096 300.024 52.956 299.464 52.676C298.904 52.388 298.472 51.992 298.168 51.488C297.864 50.984 297.712 50.412 297.712 49.772C297.712 49.14 297.86 48.572 298.156 48.068C298.46 47.556 298.872 47.16 299.392 46.88C299.92 46.592 300.512 46.448 301.168 46.448C301.784 46.448 302.344 46.58 302.848 46.844C303.352 47.1 303.752 47.476 304.048 47.972C304.352 48.46 304.504 49.04 304.504 49.712L299.728 50.636C299.864 50.956 300.076 51.196 300.364 51.356C300.66 51.516 301.02 51.596 301.444 51.596ZM301.168 47.864C300.696 47.864 300.312 48.016 300.016 48.32C299.72 48.624 299.564 49.044 299.548 49.58L302.692 48.968C302.604 48.632 302.424 48.364 302.152 48.164C301.88 47.964 301.552 47.864 301.168 47.864ZM307.934 53.096C307.398 53.096 306.874 53.032 306.362 52.904C305.85 52.768 305.442 52.6 305.138 52.4L305.762 51.056C306.05 51.24 306.398 51.392 306.806 51.512C307.214 51.624 307.614 51.68 308.006 51.68C308.798 51.68 309.194 51.484 309.194 51.092C309.194 50.908 309.086 50.776 308.87 50.696C308.654 50.616 308.322 50.548 307.874 50.492C307.346 50.412 306.91 50.32 306.566 50.216C306.222 50.112 305.922 49.928 305.666 49.664C305.418 49.4 305.294 49.024 305.294 48.536C305.294 48.128 305.41 47.768 305.642 47.456C305.882 47.136 306.226 46.888 306.674 46.712C307.13 46.536 307.666 46.448 308.282 46.448C308.738 46.448 309.19 46.5 309.638 46.604C310.094 46.7 310.47 46.836 310.766 47.012L310.142 48.344C309.574 48.024 308.954 47.864 308.282 47.864C307.882 47.864 307.582 47.92 307.382 48.032C307.182 48.144 307.082 48.288 307.082 48.464C307.082 48.664 307.19 48.804 307.406 48.884C307.622 48.964 307.966 49.04 308.438 49.112C308.966 49.2 309.398 49.296 309.734 49.4C310.07 49.496 310.362 49.676 310.61 49.94C310.858 50.204 310.982 50.572 310.982 51.044C310.982 51.444 310.862 51.8 310.622 52.112C310.382 52.424 310.03 52.668 309.566 52.844C309.11 53.012 308.566 53.096 307.934 53.096ZM315.389 51.596C315.725 51.596 316.021 51.548 316.277 51.452C316.541 51.348 316.785 51.188 317.009 50.972L318.005 52.052C317.397 52.748 316.509 53.096 315.341 53.096C314.613 53.096 313.969 52.956 313.409 52.676C312.849 52.388 312.417 51.992 312.113 51.488C311.809 50.984 311.657 50.412 311.657 49.772C311.657 49.14 311.805 48.572 312.101 48.068C312.405 47.556 312.817 47.16 313.337 46.88C313.865 46.592 314.457 46.448 315.113 46.448C315.729 46.448 316.289 46.58 316.793 46.844C317.297 47.1 317.697 47.476 317.993 47.972C318.297 48.46 318.449 49.04 318.449 49.712L313.673 50.636C313.809 50.956 314.021 51.196 314.309 51.356C314.605 51.516 314.965 51.596 315.389 51.596ZM315.113 47.864C314.641 47.864 314.257 48.016 313.961 48.32C313.665 48.624 313.509 49.044 313.493 49.58L316.637 48.968C316.549 48.632 316.369 48.364 316.097 48.164C315.825 47.964 315.497 47.864 315.113 47.864ZM326.226 53.096C325.538 53.096 324.918 52.956 324.366 52.676C323.822 52.388 323.394 51.992 323.082 51.488C322.778 50.984 322.626 50.412 322.626 49.772C322.626 49.132 322.778 48.56 323.082 48.056C323.394 47.552 323.822 47.16 324.366 46.88C324.918 46.592 325.538 46.448 326.226 46.448C326.906 46.448 327.498 46.592 328.002 46.88C328.514 47.16 328.886 47.564 329.118 48.092L327.666 48.872C327.33 48.28 326.846 47.984 326.214 47.984C325.726 47.984 325.322 48.144 325.002 48.464C324.682 48.784 324.522 49.22 324.522 49.772C324.522 50.324 324.682 50.76 325.002 51.08C325.322 51.4 325.726 51.56 326.214 51.56C326.854 51.56 327.338 51.264 327.666 50.672L329.118 51.464C328.886 51.976 328.514 52.376 328.002 52.664C327.498 52.952 326.906 53.096 326.226 53.096ZM334.073 46.448C334.873 46.448 335.517 46.688 336.005 47.168C336.501 47.648 336.749 48.36 336.749 49.304V53H334.877V49.592C334.877 49.08 334.765 48.7 334.541 48.452C334.317 48.196 333.993 48.068 333.569 48.068C333.097 48.068 332.721 48.216 332.441 48.512C332.161 48.8 332.021 49.232 332.021 49.808V53H330.149V44.096H332.021V47.216C332.269 46.968 332.569 46.78 332.921 46.652C333.273 46.516 333.657 46.448 334.073 46.448ZM340.234 47.396C340.458 47.084 340.758 46.848 341.134 46.688C341.518 46.528 341.958 46.448 342.454 46.448V48.176C342.246 48.16 342.106 48.152 342.034 48.152C341.498 48.152 341.078 48.304 340.774 48.608C340.47 48.904 340.318 49.352 340.318 49.952V53H338.446V46.544H340.234V47.396ZM346.581 53.096C345.901 53.096 345.289 52.956 344.745 52.676C344.209 52.388 343.789 51.992 343.485 51.488C343.181 50.984 343.029 50.412 343.029 49.772C343.029 49.132 343.181 48.56 343.485 48.056C343.789 47.552 344.209 47.16 344.745 46.88C345.289 46.592 345.901 46.448 346.581 46.448C347.261 46.448 347.869 46.592 348.405 46.88C348.941 47.16 349.361 47.552 349.665 48.056C349.969 48.56 350.121 49.132 350.121 49.772C350.121 50.412 349.969 50.984 349.665 51.488C349.361 51.992 348.941 52.388 348.405 52.676C347.869 52.956 347.261 53.096 346.581 53.096ZM346.581 51.56C347.061 51.56 347.453 51.4 347.757 51.08C348.069 50.752 348.225 50.316 348.225 49.772C348.225 49.228 348.069 48.796 347.757 48.476C347.453 48.148 347.061 47.984 346.581 47.984C346.101 47.984 345.705 48.148 345.393 48.476C345.081 48.796 344.925 49.228 344.925 49.772C344.925 50.316 345.081 50.752 345.393 51.08C345.705 51.4 346.101 51.56 346.581 51.56ZM355.296 46.448C356.096 46.448 356.74 46.688 357.228 47.168C357.724 47.648 357.972 48.36 357.972 49.304V53H356.1V49.592C356.1 49.08 355.988 48.7 355.764 48.452C355.54 48.196 355.216 48.068 354.792 48.068C354.32 48.068 353.944 48.216 353.664 48.512C353.384 48.8 353.244 49.232 353.244 49.808V53H351.372V46.544H353.16V47.3C353.408 47.028 353.716 46.82 354.084 46.676C354.452 46.524 354.856 46.448 355.296 46.448ZM359.669 46.544H361.541V53H359.669V46.544ZM360.605 45.644C360.261 45.644 359.981 45.544 359.765 45.344C359.549 45.144 359.441 44.896 359.441 44.6C359.441 44.304 359.549 44.056 359.765 43.856C359.981 43.656 360.261 43.556 360.605 43.556C360.949 43.556 361.229 43.652 361.445 43.844C361.661 44.036 361.769 44.276 361.769 44.564C361.769 44.876 361.661 45.136 361.445 45.344C361.229 45.544 360.949 45.644 360.605 45.644ZM366.398 53.096C365.71 53.096 365.09 52.956 364.538 52.676C363.994 52.388 363.566 51.992 363.254 51.488C362.95 50.984 362.798 50.412 362.798 49.772C362.798 49.132 362.95 48.56 363.254 48.056C363.566 47.552 363.994 47.16 364.538 46.88C365.09 46.592 365.71 46.448 366.398 46.448C367.078 46.448 367.67 46.592 368.174 46.88C368.686 47.16 369.058 47.564 369.29 48.092L367.838 48.872C367.502 48.28 367.018 47.984 366.386 47.984C365.898 47.984 365.494 48.144 365.174 48.464C364.854 48.784 364.694 49.22 364.694 49.772C364.694 50.324 364.854 50.76 365.174 51.08C365.494 51.4 365.898 51.56 366.386 51.56C367.026 51.56 367.51 51.264 367.838 50.672L369.29 51.464C369.058 51.976 368.686 52.376 368.174 52.664C367.67 52.952 367.078 53.096 366.398 53.096ZM377.582 46.448C378.182 46.448 378.726 46.588 379.214 46.868C379.71 47.14 380.098 47.528 380.378 48.032C380.658 48.528 380.798 49.108 380.798 49.772C380.798 50.436 380.658 51.02 380.378 51.524C380.098 52.02 379.71 52.408 379.214 52.688C378.726 52.96 378.182 53.096 377.582 53.096C376.758 53.096 376.11 52.836 375.638 52.316V55.328H373.766V46.544H375.554V47.288C376.018 46.728 376.694 46.448 377.582 46.448ZM377.258 51.56C377.738 51.56 378.13 51.4 378.434 51.08C378.746 50.752 378.902 50.316 378.902 49.772C378.902 49.228 378.746 48.796 378.434 48.476C378.13 48.148 377.738 47.984 377.258 47.984C376.778 47.984 376.382 48.148 376.07 48.476C375.766 48.796 375.614 49.228 375.614 49.772C375.614 50.316 375.766 50.752 376.07 51.08C376.382 51.4 376.778 51.56 377.258 51.56ZM388.604 46.544V53H386.816V52.256C386.352 52.816 385.68 53.096 384.8 53.096C384.192 53.096 383.64 52.96 383.144 52.688C382.656 52.416 382.272 52.028 381.992 51.524C381.712 51.02 381.572 50.436 381.572 49.772C381.572 49.108 381.712 48.524 381.992 48.02C382.272 47.516 382.656 47.128 383.144 46.856C383.64 46.584 384.192 46.448 384.8 46.448C385.624 46.448 386.268 46.708 386.732 47.228V46.544H388.604ZM385.124 51.56C385.596 51.56 385.988 51.4 386.3 51.08C386.612 50.752 386.768 50.316 386.768 49.772C386.768 49.228 386.612 48.796 386.3 48.476C385.988 48.148 385.596 47.984 385.124 47.984C384.644 47.984 384.248 48.148 383.936 48.476C383.624 48.796 383.468 49.228 383.468 49.772C383.468 50.316 383.624 50.752 383.936 51.08C384.248 51.4 384.644 51.56 385.124 51.56ZM394.225 52.688C394.041 52.824 393.813 52.928 393.541 53C393.277 53.064 393.001 53.096 392.713 53.096C391.937 53.096 391.341 52.9 390.925 52.508C390.509 52.116 390.301 51.54 390.301 50.78V45.116H392.173V46.688H393.769V48.128H392.173V50.756C392.173 51.028 392.241 51.24 392.377 51.392C392.513 51.536 392.709 51.608 392.965 51.608C393.253 51.608 393.509 51.528 393.733 51.368L394.225 52.688ZM395.282 46.544H397.154V53H395.282V46.544ZM396.218 45.644C395.874 45.644 395.594 45.544 395.378 45.344C395.162 45.144 395.054 44.896 395.054 44.6C395.054 44.304 395.162 44.056 395.378 43.856C395.594 43.656 395.874 43.556 396.218 43.556C396.562 43.556 396.842 43.652 397.058 43.844C397.274 44.036 397.382 44.276 397.382 44.564C397.382 44.876 397.274 45.136 397.058 45.344C396.842 45.544 396.562 45.644 396.218 45.644ZM402.143 51.596C402.479 51.596 402.775 51.548 403.031 51.452C403.295 51.348 403.539 51.188 403.763 50.972L404.759 52.052C404.151 52.748 403.263 53.096 402.095 53.096C401.367 53.096 400.723 52.956 400.163 52.676C399.603 52.388 399.171 51.992 398.867 51.488C398.563 50.984 398.411 50.412 398.411 49.772C398.411 49.14 398.559 48.572 398.855 48.068C399.159 47.556 399.571 47.16 400.091 46.88C400.619 46.592 401.211 46.448 401.867 46.448C402.483 46.448 403.043 46.58 403.547 46.844C404.051 47.1 404.451 47.476 404.747 47.972C405.051 48.46 405.203 49.04 405.203 49.712L400.427 50.636C400.563 50.956 400.775 51.196 401.063 51.356C401.359 51.516 401.719 51.596 402.143 51.596ZM401.867 47.864C401.395 47.864 401.011 48.016 400.715 48.32C400.419 48.624 400.263 49.044 400.247 49.58L403.391 48.968C403.303 48.632 403.123 48.364 402.851 48.164C402.579 47.964 402.251 47.864 401.867 47.864ZM410.386 46.448C411.186 46.448 411.83 46.688 412.318 47.168C412.814 47.648 413.062 48.36 413.062 49.304V53H411.19V49.592C411.19 49.08 411.078 48.7 410.854 48.452C410.63 48.196 410.306 48.068 409.882 48.068C409.41 48.068 409.034 48.216 408.754 48.512C408.474 48.8 408.334 49.232 408.334 49.808V53H406.462V46.544H408.25V47.3C408.498 47.028 408.806 46.82 409.174 46.676C409.542 46.524 409.946 46.448 410.386 46.448ZM418.647 52.688C418.463 52.824 418.235 52.928 417.963 53C417.699 53.064 417.423 53.096 417.135 53.096C416.359 53.096 415.763 52.9 415.347 52.508C414.931 52.116 414.723 51.54 414.723 50.78V45.116H416.595V46.688H418.191V48.128H416.595V50.756C416.595 51.028 416.663 51.24 416.799 51.392C416.935 51.536 417.131 51.608 417.387 51.608C417.675 51.608 417.931 51.528 418.155 51.368L418.647 52.688ZM421.876 53.096C421.34 53.096 420.816 53.032 420.304 52.904C419.792 52.768 419.384 52.6 419.08 52.4L419.704 51.056C419.992 51.24 420.34 51.392 420.748 51.512C421.156 51.624 421.556 51.68 421.948 51.68C422.74 51.68 423.136 51.484 423.136 51.092C423.136 50.908 423.028 50.776 422.812 50.696C422.596 50.616 422.264 50.548 421.816 50.492C421.288 50.412 420.852 50.32 420.508 50.216C420.164 50.112 419.864 49.928 419.608 49.664C419.36 49.4 419.236 49.024 419.236 48.536C419.236 48.128 419.352 47.768 419.584 47.456C419.824 47.136 420.168 46.888 420.616 46.712C421.072 46.536 421.608 46.448 422.224 46.448C422.68 46.448 423.132 46.5 423.58 46.604C424.036 46.7 424.412 46.836 424.708 47.012L424.084 48.344C423.516 48.024 422.896 47.864 422.224 47.864C421.824 47.864 421.524 47.92 421.324 48.032C421.124 48.144 421.024 48.288 421.024 48.464C421.024 48.664 421.132 48.804 421.348 48.884C421.564 48.964 421.908 49.04 422.38 49.112C422.908 49.2 423.34 49.296 423.676 49.4C424.012 49.496 424.304 49.676 424.552 49.94C424.8 50.204 424.924 50.572 424.924 51.044C424.924 51.444 424.804 51.8 424.564 52.112C424.324 52.424 423.972 52.668 423.508 52.844C423.052 53.012 422.508 53.096 421.876 53.096Z" fill="white"/>
<path d="M38.9833 10.1544L46.4169 10.1653L53.8505 17.5228L61.2732 10.1653H68.7068L76.1404 17.5228V24.8803L53.8505 46.9529L31.5497 24.8803V17.5228L38.9833 10.1544Z" stroke="#EA7C23" stroke-width="0.348837"/>
<path d="M46.1452 10.1544L31.4737 24.6738" stroke="#EA7C23" stroke-width="0.348837"/>
<path d="M46.167 17.588L39.0159 24.663" stroke="#EA7C23" stroke-width="0.348837"/>
<path d="M53.6766 17.5663L38.9941 32.1074" stroke="#EA7C23" stroke-width="0.348837"/>
<path d="M68.7285 10.1762L46.569 32.1183" stroke="#EA7C23" stroke-width="0.348837"/>
<path d="M68.6851 17.5989L46.8842 39.5084H61.4688" stroke="#EA7C23" stroke-width="0.348837"/>
<path d="M76.1078 17.6532L53.9592 39.5845" stroke="#EA7C23" stroke-width="0.348837"/>
<path d="M31.2889 24.8912H76.3469" stroke="#EA7C23" stroke-width="0.348837"/>
<path d="M38.8311 32.3031H68.8698" stroke="#EA7C23" stroke-width="0.348837"/>
<path d="M31.3106 17.5337H76.3469" stroke="#EA7C23" stroke-width="0.348837"/>
<path d="M38.8202 11.4586C39.125 11.4564 39.4223 11.3641 39.6746 11.1932C39.927 11.0223 40.1231 10.7806 40.2382 10.4984C40.3534 10.2162 40.3824 9.90629 40.3216 9.60766C40.2608 9.30902 40.113 9.03506 39.8968 8.82032C39.6805 8.60558 39.4055 8.45968 39.1065 8.40101C38.8074 8.34234 38.4977 8.37353 38.2163 8.49064C37.935 8.60776 37.6946 8.80556 37.5255 9.0591C37.3564 9.31264 37.2662 9.61057 37.2661 9.91533C37.2661 10.1189 37.3064 10.3205 37.3846 10.5084C37.4629 10.6964 37.5775 10.867 37.722 11.0104C37.8664 11.1539 38.0378 11.2673 38.2263 11.3442C38.4148 11.4211 38.6167 11.46 38.8202 11.4586Z" fill="white"/>
<path d="M46.3299 11.4586C46.6351 11.4586 46.9335 11.368 47.1873 11.1985C47.4411 11.0289 47.6389 10.7879 47.7557 10.5059C47.8725 10.2239 47.903 9.91361 47.8435 9.61426C47.7839 9.3149 47.637 9.03992 47.4211 8.8241C47.2053 8.60827 46.9303 8.46129 46.631 8.40175C46.3316 8.3422 46.0213 8.37276 45.7393 8.48957C45.4574 8.60637 45.2163 8.80417 45.0468 9.05795C44.8772 9.31174 44.7867 9.6101 44.7867 9.91533C44.7867 10.3246 44.9493 10.7171 45.2387 11.0066C45.5281 11.296 45.9206 11.4586 46.3299 11.4586Z" fill="white"/>
<path d="M38.8202 18.9356C39.125 18.9335 39.4223 18.8411 39.6746 18.6703C39.927 18.4994 40.1231 18.2576 40.2382 17.9755C40.3534 17.6933 40.3824 17.3834 40.3216 17.0847C40.2608 16.7861 40.113 16.5121 39.8968 16.2974C39.6805 16.0826 39.4055 15.9367 39.1065 15.8781C38.8074 15.8194 38.4977 15.8506 38.2163 15.9677C37.935 16.0848 37.6946 16.2826 37.5255 16.5362C37.3564 16.7897 37.2662 17.0876 37.2661 17.3924C37.269 17.8027 37.434 18.1952 37.7252 18.4843C38.0163 18.7734 38.4099 18.9356 38.8202 18.9356Z" fill="white"/>
<path d="M31.3106 26.4127C31.6153 26.4105 31.9126 26.3182 32.165 26.1473C32.4173 25.9765 32.6134 25.7347 32.7286 25.4525C32.8437 25.1704 32.8727 24.8604 32.812 24.5618C32.7512 24.2631 32.6034 23.9892 32.3871 23.7744C32.1709 23.5597 31.8959 23.4138 31.5968 23.3551C31.2978 23.2965 30.988 23.3276 30.7067 23.4448C30.4253 23.5619 30.1849 23.7597 30.0158 24.0132C29.8467 24.2668 29.7565 24.5647 29.7565 24.8695C29.7594 25.2797 29.9244 25.6722 30.2155 25.9613C30.5066 26.2504 30.9003 26.4127 31.3106 26.4127Z" fill="white"/>
<path d="M38.8202 26.4127C39.125 26.4105 39.4223 26.3182 39.6746 26.1473C39.927 25.9765 40.1231 25.7347 40.2382 25.4525C40.3534 25.1704 40.3824 24.8604 40.3216 24.5618C40.2608 24.2631 40.113 23.9892 39.8968 23.7744C39.6805 23.5597 39.4055 23.4138 39.1065 23.3551C38.8074 23.2965 38.4977 23.3276 38.2163 23.4448C37.935 23.5619 37.6946 23.7597 37.5255 24.0132C37.3564 24.2668 37.2662 24.5647 37.2661 24.8695C37.269 25.2797 37.434 25.6722 37.7252 25.9613C38.0163 26.2504 38.4099 26.4127 38.8202 26.4127Z" fill="white"/>
<path d="M46.3299 26.3801C46.6347 26.3779 46.932 26.2856 47.1843 26.1147C47.4367 25.9439 47.6328 25.7021 47.7479 25.4199C47.8631 25.1378 47.8921 24.8278 47.8313 24.5292C47.7706 24.2305 47.6227 23.9566 47.4065 23.7418C47.1902 23.5271 46.9152 23.3812 46.6162 23.3225C46.3171 23.2639 46.0074 23.295 45.726 23.4122C45.4447 23.5293 45.2043 23.7271 45.0352 23.9806C44.8661 24.2342 44.7759 24.5321 44.7758 24.8368C44.7758 25.0404 44.8161 25.242 44.8944 25.4299C44.9726 25.6179 45.0872 25.7885 45.2317 25.9319C45.3761 26.0754 45.5476 26.1888 45.736 26.2657C45.9245 26.3427 46.1264 26.3815 46.3299 26.3801Z" fill="white"/>
<path d="M38.8311 33.9006C39.1364 33.9006 39.4347 33.8101 39.6885 33.6405C39.9423 33.471 40.1401 33.2299 40.2569 32.948C40.3737 32.666 40.4043 32.3557 40.3447 32.0563C40.2852 31.757 40.1382 31.482 39.9224 31.2662C39.7065 31.0503 39.4316 30.9034 39.1322 30.8438C38.8328 30.7843 38.5226 30.8148 38.2406 30.9316C37.9586 31.0484 37.7176 31.2462 37.548 31.5C37.3784 31.7538 37.2879 32.0522 37.2879 32.3574C37.2907 32.7658 37.4543 33.1567 37.7431 33.4455C38.0318 33.7343 38.4227 33.8978 38.8311 33.9006Z" fill="white"/>
<path d="M46.3299 33.9006C46.6351 33.9006 46.9335 33.8101 47.1873 33.6405C47.4411 33.471 47.6389 33.2299 47.7557 32.948C47.8725 32.666 47.903 32.3557 47.8435 32.0563C47.7839 31.757 47.637 31.482 47.4211 31.2662C47.2053 31.0503 46.9303 30.9034 46.631 30.8438C46.3316 30.7843 46.0213 30.8148 45.7393 30.9316C45.4574 31.0484 45.2163 31.2462 45.0468 31.5C44.8772 31.7538 44.7867 32.0522 44.7867 32.3574C44.7895 32.7658 44.953 33.1567 45.2418 33.4455C45.5306 33.7343 45.9215 33.8978 46.3299 33.9006Z" fill="white"/>
<path d="M46.3299 41.3559C46.6351 41.3559 46.9335 41.2654 47.1873 41.0959C47.4411 40.9263 47.6389 40.6853 47.7557 40.4033C47.8725 40.1213 47.903 39.811 47.8435 39.5116C47.7839 39.2123 47.637 38.9373 47.4211 38.7215C47.2053 38.5057 46.9303 38.3587 46.631 38.2991C46.3316 38.2396 46.0213 38.2702 45.7393 38.387C45.4574 38.5038 45.2163 38.7016 45.0468 38.9553C44.8772 39.2091 44.7867 39.5075 44.7867 39.8127C44.7867 40.222 44.9493 40.6145 45.2387 40.9039C45.5281 41.1934 45.9206 41.3559 46.3299 41.3559Z" fill="white"/>
<path d="M53.8505 41.3559C54.1552 41.3538 54.4525 41.2615 54.7048 41.0906C54.9572 40.9197 55.1533 40.678 55.2684 40.3958C55.3836 40.1136 55.4126 39.8037 55.3518 39.505C55.2911 39.2064 55.1432 38.9324 54.927 38.7177C54.7107 38.503 54.4357 38.3571 54.1367 38.2984C53.8376 38.2397 53.5279 38.2709 53.2465 38.388C52.9652 38.5051 52.7248 38.7029 52.5557 38.9565C52.3866 39.21 52.2964 39.508 52.2964 39.8127C52.2964 40.0163 52.3366 40.2179 52.4149 40.4058C52.4931 40.5937 52.6077 40.7644 52.7522 40.9078C52.8966 41.0512 53.0681 41.1647 53.2565 41.2416C53.445 41.3185 53.6469 41.3574 53.8505 41.3559Z" fill="white"/>
<path d="M53.8505 48.833C54.1552 48.8309 54.4525 48.7385 54.7048 48.5677C54.9572 48.3968 55.1533 48.155 55.2684 47.8729C55.3836 47.5907 55.4126 47.2807 55.3518 46.9821C55.2911 46.6835 55.1432 46.4095 54.927 46.1948C54.7107 45.98 54.4357 45.8341 54.1367 45.7755C53.8376 45.7168 53.5279 45.748 53.2465 45.8651C52.9652 45.9822 52.7248 46.18 52.5557 46.4335C52.3866 46.6871 52.2964 46.985 52.2964 47.2898C52.2964 47.4934 52.3366 47.6949 52.4149 47.8829C52.4931 48.0708 52.6077 48.2414 52.7522 48.3849C52.8966 48.5283 53.0681 48.6418 53.2565 48.7187C53.445 48.7956 53.6469 48.8344 53.8505 48.833Z" fill="white"/>
<path d="M61.3601 41.3559C61.6639 41.3495 61.959 41.2536 62.2084 41.0802C62.4579 40.9067 62.6506 40.6635 62.7624 40.381C62.8742 40.0985 62.9002 39.7893 62.837 39.4922C62.7738 39.195 62.6243 38.9231 62.4073 38.7105C62.1902 38.4979 61.9152 38.3541 61.6168 38.2972C61.3184 38.2402 61.0098 38.2726 60.7297 38.3903C60.4496 38.508 60.2104 38.7058 60.0423 38.9588C59.8741 39.2119 59.7843 39.5089 59.7843 39.8127C59.7828 40.0167 59.8221 40.2189 59.8998 40.4075C59.9775 40.5961 60.0921 40.7673 60.2369 40.9111C60.3816 41.0548 60.5536 41.1682 60.7428 41.2446C60.9319 41.321 61.1344 41.3588 61.3384 41.3559" fill="white"/>
<path d="M53.8505 33.9006C54.1552 33.8985 54.4525 33.8061 54.7048 33.6353C54.9572 33.4644 55.1533 33.2226 55.2684 32.9405C55.3836 32.6583 55.4126 32.3483 55.3518 32.0497C55.2911 31.7511 55.1432 31.4771 54.927 31.2624C54.7107 31.0476 54.4357 30.9017 54.1367 30.8431C53.8376 30.7844 53.5279 30.8156 53.2465 30.9327C52.9652 31.0498 52.7248 31.2476 52.5557 31.5011C52.3866 31.7547 52.2964 32.0526 52.2964 32.3574C52.2992 32.7677 52.4642 33.1602 52.7554 33.4493C53.0465 33.7384 53.4402 33.9006 53.8505 33.9006Z" fill="white"/>
<path d="M61.3602 33.8897C61.6639 33.8833 61.959 33.7874 62.2085 33.614C62.4579 33.4405 62.6506 33.1973 62.7625 32.9148C62.8743 32.6324 62.9002 32.3231 62.837 32.026C62.7739 31.7288 62.6244 31.4569 62.4073 31.2443C62.1902 31.0317 61.9153 30.8879 61.6168 30.831C61.3184 30.774 61.0098 30.8064 60.7297 30.9241C60.4496 31.0418 60.2105 31.2396 60.0423 31.4926C59.8741 31.7457 59.7844 32.0427 59.7843 32.3465C59.7843 32.5501 59.8246 32.7517 59.9028 32.9396C59.9811 33.1276 60.0957 33.2982 60.2402 33.4416C60.3846 33.5851 60.556 33.6985 60.7445 33.7754C60.933 33.8523 61.1348 33.8912 61.3384 33.8897" fill="white"/>
<path d="M68.8698 33.8898C69.2791 33.8898 69.6716 33.7272 69.9611 33.4377C70.2505 33.1483 70.4131 32.7558 70.4131 32.3465C70.4131 31.9372 70.2505 31.5447 69.9611 31.2553C69.6716 30.9659 69.2791 30.8033 68.8698 30.8033C68.4605 30.8033 68.068 30.9659 67.7786 31.2553C67.4892 31.5447 67.3266 31.9372 67.3266 32.3465C67.3266 32.7558 67.4892 33.1483 67.7786 33.4377C68.068 33.7272 68.4605 33.8898 68.8698 33.8898Z" fill="white"/>
<path d="M68.7937 26.4344C69.0994 26.4344 69.3982 26.3436 69.6522 26.1736C69.9062 26.0035 70.104 25.7618 70.2205 25.4792C70.3369 25.1966 70.3669 24.8857 70.3064 24.5861C70.246 24.2864 70.0979 24.0115 69.881 23.7961C69.6641 23.5807 69.3881 23.4346 69.0881 23.3763C68.788 23.318 68.4774 23.3501 68.1956 23.4686C67.9138 23.587 67.6735 23.7865 67.5052 24.0417C67.337 24.2969 67.2483 24.5964 67.2505 24.9021C67.2533 25.3095 67.4172 25.6992 67.7063 25.9863C67.9954 26.2733 68.3863 26.4344 68.7937 26.4344Z" fill="white"/>
<path d="M61.3602 26.4127C61.6639 26.4063 61.959 26.3103 62.2085 26.1369C62.4579 25.9635 62.6506 25.7203 62.7625 25.4378C62.8743 25.1553 62.9002 24.8461 62.837 24.5489C62.7739 24.2517 62.6244 23.9798 62.4073 23.7672C62.1902 23.5546 61.9153 23.4109 61.6168 23.3539C61.3184 23.297 61.0098 23.3294 60.7297 23.4471C60.4496 23.5648 60.2105 23.7625 60.0423 24.0156C59.8741 24.2686 59.7844 24.5656 59.7843 24.8694C59.7843 25.073 59.8246 25.2746 59.9028 25.4625C59.9811 25.6505 60.0957 25.8211 60.2402 25.9645C60.3846 26.108 60.556 26.2214 60.7445 26.2983C60.933 26.3753 61.1348 26.4141 61.3384 26.4127" fill="white"/>
<path d="M53.8505 26.4127C54.1552 26.4105 54.4525 26.3182 54.7048 26.1473C54.9572 25.9765 55.1533 25.7347 55.2684 25.4525C55.3836 25.1704 55.4126 24.8604 55.3518 24.5618C55.2911 24.2631 55.1432 23.9892 54.927 23.7744C54.7107 23.5597 54.4357 23.4138 54.1367 23.3551C53.8376 23.2965 53.5279 23.3276 53.2465 23.4448C52.9652 23.5619 52.7248 23.7597 52.5557 24.0132C52.3866 24.2668 52.2964 24.5647 52.2964 24.8695C52.2992 25.2797 52.4642 25.6722 52.7554 25.9613C53.0465 26.2504 53.4402 26.4127 53.8505 26.4127Z" fill="white"/>
<path d="M53.8505 18.9356C54.1552 18.9335 54.4525 18.8411 54.7048 18.6703C54.9572 18.4994 55.1533 18.2576 55.2684 17.9755C55.3836 17.6933 55.4126 17.3834 55.3518 17.0847C55.2911 16.7861 55.1432 16.5121 54.927 16.2974C54.7107 16.0826 54.4357 15.9367 54.1367 15.8781C53.8376 15.8194 53.5279 15.8506 53.2465 15.9677C52.9652 16.0848 52.7248 16.2826 52.5557 16.5362C52.3866 16.7897 52.2964 17.0876 52.2964 17.3924C52.2992 17.8027 52.4642 18.1952 52.7554 18.4843C53.0465 18.7734 53.4402 18.9356 53.8505 18.9356Z" fill="white"/>
<path d="M61.3601 11.4586C61.7694 11.4586 62.1619 11.296 62.4514 11.0066C62.7408 10.7171 62.9034 10.3246 62.9034 9.91532C62.9034 9.50603 62.7408 9.11351 62.4514 8.8241C62.1619 8.53468 61.7694 8.37209 61.3601 8.37209C60.9508 8.37209 60.5583 8.53468 60.2689 8.8241C59.9795 9.11351 59.8169 9.50603 59.8169 9.91532C59.8169 10.3246 59.9795 10.7171 60.2689 11.0066C60.5583 11.296 60.9508 11.4586 61.3601 11.4586Z" fill="white"/>
<path d="M68.8698 11.4586C69.1746 11.4564 69.4719 11.3641 69.7242 11.1932C69.9766 11.0223 70.1727 10.7806 70.2878 10.4984C70.4029 10.2162 70.432 9.90629 70.3712 9.60766C70.3104 9.30902 70.1626 9.03506 69.9463 8.82032C69.7301 8.60558 69.4551 8.45968 69.156 8.40101C68.857 8.34234 68.5473 8.37353 68.2659 8.49064C67.9845 8.60776 67.7442 8.80556 67.5751 9.0591C67.406 9.31264 67.3157 9.61057 67.3157 9.91533C67.3186 10.3256 67.4836 10.7181 67.7747 11.0072C68.0659 11.2963 68.4595 11.4586 68.8698 11.4586Z" fill="white"/>
<path d="M61.3602 18.9356C61.6639 18.9292 61.959 18.8333 62.2085 18.6598C62.4579 18.4864 62.6506 18.2432 62.7625 17.9607C62.8743 17.6782 62.9002 17.369 62.837 17.0718C62.7739 16.7747 62.6244 16.5027 62.4073 16.2902C62.1902 16.0776 61.9153 15.9338 61.6168 15.8769C61.3184 15.8199 61.0098 15.8523 60.7297 15.97C60.4496 16.0877 60.2105 16.2855 60.0423 16.5385C59.8741 16.7915 59.7844 17.0886 59.7843 17.3924C59.7843 17.596 59.8246 17.7975 59.9028 17.9855C59.9811 18.1734 60.0957 18.344 60.2402 18.4875C60.3846 18.6309 60.556 18.7444 60.7445 18.8213C60.933 18.8982 61.1348 18.9371 61.3384 18.9356" fill="white"/>
<path d="M68.8698 18.9356C69.1751 18.9356 69.4734 18.8451 69.7272 18.6755C69.981 18.506 70.1788 18.2649 70.2956 17.983C70.4124 17.701 70.443 17.3907 70.3834 17.0913C70.3239 16.792 70.1769 16.517 69.9611 16.3012C69.7452 16.0853 69.4703 15.9384 69.1709 15.8788C68.8715 15.8193 68.5613 15.8498 68.2793 15.9666C67.9973 16.0834 67.7563 16.2812 67.5867 16.535C67.4171 16.7888 67.3266 17.0872 67.3266 17.3924C67.3294 17.8008 67.493 18.1917 67.7817 18.4805C68.0705 18.7693 68.4614 18.9328 68.8698 18.9356Z" fill="white"/>
<path d="M76.3795 26.4127C76.6847 26.4127 76.983 26.3222 77.2368 26.1526C77.4906 25.983 77.6884 25.742 77.8052 25.46C77.922 25.178 77.9526 24.8677 77.893 24.5684C77.8335 24.269 77.6865 23.9941 77.4707 23.7782C77.2549 23.5624 76.9799 23.4154 76.6805 23.3559C76.3812 23.2963 76.0709 23.3269 75.7889 23.4437C75.5069 23.5605 75.2659 23.7583 75.0963 24.0121C74.9267 24.2659 74.8362 24.5642 74.8362 24.8695C74.8391 25.2779 75.0026 25.6687 75.2914 25.9575C75.5802 26.2463 75.971 26.4098 76.3795 26.4127Z" fill="white"/>
<path d="M46.3299 18.9356C46.6351 18.9356 46.9335 18.8451 47.1873 18.6755C47.4411 18.506 47.6389 18.2649 47.7557 17.983C47.8725 17.701 47.903 17.3907 47.8435 17.0913C47.7839 16.792 47.637 16.517 47.4211 16.3012C47.2053 16.0853 46.9303 15.9384 46.631 15.8788C46.3316 15.8193 46.0213 15.8498 45.7393 15.9666C45.4574 16.0834 45.2163 16.2812 45.0468 16.535C44.8772 16.7888 44.7867 17.0872 44.7867 17.3924C44.7895 17.8008 44.953 18.1917 45.2418 18.4805C45.5306 18.7693 45.9215 18.9328 46.3299 18.9356Z" fill="white"/>
<path d="M31.3106 18.9356C31.6153 18.9335 31.9126 18.8411 32.165 18.6703C32.4173 18.4994 32.6134 18.2576 32.7286 17.9755C32.8437 17.6933 32.8727 17.3834 32.812 17.0847C32.7512 16.7861 32.6034 16.5121 32.3871 16.2974C32.1709 16.0826 31.8959 15.9367 31.5968 15.8781C31.2978 15.8194 30.988 15.8506 30.7067 15.9677C30.4253 16.0848 30.1849 16.2826 30.0158 16.5362C29.8467 16.7897 29.7565 17.0876 29.7565 17.3924C29.7594 17.8027 29.9244 18.1952 30.2155 18.4843C30.5066 18.7734 30.9003 18.9356 31.3106 18.9356Z" fill="white"/>
<path d="M76.3795 18.9356C76.6847 18.9356 76.983 18.8451 77.2368 18.6755C77.4906 18.506 77.6884 18.2649 77.8052 17.983C77.922 17.701 77.9526 17.3907 77.893 17.0913C77.8335 16.792 77.6865 16.517 77.4707 16.3012C77.2549 16.0853 76.9799 15.9384 76.6805 15.8788C76.3812 15.8193 76.0709 15.8498 75.7889 15.9666C75.5069 16.0834 75.2659 16.2812 75.0963 16.535C74.9267 16.7888 74.8362 17.0872 74.8362 17.3924C74.8391 17.8008 75.0026 18.1917 75.2914 18.4805C75.5802 18.7693 75.971 18.9328 76.3795 18.9356Z" fill="white"/>
<path d="M32.43 44.7467C33.8603 44.6087 35.2775 44.358 36.6684 43.9968C37.9933 43.3516 39.4896 43.146 40.9395 43.41C42.4066 43.8664 43.6673 46.616 43.6673 46.616L39.4288 47.6267L33.8536 46.5399L32.43 44.7467Z" fill="#C86522"/>
<path d="M0.0112619 31.6292H25.8006C26.4973 31.6229 27.17 31.8835 27.6807 32.3574C28.561 33.1507 36.1794 40.9538 36.1794 40.9538C35.8003 41.3965 35.3253 41.7469 34.7905 41.9785C34.2557 42.2101 33.6751 42.3168 33.0929 42.2906C31.7601 42.0704 30.5519 41.3756 29.6913 40.3344L27.2678 38.0413C27.2678 38.0413 26.8113 37.6935 26.4962 38.0413C26.181 38.389 26.6048 38.7803 26.6048 38.7803L32.3757 44.475C33.9661 45.7246 35.8271 46.5843 37.8096 46.9855C41.4829 47.8658 44.1129 48.4526 44.1129 48.4526C44.1129 48.4526 46.5038 48.9526 47.0472 50.7023C47.3641 51.7329 47.2866 52.8446 46.8299 53.8213L35.4078 51.0174C33.5897 50.6354 31.8081 50.0973 30.0825 49.409C27.1808 48.3222 23.5618 46.942 22.7685 46.6268C21.9751 46.3117 18.4866 44.8771 17.3998 43.6273C16.9396 43.0549 16.4225 42.5305 15.8566 42.0624C15.8566 42.0624 15.7587 41.8233 14.2046 41.9537C12.6505 42.0841 7.17316 42.4971 7.17316 42.4971C4.99951 40.8669 3.15549 38.8385 1.73925 36.5198C-0.249566 33.0203 0.0112619 31.6292 0.0112619 31.6292Z" fill="#EA7C23"/>
<path d="M7.20576 42.4536C6.55407 42.0029 5.93322 41.5091 5.34736 40.9756C4.58661 40.2474 3.64111 39.1498 3.64111 39.1498C3.64111 39.1498 16.0413 39.1498 16.6825 39.5954C17.3237 40.0409 18.0301 42.1493 20.6275 43.6708C23.2249 45.1923 33.5276 49.1047 34.7557 49.5612C35.9838 50.0176 41.8633 51.5391 42.2654 51.6152C42.6675 51.6913 47.2646 52.702 47.2646 52.702C47.2646 52.702 47.1559 53.6149 46.8842 53.7887C46.6125 53.9626 41.885 52.5498 41.885 52.5498C41.885 52.5498 40.2874 52.126 38.2334 51.6695L36.2881 51.2348C35.1361 50.9522 34.1145 50.7892 33.1038 50.4306C29.5935 49.1808 26.0288 47.8658 23.3227 46.779C21.9073 46.2288 20.5311 45.5824 19.2038 44.8445C18.6822 44.475 17.8671 43.9534 17.7584 43.8447C17.4106 43.4643 16.7912 42.7579 16.7912 42.7579C16.4891 42.4885 16.1735 42.2346 15.8457 41.9972C15.5163 41.9254 15.1753 41.9254 14.8458 41.9972L7.20576 42.4536Z" fill="#C86522"/>
<path d="M26.4309 38.5412C26.4309 38.5412 24.9312 37.0849 24.9312 36.2372C24.9312 34.9005 25.7571 35.6286 26.2571 36.0742C26.757 36.5198 27.0504 36.9979 28.4958 38.2477C29.9412 39.4975 32.4082 41.3777 33.6472 41.2364C34.3803 41.1497 35.07 40.8427 35.6251 40.3561L36.1468 40.8886C35.8011 41.2958 35.374 41.626 34.8929 41.8581C34.4119 42.0902 33.8876 42.219 33.3537 42.2362C32.6338 42.2416 31.9278 42.0377 31.3215 41.6494C30.38 41.0126 29.5189 40.2646 28.7567 39.4215C28.7567 39.4215 27.0287 37.6283 26.5831 37.8674C26.5237 37.8901 26.4704 37.9263 26.4274 37.973C26.3843 38.0198 26.3526 38.0758 26.3347 38.1368C26.3168 38.1978 26.3132 38.2621 26.3243 38.3247C26.3353 38.3873 26.3607 38.4465 26.3983 38.4977" fill="#C86522"/>
<path d="M74.3363 45.4749C72.9052 45.3425 71.4875 45.0917 70.0979 44.725C68.7714 44.0848 67.2768 43.8795 65.8268 44.1381C64.3597 44.5946 63.099 47.3985 63.099 47.3985L67.3374 48.42L72.9126 47.3333L74.3363 45.4749Z" fill="#C86522"/>
<path d="M106.744 32.3683H80.9657C80.2697 32.3545 79.5956 32.6117 79.0856 33.0855C78.2053 33.8897 70.5869 41.682 70.5869 41.682C70.9645 42.1265 71.4392 42.4783 71.9744 42.71C72.5096 42.9418 73.0909 43.0474 73.6734 43.0187C75.0043 42.8004 76.212 42.1098 77.075 41.0734L79.4985 38.802C79.4985 38.802 79.955 38.4542 80.2702 38.802C80.5853 39.1498 80.1615 39.5519 80.1615 39.5519L74.3907 45.2358C72.8002 46.4853 70.9392 47.3451 68.9568 47.7462C65.2834 48.6265 62.6534 49.2134 62.6534 49.2134C62.6534 49.2134 60.2625 49.7242 59.7191 51.4739C59.3987 52.5005 59.4762 53.6101 59.9365 54.5821L71.3694 51.8108C73.1858 51.4224 74.9669 50.8844 76.6946 50.2024C79.5964 49.0504 83.2153 47.7354 84.0087 47.4093C84.802 47.0833 88.2797 45.6705 89.3557 44.4098C89.8216 43.8254 90.3459 43.2901 90.9206 42.8122C90.9206 42.8122 91.0184 42.5731 92.5725 42.7036C94.1266 42.834 99.604 43.2361 99.604 43.2361C101.778 41.6059 103.622 39.5775 105.038 37.2588C106.983 33.8028 106.712 32.4226 106.712 32.4226" fill="#EA7C23"/>
<path d="M99.5605 43.1491C100.215 42.7058 100.836 42.2154 101.419 41.682C102.169 40.9756 103.125 39.8888 103.125 39.8888C103.125 39.8888 90.725 39.8888 90.0838 40.3344C89.4426 40.7799 88.7362 42.8774 86.1388 44.3989C83.5414 45.9204 73.2387 49.8328 72.0106 50.2893C70.7825 50.7457 64.903 52.2672 64.5009 52.3433L59.5017 53.4301C59.5017 53.4301 59.6104 54.343 59.8821 54.5169C60.1538 54.6908 64.8813 53.2779 64.8813 53.2779C64.8813 53.2779 66.4789 52.865 68.5329 52.3977L70.4782 51.9629C71.5532 51.7514 72.6161 51.483 73.6625 51.1587C77.1728 49.9089 80.7375 48.6048 83.4436 47.5071C84.859 46.9569 86.2352 46.3106 87.5625 45.5727C88.0841 45.214 88.8992 44.6924 89.0079 44.5837C89.3557 44.2033 89.9751 43.4317 89.9751 43.4317C89.9751 43.4317 90.6815 42.8231 90.9206 42.6709C91.247 42.5868 91.5869 42.5683 91.9205 42.6166L99.5605 43.1491Z" fill="#C86522"/>
<path d="M80.3353 39.2693C80.3353 39.2693 81.8351 37.8239 81.8351 36.9762C81.8351 35.6286 81.0091 36.3567 80.5092 36.8132C80.0093 37.2696 79.7159 37.737 78.2705 38.9868C76.825 40.2366 74.358 42.1276 73.1191 41.9754C72.3845 41.8941 71.6933 41.5865 71.1412 41.0951L70.6195 41.6276C70.9652 42.0348 71.3923 42.3651 71.8733 42.5972C72.3544 42.8293 72.8787 42.9581 73.4125 42.9753C74.1325 42.9806 74.8385 42.7767 75.4448 42.3884C76.3854 41.7714 77.2468 41.0415 78.0096 40.2148C78.0096 40.2148 79.7376 38.4216 80.1832 38.6607C80.2425 38.6835 80.2958 38.7196 80.3389 38.7664C80.382 38.8131 80.4137 38.8692 80.4316 38.9302C80.4495 38.9912 80.453 39.0555 80.442 39.1181C80.431 39.1807 80.4056 39.2399 80.3679 39.2911" fill="#C86522"/>
</svg>
