<svg width="359" height="241" viewBox="0 0 359 241" fill="none" xmlns="http://www.w3.org/2000/svg">
<path d="M267.342 90.5809C244.006 86.4686 233.026 81.2983 213.682 69.6201C190.126 55.4266 166.63 12.7064 105.883 20.9709C80.97 24.3646 51.9842 45.8645 39.4676 86.0494C25.4937 131.305 54.7789 241.16 179.546 240.82C238.616 240.661 292.156 217.823 326.971 187.759C341.064 175.602 361.007 155.819 358.053 130.367C354.659 101.041 292.375 94.9727 267.342 90.5809Z" fill="#5080FF"/>
<path d="M153.914 96.6696C153.855 81.5607 149.32 66.8081 140.883 54.2742C132.446 41.7403 120.484 31.9872 106.509 26.2462C92.5328 20.5053 77.1693 19.0338 62.3578 22.0177C47.5464 25.0015 33.951 32.3069 23.2882 43.0114C12.6255 53.716 5.37331 67.3398 2.44739 82.1628C-0.478543 96.9858 1.05294 112.343 6.8485 126.297C12.6441 140.25 22.4438 152.173 35.0106 160.561C47.5773 168.949 62.3476 173.426 77.4566 173.426C90.1397 173.442 102.624 170.278 113.769 164.223L148.324 183.088L135.149 147.016C147.278 133.05 153.943 115.167 153.914 96.6696Z" fill="white"/>
<path d="M153.914 96.6696C153.855 81.5607 149.32 66.8081 140.883 54.2742C132.446 41.7403 120.484 31.9872 106.509 26.2462C92.5328 20.5053 77.1693 19.0338 62.3578 22.0177C47.5464 25.0015 33.951 32.3069 23.2882 43.0114C12.6255 53.716 5.37331 67.3398 2.44739 82.1628C-0.478543 96.9858 1.05294 112.343 6.8485 126.297C12.6441 140.25 22.4438 152.173 35.0106 160.561C47.5773 168.949 62.3476 173.426 77.4566 173.426C90.1397 173.442 102.624 170.278 113.769 164.223L148.324 183.088L135.149 147.016C147.278 133.05 153.943 115.167 153.914 96.6696Z" stroke="#C0CCE8" stroke-width="2"/>
<path d="M260.295 145.878C279.32 147.475 291.497 149.132 296.927 155.48C302.357 161.828 301.418 167.617 303.335 182.589C304.373 190.714 305.471 203.849 305.471 203.849C299.392 207.993 293.028 211.701 286.426 214.949C280.033 218.256 273.462 221.208 266.743 223.792C257.672 227.36 248.416 230.438 239.015 233.015C225.765 236.363 212.277 238.685 198.67 239.962C186.268 241.149 173.782 241.149 161.38 239.962C161.345 238.143 161.486 236.324 161.799 234.532C163.137 228.883 176.052 187.28 176.052 187.28L182.401 164.024C185.276 160.883 188.343 157.923 191.583 155.16C194.458 153.164 199.569 149.97 199.569 149.97C199.569 149.97 241.251 144.281 260.275 145.878" fill="#0040FF"/>
<path d="M200.527 82.3364C200.527 82.3364 194.897 94.4537 196.953 105.134C199.01 115.814 209.37 123.1 216.796 125.516C224.222 127.931 226.219 129.029 227.676 133.002C229.133 136.974 227.057 150.848 227.057 150.848C227.057 150.848 229.273 159.792 235.042 160.311C240.812 160.83 252.809 146.457 252.809 146.457C252.809 146.457 247.798 130.486 247.1 122.302C246.401 114.117 247.539 113.977 247.539 113.977C247.539 113.977 251.372 115.395 259.956 109.625C262.438 107.923 264.423 105.592 265.707 102.869C266.991 100.147 267.528 97.1324 267.262 94.1343C266.882 92.0202 265.805 90.0945 264.202 88.665C262.598 87.2356 260.562 86.3849 258.419 86.2491C250.633 85.5703 246.441 95.6715 246.441 95.6715L249.635 78.6832L238.596 74.6906L228.055 74.4711L224.242 69.5802C224.242 69.5802 220.25 69.5802 218.992 71.5765C217.735 73.5727 217.814 74.9102 215.419 75.8684C213.023 76.8267 204.32 75.5291 201.445 76.0082C198.57 76.4873 200.547 82.3364 200.547 82.3364" fill="white"/>
<path d="M255.824 93.7351C255.824 93.7351 263.489 94.0745 263.01 98.6659C262.531 103.257 255.125 106.891 255.125 106.891C255.125 106.891 252.15 108.388 251.252 106.312C250.354 104.235 250.833 100.323 253.568 101.041C256.303 101.76 260.694 101.62 261.114 98.2666C261.333 96.47 260.455 95.7114 259.117 94.8929C258.062 94.3773 256.95 93.9887 255.804 93.7351" fill="#E2E8F5"/>
<path d="M204.4 51.8134C204.4 51.8134 200.407 39.5163 210.828 37.1208C223.923 34.2063 228.015 44.7266 228.015 44.7266C230.309 43.1951 232.953 42.2682 235.701 42.0317C243.686 41.333 247.1 44.4272 249.675 49.0585C253.288 55.5863 252.849 56.844 252.849 56.844C252.849 56.844 255.544 54.8477 261.752 56.3449C271.135 58.6606 274.888 69.4005 272.253 78.5634C271.267 81.5286 269.841 84.3282 268.021 86.8679C268.021 86.8679 273.031 92.5174 269.638 98.4263C268.716 100.099 267.426 101.539 265.865 102.638C266.983 100.287 267.491 97.692 267.342 95.0925C267.329 93.9772 267.082 92.8769 266.618 91.8626C266.154 90.8483 265.483 89.9425 264.647 89.2036C263.195 87.7822 261.275 86.9392 259.247 86.8326C257.218 86.7261 255.22 87.3632 253.628 88.6246C249.999 91.3711 247.274 95.1387 245.802 99.4444L246.381 91.4593C244.346 90.9055 242.494 89.8244 241.011 88.3252C240.068 86.9249 239.592 85.2615 239.654 83.5741C239.107 85.6734 237.825 87.5068 236.041 88.7412C234.257 89.9757 232.089 90.5293 229.932 90.3015C223.244 90.1817 222.506 80.0007 222.506 80.0007C222.124 83.1284 220.903 86.0944 218.972 88.5847C217.153 90.174 214.82 91.0499 212.405 91.0499C209.989 91.0499 207.656 90.174 205.837 88.5847C203.808 86.789 202.327 84.4571 201.565 81.8573C200.231 83.6557 199.169 85.6398 198.411 87.7463C197.524 90.6805 196.857 93.6764 196.414 96.7095C196.414 96.7095 187.192 94.0146 185.654 88.1855C184.117 82.3563 190.585 76.0282 190.585 76.0282C190.585 76.0282 181.722 73.8522 181.243 68.0431C180.644 60.8964 183.379 54.2888 189.767 52.5121C194.532 51.2351 199.517 51.0036 204.38 51.8334" fill="#231815"/>
<path d="M207.953 121.024C211.476 122.549 215.273 123.337 219.112 123.34C224.797 123.693 230.496 122.92 235.881 121.064C238.402 120.142 240.746 118.791 242.808 117.071L246.122 114.317C246.122 114.317 240.233 127.133 229.093 127.951C224.881 128.27 214.62 124.937 214.62 124.937L207.953 121.024Z" fill="#E2E8F5"/>
<path d="M214.101 131.584C214.101 131.584 222.745 124.378 224.442 123.799C226.465 123.214 228.606 123.173 230.65 123.679C233.445 124.158 238.995 125.935 238.995 125.935C238.995 125.935 240.432 126.374 240.752 127.173C241.071 127.971 241.61 129.049 238.516 129.289C236.22 129.354 233.923 129.227 231.649 128.909C229.932 128.909 226.478 128.69 225.76 129.408L220.19 134.858C222.979 134.731 225.772 134.98 228.495 135.597C231.888 136.575 232.487 137.294 233.126 138.771C233.765 140.248 231.469 141.965 231.469 141.965C232.181 142.648 232.651 143.546 232.806 144.52C232.806 145.219 231.01 147.475 231.01 147.475C231.299 147.697 231.538 147.977 231.714 148.296C231.889 148.616 231.996 148.968 232.028 149.331C232.028 150.429 229.672 151.966 229.672 151.966C229.672 151.966 232.247 154.561 228.574 155.959C226.917 156.618 219.491 155.959 219.491 155.959C219.491 155.959 214.62 161.948 212.884 163.585C211.907 164.555 210.881 165.475 209.809 166.339C208.177 167.538 206.47 168.632 204.699 169.613L200.207 182.809C200.207 182.809 190.386 180.553 187.97 179.575C186.018 178.664 184.165 177.553 182.441 176.261C182.441 176.261 187.691 166.958 191.264 160.51C194.837 154.062 194.238 156.698 199.129 150.27C204.02 143.842 203.821 142.025 203.821 142.025C203.821 142.025 205.098 138.931 205.817 137.154" fill="white"/>
<path d="M231.549 141.965C231.549 141.965 230.191 141.526 228.335 141.067C226.478 140.607 220.649 140.168 220.649 140.168C223.009 139.908 225.383 139.801 227.756 139.849C229.135 139.946 230.451 140.461 231.529 141.326C231.591 141.535 231.591 141.757 231.529 141.965" fill="#BDCDEA"/>
<path d="M221.148 145.079C221.148 145.079 226.798 145.079 227.816 145.299C228.834 145.518 231.189 146.197 231.189 146.696C231.203 146.976 231.118 147.251 230.95 147.475C230.135 147.064 229.278 146.743 228.395 146.516C226.598 145.997 221.148 145.079 221.148 145.079Z" fill="#BDCDEA"/>
<path d="M220.649 149.651C220.649 149.651 225.32 150.11 226.538 150.289C227.555 150.445 228.543 150.748 229.473 151.188C229.872 151.567 229.592 151.886 229.592 151.886C228.721 151.414 227.776 151.09 226.798 150.928C225.839 150.928 220.649 149.651 220.649 149.651Z" fill="#BDCDEA"/>
<path d="M214.76 124.717L215 125.196C215.273 125.977 215.382 126.807 215.319 127.632C215.069 129.005 214.66 130.345 214.101 131.624L205.837 137.194C207.144 135.556 208.225 133.75 209.051 131.824C209.532 130.386 209.892 128.91 210.129 127.412C210.312 126.411 210.73 125.467 211.347 124.657L212.085 123.659" fill="#BDCDEA"/>
<path d="M227.456 132.423C228.526 131.541 229.817 130.968 231.189 130.766C232.427 130.4 233.745 130.4 234.982 130.766C236.136 131.161 237.363 131.297 238.576 131.165C240.113 130.846 241.909 129.468 241.909 128.73C241.922 128.529 241.893 128.328 241.825 128.139C241.756 127.95 241.649 127.777 241.51 127.632L240.173 126.414C240.173 126.414 241.191 128.111 239.973 128.79C238.582 129.455 237.034 129.717 235.501 129.548C232.367 129.109 228.854 128.271 227.516 128.67C226.803 128.829 226.147 129.181 225.62 129.688C226.053 130.108 226.435 130.577 226.758 131.085L227.496 132.503" fill="#E2E8F5"/>
<path d="M213.922 112.819C215.319 110.823 218.533 111.422 222.047 112.819C225.56 114.217 224.043 113.917 223.584 113.917C222.415 113.851 221.257 113.657 220.13 113.338C217.954 112.819 216.936 112.181 215.519 112.819C214.101 113.458 214.62 114.656 213.982 114.217C213.343 113.778 213.982 112.819 213.982 112.819" fill="#2B211E"/>
<path d="M214.481 98.3065C214.481 98.3065 209.929 103.557 211.187 105.094C211.629 105.566 212.169 105.936 212.769 106.177C213.369 106.419 214.014 106.526 214.66 106.491C214.66 106.491 214.361 106.491 214.241 103.856C214.179 102.003 214.259 100.148 214.481 98.3065Z" fill="#2B211E"/>
<path d="M205.278 94.5735C206.165 94.6945 207.058 94.7611 207.953 94.7731C207.953 94.7731 207.354 97.7675 205.238 97.5878C203.122 97.4082 203.122 94.1343 203.122 94.1343C203.826 94.3457 204.547 94.4928 205.278 94.5735Z" fill="#231815"/>
<path d="M224.482 94.5735C225.376 94.694 226.275 94.7607 227.177 94.7731C227.177 94.7731 226.558 97.7675 224.442 97.5878C222.326 97.4082 222.326 94.1343 222.326 94.1343C223.03 94.3457 223.752 94.4928 224.482 94.5735Z" fill="#231815"/>
<path d="M275.726 191.912C275.846 188.917 276.365 184.545 276.365 184.545C276.365 184.545 278.361 208.062 278.361 216.965V218.961L272.692 221.437C272.692 221.437 273.83 203.849 272.912 202.532C270.915 199.637 267.222 195.225 267.981 194.547C268.739 193.868 276.126 198.539 276.126 198.539C275.86 196.307 275.754 194.059 275.806 191.812" fill="#112970"/>
<path d="M201.425 183.907L197.572 227.146L199.249 234.512H203.98L201.425 183.907Z" fill="#112970"/>
<path d="M176.771 186.462L181.243 175.961L182.481 175.842L188.869 164.183L180.544 173.346L176.771 186.462Z" fill="#112970"/>
<path d="M184.437 177.578C184.437 177.578 195.456 179.914 196.534 179.275C197.612 178.637 202.244 169.953 202.244 169.953C202.244 169.953 207.035 166.938 209.41 165.082C211.786 163.225 219.531 155.999 219.531 155.999C216.918 159.976 213.699 163.519 209.989 166.499C205.118 170.013 204.739 169.414 204.739 169.414C204.739 169.414 201.525 178.716 201.205 180.074C200.952 181.03 200.59 181.954 200.127 182.829C200.127 182.829 190.945 180.713 188.908 179.934C187.351 179.282 185.855 178.494 184.437 177.578Z" fill="#BDCDEA"/>
<path d="M187.711 200.236L205.278 234.572C202.438 237.361 198.855 239.274 194.957 240.082C188.629 241.319 173.397 240.82 173.397 240.82C173.397 240.82 150.041 202.312 148.484 199.438C146.927 196.563 150.78 196.563 150.78 196.563C150.78 196.563 180.724 197.701 183.798 197.92C184.613 197.898 185.418 198.103 186.123 198.511C186.828 198.92 187.405 199.518 187.79 200.236" fill="black"/>
<path d="M148.105 197.88C148.105 197.88 160.641 198.38 164.794 198.639C167.606 198.883 170.404 199.27 173.178 199.797L176.332 200.376C176.332 200.376 149.742 198.899 149.163 198.939C149.004 198.941 148.85 198.995 148.724 199.092C148.598 199.189 148.507 199.324 148.464 199.478C148.244 199.269 148.115 198.982 148.105 198.679V197.88Z" fill="#2B211E"/>
<path d="M163.716 205.207C163.716 205.207 164.095 206.205 163.057 206.165C163.057 206.165 155.072 205.606 154.453 205.526C153.834 205.446 153.554 205.526 153.035 204.768C152.516 204.009 151.418 201.733 151.418 201.733C151.418 201.733 150.82 200.675 151.858 200.735C151.858 200.735 159.543 201.254 160.482 201.274C161.42 201.294 162.218 201.434 162.658 202.472L163.716 205.207Z" fill="#E2E8F5"/>
<path d="M154.493 203.211C154.462 203.072 154.464 202.928 154.498 202.79C154.531 202.652 154.595 202.523 154.686 202.414C154.776 202.304 154.89 202.217 155.019 202.158C155.148 202.099 155.289 202.07 155.431 202.073C155.752 202.084 156.06 202.202 156.306 202.408C156.552 202.614 156.722 202.897 156.788 203.211C156.819 203.352 156.816 203.499 156.782 203.639C156.747 203.779 156.682 203.91 156.59 204.022C156.497 204.133 156.381 204.222 156.25 204.282C156.118 204.342 155.975 204.372 155.83 204.369C155.51 204.352 155.205 204.23 154.962 204.02C154.72 203.81 154.555 203.525 154.493 203.211Z" fill="#776C66"/>
<path d="M159.204 203.63C159.186 203.547 159.187 203.461 159.206 203.379C159.226 203.297 159.265 203.22 159.318 203.155C159.372 203.089 159.44 203.037 159.517 203.002C159.594 202.966 159.678 202.949 159.763 202.951C159.951 202.958 160.131 203.029 160.273 203.152C160.415 203.276 160.509 203.444 160.541 203.63C160.56 203.712 160.56 203.797 160.54 203.878C160.52 203.96 160.481 204.035 160.427 204.099C160.373 204.163 160.304 204.214 160.227 204.247C160.15 204.28 160.066 204.294 159.982 204.289C159.798 204.28 159.622 204.21 159.482 204.091C159.341 203.972 159.243 203.81 159.204 203.63Z" fill="black"/>
<path d="M154.952 203.21C154.934 203.13 154.934 203.047 154.953 202.967C154.971 202.887 155.008 202.813 155.06 202.749C155.112 202.686 155.178 202.635 155.253 202.601C155.327 202.566 155.409 202.55 155.491 202.552C155.679 202.556 155.859 202.624 156.004 202.743C156.149 202.863 156.249 203.027 156.289 203.21C156.308 203.293 156.307 203.379 156.287 203.461C156.267 203.544 156.229 203.62 156.175 203.686C156.121 203.751 156.053 203.803 155.976 203.839C155.899 203.874 155.815 203.891 155.73 203.889C155.542 203.883 155.362 203.812 155.221 203.688C155.079 203.565 154.984 203.396 154.952 203.21Z" fill="black"/>
<path d="M152.836 201.474L160.501 201.933C160.691 201.946 160.876 202.001 161.042 202.094C161.207 202.187 161.35 202.316 161.46 202.472L162.218 204.468C162.218 204.468 162.657 205.426 162.218 205.406C160.322 205.267 155.012 204.907 154.553 204.907C154.093 204.907 154.014 204.768 153.934 204.608C153.574 204.029 152.776 202.612 152.496 202.073C152.217 201.534 152.836 201.474 152.836 201.474Z" stroke="#4F4440" stroke-width="0.11"/>
<path d="M166.71 227.326C166.011 224.83 174.076 224.591 180.684 224.77C184.868 224.795 189.043 225.182 193.16 225.928C196.104 226.629 199.009 227.481 201.864 228.483C207.274 230.919 219.731 237.187 219.731 237.187L210.808 238.605C210.808 238.605 203.681 239.483 201.784 239.682C197.393 240.142 192.881 240.581 187.491 240.82C182.101 241.06 175.074 240.98 175.074 240.98L193.66 239.962C193.66 239.962 181.682 238.804 179.686 238.545C177.689 238.285 166.53 237.347 165.153 236.748C163.775 236.149 164.235 234.193 165.153 233.394C166.083 232.77 167.187 232.455 168.307 232.496C169.225 232.496 170.702 232.496 172.299 232.496C173.897 232.496 174.675 232.636 179.426 232.795C184.177 232.955 194.458 234.512 194.458 234.512C194.458 234.512 191.124 233.734 187.811 232.855C186.114 232.396 181.941 232.057 175.833 231.238C169.724 230.42 166.93 227.984 166.73 227.246" fill="white"/>
<path d="M168.207 228.703C168.207 228.703 182.401 230.46 182.74 230.46C184.577 230.794 186.391 231.248 188.17 231.817C188.409 232.037 194.159 234.532 194.159 234.532L185.834 232.536C185.834 232.536 176.771 231.518 173.377 230.779C171.51 230.421 169.728 229.71 168.127 228.683" fill="#E2E8F5"/>
<path d="M291.115 38.8666L297.122 40.556C298.176 33.9715 308.53 35.9858 310.427 29.2396C312.155 23.094 308.141 18.5743 301.441 16.69C296.497 15.2994 291.794 16.4199 287.875 19.0075L290.689 23.5387C293.616 21.819 296.29 21.175 299.109 21.9677C302.759 22.9944 304.535 25.1892 303.743 28.0078C302.482 32.4899 292.185 31.3391 291.115 38.8666ZM290.695 52.0616C293.005 52.7114 295.242 51.4956 295.918 49.0928C296.594 46.69 295.306 44.5327 292.995 43.8829C290.639 43.2201 288.415 44.3898 287.739 46.7925C287.063 49.1953 288.292 51.3858 290.695 52.0616Z" fill="#E4007F"/>
<path d="M53.0484 76.3688L52.8979 93.6159L97.7324 94.0072L97.8829 76.76L53.0484 76.3688Z" fill="#112970"/>
<mask id="mask0_15_2" style="mask-type:luminance" maskUnits="userSpaceOnUse" x="32" y="43" width="86" height="113">
<path d="M117.163 43.1096H32.1215V155.999H117.163V43.1096Z" fill="white"/>
</mask>
<g mask="url(#mask0_15_2)">
<path d="M96.0621 78.9427C95.987 78.7917 95.8931 78.6509 95.7826 78.5235C93.4959 77.9807 91.1385 77.7988 88.7956 77.9845C84.7206 78.06 80.6597 78.4874 76.6583 79.2621C75.642 79.4484 74.6003 79.4484 73.5841 79.2621C69.5826 78.4874 65.5218 78.06 61.4467 77.9845C59.1039 77.7971 56.7462 77.979 54.4598 78.5235C54.3493 78.6509 54.2554 78.7917 54.1803 78.9427C54.241 79.5528 54.3343 80.1592 54.4598 80.7593C54.6138 80.9427 54.8041 81.0922 55.0187 81.1985C55.2821 81.3621 55.4744 81.6185 55.5577 81.9171C55.6575 82.0968 55.8372 82.556 56.1167 83.2946C56.3962 84.0332 56.5559 84.4923 56.6158 84.672C56.6756 84.8517 56.8753 85.251 57.1747 85.8299C57.3572 86.2216 57.5639 86.6016 57.7936 86.9677C57.9133 87.1673 58.113 87.4668 58.4523 87.9259C58.6756 88.2852 58.9673 88.5972 59.3107 88.8442C59.5703 89.0039 59.9296 89.2035 60.3488 89.483C60.7301 89.7407 61.1569 89.9236 61.6064 90.022L63.1036 90.2815C63.6838 90.3808 64.2718 90.4275 64.8604 90.4213C66.343 90.4773 67.8186 90.1903 69.1723 89.5828C70.139 89.1587 70.9636 88.4658 71.5479 87.5865C71.9773 86.8478 72.3254 86.0647 72.5859 85.2509C72.806 84.559 73.0935 83.8904 73.4443 83.2547C73.7668 82.8519 74.2062 82.5589 74.702 82.4162H75.5803C75.8506 82.4217 76.1138 82.5033 76.3398 82.6516C76.5658 82.7999 76.7454 83.0089 76.8579 83.2547C77.1981 83.8929 77.4788 84.5612 77.6964 85.2509C77.9645 86.0651 78.3192 86.8481 78.7544 87.5865C79.3307 88.4651 80.1488 89.1584 81.11 89.5828C82.4607 90.1996 83.9385 90.4869 85.4219 90.4213C86.0171 90.4267 86.6116 90.3799 87.1986 90.2815L88.6759 90.022C89.1317 89.9237 89.565 89.7409 89.9535 89.483C90.3527 89.2035 90.6921 89.0039 90.9716 88.8442C91.3219 88.5988 91.6203 88.2868 91.8499 87.9259L92.5087 86.9677C92.7292 86.5998 92.9292 86.22 93.1076 85.8299C93.407 85.251 93.5867 84.8517 93.6665 84.672C93.7464 84.4923 93.9061 84.0332 94.1656 83.2946C94.3066 82.8183 94.4938 82.357 94.7246 81.9171C94.7587 81.7661 94.8243 81.6241 94.9172 81.5002C95.0101 81.3763 95.1281 81.2735 95.2636 81.1985C95.4747 81.0867 95.664 80.938 95.8225 80.7593C95.8225 80.3601 95.9822 79.7612 96.0621 78.9427ZM71.3682 141.047L49.9881 89.2435L48.7904 86.6483C47.7409 83.88 47.1999 80.945 47.1934 77.9845C47.2012 77.2638 47.2478 76.5442 47.3331 75.8285C37.9307 74.0319 33.2394 71.836 33.2394 69.3407C33.2394 66.8453 38.3299 64.5296 48.4909 62.6531C49.4638 59.5243 50.72 56.4907 52.2439 53.59C53.6147 50.811 55.3391 48.2211 57.3743 45.8845C58.0635 45.0967 58.9139 44.4663 59.868 44.0358C60.822 43.6052 61.8573 43.3847 62.904 43.3891C65.0217 43.6109 67.0656 44.2922 68.8928 45.3854C70.6416 46.7387 72.7902 47.4729 75.0014 47.4729C77.2126 47.4729 79.3613 46.7387 81.11 45.3854C82.9728 44.2749 85.0595 43.593 87.2186 43.3891C88.2619 43.3876 89.2934 43.6095 90.2438 44.0399C91.1941 44.4703 92.0413 45.0993 92.7283 45.8845C94.7763 48.2113 96.5019 50.803 97.8587 53.59C99.3965 56.4842 100.653 59.5191 101.612 62.6531C111.793 64.5296 116.883 66.7588 116.883 69.3407C116.883 71.9225 112.179 74.0851 102.77 75.8285C103.206 79.537 102.803 83.296 101.592 86.828L100.693 89.2435L110.934 101.86C113.989 103.357 71.2684 141.047 71.2684 141.047" fill="#5777BA"/>
<path d="M54.6794 48.9188C57.2546 45.6449 57.554 44.3473 60.8478 43.3891C63.5428 42.5906 65.2796 43.5688 68.3538 45.066C70.4025 46.4069 72.759 47.2039 75.201 47.3816C79.9921 47.2419 83.7051 41.812 89.1749 43.4889C94.6447 45.1658 96.6011 49.7173 98.8569 54.648C100.092 57.2626 101.114 59.9732 101.911 62.753C105.269 63.1905 108.569 63.9938 111.753 65.1485C117.242 67.1447 117.242 69.3406 117.242 69.3406C117.161 69.9206 116.935 70.471 116.587 70.9417C116.238 71.4124 115.777 71.7884 115.246 72.0356C113.25 73.2334 109.876 75.0101 102.171 76.0282C90.5826 76.9342 78.9544 77.2207 67.3357 76.8865C72.8255 76.8865 51.0462 76.627 44.1191 75.2696C40.9389 74.6955 37.8804 73.5815 35.076 71.9757C33.0797 70.5584 33.2594 69.8796 33.2594 69.141C33.2594 68.4024 33.6387 67.3244 36.3736 65.9669C38.2887 65.079 40.2976 64.4094 42.3624 63.9707C44.3277 63.4203 46.3287 63.0067 48.3512 62.733C48.3512 62.733 52.0642 52.3723 54.6394 49.0984" fill="#112970"/>
<path d="M94.2055 98.4264C97.0039 95.846 99.2456 92.7211 100.793 89.2435L115.166 102.179C115.166 102.179 117.362 103.956 113.709 106.431C110.056 108.907 96.6011 118.569 96.6011 118.569C96.6011 118.569 90.1332 121.882 94.2455 124.458C96.102 125.596 103.728 131.505 103.728 131.505C103.728 131.505 107.84 132.762 99.7352 137.753C92.7882 142.045 75.4606 150.729 75.4606 150.729L72.5859 142.464L87.3982 103.018C89.953 101.917 92.2865 100.361 94.2854 98.4264" fill="#112970"/>
<path d="M43.64 91.6989C40.0637 93.3749 36.7915 95.6349 33.9581 98.3864C32.3012 99.8836 30.8639 100.622 33.9581 103.237C37.0523 105.852 50.587 116.592 50.587 116.592C50.587 116.592 55.8372 120.006 53.7611 121.543C52.3637 122.561 49.9083 124.438 49.9083 124.438C49.9083 124.438 43.4604 128.43 44.5783 130.666C45.7934 132.385 47.3581 133.827 49.1697 134.898L81.3695 155.999L62.1255 102.439C59.516 100.357 57.0608 98.0884 54.7792 95.6515C52.9168 93.737 51.3189 91.5818 50.0281 89.2435C50.0281 89.2435 49.4492 89.4431 43.6799 91.6989" fill="#112970"/>
<path d="M103.069 81.8374V80.2603C101.277 80.9742 99.6679 82.079 98.3578 83.4942C96.8469 85.0732 95.4462 86.754 94.1656 88.5248L91.83 87.9858C91.2226 88.7614 90.4248 89.3666 89.5143 89.7426C88.2398 90.2213 86.882 90.4386 85.5217 90.3814C84.0449 90.4691 82.568 90.2093 81.2098 89.6228C80.2668 89.1864 79.4647 88.4949 78.8941 87.6265H71.4281C70.7392 88.4452 69.8987 89.123 68.9527 89.6228C67.5888 90.0723 66.1735 90.3474 64.7406 90.4413C63.3814 90.4183 62.0342 90.1825 60.748 89.7426C59.8538 89.3099 59.0482 88.7141 58.3725 87.9858H56.8952C55.4253 86.0498 53.7669 84.2644 51.9445 82.6558C50.4324 81.2578 48.7953 80.0016 47.0536 78.9028L46.7342 79.342L46.9937 80.7394C46.9937 80.7394 46.9937 80.8991 49.8883 83.1149C52.1871 84.982 54.3058 87.0606 56.2165 89.3234L57.0749 94.833L51.7448 92.3377L52.6631 94.0545L57.2945 96.6497L58.5321 98.6459C58.5321 98.6459 61.3469 104.755 76.1393 104.755C88.8156 104.755 94.1057 96.3103 94.1057 96.3103L98.8768 94.314L99.316 92.717L94.3054 94.873L95.3234 89.3633C96.6663 87.4926 98.1619 85.7365 99.7951 84.1131C102.39 81.5578 102.969 81.9571 102.969 81.9571" fill="#EA7C23"/>
<path d="M59.3706 99.6241C61.4314 101.523 63.9483 102.858 66.677 103.497C71.75 104.854 77.0606 105.073 82.2279 104.136C87.0414 102.979 91.2869 100.149 94.2055 96.1506L95.4233 89.2435L94.2055 88.5049L91.8499 87.9659C91.8499 87.9659 88.8555 96.6097 82.9066 98.9853C75.3956 102.032 67.0359 102.259 59.3706 99.6241Z" fill="#C86522"/>
</g>
<path d="M59.8697 78.1042L64.0619 90.3214H65.3395L67.0164 90.1218L62.4848 78.1042H61.2471H59.8697Z" fill="#5080FF"/>
<path d="M82.5873 78.3238L86.6996 90.3214L87.9772 90.2016L89.4944 89.7225L85.1225 78.1042L83.805 78.244L82.5873 78.3238Z" fill="#5080FF"/>
<mask id="mask1_15_2" style="mask-type:luminance" maskUnits="userSpaceOnUse" x="32" y="43" width="86" height="113">
<path d="M117.163 43.1096H32.1215V155.999H117.163V43.1096Z" fill="white"/>
</mask>
<g mask="url(#mask1_15_2)">
<path d="M69.1124 45.5052C67.6504 44.9772 66.0612 44.9125 64.561 45.3196C63.0609 45.7268 61.7226 46.5863 60.7281 47.7809C56.1566 52.4322 51.0461 64.3101 51.0461 64.3101C48.1671 64.4932 45.3088 64.9206 42.5021 65.5876C34.6368 67.3044 37.4715 73.1335 37.4715 73.1335C37.4715 73.1335 33.479 71.7162 32.9999 69.2808C32.7603 68.1229 34.9961 65.7274 41.3243 64.0904C43.6017 63.406 45.9321 62.9119 48.2913 62.6132C49.5046 59.0628 50.9175 55.5837 52.5234 52.1927C53.7283 49.5016 55.459 47.0785 57.6139 45.066C58.8769 43.8432 60.5483 43.132 62.3051 43.0697C63.3073 43.1089 64.3002 43.2767 65.2596 43.5688C66.2178 43.9081 69.1124 45.565 69.1124 45.565" fill="#5080FF"/>
<path d="M49.8684 89.2435L51.0062 91.12C47.4867 92.306 44.0741 93.7885 40.8053 95.5517C37.6113 97.3484 34.8165 100.003 34.9363 100.682C34.9363 102.339 51.4454 114.436 51.4454 114.436C51.4454 114.436 58.2327 118.748 58.1329 121.124C58.1329 122.801 52.1441 124.637 49.6488 126.893C46.1353 129.947 48.3312 131.425 48.3312 131.425L50.8865 133.421L60.0493 139.969L81.3296 155.939L60.9477 142.564L46.6943 133.002C45.8284 132.412 45.0998 131.643 44.5583 130.746C43.9195 129.488 44.2588 129.528 46.0156 127.552C47.9863 125.704 50.1325 124.053 52.4236 122.621C52.4236 122.621 53.6613 121.583 53.3219 121.883C53.7364 121.526 54.0468 121.064 54.2202 120.545C54.34 119.826 52.5234 118.01 52.5234 118.01L49.8684 115.914L33.8982 103.217C33.8982 103.217 32.1614 101.82 32.1614 100.642C32.1614 99.4644 34.1577 98.2067 34.1577 98.2067C36.3956 95.9987 38.9283 94.1109 41.6837 92.5972C44.3587 91.3381 47.0972 90.2187 49.8883 89.2435" fill="#5080FF"/>
<path d="M74.6421 137.074L78.8742 148.952L81.3695 147.654C81.3695 147.654 76.6982 141.785 77.377 136.954C78.0557 132.123 87.3583 103.018 87.3583 103.018L74.6421 137.074Z" fill="#5080FF"/>
</g>
</svg>
