<svg width="113" height="111" viewBox="0 0 113 111" fill="none" xmlns="http://www.w3.org/2000/svg">
<path d="M56.1643 110.226C87.2214 110.226 112.325 85.5521 112.325 55.1127C112.325 24.6734 87.1652 0 56.1643 0C25.1633 0 0.00317383 24.6734 0.00317383 55.1127C0.00317383 85.5521 25.1633 110.226 56.1643 110.226Z" fill="#5080FF"/>
<path d="M55.1347 43.7121L51.2596 40.773L46.9539 37.2723H43.2098C42.3539 37.6541 41.5438 38.1314 40.7949 38.695L40.0648 43.7121L42.0679 49.1784L45.007 53.1097L48.9945 56.4981L51.6153 58.782L55.0786 61.1782L65.693 55.9365L70.2046 50.8071L72.5259 46.6699C72.5259 46.6699 73.1437 43.7121 73.1437 43.1692V40.5483C73.1437 40.5483 71.9831 37.2723 71.5712 37.2723C71.1594 37.2723 68.6321 36.6171 68.3138 36.7294C67.3188 36.7504 66.3307 36.9015 65.3748 37.1787C64.5324 37.6092 61.0691 39.5749 60.5449 40.0054L56.6136 43.2815L55.1347 43.7121Z" fill="#FF7800"/>
<path d="M57.1003 86.7689C57.1003 86.7689 58.6353 84.3914 58.7102 84.1668C58.8908 83.6243 58.9358 83.0459 58.8413 82.482C60.153 82.7547 61.5019 82.799 62.8287 82.613C63.8177 82.5626 64.7495 82.1336 65.4309 81.4149C66.0861 80.7376 66.4491 79.83 66.4417 78.8876C67.5663 79.1458 68.7408 79.0809 69.8301 78.7005C70.4991 78.4955 71.1072 78.1286 71.6003 77.6322C72.0935 77.1358 72.4564 76.5253 72.6569 75.855C72.8132 75.1725 72.775 74.4599 72.5466 73.7981C72.3183 73.1363 71.909 72.5518 71.3652 72.1109C72.801 71.8773 74.1182 71.1726 75.1093 70.1078C75.7087 69.3361 75.996 68.3671 75.9142 67.3933C75.8466 66.5632 75.504 65.7793 74.9408 65.1656C74.0202 64.1828 72.7642 63.5815 71.4213 63.4808C67.3088 63.2548 63.2583 62.3764 59.4216 60.8787L57.119 60.1299M57.119 60.1299C53.6873 58.8345 50.5167 56.9322 47.7588 54.5138C44.7693 51.6217 42.422 48.1327 40.8697 44.2737C40.4594 43.4105 40.3134 42.4453 40.45 41.4994C40.5865 40.5535 40.9995 39.669 41.6372 38.9571C42.6198 38.2089 43.8329 37.8274 45.0669 37.8787C46.3009 37.9299 47.4782 38.4107 48.3953 39.2379C49.2924 39.9432 50.1312 40.7195 50.9038 41.5592C51.8546 42.6485 52.9581 43.5943 54.1799 44.3673C54.7971 44.7818 55.5237 45.0031 56.2672 45.0031C57.0107 45.0031 57.7374 44.7818 58.3546 44.3673C58.6612 44.1007 58.9207 43.7842 59.122 43.4313C59.607 42.4974 59.8271 41.4486 59.7586 40.3986C59.5652 38.7133 58.8293 37.1365 57.6619 35.9057L56.1643 34.1647C56.1643 34.1647 54.4607 32.6671 53.8991 32.2927C49.4841 29.1393 44.0442 27.7626 38.6607 28.4363C35.9096 28.6773 33.2459 29.524 30.8606 30.9157C28.4752 32.3074 26.4274 34.2097 24.8638 36.486C23.0044 39.5014 21.7813 42.865 21.2695 46.3704C20.2755 53.8169 22.0618 61.3685 26.2866 67.5806C29.8103 73.1728 34.4498 77.978 39.915 81.6957C42.9458 83.8266 46.4336 85.2179 50.0989 85.758C50.0989 85.758 50.2299 85.758 50.2674 85.8516C52.5001 86.4986 54.8131 86.8264 57.1377 86.8251" fill="#D0DBF0"/>
<path d="M71.4775 72.1483C71.4775 72.1483 64.7569 73.1966 54.9849 68.9284C45.2129 64.6601 42.7043 61.1782 42.7043 61.1782C46.2059 63.5987 49.8506 65.8055 53.6183 67.7864C56.7567 69.1414 60.0077 70.2188 63.3342 71.0064C66.0126 71.6102 68.7363 71.9921 71.4775 72.1483Z" fill="#1C2E61"/>
<path d="M66.685 78.7566C66.685 78.7566 59.9644 79.7114 50.2486 75.3308C40.5327 70.9503 38.0616 67.4121 38.0616 67.4121C41.5374 69.8721 45.1569 72.1225 48.9007 74.1514C52.0161 75.5494 55.2485 76.6708 58.5604 77.5024C61.2294 78.1439 63.9469 78.5635 66.685 78.7566Z" fill="#1C2E61"/>
<path d="M59.122 82.4445C53.9065 82.4899 48.761 81.2421 44.1457 78.8127C35.3284 74.6194 33.1569 71.4369 33.1569 71.4369C36.2926 73.7319 39.562 75.8385 42.9476 77.7456C45.784 79.0862 48.7269 80.1883 51.7462 81.0404C54.2015 81.7043 56.7053 82.1737 59.2343 82.4445" fill="#1C2E61"/>
<path d="M55.3593 86.769C52.9818 86.1325 53.169 84.5038 53.0941 84.2792C53.0941 83.3993 53.5247 82.9874 53.5996 82.4071C52.2879 82.6799 50.939 82.7242 49.6122 82.5382C48.6231 82.4877 47.6914 82.0587 47.01 81.3401C46.3679 80.6543 46.0071 79.7522 45.9991 78.8128C44.8746 79.071 43.7 79.0061 42.6108 78.6256C41.9543 78.4146 41.3589 78.047 40.8762 77.5545C40.3935 77.062 40.0379 76.4595 39.8401 75.7988C39.6839 75.1164 39.7221 74.4038 39.9504 73.742C40.1787 73.0802 40.588 72.4957 41.1318 72.0548C39.6961 71.8212 38.3788 71.1165 37.3878 70.0517C36.8104 69.3481 36.509 68.4584 36.54 67.5488C36.571 66.6392 36.9323 65.7721 37.5562 65.1095C38.4768 64.1267 39.7329 63.5254 41.0757 63.4247C45.1887 63.2024 49.2398 62.324 53.0754 60.8225L55.378 60.0737M55.378 60.0737C58.8097 58.7784 61.9803 56.8761 64.7382 54.4576C67.7339 51.5707 70.0821 48.0803 71.6273 44.2176C72.0426 43.3555 72.1913 42.3892 72.0546 41.4422C71.9179 40.4952 71.5019 39.6104 70.8598 38.901C69.8772 38.1527 68.6641 37.7713 67.4301 37.8226C66.1961 37.8738 65.0188 38.3546 64.1017 39.1818C63.2047 39.8871 62.3658 40.6634 61.5932 41.5031C60.6424 42.5924 59.539 43.5382 58.3171 44.3112C57.7019 44.7217 56.9788 44.9407 56.2392 44.9407C55.4996 44.9407 54.7765 44.7217 54.1612 44.3112C53.8443 44.0547 53.5831 43.7362 53.3937 43.3752C52.8948 42.4458 52.6678 41.3948 52.7385 40.3425C52.8508 38.5827 53.4311 37.8714 54.8538 35.8496L56.3328 34.1086C56.3328 34.1086 58.0363 32.611 58.5979 32.2366C63.0137 29.0849 68.4529 27.7084 73.8363 28.3801C76.5809 28.6265 79.2372 29.4758 81.6157 30.8673C83.9942 32.2587 86.0361 34.1582 87.5958 36.4299C89.4634 39.4412 90.6872 42.8067 91.1901 46.3143C92.193 53.7612 90.406 61.316 86.173 67.5244C82.6493 73.1167 78.0098 77.9219 72.5446 81.6396C69.4926 83.8498 65.9999 85.3759 62.3046 86.1137C59.9961 86.5022 57.6623 86.7212 55.3219 86.769" fill="#1C2E61"/>
<path d="M30.4802 84.223C30.4805 84.5478 30.3681 84.8627 30.1622 85.114C29.9564 85.3653 29.6697 85.5374 29.3512 85.6011C29.0326 85.6647 28.7019 85.6159 28.4153 85.463C28.1287 85.3101 27.9039 85.0625 27.7794 84.7625C27.6549 84.4625 27.6382 84.1285 27.7323 83.8176C27.8263 83.5067 28.0253 83.238 28.2953 83.0574C28.5653 82.8767 28.8896 82.7952 29.2129 82.8269C29.5362 82.8585 29.8385 83.0013 30.0683 83.2308C30.3317 83.4939 30.4798 83.8507 30.4802 84.223ZM95.833 21.5098C95.8293 21.7858 95.7443 22.0547 95.5886 22.2827C95.4329 22.5107 95.2134 22.6877 94.9576 22.7916C94.7019 22.8956 94.4212 22.9218 94.1506 22.867C93.88 22.8123 93.6315 22.6789 93.4363 22.4837C93.241 22.2885 93.1077 22.04 93.053 21.7694C92.9982 21.4989 93.0244 21.2181 93.1283 20.9623C93.2323 20.7066 93.4093 20.4871 93.6373 20.3314C93.8653 20.1757 94.1341 20.0907 94.4102 20.087C94.7881 20.0865 95.1512 20.2344 95.4211 20.4989C95.5529 20.632 95.6572 20.7898 95.7279 20.9632C95.7985 21.1367 95.8343 21.3224 95.833 21.5098ZM33.7001 77.6709C33.6985 77.8915 33.632 78.1069 33.5089 78.29C33.3857 78.4731 33.2113 78.6159 33.0074 78.7005C32.8017 78.7934 32.5722 78.8198 32.3508 78.7762C32.1293 78.7326 31.927 78.6211 31.7719 78.4571C31.6094 78.3012 31.4974 78.1 31.4507 77.8797C31.404 77.6593 31.4245 77.43 31.5098 77.2216C31.5996 77.0177 31.7462 76.844 31.9321 76.7211C32.118 76.5983 32.3353 76.5316 32.5581 76.5289C32.7081 76.5289 32.8566 76.5585 32.9951 76.6158C33.1337 76.6732 33.2595 76.7573 33.3656 76.8634C33.4716 76.9694 33.5557 77.0953 33.6131 77.2338C33.6705 77.3724 33.7001 77.5209 33.7001 77.6709ZM86.8659 32.405C86.8617 32.6299 86.7922 32.8487 86.6659 33.0348C86.5396 33.2209 86.3619 33.3663 86.1545 33.4534C85.9456 33.5361 85.717 33.5553 85.4972 33.5087C85.2775 33.4621 85.0763 33.3516 84.919 33.1913C84.7689 33.0655 84.6537 32.9032 84.5845 32.7201C84.5152 32.5369 84.4942 32.3391 84.5235 32.1455C84.5527 31.9519 84.6312 31.769 84.7515 31.6145C84.8718 31.46 85.0298 31.3391 85.2103 31.2633C85.3909 31.1874 85.5879 31.1593 85.7824 31.1816C85.977 31.2038 86.1625 31.2757 86.3212 31.3904C86.4799 31.5051 86.6065 31.6586 86.6888 31.8363C86.7711 32.014 86.8063 32.2098 86.791 32.405M22.7299 75.4619C22.7299 75.9144 22.5955 76.3567 22.3437 76.7326C22.0919 77.1086 21.7341 77.4013 21.3157 77.5736C20.8972 77.7459 20.4371 77.7901 19.9936 77.7004C19.55 77.6107 19.1431 77.3914 18.8244 77.0701C18.5058 76.7488 18.2898 76.3401 18.2038 75.8958C18.1178 75.4516 18.1657 74.9918 18.3415 74.5748C18.5172 74.1578 18.8128 73.8024 19.1909 73.5538C19.5689 73.3051 20.0123 73.1743 20.4648 73.178C20.7617 73.1776 21.0556 73.2371 21.329 73.3529C21.6024 73.4687 21.8497 73.6384 22.056 73.8519C22.2701 74.0617 22.44 74.3123 22.5557 74.5888C22.6715 74.8652 22.7307 75.1621 22.7299 75.4619ZM78.5166 19.2072C78.5128 19.731 78.3276 20.2373 77.9924 20.6399C77.6573 21.0425 77.1929 21.3165 76.6785 21.4153C76.164 21.514 75.6313 21.4314 75.1709 21.1815C74.7105 20.9315 74.3509 20.5298 74.1534 20.0446C73.956 19.5594 73.9328 19.0207 74.0879 18.5203C74.2429 18.0199 74.5666 17.5888 75.0038 17.3002C75.441 17.0116 75.9646 16.8835 76.4857 16.9377C77.0067 16.9918 77.4929 17.2249 77.8614 17.5972C78.0729 17.808 78.2399 18.0591 78.3525 18.3356C78.4651 18.6122 78.5209 18.9086 78.5166 19.2072Z" fill="#D0DBF0"/>
<path d="M5.9999 40.5003C6.99998 38.5001 9.99984 39.0002 10.9998 39.5002C12.0958 38.0589 13.7437 36.9149 15.4998 37.5002C17.256 38.0854 17.5 41 16.5 43C15.6046 44.7908 13.4999 47.5002 13.4999 47.5002C13.4999 47.5002 10.1118 46.5563 8.99984 46.0002C6.00002 44.5001 4.99981 42.5004 5.9999 40.5003Z" fill="#FF7800"/>
<path d="M19.1963 26.5539C19.7198 25.5693 21.2902 25.8154 21.8137 26.0616C22.3874 25.352 23.2501 24.7888 24.1694 25.077C25.0887 25.3651 25.2164 26.7999 24.693 27.7845C24.2242 28.6662 23.1224 30 23.1224 30C23.1224 30 21.3488 29.5353 20.7667 29.2616C19.1964 28.5231 18.6728 27.5386 19.1963 26.5539Z" fill="#FF7800"/>
<path d="M82.0228 83.3305C84.7916 82.9625 85.9763 86.161 86.006 87.4479C88.218 87.5414 90.423 88.3594 90.796 90.4255C91.1691 92.4915 88.117 94.654 85.3484 95.0219C82.8693 95.3514 78.6855 95.1329 78.6855 95.1329C78.6855 95.1329 77.7629 91.2694 77.7299 89.8385C77.6409 85.9781 79.254 83.6984 82.0228 83.3305Z" fill="#FF7800"/>
</svg>
