<svg width="228" height="28" viewBox="0 0 228 28" fill="none" xmlns="http://www.w3.org/2000/svg">
<path d="M0.94 10L4.72 1.6H6.256L10.048 10H8.416L5.164 2.428H5.788L2.548 10H0.94ZM2.68 8.056L3.1 6.832H7.636L8.056 8.056H2.68ZM17.1927 12.412C16.6007 12.412 16.0207 12.332 15.4527 12.172C14.8927 12.02 14.4327 11.796 14.0727 11.5L14.7447 10.372C15.0247 10.604 15.3767 10.788 15.8007 10.924C16.2327 11.068 16.6687 11.14 17.1087 11.14C17.8127 11.14 18.3287 10.976 18.6567 10.648C18.9847 10.328 19.1487 9.844 19.1487 9.196V8.056L19.2687 6.604L19.2207 5.152V3.592H20.6487V9.028C20.6487 10.188 20.3527 11.04 19.7607 11.584C19.1687 12.136 18.3127 12.412 17.1927 12.412ZM17.0007 9.712C16.3927 9.712 15.8407 9.584 15.3447 9.328C14.8567 9.064 14.4687 8.7 14.1807 8.236C13.9007 7.772 13.7607 7.228 13.7607 6.604C13.7607 5.988 13.9007 5.448 14.1807 4.984C14.4687 4.52 14.8567 4.16 15.3447 3.904C15.8407 3.648 16.3927 3.52 17.0007 3.52C17.5447 3.52 18.0327 3.628 18.4647 3.844C18.8967 4.06 19.2407 4.396 19.4967 4.852C19.7607 5.308 19.8927 5.892 19.8927 6.604C19.8927 7.316 19.7607 7.904 19.4967 8.368C19.2407 8.824 18.8967 9.164 18.4647 9.388C18.0327 9.604 17.5447 9.712 17.0007 9.712ZM17.2287 8.44C17.6047 8.44 17.9407 8.364 18.2367 8.212C18.5327 8.052 18.7607 7.836 18.9207 7.564C19.0887 7.284 19.1727 6.964 19.1727 6.604C19.1727 6.244 19.0887 5.928 18.9207 5.656C18.7607 5.376 18.5327 5.164 18.2367 5.02C17.9407 4.868 17.6047 4.792 17.2287 4.792C16.8527 4.792 16.5127 4.868 16.2087 5.02C15.9127 5.164 15.6807 5.376 15.5127 5.656C15.3527 5.928 15.2727 6.244 15.2727 6.604C15.2727 6.964 15.3527 7.284 15.5127 7.564C15.6807 7.836 15.9127 8.052 16.2087 8.212C16.5127 8.364 16.8527 8.44 17.2287 8.44ZM26.5687 10V8.704L26.4847 8.428V6.16C26.4847 5.72 26.3527 5.38 26.0887 5.14C25.8247 4.892 25.4247 4.768 24.8887 4.768C24.5287 4.768 24.1727 4.824 23.8207 4.936C23.4767 5.048 23.1847 5.204 22.9447 5.404L22.3567 4.312C22.7007 4.048 23.1087 3.852 23.5807 3.724C24.0607 3.588 24.5567 3.52 25.0687 3.52C25.9967 3.52 26.7127 3.744 27.2167 4.192C27.7287 4.632 27.9847 5.316 27.9847 6.244V10H26.5687ZM24.5527 10.084C24.0727 10.084 23.6527 10.004 23.2927 9.844C22.9327 9.676 22.6527 9.448 22.4527 9.16C22.2607 8.864 22.1647 8.532 22.1647 8.164C22.1647 7.804 22.2487 7.48 22.4167 7.192C22.5927 6.904 22.8767 6.676 23.2687 6.508C23.6607 6.34 24.1807 6.256 24.8287 6.256H26.6887V7.252H24.9367C24.4247 7.252 24.0807 7.336 23.9047 7.504C23.7287 7.664 23.6407 7.864 23.6407 8.104C23.6407 8.376 23.7487 8.592 23.9647 8.752C24.1807 8.912 24.4807 8.992 24.8647 8.992C25.2327 8.992 25.5607 8.908 25.8487 8.74C26.1447 8.572 26.3567 8.324 26.4847 7.996L26.7367 8.896C26.5927 9.272 26.3327 9.564 25.9567 9.772C25.5887 9.98 25.1207 10.084 24.5527 10.084ZM37.9978 3.52C38.5098 3.52 38.9618 3.62 39.3538 3.82C39.7538 4.02 40.0658 4.328 40.2898 4.744C40.5138 5.152 40.6258 5.68 40.6258 6.328V10H39.1258V6.52C39.1258 5.952 39.0018 5.528 38.7538 5.248C38.5058 4.968 38.1498 4.828 37.6858 4.828C37.3578 4.828 37.0658 4.9 36.8098 5.044C36.5618 5.188 36.3658 5.4 36.2218 5.68C36.0858 5.96 36.0178 6.316 36.0178 6.748V10H34.5178V6.52C34.5178 5.952 34.3938 5.528 34.1458 5.248C33.8978 4.968 33.5418 4.828 33.0778 4.828C32.7498 4.828 32.4578 4.9 32.2018 5.044C31.9538 5.188 31.7578 5.4 31.6138 5.68C31.4778 5.96 31.4098 6.316 31.4098 6.748V10H29.9098V3.592H31.3378V5.296L31.0858 4.792C31.3018 4.376 31.6138 4.06 32.0218 3.844C32.4378 3.628 32.9098 3.52 33.4378 3.52C34.0378 3.52 34.5578 3.668 34.9978 3.964C35.4458 4.26 35.7418 4.708 35.8858 5.308L35.2978 5.104C35.5058 4.624 35.8498 4.24 36.3298 3.952C36.8098 3.664 37.3658 3.52 37.9978 3.52ZM45.5663 10.084C44.8543 10.084 44.2303 9.944 43.6943 9.664C43.1663 9.376 42.7543 8.984 42.4583 8.488C42.1703 7.992 42.0263 7.428 42.0263 6.796C42.0263 6.156 42.1663 5.592 42.4463 5.104C42.7343 4.608 43.1263 4.22 43.6223 3.94C44.1263 3.66 44.6983 3.52 45.3383 3.52C45.9623 3.52 46.5183 3.656 47.0063 3.928C47.4943 4.2 47.8783 4.584 48.1583 5.08C48.4383 5.576 48.5783 6.16 48.5783 6.832C48.5783 6.896 48.5743 6.968 48.5663 7.048C48.5663 7.128 48.5623 7.204 48.5543 7.276H43.2143V6.28H47.7623L47.1743 6.592C47.1823 6.224 47.1063 5.9 46.9463 5.62C46.7863 5.34 46.5663 5.12 46.2863 4.96C46.0143 4.8 45.6983 4.72 45.3383 4.72C44.9703 4.72 44.6463 4.8 44.3663 4.96C44.0943 5.12 43.8783 5.344 43.7183 5.632C43.5663 5.912 43.4903 6.244 43.4903 6.628V6.868C43.4903 7.252 43.5783 7.592 43.7543 7.888C43.9303 8.184 44.1783 8.412 44.4983 8.572C44.8183 8.732 45.1863 8.812 45.6023 8.812C45.9623 8.812 46.2863 8.756 46.5743 8.644C46.8623 8.532 47.1183 8.356 47.3423 8.116L48.1463 9.04C47.8583 9.376 47.4943 9.636 47.0543 9.82C46.6223 9.996 46.1263 10.084 45.5663 10.084ZM55.7476 10.084C55.0436 10.084 54.4996 9.904 54.1156 9.544C53.7316 9.176 53.5396 8.636 53.5396 7.924V2.176H55.0396V7.888C55.0396 8.192 55.1156 8.428 55.2676 8.596C55.4276 8.764 55.6476 8.848 55.9276 8.848C56.2636 8.848 56.5436 8.76 56.7676 8.584L57.1876 9.652C57.0116 9.796 56.7956 9.904 56.5396 9.976C56.2836 10.048 56.0196 10.084 55.7476 10.084ZM52.4836 4.84V3.64H56.7556V4.84H52.4836ZM61.2226 10.084C60.5106 10.084 59.8866 9.944 59.3506 9.664C58.8226 9.376 58.4106 8.984 58.1146 8.488C57.8266 7.992 57.6826 7.428 57.6826 6.796C57.6826 6.156 57.8226 5.592 58.1026 5.104C58.3906 4.608 58.7826 4.22 59.2786 3.94C59.7826 3.66 60.3546 3.52 60.9946 3.52C61.6186 3.52 62.1746 3.656 62.6626 3.928C63.1506 4.2 63.5346 4.584 63.8146 5.08C64.0946 5.576 64.2346 6.16 64.2346 6.832C64.2346 6.896 64.2306 6.968 64.2226 7.048C64.2226 7.128 64.2186 7.204 64.2106 7.276H58.8706V6.28H63.4186L62.8306 6.592C62.8386 6.224 62.7626 5.9 62.6026 5.62C62.4426 5.34 62.2226 5.12 61.9426 4.96C61.6706 4.8 61.3546 4.72 60.9946 4.72C60.6266 4.72 60.3026 4.8 60.0226 4.96C59.7506 5.12 59.5346 5.344 59.3746 5.632C59.2226 5.912 59.1466 6.244 59.1466 6.628V6.868C59.1466 7.252 59.2346 7.592 59.4106 7.888C59.5866 8.184 59.8346 8.412 60.1546 8.572C60.4746 8.732 60.8426 8.812 61.2586 8.812C61.6186 8.812 61.9426 8.756 62.2306 8.644C62.5186 8.532 62.7746 8.356 62.9986 8.116L63.8026 9.04C63.5146 9.376 63.1506 9.636 62.7106 9.82C62.2786 9.996 61.7826 10.084 61.2226 10.084ZM65.6754 10V1.096H67.1754V10H65.6754ZM69.1442 10V1.096H70.6442V10H69.1442ZM74.5929 10.084C74.0569 10.084 73.5409 10.016 73.0449 9.88C72.5569 9.736 72.1689 9.564 71.8809 9.364L72.4569 8.224C72.7449 8.408 73.0889 8.56 73.4889 8.68C73.8889 8.8 74.2889 8.86 74.6889 8.86C75.1609 8.86 75.5009 8.796 75.7089 8.668C75.9249 8.54 76.0329 8.368 76.0329 8.152C76.0329 7.976 75.9609 7.844 75.8169 7.756C75.6729 7.66 75.4849 7.588 75.2529 7.54C75.0209 7.492 74.7609 7.448 74.4729 7.408C74.1929 7.368 73.9089 7.316 73.6209 7.252C73.3409 7.18 73.0849 7.08 72.8529 6.952C72.6209 6.816 72.4329 6.636 72.2889 6.412C72.1449 6.188 72.0729 5.892 72.0729 5.524C72.0729 5.116 72.1889 4.764 72.4209 4.468C72.6529 4.164 72.9769 3.932 73.3929 3.772C73.8169 3.604 74.3169 3.52 74.8929 3.52C75.3249 3.52 75.7609 3.568 76.2009 3.664C76.6409 3.76 77.0049 3.896 77.2929 4.072L76.7169 5.212C76.4129 5.028 76.1049 4.904 75.7929 4.84C75.4889 4.768 75.1849 4.732 74.8809 4.732C74.4249 4.732 74.0849 4.8 73.8609 4.936C73.6449 5.072 73.5369 5.244 73.5369 5.452C73.5369 5.644 73.6089 5.788 73.7529 5.884C73.8969 5.98 74.0849 6.056 74.3169 6.112C74.5489 6.168 74.8049 6.216 75.0849 6.256C75.3729 6.288 75.6569 6.34 75.9369 6.412C76.2169 6.484 76.4729 6.584 76.7049 6.712C76.9449 6.832 77.1369 7.004 77.2809 7.228C77.4249 7.452 77.4969 7.744 77.4969 8.104C77.4969 8.504 77.3769 8.852 77.1369 9.148C76.9049 9.444 76.5729 9.676 76.1409 9.844C75.7089 10.004 75.1929 10.084 74.5929 10.084ZM84.5171 10.084C83.8131 10.084 83.2691 9.904 82.8851 9.544C82.5011 9.176 82.3091 8.636 82.3091 7.924V2.176H83.8091V7.888C83.8091 8.192 83.8851 8.428 84.0371 8.596C84.1971 8.764 84.4171 8.848 84.6971 8.848C85.0331 8.848 85.3131 8.76 85.5371 8.584L85.9571 9.652C85.7811 9.796 85.5651 9.904 85.3091 9.976C85.0531 10.048 84.7891 10.084 84.5171 10.084ZM81.2531 4.84V3.64H85.5251V4.84H81.2531ZM90.827 3.52C91.339 3.52 91.795 3.62 92.195 3.82C92.603 4.02 92.923 4.328 93.155 4.744C93.387 5.152 93.503 5.68 93.503 6.328V10H92.003V6.52C92.003 5.952 91.867 5.528 91.595 5.248C91.331 4.968 90.959 4.828 90.479 4.828C90.127 4.828 89.815 4.9 89.543 5.044C89.271 5.188 89.059 5.404 88.907 5.692C88.763 5.972 88.691 6.328 88.691 6.76V10H87.191V1.096H88.691V5.32L88.367 4.792C88.591 4.384 88.915 4.072 89.339 3.856C89.771 3.632 90.267 3.52 90.827 3.52ZM98.4296 10.084C97.7176 10.084 97.0936 9.944 96.5576 9.664C96.0296 9.376 95.6176 8.984 95.3216 8.488C95.0336 7.992 94.8896 7.428 94.8896 6.796C94.8896 6.156 95.0296 5.592 95.3096 5.104C95.5976 4.608 95.9896 4.22 96.4856 3.94C96.9896 3.66 97.5616 3.52 98.2016 3.52C98.8256 3.52 99.3816 3.656 99.8696 3.928C100.358 4.2 100.742 4.584 101.022 5.08C101.302 5.576 101.442 6.16 101.442 6.832C101.442 6.896 101.438 6.968 101.43 7.048C101.43 7.128 101.426 7.204 101.418 7.276H96.0776V6.28H100.626L100.038 6.592C100.046 6.224 99.9696 5.9 99.8096 5.62C99.6496 5.34 99.4296 5.12 99.1496 4.96C98.8776 4.8 98.5616 4.72 98.2016 4.72C97.8336 4.72 97.5096 4.8 97.2296 4.96C96.9576 5.12 96.7416 5.344 96.5816 5.632C96.4296 5.912 96.3536 6.244 96.3536 6.628V6.868C96.3536 7.252 96.4416 7.592 96.6176 7.888C96.7936 8.184 97.0416 8.412 97.3616 8.572C97.6816 8.732 98.0496 8.812 98.4656 8.812C98.8256 8.812 99.1496 8.756 99.4376 8.644C99.7256 8.532 99.9816 8.356 100.206 8.116L101.01 9.04C100.722 9.376 100.358 9.636 99.9176 9.82C99.4856 9.996 98.9896 10.084 98.4296 10.084ZM108.911 10.084C108.295 10.084 107.739 9.948 107.243 9.676C106.755 9.396 106.371 9.012 106.091 8.524C105.811 8.036 105.671 7.46 105.671 6.796C105.671 6.132 105.811 5.556 106.091 5.068C106.371 4.58 106.755 4.2 107.243 3.928C107.739 3.656 108.295 3.52 108.911 3.52C109.447 3.52 109.927 3.64 110.351 3.88C110.775 4.112 111.111 4.468 111.359 4.948C111.607 5.428 111.731 6.044 111.731 6.796C111.731 7.54 111.611 8.156 111.371 8.644C111.131 9.124 110.799 9.484 110.375 9.724C109.951 9.964 109.463 10.084 108.911 10.084ZM109.091 8.8C109.451 8.8 109.771 8.72 110.051 8.56C110.339 8.4 110.567 8.168 110.735 7.864C110.911 7.56 110.999 7.204 110.999 6.796C110.999 6.38 110.911 6.024 110.735 5.728C110.567 5.424 110.339 5.192 110.051 5.032C109.771 4.872 109.451 4.792 109.091 4.792C108.731 4.792 108.407 4.872 108.119 5.032C107.839 5.192 107.611 5.424 107.435 5.728C107.267 6.024 107.183 6.38 107.183 6.796C107.183 7.204 107.267 7.56 107.435 7.864C107.611 8.168 107.839 8.4 108.119 8.56C108.407 8.72 108.731 8.8 109.091 8.8ZM111.035 10V8.488L111.095 6.784L110.975 5.08V1.096H112.463V10H111.035ZM118.385 10V8.704L118.301 8.428V6.16C118.301 5.72 118.169 5.38 117.905 5.14C117.641 4.892 117.241 4.768 116.705 4.768C116.345 4.768 115.989 4.824 115.637 4.936C115.293 5.048 115.001 5.204 114.761 5.404L114.173 4.312C114.517 4.048 114.925 3.852 115.397 3.724C115.877 3.588 116.373 3.52 116.885 3.52C117.813 3.52 118.529 3.744 119.033 4.192C119.545 4.632 119.801 5.316 119.801 6.244V10H118.385ZM116.369 10.084C115.889 10.084 115.469 10.004 115.109 9.844C114.749 9.676 114.469 9.448 114.269 9.16C114.077 8.864 113.981 8.532 113.981 8.164C113.981 7.804 114.065 7.48 114.233 7.192C114.409 6.904 114.693 6.676 115.085 6.508C115.477 6.34 115.997 6.256 116.645 6.256H118.505V7.252H116.753C116.241 7.252 115.897 7.336 115.721 7.504C115.545 7.664 115.457 7.864 115.457 8.104C115.457 8.376 115.565 8.592 115.781 8.752C115.997 8.912 116.297 8.992 116.681 8.992C117.049 8.992 117.377 8.908 117.665 8.74C117.961 8.572 118.173 8.324 118.301 7.996L118.553 8.896C118.409 9.272 118.149 9.564 117.773 9.772C117.405 9.98 116.937 10.084 116.369 10.084ZM121.726 10V3.592H123.154V5.356L122.986 4.84C123.178 4.408 123.478 4.08 123.886 3.856C124.302 3.632 124.818 3.52 125.434 3.52V4.948C125.37 4.932 125.31 4.924 125.254 4.924C125.198 4.916 125.142 4.912 125.086 4.912C124.518 4.912 124.066 5.08 123.73 5.416C123.394 5.744 123.226 6.236 123.226 6.892V10H121.726ZM127.931 8.572L127.967 6.688L131.315 3.592H133.115L130.271 6.448L129.479 7.108L127.931 8.572ZM126.707 10V1.096H128.207V10H126.707ZM131.543 10L129.203 7.108L130.151 5.908L133.367 10H131.543ZM139.632 10.084C139.096 10.084 138.58 10.016 138.084 9.88C137.596 9.736 137.208 9.564 136.92 9.364L137.496 8.224C137.784 8.408 138.128 8.56 138.528 8.68C138.928 8.8 139.328 8.86 139.728 8.86C140.2 8.86 140.54 8.796 140.748 8.668C140.964 8.54 141.072 8.368 141.072 8.152C141.072 7.976 141 7.844 140.856 7.756C140.712 7.66 140.524 7.588 140.292 7.54C140.06 7.492 139.8 7.448 139.512 7.408C139.232 7.368 138.948 7.316 138.66 7.252C138.38 7.18 138.124 7.08 137.892 6.952C137.66 6.816 137.472 6.636 137.328 6.412C137.184 6.188 137.112 5.892 137.112 5.524C137.112 5.116 137.228 4.764 137.46 4.468C137.692 4.164 138.016 3.932 138.432 3.772C138.856 3.604 139.356 3.52 139.932 3.52C140.364 3.52 140.8 3.568 141.24 3.664C141.68 3.76 142.044 3.896 142.332 4.072L141.756 5.212C141.452 5.028 141.144 4.904 140.832 4.84C140.528 4.768 140.224 4.732 139.92 4.732C139.464 4.732 139.124 4.8 138.9 4.936C138.684 5.072 138.576 5.244 138.576 5.452C138.576 5.644 138.648 5.788 138.792 5.884C138.936 5.98 139.124 6.056 139.356 6.112C139.588 6.168 139.844 6.216 140.124 6.256C140.412 6.288 140.696 6.34 140.976 6.412C141.256 6.484 141.512 6.584 141.744 6.712C141.984 6.832 142.176 7.004 142.32 7.228C142.464 7.452 142.536 7.744 142.536 8.104C142.536 8.504 142.416 8.852 142.176 9.148C141.944 9.444 141.612 9.676 141.18 9.844C140.748 10.004 140.232 10.084 139.632 10.084ZM143.828 10V3.592H145.328V10H143.828ZM144.584 2.536C144.304 2.536 144.072 2.448 143.888 2.272C143.712 2.096 143.624 1.884 143.624 1.636C143.624 1.38 143.712 1.168 143.888 0.999999C144.072 0.824 144.304 0.736 144.584 0.736C144.864 0.736 145.092 0.82 145.268 0.987999C145.452 1.148 145.544 1.352 145.544 1.6C145.544 1.864 145.456 2.088 145.28 2.272C145.104 2.448 144.872 2.536 144.584 2.536ZM150.009 10.084C149.393 10.084 148.837 9.948 148.341 9.676C147.853 9.396 147.469 9.012 147.189 8.524C146.909 8.036 146.769 7.46 146.769 6.796C146.769 6.132 146.909 5.556 147.189 5.068C147.469 4.58 147.853 4.2 148.341 3.928C148.837 3.656 149.393 3.52 150.009 3.52C150.545 3.52 151.025 3.64 151.449 3.88C151.873 4.112 152.209 4.468 152.457 4.948C152.705 5.428 152.829 6.044 152.829 6.796C152.829 7.54 152.709 8.156 152.469 8.644C152.229 9.124 151.897 9.484 151.473 9.724C151.049 9.964 150.561 10.084 150.009 10.084ZM150.189 8.8C150.549 8.8 150.869 8.72 151.149 8.56C151.437 8.4 151.665 8.168 151.833 7.864C152.009 7.56 152.097 7.204 152.097 6.796C152.097 6.38 152.009 6.024 151.833 5.728C151.665 5.424 151.437 5.192 151.149 5.032C150.869 4.872 150.549 4.792 150.189 4.792C149.829 4.792 149.505 4.872 149.217 5.032C148.937 5.192 148.709 5.424 148.533 5.728C148.365 6.024 148.281 6.38 148.281 6.796C148.281 7.204 148.365 7.56 148.533 7.864C148.709 8.168 148.937 8.4 149.217 8.56C149.505 8.72 149.829 8.8 150.189 8.8ZM152.133 10V8.488L152.193 6.784L152.073 5.08V1.096H153.561V10H152.133ZM158.547 10.084C157.835 10.084 157.211 9.944 156.675 9.664C156.147 9.376 155.735 8.984 155.439 8.488C155.151 7.992 155.007 7.428 155.007 6.796C155.007 6.156 155.147 5.592 155.427 5.104C155.715 4.608 156.107 4.22 156.603 3.94C157.107 3.66 157.679 3.52 158.319 3.52C158.943 3.52 159.499 3.656 159.987 3.928C160.475 4.2 160.859 4.584 161.139 5.08C161.419 5.576 161.559 6.16 161.559 6.832C161.559 6.896 161.555 6.968 161.547 7.048C161.547 7.128 161.543 7.204 161.535 7.276H156.195V6.28H160.743L160.155 6.592C160.163 6.224 160.087 5.9 159.927 5.62C159.767 5.34 159.547 5.12 159.267 4.96C158.995 4.8 158.679 4.72 158.319 4.72C157.951 4.72 157.627 4.8 157.347 4.96C157.075 5.12 156.859 5.344 156.699 5.632C156.547 5.912 156.471 6.244 156.471 6.628V6.868C156.471 7.252 156.559 7.592 156.735 7.888C156.911 8.184 157.159 8.412 157.479 8.572C157.799 8.732 158.167 8.812 158.583 8.812C158.943 8.812 159.267 8.756 159.555 8.644C159.843 8.532 160.099 8.356 160.323 8.116L161.127 9.04C160.839 9.376 160.475 9.636 160.035 9.82C159.603 9.996 159.107 10.084 158.547 10.084ZM169.196 10.084C168.54 10.084 167.956 9.944 167.444 9.664C166.932 9.376 166.528 8.984 166.232 8.488C165.936 7.992 165.788 7.428 165.788 6.796C165.788 6.156 165.936 5.592 166.232 5.104C166.528 4.608 166.932 4.22 167.444 3.94C167.956 3.66 168.54 3.52 169.196 3.52C169.86 3.52 170.448 3.66 170.96 3.94C171.48 4.22 171.884 4.604 172.172 5.092C172.468 5.58 172.616 6.148 172.616 6.796C172.616 7.428 172.468 7.992 172.172 8.488C171.884 8.984 171.48 9.376 170.96 9.664C170.448 9.944 169.86 10.084 169.196 10.084ZM169.196 8.8C169.564 8.8 169.892 8.72 170.18 8.56C170.468 8.4 170.692 8.168 170.852 7.864C171.02 7.56 171.104 7.204 171.104 6.796C171.104 6.38 171.02 6.024 170.852 5.728C170.692 5.424 170.468 5.192 170.18 5.032C169.892 4.872 169.568 4.792 169.208 4.792C168.84 4.792 168.512 4.872 168.224 5.032C167.944 5.192 167.72 5.424 167.552 5.728C167.384 6.024 167.3 6.38 167.3 6.796C167.3 7.204 167.384 7.56 167.552 7.864C167.72 8.168 167.944 8.4 168.224 8.56C168.512 8.72 168.836 8.8 169.196 8.8ZM174.254 10V3.232C174.254 2.56 174.45 2.024 174.842 1.624C175.242 1.216 175.81 1.012 176.546 1.012C176.81 1.012 177.058 1.04 177.29 1.096C177.53 1.152 177.73 1.24 177.89 1.36L177.482 2.488C177.37 2.4 177.242 2.336 177.098 2.296C176.954 2.248 176.806 2.224 176.654 2.224C176.342 2.224 176.106 2.312 175.946 2.488C175.786 2.656 175.706 2.912 175.706 3.256V3.976L175.754 4.648V10H174.254ZM173.198 4.84V3.64H177.47V4.84H173.198ZM184.209 10.084C183.505 10.084 182.961 9.904 182.576 9.544C182.193 9.176 182.001 8.636 182.001 7.924V2.176H183.501V7.888C183.501 8.192 183.577 8.428 183.729 8.596C183.889 8.764 184.109 8.848 184.389 8.848C184.725 8.848 185.005 8.76 185.229 8.584L185.649 9.652C185.473 9.796 185.257 9.904 185.001 9.976C184.745 10.048 184.481 10.084 184.209 10.084ZM180.945 4.84V3.64H185.217V4.84H180.945ZM190.518 3.52C191.03 3.52 191.486 3.62 191.886 3.82C192.294 4.02 192.614 4.328 192.846 4.744C193.078 5.152 193.194 5.68 193.194 6.328V10H191.694V6.52C191.694 5.952 191.558 5.528 191.286 5.248C191.022 4.968 190.65 4.828 190.17 4.828C189.818 4.828 189.506 4.9 189.234 5.044C188.962 5.188 188.75 5.404 188.598 5.692C188.454 5.972 188.382 6.328 188.382 6.76V10H186.882V1.096H188.382V5.32L188.058 4.792C188.282 4.384 188.606 4.072 189.03 3.856C189.462 3.632 189.958 3.52 190.518 3.52ZM198.121 10.084C197.409 10.084 196.785 9.944 196.249 9.664C195.721 9.376 195.309 8.984 195.013 8.488C194.725 7.992 194.581 7.428 194.581 6.796C194.581 6.156 194.721 5.592 195.001 5.104C195.289 4.608 195.681 4.22 196.177 3.94C196.681 3.66 197.253 3.52 197.893 3.52C198.517 3.52 199.073 3.656 199.561 3.928C200.049 4.2 200.433 4.584 200.713 5.08C200.993 5.576 201.133 6.16 201.133 6.832C201.133 6.896 201.129 6.968 201.121 7.048C201.121 7.128 201.117 7.204 201.109 7.276H195.769V6.28H200.317L199.729 6.592C199.737 6.224 199.661 5.9 199.501 5.62C199.341 5.34 199.121 5.12 198.841 4.96C198.569 4.8 198.253 4.72 197.893 4.72C197.525 4.72 197.201 4.8 196.921 4.96C196.649 5.12 196.433 5.344 196.273 5.632C196.121 5.912 196.045 6.244 196.045 6.628V6.868C196.045 7.252 196.133 7.592 196.309 7.888C196.485 8.184 196.733 8.412 197.053 8.572C197.373 8.732 197.741 8.812 198.157 8.812C198.517 8.812 198.841 8.756 199.129 8.644C199.417 8.532 199.673 8.356 199.897 8.116L200.701 9.04C200.413 9.376 200.049 9.636 199.609 9.82C199.177 9.996 198.681 10.084 198.121 10.084ZM206.094 10V3.232C206.094 2.56 206.29 2.024 206.682 1.624C207.082 1.216 207.65 1.012 208.386 1.012C208.65 1.012 208.898 1.04 209.13 1.096C209.37 1.152 209.57 1.24 209.73 1.36L209.322 2.488C209.21 2.4 209.082 2.336 208.938 2.296C208.794 2.248 208.646 2.224 208.494 2.224C208.182 2.224 207.946 2.312 207.786 2.488C207.626 2.656 207.546 2.912 207.546 3.256V3.976L207.594 4.648V10H206.094ZM205.038 4.84V3.64H209.31V4.84H205.038ZM214.151 10V8.704L214.067 8.428V6.16C214.067 5.72 213.935 5.38 213.671 5.14C213.407 4.892 213.007 4.768 212.471 4.768C212.111 4.768 211.755 4.824 211.403 4.936C211.059 5.048 210.767 5.204 210.527 5.404L209.939 4.312C210.283 4.048 210.691 3.852 211.163 3.724C211.643 3.588 212.139 3.52 212.651 3.52C213.579 3.52 214.295 3.744 214.799 4.192C215.311 4.632 215.567 5.316 215.567 6.244V10H214.151ZM212.135 10.084C211.655 10.084 211.235 10.004 210.875 9.844C210.515 9.676 210.235 9.448 210.035 9.16C209.843 8.864 209.747 8.532 209.747 8.164C209.747 7.804 209.831 7.48 209.999 7.192C210.175 6.904 210.459 6.676 210.851 6.508C211.243 6.34 211.763 6.256 212.411 6.256H214.271V7.252H212.519C212.007 7.252 211.663 7.336 211.487 7.504C211.311 7.664 211.223 7.864 211.223 8.104C211.223 8.376 211.331 8.592 211.547 8.752C211.763 8.912 212.063 8.992 212.447 8.992C212.815 8.992 213.143 8.908 213.431 8.74C213.727 8.572 213.939 8.324 214.067 7.996L214.319 8.896C214.175 9.272 213.915 9.564 213.539 9.772C213.171 9.98 212.703 10.084 212.135 10.084ZM219.472 10.084C218.936 10.084 218.42 10.016 217.924 9.88C217.436 9.736 217.048 9.564 216.76 9.364L217.336 8.224C217.624 8.408 217.968 8.56 218.368 8.68C218.768 8.8 219.168 8.86 219.568 8.86C220.04 8.86 220.38 8.796 220.588 8.668C220.804 8.54 220.912 8.368 220.912 8.152C220.912 7.976 220.84 7.844 220.696 7.756C220.552 7.66 220.364 7.588 220.132 7.54C219.9 7.492 219.64 7.448 219.352 7.408C219.072 7.368 218.788 7.316 218.5 7.252C218.22 7.18 217.964 7.08 217.732 6.952C217.5 6.816 217.312 6.636 217.168 6.412C217.024 6.188 216.952 5.892 216.952 5.524C216.952 5.116 217.068 4.764 217.3 4.468C217.532 4.164 217.856 3.932 218.272 3.772C218.696 3.604 219.196 3.52 219.772 3.52C220.204 3.52 220.64 3.568 221.08 3.664C221.52 3.76 221.884 3.896 222.172 4.072L221.596 5.212C221.292 5.028 220.984 4.904 220.672 4.84C220.368 4.768 220.064 4.732 219.76 4.732C219.304 4.732 218.964 4.8 218.74 4.936C218.524 5.072 218.416 5.244 218.416 5.452C218.416 5.644 218.488 5.788 218.632 5.884C218.776 5.98 218.964 6.056 219.196 6.112C219.428 6.168 219.684 6.216 219.964 6.256C220.252 6.288 220.536 6.34 220.816 6.412C221.096 6.484 221.352 6.584 221.584 6.712C221.824 6.832 222.016 7.004 222.16 7.228C222.304 7.452 222.376 7.744 222.376 8.104C222.376 8.504 222.256 8.852 222.016 9.148C221.784 9.444 221.452 9.676 221.02 9.844C220.588 10.004 220.072 10.084 219.472 10.084ZM226.08 10.084C225.376 10.084 224.832 9.904 224.448 9.544C224.064 9.176 223.872 8.636 223.872 7.924V2.176H225.372V7.888C225.372 8.192 225.448 8.428 225.6 8.596C225.76 8.764 225.98 8.848 226.26 8.848C226.596 8.848 226.876 8.76 227.1 8.584L227.52 9.652C227.344 9.796 227.128 9.904 226.872 9.976C226.616 10.048 226.352 10.084 226.08 10.084ZM222.816 4.84V3.64H227.088V4.84H222.816ZM2.188 25V18.232C2.188 17.56 2.384 17.024 2.776 16.624C3.176 16.216 3.744 16.012 4.48 16.012C4.744 16.012 4.992 16.04 5.224 16.096C5.464 16.152 5.664 16.24 5.824 16.36L5.416 17.488C5.304 17.4 5.176 17.336 5.032 17.296C4.888 17.248 4.74 17.224 4.588 17.224C4.276 17.224 4.04 17.312 3.88 17.488C3.72 17.656 3.64 17.912 3.64 18.256V18.976L3.688 19.648V25H2.188ZM1.132 19.84V18.64H5.404V19.84H1.132ZM10.2445 25V23.704L10.1605 23.428V21.16C10.1605 20.72 10.0285 20.38 9.7645 20.14C9.5005 19.892 9.1005 19.768 8.5645 19.768C8.2045 19.768 7.8485 19.824 7.4965 19.936C7.1525 20.048 6.8605 20.204 6.6205 20.404L6.0325 19.312C6.3765 19.048 6.7845 18.852 7.2565 18.724C7.7365 18.588 8.2325 18.52 8.7445 18.52C9.6725 18.52 10.3885 18.744 10.8925 19.192C11.4045 19.632 11.6605 20.316 11.6605 21.244V25H10.2445ZM8.2285 25.084C7.7485 25.084 7.3285 25.004 6.9685 24.844C6.6085 24.676 6.3285 24.448 6.1285 24.16C5.9365 23.864 5.8405 23.532 5.8405 23.164C5.8405 22.804 5.9245 22.48 6.0925 22.192C6.2685 21.904 6.5525 21.676 6.9445 21.508C7.3365 21.34 7.8565 21.256 8.5045 21.256H10.3645V22.252H8.6125C8.1005 22.252 7.7565 22.336 7.5805 22.504C7.4045 22.664 7.3165 22.864 7.3165 23.104C7.3165 23.376 7.4245 23.592 7.6405 23.752C7.8565 23.912 8.1565 23.992 8.5405 23.992C8.9085 23.992 9.2365 23.908 9.5245 23.74C9.8205 23.572 10.0325 23.324 10.1605 22.996L10.4125 23.896C10.2685 24.272 10.0085 24.564 9.6325 24.772C9.2645 24.98 8.7965 25.084 8.2285 25.084ZM15.5656 25.084C15.0296 25.084 14.5136 25.016 14.0176 24.88C13.5296 24.736 13.1416 24.564 12.8536 24.364L13.4296 23.224C13.7176 23.408 14.0616 23.56 14.4616 23.68C14.8616 23.8 15.2616 23.86 15.6616 23.86C16.1336 23.86 16.4736 23.796 16.6816 23.668C16.8976 23.54 17.0056 23.368 17.0056 23.152C17.0056 22.976 16.9336 22.844 16.7896 22.756C16.6456 22.66 16.4576 22.588 16.2256 22.54C15.9936 22.492 15.7336 22.448 15.4456 22.408C15.1656 22.368 14.8816 22.316 14.5936 22.252C14.3136 22.18 14.0576 22.08 13.8256 21.952C13.5936 21.816 13.4056 21.636 13.2616 21.412C13.1176 21.188 13.0456 20.892 13.0456 20.524C13.0456 20.116 13.1616 19.764 13.3936 19.468C13.6256 19.164 13.9496 18.932 14.3656 18.772C14.7896 18.604 15.2896 18.52 15.8656 18.52C16.2976 18.52 16.7336 18.568 17.1736 18.664C17.6136 18.76 17.9776 18.896 18.2656 19.072L17.6896 20.212C17.3856 20.028 17.0776 19.904 16.7656 19.84C16.4616 19.768 16.1576 19.732 15.8536 19.732C15.3976 19.732 15.0576 19.8 14.8336 19.936C14.6176 20.072 14.5096 20.244 14.5096 20.452C14.5096 20.644 14.5816 20.788 14.7256 20.884C14.8696 20.98 15.0576 21.056 15.2896 21.112C15.5216 21.168 15.7776 21.216 16.0576 21.256C16.3456 21.288 16.6296 21.34 16.9096 21.412C17.1896 21.484 17.4456 21.584 17.6776 21.712C17.9176 21.832 18.1096 22.004 18.2536 22.228C18.3976 22.452 18.4696 22.744 18.4696 23.104C18.4696 23.504 18.3496 23.852 18.1096 24.148C17.8776 24.444 17.5456 24.676 17.1136 24.844C16.6816 25.004 16.1656 25.084 15.5656 25.084ZM23.3973 18.52C23.9093 18.52 24.3653 18.62 24.7653 18.82C25.1733 19.02 25.4933 19.328 25.7253 19.744C25.9573 20.152 26.0733 20.68 26.0733 21.328V25H24.5733V21.52C24.5733 20.952 24.4373 20.528 24.1653 20.248C23.9013 19.968 23.5293 19.828 23.0493 19.828C22.6973 19.828 22.3853 19.9 22.1133 20.044C21.8413 20.188 21.6293 20.404 21.4773 20.692C21.3333 20.972 21.2613 21.328 21.2613 21.76V25H19.7613V16.096H21.2613V20.32L20.9373 19.792C21.1613 19.384 21.4853 19.072 21.9093 18.856C22.3413 18.632 22.8373 18.52 23.3973 18.52ZM27.9762 25V18.592H29.4762V25H27.9762ZM28.7322 17.536C28.4522 17.536 28.2202 17.448 28.0362 17.272C27.8602 17.096 27.7722 16.884 27.7722 16.636C27.7722 16.38 27.8602 16.168 28.0362 16C28.2202 15.824 28.4522 15.736 28.7322 15.736C29.0122 15.736 29.2402 15.82 29.4162 15.988C29.6002 16.148 29.6922 16.352 29.6922 16.6C29.6922 16.864 29.6042 17.088 29.4282 17.272C29.2522 17.448 29.0202 17.536 28.7322 17.536ZM34.3249 25.084C33.6689 25.084 33.0849 24.944 32.5729 24.664C32.0609 24.376 31.6569 23.984 31.3609 23.488C31.0649 22.992 30.9169 22.428 30.9169 21.796C30.9169 21.156 31.0649 20.592 31.3609 20.104C31.6569 19.608 32.0609 19.22 32.5729 18.94C33.0849 18.66 33.6689 18.52 34.3249 18.52C34.9889 18.52 35.5769 18.66 36.0889 18.94C36.6089 19.22 37.0129 19.604 37.3009 20.092C37.5969 20.58 37.7449 21.148 37.7449 21.796C37.7449 22.428 37.5969 22.992 37.3009 23.488C37.0129 23.984 36.6089 24.376 36.0889 24.664C35.5769 24.944 34.9889 25.084 34.3249 25.084ZM34.3249 23.8C34.6929 23.8 35.0209 23.72 35.3089 23.56C35.5969 23.4 35.8209 23.168 35.9809 22.864C36.1489 22.56 36.2329 22.204 36.2329 21.796C36.2329 21.38 36.1489 21.024 35.9809 20.728C35.8209 20.424 35.5969 20.192 35.3089 20.032C35.0209 19.872 34.6969 19.792 34.3369 19.792C33.9689 19.792 33.6409 19.872 33.3529 20.032C33.0729 20.192 32.8489 20.424 32.6809 20.728C32.5129 21.024 32.4289 21.38 32.4289 21.796C32.4289 22.204 32.5129 22.56 32.6809 22.864C32.8489 23.168 33.0729 23.4 33.3529 23.56C33.6409 23.72 33.9649 23.8 34.3249 23.8ZM42.8153 18.52C43.3273 18.52 43.7833 18.62 44.1833 18.82C44.5913 19.02 44.9113 19.328 45.1433 19.744C45.3753 20.152 45.4913 20.68 45.4913 21.328V25H43.9913V21.52C43.9913 20.952 43.8553 20.528 43.5833 20.248C43.3193 19.968 42.9473 19.828 42.4673 19.828C42.1153 19.828 41.8033 19.9 41.5313 20.044C41.2593 20.188 41.0473 20.404 40.8953 20.692C40.7513 20.972 40.6793 21.328 40.6793 21.76V25H39.1793V18.592H40.6073V20.32L40.3553 19.792C40.5793 19.384 40.9033 19.072 41.3273 18.856C41.7593 18.632 42.2553 18.52 42.8153 18.52ZM50.7106 25V18.592H52.2106V25H50.7106ZM51.4666 17.536C51.1866 17.536 50.9546 17.448 50.7706 17.272C50.5946 17.096 50.5066 16.884 50.5066 16.636C50.5066 16.38 50.5946 16.168 50.7706 16C50.9546 15.824 51.1866 15.736 51.4666 15.736C51.7466 15.736 51.9746 15.82 52.1506 15.988C52.3346 16.148 52.4266 16.352 52.4266 16.6C52.4266 16.864 52.3386 17.088 52.1626 17.272C51.9866 17.448 51.7546 17.536 51.4666 17.536ZM57.8153 18.52C58.3273 18.52 58.7833 18.62 59.1833 18.82C59.5913 19.02 59.9113 19.328 60.1433 19.744C60.3753 20.152 60.4913 20.68 60.4913 21.328V25H58.9913V21.52C58.9913 20.952 58.8553 20.528 58.5833 20.248C58.3193 19.968 57.9473 19.828 57.4673 19.828C57.1153 19.828 56.8033 19.9 56.5313 20.044C56.2593 20.188 56.0473 20.404 55.8953 20.692C55.7513 20.972 55.6793 21.328 55.6793 21.76V25H54.1793V18.592H55.6073V20.32L55.3553 19.792C55.5793 19.384 55.9033 19.072 56.3273 18.856C56.7593 18.632 57.2553 18.52 57.8153 18.52ZM65.1179 25.084C64.5019 25.084 63.9459 24.948 63.4499 24.676C62.9619 24.396 62.5779 24.012 62.2979 23.524C62.0179 23.036 61.8779 22.46 61.8779 21.796C61.8779 21.132 62.0179 20.556 62.2979 20.068C62.5779 19.58 62.9619 19.2 63.4499 18.928C63.9459 18.656 64.5019 18.52 65.1179 18.52C65.6539 18.52 66.1339 18.64 66.5579 18.88C66.9819 19.112 67.3179 19.468 67.5659 19.948C67.8139 20.428 67.9379 21.044 67.9379 21.796C67.9379 22.54 67.8179 23.156 67.5779 23.644C67.3379 24.124 67.0059 24.484 66.5819 24.724C66.1579 24.964 65.6699 25.084 65.1179 25.084ZM65.2979 23.8C65.6579 23.8 65.9779 23.72 66.2579 23.56C66.5459 23.4 66.7739 23.168 66.9419 22.864C67.1179 22.56 67.2059 22.204 67.2059 21.796C67.2059 21.38 67.1179 21.024 66.9419 20.728C66.7739 20.424 66.5459 20.192 66.2579 20.032C65.9779 19.872 65.6579 19.792 65.2979 19.792C64.9379 19.792 64.6139 19.872 64.3259 20.032C64.0459 20.192 63.8179 20.424 63.6419 20.728C63.4739 21.024 63.3899 21.38 63.3899 21.796C63.3899 22.204 63.4739 22.56 63.6419 22.864C63.8179 23.168 64.0459 23.4 64.3259 23.56C64.6139 23.72 64.9379 23.8 65.2979 23.8ZM67.2419 25V23.488L67.3019 21.784L67.1819 20.08V16.096H68.6699V25H67.2419ZM73.3562 25.084C72.8122 25.084 72.3322 24.984 71.9162 24.784C71.5002 24.576 71.1762 24.264 70.9442 23.848C70.7122 23.424 70.5962 22.892 70.5962 22.252V18.592H72.0962V22.048C72.0962 22.624 72.2242 23.056 72.4802 23.344C72.7442 23.624 73.1162 23.764 73.5962 23.764C73.9482 23.764 74.2522 23.692 74.5082 23.548C74.7722 23.404 74.9762 23.188 75.1202 22.9C75.2722 22.612 75.3482 22.256 75.3482 21.832V18.592H76.8482V25H75.4202V23.272L75.6722 23.8C75.4562 24.216 75.1402 24.536 74.7242 24.76C74.3082 24.976 73.8522 25.084 73.3562 25.084ZM80.7921 25.084C80.2561 25.084 79.7401 25.016 79.2441 24.88C78.7561 24.736 78.3681 24.564 78.0801 24.364L78.6561 23.224C78.9441 23.408 79.2881 23.56 79.6881 23.68C80.0881 23.8 80.4881 23.86 80.8881 23.86C81.3601 23.86 81.7001 23.796 81.9081 23.668C82.1241 23.54 82.2321 23.368 82.2321 23.152C82.2321 22.976 82.1601 22.844 82.0161 22.756C81.8721 22.66 81.6841 22.588 81.4521 22.54C81.2201 22.492 80.9601 22.448 80.6721 22.408C80.3921 22.368 80.1081 22.316 79.8201 22.252C79.5401 22.18 79.2841 22.08 79.0521 21.952C78.8201 21.816 78.6321 21.636 78.4881 21.412C78.3441 21.188 78.2721 20.892 78.2721 20.524C78.2721 20.116 78.3881 19.764 78.6201 19.468C78.8521 19.164 79.1761 18.932 79.5921 18.772C80.0161 18.604 80.5161 18.52 81.0921 18.52C81.5241 18.52 81.9601 18.568 82.4001 18.664C82.8401 18.76 83.2041 18.896 83.4921 19.072L82.9161 20.212C82.6121 20.028 82.3041 19.904 81.9921 19.84C81.6881 19.768 81.3841 19.732 81.0801 19.732C80.6241 19.732 80.2841 19.8 80.0601 19.936C79.8441 20.072 79.7361 20.244 79.7361 20.452C79.7361 20.644 79.8081 20.788 79.9521 20.884C80.0961 20.98 80.2841 21.056 80.5161 21.112C80.7481 21.168 81.0041 21.216 81.2841 21.256C81.5721 21.288 81.8561 21.34 82.1361 21.412C82.4161 21.484 82.6721 21.584 82.9041 21.712C83.1441 21.832 83.3361 22.004 83.4801 22.228C83.6241 22.452 83.6961 22.744 83.6961 23.104C83.6961 23.504 83.5761 23.852 83.3361 24.148C83.1041 24.444 82.7721 24.676 82.3401 24.844C81.9081 25.004 81.3921 25.084 80.7921 25.084ZM87.3999 25.084C86.6959 25.084 86.1519 24.904 85.7679 24.544C85.3839 24.176 85.1919 23.636 85.1919 22.924V17.176H86.6919V22.888C86.6919 23.192 86.7679 23.428 86.9199 23.596C87.0799 23.764 87.2999 23.848 87.5799 23.848C87.9159 23.848 88.1959 23.76 88.4199 23.584L88.8399 24.652C88.6639 24.796 88.4479 24.904 88.1919 24.976C87.9359 25.048 87.6719 25.084 87.3999 25.084ZM84.1359 19.84V18.64H88.4079V19.84H84.1359ZM90.0738 25V18.592H91.5018V20.356L91.3338 19.84C91.5258 19.408 91.8258 19.08 92.2338 18.856C92.6498 18.632 93.1658 18.52 93.7818 18.52V19.948C93.7178 19.932 93.6578 19.924 93.6018 19.924C93.5458 19.916 93.4898 19.912 93.4338 19.912C92.8658 19.912 92.4138 20.08 92.0778 20.416C91.7418 20.744 91.5738 21.236 91.5738 21.892V25H90.0738ZM95.8167 27.412C95.5047 27.412 95.1927 27.36 94.8807 27.256C94.5687 27.152 94.3087 27.008 94.1007 26.824L94.7007 25.72C94.8527 25.856 95.0247 25.964 95.2167 26.044C95.4087 26.124 95.6047 26.164 95.8047 26.164C96.0767 26.164 96.2967 26.096 96.4647 25.96C96.6327 25.824 96.7887 25.596 96.9327 25.276L97.3047 24.436L97.4247 24.256L99.8487 18.592H101.289L98.2887 25.516C98.0887 25.996 97.8647 26.376 97.6167 26.656C97.3767 26.936 97.1047 27.132 96.8007 27.244C96.5047 27.356 96.1767 27.412 95.8167 27.412ZM97.1367 25.228L94.2447 18.592H95.8047L98.1567 24.124L97.1367 25.228Z" fill="black"/>
</svg>
