<svg width="210" height="59" viewBox="0 0 210 59" fill="none" xmlns="http://www.w3.org/2000/svg">
<path d="M19.352 1.6L19.672 9.632H19.064C18.1253 6.79467 17.2933 4.864 16.568 3.84C15.8427 2.79467 14.7973 2.272 13.432 2.272H13.048V23.328H15.768V24H4.088V23.328H6.808V2.272H6.392C5.02667 2.272 3.97067 2.816 3.224 3.904C2.47733 4.97067 1.656 6.88 0.76 9.632H0.152L0.472 1.6H19.352ZM21.1638 -1.90735e-06H28.8758V11.712C29.2171 10.7307 29.7398 9.94133 30.4438 9.344C31.1478 8.74667 32.2144 8.448 33.6438 8.448C36.9504 8.448 38.6038 10.2293 38.6038 13.792V23.424H40.3958V24H31.3398V23.424H32.6518V13.024C32.6518 11.744 32.5664 10.9227 32.3958 10.56C32.2251 10.176 31.9158 9.984 31.4678 9.984C30.7851 9.984 30.1771 10.432 29.6438 11.328C29.1318 12.224 28.8758 13.312 28.8758 14.592V23.424H30.2517V24H21.1638V23.424H22.9238V0.575998H21.1638V-1.90735e-06ZM49.2985 24.32C46.5465 24.32 44.4772 23.616 43.0905 22.208C41.7252 20.7787 41.0425 18.8053 41.0425 16.288C41.0425 13.7493 41.8105 11.808 43.3465 10.464C44.9038 9.12 46.8772 8.448 49.2665 8.448C54.1092 8.448 56.4345 10.88 56.2425 15.744H47.2185V16.992C47.2185 19.0827 47.4852 20.6613 48.0185 21.728C48.5518 22.7947 49.4798 23.328 50.8025 23.328C53.2772 23.328 54.8985 22.0053 55.6665 19.36L56.2425 19.456C55.8372 20.992 55.1012 22.1867 54.0345 23.04C52.9892 23.8933 51.4105 24.32 49.2985 24.32ZM47.2505 15.104H50.5465V13.536C50.5465 11.808 50.4398 10.6347 50.2265 10.016C50.0345 9.376 49.6292 9.056 49.0105 9.056C48.4132 9.056 47.9652 9.39733 47.6665 10.08C47.3892 10.7413 47.2505 11.8933 47.2505 13.536V15.104ZM73.4685 17.696V14.976C73.4685 12.9067 73.3512 11.4027 73.1165 10.464C72.9032 9.504 72.3912 9.024 71.5805 9.024C71.1112 9.024 70.7272 9.16267 70.4285 9.44C70.1512 9.696 69.9485 10.1333 69.8205 10.752C69.6285 11.712 69.5325 13.1733 69.5325 15.136V17.632C69.5325 19.9573 69.5965 21.3547 69.7245 21.824C69.8738 22.2933 70.0232 22.6773 70.1725 22.976C70.4072 23.488 70.8658 23.744 71.5485 23.744C72.3805 23.744 72.9245 23.264 73.1805 22.304C73.3725 21.6213 73.4685 20.0853 73.4685 17.696ZM71.4845 24.32C68.8178 24.32 66.8018 23.6373 65.4365 22.272C64.0712 20.9067 63.3885 18.9547 63.3885 16.416C63.3885 13.856 64.1138 11.8933 65.5645 10.528C67.0365 9.14133 69.0952 8.448 71.7405 8.448C74.3858 8.448 76.3592 9.088 77.6605 10.368C78.9618 11.6267 79.6125 13.5573 79.6125 16.16C79.6125 21.6 76.9032 24.32 71.4845 24.32ZM82.1075 19.424V9.344H80.3475V8.768H82.1075V4.64L88.0595 3.168V8.768H92.2195V9.344H88.0595V20.128C88.0595 21.1307 88.1555 21.8667 88.3475 22.336C88.5608 22.8053 88.9875 23.04 89.6275 23.04C90.2675 23.04 90.8222 22.72 91.2915 22.08C91.7822 21.44 92.1022 20.5653 92.2515 19.456L92.7955 19.52C92.6248 20.992 92.1555 22.1653 91.3875 23.04C90.6195 23.8933 89.3502 24.32 87.5795 24.32C85.8088 24.32 84.4542 23.968 83.5155 23.264C82.5768 22.56 82.1075 21.28 82.1075 19.424ZM93.1013 -1.90735e-06H100.813V11.712C101.155 10.7307 101.677 9.94133 102.381 9.344C103.085 8.74667 104.152 8.448 105.581 8.448C108.888 8.448 110.541 10.2293 110.541 13.792V23.424H112.333V24H103.277V23.424H104.589V13.024C104.589 11.744 104.504 10.9227 104.333 10.56C104.163 10.176 103.853 9.984 103.405 9.984C102.723 9.984 102.115 10.432 101.581 11.328C101.069 12.224 100.813 13.312 100.813 14.592V23.424H102.189V24H93.1013V23.424H94.8613V0.575998H93.1013V-1.90735e-06ZM121.236 24.32C118.484 24.32 116.415 23.616 115.028 22.208C113.663 20.7787 112.98 18.8053 112.98 16.288C112.98 13.7493 113.748 11.808 115.284 10.464C116.841 9.12 118.815 8.448 121.204 8.448C126.047 8.448 128.372 10.88 128.18 15.744H119.156V16.992C119.156 19.0827 119.423 20.6613 119.956 21.728C120.489 22.7947 121.417 23.328 122.74 23.328C125.215 23.328 126.836 22.0053 127.604 19.36L128.18 19.456C127.775 20.992 127.039 22.1867 125.972 23.04C124.927 23.8933 123.348 24.32 121.236 24.32ZM119.188 15.104H122.484V13.536C122.484 11.808 122.377 10.6347 122.164 10.016C121.972 9.376 121.567 9.056 120.948 9.056C120.351 9.056 119.903 9.39733 119.604 10.08C119.327 10.7413 119.188 11.8933 119.188 13.536V15.104ZM140.008 9.664C139.219 9.664 138.525 10.176 137.928 11.2C137.331 12.224 137.032 13.44 137.032 14.848V23.424H139.304V24H129.32V23.424H131.08V9.344H129.32V8.768H137.032V11.84C137.309 10.752 137.843 9.92 138.632 9.344C139.421 8.74667 140.317 8.448 141.32 8.448C142.323 8.448 143.133 8.736 143.752 9.312C144.392 9.86667 144.712 10.6667 144.712 11.712C144.712 12.736 144.477 13.5253 144.008 14.08C143.539 14.6347 142.813 14.912 141.832 14.912C140.872 14.912 140.157 14.592 139.688 13.952C139.24 13.312 139.187 12.4267 139.528 11.296H140.68C141.213 10.208 140.989 9.664 140.008 9.664ZM0.056 58.32V52.592H0.44C0.994667 54.448 1.74133 55.7493 2.68 56.496C3.61867 57.2427 4.792 57.616 6.2 57.616C8.376 57.616 9.464 56.9227 9.464 55.536C9.464 54.9387 9.19733 54.4907 8.664 54.192C7.832 53.7227 6.76533 53.36 5.464 53.104C4.01333 52.72 2.79733 52.208 1.816 51.568C0.642667 50.8 0.056 49.584 0.056 47.92C0.056 46.256 0.568 44.9333 1.592 43.952C2.616 42.9493 3.98133 42.448 5.688 42.448C6.73333 42.448 7.81067 42.6933 8.92 43.184C9.32533 43.3547 9.63467 43.44 9.848 43.44C10.0613 43.44 10.2427 43.3653 10.392 43.216C10.5413 43.0667 10.7227 42.7893 10.936 42.384H11.288V47.28H10.904C9.816 44.5067 8.13067 43.12 5.848 43.12C4.84533 43.12 4.09867 43.3013 3.608 43.664C3.11733 44.0053 2.872 44.4427 2.872 44.976C2.872 45.296 2.94667 45.552 3.096 45.744C3.24533 45.9147 3.36267 46.0427 3.448 46.128C3.53333 46.2133 3.672 46.3093 3.864 46.416C4.056 46.5013 4.216 46.576 4.344 46.64C4.472 46.6827 4.664 46.7467 4.92 46.832C5.19733 46.9173 5.4 46.9707 5.528 46.992C6.97867 47.3547 8.024 47.6747 8.664 47.952C9.304 48.208 9.912 48.528 10.488 48.912C11.6613 49.7227 12.248 51.0347 12.248 52.848C12.248 54.64 11.7147 56.0053 10.648 56.944C9.58133 57.8613 8.12 58.32 6.264 58.32C4.94133 58.32 3.66133 58.0107 2.424 57.392C2.168 57.2213 1.96533 57.136 1.816 57.136C1.34667 57.136 0.888 57.5307 0.44 58.32H0.056ZM17.899 40.56C16.7683 40.56 15.9577 40.272 15.467 39.696C14.9977 39.12 14.763 38.4053 14.763 37.552C14.763 36.6987 15.019 35.9947 15.531 35.44C16.0643 34.8853 16.8643 34.608 17.931 34.608C18.9977 34.608 19.8083 34.864 20.363 35.376C20.9177 35.8667 21.195 36.5813 21.195 37.52C21.195 38.4373 20.9283 39.1733 20.395 39.728C19.8617 40.2827 19.0297 40.56 17.899 40.56ZM13.067 42.768H20.907V57.424H22.699V58H13.195V57.424H14.955V43.344H13.067V42.768ZM29.8473 51.376C29.8473 53.616 29.9646 55.1093 30.1993 55.856C30.4339 56.5813 30.8606 56.944 31.4792 56.944C32.1192 56.944 32.6633 56.6667 33.1113 56.112C33.5806 55.5573 33.8153 54.736 33.8153 53.648V46.672C33.8153 45.7547 33.6339 44.976 33.2713 44.336C32.9086 43.696 32.3753 43.376 31.6713 43.376C30.9673 43.376 30.4873 43.8453 30.2313 44.784C29.9753 45.7227 29.8473 47.3653 29.8473 49.712V51.376ZM34.2313 58L33.8793 55.76C33.1539 57.4667 31.6819 58.32 29.4633 58.32C27.6286 58.32 26.1993 57.6587 25.1753 56.336C24.1726 55.0133 23.6713 53.04 23.6713 50.416C23.6713 45.104 25.7833 42.448 30.0073 42.448C31.8846 42.448 33.1219 42.9707 33.7193 44.016V34.576H31.7673V34H39.7673V57.424H41.3353V58H34.2313ZM50.5798 58.32C47.8278 58.32 45.7584 57.616 44.3718 56.208C43.0064 54.7787 42.3238 52.8053 42.3238 50.288C42.3238 47.7493 43.0918 45.808 44.6278 44.464C46.1851 43.12 48.1584 42.448 50.5478 42.448C55.3904 42.448 57.7158 44.88 57.5238 49.744H48.4998V50.992C48.4998 53.0827 48.7664 54.6613 49.2998 55.728C49.8331 56.7947 50.7611 57.328 52.0838 57.328C54.5584 57.328 56.1798 56.0053 56.9478 53.36L57.5238 53.456C57.1184 54.992 56.3824 56.1867 55.3158 57.04C54.2704 57.8933 52.6918 58.32 50.5798 58.32ZM48.5318 49.104H51.8278V47.536C51.8278 45.808 51.7211 44.6347 51.5078 44.016C51.3158 43.376 50.9104 43.056 50.2917 43.056C49.6944 43.056 49.2464 43.3973 48.9478 44.08C48.6704 44.7413 48.5318 45.8933 48.5318 47.536V49.104ZM74.7498 51.696V48.976C74.7498 46.9067 74.6324 45.4027 74.3978 44.464C74.1844 43.504 73.6724 43.024 72.8618 43.024C72.3924 43.024 72.0084 43.1627 71.7098 43.44C71.4324 43.696 71.2298 44.1333 71.1018 44.752C70.9098 45.712 70.8138 47.1733 70.8138 49.136V51.632C70.8138 53.9573 70.8778 55.3547 71.0058 55.824C71.1551 56.2933 71.3044 56.6773 71.4538 56.976C71.6884 57.488 72.1471 57.744 72.8298 57.744C73.6618 57.744 74.2058 57.264 74.4618 56.304C74.6538 55.6213 74.7498 54.0853 74.7498 51.696ZM72.7658 58.32C70.0991 58.32 68.0831 57.6373 66.7178 56.272C65.3524 54.9067 64.6698 52.9547 64.6698 50.416C64.6698 47.856 65.3951 45.8933 66.8458 44.528C68.3178 43.1413 70.3764 42.448 73.0218 42.448C75.6671 42.448 77.6404 43.088 78.9418 44.368C80.2431 45.6267 80.8938 47.5573 80.8938 50.16C80.8938 55.6 78.1844 58.32 72.7658 58.32ZM91.4848 33.808C90.6741 33.808 90.1408 34.1173 89.8848 34.736C89.6288 35.3333 89.5008 36.304 89.5008 37.648V42.768H93.7248V43.344H89.5008V57.424H93.4048V58H81.7888V57.424H83.5488V43.344H81.6928V42.768H83.5488V42.64C83.5488 39.568 84.1354 37.2427 85.3088 35.664C86.4821 34.064 88.4448 33.264 91.1968 33.264C93.0101 33.264 94.3114 33.6267 95.1008 34.352C95.8901 35.056 96.2848 35.8773 96.2848 36.816C96.2848 37.7547 96.0394 38.4587 95.5488 38.928C95.0581 39.3973 94.4074 39.632 93.5968 39.632C92.7861 39.632 92.1568 39.4293 91.7088 39.024C91.2821 38.5973 91.0688 38.1173 91.0688 37.584C91.0688 37.0293 91.1328 36.496 91.2608 35.984H92.4768C92.9034 34.5333 92.5728 33.808 91.4848 33.808ZM109.485 33.808C108.674 33.808 108.141 34.1173 107.885 34.736C107.629 35.3333 107.501 36.304 107.501 37.648V42.768H111.725V43.344H107.501V57.424H111.405V58H99.7888V57.424H101.549V43.344H99.6928V42.768H101.549V42.64C101.549 39.568 102.135 37.2427 103.309 35.664C104.482 34.064 106.445 33.264 109.197 33.264C111.01 33.264 112.311 33.6267 113.101 34.352C113.89 35.056 114.285 35.8773 114.285 36.816C114.285 37.7547 114.039 38.4587 113.549 38.928C113.058 39.3973 112.407 39.632 111.597 39.632C110.786 39.632 110.157 39.4293 109.709 39.024C109.282 38.5973 109.069 38.1173 109.069 37.584C109.069 37.0293 109.133 36.496 109.261 35.984H110.477C110.903 34.5333 110.573 33.808 109.485 33.808ZM119.406 50.48H120.334V48.016C120.334 45.9893 120.217 44.6347 119.982 43.952C119.769 43.248 119.342 42.896 118.702 42.896C118.318 42.896 117.966 43.0027 117.646 43.216C117.348 43.408 117.198 43.6853 117.198 44.048C117.198 44.3893 117.262 44.7413 117.39 45.104H118.19C118.361 45.552 118.446 46.096 118.446 46.736C118.446 47.3547 118.18 47.8987 117.646 48.368C117.113 48.816 116.441 49.04 115.63 49.04C113.796 49.04 112.878 48.1547 112.878 46.384C112.878 43.76 115.108 42.448 119.566 42.448C122.105 42.448 123.854 42.8853 124.814 43.76C125.796 44.6133 126.286 46.192 126.286 48.496V54.992C126.286 56.1013 126.596 56.656 127.214 56.656C127.94 56.656 128.366 55.5573 128.494 53.36L128.974 53.392C128.889 55.2693 128.537 56.56 127.918 57.264C127.3 57.968 126.286 58.32 124.878 58.32C122.318 58.32 120.846 57.5307 120.462 55.952C120.185 56.7627 119.769 57.36 119.214 57.744C118.66 58.128 117.849 58.32 116.782 58.32C113.625 58.32 112.046 57.0293 112.046 54.448C112.046 52.9333 112.644 51.8987 113.838 51.344C115.054 50.768 116.91 50.48 119.406 50.48ZM118.126 54.416C118.126 55.5253 118.18 56.24 118.286 56.56C118.414 56.88 118.638 57.04 118.958 57.04C119.3 57.04 119.609 56.7733 119.886 56.24C120.185 55.6853 120.334 54.928 120.334 53.968V50.992H120.11C118.788 50.992 118.126 51.9627 118.126 53.904V54.416ZM130.025 58.32V52.592H130.409C130.963 54.448 131.71 55.7493 132.649 56.496C133.587 57.2427 134.761 57.616 136.169 57.616C138.345 57.616 139.433 56.9227 139.433 55.536C139.433 54.9387 139.166 54.4907 138.633 54.192C137.801 53.7227 136.734 53.36 135.433 53.104C133.982 52.72 132.766 52.208 131.785 51.568C130.611 50.8 130.025 49.584 130.025 47.92C130.025 46.256 130.537 44.9333 131.561 43.952C132.585 42.9493 133.95 42.448 135.657 42.448C136.702 42.448 137.779 42.6933 138.889 43.184C139.294 43.3547 139.603 43.44 139.817 43.44C140.03 43.44 140.211 43.3653 140.361 43.216C140.51 43.0667 140.691 42.7893 140.905 42.384H141.257V47.28H140.873C139.785 44.5067 138.099 43.12 135.817 43.12C134.814 43.12 134.067 43.3013 133.577 43.664C133.086 44.0053 132.841 44.4427 132.841 44.976C132.841 45.296 132.915 45.552 133.065 45.744C133.214 45.9147 133.331 46.0427 133.417 46.128C133.502 46.2133 133.641 46.3093 133.833 46.416C134.025 46.5013 134.185 46.576 134.313 46.64C134.441 46.6827 134.633 46.7467 134.889 46.832C135.166 46.9173 135.369 46.9707 135.497 46.992C136.947 47.3547 137.993 47.6747 138.633 47.952C139.273 48.208 139.881 48.528 140.457 48.912C141.63 49.7227 142.217 51.0347 142.217 52.848C142.217 54.64 141.683 56.0053 140.617 56.944C139.55 57.8613 138.089 58.32 136.233 58.32C134.91 58.32 133.63 58.0107 132.393 57.392C132.137 57.2213 131.934 57.136 131.785 57.136C131.315 57.136 130.857 57.5307 130.409 58.32H130.025ZM143.164 34H150.876V45.712C151.217 44.7307 151.74 43.9413 152.444 43.344C153.148 42.7467 154.214 42.448 155.644 42.448C158.95 42.448 160.604 44.2293 160.604 47.792V57.424H162.396V58H153.34V57.424H154.652V47.024C154.652 45.744 154.566 44.9227 154.396 44.56C154.225 44.176 153.916 43.984 153.468 43.984C152.785 43.984 152.177 44.432 151.644 45.328C151.132 46.224 150.876 47.312 150.876 48.592V57.424H152.252V58H143.164V57.424H144.924V34.576H143.164V34ZM167.587 40.56C166.456 40.56 165.645 40.272 165.155 39.696C164.685 39.12 164.451 38.4053 164.451 37.552C164.451 36.6987 164.707 35.9947 165.219 35.44C165.752 34.8853 166.552 34.608 167.619 34.608C168.685 34.608 169.496 34.864 170.051 35.376C170.605 35.8667 170.883 36.5813 170.883 37.52C170.883 38.4373 170.616 39.1733 170.083 39.728C169.549 40.2827 168.717 40.56 167.587 40.56ZM162.755 42.768H170.595V57.424H172.387V58H162.883V57.424H164.643V43.344H162.755V42.768ZM183.375 51.696V48.976C183.375 46.9067 183.257 45.4027 183.023 44.464C182.809 43.504 182.297 43.024 181.487 43.024C181.017 43.024 180.633 43.1627 180.335 43.44C180.057 43.696 179.855 44.1333 179.727 44.752C179.535 45.712 179.439 47.1733 179.439 49.136V51.632C179.439 53.9573 179.503 55.3547 179.631 55.824C179.78 56.2933 179.929 56.6773 180.079 56.976C180.313 57.488 180.772 57.744 181.455 57.744C182.287 57.744 182.831 57.264 183.087 56.304C183.279 55.6213 183.375 54.0853 183.375 51.696ZM181.391 58.32C178.724 58.32 176.708 57.6373 175.343 56.272C173.977 54.9067 173.295 52.9547 173.295 50.416C173.295 47.856 174.02 45.8933 175.471 44.528C176.943 43.1413 179.001 42.448 181.647 42.448C184.292 42.448 186.265 43.088 187.567 44.368C188.868 45.6267 189.519 47.5573 189.519 50.16C189.519 55.6 186.809 58.32 181.391 58.32ZM190.478 42.768H198.19V45.712C198.531 44.7307 199.054 43.9413 199.758 43.344C200.462 42.7467 201.528 42.448 202.958 42.448C206.264 42.448 207.918 44.2293 207.918 47.792V57.424H209.71V58H200.654V57.424H201.966V47.024C201.966 45.744 201.88 44.9227 201.71 44.56C201.539 44.176 201.23 43.984 200.782 43.984C200.099 43.984 199.491 44.432 198.958 45.328C198.446 46.224 198.19 47.312 198.19 48.592V57.424H199.566V58H190.478V57.424H192.238V43.344H190.478V42.768Z" fill="black"/>
</svg>
