<svg width="230" height="26" viewBox="0 0 230 26" fill="none" xmlns="http://www.w3.org/2000/svg">
<path d="M0.828 10C0.604 10 0.432 9.904 0.312 9.712C0.192 9.52 0.18 9.316 0.276 9.1L3.648 1.048C3.768 0.768 3.964 0.628 4.236 0.628C4.524 0.628 4.72 0.768 4.824 1.048L8.208 9.124C8.296 9.348 8.28 9.552 8.16 9.736C8.048 9.912 7.876 10 7.644 10C7.524 10 7.408 9.968 7.296 9.904C7.192 9.832 7.116 9.736 7.068 9.616L4.092 2.224H4.428L1.404 9.616C1.348 9.744 1.264 9.84 1.152 9.904C1.048 9.968 0.94 10 0.828 10ZM1.464 7.936L1.944 6.904H6.648L7.128 7.936H1.464ZM15.7691 10.048C15.1691 10.048 14.6371 9.908 14.1731 9.628C13.7171 9.34 13.3571 8.948 13.0931 8.452C12.8291 7.948 12.6971 7.372 12.6971 6.724C12.6971 6.068 12.8371 5.492 13.1171 4.996C13.4051 4.492 13.7971 4.1 14.2931 3.82C14.7891 3.532 15.3611 3.388 16.0091 3.388C16.6491 3.388 17.2171 3.532 17.7131 3.82C18.2091 4.1 18.5971 4.492 18.8771 4.996C19.1651 5.492 19.3091 6.068 19.3091 6.724H18.6011C18.6011 7.372 18.4771 7.948 18.2291 8.452C17.9891 8.948 17.6571 9.34 17.2331 9.628C16.8091 9.908 16.3211 10.048 15.7691 10.048ZM15.9851 12.724C15.4171 12.724 14.8851 12.612 14.3891 12.388C13.8931 12.164 13.4731 11.836 13.1291 11.404C13.0251 11.268 12.9851 11.128 13.0091 10.984C13.0411 10.84 13.1211 10.724 13.2491 10.636C13.3931 10.54 13.5411 10.508 13.6931 10.54C13.8531 10.572 13.9811 10.652 14.0771 10.78C14.2931 11.052 14.5651 11.264 14.8931 11.416C15.2211 11.568 15.5931 11.644 16.0091 11.644C16.3931 11.644 16.7451 11.552 17.0651 11.368C17.3931 11.184 17.6531 10.912 17.8451 10.552C18.0371 10.192 18.1331 9.752 18.1331 9.232V7.528L18.5291 6.472L19.3091 6.724V9.316C19.3091 9.948 19.1691 10.52 18.8891 11.032C18.6091 11.552 18.2171 11.964 17.7131 12.268C17.2171 12.572 16.6411 12.724 15.9851 12.724ZM16.0091 8.968C16.4251 8.968 16.7931 8.872 17.1131 8.68C17.4331 8.488 17.6811 8.224 17.8571 7.888C18.0411 7.552 18.1331 7.164 18.1331 6.724C18.1331 6.284 18.0411 5.896 17.8571 5.56C17.6811 5.216 17.4331 4.948 17.1131 4.756C16.7931 4.564 16.4251 4.468 16.0091 4.468C15.5931 4.468 15.2251 4.564 14.9051 4.756C14.5851 4.948 14.3331 5.216 14.1491 5.56C13.9651 5.896 13.8731 6.284 13.8731 6.724C13.8731 7.164 13.9651 7.552 14.1491 7.888C14.3331 8.224 14.5851 8.488 14.9051 8.68C15.2251 8.872 15.5931 8.968 16.0091 8.968ZM23.8668 10.048C23.2828 10.048 22.7588 9.904 22.2948 9.616C21.8308 9.32 21.4628 8.924 21.1908 8.428C20.9268 7.924 20.7948 7.356 20.7948 6.724C20.7948 6.092 20.9388 5.524 21.2268 5.02C21.5228 4.516 21.9188 4.12 22.4148 3.832C22.9188 3.536 23.4828 3.388 24.1068 3.388C24.7308 3.388 25.2908 3.536 25.7868 3.832C26.2828 4.12 26.6748 4.516 26.9628 5.02C27.2588 5.524 27.4068 6.092 27.4068 6.724H26.9388C26.9388 7.356 26.8028 7.924 26.5308 8.428C26.2668 8.924 25.9028 9.32 25.4388 9.616C24.9748 9.904 24.4508 10.048 23.8668 10.048ZM24.1068 8.968C24.5148 8.968 24.8788 8.872 25.1988 8.68C25.5188 8.48 25.7708 8.212 25.9548 7.876C26.1388 7.532 26.2308 7.148 26.2308 6.724C26.2308 6.292 26.1388 5.908 25.9548 5.572C25.7708 5.228 25.5188 4.96 25.1988 4.768C24.8788 4.568 24.5148 4.468 24.1068 4.468C23.7068 4.468 23.3428 4.568 23.0148 4.768C22.6948 4.96 22.4388 5.228 22.2468 5.572C22.0628 5.908 21.9708 6.292 21.9708 6.724C21.9708 7.148 22.0628 7.532 22.2468 7.876C22.4388 8.212 22.6948 8.48 23.0148 8.68C23.3428 8.872 23.7068 8.968 24.1068 8.968ZM26.7948 10.012C26.6188 10.012 26.4708 9.956 26.3508 9.844C26.2388 9.724 26.1828 9.576 26.1828 9.4V7.564L26.4108 6.292L27.4068 6.724V9.4C27.4068 9.576 27.3468 9.724 27.2268 9.844C27.1148 9.956 26.9708 10.012 26.7948 10.012ZM37.8444 10.012C37.6684 10.012 37.5204 9.956 37.4004 9.844C37.2884 9.724 37.2324 9.576 37.2324 9.4V5.968C37.2324 5.464 37.1084 5.092 36.8604 4.852C36.6124 4.604 36.2884 4.48 35.8884 4.48C35.4724 4.48 35.1284 4.624 34.8564 4.912C34.5924 5.2 34.4604 5.568 34.4604 6.016H33.4644C33.4644 5.496 33.5764 5.04 33.8004 4.648C34.0244 4.248 34.3364 3.936 34.7364 3.712C35.1444 3.488 35.6084 3.376 36.1284 3.376C36.5844 3.376 36.9884 3.476 37.3404 3.676C37.6924 3.876 37.9644 4.172 38.1564 4.564C38.3564 4.948 38.4564 5.416 38.4564 5.968V9.4C38.4564 9.576 38.4004 9.724 38.2884 9.844C38.1764 9.956 38.0284 10.012 37.8444 10.012ZM29.8404 10.012C29.6644 10.012 29.5164 9.956 29.3964 9.844C29.2844 9.724 29.2284 9.576 29.2284 9.4V4.06C29.2284 3.876 29.2844 3.728 29.3964 3.616C29.5164 3.504 29.6644 3.448 29.8404 3.448C30.0244 3.448 30.1724 3.504 30.2844 3.616C30.3964 3.728 30.4524 3.876 30.4524 4.06V9.4C30.4524 9.576 30.3964 9.724 30.2844 9.844C30.1724 9.956 30.0244 10.012 29.8404 10.012ZM33.8484 10.012C33.6724 10.012 33.5244 9.956 33.4044 9.844C33.2924 9.724 33.2364 9.576 33.2364 9.4V5.968C33.2364 5.464 33.1124 5.092 32.8644 4.852C32.6164 4.604 32.2924 4.48 31.8924 4.48C31.4764 4.48 31.1324 4.624 30.8604 4.912C30.5884 5.2 30.4524 5.568 30.4524 6.016H29.6964C29.6964 5.496 29.8004 5.04 30.0084 4.648C30.2164 4.248 30.5044 3.936 30.8724 3.712C31.2404 3.488 31.6604 3.376 32.1324 3.376C32.5884 3.376 32.9924 3.476 33.3444 3.676C33.6964 3.876 33.9684 4.172 34.1604 4.564C34.3604 4.948 34.4604 5.416 34.4604 5.968V9.4C34.4604 9.576 34.4044 9.724 34.2924 9.844C34.1804 9.956 34.0324 10.012 33.8484 10.012ZM43.5742 10.048C42.9102 10.048 42.3182 9.908 41.7982 9.628C41.2862 9.34 40.8822 8.948 40.5862 8.452C40.2982 7.948 40.1542 7.372 40.1542 6.724C40.1542 6.068 40.2902 5.492 40.5622 4.996C40.8422 4.492 41.2262 4.1 41.7142 3.82C42.2022 3.532 42.7622 3.388 43.3942 3.388C44.0182 3.388 44.5542 3.528 45.0022 3.808C45.4502 4.08 45.7902 4.46 46.0222 4.948C46.2622 5.428 46.3822 5.984 46.3822 6.616C46.3822 6.768 46.3302 6.896 46.2262 7C46.1222 7.096 45.9902 7.144 45.8302 7.144H40.9942V6.184H45.7942L45.3022 6.52C45.2942 6.12 45.2142 5.764 45.0622 5.452C44.9102 5.132 44.6942 4.88 44.4142 4.696C44.1342 4.512 43.7942 4.42 43.3942 4.42C42.9382 4.42 42.5462 4.52 42.2182 4.72C41.8982 4.92 41.6542 5.196 41.4862 5.548C41.3182 5.892 41.2342 6.284 41.2342 6.724C41.2342 7.164 41.3342 7.556 41.5342 7.9C41.7342 8.244 42.0102 8.516 42.3622 8.716C42.7142 8.916 43.1182 9.016 43.5742 9.016C43.8222 9.016 44.0742 8.972 44.3302 8.884C44.5942 8.788 44.8062 8.68 44.9662 8.56C45.0862 8.472 45.2142 8.428 45.3502 8.428C45.4942 8.42 45.6182 8.46 45.7222 8.548C45.8582 8.668 45.9302 8.8 45.9382 8.944C45.9462 9.088 45.8822 9.212 45.7462 9.316C45.4742 9.532 45.1342 9.708 44.7262 9.844C44.3262 9.98 43.9422 10.048 43.5742 10.048ZM53.8469 10C53.4469 10 53.0869 9.9 52.7669 9.7C52.4469 9.492 52.1949 9.212 52.0109 8.86C51.8269 8.508 51.7349 8.112 51.7349 7.672V1.948C51.7349 1.772 51.7909 1.628 51.9029 1.516C52.0149 1.404 52.1589 1.348 52.3349 1.348C52.5109 1.348 52.6549 1.404 52.7669 1.516C52.8789 1.628 52.9349 1.772 52.9349 1.948V7.672C52.9349 7.992 53.0229 8.26 53.1989 8.476C53.3749 8.692 53.5909 8.8 53.8469 8.8H54.2549C54.3989 8.8 54.5189 8.856 54.6149 8.968C54.7189 9.08 54.7709 9.224 54.7709 9.4C54.7709 9.576 54.7029 9.72 54.5669 9.832C54.4389 9.944 54.2709 10 54.0629 10H53.8469ZM51.1829 4.708C51.0149 4.708 50.8789 4.66 50.7749 4.564C50.6709 4.468 50.6189 4.348 50.6189 4.204C50.6189 4.044 50.6709 3.916 50.7749 3.82C50.8789 3.724 51.0149 3.676 51.1829 3.676H53.9549C54.1229 3.676 54.2589 3.724 54.3629 3.82C54.4669 3.916 54.5189 4.044 54.5189 4.204C54.5189 4.348 54.4669 4.468 54.3629 4.564C54.2589 4.66 54.1229 4.708 53.9549 4.708H51.1829ZM59.3593 10.048C58.6953 10.048 58.1033 9.908 57.5833 9.628C57.0713 9.34 56.6673 8.948 56.3713 8.452C56.0833 7.948 55.9393 7.372 55.9393 6.724C55.9393 6.068 56.0753 5.492 56.3473 4.996C56.6273 4.492 57.0113 4.1 57.4993 3.82C57.9873 3.532 58.5473 3.388 59.1793 3.388C59.8033 3.388 60.3393 3.528 60.7873 3.808C61.2353 4.08 61.5753 4.46 61.8073 4.948C62.0473 5.428 62.1673 5.984 62.1673 6.616C62.1673 6.768 62.1153 6.896 62.0113 7C61.9073 7.096 61.7753 7.144 61.6153 7.144H56.7793V6.184H61.5793L61.0873 6.52C61.0793 6.12 60.9993 5.764 60.8473 5.452C60.6953 5.132 60.4793 4.88 60.1993 4.696C59.9193 4.512 59.5793 4.42 59.1793 4.42C58.7233 4.42 58.3313 4.52 58.0033 4.72C57.6833 4.92 57.4393 5.196 57.2713 5.548C57.1033 5.892 57.0193 6.284 57.0193 6.724C57.0193 7.164 57.1193 7.556 57.3193 7.9C57.5193 8.244 57.7953 8.516 58.1473 8.716C58.4993 8.916 58.9033 9.016 59.3593 9.016C59.6073 9.016 59.8593 8.972 60.1153 8.884C60.3793 8.788 60.5913 8.68 60.7513 8.56C60.8713 8.472 60.9993 8.428 61.1353 8.428C61.2793 8.42 61.4033 8.46 61.5073 8.548C61.6433 8.668 61.7153 8.8 61.7233 8.944C61.7313 9.088 61.6673 9.212 61.5313 9.316C61.2593 9.532 60.9193 9.708 60.5113 9.844C60.1113 9.98 59.7273 10.048 59.3593 10.048ZM65.2884 10C64.9364 10 64.6244 9.904 64.3524 9.712C64.0804 9.52 63.8684 9.26 63.7164 8.932C63.5644 8.596 63.4884 8.212 63.4884 7.78V1.228C63.4884 1.052 63.5444 0.908 63.6564 0.796C63.7684 0.684 63.9124 0.628 64.0884 0.628C64.2644 0.628 64.4084 0.684 64.5204 0.796C64.6324 0.908 64.6884 1.052 64.6884 1.228V7.78C64.6884 8.076 64.7444 8.32 64.8564 8.512C64.9684 8.704 65.1124 8.8 65.2884 8.8H65.5884C65.7484 8.8 65.8764 8.856 65.9724 8.968C66.0764 9.08 66.1284 9.224 66.1284 9.4C66.1284 9.576 66.0524 9.72 65.9004 9.832C65.7484 9.944 65.5524 10 65.3124 10H65.2884ZM68.8861 10C68.5341 10 68.2221 9.904 67.9501 9.712C67.6781 9.52 67.4661 9.26 67.3141 8.932C67.1621 8.596 67.0861 8.212 67.0861 7.78V1.228C67.0861 1.052 67.1421 0.908 67.2541 0.796C67.3661 0.684 67.5101 0.628 67.6861 0.628C67.8621 0.628 68.0061 0.684 68.1181 0.796C68.2301 0.908 68.2861 1.052 68.2861 1.228V7.78C68.2861 8.076 68.3421 8.32 68.4541 8.512C68.5661 8.704 68.7101 8.8 68.8861 8.8H69.1861C69.3461 8.8 69.4741 8.856 69.5701 8.968C69.6741 9.08 69.7261 9.224 69.7261 9.4C69.7261 9.576 69.6501 9.72 69.4981 9.832C69.3461 9.944 69.1501 10 68.9101 10H68.8861ZM73.3118 10.048C72.7518 10.048 72.2318 9.964 71.7518 9.796C71.2798 9.62 70.9118 9.4 70.6478 9.136C70.5278 9.008 70.4758 8.864 70.4918 8.704C70.5158 8.536 70.5958 8.4 70.7318 8.296C70.8918 8.168 71.0478 8.116 71.1998 8.14C71.3598 8.156 71.4958 8.224 71.6077 8.344C71.7438 8.496 71.9598 8.64 72.2558 8.776C72.5598 8.904 72.8958 8.968 73.2638 8.968C73.7278 8.968 74.0798 8.892 74.3198 8.74C74.5678 8.588 74.6958 8.392 74.7038 8.152C74.7118 7.912 74.5958 7.704 74.3558 7.528C74.1238 7.352 73.6958 7.208 73.0718 7.096C72.2638 6.936 71.6758 6.696 71.3078 6.376C70.9478 6.056 70.7678 5.664 70.7678 5.2C70.7678 4.792 70.8878 4.456 71.1278 4.192C71.3678 3.92 71.6758 3.72 72.0518 3.592C72.4278 3.456 72.8198 3.388 73.2278 3.388C73.7558 3.388 74.2238 3.472 74.6318 3.64C75.0398 3.808 75.3638 4.04 75.6038 4.336C75.7158 4.464 75.7678 4.6 75.7598 4.744C75.7518 4.88 75.6838 4.996 75.5558 5.092C75.4278 5.18 75.2758 5.208 75.0998 5.176C74.9238 5.144 74.7758 5.072 74.6558 4.96C74.4558 4.768 74.2398 4.636 74.0078 4.564C73.7758 4.492 73.5078 4.456 73.2038 4.456C72.8518 4.456 72.5518 4.516 72.3038 4.636C72.0638 4.756 71.9438 4.932 71.9438 5.164C71.9438 5.308 71.9798 5.44 72.0518 5.56C72.1318 5.672 72.2838 5.776 72.5078 5.872C72.7318 5.96 73.0598 6.048 73.4918 6.136C74.0918 6.256 74.5638 6.408 74.9078 6.592C75.2598 6.776 75.5118 6.992 75.6638 7.24C75.8158 7.48 75.8918 7.76 75.8918 8.08C75.8918 8.448 75.7918 8.78 75.5918 9.076C75.3998 9.372 75.1118 9.608 74.7278 9.784C74.3518 9.96 73.8798 10.048 73.3118 10.048ZM83.343 10C82.943 10 82.583 9.9 82.263 9.7C81.943 9.492 81.691 9.212 81.507 8.86C81.323 8.508 81.231 8.112 81.231 7.672V1.948C81.231 1.772 81.287 1.628 81.399 1.516C81.511 1.404 81.655 1.348 81.831 1.348C82.007 1.348 82.151 1.404 82.263 1.516C82.375 1.628 82.431 1.772 82.431 1.948V7.672C82.431 7.992 82.519 8.26 82.695 8.476C82.871 8.692 83.087 8.8 83.343 8.8H83.751C83.895 8.8 84.015 8.856 84.111 8.968C84.215 9.08 84.267 9.224 84.267 9.4C84.267 9.576 84.199 9.72 84.063 9.832C83.935 9.944 83.767 10 83.559 10H83.343ZM80.679 4.708C80.511 4.708 80.375 4.66 80.271 4.564C80.167 4.468 80.115 4.348 80.115 4.204C80.115 4.044 80.167 3.916 80.271 3.82C80.375 3.724 80.511 3.676 80.679 3.676H83.451C83.619 3.676 83.755 3.724 83.859 3.82C83.963 3.916 84.015 4.044 84.015 4.204C84.015 4.348 83.963 4.468 83.859 4.564C83.755 4.66 83.619 4.708 83.451 4.708H80.679ZM86.3834 7.612C86.2074 7.612 86.0594 7.556 85.9394 7.444C85.8274 7.324 85.7714 7.176 85.7714 7V1.24C85.7714 1.056 85.8274 0.908 85.9394 0.796C86.0594 0.684 86.2074 0.628 86.3834 0.628C86.5674 0.628 86.7154 0.684 86.8274 0.796C86.9394 0.908 86.9954 1.056 86.9954 1.24V7C86.9954 7.176 86.9394 7.324 86.8274 7.444C86.7154 7.556 86.5674 7.612 86.3834 7.612ZM91.3154 10.012C91.1394 10.012 90.9914 9.956 90.8714 9.844C90.7594 9.724 90.7034 9.576 90.7034 9.4V6.448C90.7034 5.992 90.6194 5.62 90.4514 5.332C90.2834 5.044 90.0554 4.832 89.7674 4.696C89.4874 4.552 89.1634 4.48 88.7954 4.48C88.4594 4.48 88.1554 4.548 87.8834 4.684C87.6114 4.82 87.3954 5.004 87.2354 5.236C87.0754 5.46 86.9954 5.72 86.9954 6.016H86.2394C86.2394 5.512 86.3594 5.064 86.5994 4.672C86.8474 4.272 87.1834 3.956 87.6074 3.724C88.0314 3.492 88.5074 3.376 89.0354 3.376C89.5874 3.376 90.0794 3.496 90.5114 3.736C90.9514 3.968 91.2954 4.312 91.5434 4.768C91.7994 5.224 91.9274 5.784 91.9274 6.448V9.4C91.9274 9.576 91.8674 9.724 91.7474 9.844C91.6354 9.956 91.4914 10.012 91.3154 10.012ZM86.3834 10.012C86.2074 10.012 86.0594 9.956 85.9394 9.844C85.8274 9.724 85.7714 9.576 85.7714 9.4V4.048C85.7714 3.864 85.8274 3.716 85.9394 3.604C86.0594 3.492 86.2074 3.436 86.3834 3.436C86.5674 3.436 86.7154 3.492 86.8274 3.604C86.9394 3.716 86.9954 3.864 86.9954 4.048V9.4C86.9954 9.576 86.9394 9.724 86.8274 9.844C86.7154 9.956 86.5674 10.012 86.3834 10.012ZM97.0468 10.048C96.3828 10.048 95.7908 9.908 95.2708 9.628C94.7588 9.34 94.3548 8.948 94.0588 8.452C93.7708 7.948 93.6268 7.372 93.6268 6.724C93.6268 6.068 93.7628 5.492 94.0348 4.996C94.3148 4.492 94.6988 4.1 95.1868 3.82C95.6748 3.532 96.2348 3.388 96.8668 3.388C97.4908 3.388 98.0268 3.528 98.4748 3.808C98.9228 4.08 99.2628 4.46 99.4948 4.948C99.7348 5.428 99.8548 5.984 99.8548 6.616C99.8548 6.768 99.8028 6.896 99.6988 7C99.5948 7.096 99.4628 7.144 99.3028 7.144H94.4668V6.184H99.2668L98.7748 6.52C98.7668 6.12 98.6868 5.764 98.5348 5.452C98.3828 5.132 98.1668 4.88 97.8868 4.696C97.6068 4.512 97.2668 4.42 96.8668 4.42C96.4108 4.42 96.0188 4.52 95.6908 4.72C95.3708 4.92 95.1268 5.196 94.9588 5.548C94.7908 5.892 94.7068 6.284 94.7068 6.724C94.7068 7.164 94.8068 7.556 95.0068 7.9C95.2068 8.244 95.4828 8.516 95.8348 8.716C96.1868 8.916 96.5908 9.016 97.0468 9.016C97.2948 9.016 97.5468 8.972 97.8028 8.884C98.0668 8.788 98.2788 8.68 98.4388 8.56C98.5588 8.472 98.6868 8.428 98.8228 8.428C98.9668 8.42 99.0908 8.46 99.1948 8.548C99.3308 8.668 99.4028 8.8 99.4108 8.944C99.4188 9.088 99.3548 9.212 99.2188 9.316C98.9468 9.532 98.6068 9.708 98.1988 9.844C97.7988 9.98 97.4148 10.048 97.0468 10.048ZM107.908 10.048C107.284 10.048 106.72 9.904 106.216 9.616C105.72 9.32 105.324 8.92 105.028 8.416C104.74 7.912 104.596 7.344 104.596 6.712C104.596 6.08 104.728 5.516 104.992 5.02C105.264 4.516 105.632 4.12 106.096 3.832C106.56 3.536 107.084 3.388 107.668 3.388C108.14 3.388 108.576 3.488 108.976 3.688C109.376 3.88 109.712 4.144 109.984 4.48V1.24C109.984 1.056 110.04 0.908 110.152 0.796C110.272 0.684 110.42 0.628 110.596 0.628C110.78 0.628 110.928 0.684 111.04 0.796C111.152 0.908 111.208 1.056 111.208 1.24V6.712C111.208 7.344 111.06 7.912 110.764 8.416C110.476 8.92 110.084 9.32 109.588 9.616C109.092 9.904 108.532 10.048 107.908 10.048ZM107.908 8.968C108.316 8.968 108.68 8.872 109 8.68C109.32 8.48 109.572 8.208 109.756 7.864C109.94 7.52 110.032 7.136 110.032 6.712C110.032 6.28 109.94 5.896 109.756 5.56C109.572 5.224 109.32 4.96 109 4.768C108.68 4.568 108.316 4.468 107.908 4.468C107.508 4.468 107.144 4.568 106.816 4.768C106.496 4.96 106.24 5.224 106.048 5.56C105.864 5.896 105.772 6.28 105.772 6.712C105.772 7.136 105.864 7.52 106.048 7.864C106.24 8.208 106.496 8.48 106.816 8.68C107.144 8.872 107.508 8.968 107.908 8.968ZM116.105 10.048C115.521 10.048 114.997 9.904 114.533 9.616C114.069 9.32 113.701 8.924 113.429 8.428C113.165 7.924 113.033 7.356 113.033 6.724C113.033 6.092 113.177 5.524 113.465 5.02C113.761 4.516 114.157 4.12 114.653 3.832C115.157 3.536 115.721 3.388 116.345 3.388C116.969 3.388 117.529 3.536 118.025 3.832C118.521 4.12 118.913 4.516 119.201 5.02C119.497 5.524 119.645 6.092 119.645 6.724H119.177C119.177 7.356 119.041 7.924 118.769 8.428C118.505 8.924 118.141 9.32 117.677 9.616C117.213 9.904 116.689 10.048 116.105 10.048ZM116.345 8.968C116.753 8.968 117.117 8.872 117.437 8.68C117.757 8.48 118.009 8.212 118.193 7.876C118.377 7.532 118.469 7.148 118.469 6.724C118.469 6.292 118.377 5.908 118.193 5.572C118.009 5.228 117.757 4.96 117.437 4.768C117.117 4.568 116.753 4.468 116.345 4.468C115.945 4.468 115.581 4.568 115.253 4.768C114.933 4.96 114.677 5.228 114.485 5.572C114.301 5.908 114.209 6.292 114.209 6.724C114.209 7.148 114.301 7.532 114.485 7.876C114.677 8.212 114.933 8.48 115.253 8.68C115.581 8.872 115.945 8.968 116.345 8.968ZM119.033 10.012C118.857 10.012 118.709 9.956 118.589 9.844C118.477 9.724 118.421 9.576 118.421 9.4V7.564L118.649 6.292L119.645 6.724V9.4C119.645 9.576 119.585 9.724 119.465 9.844C119.353 9.956 119.209 10.012 119.033 10.012ZM122.055 5.896C122.055 5.416 122.171 4.988 122.403 4.612C122.643 4.228 122.963 3.924 123.363 3.7C123.763 3.476 124.203 3.364 124.683 3.364C125.163 3.364 125.519 3.444 125.751 3.604C125.991 3.756 126.083 3.94 126.027 4.156C126.003 4.268 125.955 4.356 125.883 4.42C125.819 4.476 125.743 4.512 125.655 4.528C125.567 4.544 125.471 4.54 125.367 4.516C124.855 4.412 124.395 4.404 123.987 4.492C123.579 4.58 123.255 4.744 123.015 4.984C122.783 5.224 122.667 5.528 122.667 5.896H122.055ZM122.067 10C121.875 10 121.727 9.952 121.623 9.856C121.519 9.752 121.467 9.6 121.467 9.4V4.036C121.467 3.844 121.519 3.696 121.623 3.592C121.727 3.488 121.875 3.436 122.067 3.436C122.267 3.436 122.415 3.488 122.511 3.592C122.615 3.688 122.667 3.836 122.667 4.036V9.4C122.667 9.592 122.615 9.74 122.511 9.844C122.415 9.948 122.267 10 122.067 10ZM128.455 7.6L127.711 6.784L131.395 3.496C131.515 3.384 131.647 3.332 131.791 3.34C131.943 3.348 132.071 3.412 132.175 3.532C132.287 3.652 132.339 3.784 132.331 3.928C132.323 4.072 132.259 4.2 132.139 4.312L128.455 7.6ZM127.891 10C127.715 10 127.571 9.948 127.459 9.844C127.355 9.732 127.303 9.588 127.303 9.412V1.216C127.303 1.04 127.355 0.9 127.459 0.796C127.571 0.684 127.715 0.628 127.891 0.628C128.067 0.628 128.207 0.684 128.311 0.796C128.423 0.9 128.479 1.04 128.479 1.216V9.412C128.479 9.588 128.423 9.732 128.311 9.844C128.207 9.948 128.067 10 127.891 10ZM132.175 9.94C132.047 10.044 131.903 10.088 131.743 10.072C131.591 10.064 131.463 9.996 131.359 9.868L128.923 6.856L129.763 6.064L132.259 9.136C132.363 9.264 132.407 9.404 132.391 9.556C132.383 9.7 132.311 9.828 132.175 9.94ZM140.038 10.048C139.478 10.048 138.958 9.964 138.478 9.796C138.006 9.62 137.638 9.4 137.374 9.136C137.254 9.008 137.202 8.864 137.218 8.704C137.242 8.536 137.322 8.4 137.458 8.296C137.618 8.168 137.774 8.116 137.926 8.14C138.086 8.156 138.222 8.224 138.334 8.344C138.47 8.496 138.686 8.64 138.982 8.776C139.286 8.904 139.622 8.968 139.99 8.968C140.454 8.968 140.806 8.892 141.046 8.74C141.294 8.588 141.422 8.392 141.43 8.152C141.438 7.912 141.322 7.704 141.082 7.528C140.85 7.352 140.422 7.208 139.798 7.096C138.99 6.936 138.402 6.696 138.034 6.376C137.674 6.056 137.494 5.664 137.494 5.2C137.494 4.792 137.614 4.456 137.854 4.192C138.094 3.92 138.402 3.72 138.778 3.592C139.154 3.456 139.546 3.388 139.954 3.388C140.482 3.388 140.95 3.472 141.358 3.64C141.766 3.808 142.09 4.04 142.33 4.336C142.442 4.464 142.494 4.6 142.486 4.744C142.478 4.88 142.41 4.996 142.282 5.092C142.154 5.18 142.002 5.208 141.826 5.176C141.65 5.144 141.502 5.072 141.382 4.96C141.182 4.768 140.966 4.636 140.734 4.564C140.502 4.492 140.234 4.456 139.93 4.456C139.578 4.456 139.278 4.516 139.03 4.636C138.79 4.756 138.67 4.932 138.67 5.164C138.67 5.308 138.706 5.44 138.778 5.56C138.858 5.672 139.01 5.776 139.234 5.872C139.458 5.96 139.786 6.048 140.218 6.136C140.818 6.256 141.29 6.408 141.634 6.592C141.986 6.776 142.238 6.992 142.39 7.24C142.542 7.48 142.618 7.76 142.618 8.08C142.618 8.448 142.518 8.78 142.318 9.076C142.126 9.372 141.838 9.608 141.454 9.784C141.078 9.96 140.606 10.048 140.038 10.048ZM144.898 10C144.722 10 144.574 9.944 144.454 9.832C144.342 9.712 144.286 9.564 144.286 9.388V4.048C144.286 3.864 144.342 3.716 144.454 3.604C144.574 3.492 144.722 3.436 144.898 3.436C145.082 3.436 145.23 3.492 145.342 3.604C145.454 3.716 145.51 3.864 145.51 4.048V9.388C145.51 9.564 145.454 9.712 145.342 9.832C145.23 9.944 145.082 10 144.898 10ZM144.898 2.368C144.682 2.368 144.494 2.292 144.334 2.14C144.182 1.98 144.106 1.792 144.106 1.576C144.106 1.36 144.182 1.176 144.334 1.024C144.494 0.864 144.682 0.784 144.898 0.784C145.114 0.784 145.298 0.864 145.45 1.024C145.61 1.176 145.69 1.36 145.69 1.576C145.69 1.792 145.61 1.98 145.45 2.14C145.298 2.292 145.114 2.368 144.898 2.368ZM150.763 10.048C150.139 10.048 149.575 9.904 149.071 9.616C148.575 9.32 148.179 8.92 147.883 8.416C147.595 7.912 147.451 7.344 147.451 6.712C147.451 6.08 147.583 5.516 147.847 5.02C148.119 4.516 148.487 4.12 148.951 3.832C149.415 3.536 149.939 3.388 150.523 3.388C150.995 3.388 151.431 3.488 151.831 3.688C152.231 3.88 152.567 4.144 152.839 4.48V1.24C152.839 1.056 152.895 0.908 153.007 0.796C153.127 0.684 153.275 0.628 153.451 0.628C153.635 0.628 153.783 0.684 153.895 0.796C154.007 0.908 154.063 1.056 154.063 1.24V6.712C154.063 7.344 153.915 7.912 153.619 8.416C153.331 8.92 152.939 9.32 152.443 9.616C151.947 9.904 151.387 10.048 150.763 10.048ZM150.763 8.968C151.171 8.968 151.535 8.872 151.855 8.68C152.175 8.48 152.427 8.208 152.611 7.864C152.795 7.52 152.887 7.136 152.887 6.712C152.887 6.28 152.795 5.896 152.611 5.56C152.427 5.224 152.175 4.96 151.855 4.768C151.535 4.568 151.171 4.468 150.763 4.468C150.363 4.468 149.999 4.568 149.671 4.768C149.351 4.96 149.095 5.224 148.903 5.56C148.719 5.896 148.627 6.28 148.627 6.712C148.627 7.136 148.719 7.52 148.903 7.864C149.095 8.208 149.351 8.48 149.671 8.68C149.999 8.872 150.363 8.968 150.763 8.968ZM159.309 10.048C158.645 10.048 158.053 9.908 157.533 9.628C157.021 9.34 156.617 8.948 156.321 8.452C156.033 7.948 155.889 7.372 155.889 6.724C155.889 6.068 156.025 5.492 156.297 4.996C156.577 4.492 156.961 4.1 157.449 3.82C157.937 3.532 158.497 3.388 159.129 3.388C159.753 3.388 160.289 3.528 160.737 3.808C161.185 4.08 161.525 4.46 161.757 4.948C161.997 5.428 162.117 5.984 162.117 6.616C162.117 6.768 162.065 6.896 161.961 7C161.857 7.096 161.725 7.144 161.565 7.144H156.729V6.184H161.529L161.037 6.52C161.029 6.12 160.949 5.764 160.797 5.452C160.645 5.132 160.429 4.88 160.149 4.696C159.869 4.512 159.529 4.42 159.129 4.42C158.673 4.42 158.281 4.52 157.953 4.72C157.633 4.92 157.389 5.196 157.221 5.548C157.053 5.892 156.969 6.284 156.969 6.724C156.969 7.164 157.069 7.556 157.269 7.9C157.469 8.244 157.745 8.516 158.097 8.716C158.449 8.916 158.853 9.016 159.309 9.016C159.557 9.016 159.809 8.972 160.065 8.884C160.329 8.788 160.541 8.68 160.701 8.56C160.821 8.472 160.949 8.428 161.085 8.428C161.229 8.42 161.353 8.46 161.457 8.548C161.593 8.668 161.665 8.8 161.673 8.944C161.681 9.088 161.617 9.212 161.481 9.316C161.209 9.532 160.869 9.708 160.461 9.844C160.061 9.98 159.677 10.048 159.309 10.048ZM170.169 10.048C169.521 10.048 168.949 9.908 168.453 9.628C167.957 9.34 167.565 8.948 167.277 8.452C166.997 7.948 166.857 7.372 166.857 6.724C166.857 6.068 166.997 5.492 167.277 4.996C167.565 4.492 167.957 4.1 168.453 3.82C168.949 3.532 169.521 3.388 170.169 3.388C170.809 3.388 171.377 3.532 171.873 3.82C172.369 4.1 172.757 4.492 173.037 4.996C173.325 5.492 173.469 6.068 173.469 6.724C173.469 7.372 173.329 7.948 173.049 8.452C172.769 8.948 172.381 9.34 171.885 9.628C171.389 9.908 170.817 10.048 170.169 10.048ZM170.169 8.968C170.585 8.968 170.953 8.872 171.273 8.68C171.593 8.488 171.841 8.224 172.017 7.888C172.201 7.552 172.293 7.164 172.293 6.724C172.293 6.284 172.201 5.896 172.017 5.56C171.841 5.216 171.593 4.948 171.273 4.756C170.953 4.564 170.585 4.468 170.169 4.468C169.753 4.468 169.385 4.564 169.065 4.756C168.745 4.948 168.493 5.216 168.309 5.56C168.125 5.896 168.033 6.284 168.033 6.724C168.033 7.164 168.125 7.552 168.309 7.888C168.493 8.224 168.745 8.488 169.065 8.68C169.385 8.872 169.753 8.968 170.169 8.968ZM175.999 10C175.847 10 175.711 9.944 175.591 9.832C175.471 9.72 175.411 9.572 175.411 9.388V3.472C175.411 2.896 175.523 2.396 175.747 1.972C175.979 1.548 176.299 1.22 176.707 0.987999C177.115 0.748 177.587 0.628 178.123 0.628C178.299 0.628 178.443 0.68 178.555 0.784C178.675 0.888 178.735 1.02 178.735 1.18C178.735 1.332 178.675 1.464 178.555 1.576C178.443 1.68 178.299 1.732 178.123 1.732C177.827 1.732 177.567 1.8 177.343 1.936C177.119 2.072 176.943 2.26 176.815 2.5C176.695 2.74 176.635 3.024 176.635 3.352V9.388C176.635 9.572 176.579 9.72 176.467 9.832C176.355 9.944 176.199 10 175.999 10ZM174.895 4.708C174.727 4.708 174.591 4.66 174.487 4.564C174.383 4.468 174.331 4.348 174.331 4.204C174.331 4.044 174.383 3.916 174.487 3.82C174.591 3.724 174.727 3.676 174.895 3.676H177.859C178.027 3.676 178.163 3.724 178.267 3.82C178.371 3.916 178.423 4.044 178.423 4.204C178.423 4.348 178.371 4.468 178.267 4.564C178.163 4.66 178.027 4.708 177.859 4.708H174.895ZM185.601 10C185.201 10 184.841 9.9 184.521 9.7C184.201 9.492 183.949 9.212 183.765 8.86C183.581 8.508 183.489 8.112 183.489 7.672V1.948C183.489 1.772 183.545 1.628 183.657 1.516C183.769 1.404 183.913 1.348 184.089 1.348C184.265 1.348 184.409 1.404 184.521 1.516C184.633 1.628 184.689 1.772 184.689 1.948V7.672C184.689 7.992 184.777 8.26 184.953 8.476C185.129 8.692 185.345 8.8 185.601 8.8H186.009C186.153 8.8 186.273 8.856 186.369 8.968C186.473 9.08 186.525 9.224 186.525 9.4C186.525 9.576 186.457 9.72 186.321 9.832C186.193 9.944 186.025 10 185.817 10H185.601ZM182.937 4.708C182.769 4.708 182.633 4.66 182.529 4.564C182.425 4.468 182.373 4.348 182.373 4.204C182.373 4.044 182.425 3.916 182.529 3.82C182.633 3.724 182.769 3.676 182.937 3.676H185.709C185.877 3.676 186.013 3.724 186.117 3.82C186.221 3.916 186.273 4.044 186.273 4.204C186.273 4.348 186.221 4.468 186.117 4.564C186.013 4.66 185.877 4.708 185.709 4.708H182.937ZM188.641 7.612C188.465 7.612 188.317 7.556 188.197 7.444C188.085 7.324 188.029 7.176 188.029 7V1.24C188.029 1.056 188.085 0.908 188.197 0.796C188.317 0.684 188.465 0.628 188.641 0.628C188.825 0.628 188.973 0.684 189.085 0.796C189.197 0.908 189.253 1.056 189.253 1.24V7C189.253 7.176 189.197 7.324 189.085 7.444C188.973 7.556 188.825 7.612 188.641 7.612ZM193.573 10.012C193.397 10.012 193.249 9.956 193.129 9.844C193.017 9.724 192.961 9.576 192.961 9.4V6.448C192.961 5.992 192.877 5.62 192.709 5.332C192.541 5.044 192.313 4.832 192.025 4.696C191.745 4.552 191.421 4.48 191.053 4.48C190.717 4.48 190.413 4.548 190.141 4.684C189.869 4.82 189.653 5.004 189.493 5.236C189.333 5.46 189.253 5.72 189.253 6.016H188.497C188.497 5.512 188.617 5.064 188.857 4.672C189.105 4.272 189.441 3.956 189.865 3.724C190.289 3.492 190.765 3.376 191.293 3.376C191.845 3.376 192.337 3.496 192.769 3.736C193.209 3.968 193.553 4.312 193.801 4.768C194.057 5.224 194.185 5.784 194.185 6.448V9.4C194.185 9.576 194.125 9.724 194.005 9.844C193.893 9.956 193.749 10.012 193.573 10.012ZM188.641 10.012C188.465 10.012 188.317 9.956 188.197 9.844C188.085 9.724 188.029 9.576 188.029 9.4V4.048C188.029 3.864 188.085 3.716 188.197 3.604C188.317 3.492 188.465 3.436 188.641 3.436C188.825 3.436 188.973 3.492 189.085 3.604C189.197 3.716 189.253 3.864 189.253 4.048V9.4C189.253 9.576 189.197 9.724 189.085 9.844C188.973 9.956 188.825 10.012 188.641 10.012ZM199.305 10.048C198.641 10.048 198.049 9.908 197.529 9.628C197.017 9.34 196.613 8.948 196.317 8.452C196.029 7.948 195.885 7.372 195.885 6.724C195.885 6.068 196.021 5.492 196.293 4.996C196.573 4.492 196.957 4.1 197.445 3.82C197.933 3.532 198.493 3.388 199.125 3.388C199.749 3.388 200.285 3.528 200.733 3.808C201.181 4.08 201.521 4.46 201.753 4.948C201.993 5.428 202.113 5.984 202.113 6.616C202.113 6.768 202.061 6.896 201.957 7C201.853 7.096 201.721 7.144 201.561 7.144H196.725V6.184H201.525L201.033 6.52C201.025 6.12 200.945 5.764 200.793 5.452C200.641 5.132 200.425 4.88 200.145 4.696C199.865 4.512 199.525 4.42 199.125 4.42C198.669 4.42 198.277 4.52 197.949 4.72C197.629 4.92 197.385 5.196 197.217 5.548C197.049 5.892 196.965 6.284 196.965 6.724C196.965 7.164 197.065 7.556 197.265 7.9C197.465 8.244 197.741 8.516 198.093 8.716C198.445 8.916 198.849 9.016 199.305 9.016C199.553 9.016 199.805 8.972 200.061 8.884C200.325 8.788 200.537 8.68 200.697 8.56C200.817 8.472 200.945 8.428 201.081 8.428C201.225 8.42 201.349 8.46 201.453 8.548C201.589 8.668 201.661 8.8 201.669 8.944C201.677 9.088 201.613 9.212 201.477 9.316C201.205 9.532 200.865 9.708 200.457 9.844C200.057 9.98 199.673 10.048 199.305 10.048ZM207.897 10C207.745 10 207.609 9.944 207.489 9.832C207.369 9.72 207.309 9.572 207.309 9.388V3.472C207.309 2.896 207.421 2.396 207.645 1.972C207.877 1.548 208.197 1.22 208.605 0.987999C209.013 0.748 209.485 0.628 210.021 0.628C210.197 0.628 210.341 0.68 210.453 0.784C210.573 0.888 210.633 1.02 210.633 1.18C210.633 1.332 210.573 1.464 210.453 1.576C210.341 1.68 210.197 1.732 210.021 1.732C209.725 1.732 209.465 1.8 209.241 1.936C209.017 2.072 208.841 2.26 208.713 2.5C208.593 2.74 208.533 3.024 208.533 3.352V9.388C208.533 9.572 208.477 9.72 208.365 9.832C208.253 9.944 208.097 10 207.897 10ZM206.793 4.708C206.625 4.708 206.489 4.66 206.385 4.564C206.281 4.468 206.229 4.348 206.229 4.204C206.229 4.044 206.281 3.916 206.385 3.82C206.489 3.724 206.625 3.676 206.793 3.676H209.757C209.925 3.676 210.061 3.724 210.165 3.82C210.269 3.916 210.321 4.044 210.321 4.204C210.321 4.348 210.269 4.468 210.165 4.564C210.061 4.66 209.925 4.708 209.757 4.708H206.793ZM214.097 10.048C213.513 10.048 212.989 9.904 212.525 9.616C212.061 9.32 211.693 8.924 211.421 8.428C211.157 7.924 211.025 7.356 211.025 6.724C211.025 6.092 211.169 5.524 211.457 5.02C211.753 4.516 212.149 4.12 212.645 3.832C213.149 3.536 213.713 3.388 214.337 3.388C214.961 3.388 215.521 3.536 216.017 3.832C216.513 4.12 216.905 4.516 217.193 5.02C217.489 5.524 217.637 6.092 217.637 6.724H217.169C217.169 7.356 217.033 7.924 216.761 8.428C216.497 8.924 216.133 9.32 215.669 9.616C215.205 9.904 214.681 10.048 214.097 10.048ZM214.337 8.968C214.745 8.968 215.109 8.872 215.429 8.68C215.749 8.48 216.001 8.212 216.185 7.876C216.369 7.532 216.461 7.148 216.461 6.724C216.461 6.292 216.369 5.908 216.185 5.572C216.001 5.228 215.749 4.96 215.429 4.768C215.109 4.568 214.745 4.468 214.337 4.468C213.937 4.468 213.573 4.568 213.245 4.768C212.925 4.96 212.669 5.228 212.477 5.572C212.293 5.908 212.201 6.292 212.201 6.724C212.201 7.148 212.293 7.532 212.477 7.876C212.669 8.212 212.925 8.48 213.245 8.68C213.573 8.872 213.937 8.968 214.337 8.968ZM217.025 10.012C216.849 10.012 216.701 9.956 216.581 9.844C216.469 9.724 216.413 9.576 216.413 9.4V7.564L216.641 6.292L217.637 6.724V9.4C217.637 9.576 217.577 9.724 217.457 9.844C217.345 9.956 217.201 10.012 217.025 10.012ZM221.847 10.048C221.287 10.048 220.767 9.964 220.287 9.796C219.815 9.62 219.447 9.4 219.183 9.136C219.063 9.008 219.011 8.864 219.027 8.704C219.051 8.536 219.131 8.4 219.267 8.296C219.427 8.168 219.583 8.116 219.735 8.14C219.895 8.156 220.031 8.224 220.143 8.344C220.279 8.496 220.495 8.64 220.791 8.776C221.095 8.904 221.431 8.968 221.799 8.968C222.263 8.968 222.615 8.892 222.855 8.74C223.103 8.588 223.231 8.392 223.239 8.152C223.247 7.912 223.131 7.704 222.891 7.528C222.659 7.352 222.231 7.208 221.607 7.096C220.799 6.936 220.211 6.696 219.843 6.376C219.483 6.056 219.303 5.664 219.303 5.2C219.303 4.792 219.423 4.456 219.663 4.192C219.903 3.92 220.211 3.72 220.587 3.592C220.963 3.456 221.355 3.388 221.763 3.388C222.291 3.388 222.759 3.472 223.167 3.64C223.575 3.808 223.899 4.04 224.139 4.336C224.251 4.464 224.303 4.6 224.295 4.744C224.287 4.88 224.219 4.996 224.091 5.092C223.963 5.18 223.811 5.208 223.635 5.176C223.459 5.144 223.311 5.072 223.191 4.96C222.991 4.768 222.775 4.636 222.543 4.564C222.311 4.492 222.043 4.456 221.739 4.456C221.387 4.456 221.087 4.516 220.839 4.636C220.599 4.756 220.479 4.932 220.479 5.164C220.479 5.308 220.515 5.44 220.587 5.56C220.667 5.672 220.819 5.776 221.043 5.872C221.267 5.96 221.595 6.048 222.027 6.136C222.627 6.256 223.099 6.408 223.443 6.592C223.795 6.776 224.047 6.992 224.199 7.24C224.351 7.48 224.427 7.76 224.427 8.08C224.427 8.448 224.327 8.78 224.127 9.076C223.935 9.372 223.647 9.608 223.263 9.784C222.887 9.96 222.415 10.048 221.847 10.048ZM228.363 10C227.963 10 227.603 9.9 227.283 9.7C226.963 9.492 226.711 9.212 226.527 8.86C226.343 8.508 226.251 8.112 226.251 7.672V1.948C226.251 1.772 226.307 1.628 226.419 1.516C226.531 1.404 226.675 1.348 226.851 1.348C227.027 1.348 227.171 1.404 227.283 1.516C227.395 1.628 227.451 1.772 227.451 1.948V7.672C227.451 7.992 227.539 8.26 227.715 8.476C227.891 8.692 228.107 8.8 228.363 8.8H228.771C228.915 8.8 229.035 8.856 229.131 8.968C229.235 9.08 229.287 9.224 229.287 9.4C229.287 9.576 229.219 9.72 229.083 9.832C228.955 9.944 228.787 10 228.579 10H228.363ZM225.699 4.708C225.531 4.708 225.395 4.66 225.291 4.564C225.187 4.468 225.135 4.348 225.135 4.204C225.135 4.044 225.187 3.916 225.291 3.82C225.395 3.724 225.531 3.676 225.699 3.676H228.471C228.639 3.676 228.775 3.724 228.879 3.82C228.983 3.916 229.035 4.044 229.035 4.204C229.035 4.348 228.983 4.468 228.879 4.564C228.775 4.66 228.639 4.708 228.471 4.708H225.699ZM1.788 23C1.636 23 1.5 22.944 1.38 22.832C1.26 22.72 1.2 22.572 1.2 22.388V16.472C1.2 15.896 1.312 15.396 1.536 14.972C1.768 14.548 2.088 14.22 2.496 13.988C2.904 13.748 3.376 13.628 3.912 13.628C4.088 13.628 4.232 13.68 4.344 13.784C4.464 13.888 4.524 14.02 4.524 14.18C4.524 14.332 4.464 14.464 4.344 14.576C4.232 14.68 4.088 14.732 3.912 14.732C3.616 14.732 3.356 14.8 3.132 14.936C2.908 15.072 2.732 15.26 2.604 15.5C2.484 15.74 2.424 16.024 2.424 16.352V22.388C2.424 22.572 2.368 22.72 2.256 22.832C2.144 22.944 1.988 23 1.788 23ZM0.684 17.708C0.516 17.708 0.38 17.66 0.276 17.564C0.172 17.468 0.12 17.348 0.12 17.204C0.12 17.044 0.172 16.916 0.276 16.82C0.38 16.724 0.516 16.676 0.684 16.676H3.648C3.816 16.676 3.952 16.724 4.056 16.82C4.16 16.916 4.212 17.044 4.212 17.204C4.212 17.348 4.16 17.468 4.056 17.564C3.952 17.66 3.816 17.708 3.648 17.708H0.684ZM7.98788 23.048C7.40388 23.048 6.87988 22.904 6.41588 22.616C5.95188 22.32 5.58388 21.924 5.31188 21.428C5.04788 20.924 4.91588 20.356 4.91588 19.724C4.91588 19.092 5.05988 18.524 5.34788 18.02C5.64388 17.516 6.03988 17.12 6.53588 16.832C7.03988 16.536 7.60388 16.388 8.22788 16.388C8.85188 16.388 9.41188 16.536 9.90788 16.832C10.4039 17.12 10.7959 17.516 11.0839 18.02C11.3799 18.524 11.5279 19.092 11.5279 19.724H11.0599C11.0599 20.356 10.9239 20.924 10.6519 21.428C10.3879 21.924 10.0239 22.32 9.55988 22.616C9.09588 22.904 8.57188 23.048 7.98788 23.048ZM8.22788 21.968C8.63588 21.968 8.99988 21.872 9.31988 21.68C9.63988 21.48 9.89188 21.212 10.0759 20.876C10.2599 20.532 10.3519 20.148 10.3519 19.724C10.3519 19.292 10.2599 18.908 10.0759 18.572C9.89188 18.228 9.63988 17.96 9.31988 17.768C8.99988 17.568 8.63588 17.468 8.22788 17.468C7.82788 17.468 7.46388 17.568 7.13588 17.768C6.81588 17.96 6.55988 18.228 6.36788 18.572C6.18388 18.908 6.09188 19.292 6.09188 19.724C6.09188 20.148 6.18388 20.532 6.36788 20.876C6.55988 21.212 6.81588 21.48 7.13588 21.68C7.46388 21.872 7.82788 21.968 8.22788 21.968ZM10.9159 23.012C10.7399 23.012 10.5919 22.956 10.4719 22.844C10.3599 22.724 10.3039 22.576 10.3039 22.4V20.564L10.5319 19.292L11.5279 19.724V22.4C11.5279 22.576 11.4679 22.724 11.3479 22.844C11.2359 22.956 11.0919 23.012 10.9159 23.012ZM15.7375 23.048C15.1775 23.048 14.6575 22.964 14.1775 22.796C13.7055 22.62 13.3375 22.4 13.0735 22.136C12.9535 22.008 12.9015 21.864 12.9175 21.704C12.9415 21.536 13.0215 21.4 13.1575 21.296C13.3175 21.168 13.4735 21.116 13.6255 21.14C13.7855 21.156 13.9215 21.224 14.0335 21.344C14.1695 21.496 14.3855 21.64 14.6815 21.776C14.9855 21.904 15.3215 21.968 15.6895 21.968C16.1535 21.968 16.5055 21.892 16.7455 21.74C16.9935 21.588 17.1215 21.392 17.1295 21.152C17.1375 20.912 17.0215 20.704 16.7815 20.528C16.5495 20.352 16.1215 20.208 15.4975 20.096C14.6895 19.936 14.1015 19.696 13.7335 19.376C13.3735 19.056 13.1935 18.664 13.1935 18.2C13.1935 17.792 13.3135 17.456 13.5535 17.192C13.7935 16.92 14.1015 16.72 14.4775 16.592C14.8535 16.456 15.2455 16.388 15.6535 16.388C16.1815 16.388 16.6495 16.472 17.0575 16.64C17.4655 16.808 17.7895 17.04 18.0295 17.336C18.1415 17.464 18.1935 17.6 18.1855 17.744C18.1775 17.88 18.1095 17.996 17.9815 18.092C17.8535 18.18 17.7015 18.208 17.5255 18.176C17.3495 18.144 17.2015 18.072 17.0815 17.96C16.8815 17.768 16.6655 17.636 16.4335 17.564C16.2015 17.492 15.9335 17.456 15.6295 17.456C15.2775 17.456 14.9775 17.516 14.7295 17.636C14.4895 17.756 14.3695 17.932 14.3695 18.164C14.3695 18.308 14.4055 18.44 14.4775 18.56C14.5575 18.672 14.7095 18.776 14.9335 18.872C15.1575 18.96 15.4855 19.048 15.9175 19.136C16.5175 19.256 16.9895 19.408 17.3335 19.592C17.6855 19.776 17.9375 19.992 18.0895 20.24C18.2415 20.48 18.3175 20.76 18.3175 21.08C18.3175 21.448 18.2175 21.78 18.0175 22.076C17.8255 22.372 17.5375 22.608 17.1535 22.784C16.7775 22.96 16.3055 23.048 15.7375 23.048ZM20.4772 20.612C20.3012 20.612 20.1532 20.556 20.0332 20.444C19.9212 20.324 19.8652 20.176 19.8652 20V14.24C19.8652 14.056 19.9212 13.908 20.0332 13.796C20.1532 13.684 20.3012 13.628 20.4772 13.628C20.6612 13.628 20.8092 13.684 20.9212 13.796C21.0332 13.908 21.0892 14.056 21.0892 14.24V20C21.0892 20.176 21.0332 20.324 20.9212 20.444C20.8092 20.556 20.6612 20.612 20.4772 20.612ZM25.4092 23.012C25.2332 23.012 25.0852 22.956 24.9652 22.844C24.8532 22.724 24.7972 22.576 24.7972 22.4V19.448C24.7972 18.992 24.7132 18.62 24.5452 18.332C24.3772 18.044 24.1492 17.832 23.8612 17.696C23.5812 17.552 23.2572 17.48 22.8892 17.48C22.5532 17.48 22.2492 17.548 21.9772 17.684C21.7052 17.82 21.4892 18.004 21.3292 18.236C21.1692 18.46 21.0892 18.72 21.0892 19.016H20.3332C20.3332 18.512 20.4532 18.064 20.6932 17.672C20.9412 17.272 21.2772 16.956 21.7012 16.724C22.1252 16.492 22.6012 16.376 23.1292 16.376C23.6812 16.376 24.1732 16.496 24.6052 16.736C25.0452 16.968 25.3892 17.312 25.6372 17.768C25.8932 18.224 26.0212 18.784 26.0212 19.448V22.4C26.0212 22.576 25.9612 22.724 25.8412 22.844C25.7292 22.956 25.5852 23.012 25.4092 23.012ZM20.4772 23.012C20.3012 23.012 20.1532 22.956 20.0332 22.844C19.9212 22.724 19.8652 22.576 19.8652 22.4V17.048C19.8652 16.864 19.9212 16.716 20.0332 16.604C20.1532 16.492 20.3012 16.436 20.4772 16.436C20.6612 16.436 20.8092 16.492 20.9212 16.604C21.0332 16.716 21.0892 16.864 21.0892 17.048V22.4C21.0892 22.576 21.0332 22.724 20.9212 22.844C20.8092 22.956 20.6612 23.012 20.4772 23.012ZM28.7886 23C28.6126 23 28.4646 22.944 28.3446 22.832C28.2326 22.712 28.1766 22.564 28.1766 22.388V17.048C28.1766 16.864 28.2326 16.716 28.3446 16.604C28.4646 16.492 28.6126 16.436 28.7886 16.436C28.9726 16.436 29.1206 16.492 29.2326 16.604C29.3446 16.716 29.4006 16.864 29.4006 17.048V22.388C29.4006 22.564 29.3446 22.712 29.2326 22.832C29.1206 22.944 28.9726 23 28.7886 23ZM28.7886 15.368C28.5726 15.368 28.3846 15.292 28.2246 15.14C28.0726 14.98 27.9966 14.792 27.9966 14.576C27.9966 14.36 28.0726 14.176 28.2246 14.024C28.3846 13.864 28.5726 13.784 28.7886 13.784C29.0046 13.784 29.1886 13.864 29.3406 14.024C29.5006 14.176 29.5806 14.36 29.5806 14.576C29.5806 14.792 29.5006 14.98 29.3406 15.14C29.1886 15.292 29.0046 15.368 28.7886 15.368ZM34.6537 23.048C34.0057 23.048 33.4337 22.908 32.9377 22.628C32.4417 22.34 32.0497 21.948 31.7617 21.452C31.4817 20.948 31.3417 20.372 31.3417 19.724C31.3417 19.068 31.4817 18.492 31.7617 17.996C32.0497 17.492 32.4417 17.1 32.9377 16.82C33.4337 16.532 34.0057 16.388 34.6537 16.388C35.2937 16.388 35.8617 16.532 36.3577 16.82C36.8537 17.1 37.2417 17.492 37.5217 17.996C37.8097 18.492 37.9537 19.068 37.9537 19.724C37.9537 20.372 37.8137 20.948 37.5337 21.452C37.2537 21.948 36.8657 22.34 36.3697 22.628C35.8737 22.908 35.3017 23.048 34.6537 23.048ZM34.6537 21.968C35.0697 21.968 35.4377 21.872 35.7577 21.68C36.0777 21.488 36.3257 21.224 36.5017 20.888C36.6857 20.552 36.7777 20.164 36.7777 19.724C36.7777 19.284 36.6857 18.896 36.5017 18.56C36.3257 18.216 36.0777 17.948 35.7577 17.756C35.4377 17.564 35.0697 17.468 34.6537 17.468C34.2377 17.468 33.8697 17.564 33.5497 17.756C33.2297 17.948 32.9777 18.216 32.7937 18.56C32.6097 18.896 32.5177 19.284 32.5177 19.724C32.5177 20.164 32.6097 20.552 32.7937 20.888C32.9777 21.224 33.2297 21.488 33.5497 21.68C33.8697 21.872 34.2377 21.968 34.6537 21.968ZM45.3193 23.012C45.1433 23.012 44.9953 22.956 44.8753 22.844C44.7633 22.724 44.7073 22.576 44.7073 22.4V19.448C44.7073 18.992 44.6233 18.62 44.4553 18.332C44.2873 18.044 44.0593 17.832 43.7713 17.696C43.4913 17.552 43.1673 17.48 42.7993 17.48C42.4633 17.48 42.1593 17.548 41.8873 17.684C41.6153 17.82 41.3993 18.004 41.2393 18.236C41.0793 18.46 40.9993 18.72 40.9993 19.016H40.2433C40.2433 18.512 40.3633 18.064 40.6033 17.672C40.8513 17.272 41.1873 16.956 41.6113 16.724C42.0353 16.492 42.5113 16.376 43.0393 16.376C43.5913 16.376 44.0833 16.496 44.5153 16.736C44.9553 16.968 45.2993 17.312 45.5473 17.768C45.8033 18.224 45.9313 18.784 45.9313 19.448V22.4C45.9313 22.576 45.8713 22.724 45.7513 22.844C45.6393 22.956 45.4953 23.012 45.3193 23.012ZM40.3873 23.012C40.2113 23.012 40.0633 22.956 39.9433 22.844C39.8313 22.724 39.7753 22.576 39.7753 22.4V17.048C39.7753 16.864 39.8313 16.716 39.9433 16.604C40.0633 16.492 40.2113 16.436 40.3873 16.436C40.5713 16.436 40.7193 16.492 40.8313 16.604C40.9433 16.716 40.9993 16.864 40.9993 17.048V22.4C40.9993 22.576 40.9433 22.724 40.8313 22.844C40.7193 22.956 40.5713 23.012 40.3873 23.012ZM52.2026 23C52.0266 23 51.8786 22.944 51.7586 22.832C51.6466 22.712 51.5906 22.564 51.5906 22.388V17.048C51.5906 16.864 51.6466 16.716 51.7586 16.604C51.8786 16.492 52.0266 16.436 52.2026 16.436C52.3866 16.436 52.5346 16.492 52.6466 16.604C52.7586 16.716 52.8146 16.864 52.8146 17.048V22.388C52.8146 22.564 52.7586 22.712 52.6466 22.832C52.5346 22.944 52.3866 23 52.2026 23ZM52.2026 15.368C51.9866 15.368 51.7986 15.292 51.6386 15.14C51.4866 14.98 51.4106 14.792 51.4106 14.576C51.4106 14.36 51.4866 14.176 51.6386 14.024C51.7986 13.864 51.9866 13.784 52.2026 13.784C52.4186 13.784 52.6026 13.864 52.7546 14.024C52.9146 14.176 52.9946 14.36 52.9946 14.576C52.9946 14.792 52.9146 14.98 52.7546 15.14C52.6026 15.292 52.4186 15.368 52.2026 15.368ZM60.6357 23.012C60.4597 23.012 60.3117 22.956 60.1917 22.844C60.0797 22.724 60.0237 22.576 60.0237 22.4V19.448C60.0237 18.992 59.9397 18.62 59.7717 18.332C59.6037 18.044 59.3757 17.832 59.0877 17.696C58.8077 17.552 58.4837 17.48 58.1157 17.48C57.7797 17.48 57.4757 17.548 57.2037 17.684C56.9317 17.82 56.7157 18.004 56.5557 18.236C56.3957 18.46 56.3157 18.72 56.3157 19.016H55.5597C55.5597 18.512 55.6797 18.064 55.9197 17.672C56.1677 17.272 56.5037 16.956 56.9277 16.724C57.3517 16.492 57.8277 16.376 58.3557 16.376C58.9077 16.376 59.3997 16.496 59.8317 16.736C60.2717 16.968 60.6157 17.312 60.8637 17.768C61.1197 18.224 61.2477 18.784 61.2477 19.448V22.4C61.2477 22.576 61.1877 22.724 61.0677 22.844C60.9557 22.956 60.8117 23.012 60.6357 23.012ZM55.7037 23.012C55.5277 23.012 55.3797 22.956 55.2597 22.844C55.1477 22.724 55.0917 22.576 55.0917 22.4V17.048C55.0917 16.864 55.1477 16.716 55.2597 16.604C55.3797 16.492 55.5277 16.436 55.7037 16.436C55.8877 16.436 56.0357 16.492 56.1477 16.604C56.2597 16.716 56.3157 16.864 56.3157 17.048V22.4C56.3157 22.576 56.2597 22.724 56.1477 22.844C56.0357 22.956 55.8877 23.012 55.7037 23.012ZM66.2474 23.048C65.6234 23.048 65.0594 22.904 64.5554 22.616C64.0594 22.32 63.6634 21.92 63.3674 21.416C63.0794 20.912 62.9354 20.344 62.9354 19.712C62.9354 19.08 63.0674 18.516 63.3314 18.02C63.6034 17.516 63.9714 17.12 64.4354 16.832C64.8994 16.536 65.4234 16.388 66.0074 16.388C66.4794 16.388 66.9154 16.488 67.3154 16.688C67.7154 16.88 68.0514 17.144 68.3234 17.48V14.24C68.3234 14.056 68.3794 13.908 68.4914 13.796C68.6114 13.684 68.7594 13.628 68.9354 13.628C69.1194 13.628 69.2674 13.684 69.3794 13.796C69.4914 13.908 69.5474 14.056 69.5474 14.24V19.712C69.5474 20.344 69.3994 20.912 69.1034 21.416C68.8154 21.92 68.4234 22.32 67.9274 22.616C67.4314 22.904 66.8714 23.048 66.2474 23.048ZM66.2474 21.968C66.6554 21.968 67.0194 21.872 67.3394 21.68C67.6594 21.48 67.9114 21.208 68.0954 20.864C68.2794 20.52 68.3714 20.136 68.3714 19.712C68.3714 19.28 68.2794 18.896 68.0954 18.56C67.9114 18.224 67.6594 17.96 67.3394 17.768C67.0194 17.568 66.6554 17.468 66.2474 17.468C65.8474 17.468 65.4834 17.568 65.1554 17.768C64.8354 17.96 64.5794 18.224 64.3874 18.56C64.2034 18.896 64.1114 19.28 64.1114 19.712C64.1114 20.136 64.2034 20.52 64.3874 20.864C64.5794 21.208 64.8354 21.48 65.1554 21.68C65.4834 21.872 65.8474 21.968 66.2474 21.968ZM74.4689 23.06C73.9169 23.06 73.4209 22.944 72.9809 22.712C72.5489 22.472 72.2049 22.124 71.9489 21.668C71.7009 21.212 71.5769 20.652 71.5769 19.988V17.036C71.5769 16.86 71.6329 16.716 71.7449 16.604C71.8649 16.484 72.0129 16.424 72.1889 16.424C72.3649 16.424 72.5089 16.484 72.6209 16.604C72.7409 16.716 72.8009 16.86 72.8009 17.036V19.988C72.8009 20.436 72.8849 20.808 73.0529 21.104C73.2209 21.392 73.4489 21.608 73.7369 21.752C74.0249 21.888 74.3489 21.956 74.7089 21.956C75.0529 21.956 75.3569 21.888 75.6209 21.752C75.8929 21.616 76.1089 21.432 76.2689 21.2C76.4289 20.968 76.5089 20.708 76.5089 20.42H77.2649C77.2649 20.916 77.1409 21.364 76.8929 21.764C76.6529 22.164 76.3209 22.48 75.8969 22.712C75.4809 22.944 75.0049 23.06 74.4689 23.06ZM77.1209 23C76.9449 23 76.7969 22.944 76.6769 22.832C76.5649 22.712 76.5089 22.564 76.5089 22.388V17.036C76.5089 16.852 76.5649 16.704 76.6769 16.592C76.7969 16.48 76.9449 16.424 77.1209 16.424C77.3049 16.424 77.4529 16.48 77.5649 16.592C77.6769 16.704 77.7329 16.852 77.7329 17.036V22.388C77.7329 22.564 77.6769 22.712 77.5649 22.832C77.4529 22.944 77.3049 23 77.1209 23ZM82.2766 23.048C81.7166 23.048 81.1966 22.964 80.7166 22.796C80.2446 22.62 79.8766 22.4 79.6126 22.136C79.4926 22.008 79.4406 21.864 79.4566 21.704C79.4806 21.536 79.5606 21.4 79.6966 21.296C79.8566 21.168 80.0126 21.116 80.1646 21.14C80.3246 21.156 80.4606 21.224 80.5726 21.344C80.7086 21.496 80.9246 21.64 81.2206 21.776C81.5246 21.904 81.8606 21.968 82.2286 21.968C82.6926 21.968 83.0446 21.892 83.2846 21.74C83.5326 21.588 83.6606 21.392 83.6686 21.152C83.6766 20.912 83.5606 20.704 83.3206 20.528C83.0886 20.352 82.6606 20.208 82.0366 20.096C81.2286 19.936 80.6406 19.696 80.2726 19.376C79.9126 19.056 79.7326 18.664 79.7326 18.2C79.7326 17.792 79.8526 17.456 80.0926 17.192C80.3326 16.92 80.6406 16.72 81.0166 16.592C81.3926 16.456 81.7846 16.388 82.1926 16.388C82.7206 16.388 83.1886 16.472 83.5966 16.64C84.0046 16.808 84.3286 17.04 84.5686 17.336C84.6806 17.464 84.7326 17.6 84.7246 17.744C84.7166 17.88 84.6486 17.996 84.5206 18.092C84.3926 18.18 84.2406 18.208 84.0646 18.176C83.8886 18.144 83.7406 18.072 83.6206 17.96C83.4206 17.768 83.2046 17.636 82.9726 17.564C82.7406 17.492 82.4726 17.456 82.1686 17.456C81.8166 17.456 81.5166 17.516 81.2686 17.636C81.0286 17.756 80.9086 17.932 80.9086 18.164C80.9086 18.308 80.9446 18.44 81.0166 18.56C81.0966 18.672 81.2486 18.776 81.4726 18.872C81.6966 18.96 82.0246 19.048 82.4566 19.136C83.0566 19.256 83.5286 19.408 83.8726 19.592C84.2246 19.776 84.4766 19.992 84.6286 20.24C84.7806 20.48 84.8566 20.76 84.8566 21.08C84.8566 21.448 84.7566 21.78 84.5566 22.076C84.3646 22.372 84.0766 22.608 83.6926 22.784C83.3166 22.96 82.8446 23.048 82.2766 23.048ZM88.7922 23C88.3922 23 88.0322 22.9 87.7122 22.7C87.3922 22.492 87.1402 22.212 86.9562 21.86C86.7722 21.508 86.6802 21.112 86.6802 20.672V14.948C86.6802 14.772 86.7362 14.628 86.8482 14.516C86.9602 14.404 87.1042 14.348 87.2802 14.348C87.4562 14.348 87.6002 14.404 87.7122 14.516C87.8242 14.628 87.8802 14.772 87.8802 14.948V20.672C87.8802 20.992 87.9682 21.26 88.1442 21.476C88.3202 21.692 88.5362 21.8 88.7922 21.8H89.2002C89.3442 21.8 89.4642 21.856 89.5602 21.968C89.6642 22.08 89.7162 22.224 89.7162 22.4C89.7162 22.576 89.6482 22.72 89.5122 22.832C89.3842 22.944 89.2162 23 89.0082 23H88.7922ZM86.1282 17.708C85.9602 17.708 85.8242 17.66 85.7202 17.564C85.6162 17.468 85.5642 17.348 85.5642 17.204C85.5642 17.044 85.6162 16.916 85.7202 16.82C85.8242 16.724 85.9602 16.676 86.1282 16.676H88.9002C89.0682 16.676 89.2042 16.724 89.3082 16.82C89.4122 16.916 89.4642 17.044 89.4642 17.204C89.4642 17.348 89.4122 17.468 89.3082 17.564C89.2042 17.66 89.0682 17.708 88.9002 17.708H86.1282ZM91.8086 18.896C91.8086 18.416 91.9246 17.988 92.1566 17.612C92.3966 17.228 92.7166 16.924 93.1166 16.7C93.5166 16.476 93.9566 16.364 94.4366 16.364C94.9166 16.364 95.2726 16.444 95.5046 16.604C95.7446 16.756 95.8366 16.94 95.7806 17.156C95.7566 17.268 95.7086 17.356 95.6366 17.42C95.5726 17.476 95.4966 17.512 95.4086 17.528C95.3206 17.544 95.2246 17.54 95.1206 17.516C94.6086 17.412 94.1486 17.404 93.7406 17.492C93.3326 17.58 93.0086 17.744 92.7686 17.984C92.5366 18.224 92.4206 18.528 92.4206 18.896H91.8086ZM91.8206 23C91.6286 23 91.4806 22.952 91.3766 22.856C91.2726 22.752 91.2206 22.6 91.2206 22.4V17.036C91.2206 16.844 91.2726 16.696 91.3766 16.592C91.4806 16.488 91.6286 16.436 91.8206 16.436C92.0206 16.436 92.1686 16.488 92.2646 16.592C92.3686 16.688 92.4206 16.836 92.4206 17.036V22.4C92.4206 22.592 92.3686 22.74 92.2646 22.844C92.1686 22.948 92.0206 23 91.8206 23ZM98.2326 25.88C98.1526 25.88 98.0566 25.856 97.9446 25.808C97.5926 25.648 97.4966 25.396 97.6566 25.052L101.317 16.784C101.477 16.448 101.729 16.352 102.073 16.496C102.433 16.648 102.533 16.9 102.373 17.252L98.7006 25.508C98.6046 25.756 98.4486 25.88 98.2326 25.88ZM99.6486 22.736C99.4966 22.8 99.3526 22.808 99.2166 22.76C99.0886 22.704 98.9846 22.6 98.9046 22.448L96.1566 17.228C96.0766 17.076 96.0646 16.932 96.1206 16.796C96.1846 16.652 96.2926 16.548 96.4446 16.484C96.5966 16.42 96.7406 16.416 96.8766 16.472C97.0126 16.52 97.1166 16.62 97.1886 16.772L99.8166 21.992C99.8966 22.144 99.9246 22.292 99.9006 22.436C99.8846 22.572 99.8006 22.672 99.6486 22.736Z" fill="black"/>
</svg>
