<svg width="113" height="111" viewBox="0 0 113 111" fill="none" xmlns="http://www.w3.org/2000/svg">
<path d="M56.1643 110.226C87.2214 110.226 112.325 85.5521 112.325 55.1127C112.325 24.6734 87.1465 0 56.1643 0C25.1821 0 0.00317383 24.6734 0.00317383 55.2064C0.00317383 85.7393 25.1821 110.319 56.1643 110.319" fill="#5080FF"/>
<path d="M34.7856 62.8818C35.4126 62.9389 36.0447 62.8648 36.6414 62.664C37.2382 62.4633 37.7865 62.1404 38.2515 61.7159C38.7165 61.2914 39.0879 60.7746 39.342 60.1985C39.5961 59.6225 39.7273 58.9998 39.7273 58.3701C39.7273 57.7405 39.5961 57.1178 39.342 56.5418C39.0879 55.9657 38.7165 55.4489 38.2515 55.0244C37.7865 54.5999 37.2382 54.277 36.6414 54.0763C36.0447 53.8755 35.4126 53.8014 34.7856 53.8585C34.1586 53.8014 33.5265 53.8755 32.9298 54.0763C32.333 54.277 31.7846 54.5999 31.3197 55.0244C30.8547 55.4489 30.4833 55.9657 30.2292 56.5418C29.9751 57.1178 29.8438 57.7405 29.8438 58.3701C29.8438 58.9998 29.9751 59.6225 30.2292 60.1985C30.4833 60.7746 30.8547 61.2914 31.3197 61.7159C31.7846 62.1404 32.333 62.4633 32.9298 62.664C33.5265 62.8648 34.1586 62.9389 34.7856 62.8818Z" fill="#D0DBF0"/>
<path d="M43.6216 65.0908C44.2486 65.1479 44.8807 65.0738 45.4774 64.8731C46.0742 64.6723 46.6226 64.3494 47.0875 63.9249C47.5525 63.5004 47.9239 62.9836 48.178 62.4075C48.4321 61.8315 48.5634 61.2088 48.5634 60.5791C48.5634 59.9495 48.4321 59.3268 48.178 58.7508C47.9239 58.1747 47.5525 57.6579 47.0875 57.2334C46.6226 56.8089 46.0742 56.486 45.4774 56.2852C44.8807 56.0845 44.2486 56.0104 43.6216 56.0676C42.9946 56.0104 42.3625 56.0845 41.7658 56.2852C41.169 56.486 40.6207 56.8089 40.1557 57.2334C39.6907 57.6579 39.3193 58.1747 39.0652 58.7508C38.8111 59.3268 38.6799 59.9495 38.6799 60.5791C38.6799 61.2088 38.8111 61.8315 39.0652 62.4075C39.3193 62.9836 39.6907 63.5004 40.1557 63.9249C40.6207 64.3494 41.169 64.6723 41.7658 64.8731C42.3625 65.0738 42.9946 65.1479 43.6216 65.0908Z" fill="#D0DBF0"/>
<path d="M27.8404 65.0907C28.4305 65.1592 29.0285 65.1021 29.595 64.923C30.1615 64.744 30.6837 64.4472 31.1274 64.0521C31.571 63.6569 31.9261 63.1724 32.1692 62.6303C32.4123 62.0882 32.538 61.5008 32.538 60.9067C32.538 60.3126 32.4123 59.7252 32.1692 59.1831C31.9261 58.641 31.571 58.1565 31.1274 57.7613C30.6837 57.3662 30.1615 57.0693 29.595 56.8903C29.0285 56.7113 28.4305 56.6542 27.8404 56.7227C27.2502 56.6542 26.6522 56.7113 26.0857 56.8903C25.5192 57.0693 24.997 57.3662 24.5533 57.7613C24.1097 58.1565 23.7546 58.641 23.5115 59.1831C23.2684 59.7252 23.1427 60.3126 23.1427 60.9067C23.1427 61.5008 23.2684 62.0882 23.5115 62.6303C23.7546 63.1724 24.1097 63.6569 24.5533 64.0521C24.997 64.4472 25.5192 64.744 26.0857 64.923C26.6522 65.1021 27.2502 65.1592 27.8404 65.0907Z" fill="#D0DBF0"/>
<path d="M78.273 61.7585C79.1238 61.7548 79.9544 61.4991 80.66 61.0238C81.3656 60.5484 81.9146 59.8747 82.2376 59.0876C82.5606 58.3005 82.6432 57.4354 82.4749 56.6014C82.3067 55.7674 81.8952 55.002 81.2923 54.4017C80.6894 53.8014 79.9221 53.3932 79.0874 53.2286C78.2527 53.0639 77.388 53.1503 76.6023 53.4767C75.8166 53.8031 75.1453 54.355 74.673 55.0627C74.2007 55.7703 73.9486 56.602 73.9486 57.4528C73.9486 58.0198 74.0606 58.5813 74.2781 59.1049C74.4957 59.6285 74.8145 60.104 75.2163 60.504C75.6181 60.9041 76.095 61.2209 76.6196 61.4361C77.1441 61.6514 77.706 61.761 78.273 61.7585Z" fill="#D0DBF0"/>
<path d="M71.646 63.9488C72.4984 63.9488 73.3316 63.6958 74.04 63.2218C74.7485 62.7479 75.3004 62.0743 75.6257 61.2865C75.951 60.4986 76.0352 59.6319 75.8675 58.7962C75.6999 57.9605 75.2879 57.1933 74.6839 56.5919C74.0799 55.9905 73.3109 55.5819 72.4745 55.4179C71.638 55.2539 70.7717 55.3418 69.9853 55.6706C69.1988 55.9993 68.5277 56.5541 68.0568 57.2646C67.586 57.9751 67.3366 58.8095 67.3403 59.6618C67.3403 60.2264 67.4518 60.7854 67.6684 61.3067C67.885 61.8281 68.2025 62.3015 68.6025 62.6998C69.0026 63.0981 69.4774 63.4135 69.9997 63.6279C70.522 63.8422 71.0814 63.9512 71.646 63.9488Z" fill="#D0DBF0"/>
<path d="M84.8813 66.1578C85.7329 66.1578 86.5654 65.9053 87.2734 65.4322C87.9815 64.9591 88.5334 64.2866 88.8593 63.4998C89.1852 62.7131 89.2704 61.8473 89.1043 61.0121C88.9382 60.1769 88.5281 59.4097 87.9259 58.8075C87.3238 58.2054 86.5566 57.7953 85.7213 57.6291C84.8861 57.463 84.0204 57.5483 83.2336 57.8742C82.4469 58.2001 81.7744 58.7519 81.3013 59.46C80.8282 60.1681 80.5757 61.0005 80.5757 61.8521C80.5806 62.9925 81.0358 64.0848 81.8422 64.8912C82.6486 65.6976 83.7409 66.1529 84.8813 66.1578Z" fill="#D0DBF0"/>
<path d="M52.2517 33.4908H51.8024H52.2517ZM55.9958 85.0093H44.7636C43.0039 85.0093 41.5437 85.964 41.5437 87.0685V87.4616C41.5437 88.6223 42.9664 89.5209 44.7636 89.5209H55.9958" fill="#1C2E61"/>
<path d="M76.7567 36.8979L89.5614 58.9505H63.6524L76.7567 36.8979ZM91.3773 59.4933V59.3061L76.7567 34.614L62.2671 59.3436V59.5308C62.4023 63.3007 63.995 66.8711 66.7099 69.4903C69.4247 72.1095 73.0499 73.5731 76.8222 73.5731C80.5945 73.5731 84.2197 72.1095 86.9346 69.4903C89.6494 66.8711 91.2421 63.3007 91.3773 59.5308M56.1643 29.9713C57.0902 30.0383 58.0049 29.7347 58.707 29.1274C59.4091 28.52 59.8413 27.6586 59.9084 26.7327C59.9084 24.8607 58.261 21.7344 56.1643 21.7344C54.0676 21.7344 52.4202 24.973 52.4202 26.7327C52.4873 27.6586 52.9194 28.52 53.6216 29.1274C54.3237 29.7347 55.2383 30.0383 56.1643 29.9713ZM22.4676 58.9505L35.4034 36.9166L48.2456 58.9505H22.4676ZM35.4408 34.614L20.9513 59.3436H20.7828V59.5308C20.9242 63.2866 22.5288 66.8381 25.2537 69.4266C27.9787 72.0152 31.6079 73.4354 35.366 73.3839C39.1222 73.4353 42.7494 72.0145 45.4713 69.4254C48.1933 66.8364 49.7938 63.2849 49.9304 59.5308V59.3436H49.8368L35.4034 34.614" fill="#1C2E61"/>
<path d="M55.8647 89.5209H67.2654C69.0251 89.5209 70.5041 88.5848 70.5041 87.4616V87.0311C70.5041 85.9266 69.0813 84.9718 67.2654 84.9718H56.0332" fill="#1C2E61"/>
<path d="M53.637 80.1981H48.6762C48.4042 80.1956 48.1344 80.247 47.8824 80.3494C47.6304 80.4518 47.4011 80.6031 47.2079 80.7946C47.0147 80.986 46.8614 81.2138 46.7567 81.4649C46.6521 81.716 46.5982 81.9853 46.5982 82.2573V82.6504C46.6031 83.1983 46.8242 83.722 47.2134 84.1077C47.6026 84.4933 48.1283 84.7097 48.6762 84.7097H63.278C63.8259 84.7097 64.3516 84.4933 64.7408 84.1077C65.13 83.722 65.3511 83.1983 65.356 82.6504V82.2573C65.3639 81.9832 65.3154 81.7103 65.2135 81.4557C65.1116 81.201 64.9585 80.97 64.7637 80.7769C64.5689 80.5839 64.3365 80.4329 64.081 80.3333C63.8254 80.2337 63.5521 80.1877 63.278 80.1981H58.5605" fill="#1C2E61"/>
<path d="M53.4873 80.1981H59.2531V34.8761L59.7586 33.4908C60.0141 33.2303 60.188 32.9007 60.2587 32.5427C60.3295 32.1847 60.2941 31.8139 60.1568 31.4758C60.0196 31.1376 59.7865 30.847 59.4863 30.6396C59.186 30.4321 58.8317 30.317 58.4669 30.3083H53.5434C53.0469 30.3083 52.5708 30.5055 52.2197 30.8566C51.8686 31.2077 51.6714 31.6838 51.6714 32.1803C51.7604 32.6587 51.952 33.1122 52.233 33.5095L53.6183 34.8948V80.2168" fill="#1C2E61"/>
<path d="M22.0184 58.8755L35.1039 35.7746L48.7323 58.8755" stroke="#EA7C23" stroke-width="0.57"/>
<path d="M63.9332 58.8755L77.0375 35.7746L90.6659 58.8755" stroke="#EA7C23" stroke-width="0.57"/>
<path d="M58.5605 34.9135H77.6927C77.8427 34.8694 77.9746 34.7783 78.069 34.6536C78.1634 34.5289 78.2152 34.3772 78.2169 34.2208C78.2194 34.1292 78.2033 34.038 78.1694 33.9528C78.1355 33.8675 78.0846 33.7902 78.0197 33.7253C77.9549 33.6605 77.8775 33.6095 77.7923 33.5757C77.7071 33.5418 77.6159 33.5256 77.5242 33.5282H54.4046" fill="#EA7C23"/>
<path d="M54.648 33.4908H35.8153C35.6316 33.4908 35.4554 33.5638 35.3255 33.6937C35.1956 33.8236 35.1226 33.9998 35.1226 34.1835C35.1226 34.3672 35.1956 34.5434 35.3255 34.6732C35.4554 34.8031 35.6316 34.8761 35.8153 34.8761H61.2937" fill="#EA7C23"/>
<path d="M75.7458 23.7187C76.153 23.7187 76.5512 23.598 76.8898 23.3717C77.2285 23.1454 77.4924 22.8238 77.6483 22.4475C77.8041 22.0713 77.8449 21.6572 77.7654 21.2578C77.686 20.8583 77.4899 20.4914 77.2019 20.2034C76.9139 19.9154 76.547 19.7193 76.1475 19.6398C75.748 19.5604 75.334 19.6011 74.9577 19.757C74.5814 19.9129 74.2598 20.1768 74.0336 20.5154C73.8073 20.8541 73.6865 21.2522 73.6865 21.6595C73.6865 22.2056 73.9035 22.7294 74.2897 23.1156C74.6758 23.5018 75.1996 23.7187 75.7458 23.7187Z" fill="#D0DBF0"/>
<path d="M84.8251 35.9057C85.0518 35.9057 85.2733 35.8382 85.4615 35.7119C85.6496 35.5856 85.796 35.4061 85.8818 35.1963C85.9677 34.9866 85.9892 34.756 85.9436 34.534C85.898 34.312 85.7873 34.1086 85.6258 33.9497C85.4642 33.7907 85.259 33.6835 85.0362 33.6415C84.8135 33.5996 84.5833 33.6249 84.375 33.7142C84.1667 33.8035 83.9897 33.9528 83.8665 34.143C83.7433 34.3333 83.6795 34.5559 83.6832 34.7825C83.6832 34.9316 83.7128 35.0792 83.7704 35.2167C83.8281 35.3542 83.9125 35.4789 84.0188 35.5834C84.1251 35.688 84.2511 35.7703 84.3895 35.8256C84.528 35.881 84.6761 35.9082 84.8251 35.9057Z" fill="#D0DBF0"/>
<path d="M93.3991 24.9917C93.7019 24.9917 93.9924 24.8714 94.2065 24.6572C94.4207 24.4431 94.541 24.1526 94.541 23.8498C94.541 23.5469 94.4207 23.2564 94.2065 23.0423C93.9924 22.8281 93.7019 22.7078 93.3991 22.7078C93.0962 22.7078 92.8057 22.8281 92.5916 23.0423C92.3774 23.2564 92.2571 23.5469 92.2571 23.8498C92.2571 24.1526 92.3774 24.4431 92.5916 24.6572C92.8057 24.8714 93.0962 24.9917 93.3991 24.9917Z" fill="#D0DBF0"/>
<path d="M19.9965 79.2433C20.4075 79.2433 20.8093 79.1215 21.151 78.8932C21.4927 78.6648 21.759 78.3403 21.9163 77.9606C22.0736 77.5809 22.1148 77.1631 22.0346 76.76C21.9544 76.3569 21.7565 75.9867 21.4659 75.6961C21.1753 75.4055 20.805 75.2075 20.4019 75.1274C19.9988 75.0472 19.581 75.0883 19.2013 75.2456C18.8216 75.4029 18.4971 75.6692 18.2688 76.0109C18.0404 76.3527 17.9186 76.7544 17.9186 77.1654C17.9186 77.7165 18.1375 78.245 18.5272 78.6347C18.9169 79.0244 19.4454 79.2433 19.9965 79.2433Z" fill="#D0DBF0"/>
<path d="M31.5283 79.9922C31.7097 79.9922 31.8871 79.9384 32.0379 79.8376C32.1887 79.7368 32.3063 79.5935 32.3757 79.4259C32.4452 79.2583 32.4633 79.0738 32.4279 78.8959C32.3926 78.718 32.3052 78.5545 32.1769 78.4262C32.0486 78.298 31.8852 78.2106 31.7072 78.1752C31.5293 78.1398 31.3449 78.158 31.1772 78.2274C31.0096 78.2968 30.8664 78.4144 30.7656 78.5652C30.6648 78.7161 30.611 78.8934 30.611 79.0749C30.611 79.3181 30.7076 79.5515 30.8796 79.7235C31.0517 79.8955 31.285 79.9922 31.5283 79.9922Z" fill="#D0DBF0"/>
<path d="M28.4581 86.8813C28.6191 86.902 28.7826 86.8882 28.9378 86.8408C29.093 86.7933 29.2363 86.7134 29.3581 86.6062C29.48 86.499 29.5776 86.3671 29.6445 86.2192C29.7114 86.0714 29.746 85.911 29.746 85.7487C29.746 85.5864 29.7114 85.426 29.6445 85.2781C29.5776 85.1302 29.48 84.9983 29.3581 84.8912C29.2363 84.784 29.093 84.704 28.9378 84.6566C28.7826 84.6092 28.6191 84.5954 28.4581 84.6161C28.2972 84.5954 28.1336 84.6092 27.9784 84.6566C27.8232 84.704 27.6799 84.784 27.5581 84.8912C27.4362 84.9983 27.3386 85.1302 27.2717 85.2781C27.2048 85.426 27.1703 85.5864 27.1703 85.7487C27.1703 85.911 27.2048 86.0714 27.2717 86.2192C27.3386 86.3671 27.4362 86.499 27.5581 86.6062C27.6799 86.7134 27.8232 86.7933 27.9784 86.8408C28.1336 86.8882 28.2972 86.902 28.4581 86.8813Z" fill="#D0DBF0"/>
</svg>
