<svg width="105" height="26" viewBox="0 0 105 26" fill="none" xmlns="http://www.w3.org/2000/svg">
<path d="M23.8635 10.12C23.3515 10.12 22.8635 10.04 22.3995 9.88C21.9355 9.72 21.5315 9.496 21.1875 9.208C20.8435 8.92 20.5915 8.588 20.4315 8.212C20.3515 8.044 20.3515 7.888 20.4315 7.744C20.5195 7.6 20.6635 7.508 20.8635 7.468C21.0075 7.436 21.1475 7.46 21.2835 7.54C21.4275 7.612 21.5355 7.724 21.6075 7.876C21.7035 8.076 21.8595 8.26 22.0755 8.428C22.2995 8.596 22.5675 8.732 22.8795 8.836C23.1915 8.94 23.5195 8.992 23.8635 8.992C24.2475 8.992 24.5995 8.932 24.9195 8.812C25.2475 8.692 25.5115 8.52 25.7115 8.296C25.9115 8.064 26.0115 7.78 26.0115 7.444C26.0115 7.02 25.8435 6.64 25.5075 6.304C25.1795 5.968 24.6355 5.76 23.8755 5.68C22.8835 5.584 22.1035 5.292 21.5355 4.804C20.9675 4.316 20.6835 3.712 20.6835 2.992C20.6835 2.464 20.8315 2.016 21.1275 1.648C21.4235 1.28 21.8235 1 22.3275 0.808C22.8395 0.616 23.4075 0.52 24.0315 0.52C24.5195 0.52 24.9435 0.588 25.3035 0.723999C25.6715 0.859999 25.9915 1.048 26.2635 1.288C26.5355 1.528 26.7715 1.812 26.9715 2.14C27.0835 2.316 27.1275 2.484 27.1035 2.644C27.0875 2.796 27.0115 2.916 26.8755 3.004C26.7235 3.1 26.5595 3.12 26.3835 3.064C26.2075 3.008 26.0755 2.904 25.9875 2.752C25.8595 2.52 25.7035 2.324 25.5195 2.164C25.3355 2.004 25.1195 1.88 24.8715 1.792C24.6235 1.696 24.3315 1.648 23.9955 1.648C23.4035 1.64 22.9075 1.752 22.5075 1.984C22.1075 2.208 21.9075 2.556 21.9075 3.028C21.9075 3.268 21.9675 3.5 22.0875 3.724C22.2155 3.94 22.4435 4.128 22.7715 4.288C23.1075 4.448 23.5875 4.56 24.2115 4.624C25.1635 4.72 25.9035 5.012 26.4315 5.5C26.9675 5.98 27.2355 6.616 27.2355 7.408C27.2355 7.864 27.1395 8.26 26.9475 8.596C26.7635 8.932 26.5115 9.216 26.1915 9.448C25.8795 9.672 25.5195 9.84 25.1115 9.952C24.7115 10.064 24.2955 10.12 23.8635 10.12ZM37.6452 10.012C37.4692 10.012 37.3212 9.956 37.2012 9.844C37.0892 9.724 37.0332 9.576 37.0332 9.4V5.968C37.0332 5.464 36.9092 5.092 36.6612 4.852C36.4132 4.604 36.0892 4.48 35.6892 4.48C35.2732 4.48 34.9292 4.624 34.6572 4.912C34.3932 5.2 34.2612 5.568 34.2612 6.016H33.2652C33.2652 5.496 33.3772 5.04 33.6012 4.648C33.8252 4.248 34.1372 3.936 34.5372 3.712C34.9452 3.488 35.4092 3.376 35.9292 3.376C36.3852 3.376 36.7892 3.476 37.1412 3.676C37.4932 3.876 37.7652 4.172 37.9572 4.564C38.1572 4.948 38.2572 5.416 38.2572 5.968V9.4C38.2572 9.576 38.2012 9.724 38.0892 9.844C37.9772 9.956 37.8292 10.012 37.6452 10.012ZM29.6412 10.012C29.4652 10.012 29.3172 9.956 29.1972 9.844C29.0852 9.724 29.0292 9.576 29.0292 9.4V4.06C29.0292 3.876 29.0852 3.728 29.1972 3.616C29.3172 3.504 29.4652 3.448 29.6412 3.448C29.8252 3.448 29.9732 3.504 30.0852 3.616C30.1972 3.728 30.2532 3.876 30.2532 4.06V9.4C30.2532 9.576 30.1972 9.724 30.0852 9.844C29.9732 9.956 29.8252 10.012 29.6412 10.012ZM33.6492 10.012C33.4732 10.012 33.3252 9.956 33.2052 9.844C33.0932 9.724 33.0372 9.576 33.0372 9.4V5.968C33.0372 5.464 32.9132 5.092 32.6652 4.852C32.4172 4.604 32.0932 4.48 31.6932 4.48C31.2772 4.48 30.9332 4.624 30.6612 4.912C30.3892 5.2 30.2532 5.568 30.2532 6.016H29.4972C29.4972 5.496 29.6012 5.04 29.8092 4.648C30.0172 4.248 30.3052 3.936 30.6732 3.712C31.0412 3.488 31.4612 3.376 31.9332 3.376C32.3892 3.376 32.7932 3.476 33.1452 3.676C33.4972 3.876 33.7692 4.172 33.9612 4.564C34.1612 4.948 34.2612 5.416 34.2612 5.968V9.4C34.2612 9.576 34.2052 9.724 34.0932 9.844C33.9812 9.956 33.8332 10.012 33.6492 10.012ZM43.0269 10.048C42.4429 10.048 41.9189 9.904 41.4549 9.616C40.9909 9.32 40.6229 8.924 40.3509 8.428C40.0869 7.924 39.9549 7.356 39.9549 6.724C39.9549 6.092 40.0989 5.524 40.3869 5.02C40.6829 4.516 41.0789 4.12 41.5749 3.832C42.0789 3.536 42.6429 3.388 43.2669 3.388C43.8909 3.388 44.4509 3.536 44.9469 3.832C45.4429 4.12 45.8349 4.516 46.1229 5.02C46.4189 5.524 46.5669 6.092 46.5669 6.724H46.0989C46.0989 7.356 45.9629 7.924 45.6909 8.428C45.4269 8.924 45.0629 9.32 44.5989 9.616C44.1349 9.904 43.6109 10.048 43.0269 10.048ZM43.2669 8.968C43.6749 8.968 44.0389 8.872 44.3589 8.68C44.6789 8.48 44.9309 8.212 45.1149 7.876C45.2989 7.532 45.3909 7.148 45.3909 6.724C45.3909 6.292 45.2989 5.908 45.1149 5.572C44.9309 5.228 44.6789 4.96 44.3589 4.768C44.0389 4.568 43.6749 4.468 43.2669 4.468C42.8669 4.468 42.5029 4.568 42.1749 4.768C41.8549 4.96 41.5989 5.228 41.4069 5.572C41.2229 5.908 41.1309 6.292 41.1309 6.724C41.1309 7.148 41.2229 7.532 41.4069 7.876C41.5989 8.212 41.8549 8.48 42.1749 8.68C42.5029 8.872 42.8669 8.968 43.2669 8.968ZM45.9549 10.012C45.7789 10.012 45.6309 9.956 45.5109 9.844C45.3989 9.724 45.3429 9.576 45.3429 9.4V7.564L45.5709 6.292L46.5669 6.724V9.4C46.5669 9.576 46.5069 9.724 46.3869 9.844C46.2749 9.956 46.1309 10.012 45.9549 10.012ZM48.9766 5.896C48.9766 5.416 49.0926 4.988 49.3246 4.612C49.5646 4.228 49.8846 3.924 50.2846 3.7C50.6846 3.476 51.1246 3.364 51.6046 3.364C52.0846 3.364 52.4406 3.444 52.6726 3.604C52.9126 3.756 53.0046 3.94 52.9486 4.156C52.9246 4.268 52.8766 4.356 52.8046 4.42C52.7406 4.476 52.6646 4.512 52.5766 4.528C52.4886 4.544 52.3926 4.54 52.2886 4.516C51.7766 4.412 51.3166 4.404 50.9086 4.492C50.5006 4.58 50.1766 4.744 49.9366 4.984C49.7046 5.224 49.5886 5.528 49.5886 5.896H48.9766ZM48.9886 10C48.7966 10 48.6486 9.952 48.5446 9.856C48.4406 9.752 48.3886 9.6 48.3886 9.4V4.036C48.3886 3.844 48.4406 3.696 48.5446 3.592C48.6486 3.488 48.7966 3.436 48.9886 3.436C49.1886 3.436 49.3366 3.488 49.4326 3.592C49.5366 3.688 49.5886 3.836 49.5886 4.036V9.4C49.5886 9.592 49.5366 9.74 49.4326 9.844C49.3366 9.948 49.1886 10 48.9886 10ZM56.6125 10C56.2125 10 55.8525 9.9 55.5325 9.7C55.2125 9.492 54.9605 9.212 54.7765 8.86C54.5925 8.508 54.5005 8.112 54.5005 7.672V1.948C54.5005 1.772 54.5565 1.628 54.6685 1.516C54.7805 1.404 54.9245 1.348 55.1005 1.348C55.2765 1.348 55.4205 1.404 55.5325 1.516C55.6445 1.628 55.7005 1.772 55.7005 1.948V7.672C55.7005 7.992 55.7885 8.26 55.9645 8.476C56.1405 8.692 56.3565 8.8 56.6125 8.8H57.0205C57.1645 8.8 57.2845 8.856 57.3805 8.968C57.4845 9.08 57.5365 9.224 57.5365 9.4C57.5365 9.576 57.4685 9.72 57.3325 9.832C57.2045 9.944 57.0365 10 56.8285 10H56.6125ZM53.9485 4.708C53.7805 4.708 53.6445 4.66 53.5405 4.564C53.4365 4.468 53.3845 4.348 53.3845 4.204C53.3845 4.044 53.4365 3.916 53.5405 3.82C53.6445 3.724 53.7805 3.676 53.9485 3.676H56.7205C56.8885 3.676 57.0245 3.724 57.1285 3.82C57.2325 3.916 57.2845 4.044 57.2845 4.204C57.2845 4.348 57.2325 4.468 57.1285 4.564C57.0245 4.66 56.8885 4.708 56.7205 4.708H53.9485ZM71.1726 10.012C70.9966 10.012 70.8486 9.956 70.7286 9.844C70.6166 9.724 70.5606 9.576 70.5606 9.4V5.968C70.5606 5.464 70.4366 5.092 70.1886 4.852C69.9406 4.604 69.6166 4.48 69.2166 4.48C68.8006 4.48 68.4566 4.624 68.1846 4.912C67.9206 5.2 67.7886 5.568 67.7886 6.016H66.7926C66.7926 5.496 66.9046 5.04 67.1286 4.648C67.3526 4.248 67.6646 3.936 68.0646 3.712C68.4726 3.488 68.9366 3.376 69.4566 3.376C69.9126 3.376 70.3166 3.476 70.6686 3.676C71.0206 3.876 71.2926 4.172 71.4846 4.564C71.6846 4.948 71.7846 5.416 71.7846 5.968V9.4C71.7846 9.576 71.7286 9.724 71.6166 9.844C71.5046 9.956 71.3566 10.012 71.1726 10.012ZM63.1686 10.012C62.9926 10.012 62.8446 9.956 62.7246 9.844C62.6126 9.724 62.5566 9.576 62.5566 9.4V4.06C62.5566 3.876 62.6126 3.728 62.7246 3.616C62.8446 3.504 62.9926 3.448 63.1686 3.448C63.3526 3.448 63.5006 3.504 63.6126 3.616C63.7246 3.728 63.7806 3.876 63.7806 4.06V9.4C63.7806 9.576 63.7246 9.724 63.6126 9.844C63.5006 9.956 63.3526 10.012 63.1686 10.012ZM67.1766 10.012C67.0006 10.012 66.8526 9.956 66.7326 9.844C66.6206 9.724 66.5646 9.576 66.5646 9.4V5.968C66.5646 5.464 66.4406 5.092 66.1926 4.852C65.9446 4.604 65.6206 4.48 65.2206 4.48C64.8046 4.48 64.4606 4.624 64.1886 4.912C63.9166 5.2 63.7806 5.568 63.7806 6.016H63.0246C63.0246 5.496 63.1286 5.04 63.3366 4.648C63.5446 4.248 63.8326 3.936 64.2006 3.712C64.5686 3.488 64.9886 3.376 65.4606 3.376C65.9166 3.376 66.3206 3.476 66.6726 3.676C67.0246 3.876 67.2966 4.172 67.4886 4.564C67.6886 4.948 67.7886 5.416 67.7886 5.968V9.4C67.7886 9.576 67.7326 9.724 67.6206 9.844C67.5086 9.956 67.3606 10.012 67.1766 10.012ZM74.5503 10C74.3743 10 74.2263 9.944 74.1063 9.832C73.9943 9.712 73.9383 9.564 73.9383 9.388V4.048C73.9383 3.864 73.9943 3.716 74.1063 3.604C74.2263 3.492 74.3743 3.436 74.5503 3.436C74.7343 3.436 74.8823 3.492 74.9943 3.604C75.1063 3.716 75.1623 3.864 75.1623 4.048V9.388C75.1623 9.564 75.1063 9.712 74.9943 9.832C74.8823 9.944 74.7343 10 74.5503 10ZM74.5503 2.368C74.3343 2.368 74.1463 2.292 73.9863 2.14C73.8343 1.98 73.7583 1.792 73.7583 1.576C73.7583 1.36 73.8343 1.176 73.9863 1.024C74.1463 0.864 74.3343 0.784 74.5503 0.784C74.7663 0.784 74.9503 0.864 75.1023 1.024C75.2623 1.176 75.3423 1.36 75.3423 1.576C75.3423 1.792 75.2623 1.98 75.1023 2.14C74.9503 2.292 74.7663 2.368 74.5503 2.368ZM78.0274 5.896C78.0274 5.416 78.1434 4.988 78.3754 4.612C78.6154 4.228 78.9354 3.924 79.3354 3.7C79.7354 3.476 80.1754 3.364 80.6554 3.364C81.1354 3.364 81.4914 3.444 81.7234 3.604C81.9634 3.756 82.0554 3.94 81.9994 4.156C81.9754 4.268 81.9274 4.356 81.8554 4.42C81.7914 4.476 81.7154 4.512 81.6274 4.528C81.5394 4.544 81.4434 4.54 81.3394 4.516C80.8274 4.412 80.3674 4.404 79.9594 4.492C79.5514 4.58 79.2274 4.744 78.9874 4.984C78.7554 5.224 78.6394 5.528 78.6394 5.896H78.0274ZM78.0394 10C77.8474 10 77.6994 9.952 77.5954 9.856C77.4914 9.752 77.4394 9.6 77.4394 9.4V4.036C77.4394 3.844 77.4914 3.696 77.5954 3.592C77.6994 3.488 77.8474 3.436 78.0394 3.436C78.2394 3.436 78.3874 3.488 78.4834 3.592C78.5874 3.688 78.6394 3.836 78.6394 4.036V9.4C78.6394 9.592 78.5874 9.74 78.4834 9.844C78.3874 9.948 78.2394 10 78.0394 10ZM83.8633 5.896C83.8633 5.416 83.9793 4.988 84.2113 4.612C84.4513 4.228 84.7713 3.924 85.1713 3.7C85.5713 3.476 86.0113 3.364 86.4913 3.364C86.9713 3.364 87.3273 3.444 87.5593 3.604C87.7993 3.756 87.8913 3.94 87.8353 4.156C87.8113 4.268 87.7633 4.356 87.6913 4.42C87.6273 4.476 87.5513 4.512 87.4633 4.528C87.3753 4.544 87.2793 4.54 87.1753 4.516C86.6633 4.412 86.2033 4.404 85.7953 4.492C85.3873 4.58 85.0633 4.744 84.8233 4.984C84.5913 5.224 84.4753 5.528 84.4753 5.896H83.8633ZM83.8753 10C83.6833 10 83.5353 9.952 83.4313 9.856C83.3273 9.752 83.2753 9.6 83.2753 9.4V4.036C83.2753 3.844 83.3273 3.696 83.4313 3.592C83.5353 3.488 83.6833 3.436 83.8753 3.436C84.0753 3.436 84.2233 3.488 84.3193 3.592C84.4233 3.688 84.4753 3.836 84.4753 4.036V9.4C84.4753 9.592 84.4233 9.74 84.3193 9.844C84.2233 9.948 84.0753 10 83.8753 10ZM91.6068 10.048C90.9588 10.048 90.3868 9.908 89.8908 9.628C89.3948 9.34 89.0028 8.948 88.7148 8.452C88.4348 7.948 88.2948 7.372 88.2948 6.724C88.2948 6.068 88.4348 5.492 88.7148 4.996C89.0028 4.492 89.3948 4.1 89.8908 3.82C90.3868 3.532 90.9588 3.388 91.6068 3.388C92.2468 3.388 92.8148 3.532 93.3108 3.82C93.8068 4.1 94.1948 4.492 94.4748 4.996C94.7628 5.492 94.9068 6.068 94.9068 6.724C94.9068 7.372 94.7668 7.948 94.4868 8.452C94.2068 8.948 93.8188 9.34 93.3228 9.628C92.8268 9.908 92.2548 10.048 91.6068 10.048ZM91.6068 8.968C92.0228 8.968 92.3908 8.872 92.7108 8.68C93.0308 8.488 93.2788 8.224 93.4548 7.888C93.6388 7.552 93.7308 7.164 93.7308 6.724C93.7308 6.284 93.6388 5.896 93.4548 5.56C93.2788 5.216 93.0308 4.948 92.7108 4.756C92.3908 4.564 92.0228 4.468 91.6068 4.468C91.1908 4.468 90.8228 4.564 90.5028 4.756C90.1828 4.948 89.9308 5.216 89.7468 5.56C89.5628 5.896 89.4708 6.284 89.4708 6.724C89.4708 7.164 89.5628 7.552 89.7468 7.888C89.9308 8.224 90.1828 8.488 90.5028 8.68C90.8228 8.872 91.1908 8.968 91.6068 8.968ZM97.3164 5.896C97.3164 5.416 97.4324 4.988 97.6644 4.612C97.9044 4.228 98.2244 3.924 98.6244 3.7C99.0244 3.476 99.4644 3.364 99.9444 3.364C100.424 3.364 100.78 3.444 101.012 3.604C101.252 3.756 101.344 3.94 101.288 4.156C101.264 4.268 101.216 4.356 101.144 4.42C101.08 4.476 101.004 4.512 100.916 4.528C100.828 4.544 100.732 4.54 100.628 4.516C100.116 4.412 99.6564 4.404 99.2484 4.492C98.8404 4.58 98.5164 4.744 98.2764 4.984C98.0444 5.224 97.9284 5.528 97.9284 5.896H97.3164ZM97.3284 10C97.1364 10 96.9884 9.952 96.8844 9.856C96.7804 9.752 96.7284 9.6 96.7284 9.4V4.036C96.7284 3.844 96.7804 3.696 96.8844 3.592C96.9884 3.488 97.1364 3.436 97.3284 3.436C97.5284 3.436 97.6764 3.488 97.7724 3.592C97.8764 3.688 97.9284 3.836 97.9284 4.036V9.4C97.9284 9.592 97.8764 9.74 97.7724 9.844C97.6764 9.948 97.5284 10 97.3284 10ZM2.24503 23C2.09303 23 1.95703 22.944 1.83703 22.832C1.71703 22.72 1.65703 22.572 1.65703 22.388V16.472C1.65703 15.896 1.76903 15.396 1.99303 14.972C2.22503 14.548 2.54503 14.22 2.95303 13.988C3.36103 13.748 3.83303 13.628 4.36903 13.628C4.54503 13.628 4.68903 13.68 4.80103 13.784C4.92103 13.888 4.98103 14.02 4.98103 14.18C4.98103 14.332 4.92103 14.464 4.80103 14.576C4.68903 14.68 4.54503 14.732 4.36903 14.732C4.07303 14.732 3.81303 14.8 3.58903 14.936C3.36503 15.072 3.18903 15.26 3.06103 15.5C2.94103 15.74 2.88103 16.024 2.88103 16.352V22.388C2.88103 22.572 2.82503 22.72 2.71303 22.832C2.60103 22.944 2.44503 23 2.24503 23ZM1.14103 17.708C0.973031 17.708 0.837031 17.66 0.733031 17.564C0.629031 17.468 0.577031 17.348 0.577031 17.204C0.577031 17.044 0.629031 16.916 0.733031 16.82C0.837031 16.724 0.973031 16.676 1.14103 16.676H4.10503C4.27303 16.676 4.40903 16.724 4.51303 16.82C4.61703 16.916 4.66903 17.044 4.66903 17.204C4.66903 17.348 4.61703 17.468 4.51303 17.564C4.40903 17.66 4.27303 17.708 4.10503 17.708H1.14103ZM8.68491 23.048C8.03691 23.048 7.46491 22.908 6.96891 22.628C6.47291 22.34 6.08091 21.948 5.79291 21.452C5.51291 20.948 5.37291 20.372 5.37291 19.724C5.37291 19.068 5.51291 18.492 5.79291 17.996C6.08091 17.492 6.47291 17.1 6.96891 16.82C7.46491 16.532 8.03691 16.388 8.68491 16.388C9.32491 16.388 9.89291 16.532 10.3889 16.82C10.8849 17.1 11.2729 17.492 11.5529 17.996C11.8409 18.492 11.9849 19.068 11.9849 19.724C11.9849 20.372 11.8449 20.948 11.5649 21.452C11.2849 21.948 10.8969 22.34 10.4009 22.628C9.90491 22.908 9.33291 23.048 8.68491 23.048ZM8.68491 21.968C9.10091 21.968 9.46891 21.872 9.78891 21.68C10.1089 21.488 10.3569 21.224 10.5329 20.888C10.7169 20.552 10.8089 20.164 10.8089 19.724C10.8089 19.284 10.7169 18.896 10.5329 18.56C10.3569 18.216 10.1089 17.948 9.78891 17.756C9.46891 17.564 9.10091 17.468 8.68491 17.468C8.26891 17.468 7.90091 17.564 7.58091 17.756C7.26091 17.948 7.00891 18.216 6.82491 18.56C6.64091 18.896 6.54891 19.284 6.54891 19.724C6.54891 20.164 6.64091 20.552 6.82491 20.888C7.00891 21.224 7.26091 21.488 7.58091 21.68C7.90091 21.872 8.26891 21.968 8.68491 21.968ZM14.3946 18.896C14.3946 18.416 14.5106 17.988 14.7426 17.612C14.9826 17.228 15.3026 16.924 15.7026 16.7C16.1026 16.476 16.5426 16.364 17.0226 16.364C17.5026 16.364 17.8586 16.444 18.0906 16.604C18.3306 16.756 18.4226 16.94 18.3666 17.156C18.3426 17.268 18.2946 17.356 18.2226 17.42C18.1586 17.476 18.0826 17.512 17.9946 17.528C17.9066 17.544 17.8106 17.54 17.7066 17.516C17.1946 17.412 16.7346 17.404 16.3266 17.492C15.9186 17.58 15.5946 17.744 15.3546 17.984C15.1226 18.224 15.0066 18.528 15.0066 18.896H14.3946ZM14.4066 23C14.2146 23 14.0666 22.952 13.9626 22.856C13.8586 22.752 13.8066 22.6 13.8066 22.4V17.036C13.8066 16.844 13.8586 16.696 13.9626 16.592C14.0666 16.488 14.2146 16.436 14.4066 16.436C14.6066 16.436 14.7546 16.488 14.8506 16.592C14.9546 16.688 15.0066 16.836 15.0066 17.036V22.4C15.0066 22.592 14.9546 22.74 14.8506 22.844C14.7546 22.948 14.6066 23 14.4066 23ZM23.9021 23C23.7261 23 23.5781 22.94 23.4581 22.82C23.3381 22.7 23.2781 22.552 23.2781 22.376V14.252C23.2781 14.068 23.3381 13.92 23.4581 13.808C23.5781 13.688 23.7261 13.628 23.9021 13.628H26.7701C27.3141 13.628 27.7901 13.736 28.1981 13.952C28.6141 14.16 28.9381 14.452 29.1701 14.828C29.4101 15.204 29.5301 15.636 29.5301 16.124C29.5301 16.516 29.4221 16.872 29.2061 17.192C28.9981 17.504 28.7101 17.752 28.3421 17.936C28.8701 18.064 29.2941 18.316 29.6141 18.692C29.9341 19.068 30.0941 19.56 30.0941 20.168C30.0941 20.72 29.9621 21.208 29.6981 21.632C29.4421 22.056 29.0821 22.392 28.6181 22.64C28.1541 22.88 27.6221 23 27.0221 23H23.9021ZM24.5261 21.848H27.0221C27.3901 21.848 27.7141 21.784 27.9941 21.656C28.2741 21.528 28.4941 21.34 28.6541 21.092C28.8141 20.844 28.8941 20.536 28.8941 20.168C28.8941 19.824 28.8141 19.54 28.6541 19.316C28.4941 19.092 28.2741 18.924 27.9941 18.812C27.7141 18.692 27.3901 18.632 27.0221 18.632H24.5261V21.848ZM24.5261 17.48H26.7701C27.2261 17.48 27.5981 17.368 27.8861 17.144C28.1821 16.92 28.3301 16.58 28.3301 16.124C28.3301 15.668 28.1821 15.332 27.8861 15.116C27.5981 14.892 27.2261 14.78 26.7701 14.78H24.5261V17.48ZM32.574 23C32.398 23 32.25 22.94 32.13 22.82C32.01 22.7 31.95 22.552 31.95 22.376V14.252C31.95 14.068 32.01 13.92 32.13 13.808C32.25 13.688 32.398 13.628 32.574 13.628H34.746C35.434 13.628 36.058 13.744 36.618 13.976C37.186 14.2 37.678 14.524 38.094 14.948C38.51 15.364 38.83 15.856 39.054 16.424C39.278 16.992 39.39 17.62 39.39 18.308C39.39 18.996 39.278 19.628 39.054 20.204C38.83 20.772 38.51 21.268 38.094 21.692C37.678 22.108 37.186 22.432 36.618 22.664C36.058 22.888 35.434 23 34.746 23H32.574ZM33.198 21.896H34.746C35.418 21.896 36.01 21.744 36.522 21.44C37.042 21.128 37.45 20.704 37.746 20.168C38.042 19.624 38.19 19.004 38.19 18.308C38.19 17.604 38.042 16.984 37.746 16.448C37.45 15.912 37.042 15.492 36.522 15.188C36.01 14.884 35.418 14.732 34.746 14.732H33.198V21.896ZM41.9724 23C41.7964 23 41.6484 22.94 41.5284 22.82C41.4084 22.7 41.3484 22.552 41.3484 22.376V14.252C41.3484 14.068 41.4084 13.92 41.5284 13.808C41.6484 13.688 41.7964 13.628 41.9724 13.628H44.1444C44.8324 13.628 45.4564 13.744 46.0164 13.976C46.5844 14.2 47.0764 14.524 47.4924 14.948C47.9084 15.364 48.2284 15.856 48.4524 16.424C48.6764 16.992 48.7884 17.62 48.7884 18.308C48.7884 18.996 48.6764 19.628 48.4524 20.204C48.2284 20.772 47.9084 21.268 47.4924 21.692C47.0764 22.108 46.5844 22.432 46.0164 22.664C45.4564 22.888 44.8324 23 44.1444 23H41.9724ZM42.5964 21.896H44.1444C44.8164 21.896 45.4084 21.744 45.9204 21.44C46.4404 21.128 46.8484 20.704 47.1444 20.168C47.4404 19.624 47.5884 19.004 47.5884 18.308C47.5884 17.604 47.4404 16.984 47.1444 16.448C46.8484 15.912 46.4404 15.492 45.9204 15.188C45.4084 14.884 44.8164 14.732 44.1444 14.732H42.5964V21.896ZM54.7545 25.808C54.5785 25.808 54.4305 25.748 54.3105 25.628C54.1985 25.516 54.1425 25.372 54.1425 25.196V19.724C54.1505 19.092 54.2985 18.524 54.5865 18.02C54.8745 17.516 55.2665 17.12 55.7625 16.832C56.2585 16.536 56.8185 16.388 57.4425 16.388C58.0745 16.388 58.6385 16.536 59.1345 16.832C59.6305 17.12 60.0225 17.516 60.3105 18.02C60.6065 18.524 60.7545 19.092 60.7545 19.724C60.7545 20.356 60.6185 20.924 60.3465 21.428C60.0825 21.924 59.7185 22.32 59.2545 22.616C58.7905 22.904 58.2665 23.048 57.6825 23.048C57.2105 23.048 56.7745 22.952 56.3745 22.76C55.9825 22.56 55.6465 22.292 55.3665 21.956V25.196C55.3665 25.372 55.3105 25.516 55.1985 25.628C55.0865 25.748 54.9385 25.808 54.7545 25.808ZM57.4425 21.968C57.8505 21.968 58.2145 21.872 58.5345 21.68C58.8545 21.48 59.1065 21.212 59.2905 20.876C59.4825 20.532 59.5785 20.148 59.5785 19.724C59.5785 19.292 59.4825 18.908 59.2905 18.572C59.1065 18.228 58.8545 17.96 58.5345 17.768C58.2145 17.568 57.8505 17.468 57.4425 17.468C57.0425 17.468 56.6785 17.568 56.3505 17.768C56.0305 17.96 55.7785 18.228 55.5945 18.572C55.4105 18.908 55.3185 19.292 55.3185 19.724C55.3185 20.148 55.4105 20.532 55.5945 20.876C55.7785 21.212 56.0305 21.48 56.3505 21.68C56.6785 21.872 57.0425 21.968 57.4425 21.968ZM65.316 23.048C64.732 23.048 64.208 22.904 63.744 22.616C63.28 22.32 62.912 21.924 62.64 21.428C62.376 20.924 62.244 20.356 62.244 19.724C62.244 19.092 62.388 18.524 62.676 18.02C62.972 17.516 63.368 17.12 63.864 16.832C64.368 16.536 64.932 16.388 65.556 16.388C66.18 16.388 66.74 16.536 67.236 16.832C67.732 17.12 68.124 17.516 68.412 18.02C68.708 18.524 68.856 19.092 68.856 19.724H68.388C68.388 20.356 68.252 20.924 67.98 21.428C67.716 21.924 67.352 22.32 66.888 22.616C66.424 22.904 65.9 23.048 65.316 23.048ZM65.556 21.968C65.964 21.968 66.328 21.872 66.648 21.68C66.968 21.48 67.22 21.212 67.404 20.876C67.588 20.532 67.68 20.148 67.68 19.724C67.68 19.292 67.588 18.908 67.404 18.572C67.22 18.228 66.968 17.96 66.648 17.768C66.328 17.568 65.964 17.468 65.556 17.468C65.156 17.468 64.792 17.568 64.464 17.768C64.144 17.96 63.888 18.228 63.696 18.572C63.512 18.908 63.42 19.292 63.42 19.724C63.42 20.148 63.512 20.532 63.696 20.876C63.888 21.212 64.144 21.48 64.464 21.68C64.792 21.872 65.156 21.968 65.556 21.968ZM68.244 23.012C68.068 23.012 67.92 22.956 67.8 22.844C67.688 22.724 67.632 22.576 67.632 22.4V20.564L67.86 19.292L68.856 19.724V22.4C68.856 22.576 68.796 22.724 68.676 22.844C68.564 22.956 68.42 23.012 68.244 23.012ZM73.0657 23C72.6657 23 72.3057 22.9 71.9857 22.7C71.6657 22.492 71.4137 22.212 71.2297 21.86C71.0457 21.508 70.9537 21.112 70.9537 20.672V14.948C70.9537 14.772 71.0097 14.628 71.1217 14.516C71.2337 14.404 71.3777 14.348 71.5537 14.348C71.7297 14.348 71.8737 14.404 71.9857 14.516C72.0977 14.628 72.1537 14.772 72.1537 14.948V20.672C72.1537 20.992 72.2417 21.26 72.4177 21.476C72.5937 21.692 72.8097 21.8 73.0657 21.8H73.4737C73.6177 21.8 73.7377 21.856 73.8337 21.968C73.9377 22.08 73.9897 22.224 73.9897 22.4C73.9897 22.576 73.9217 22.72 73.7857 22.832C73.6577 22.944 73.4897 23 73.2817 23H73.0657ZM70.4017 17.708C70.2337 17.708 70.0977 17.66 69.9937 17.564C69.8897 17.468 69.8377 17.348 69.8377 17.204C69.8377 17.044 69.8897 16.916 69.9937 16.82C70.0977 16.724 70.2337 16.676 70.4017 16.676H73.1737C73.3417 16.676 73.4777 16.724 73.5817 16.82C73.6857 16.916 73.7377 17.044 73.7377 17.204C73.7377 17.348 73.6857 17.468 73.5817 17.564C73.4777 17.66 73.3417 17.708 73.1737 17.708H70.4017ZM76.2261 23C76.0501 23 75.9021 22.944 75.7821 22.832C75.6701 22.712 75.6141 22.564 75.6141 22.388V17.048C75.6141 16.864 75.6701 16.716 75.7821 16.604C75.9021 16.492 76.0501 16.436 76.2261 16.436C76.4101 16.436 76.5581 16.492 76.6701 16.604C76.7821 16.716 76.8381 16.864 76.8381 17.048V22.388C76.8381 22.564 76.7821 22.712 76.6701 22.832C76.5581 22.944 76.4101 23 76.2261 23ZM76.2261 15.368C76.0101 15.368 75.8221 15.292 75.6621 15.14C75.5101 14.98 75.4341 14.792 75.4341 14.576C75.4341 14.36 75.5101 14.176 75.6621 14.024C75.8221 13.864 76.0101 13.784 76.2261 13.784C76.4421 13.784 76.6261 13.864 76.7781 14.024C76.9381 14.176 77.0181 14.36 77.0181 14.576C77.0181 14.792 76.9381 14.98 76.7781 15.14C76.6261 15.292 76.4421 15.368 76.2261 15.368ZM82.1992 23.048C81.5352 23.048 80.9432 22.908 80.4232 22.628C79.9112 22.34 79.5072 21.948 79.2112 21.452C78.9232 20.948 78.7792 20.372 78.7792 19.724C78.7792 19.068 78.9152 18.492 79.1872 17.996C79.4672 17.492 79.8512 17.1 80.3392 16.82C80.8272 16.532 81.3872 16.388 82.0192 16.388C82.6432 16.388 83.1792 16.528 83.6272 16.808C84.0752 17.08 84.4152 17.46 84.6472 17.948C84.8872 18.428 85.0072 18.984 85.0072 19.616C85.0072 19.768 84.9552 19.896 84.8512 20C84.7472 20.096 84.6152 20.144 84.4552 20.144H79.6192V19.184H84.4192L83.9272 19.52C83.9192 19.12 83.8392 18.764 83.6872 18.452C83.5352 18.132 83.3192 17.88 83.0392 17.696C82.7592 17.512 82.4192 17.42 82.0192 17.42C81.5632 17.42 81.1712 17.52 80.8432 17.72C80.5232 17.92 80.2792 18.196 80.1112 18.548C79.9432 18.892 79.8592 19.284 79.8592 19.724C79.8592 20.164 79.9592 20.556 80.1592 20.9C80.3592 21.244 80.6352 21.516 80.9872 21.716C81.3392 21.916 81.7432 22.016 82.1992 22.016C82.4472 22.016 82.6992 21.972 82.9552 21.884C83.2192 21.788 83.4312 21.68 83.5912 21.56C83.7112 21.472 83.8392 21.428 83.9752 21.428C84.1192 21.42 84.2432 21.46 84.3472 21.548C84.4832 21.668 84.5552 21.8 84.5632 21.944C84.5712 22.088 84.5072 22.212 84.3712 22.316C84.0992 22.532 83.7592 22.708 83.3512 22.844C82.9512 22.98 82.5672 23.048 82.1992 23.048ZM92.1123 23.012C91.9363 23.012 91.7883 22.956 91.6683 22.844C91.5563 22.724 91.5003 22.576 91.5003 22.4V19.448C91.5003 18.992 91.4163 18.62 91.2483 18.332C91.0803 18.044 90.8523 17.832 90.5643 17.696C90.2843 17.552 89.9603 17.48 89.5923 17.48C89.2563 17.48 88.9523 17.548 88.6803 17.684C88.4083 17.82 88.1923 18.004 88.0323 18.236C87.8723 18.46 87.7923 18.72 87.7923 19.016H87.0363C87.0363 18.512 87.1563 18.064 87.3963 17.672C87.6443 17.272 87.9803 16.956 88.4043 16.724C88.8283 16.492 89.3043 16.376 89.8323 16.376C90.3843 16.376 90.8763 16.496 91.3083 16.736C91.7483 16.968 92.0923 17.312 92.3403 17.768C92.5963 18.224 92.7243 18.784 92.7243 19.448V22.4C92.7243 22.576 92.6643 22.724 92.5443 22.844C92.4323 22.956 92.2883 23.012 92.1123 23.012ZM87.1803 23.012C87.0043 23.012 86.8563 22.956 86.7363 22.844C86.6243 22.724 86.5683 22.576 86.5683 22.4V17.048C86.5683 16.864 86.6243 16.716 86.7363 16.604C86.8563 16.492 87.0043 16.436 87.1803 16.436C87.3643 16.436 87.5123 16.492 87.6243 16.604C87.7363 16.716 87.7923 16.864 87.7923 17.048V22.4C87.7923 22.576 87.7363 22.724 87.6243 22.844C87.5123 22.956 87.3643 23.012 87.1803 23.012ZM97.136 23C96.736 23 96.376 22.9 96.056 22.7C95.736 22.492 95.484 22.212 95.3 21.86C95.116 21.508 95.024 21.112 95.024 20.672V14.948C95.024 14.772 95.08 14.628 95.192 14.516C95.304 14.404 95.448 14.348 95.624 14.348C95.8 14.348 95.944 14.404 96.056 14.516C96.168 14.628 96.224 14.772 96.224 14.948V20.672C96.224 20.992 96.312 21.26 96.488 21.476C96.664 21.692 96.88 21.8 97.136 21.8H97.544C97.688 21.8 97.808 21.856 97.904 21.968C98.008 22.08 98.06 22.224 98.06 22.4C98.06 22.576 97.992 22.72 97.856 22.832C97.728 22.944 97.56 23 97.352 23H97.136ZM94.472 17.708C94.304 17.708 94.168 17.66 94.064 17.564C93.96 17.468 93.908 17.348 93.908 17.204C93.908 17.044 93.96 16.916 94.064 16.82C94.168 16.724 94.304 16.676 94.472 16.676H97.244C97.412 16.676 97.548 16.724 97.652 16.82C97.756 16.916 97.808 17.044 97.808 17.204C97.808 17.348 97.756 17.468 97.652 17.564C97.548 17.66 97.412 17.708 97.244 17.708H94.472ZM101.952 23.048C101.392 23.048 100.872 22.964 100.392 22.796C99.9204 22.62 99.5524 22.4 99.2884 22.136C99.1684 22.008 99.1164 21.864 99.1324 21.704C99.1564 21.536 99.2364 21.4 99.3724 21.296C99.5324 21.168 99.6884 21.116 99.8404 21.14C100 21.156 100.136 21.224 100.248 21.344C100.384 21.496 100.6 21.64 100.896 21.776C101.2 21.904 101.536 21.968 101.904 21.968C102.368 21.968 102.72 21.892 102.96 21.74C103.208 21.588 103.336 21.392 103.344 21.152C103.352 20.912 103.236 20.704 102.996 20.528C102.764 20.352 102.336 20.208 101.712 20.096C100.904 19.936 100.316 19.696 99.9484 19.376C99.5884 19.056 99.4084 18.664 99.4084 18.2C99.4084 17.792 99.5284 17.456 99.7684 17.192C100.008 16.92 100.316 16.72 100.692 16.592C101.068 16.456 101.46 16.388 101.868 16.388C102.396 16.388 102.864 16.472 103.272 16.64C103.68 16.808 104.004 17.04 104.244 17.336C104.356 17.464 104.408 17.6 104.4 17.744C104.392 17.88 104.324 17.996 104.196 18.092C104.068 18.18 103.916 18.208 103.74 18.176C103.564 18.144 103.416 18.072 103.296 17.96C103.096 17.768 102.88 17.636 102.648 17.564C102.416 17.492 102.148 17.456 101.844 17.456C101.492 17.456 101.192 17.516 100.944 17.636C100.704 17.756 100.584 17.932 100.584 18.164C100.584 18.308 100.62 18.44 100.692 18.56C100.772 18.672 100.924 18.776 101.148 18.872C101.372 18.96 101.7 19.048 102.132 19.136C102.732 19.256 103.204 19.408 103.548 19.592C103.9 19.776 104.152 19.992 104.304 20.24C104.456 20.48 104.532 20.76 104.532 21.08C104.532 21.448 104.432 21.78 104.232 22.076C104.04 22.372 103.752 22.608 103.368 22.784C102.992 22.96 102.52 23.048 101.952 23.048Z" fill="#1C2122"/>
</svg>
