<svg width="154" height="25" viewBox="0 0 154 25" fill="none" xmlns="http://www.w3.org/2000/svg">
<path d="M23.1293 12.416C23.1293 16.8107 21.8919 19.872 19.4173 21.6C17.1346 23.2 13.9986 24 10.0093 24H0.95325V23.392H3.06525V2.208H0.95325V1.6H10.8413C14.9373 1.6 18.0093 2.44267 20.0573 4.128C22.1053 5.792 23.1293 8.55467 23.1293 12.416ZM9.30525 23.392H10.5213C12.6759 23.392 14.2119 22.6347 15.1293 21.12C16.0679 19.584 16.5373 17.024 16.5373 13.44V11.584C16.5373 6.784 15.6199 3.89333 13.7853 2.912C12.9106 2.44267 11.6733 2.208 10.0733 2.208H9.30525V23.392ZM35.4455 9.664C34.6562 9.664 33.9628 10.176 33.3655 11.2C32.7682 12.224 32.4695 13.44 32.4695 14.848V23.424H34.7415V24H24.7575V23.424H26.5175V9.344H24.7575V8.768H32.4695V11.84C32.7468 10.752 33.2802 9.92 34.0695 9.344C34.8588 8.74667 35.7548 8.448 36.7575 8.448C37.7602 8.448 38.5708 8.736 39.1895 9.312C39.8295 9.86667 40.1495 10.6667 40.1495 11.712C40.1495 12.736 39.9148 13.5253 39.4455 14.08C38.9762 14.6347 38.2508 14.912 37.2695 14.912C36.3095 14.912 35.5948 14.592 35.1255 13.952C34.6775 13.312 34.6242 12.4267 34.9655 11.296H36.1175C36.6508 10.208 36.4268 9.664 35.4455 9.664ZM41.9108 24.32C40.9934 24.32 40.3001 24.0533 39.8307 23.52C39.3828 22.9653 39.1588 22.304 39.1588 21.536C39.1588 20.7467 39.3934 20.0853 39.8628 19.552C40.3534 19.0187 41.0361 18.752 41.9108 18.752C42.7854 18.752 43.4788 18.976 43.9908 19.424C44.5028 19.872 44.7588 20.544 44.7588 21.44C44.7588 22.336 44.5134 23.04 44.0228 23.552C43.5534 24.064 42.8494 24.32 41.9108 24.32ZM69.4735 1.6H78.0175V2.208H76.2575V23.392H78.0175V24H68.2575V23.392H70.0175V3.392H69.8895L65.0895 24H61.0895L55.4575 3.296H55.3295V23.392H57.0895V24H52.7375V23.392H54.4975V2.208H52.7375V1.6H61.3775L65.6335 18.08L69.4735 1.6ZM83.8365 6.56C82.7058 6.56 81.8952 6.272 81.4045 5.696C80.9352 5.12 80.7005 4.40533 80.7005 3.552C80.7005 2.69867 80.9565 1.99467 81.4685 1.44C82.0018 0.885333 82.8018 0.608 83.8685 0.608C84.9352 0.608 85.7458 0.864 86.3005 1.376C86.8552 1.86667 87.1325 2.58133 87.1325 3.52C87.1325 4.43733 86.8658 5.17333 86.3325 5.728C85.7992 6.28267 84.9672 6.56 83.8365 6.56ZM79.0045 8.768H86.8445V23.424H88.6365V24H79.1325V23.424H80.8925V9.344H79.0045V8.768ZM99.9768 9.664C99.1874 9.664 98.4941 10.176 97.8968 11.2C97.2994 12.224 97.0008 13.44 97.0008 14.848V23.424H99.2728V24H89.2888V23.424H91.0488V9.344H89.2888V8.768H97.0008V11.84C97.2781 10.752 97.8114 9.92 98.6008 9.344C99.3901 8.74667 100.286 8.448 101.289 8.448C102.291 8.448 103.102 8.736 103.721 9.312C104.361 9.86667 104.681 10.6667 104.681 11.712C104.681 12.736 104.446 13.5253 103.977 14.08C103.507 14.6347 102.782 14.912 101.801 14.912C100.841 14.912 100.126 14.592 99.6568 13.952C99.2088 13.312 99.1554 12.4267 99.4968 11.296H100.649C101.182 10.208 100.958 9.664 99.9768 9.664ZM115.821 9.664C115.031 9.664 114.338 10.176 113.741 11.2C113.143 12.224 112.845 13.44 112.845 14.848V23.424H115.117V24H105.133V23.424H106.893V9.344H105.133V8.768H112.845V11.84C113.122 10.752 113.655 9.92 114.445 9.344C115.234 8.74667 116.13 8.448 117.133 8.448C118.135 8.448 118.946 8.736 119.565 9.312C120.205 9.86667 120.525 10.6667 120.525 11.712C120.525 12.736 120.29 13.5253 119.821 14.08C119.351 14.6347 118.626 14.912 117.645 14.912C116.685 14.912 115.97 14.592 115.501 13.952C115.053 13.312 114.999 12.4267 115.341 11.296H116.493C117.026 10.208 116.802 9.664 115.821 9.664ZM131.156 17.696V14.976C131.156 12.9067 131.039 11.4027 130.804 10.464C130.591 9.504 130.079 9.024 129.268 9.024C128.799 9.024 128.415 9.16267 128.116 9.44C127.839 9.696 127.636 10.1333 127.508 10.752C127.316 11.712 127.22 13.1733 127.22 15.136V17.632C127.22 19.9573 127.284 21.3547 127.412 21.824C127.561 22.2933 127.711 22.6773 127.86 22.976C128.095 23.488 128.553 23.744 129.236 23.744C130.068 23.744 130.612 23.264 130.868 22.304C131.06 21.6213 131.156 20.0853 131.156 17.696ZM129.172 24.32C126.505 24.32 124.489 23.6373 123.124 22.272C121.759 20.9067 121.076 18.9547 121.076 16.416C121.076 13.856 121.801 11.8933 123.252 10.528C124.724 9.14133 126.783 8.448 129.428 8.448C132.073 8.448 134.047 9.088 135.348 10.368C136.649 11.6267 137.3 13.5573 137.3 16.16C137.3 21.6 134.591 24.32 129.172 24.32ZM148.883 9.664C148.094 9.664 147.4 10.176 146.803 11.2C146.206 12.224 145.907 13.44 145.907 14.848V23.424H148.179V24H138.195V23.424H139.955V9.344H138.195V8.768H145.907V11.84C146.184 10.752 146.718 9.92 147.507 9.344C148.296 8.74667 149.192 8.448 150.195 8.448C151.198 8.448 152.008 8.736 152.627 9.312C153.267 9.86667 153.587 10.6667 153.587 11.712C153.587 12.736 153.352 13.5253 152.883 14.08C152.414 14.6347 151.688 14.912 150.707 14.912C149.747 14.912 149.032 14.592 148.563 13.952C148.115 13.312 148.062 12.4267 148.403 11.296H149.555C150.088 10.208 149.864 9.664 148.883 9.664Z" fill="#1C2122"/>
</svg>
