<svg width="104" height="28" viewBox="0 0 104 28" fill="none" xmlns="http://www.w3.org/2000/svg">
<path d="M24.5523 10.12C23.8963 10.12 23.2683 10.028 22.6683 9.844C22.0683 9.652 21.5923 9.408 21.2403 9.112L21.7803 7.9C22.1163 8.164 22.5323 8.384 23.0283 8.56C23.5243 8.736 24.0323 8.824 24.5523 8.824C24.9923 8.824 25.3483 8.776 25.6203 8.68C25.8923 8.584 26.0923 8.456 26.2203 8.296C26.3483 8.128 26.4123 7.94 26.4123 7.732C26.4123 7.476 26.3203 7.272 26.1363 7.12C25.9523 6.96 25.7123 6.836 25.4163 6.748C25.1283 6.652 24.8043 6.564 24.4443 6.484C24.0923 6.404 23.7363 6.312 23.3763 6.208C23.0243 6.096 22.7003 5.956 22.4043 5.788C22.1163 5.612 21.8803 5.38 21.6963 5.092C21.5123 4.804 21.4203 4.436 21.4203 3.988C21.4203 3.532 21.5403 3.116 21.7803 2.74C22.0283 2.356 22.4003 2.052 22.8963 1.828C23.4003 1.596 24.0363 1.48 24.8043 1.48C25.3083 1.48 25.8083 1.544 26.3043 1.672C26.8003 1.8 27.2323 1.984 27.6003 2.224L27.1083 3.436C26.7323 3.212 26.3443 3.048 25.9443 2.944C25.5443 2.832 25.1603 2.776 24.7923 2.776C24.3603 2.776 24.0083 2.828 23.7363 2.932C23.4723 3.036 23.2763 3.172 23.1483 3.34C23.0283 3.508 22.9683 3.7 22.9683 3.916C22.9683 4.172 23.0563 4.38 23.2323 4.54C23.4163 4.692 23.6523 4.812 23.9403 4.9C24.2363 4.988 24.5643 5.076 24.9243 5.164C25.2843 5.244 25.6403 5.336 25.9923 5.44C26.3523 5.544 26.6763 5.68 26.9643 5.848C27.2603 6.016 27.4963 6.244 27.6723 6.532C27.8563 6.82 27.9483 7.184 27.9483 7.624C27.9483 8.072 27.8243 8.488 27.5763 8.872C27.3363 9.248 26.9643 9.552 26.4603 9.784C25.9563 10.008 25.3203 10.12 24.5523 10.12ZM37.4392 3.52C37.9512 3.52 38.4032 3.62 38.7952 3.82C39.1952 4.02 39.5072 4.328 39.7312 4.744C39.9552 5.152 40.0672 5.68 40.0672 6.328V10H38.5672V6.52C38.5672 5.952 38.4432 5.528 38.1952 5.248C37.9472 4.968 37.5912 4.828 37.1272 4.828C36.7992 4.828 36.5072 4.9 36.2512 5.044C36.0032 5.188 35.8072 5.4 35.6632 5.68C35.5272 5.96 35.4592 6.316 35.4592 6.748V10H33.9592V6.52C33.9592 5.952 33.8352 5.528 33.5872 5.248C33.3392 4.968 32.9832 4.828 32.5192 4.828C32.1912 4.828 31.8992 4.9 31.6432 5.044C31.3952 5.188 31.1992 5.4 31.0552 5.68C30.9192 5.96 30.8512 6.316 30.8512 6.748V10H29.3512V3.592H30.7792V5.296L30.5272 4.792C30.7432 4.376 31.0552 4.06 31.4632 3.844C31.8792 3.628 32.3512 3.52 32.8792 3.52C33.4792 3.52 33.9992 3.668 34.4392 3.964C34.8872 4.26 35.1832 4.708 35.3272 5.308L34.7392 5.104C34.9472 4.624 35.2912 4.24 35.7712 3.952C36.2512 3.664 36.8072 3.52 37.4392 3.52ZM45.932 10V8.704L45.848 8.428V6.16C45.848 5.72 45.716 5.38 45.452 5.14C45.188 4.892 44.788 4.768 44.252 4.768C43.892 4.768 43.536 4.824 43.184 4.936C42.84 5.048 42.548 5.204 42.308 5.404L41.72 4.312C42.064 4.048 42.472 3.852 42.944 3.724C43.424 3.588 43.92 3.52 44.432 3.52C45.36 3.52 46.076 3.744 46.58 4.192C47.092 4.632 47.348 5.316 47.348 6.244V10H45.932ZM43.916 10.084C43.436 10.084 43.016 10.004 42.656 9.844C42.296 9.676 42.016 9.448 41.816 9.16C41.624 8.864 41.528 8.532 41.528 8.164C41.528 7.804 41.612 7.48 41.78 7.192C41.956 6.904 42.24 6.676 42.632 6.508C43.024 6.34 43.544 6.256 44.192 6.256H46.052V7.252H44.3C43.788 7.252 43.444 7.336 43.268 7.504C43.092 7.664 43.004 7.864 43.004 8.104C43.004 8.376 43.112 8.592 43.328 8.752C43.544 8.912 43.844 8.992 44.228 8.992C44.596 8.992 44.924 8.908 45.212 8.74C45.508 8.572 45.72 8.324 45.848 7.996L46.1 8.896C45.956 9.272 45.696 9.564 45.32 9.772C44.952 9.98 44.484 10.084 43.916 10.084ZM49.2731 10V3.592H50.7011V5.356L50.5331 4.84C50.7251 4.408 51.0251 4.08 51.4331 3.856C51.8491 3.632 52.3651 3.52 52.9811 3.52V4.948C52.9171 4.932 52.8571 4.924 52.8011 4.924C52.7451 4.916 52.6891 4.912 52.6331 4.912C52.0651 4.912 51.6131 5.08 51.2771 5.416C50.9411 5.744 50.7731 6.236 50.7731 6.892V10H49.2731ZM56.8999 10.084C56.1959 10.084 55.6519 9.904 55.2679 9.544C54.8839 9.176 54.6919 8.636 54.6919 7.924V2.176H56.1919V7.888C56.1919 8.192 56.2679 8.428 56.4199 8.596C56.5799 8.764 56.7999 8.848 57.0799 8.848C57.4159 8.848 57.6959 8.76 57.9199 8.584L58.3399 9.652C58.1639 9.796 57.9479 9.904 57.6919 9.976C57.4359 10.048 57.1719 10.084 56.8999 10.084ZM53.6359 4.84V3.64H57.9079V4.84H53.6359ZM70.9783 3.52C71.4903 3.52 71.9423 3.62 72.3343 3.82C72.7343 4.02 73.0463 4.328 73.2703 4.744C73.4943 5.152 73.6063 5.68 73.6063 6.328V10H72.1063V6.52C72.1063 5.952 71.9823 5.528 71.7343 5.248C71.4863 4.968 71.1303 4.828 70.6663 4.828C70.3383 4.828 70.0463 4.9 69.7903 5.044C69.5423 5.188 69.3463 5.4 69.2023 5.68C69.0663 5.96 68.9983 6.316 68.9983 6.748V10H67.4983V6.52C67.4983 5.952 67.3743 5.528 67.1263 5.248C66.8783 4.968 66.5223 4.828 66.0583 4.828C65.7303 4.828 65.4383 4.9 65.1823 5.044C64.9343 5.188 64.7383 5.4 64.5943 5.68C64.4583 5.96 64.3903 6.316 64.3903 6.748V10H62.8903V3.592H64.3183V5.296L64.0663 4.792C64.2823 4.376 64.5943 4.06 65.0023 3.844C65.4183 3.628 65.8903 3.52 66.4183 3.52C67.0183 3.52 67.5383 3.668 67.9783 3.964C68.4263 4.26 68.7223 4.708 68.8663 5.308L68.2783 5.104C68.4863 4.624 68.8303 4.24 69.3103 3.952C69.7903 3.664 70.3463 3.52 70.9783 3.52ZM75.5231 10V3.592H77.0231V10H75.5231ZM76.2791 2.536C75.9991 2.536 75.7671 2.448 75.5831 2.272C75.4071 2.096 75.3191 1.884 75.3191 1.636C75.3191 1.38 75.4071 1.168 75.5831 0.999999C75.7671 0.824 75.9991 0.736 76.2791 0.736C76.5591 0.736 76.7871 0.82 76.9631 0.987999C77.1471 1.148 77.2391 1.352 77.2391 1.6C77.2391 1.864 77.1511 2.088 76.9751 2.272C76.7991 2.448 76.5671 2.536 76.2791 2.536ZM78.9918 10V3.592H80.4198V5.356L80.2518 4.84C80.4438 4.408 80.7438 4.08 81.1518 3.856C81.5678 3.632 82.0838 3.52 82.6998 3.52V4.948C82.6358 4.932 82.5758 4.924 82.5198 4.924C82.4638 4.916 82.4078 4.912 82.3518 4.912C81.7838 4.912 81.3318 5.08 80.9958 5.416C80.6598 5.744 80.4918 6.236 80.4918 6.892V10H78.9918ZM83.9723 10V3.592H85.4003V5.356L85.2323 4.84C85.4243 4.408 85.7243 4.08 86.1323 3.856C86.5483 3.632 87.0643 3.52 87.6803 3.52V4.948C87.6163 4.932 87.5563 4.924 87.5003 4.924C87.4443 4.916 87.3883 4.912 87.3323 4.912C86.7643 4.912 86.3123 5.08 85.9763 5.416C85.6403 5.744 85.4723 6.236 85.4723 6.892V10H83.9723ZM91.7742 10.084C91.1182 10.084 90.5342 9.944 90.0222 9.664C89.5102 9.376 89.1062 8.984 88.8102 8.488C88.5142 7.992 88.3662 7.428 88.3662 6.796C88.3662 6.156 88.5142 5.592 88.8102 5.104C89.1062 4.608 89.5102 4.22 90.0222 3.94C90.5342 3.66 91.1182 3.52 91.7742 3.52C92.4382 3.52 93.0262 3.66 93.5382 3.94C94.0582 4.22 94.4622 4.604 94.7502 5.092C95.0462 5.58 95.1942 6.148 95.1942 6.796C95.1942 7.428 95.0462 7.992 94.7502 8.488C94.4622 8.984 94.0582 9.376 93.5382 9.664C93.0262 9.944 92.4382 10.084 91.7742 10.084ZM91.7742 8.8C92.1422 8.8 92.4702 8.72 92.7582 8.56C93.0462 8.4 93.2702 8.168 93.4302 7.864C93.5982 7.56 93.6822 7.204 93.6822 6.796C93.6822 6.38 93.5982 6.024 93.4302 5.728C93.2702 5.424 93.0462 5.192 92.7582 5.032C92.4702 4.872 92.1462 4.792 91.7862 4.792C91.4182 4.792 91.0902 4.872 90.8022 5.032C90.5222 5.192 90.2982 5.424 90.1302 5.728C89.9622 6.024 89.8782 6.38 89.8782 6.796C89.8782 7.204 89.9622 7.56 90.1302 7.864C90.2982 8.168 90.5222 8.4 90.8022 8.56C91.0902 8.72 91.4142 8.8 91.7742 8.8ZM96.6285 10V3.592H98.0565V5.356L97.8885 4.84C98.0805 4.408 98.3805 4.08 98.7885 3.856C99.2045 3.632 99.7205 3.52 100.337 3.52V4.948C100.273 4.932 100.213 4.924 100.157 4.924C100.101 4.916 100.045 4.912 99.9885 4.912C99.4205 4.912 98.9685 5.08 98.6325 5.416C98.2965 5.744 98.1285 6.236 98.1285 6.892V10H96.6285ZM1.55909 25V18.232C1.55909 17.56 1.75509 17.024 2.14709 16.624C2.54709 16.216 3.11509 16.012 3.85109 16.012C4.11509 16.012 4.36309 16.04 4.59509 16.096C4.83509 16.152 5.03509 16.24 5.19509 16.36L4.78709 17.488C4.67509 17.4 4.54709 17.336 4.40309 17.296C4.25909 17.248 4.11109 17.224 3.95909 17.224C3.64709 17.224 3.41109 17.312 3.25109 17.488C3.09109 17.656 3.01109 17.912 3.01109 18.256V18.976L3.05909 19.648V25H1.55909ZM0.503094 19.84V18.64H4.77509V19.84H0.503094ZM8.57103 25.084C7.91503 25.084 7.33103 24.944 6.81903 24.664C6.30703 24.376 5.90303 23.984 5.60703 23.488C5.31103 22.992 5.16303 22.428 5.16303 21.796C5.16303 21.156 5.31103 20.592 5.60703 20.104C5.90303 19.608 6.30703 19.22 6.81903 18.94C7.33103 18.66 7.91503 18.52 8.57103 18.52C9.23503 18.52 9.82303 18.66 10.335 18.94C10.855 19.22 11.259 19.604 11.547 20.092C11.843 20.58 11.991 21.148 11.991 21.796C11.991 22.428 11.843 22.992 11.547 23.488C11.259 23.984 10.855 24.376 10.335 24.664C9.82303 24.944 9.23503 25.084 8.57103 25.084ZM8.57103 23.8C8.93903 23.8 9.26703 23.72 9.55503 23.56C9.84303 23.4 10.067 23.168 10.227 22.864C10.395 22.56 10.479 22.204 10.479 21.796C10.479 21.38 10.395 21.024 10.227 20.728C10.067 20.424 9.84303 20.192 9.55503 20.032C9.26703 19.872 8.94303 19.792 8.58303 19.792C8.21503 19.792 7.88703 19.872 7.59903 20.032C7.31903 20.192 7.09503 20.424 6.92703 20.728C6.75903 21.024 6.67503 21.38 6.67503 21.796C6.67503 22.204 6.75903 22.56 6.92703 22.864C7.09503 23.168 7.31903 23.4 7.59903 23.56C7.88703 23.72 8.21103 23.8 8.57103 23.8ZM13.4254 25V18.592H14.8534V20.356L14.6854 19.84C14.8774 19.408 15.1774 19.08 15.5854 18.856C16.0014 18.632 16.5174 18.52 17.1334 18.52V19.948C17.0694 19.932 17.0094 19.924 16.9534 19.924C16.8974 19.916 16.8414 19.912 16.7854 19.912C16.2174 19.912 15.7654 20.08 15.4294 20.416C15.0934 20.744 14.9254 21.236 14.9254 21.892V25H13.4254ZM21.9249 25V16.6H25.8609C26.8689 16.6 27.6369 16.8 28.1649 17.2C28.6929 17.592 28.9569 18.12 28.9569 18.784C28.9569 19.232 28.8529 19.616 28.6449 19.936C28.4369 20.248 28.1569 20.492 27.8049 20.668C27.4609 20.836 27.0849 20.92 26.6769 20.92L26.8929 20.488C27.3649 20.488 27.7889 20.576 28.1649 20.752C28.5409 20.92 28.8369 21.168 29.0529 21.496C29.2769 21.824 29.3889 22.232 29.3889 22.72C29.3889 23.44 29.1129 24 28.5609 24.4C28.0089 24.8 27.1889 25 26.1009 25H21.9249ZM23.4849 23.776H26.0049C26.5889 23.776 27.0369 23.68 27.3489 23.488C27.6609 23.296 27.8169 22.988 27.8169 22.564C27.8169 22.148 27.6609 21.844 27.3489 21.652C27.0369 21.452 26.5889 21.352 26.0049 21.352H23.3649V20.14H25.6929C26.2369 20.14 26.6529 20.044 26.9409 19.852C27.2369 19.66 27.3849 19.372 27.3849 18.988C27.3849 18.596 27.2369 18.304 26.9409 18.112C26.6529 17.92 26.2369 17.824 25.6929 17.824H23.4849V23.776ZM31.0538 25V16.6H34.7258C35.6378 16.6 36.4378 16.776 37.1258 17.128C37.8138 17.48 38.3498 17.968 38.7338 18.592C39.1178 19.216 39.3098 19.952 39.3098 20.8C39.3098 21.64 39.1178 22.376 38.7338 23.008C38.3498 23.632 37.8138 24.12 37.1258 24.472C36.4378 24.824 35.6378 25 34.7258 25H31.0538ZM32.6138 23.68H34.6538C35.2858 23.68 35.8298 23.56 36.2858 23.32C36.7498 23.08 37.1058 22.744 37.3538 22.312C37.6098 21.88 37.7378 21.376 37.7378 20.8C37.7378 20.216 37.6098 19.712 37.3538 19.288C37.1058 18.856 36.7498 18.52 36.2858 18.28C35.8298 18.04 35.2858 17.92 34.6538 17.92H32.6138V23.68ZM40.9678 25V16.6H44.6398C45.5518 16.6 46.3518 16.776 47.0398 17.128C47.7278 17.48 48.2638 17.968 48.6478 18.592C49.0318 19.216 49.2238 19.952 49.2238 20.8C49.2238 21.64 49.0318 22.376 48.6478 23.008C48.2638 23.632 47.7278 24.12 47.0398 24.472C46.3518 24.824 45.5518 25 44.6398 25H40.9678ZM42.5278 23.68H44.5678C45.1998 23.68 45.7438 23.56 46.1998 23.32C46.6638 23.08 47.0198 22.744 47.2678 22.312C47.5238 21.88 47.6518 21.376 47.6518 20.8C47.6518 20.216 47.5238 19.712 47.2678 19.288C47.0198 18.856 46.6638 18.52 46.1998 18.28C45.7438 18.04 45.1998 17.92 44.5678 17.92H42.5278V23.68ZM57.6063 25.084C57.0863 25.084 56.6103 24.964 56.1783 24.724C55.7543 24.484 55.4143 24.124 55.1583 23.644C54.9103 23.156 54.7863 22.54 54.7863 21.796C54.7863 21.044 54.9063 20.428 55.1463 19.948C55.3943 19.468 55.7303 19.112 56.1543 18.88C56.5783 18.64 57.0623 18.52 57.6063 18.52C58.2383 18.52 58.7943 18.656 59.2743 18.928C59.7623 19.2 60.1463 19.58 60.4263 20.068C60.7143 20.556 60.8583 21.132 60.8583 21.796C60.8583 22.46 60.7143 23.04 60.4263 23.536C60.1463 24.024 59.7623 24.404 59.2743 24.676C58.7943 24.948 58.2383 25.084 57.6063 25.084ZM54.0543 27.328V18.592H55.4823V20.104L55.4343 21.808L55.5543 23.512V27.328H54.0543ZM57.4383 23.8C57.7983 23.8 58.1183 23.72 58.3983 23.56C58.6863 23.4 58.9143 23.168 59.0823 22.864C59.2503 22.56 59.3343 22.204 59.3343 21.796C59.3343 21.38 59.2503 21.024 59.0823 20.728C58.9143 20.424 58.6863 20.192 58.3983 20.032C58.1183 19.872 57.7983 19.792 57.4383 19.792C57.0783 19.792 56.7543 19.872 56.4663 20.032C56.1783 20.192 55.9503 20.424 55.7823 20.728C55.6143 21.024 55.5303 21.38 55.5303 21.796C55.5303 22.204 55.6143 22.56 55.7823 22.864C55.9503 23.168 56.1783 23.4 56.4663 23.56C56.7543 23.72 57.0783 23.8 57.4383 23.8ZM66.1468 25V23.704L66.0628 23.428V21.16C66.0628 20.72 65.9308 20.38 65.6668 20.14C65.4028 19.892 65.0028 19.768 64.4668 19.768C64.1068 19.768 63.7508 19.824 63.3988 19.936C63.0548 20.048 62.7628 20.204 62.5228 20.404L61.9348 19.312C62.2788 19.048 62.6868 18.852 63.1588 18.724C63.6388 18.588 64.1348 18.52 64.6468 18.52C65.5748 18.52 66.2908 18.744 66.7948 19.192C67.3068 19.632 67.5628 20.316 67.5628 21.244V25H66.1468ZM64.1308 25.084C63.6508 25.084 63.2308 25.004 62.8708 24.844C62.5108 24.676 62.2308 24.448 62.0308 24.16C61.8388 23.864 61.7428 23.532 61.7428 23.164C61.7428 22.804 61.8268 22.48 61.9948 22.192C62.1708 21.904 62.4548 21.676 62.8468 21.508C63.2388 21.34 63.7588 21.256 64.4068 21.256H66.2668V22.252H64.5148C64.0028 22.252 63.6588 22.336 63.4828 22.504C63.3068 22.664 63.2188 22.864 63.2188 23.104C63.2188 23.376 63.3268 23.592 63.5428 23.752C63.7588 23.912 64.0588 23.992 64.4428 23.992C64.8108 23.992 65.1388 23.908 65.4268 23.74C65.7228 23.572 65.9348 23.324 66.0628 22.996L66.3148 23.896C66.1708 24.272 65.9108 24.564 65.5348 24.772C65.1668 24.98 64.6988 25.084 64.1308 25.084ZM71.8999 25.084C71.1959 25.084 70.6519 24.904 70.2679 24.544C69.8839 24.176 69.6919 23.636 69.6919 22.924V17.176H71.1919V22.888C71.1919 23.192 71.2679 23.428 71.4199 23.596C71.5799 23.764 71.7999 23.848 72.0799 23.848C72.4159 23.848 72.6959 23.76 72.9199 23.584L73.3399 24.652C73.1639 24.796 72.9479 24.904 72.6919 24.976C72.4359 25.048 72.1719 25.084 71.8999 25.084ZM68.6359 19.84V18.64H72.9079V19.84H68.6359ZM74.5738 25V18.592H76.0738V25H74.5738ZM75.3298 17.536C75.0498 17.536 74.8178 17.448 74.6338 17.272C74.4578 17.096 74.3698 16.884 74.3698 16.636C74.3698 16.38 74.4578 16.168 74.6338 16C74.8178 15.824 75.0498 15.736 75.3298 15.736C75.6098 15.736 75.8378 15.82 76.0138 15.988C76.1978 16.148 76.2898 16.352 76.2898 16.6C76.2898 16.864 76.2018 17.088 76.0258 17.272C75.8498 17.448 75.6178 17.536 75.3298 17.536ZM81.0546 25.084C80.3426 25.084 79.7186 24.944 79.1826 24.664C78.6546 24.376 78.2426 23.984 77.9466 23.488C77.6586 22.992 77.5146 22.428 77.5146 21.796C77.5146 21.156 77.6546 20.592 77.9346 20.104C78.2226 19.608 78.6146 19.22 79.1106 18.94C79.6146 18.66 80.1866 18.52 80.8266 18.52C81.4506 18.52 82.0066 18.656 82.4946 18.928C82.9826 19.2 83.3666 19.584 83.6466 20.08C83.9266 20.576 84.0666 21.16 84.0666 21.832C84.0666 21.896 84.0626 21.968 84.0546 22.048C84.0546 22.128 84.0506 22.204 84.0426 22.276H78.7026V21.28H83.2506L82.6626 21.592C82.6706 21.224 82.5946 20.9 82.4346 20.62C82.2746 20.34 82.0546 20.12 81.7746 19.96C81.5026 19.8 81.1866 19.72 80.8266 19.72C80.4586 19.72 80.1346 19.8 79.8546 19.96C79.5826 20.12 79.3666 20.344 79.2066 20.632C79.0546 20.912 78.9786 21.244 78.9786 21.628V21.868C78.9786 22.252 79.0666 22.592 79.2426 22.888C79.4186 23.184 79.6666 23.412 79.9866 23.572C80.3066 23.732 80.6746 23.812 81.0906 23.812C81.4506 23.812 81.7746 23.756 82.0626 23.644C82.3506 23.532 82.6066 23.356 82.8306 23.116L83.6346 24.04C83.3466 24.376 82.9826 24.636 82.5426 24.82C82.1106 24.996 81.6146 25.084 81.0546 25.084ZM89.1434 18.52C89.6554 18.52 90.1114 18.62 90.5114 18.82C90.9194 19.02 91.2394 19.328 91.4714 19.744C91.7034 20.152 91.8194 20.68 91.8194 21.328V25H90.3194V21.52C90.3194 20.952 90.1834 20.528 89.9114 20.248C89.6474 19.968 89.2754 19.828 88.7954 19.828C88.4434 19.828 88.1314 19.9 87.8594 20.044C87.5874 20.188 87.3754 20.404 87.2234 20.692C87.0794 20.972 87.0074 21.328 87.0074 21.76V25H85.5074V18.592H86.9354V20.32L86.6834 19.792C86.9074 19.384 87.2314 19.072 87.6554 18.856C88.0874 18.632 88.5834 18.52 89.1434 18.52ZM96.1343 25.084C95.4303 25.084 94.8863 24.904 94.5023 24.544C94.1183 24.176 93.9263 23.636 93.9263 22.924V17.176H95.4263V22.888C95.4263 23.192 95.5023 23.428 95.6543 23.596C95.8143 23.764 96.0343 23.848 96.3143 23.848C96.6503 23.848 96.9303 23.76 97.1543 23.584L97.5743 24.652C97.3983 24.796 97.1823 24.904 96.9263 24.976C96.6703 25.048 96.4063 25.084 96.1343 25.084ZM92.8703 19.84V18.64H97.1423V19.84H92.8703ZM100.788 25.084C100.252 25.084 99.7362 25.016 99.2402 24.88C98.7522 24.736 98.3642 24.564 98.0762 24.364L98.6522 23.224C98.9402 23.408 99.2842 23.56 99.6842 23.68C100.084 23.8 100.484 23.86 100.884 23.86C101.356 23.86 101.696 23.796 101.904 23.668C102.12 23.54 102.228 23.368 102.228 23.152C102.228 22.976 102.156 22.844 102.012 22.756C101.868 22.66 101.68 22.588 101.448 22.54C101.216 22.492 100.956 22.448 100.668 22.408C100.388 22.368 100.104 22.316 99.8162 22.252C99.5362 22.18 99.2802 22.08 99.0482 21.952C98.8162 21.816 98.6282 21.636 98.4842 21.412C98.3402 21.188 98.2682 20.892 98.2682 20.524C98.2682 20.116 98.3842 19.764 98.6162 19.468C98.8482 19.164 99.1722 18.932 99.5882 18.772C100.012 18.604 100.512 18.52 101.088 18.52C101.52 18.52 101.956 18.568 102.396 18.664C102.836 18.76 103.2 18.896 103.488 19.072L102.912 20.212C102.608 20.028 102.3 19.904 101.988 19.84C101.684 19.768 101.38 19.732 101.076 19.732C100.62 19.732 100.28 19.8 100.056 19.936C99.8402 20.072 99.7322 20.244 99.7322 20.452C99.7322 20.644 99.8042 20.788 99.9482 20.884C100.092 20.98 100.28 21.056 100.512 21.112C100.744 21.168 101 21.216 101.28 21.256C101.568 21.288 101.852 21.34 102.132 21.412C102.412 21.484 102.668 21.584 102.9 21.712C103.14 21.832 103.332 22.004 103.476 22.228C103.62 22.452 103.692 22.744 103.692 23.104C103.692 23.504 103.572 23.852 103.332 24.148C103.1 24.444 102.768 24.676 102.336 24.844C101.904 25.004 101.388 25.084 100.788 25.084Z" fill="#1C2122"/>
</svg>
