<svg width="124" height="21" viewBox="0 0 124 21" fill="none" xmlns="http://www.w3.org/2000/svg">
<path d="M0.00081259 20V3.2H8.28081C10.1528 3.2 11.8008 3.544 13.2248 4.232C14.6488 4.904 15.7608 5.864 16.5608 7.112C17.3608 8.36 17.7608 9.848 17.7608 11.576C17.7608 13.32 17.3608 14.824 16.5608 16.088C15.7608 17.336 14.6488 18.304 13.2248 18.992C11.8008 19.664 10.1528 20 8.28081 20H0.00081259ZM5.66481 15.584H8.04081C8.84081 15.584 9.53681 15.432 10.1288 15.128C10.7368 14.824 11.2088 14.376 11.5448 13.784C11.8808 13.176 12.0488 12.44 12.0488 11.576C12.0488 10.728 11.8808 10.008 11.5448 9.416C11.2088 8.824 10.7368 8.376 10.1288 8.072C9.53681 7.768 8.84081 7.616 8.04081 7.616H5.66481V15.584ZM19.6609 20V6.872H24.8209V10.832L23.9809 9.704C24.3809 8.68 25.0209 7.912 25.9009 7.4C26.7809 6.888 27.8369 6.632 29.0689 6.632V11.432C28.8289 11.4 28.6129 11.376 28.4209 11.36C28.2449 11.344 28.0609 11.336 27.8689 11.336C27.0529 11.336 26.3809 11.552 25.8529 11.984C25.3409 12.4 25.0849 13.128 25.0849 14.168V20H19.6609ZM32.8199 20.24C31.9239 20.24 31.1719 19.952 30.5639 19.376C29.9559 18.784 29.6519 18.032 29.6519 17.12C29.6519 16.192 29.9559 15.448 30.5639 14.888C31.1719 14.328 31.9239 14.048 32.8199 14.048C33.7159 14.048 34.4679 14.328 35.0759 14.888C35.6839 15.448 35.9879 16.192 35.9879 17.12C35.9879 18.032 35.6839 18.784 35.0759 19.376C34.4679 19.952 33.7159 20.24 32.8199 20.24ZM45.0243 20V3.2H49.6803L56.4003 14.168H53.9523L60.4803 3.2H65.1363L65.1843 20H60.0243L59.9763 10.976H60.7923L56.3282 18.488H53.8323L49.1763 10.976H50.1843V20H45.0243ZM67.7547 20V6.872H73.1787V20H67.7547ZM70.4667 5.816C69.4747 5.816 68.6827 5.552 68.0907 5.024C67.4987 4.496 67.2027 3.84 67.2027 3.056C67.2027 2.272 67.4987 1.616 68.0907 1.088C68.6827 0.559999 69.4747 0.295999 70.4667 0.295999C71.4587 0.295999 72.2507 0.543999 72.8427 1.04C73.4347 1.536 73.7307 2.176 73.7307 2.96C73.7307 3.792 73.4347 4.48 72.8427 5.024C72.2507 5.552 71.4587 5.816 70.4667 5.816ZM75.5828 20V6.872H80.7428V10.832L79.9028 9.704C80.3028 8.68 80.9428 7.912 81.8228 7.4C82.7028 6.888 83.7588 6.632 84.9908 6.632V11.432C84.7508 11.4 84.5348 11.376 84.3428 11.36C84.1668 11.344 83.9828 11.336 83.7908 11.336C82.9748 11.336 82.3028 11.552 81.7748 11.984C81.2628 12.4 81.0068 13.128 81.0068 14.168V20H75.5828ZM86.5281 20V6.872H91.6881V10.832L90.8481 9.704C91.2481 8.68 91.8881 7.912 92.7681 7.4C93.6481 6.888 94.7041 6.632 95.9361 6.632V11.432C95.6961 11.4 95.4801 11.376 95.2881 11.36C95.1121 11.344 94.9281 11.336 94.7361 11.336C93.9201 11.336 93.2481 11.552 92.7201 11.984C92.2081 12.4 91.9521 13.128 91.9521 14.168V20H86.5281ZM104.292 20.24C102.804 20.24 101.484 19.952 100.332 19.376C99.1963 18.784 98.3003 17.976 97.6443 16.952C96.9883 15.928 96.6603 14.752 96.6603 13.424C96.6603 12.096 96.9883 10.92 97.6443 9.896C98.3003 8.872 99.1963 8.072 100.332 7.496C101.484 6.92 102.804 6.632 104.292 6.632C105.78 6.632 107.1 6.92 108.252 7.496C109.404 8.072 110.3 8.872 110.94 9.896C111.596 10.92 111.924 12.096 111.924 13.424C111.924 14.752 111.596 15.928 110.94 16.952C110.3 17.976 109.404 18.784 108.252 19.376C107.1 19.952 105.78 20.24 104.292 20.24ZM104.292 16.016C104.692 16.016 105.052 15.92 105.372 15.728C105.692 15.536 105.948 15.248 106.14 14.864C106.332 14.464 106.428 13.984 106.428 13.424C106.428 12.848 106.332 12.376 106.14 12.008C105.948 11.624 105.692 11.336 105.372 11.144C105.052 10.952 104.692 10.856 104.292 10.856C103.892 10.856 103.532 10.952 103.212 11.144C102.892 11.336 102.636 11.624 102.444 12.008C102.252 12.376 102.156 12.848 102.156 13.424C102.156 13.984 102.252 14.464 102.444 14.864C102.636 15.248 102.892 15.536 103.212 15.728C103.532 15.92 103.892 16.016 104.292 16.016ZM113.622 20V6.872H118.782V10.832L117.942 9.704C118.342 8.68 118.982 7.912 119.862 7.4C120.742 6.888 121.798 6.632 123.03 6.632V11.432C122.79 11.4 122.574 11.376 122.382 11.36C122.206 11.344 122.022 11.336 121.83 11.336C121.014 11.336 120.342 11.552 119.814 11.984C119.302 12.4 119.046 13.128 119.046 14.168V20H113.622Z" fill="#1C2122"/>
</svg>
