<svg width="223" height="56" viewBox="0 0 223 56" fill="none" xmlns="http://www.w3.org/2000/svg">
<path d="M5.852 21V6.524H0.112V1.4H18.2V6.524H12.46V21H5.852ZM30.3603 5.404C31.5363 5.404 32.6003 5.64667 33.5523 6.132C34.5043 6.59867 35.251 7.336 35.7923 8.344C36.3523 9.352 36.6323 10.6587 36.6323 12.264V21H30.3043V13.356C30.3043 12.404 30.1363 11.732 29.8003 11.34C29.4643 10.9293 29.007 10.724 28.4283 10.724C27.999 10.724 27.5976 10.8267 27.2243 11.032C26.8696 11.2187 26.5803 11.536 26.3563 11.984C26.151 12.432 26.0483 13.0387 26.0483 13.804V21H19.7203V0.223999H26.0483V10.164L24.5363 8.876C25.1336 7.71867 25.9363 6.85067 26.9443 6.272C27.971 5.69333 29.1096 5.404 30.3603 5.404ZM48.1099 21.28C46.2432 21.28 44.6099 20.9347 43.2099 20.244C41.8286 19.5533 40.7552 18.6107 39.9899 17.416C39.2246 16.2027 38.8419 14.84 38.8419 13.328C38.8419 11.7787 39.2152 10.4067 39.9619 9.212C40.7272 8.01733 41.7632 7.084 43.0699 6.412C44.3952 5.74 45.8792 5.404 47.5219 5.404C49.0339 5.404 50.4246 5.70267 51.6939 6.3C52.9819 6.89733 54.0086 7.784 54.7739 8.96C55.5579 10.136 55.9499 11.592 55.9499 13.328C55.9499 13.552 55.9406 13.804 55.9219 14.084C55.9032 14.3453 55.8846 14.588 55.8659 14.812H44.0779V11.76H52.5059L50.1259 12.572C50.1259 11.9747 50.0139 11.4707 49.7899 11.06C49.5846 10.6307 49.2952 10.304 48.9219 10.08C48.5486 9.83733 48.1006 9.716 47.5779 9.716C47.0552 9.716 46.5979 9.83733 46.2059 10.08C45.8326 10.304 45.5432 10.6307 45.3379 11.06C45.1326 11.4707 45.0299 11.9747 45.0299 12.572V13.524C45.0299 14.1773 45.1606 14.7373 45.4219 15.204C45.6832 15.6707 46.0566 16.0253 46.5419 16.268C47.0272 16.492 47.6152 16.604 48.3059 16.604C49.0152 16.604 49.5939 16.5107 50.0419 16.324C50.5086 16.1373 50.9939 15.8573 51.4979 15.484L54.8019 18.816C54.0552 19.6187 53.1312 20.2347 52.0299 20.664C50.9472 21.0747 49.6406 21.28 48.1099 21.28ZM74.4334 21.28C72.6974 21.28 71.1574 20.944 69.8134 20.272C68.4881 19.5813 67.4427 18.6387 66.6774 17.444C65.9121 16.2493 65.5294 14.8773 65.5294 13.328C65.5294 11.7787 65.9121 10.4067 66.6774 9.212C67.4427 8.01733 68.4881 7.084 69.8134 6.412C71.1574 5.74 72.6974 5.404 74.4334 5.404C76.1694 5.404 77.7094 5.74 79.0534 6.412C80.3974 7.084 81.4427 8.01733 82.1894 9.212C82.9547 10.4067 83.3374 11.7787 83.3374 13.328C83.3374 14.8773 82.9547 16.2493 82.1894 17.444C81.4427 18.6387 80.3974 19.5813 79.0534 20.272C77.7094 20.944 76.1694 21.28 74.4334 21.28ZM74.4334 16.352C74.9001 16.352 75.3201 16.24 75.6934 16.016C76.0667 15.792 76.3654 15.456 76.5894 15.008C76.8134 14.5413 76.9254 13.9813 76.9254 13.328C76.9254 12.656 76.8134 12.1053 76.5894 11.676C76.3654 11.228 76.0667 10.892 75.6934 10.668C75.3201 10.444 74.9001 10.332 74.4334 10.332C73.9667 10.332 73.5467 10.444 73.1734 10.668C72.8001 10.892 72.5014 11.228 72.2774 11.676C72.0534 12.1053 71.9414 12.656 71.9414 13.328C71.9414 13.9813 72.0534 14.5413 72.2774 15.008C72.5014 15.456 72.8001 15.792 73.1734 16.016C73.5467 16.24 73.9667 16.352 74.4334 16.352ZM92.71 21.28C90.6006 21.28 88.958 20.776 87.782 19.768C86.606 18.7413 86.018 17.1733 86.018 15.064V2.24H92.346V15.008C92.346 15.4747 92.4673 15.8387 92.71 16.1C92.9713 16.3613 93.2886 16.492 93.662 16.492C94.2033 16.492 94.6793 16.352 95.09 16.072L96.602 20.468C96.1166 20.748 95.5286 20.9533 94.838 21.084C94.166 21.2147 93.4566 21.28 92.71 21.28ZM83.918 11.144V6.524H95.482V11.144H83.918ZM108.837 5.404C110.013 5.404 111.077 5.64667 112.029 6.132C112.981 6.59867 113.728 7.336 114.269 8.344C114.829 9.352 115.109 10.6587 115.109 12.264V21H108.781V13.356C108.781 12.404 108.613 11.732 108.277 11.34C107.941 10.9293 107.484 10.724 106.905 10.724C106.476 10.724 106.074 10.8267 105.701 11.032C105.346 11.2187 105.057 11.536 104.833 11.984C104.628 12.432 104.525 13.0387 104.525 13.804V21H98.1969V0.223999H104.525V10.164L103.013 8.876C103.61 7.71867 104.413 6.85067 105.421 6.272C106.448 5.69333 107.586 5.404 108.837 5.404ZM126.586 21.28C124.72 21.28 123.086 20.9347 121.686 20.244C120.305 19.5533 119.232 18.6107 118.466 17.416C117.701 16.2027 117.318 14.84 117.318 13.328C117.318 11.7787 117.692 10.4067 118.438 9.212C119.204 8.01733 120.24 7.084 121.546 6.412C122.872 5.74 124.356 5.404 125.998 5.404C127.51 5.404 128.901 5.70267 130.17 6.3C131.458 6.89733 132.485 7.784 133.25 8.96C134.034 10.136 134.426 11.592 134.426 13.328C134.426 13.552 134.417 13.804 134.398 14.084C134.38 14.3453 134.361 14.588 134.342 14.812H122.554V11.76H130.982L128.602 12.572C128.602 11.9747 128.49 11.4707 128.266 11.06C128.061 10.6307 127.772 10.304 127.398 10.08C127.025 9.83733 126.577 9.716 126.054 9.716C125.532 9.716 125.074 9.83733 124.682 10.08C124.309 10.304 124.02 10.6307 123.814 11.06C123.609 11.4707 123.506 11.9747 123.506 12.572V13.524C123.506 14.1773 123.637 14.7373 123.898 15.204C124.16 15.6707 124.533 16.0253 125.018 16.268C125.504 16.492 126.092 16.604 126.782 16.604C127.492 16.604 128.07 16.5107 128.518 16.324C128.985 16.1373 129.47 15.8573 129.974 15.484L133.278 18.816C132.532 19.6187 131.608 20.2347 130.506 20.664C129.424 21.0747 128.117 21.28 126.586 21.28ZM136.423 21V5.684H142.443V10.304L141.463 8.988C141.93 7.79333 142.677 6.89733 143.703 6.3C144.73 5.70267 145.962 5.404 147.399 5.404V11.004C147.119 10.9667 146.867 10.9387 146.643 10.92C146.438 10.9013 146.223 10.892 145.999 10.892C145.047 10.892 144.263 11.144 143.647 11.648C143.05 12.1333 142.751 12.9827 142.751 14.196V21H136.423ZM7.392 55.28C6.08533 55.28 4.79733 55.14 3.528 54.86C2.25867 54.58 1.232 54.216 0.448 53.768L2.184 49.596C2.912 50.0253 3.752 50.3613 4.704 50.604C5.67467 50.8467 6.61733 50.968 7.532 50.968C8.29733 50.968 8.81067 50.9027 9.072 50.772C9.352 50.6413 9.492 50.464 9.492 50.24C9.492 50.016 9.33333 49.8573 9.016 49.764C8.69867 49.652 8.27867 49.568 7.756 49.512C7.23333 49.456 6.65467 49.3907 6.02 49.316C5.404 49.2227 4.77867 49.092 4.144 48.924C3.50933 48.756 2.93067 48.504 2.408 48.168C1.88533 47.832 1.46533 47.384 1.148 46.824C0.830667 46.2453 0.672 45.5173 0.672 44.64C0.672 43.6693 0.961333 42.792 1.54 42.008C2.13733 41.224 3.01467 40.5987 4.172 40.132C5.348 39.6467 6.79467 39.404 8.512 39.404C9.632 39.404 10.752 39.5067 11.872 39.712C12.992 39.9173 13.9533 40.2347 14.756 40.664L13.02 44.836C12.236 44.4067 11.4613 44.1173 10.696 43.968C9.94933 43.8 9.24933 43.716 8.596 43.716C7.79333 43.716 7.24267 43.7907 6.944 43.94C6.664 44.0893 6.524 44.2573 6.524 44.444C6.524 44.668 6.68267 44.836 7 44.948C7.31733 45.06 7.73733 45.144 8.26 45.2C8.78267 45.256 9.352 45.3307 9.968 45.424C10.6027 45.4987 11.228 45.6293 11.844 45.816C12.4787 45.984 13.0573 46.236 13.58 46.572C14.1027 46.908 14.5227 47.3653 14.84 47.944C15.1573 48.504 15.316 49.2227 15.316 50.1C15.316 51.0147 15.0267 51.8733 14.448 52.676C13.8693 53.46 12.992 54.0947 11.816 54.58C10.64 55.0467 9.16533 55.28 7.392 55.28ZM17.232 55V39.684H23.56V55H17.232ZM20.396 38.452C19.2387 38.452 18.3147 38.144 17.624 37.528C16.9334 36.912 16.588 36.1467 16.588 35.232C16.588 34.3173 16.9334 33.552 17.624 32.936C18.3147 32.32 19.2387 32.012 20.396 32.012C21.5534 32.012 22.4774 32.3013 23.168 32.88C23.8587 33.4587 24.204 34.2053 24.204 35.12C24.204 36.0907 23.8587 36.8933 23.168 37.528C22.4774 38.144 21.5534 38.452 20.396 38.452ZM33.0848 55.28C31.7595 55.28 30.5275 54.9627 29.3888 54.328C28.2688 53.6747 27.3728 52.76 26.7008 51.584C26.0288 50.3893 25.6928 48.9707 25.6928 47.328C25.6928 45.6853 26.0288 44.276 26.7008 43.1C27.3728 41.9053 28.2688 40.9907 29.3888 40.356C30.5275 39.7213 31.7595 39.404 33.0848 39.404C34.4288 39.404 35.5302 39.6933 36.3888 40.272C37.2475 40.832 37.8822 41.7 38.2928 42.876C38.7035 44.0333 38.9088 45.5173 38.9088 47.328C38.9088 49.1573 38.7128 50.66 38.3208 51.836C37.9475 53.012 37.3315 53.88 36.4728 54.44C35.6328 55 34.5035 55.28 33.0848 55.28ZM34.5968 50.352C35.0635 50.352 35.4835 50.24 35.8568 50.016C36.2302 49.792 36.5288 49.456 36.7528 49.008C36.9768 48.5413 37.0888 47.9813 37.0888 47.328C37.0888 46.656 36.9768 46.1053 36.7528 45.676C36.5288 45.228 36.2302 44.892 35.8568 44.668C35.4835 44.444 35.0635 44.332 34.5968 44.332C34.1302 44.332 33.7102 44.444 33.3368 44.668C32.9635 44.892 32.6648 45.228 32.4408 45.676C32.2168 46.1053 32.1048 46.656 32.1048 47.328C32.1048 47.9813 32.2168 48.5413 32.4408 49.008C32.6648 49.456 32.9635 49.792 33.3368 50.016C33.7102 50.24 34.1302 50.352 34.5968 50.352ZM37.2848 55V52.928L37.2568 47.328L36.9768 41.728V34.224H43.3048V55H37.2848ZM54.563 55.28C52.6964 55.28 51.063 54.9347 49.663 54.244C48.2817 53.5533 47.2084 52.6107 46.443 51.416C45.6777 50.2027 45.295 48.84 45.295 47.328C45.295 45.7787 45.6684 44.4067 46.415 43.212C47.1804 42.0173 48.2164 41.084 49.523 40.412C50.8484 39.74 52.3324 39.404 53.975 39.404C55.487 39.404 56.8777 39.7027 58.147 40.3C59.435 40.8973 60.4617 41.784 61.227 42.96C62.011 44.136 62.403 45.592 62.403 47.328C62.403 47.552 62.3937 47.804 62.375 48.084C62.3564 48.3453 62.3377 48.588 62.319 48.812H50.531V45.76H58.959L56.579 46.572C56.579 45.9747 56.467 45.4707 56.243 45.06C56.0377 44.6307 55.7484 44.304 55.375 44.08C55.0017 43.8373 54.5537 43.716 54.031 43.716C53.5084 43.716 53.051 43.8373 52.659 44.08C52.2857 44.304 51.9964 44.6307 51.791 45.06C51.5857 45.4707 51.483 45.9747 51.483 46.572V47.524C51.483 48.1773 51.6137 48.7373 51.875 49.204C52.1364 49.6707 52.5097 50.0253 52.995 50.268C53.4804 50.492 54.0684 50.604 54.759 50.604C55.4684 50.604 56.047 50.5107 56.495 50.324C56.9617 50.1373 57.447 49.8573 57.951 49.484L61.255 52.816C60.5084 53.6187 59.5844 54.2347 58.483 54.664C57.4004 55.0747 56.0937 55.28 54.563 55.28ZM80.8865 55.28C79.1505 55.28 77.6105 54.944 76.2665 54.272C74.9412 53.5813 73.8959 52.6387 73.1305 51.444C72.3652 50.2493 71.9825 48.8773 71.9825 47.328C71.9825 45.7787 72.3652 44.4067 73.1305 43.212C73.8959 42.0173 74.9412 41.084 76.2665 40.412C77.6105 39.74 79.1505 39.404 80.8865 39.404C82.6225 39.404 84.1625 39.74 85.5065 40.412C86.8505 41.084 87.8959 42.0173 88.6425 43.212C89.4079 44.4067 89.7905 45.7787 89.7905 47.328C89.7905 48.8773 89.4079 50.2493 88.6425 51.444C87.8959 52.6387 86.8505 53.5813 85.5065 54.272C84.1625 54.944 82.6225 55.28 80.8865 55.28ZM80.8865 50.352C81.3532 50.352 81.7732 50.24 82.1465 50.016C82.5199 49.792 82.8185 49.456 83.0425 49.008C83.2665 48.5413 83.3785 47.9813 83.3785 47.328C83.3785 46.656 83.2665 46.1053 83.0425 45.676C82.8185 45.228 82.5199 44.892 82.1465 44.668C81.7732 44.444 81.3532 44.332 80.8865 44.332C80.4199 44.332 79.9999 44.444 79.6265 44.668C79.2532 44.892 78.9545 45.228 78.7305 45.676C78.5065 46.1053 78.3945 46.656 78.3945 47.328C78.3945 47.9813 78.5065 48.5413 78.7305 49.008C78.9545 49.456 79.2532 49.792 79.6265 50.016C79.9999 50.24 80.4199 50.352 80.8865 50.352ZM92.4711 55V40.44C92.4711 38.4613 93.0591 36.884 94.2351 35.708C95.4298 34.532 97.1191 33.944 99.3031 33.944C99.9751 33.944 100.647 34.0093 101.319 34.14C102.01 34.252 102.588 34.4387 103.055 34.7L101.543 39.096C101.338 39.0027 101.114 38.9187 100.871 38.844C100.628 38.7693 100.376 38.732 100.115 38.732C99.6671 38.732 99.3031 38.872 99.0231 39.152C98.7431 39.432 98.6031 39.88 98.6031 40.496V41.224L98.7991 43.828V55H92.4711ZM90.3711 45.144V40.524H101.935V45.144H90.3711ZM112.788 55V40.44C112.788 38.4613 113.376 36.884 114.552 35.708C115.746 34.532 117.436 33.944 119.62 33.944C120.292 33.944 120.964 34.0093 121.636 34.14C122.326 34.252 122.905 34.4387 123.372 34.7L121.86 39.096C121.654 39.0027 121.43 38.9187 121.188 38.844C120.945 38.7693 120.693 38.732 120.432 38.732C119.984 38.732 119.62 38.872 119.34 39.152C119.06 39.432 118.919 39.88 118.919 40.496V41.224L119.116 43.828V55H112.788ZM110.688 45.144V40.524H122.252V45.144H110.688ZM133.004 55V52.284L132.556 51.556V46.404C132.556 45.6573 132.323 45.088 131.856 44.696C131.408 44.304 130.671 44.108 129.644 44.108C128.953 44.108 128.253 44.22 127.544 44.444C126.835 44.6493 126.228 44.9387 125.724 45.312L123.708 41.14C124.604 40.58 125.677 40.1507 126.928 39.852C128.179 39.5533 129.401 39.404 130.596 39.404C133.228 39.404 135.263 39.992 136.7 41.168C138.156 42.344 138.884 44.2107 138.884 46.768V55H133.004ZM128.664 55.28C127.413 55.28 126.368 55.0653 125.528 54.636C124.688 54.2067 124.053 53.6373 123.624 52.928C123.195 52.2 122.98 51.3973 122.98 50.52C122.98 49.5307 123.232 48.6907 123.736 48C124.24 47.3093 125.005 46.7867 126.032 46.432C127.077 46.0773 128.393 45.9 129.98 45.9H133.172V48.952H130.988C130.316 48.952 129.821 49.064 129.504 49.288C129.205 49.4933 129.056 49.8107 129.056 50.24C129.056 50.5947 129.187 50.8933 129.448 51.136C129.728 51.36 130.101 51.472 130.568 51.472C130.997 51.472 131.389 51.36 131.744 51.136C132.117 50.8933 132.388 50.52 132.556 50.016L133.368 51.892C133.125 53.0307 132.612 53.88 131.828 54.44C131.044 55 129.989 55.28 128.664 55.28ZM147.611 55.28C146.304 55.28 145.016 55.14 143.747 54.86C142.477 54.58 141.451 54.216 140.667 53.768L142.403 49.596C143.131 50.0253 143.971 50.3613 144.923 50.604C145.893 50.8467 146.836 50.968 147.751 50.968C148.516 50.968 149.029 50.9027 149.291 50.772C149.571 50.6413 149.711 50.464 149.711 50.24C149.711 50.016 149.552 49.8573 149.235 49.764C148.917 49.652 148.497 49.568 147.975 49.512C147.452 49.456 146.873 49.3907 146.239 49.316C145.623 49.2227 144.997 49.092 144.363 48.924C143.728 48.756 143.149 48.504 142.627 48.168C142.104 47.832 141.684 47.384 141.367 46.824C141.049 46.2453 140.891 45.5173 140.891 44.64C140.891 43.6693 141.18 42.792 141.759 42.008C142.356 41.224 143.233 40.5987 144.391 40.132C145.567 39.6467 147.013 39.404 148.731 39.404C149.851 39.404 150.971 39.5067 152.091 39.712C153.211 39.9173 154.172 40.2347 154.975 40.664L153.239 44.836C152.455 44.4067 151.68 44.1173 150.915 43.968C150.168 43.8 149.468 43.716 148.815 43.716C148.012 43.716 147.461 43.7907 147.163 43.94C146.883 44.0893 146.743 44.2573 146.743 44.444C146.743 44.668 146.901 44.836 147.219 44.948C147.536 45.06 147.956 45.144 148.479 45.2C149.001 45.256 149.571 45.3307 150.187 45.424C150.821 45.4987 151.447 45.6293 152.063 45.816C152.697 45.984 153.276 46.236 153.799 46.572C154.321 46.908 154.741 47.3653 155.059 47.944C155.376 48.504 155.535 49.2227 155.535 50.1C155.535 51.0147 155.245 51.8733 154.667 52.676C154.088 53.46 153.211 54.0947 152.035 54.58C150.859 55.0467 149.384 55.28 147.611 55.28ZM168.091 39.404C169.267 39.404 170.331 39.6467 171.283 40.132C172.235 40.5987 172.981 41.336 173.523 42.344C174.083 43.352 174.363 44.6587 174.363 46.264V55H168.035V47.356C168.035 46.404 167.867 45.732 167.531 45.34C167.195 44.9293 166.737 44.724 166.159 44.724C165.729 44.724 165.328 44.8267 164.955 45.032C164.6 45.2187 164.311 45.536 164.087 45.984C163.881 46.432 163.779 47.0387 163.779 47.804V55H157.451V34.224H163.779V44.164L162.267 42.876C162.864 41.7187 163.667 40.8507 164.675 40.272C165.701 39.6933 166.84 39.404 168.091 39.404ZM177.111 55V39.684H183.439V55H177.111ZM180.275 38.452C179.118 38.452 178.194 38.144 177.503 37.528C176.812 36.912 176.467 36.1467 176.467 35.232C176.467 34.3173 176.812 33.552 177.503 32.936C178.194 32.32 179.118 32.012 180.275 32.012C181.432 32.012 182.356 32.3013 183.047 32.88C183.738 33.4587 184.083 34.2053 184.083 35.12C184.083 36.0907 183.738 36.8933 183.047 37.528C182.356 38.144 181.432 38.452 180.275 38.452ZM194.336 55.28C192.6 55.28 191.06 54.944 189.716 54.272C188.39 53.5813 187.345 52.6387 186.58 51.444C185.814 50.2493 185.432 48.8773 185.432 47.328C185.432 45.7787 185.814 44.4067 186.58 43.212C187.345 42.0173 188.39 41.084 189.716 40.412C191.06 39.74 192.6 39.404 194.336 39.404C196.072 39.404 197.612 39.74 198.956 40.412C200.3 41.084 201.345 42.0173 202.092 43.212C202.857 44.4067 203.24 45.7787 203.24 47.328C203.24 48.8773 202.857 50.2493 202.092 51.444C201.345 52.6387 200.3 53.5813 198.956 54.272C197.612 54.944 196.072 55.28 194.336 55.28ZM194.336 50.352C194.802 50.352 195.222 50.24 195.596 50.016C195.969 49.792 196.268 49.456 196.492 49.008C196.716 48.5413 196.828 47.9813 196.828 47.328C196.828 46.656 196.716 46.1053 196.492 45.676C196.268 45.228 195.969 44.892 195.596 44.668C195.222 44.444 194.802 44.332 194.336 44.332C193.869 44.332 193.449 44.444 193.076 44.668C192.702 44.892 192.404 45.228 192.18 45.676C191.956 46.1053 191.844 46.656 191.844 47.328C191.844 47.9813 191.956 48.5413 192.18 49.008C192.404 49.456 192.702 49.792 193.076 50.016C193.449 50.24 193.869 50.352 194.336 50.352ZM215.86 39.404C217.036 39.404 218.1 39.6467 219.052 40.132C220.004 40.5987 220.751 41.336 221.292 42.344C221.852 43.352 222.132 44.6587 222.132 46.264V55H215.804V47.356C215.804 46.404 215.636 45.732 215.3 45.34C214.964 44.9293 214.507 44.724 213.928 44.724C213.499 44.724 213.098 44.8267 212.724 45.032C212.37 45.2187 212.08 45.536 211.856 45.984C211.651 46.432 211.548 47.0387 211.548 47.804V55H205.22V39.684H211.24V44.164L210.036 42.876C210.634 41.7187 211.436 40.8507 212.444 40.272C213.471 39.6933 214.61 39.404 215.86 39.404Z" fill="black"/>
</svg>
