<svg width="261" height="39" viewBox="0 0 261 39" fill="none" xmlns="http://www.w3.org/2000/svg">
<path d="M0.704 12L4.64 1.696H6.592L10.496 12H8.704L7.68 9.344H3.536L2.512 12H0.704ZM3.808 8H7.392L5.6 3.28L3.808 8ZM18.9706 14.816C18.4053 14.816 17.84 14.7787 17.2746 14.704C16.7093 14.64 16.2293 14.5387 15.8346 14.4V13.056C16.2613 13.1947 16.752 13.3013 17.3066 13.376C17.8613 13.4507 18.3893 13.488 18.8906 13.488C19.6586 13.488 20.2186 13.4453 20.5706 13.36C20.9226 13.2747 21.0986 13.0827 21.0986 12.784C21.0986 12.56 21.0133 12.4 20.8426 12.304C20.672 12.2187 20.3466 12.176 19.8666 12.176H17.8186C16.4426 12.176 15.7546 11.6907 15.7546 10.72C15.7546 10.4107 15.8453 10.1227 16.0266 9.856C16.208 9.58933 16.496 9.38667 16.8906 9.248C16.4533 9.03467 16.128 8.74133 15.9146 8.368C15.712 7.99467 15.6106 7.54667 15.6106 7.024C15.6106 6.05333 15.8986 5.34933 16.4746 4.912C17.0613 4.47467 17.936 4.256 19.0986 4.256C19.344 4.256 19.6 4.27733 19.8666 4.32C20.1333 4.352 20.3413 4.384 20.4906 4.416H23.2746L23.2266 5.552H21.9466C22.1493 5.72267 22.2986 5.936 22.3946 6.192C22.4906 6.448 22.5386 6.72533 22.5386 7.024C22.5386 7.83467 22.2933 8.47467 21.8026 8.944C21.312 9.40267 20.5706 9.632 19.5786 9.632C19.408 9.632 19.248 9.62667 19.0986 9.616C18.96 9.59467 18.8053 9.57333 18.6346 9.552C18.3146 9.584 18.0266 9.66933 17.7706 9.808C17.5146 9.94667 17.3866 10.1333 17.3866 10.368C17.3866 10.528 17.4506 10.6453 17.5786 10.72C17.7066 10.784 17.92 10.816 18.2186 10.816H20.3466C21.104 10.816 21.6853 10.9813 22.0906 11.312C22.5066 11.632 22.7146 12.1013 22.7146 12.72C22.7146 13.4667 22.3893 14 21.7386 14.32C21.0986 14.6507 20.176 14.816 18.9706 14.816ZM19.0986 8.528C19.792 8.528 20.272 8.41067 20.5386 8.176C20.816 7.94133 20.9546 7.54133 20.9546 6.976C20.9546 6.41067 20.816 6 20.5386 5.744C20.272 5.488 19.792 5.36 19.0986 5.36C18.448 5.36 17.9733 5.48267 17.6746 5.728C17.376 5.97333 17.2266 6.38933 17.2266 6.976C17.2266 7.52 17.3653 7.91467 17.6426 8.16C17.9306 8.40533 18.416 8.528 19.0986 8.528ZM26.4854 12.16C26.0054 12.16 25.5574 12.0747 25.1414 11.904C24.736 11.7333 24.4107 11.4773 24.1654 11.136C23.92 10.784 23.7974 10.352 23.7974 9.84C23.7974 9.11467 24.0427 8.53333 24.5334 8.096C25.0347 7.648 25.8027 7.424 26.8374 7.424H29.2694V7.088C29.2694 6.72533 29.2107 6.43733 29.0934 6.224C28.9867 6.01067 28.784 5.856 28.4854 5.76C28.1974 5.664 27.7707 5.616 27.2054 5.616C26.3094 5.616 25.472 5.74933 24.6934 6.016V4.72C25.0347 4.58133 25.4507 4.46933 25.9414 4.384C26.432 4.29867 26.96 4.256 27.5254 4.256C28.6347 4.256 29.4774 4.48 30.0534 4.928C30.64 5.376 30.9334 6.10667 30.9334 7.12V12H29.4454L29.3334 11.232C29.024 11.5307 28.64 11.76 28.1814 11.92C27.7334 12.08 27.168 12.16 26.4854 12.16ZM26.9494 10.912C27.472 10.912 27.9254 10.8267 28.3094 10.656C28.704 10.4747 29.024 10.2347 29.2694 9.936V8.608H26.8694C26.3574 8.608 25.984 8.70933 25.7494 8.912C25.5254 9.104 25.4134 9.40267 25.4134 9.808C25.4134 10.2027 25.5467 10.4853 25.8134 10.656C26.08 10.8267 26.4587 10.912 26.9494 10.912ZM32.8674 12V4.416H34.4674L34.5474 5.216C34.9207 4.91733 35.3314 4.68267 35.7794 4.512C36.2274 4.34133 36.7074 4.256 37.2194 4.256C37.7634 4.256 38.1847 4.34667 38.4834 4.528C38.7927 4.69867 39.0274 4.93867 39.1874 5.248C39.5394 4.96 39.9447 4.72533 40.4034 4.544C40.862 4.352 41.4114 4.256 42.0514 4.256C42.926 4.256 43.5714 4.48 43.9874 4.928C44.4034 5.376 44.6114 6.064 44.6114 6.992V12H42.8994V7.168C42.8994 6.58133 42.7767 6.17067 42.5314 5.936C42.286 5.70133 41.886 5.584 41.3314 5.584C40.9687 5.584 40.622 5.648 40.2914 5.776C39.9714 5.904 39.694 6.096 39.4594 6.352C39.4914 6.46933 39.5127 6.592 39.5234 6.72C39.534 6.848 39.5394 6.98667 39.5394 7.136V12H37.9234V7.184C37.9234 6.62933 37.8274 6.224 37.6354 5.968C37.4434 5.712 37.0807 5.584 36.5474 5.584C36.174 5.584 35.8167 5.67467 35.4754 5.856C35.1447 6.02667 34.846 6.23467 34.5794 6.48V12H32.8674ZM50.2543 12.16C48.9316 12.16 47.9076 11.8347 47.1823 11.184C46.4569 10.5333 46.0943 9.536 46.0943 8.192C46.0943 6.976 46.4036 6.016 47.0223 5.312C47.6409 4.608 48.5796 4.256 49.8383 4.256C50.9903 4.256 51.8543 4.56 52.4303 5.168C53.0169 5.76533 53.3103 6.53867 53.3103 7.488V8.896H47.7582C47.8436 9.632 48.1103 10.1387 48.5583 10.416C49.0063 10.6933 49.6889 10.832 50.6063 10.832C50.9903 10.832 51.3849 10.7947 51.7903 10.72C52.1956 10.6453 52.5476 10.5493 52.8463 10.432V11.712C52.5049 11.8613 52.1103 11.9733 51.6623 12.048C51.2249 12.1227 50.7556 12.16 50.2543 12.16ZM47.7582 7.76H51.7743V7.232C51.7743 6.70933 51.6303 6.304 51.3423 6.016C51.0543 5.71733 50.5689 5.568 49.8863 5.568C49.0756 5.568 48.5156 5.744 48.2063 6.096C47.9076 6.448 47.7582 7.00267 47.7582 7.76ZM61.5915 12.16C60.7808 12.16 60.1728 11.9467 59.7675 11.52C59.3728 11.0827 59.1755 10.4907 59.1755 9.744V5.776H58.0555V4.416H59.1755V2.672L60.9035 2.144V4.416H62.9195L62.8075 5.776H60.9035V9.648C60.9035 10.0853 61.0048 10.3947 61.2075 10.576C61.4102 10.7467 61.7408 10.832 62.1995 10.832C62.4875 10.832 62.7915 10.7787 63.1115 10.672V11.904C62.6955 12.0747 62.1888 12.16 61.5915 12.16ZM68.2855 12.16C66.9628 12.16 65.9388 11.8347 65.2135 11.184C64.4882 10.5333 64.1255 9.536 64.1255 8.192C64.1255 6.976 64.4348 6.016 65.0535 5.312C65.6722 4.608 66.6108 4.256 67.8695 4.256C69.0215 4.256 69.8855 4.56 70.4615 5.168C71.0482 5.76533 71.3415 6.53867 71.3415 7.488V8.896H65.7895C65.8748 9.632 66.1415 10.1387 66.5895 10.416C67.0375 10.6933 67.7202 10.832 68.6375 10.832C69.0215 10.832 69.4162 10.7947 69.8215 10.72C70.2268 10.6453 70.5788 10.5493 70.8775 10.432V11.712C70.5362 11.8613 70.1415 11.9733 69.6935 12.048C69.2562 12.1227 68.7868 12.16 68.2855 12.16ZM65.7895 7.76H69.8055V7.232C69.8055 6.70933 69.6615 6.304 69.3735 6.016C69.0855 5.71733 68.6002 5.568 67.9175 5.568C67.1068 5.568 66.5468 5.744 66.2375 6.096C65.9388 6.448 65.7895 7.00267 65.7895 7.76ZM74.9273 12.16C74.3086 12.16 73.8393 12.0107 73.5193 11.712C73.1993 11.4027 73.0393 10.896 73.0393 10.192V1.216H74.7833V10.032C74.7833 10.3307 74.8366 10.5333 74.9433 10.64C75.0499 10.7467 75.2099 10.8 75.4233 10.8C75.6793 10.8 75.9246 10.768 76.1593 10.704V11.968C75.9566 12.0427 75.7593 12.0907 75.5673 12.112C75.3859 12.144 75.1726 12.16 74.9273 12.16ZM79.0054 12.16C78.3867 12.16 77.9174 12.0107 77.5974 11.712C77.2774 11.4027 77.1174 10.896 77.1174 10.192V1.216H78.8614V10.032C78.8614 10.3307 78.9147 10.5333 79.0214 10.64C79.128 10.7467 79.288 10.8 79.5014 10.8C79.7574 10.8 80.0027 10.768 80.2374 10.704V11.968C80.0347 12.0427 79.8374 12.0907 79.6454 12.112C79.464 12.144 79.2507 12.16 79.0054 12.16ZM84.1298 12.16C83.6071 12.16 83.1058 12.1227 82.6258 12.048C82.1564 11.9733 81.7671 11.8827 81.4578 11.776V10.304C81.8204 10.4427 82.2204 10.5493 82.6578 10.624C83.0951 10.6987 83.5111 10.736 83.9058 10.736C84.5031 10.736 84.9298 10.6827 85.1858 10.576C85.4418 10.4693 85.5698 10.2613 85.5698 9.952C85.5698 9.728 85.4898 9.552 85.3298 9.424C85.1804 9.296 84.9511 9.17867 84.6418 9.072C84.3431 8.96533 83.9591 8.83733 83.4898 8.688C83.0418 8.53867 82.6524 8.37867 82.3218 8.208C81.9911 8.02667 81.7351 7.79733 81.5538 7.52C81.3724 7.24267 81.2818 6.88 81.2818 6.432C81.2818 5.73867 81.5324 5.20533 82.0338 4.832C82.5351 4.448 83.3404 4.256 84.4498 4.256C84.8871 4.256 85.3031 4.288 85.6978 4.352C86.0924 4.416 86.4284 4.496 86.7058 4.592V6.048C86.4071 5.93067 86.0764 5.84 85.7138 5.776C85.3618 5.712 85.0311 5.68 84.7218 5.68C84.1671 5.68 83.7458 5.728 83.4578 5.824C83.1804 5.92 83.0418 6.112 83.0418 6.4C83.0418 6.69867 83.1858 6.912 83.4738 7.04C83.7724 7.15733 84.2471 7.32267 84.8978 7.536C85.4951 7.71733 85.9698 7.90933 86.3218 8.112C86.6738 8.31467 86.9244 8.56 87.0738 8.848C87.2338 9.12533 87.3138 9.488 87.3138 9.936C87.3138 10.6827 87.0418 11.2427 86.4978 11.616C85.9538 11.9787 85.1644 12.16 84.1298 12.16ZM95.6071 12.16C94.7965 12.16 94.1885 11.9467 93.7831 11.52C93.3885 11.0827 93.1911 10.4907 93.1911 9.744V5.776H92.0711V4.416H93.1911V2.672L94.9191 2.144V4.416H96.9351L96.8231 5.776H94.9191V9.648C94.9191 10.0853 95.0205 10.3947 95.2231 10.576C95.4258 10.7467 95.7565 10.832 96.2151 10.832C96.5031 10.832 96.8071 10.7787 97.1271 10.672V11.904C96.7111 12.0747 96.2045 12.16 95.6071 12.16ZM98.4611 12V1.216H100.205V5.152C100.536 4.88533 100.93 4.672 101.389 4.512C101.848 4.34133 102.365 4.256 102.941 4.256C103.901 4.256 104.61 4.48533 105.069 4.944C105.528 5.40267 105.757 6.11733 105.757 7.088V12H104.029V7.168C104.029 6.58133 103.901 6.17067 103.645 5.936C103.4 5.70133 102.968 5.584 102.349 5.584C101.965 5.584 101.576 5.66933 101.181 5.84C100.786 6 100.461 6.21333 100.205 6.48V12H98.4611ZM111.395 12.16C110.072 12.16 109.048 11.8347 108.323 11.184C107.598 10.5333 107.235 9.536 107.235 8.192C107.235 6.976 107.544 6.016 108.163 5.312C108.782 4.608 109.72 4.256 110.979 4.256C112.131 4.256 112.995 4.56 113.571 5.168C114.158 5.76533 114.451 6.53867 114.451 7.488V8.896H108.899C108.984 9.632 109.251 10.1387 109.699 10.416C110.147 10.6933 110.83 10.832 111.747 10.832C112.131 10.832 112.526 10.7947 112.931 10.72C113.336 10.6453 113.688 10.5493 113.987 10.432V11.712C113.646 11.8613 113.251 11.9733 112.803 12.048C112.366 12.1227 111.896 12.16 111.395 12.16ZM108.899 7.76H112.915V7.232C112.915 6.70933 112.771 6.304 112.483 6.016C112.195 5.71733 111.71 5.568 111.027 5.568C110.216 5.568 109.656 5.744 109.347 6.096C109.048 6.448 108.899 7.00267 108.899 7.76ZM122.972 12.16C122.289 12.16 121.687 12.0427 121.164 11.808C120.641 11.5733 120.236 11.184 119.948 10.64C119.66 10.096 119.516 9.36533 119.516 8.448C119.516 7.54133 119.671 6.77867 119.98 6.16C120.289 5.53067 120.716 5.056 121.26 4.736C121.815 4.416 122.439 4.256 123.132 4.256C123.591 4.256 123.996 4.30933 124.348 4.416C124.711 4.52267 125.057 4.688 125.388 4.912V1.216H127.132V12H125.644L125.532 11.248C125.191 11.5573 124.817 11.7867 124.412 11.936C124.007 12.0853 123.527 12.16 122.972 12.16ZM123.436 10.848C124.215 10.848 124.865 10.5813 125.388 10.048V6.256C124.887 5.808 124.257 5.584 123.5 5.584C122.764 5.584 122.209 5.82933 121.836 6.32C121.463 6.81067 121.276 7.52533 121.276 8.464C121.276 9.37067 121.447 9.99467 121.788 10.336C122.14 10.6773 122.689 10.848 123.436 10.848ZM131.439 12.16C130.959 12.16 130.511 12.0747 130.095 11.904C129.689 11.7333 129.364 11.4773 129.118 11.136C128.873 10.784 128.751 10.352 128.751 9.84C128.751 9.11467 128.996 8.53333 129.487 8.096C129.988 7.648 130.756 7.424 131.791 7.424H134.223V7.088C134.223 6.72533 134.164 6.43733 134.047 6.224C133.94 6.01067 133.737 5.856 133.439 5.76C133.151 5.664 132.724 5.616 132.159 5.616C131.263 5.616 130.425 5.74933 129.647 6.016V4.72C129.988 4.58133 130.404 4.46933 130.895 4.384C131.385 4.29867 131.913 4.256 132.479 4.256C133.588 4.256 134.431 4.48 135.007 4.928C135.593 5.376 135.887 6.10667 135.887 7.12V12H134.399L134.287 11.232C133.977 11.5307 133.593 11.76 133.135 11.92C132.687 12.08 132.121 12.16 131.439 12.16ZM131.903 10.912C132.425 10.912 132.879 10.8267 133.263 10.656C133.657 10.4747 133.977 10.2347 134.223 9.936V8.608H131.823C131.311 8.608 130.937 8.70933 130.703 8.912C130.479 9.104 130.367 9.40267 130.367 9.808C130.367 10.2027 130.5 10.4853 130.767 10.656C131.033 10.8267 131.412 10.912 131.903 10.912ZM137.821 12V4.416H139.421L139.517 5.296C139.879 5.06133 140.311 4.848 140.812 4.656C141.314 4.464 141.81 4.33067 142.301 4.256V5.584C142.002 5.63733 141.677 5.71733 141.325 5.824C140.983 5.92 140.658 6.032 140.349 6.16C140.039 6.27733 139.778 6.4 139.565 6.528V12H137.821ZM143.571 12V1.216H145.315V7.456L148.499 4.416H150.499L147.411 7.472L150.675 12H148.835L146.323 8.4L145.315 9.36V12H143.571ZM158.38 12.16C157.857 12.16 157.356 12.1227 156.876 12.048C156.406 11.9733 156.017 11.8827 155.708 11.776V10.304C156.07 10.4427 156.47 10.5493 156.908 10.624C157.345 10.6987 157.761 10.736 158.156 10.736C158.753 10.736 159.18 10.6827 159.436 10.576C159.692 10.4693 159.82 10.2613 159.82 9.952C159.82 9.728 159.74 9.552 159.58 9.424C159.43 9.296 159.201 9.17867 158.892 9.072C158.593 8.96533 158.209 8.83733 157.74 8.688C157.292 8.53867 156.902 8.37867 156.572 8.208C156.241 8.02667 155.985 7.79733 155.804 7.52C155.622 7.24267 155.532 6.88 155.532 6.432C155.532 5.73867 155.782 5.20533 156.284 4.832C156.785 4.448 157.59 4.256 158.7 4.256C159.137 4.256 159.553 4.288 159.948 4.352C160.342 4.416 160.678 4.496 160.956 4.592V6.048C160.657 5.93067 160.326 5.84 159.964 5.776C159.612 5.712 159.281 5.68 158.972 5.68C158.417 5.68 157.996 5.728 157.708 5.824C157.43 5.92 157.292 6.112 157.292 6.4C157.292 6.69867 157.436 6.912 157.724 7.04C158.022 7.15733 158.497 7.32267 159.148 7.536C159.745 7.71733 160.22 7.90933 160.572 8.112C160.924 8.31467 161.174 8.56 161.324 8.848C161.484 9.12533 161.564 9.488 161.564 9.936C161.564 10.6827 161.292 11.2427 160.748 11.616C160.204 11.9787 159.414 12.16 158.38 12.16ZM163.914 2.832V1.392H165.818V2.832H163.914ZM164.058 12V5.744H162.906L163.066 4.416H165.802V12H164.058ZM170.972 12.16C170.289 12.16 169.687 12.0427 169.164 11.808C168.641 11.5733 168.236 11.184 167.948 10.64C167.66 10.096 167.516 9.36533 167.516 8.448C167.516 7.54133 167.671 6.77867 167.98 6.16C168.289 5.53067 168.716 5.056 169.26 4.736C169.815 4.416 170.439 4.256 171.132 4.256C171.591 4.256 171.996 4.30933 172.348 4.416C172.711 4.52267 173.057 4.688 173.388 4.912V1.216H175.132V12H173.644L173.532 11.248C173.191 11.5573 172.817 11.7867 172.412 11.936C172.007 12.0853 171.527 12.16 170.972 12.16ZM171.436 10.848C172.215 10.848 172.865 10.5813 173.388 10.048V6.256C172.887 5.808 172.257 5.584 171.5 5.584C170.764 5.584 170.209 5.82933 169.836 6.32C169.463 6.81067 169.276 7.52533 169.276 8.464C169.276 9.37067 169.447 9.99467 169.788 10.336C170.14 10.6773 170.689 10.848 171.436 10.848ZM180.832 12.16C179.51 12.16 178.486 11.8347 177.76 11.184C177.035 10.5333 176.672 9.536 176.672 8.192C176.672 6.976 176.982 6.016 177.6 5.312C178.219 4.608 179.158 4.256 180.416 4.256C181.568 4.256 182.432 4.56 183.008 5.168C183.595 5.76533 183.888 6.53867 183.888 7.488V8.896H178.336C178.422 9.632 178.688 10.1387 179.136 10.416C179.584 10.6933 180.267 10.832 181.184 10.832C181.568 10.832 181.963 10.7947 182.368 10.72C182.774 10.6453 183.126 10.5493 183.424 10.432V11.712C183.083 11.8613 182.688 11.9733 182.24 12.048C181.803 12.1227 181.334 12.16 180.832 12.16ZM178.336 7.76H182.352V7.232C182.352 6.70933 182.208 6.304 181.92 6.016C181.632 5.71733 181.147 5.568 180.464 5.568C179.654 5.568 179.094 5.744 178.784 6.096C178.486 6.448 178.336 7.00267 178.336 7.76ZM192.906 12.16C191.54 12.16 190.538 11.8187 189.898 11.136C189.268 10.4533 188.954 9.47733 188.954 8.208C188.954 6.93867 189.274 5.96267 189.914 5.28C190.554 4.59733 191.551 4.256 192.906 4.256C194.271 4.256 195.274 4.59733 195.914 5.28C196.554 5.96267 196.874 6.93867 196.874 8.208C196.874 9.47733 196.554 10.4533 195.914 11.136C195.284 11.8187 194.282 12.16 192.906 12.16ZM192.906 10.688C193.706 10.688 194.271 10.496 194.602 10.112C194.943 9.71733 195.114 9.08267 195.114 8.208C195.114 7.33333 194.943 6.704 194.602 6.32C194.271 5.936 193.706 5.744 192.906 5.744C192.116 5.744 191.551 5.936 191.21 6.32C190.879 6.704 190.714 7.33333 190.714 8.208C190.714 9.08267 190.879 9.71733 191.21 10.112C191.551 10.496 192.116 10.688 192.906 10.688ZM199.035 12V5.776H197.931V4.416H199.035V3.488C199.035 2.73067 199.243 2.12267 199.659 1.664C200.085 1.19467 200.715 0.959999 201.547 0.959999C201.856 0.959999 202.139 0.986666 202.395 1.04C202.651 1.08267 202.885 1.14667 203.099 1.232V2.48C202.768 2.36267 202.432 2.304 202.091 2.304C201.589 2.304 201.243 2.39467 201.051 2.576C200.859 2.75733 200.763 3.06667 200.763 3.504V4.416H202.747L202.667 5.776H200.763V12H199.035ZM210.92 12.16C210.109 12.16 209.501 11.9467 209.096 11.52C208.701 11.0827 208.504 10.4907 208.504 9.744V5.776H207.384V4.416H208.504V2.672L210.232 2.144V4.416H212.248L212.136 5.776H210.232V9.648C210.232 10.0853 210.333 10.3947 210.536 10.576C210.738 10.7467 211.069 10.832 211.528 10.832C211.816 10.832 212.12 10.7787 212.44 10.672V11.904C212.024 12.0747 211.517 12.16 210.92 12.16ZM213.774 12V1.216H215.518V5.152C215.848 4.88533 216.243 4.672 216.702 4.512C217.16 4.34133 217.678 4.256 218.254 4.256C219.214 4.256 219.923 4.48533 220.382 4.944C220.84 5.40267 221.07 6.11733 221.07 7.088V12H219.342V7.168C219.342 6.58133 219.214 6.17067 218.958 5.936C218.712 5.70133 218.28 5.584 217.662 5.584C217.278 5.584 216.888 5.66933 216.494 5.84C216.099 6 215.774 6.21333 215.518 6.48V12H213.774ZM226.707 12.16C225.385 12.16 224.361 11.8347 223.635 11.184C222.91 10.5333 222.547 9.536 222.547 8.192C222.547 6.976 222.857 6.016 223.475 5.312C224.094 4.608 225.033 4.256 226.291 4.256C227.443 4.256 228.307 4.56 228.883 5.168C229.47 5.76533 229.763 6.53867 229.763 7.488V8.896H224.211C224.297 9.632 224.563 10.1387 225.011 10.416C225.459 10.6933 226.142 10.832 227.059 10.832C227.443 10.832 227.838 10.7947 228.243 10.72C228.649 10.6453 229.001 10.5493 229.299 10.432V11.712C228.958 11.8613 228.563 11.9733 228.115 12.048C227.678 12.1227 227.209 12.16 226.707 12.16ZM224.211 7.76H228.227V7.232C228.227 6.70933 228.083 6.304 227.795 6.016C227.507 5.71733 227.022 5.568 226.339 5.568C225.529 5.568 224.969 5.744 224.659 6.096C224.361 6.448 224.211 7.00267 224.211 7.76ZM235.613 12V5.776H234.509V4.416H235.613V3.488C235.613 2.73067 235.821 2.12267 236.237 1.664C236.663 1.19467 237.293 0.959999 238.125 0.959999C238.434 0.959999 238.717 0.986666 238.973 1.04C239.229 1.08267 239.463 1.14667 239.677 1.232V2.48C239.346 2.36267 239.01 2.304 238.669 2.304C238.167 2.304 237.821 2.39467 237.629 2.576C237.437 2.75733 237.341 3.06667 237.341 3.504V4.416H239.325L239.245 5.776H237.341V12H235.613ZM242.407 12.16C241.927 12.16 241.479 12.0747 241.063 11.904C240.658 11.7333 240.333 11.4773 240.087 11.136C239.842 10.784 239.719 10.352 239.719 9.84C239.719 9.11467 239.965 8.53333 240.455 8.096C240.957 7.648 241.725 7.424 242.759 7.424H245.191V7.088C245.191 6.72533 245.133 6.43733 245.015 6.224C244.909 6.01067 244.706 5.856 244.407 5.76C244.119 5.664 243.693 5.616 243.127 5.616C242.231 5.616 241.394 5.74933 240.615 6.016V4.72C240.957 4.58133 241.373 4.46933 241.863 4.384C242.354 4.29867 242.882 4.256 243.447 4.256C244.557 4.256 245.399 4.48 245.975 4.928C246.562 5.376 246.855 6.10667 246.855 7.12V12H245.367L245.255 11.232C244.946 11.5307 244.562 11.76 244.103 11.92C243.655 12.08 243.09 12.16 242.407 12.16ZM242.871 10.912C243.394 10.912 243.847 10.8267 244.231 10.656C244.626 10.4747 244.946 10.2347 245.191 9.936V8.608H242.791C242.279 8.608 241.906 8.70933 241.671 8.912C241.447 9.104 241.335 9.40267 241.335 9.808C241.335 10.2027 241.469 10.4853 241.735 10.656C242.002 10.8267 242.381 10.912 242.871 10.912ZM251.317 12.16C250.795 12.16 250.293 12.1227 249.813 12.048C249.344 11.9733 248.955 11.8827 248.645 11.776V10.304C249.008 10.4427 249.408 10.5493 249.845 10.624C250.283 10.6987 250.699 10.736 251.093 10.736C251.691 10.736 252.117 10.6827 252.373 10.576C252.629 10.4693 252.757 10.2613 252.757 9.952C252.757 9.728 252.677 9.552 252.517 9.424C252.368 9.296 252.139 9.17867 251.829 9.072C251.531 8.96533 251.147 8.83733 250.677 8.688C250.229 8.53867 249.84 8.37867 249.509 8.208C249.179 8.02667 248.923 7.79733 248.741 7.52C248.56 7.24267 248.469 6.88 248.469 6.432C248.469 5.73867 248.72 5.20533 249.221 4.832C249.723 4.448 250.528 4.256 251.637 4.256C252.075 4.256 252.491 4.288 252.885 4.352C253.28 4.416 253.616 4.496 253.893 4.592V6.048C253.595 5.93067 253.264 5.84 252.901 5.776C252.549 5.712 252.219 5.68 251.909 5.68C251.355 5.68 250.933 5.728 250.645 5.824C250.368 5.92 250.229 6.112 250.229 6.4C250.229 6.69867 250.373 6.912 250.661 7.04C250.96 7.15733 251.435 7.32267 252.085 7.536C252.683 7.71733 253.157 7.90933 253.509 8.112C253.861 8.31467 254.112 8.56 254.261 8.848C254.421 9.12533 254.501 9.488 254.501 9.936C254.501 10.6827 254.229 11.2427 253.685 11.616C253.141 11.9787 252.352 12.16 251.317 12.16ZM258.873 12.16C258.062 12.16 257.454 11.9467 257.049 11.52C256.654 11.0827 256.457 10.4907 256.457 9.744V5.776H255.337V4.416H256.457V2.672L258.185 2.144V4.416H260.201L260.089 5.776H258.185V9.648C258.185 10.0853 258.286 10.3947 258.489 10.576C258.691 10.7467 259.022 10.832 259.481 10.832C259.769 10.832 260.073 10.7787 260.393 10.672V11.904C259.977 12.0747 259.47 12.16 258.873 12.16ZM1.472 36V29.776H0.368V28.416H1.472V27.488C1.472 26.7307 1.68 26.1227 2.096 25.664C2.52267 25.1947 3.152 24.96 3.984 24.96C4.29333 24.96 4.576 24.9867 4.832 25.04C5.088 25.0827 5.32267 25.1467 5.536 25.232V26.48C5.20533 26.3627 4.86933 26.304 4.528 26.304C4.02667 26.304 3.68 26.3947 3.488 26.576C3.296 26.7573 3.2 27.0667 3.2 27.504V28.416H5.184L5.104 29.776H3.2V36H1.472ZM8.26663 36.16C7.78663 36.16 7.33863 36.0747 6.92263 35.904C6.51729 35.7333 6.19196 35.4773 5.94662 35.136C5.70129 34.784 5.57863 34.352 5.57863 33.84C5.57863 33.1147 5.82396 32.5333 6.31463 32.096C6.81596 31.648 7.58396 31.424 8.61863 31.424H11.0506V31.088C11.0506 30.7253 10.992 30.4373 10.8746 30.224C10.768 30.0107 10.5653 29.856 10.2666 29.76C9.97863 29.664 9.55196 29.616 8.98663 29.616C8.09063 29.616 7.25329 29.7493 6.47463 30.016V28.72C6.81596 28.5813 7.23196 28.4693 7.72263 28.384C8.21329 28.2987 8.74129 28.256 9.30663 28.256C10.416 28.256 11.2586 28.48 11.8346 28.928C12.4213 29.376 12.7146 30.1067 12.7146 31.12V36H11.2266L11.1146 35.232C10.8053 35.5307 10.4213 35.76 9.96263 35.92C9.51463 36.08 8.94929 36.16 8.26663 36.16ZM8.73063 34.912C9.25329 34.912 9.70663 34.8267 10.0906 34.656C10.4853 34.4747 10.8053 34.2347 11.0506 33.936V32.608H8.65063C8.13863 32.608 7.76529 32.7093 7.53063 32.912C7.30663 33.104 7.19463 33.4027 7.19463 33.808C7.19463 34.2027 7.32796 34.4853 7.59463 34.656C7.86129 34.8267 8.23996 34.912 8.73063 34.912ZM17.1766 36.16C16.654 36.16 16.1526 36.1227 15.6726 36.048C15.2033 35.9733 14.814 35.8827 14.5046 35.776V34.304C14.8673 34.4427 15.2673 34.5493 15.7046 34.624C16.142 34.6987 16.558 34.736 16.9526 34.736C17.55 34.736 17.9766 34.6827 18.2326 34.576C18.4886 34.4693 18.6166 34.2613 18.6166 33.952C18.6166 33.728 18.5366 33.552 18.3766 33.424C18.2273 33.296 17.998 33.1787 17.6886 33.072C17.39 32.9653 17.006 32.8373 16.5366 32.688C16.0886 32.5387 15.6993 32.3787 15.3686 32.208C15.038 32.0267 14.782 31.7973 14.6006 31.52C14.4193 31.2427 14.3286 30.88 14.3286 30.432C14.3286 29.7387 14.5793 29.2053 15.0806 28.832C15.582 28.448 16.3873 28.256 17.4966 28.256C17.934 28.256 18.35 28.288 18.7446 28.352C19.1393 28.416 19.4753 28.496 19.7526 28.592V30.048C19.454 29.9307 19.1233 29.84 18.7606 29.776C18.4086 29.712 18.078 29.68 17.7686 29.68C17.214 29.68 16.7926 29.728 16.5046 29.824C16.2273 29.92 16.0886 30.112 16.0886 30.4C16.0886 30.6987 16.2326 30.912 16.5206 31.04C16.8193 31.1573 17.294 31.3227 17.9446 31.536C18.542 31.7173 19.0166 31.9093 19.3686 32.112C19.7206 32.3147 19.9713 32.56 20.1206 32.848C20.2806 33.1253 20.3606 33.488 20.3606 33.936C20.3606 34.6827 20.0886 35.2427 19.5446 35.616C19.0006 35.9787 18.2113 36.16 17.1766 36.16ZM22.0705 36V25.216H23.8145V29.152C24.1452 28.8853 24.5398 28.672 24.9985 28.512C25.4572 28.3413 25.9745 28.256 26.5505 28.256C27.5105 28.256 28.2198 28.4853 28.6785 28.944C29.1372 29.4027 29.3665 30.1173 29.3665 31.088V36H27.6385V31.168C27.6385 30.5813 27.5105 30.1707 27.2545 29.936C27.0092 29.7013 26.5772 29.584 25.9585 29.584C25.5745 29.584 25.1852 29.6693 24.7905 29.84C24.3958 30 24.0705 30.2133 23.8145 30.48V36H22.0705ZM31.9605 26.832V25.392H33.8645V26.832H31.9605ZM32.1045 36V29.744H30.9525L31.1125 28.416H33.8485V36H32.1045ZM39.515 36.16C38.1497 36.16 37.147 35.8187 36.507 35.136C35.8777 34.4533 35.563 33.4773 35.563 32.208C35.563 30.9387 35.883 29.9627 36.523 29.28C37.163 28.5973 38.1603 28.256 39.515 28.256C40.8803 28.256 41.883 28.5973 42.523 29.28C43.163 29.9627 43.483 30.9387 43.483 32.208C43.483 33.4773 43.163 34.4533 42.523 35.136C41.8937 35.8187 40.891 36.16 39.515 36.16ZM39.515 34.688C40.315 34.688 40.8803 34.496 41.211 34.112C41.5523 33.7173 41.723 33.0827 41.723 32.208C41.723 31.3333 41.5523 30.704 41.211 30.32C40.8803 29.936 40.315 29.744 39.515 29.744C38.7257 29.744 38.1603 29.936 37.819 30.32C37.4883 30.704 37.323 31.3333 37.323 32.208C37.323 33.0827 37.4883 33.7173 37.819 34.112C38.1603 34.496 38.7257 34.688 39.515 34.688ZM45.1799 36V28.416H46.7799L46.8599 29.216C47.2012 28.9493 47.6065 28.7253 48.0759 28.544C48.5559 28.352 49.0839 28.256 49.6599 28.256C50.6412 28.256 51.3559 28.4853 51.8039 28.944C52.2519 29.4027 52.4759 30.1173 52.4759 31.088V36H50.7479V31.168C50.7479 30.5813 50.6252 30.1707 50.3799 29.936C50.1452 29.7013 49.6972 29.584 49.0359 29.584C48.6412 29.584 48.2519 29.664 47.8679 29.824C47.4945 29.984 47.1799 30.192 46.9239 30.448V36H45.1799ZM58.7574 26.832V25.392H60.6614V26.832H58.7574ZM58.9014 36V29.744H57.7494L57.9094 28.416H60.6454V36H58.9014ZM62.6799 36V28.416H64.2799L64.3599 29.216C64.7012 28.9493 65.1065 28.7253 65.5759 28.544C66.0559 28.352 66.5839 28.256 67.1599 28.256C68.1412 28.256 68.8559 28.4853 69.3039 28.944C69.7519 29.4027 69.9759 30.1173 69.9759 31.088V36H68.2479V31.168C68.2479 30.5813 68.1252 30.1707 67.8799 29.936C67.6452 29.7013 67.1972 29.584 66.5359 29.584C66.1412 29.584 65.7519 29.664 65.3679 29.824C64.9945 29.984 64.6799 30.192 64.4239 30.448V36H62.6799ZM74.9096 36.16C74.227 36.16 73.6243 36.0427 73.1016 35.808C72.579 35.5733 72.1736 35.184 71.8856 34.64C71.5976 34.096 71.4536 33.3653 71.4536 32.448C71.4536 31.5413 71.6083 30.7787 71.9176 30.16C72.227 29.5307 72.6536 29.056 73.1976 28.736C73.7523 28.416 74.3763 28.256 75.0696 28.256C75.5283 28.256 75.9336 28.3093 76.2856 28.416C76.6483 28.5227 76.995 28.688 77.3256 28.912V25.216H79.0696V36H77.5816L77.4696 35.248C77.1283 35.5573 76.755 35.7867 76.3496 35.936C75.9443 36.0853 75.4643 36.16 74.9096 36.16ZM75.3736 34.848C76.1523 34.848 76.803 34.5813 77.3256 34.048V30.256C76.8243 29.808 76.195 29.584 75.4376 29.584C74.7016 29.584 74.147 29.8293 73.7736 30.32C73.4003 30.8107 73.2136 31.5253 73.2136 32.464C73.2136 33.3707 73.3843 33.9947 73.7256 34.336C74.0776 34.6773 74.627 34.848 75.3736 34.848ZM83.8221 36.16C82.9155 36.16 82.2168 35.9093 81.7261 35.408C81.2461 34.9067 81.0061 34.1707 81.0061 33.2V28.416H82.7501V33.2C82.7501 33.7653 82.8888 34.1813 83.1661 34.448C83.4435 34.7147 83.8701 34.848 84.4461 34.848C84.8728 34.848 85.2675 34.768 85.6301 34.608C85.9928 34.448 86.3075 34.2347 86.5741 33.968V28.416H88.3021V36H86.7181L86.6381 35.216C86.2968 35.4827 85.8915 35.7067 85.4221 35.888C84.9528 36.0693 84.4195 36.16 83.8221 36.16ZM92.8641 36.16C92.3415 36.16 91.8401 36.1227 91.3601 36.048C90.8908 35.9733 90.5015 35.8827 90.1921 35.776V34.304C90.5548 34.4427 90.9548 34.5493 91.3921 34.624C91.8295 34.6987 92.2455 34.736 92.6401 34.736C93.2375 34.736 93.6641 34.6827 93.9201 34.576C94.1761 34.4693 94.3041 34.2613 94.3041 33.952C94.3041 33.728 94.2241 33.552 94.0641 33.424C93.9148 33.296 93.6855 33.1787 93.3761 33.072C93.0775 32.9653 92.6935 32.8373 92.2241 32.688C91.7761 32.5387 91.3868 32.3787 91.0561 32.208C90.7255 32.0267 90.4695 31.7973 90.2881 31.52C90.1068 31.2427 90.0161 30.88 90.0161 30.432C90.0161 29.7387 90.2668 29.2053 90.7681 28.832C91.2695 28.448 92.0748 28.256 93.1841 28.256C93.6215 28.256 94.0375 28.288 94.4321 28.352C94.8268 28.416 95.1628 28.496 95.4401 28.592V30.048C95.1415 29.9307 94.8108 29.84 94.4481 29.776C94.0961 29.712 93.7655 29.68 93.4561 29.68C92.9015 29.68 92.4801 29.728 92.1921 29.824C91.9148 29.92 91.7761 30.112 91.7761 30.4C91.7761 30.6987 91.9201 30.912 92.2081 31.04C92.5068 31.1573 92.9815 31.3227 93.6321 31.536C94.2295 31.7173 94.7041 31.9093 95.0561 32.112C95.4081 32.3147 95.6588 32.56 95.8081 32.848C95.9681 33.1253 96.0481 33.488 96.0481 33.936C96.0481 34.6827 95.7761 35.2427 95.2321 35.616C94.6881 35.9787 93.8988 36.16 92.8641 36.16ZM100.42 36.16C99.609 36.16 99.001 35.9467 98.5956 35.52C98.201 35.0827 98.0036 34.4907 98.0036 33.744V29.776H96.8836V28.416H98.0036V26.672L99.7316 26.144V28.416H101.748L101.636 29.776H99.7316V33.648C99.7316 34.0853 99.833 34.3947 100.036 34.576C100.238 34.7467 100.569 34.832 101.028 34.832C101.316 34.832 101.62 34.7787 101.94 34.672V35.904C101.524 36.0747 101.017 36.16 100.42 36.16ZM103.274 36V28.416H104.874L104.97 29.296C105.332 29.0613 105.764 28.848 106.266 28.656C106.767 28.464 107.263 28.3307 107.754 28.256V29.584C107.455 29.6373 107.13 29.7173 106.778 29.824C106.436 29.92 106.111 30.032 105.802 30.16C105.492 30.2773 105.231 30.4 105.018 30.528V36H103.274ZM110.173 38.816C109.597 38.816 109.106 38.7413 108.701 38.592V37.296C108.882 37.36 109.048 37.4027 109.197 37.424C109.357 37.4453 109.517 37.456 109.677 37.456C110.008 37.456 110.274 37.4027 110.477 37.296C110.68 37.1893 110.856 37.0187 111.005 36.784C111.165 36.56 111.336 36.2667 111.517 35.904L108.141 28.416H109.949L112.381 34.048L114.845 28.416H116.637L113.549 35.568C113.282 36.208 112.994 36.768 112.685 37.248C112.386 37.7387 112.034 38.1227 111.629 38.4C111.234 38.6773 110.749 38.816 110.173 38.816Z" fill="black"/>
</svg>
