<svg width="350" height="112" viewBox="0 0 350 112" fill="none" xmlns="http://www.w3.org/2000/svg">
<path d="M101.085 19.0977C105.181 18.8046 109.204 19.171 113.154 20.1967C117.104 21.2224 120.615 22.4924 123.687 24.0066C126.759 25.5207 129.246 27.1326 131.147 28.8422C133.049 30.5517 134.5 32.3277 134.5 33.5C134.5 34.6723 133.269 35.0454 131.806 35.2897C130.343 35.5339 128.514 35.7537 126.32 35.9491C124.126 36.1444 121.712 36.5108 119.079 37.0481C116.445 37.5853 113.959 38.782 111.618 40.6381C110.057 41.8104 108.57 43.1048 107.156 44.5213C105.742 45.9378 104.328 47.3054 102.914 48.6242C101.5 49.943 100.037 51.1641 98.5251 52.2876C97.0135 53.411 95.3799 54.2658 93.6245 54.8519C92.7467 55.145 91.674 55.438 90.4061 55.7311C89.1383 56.0242 87.7973 56.0974 86.3832 55.9509C84.9691 55.8044 83.5062 55.3403 81.9945 54.5588C80.4829 53.7773 79.0444 52.4585 77.679 50.6024C76.8013 51.7747 76.0455 53.1668 75.4116 54.7786C74.7777 56.3905 74.2169 58.1245 73.7293 59.9806C73.2416 61.8367 72.8272 63.766 72.4858 65.7686C72.1445 67.7713 71.8763 69.6518 71.6812 71.4102C71.4862 72.8755 71.3399 74.7072 71.2424 76.9052C71.1448 79.1032 71.1205 81.2768 71.1692 83.4259C71.218 85.5751 71.3399 87.5533 71.5349 89.3606C71.73 91.1678 72.0226 92.4622 72.4127 93.2437C72.9003 94.1229 73.1441 94.8556 73.1441 95.4417C73.1441 95.9302 72.9003 96.3942 72.4127 96.8338C71.925 97.2734 70.9986 97.4932 69.6332 97.4932C68.0728 97.4932 67.0244 97.2734 66.488 96.8338C65.9516 96.3942 65.6834 95.9302 65.6834 95.4417C65.5859 94.8556 65.7809 94.1717 66.2686 93.3902C66.7562 92.4133 67.0732 91.2655 67.2194 89.9467C67.3657 88.6279 67.4145 87.2114 67.3657 85.6972C67.317 84.183 67.2438 82.6444 67.1463 81.0814C67.0488 79.5184 67 78.0042 67 76.5389C65.4396 73.4128 63.928 70.7752 62.4651 68.626C61.0022 66.4769 59.393 64.4254 57.6376 62.4716C56.5648 64.8162 55.3213 66.5746 53.9072 67.7468C52.4931 68.9191 51.0546 69.7251 49.5917 70.1647C48.1288 70.6043 46.7391 70.7996 45.4225 70.7508C44.1059 70.7019 42.96 70.5798 41.9847 70.3845C40.2293 70.0914 38.5713 69.5297 37.0109 68.6993C35.4505 67.869 33.8901 66.9409 32.3297 65.9152C30.7693 64.8894 29.1845 63.7904 27.5753 62.6182C25.9662 61.4459 24.3326 60.4202 22.6747 59.541C20.139 58.0756 17.5302 57.2941 14.8483 57.1964C12.1663 57.0987 9.72817 57.172 7.53384 57.4162C5.33952 57.6604 3.5353 57.7581 2.12118 57.7093C0.70706 57.6604 0 57.001 0 55.7311C0 54.4611 0.804585 52.8493 2.41376 50.8955C4.02293 48.9417 6.16849 47.0123 8.85044 45.1074C11.5324 43.2025 14.6776 41.4929 18.286 39.9787C21.8945 38.4645 25.698 37.5121 29.6965 37.1213C35.8406 36.5352 40.9363 36.8527 44.9836 38.0738C49.0309 39.2949 52.2005 41.0289 54.4924 43.2757C56.7842 45.5226 58.2227 48.1113 58.8079 51.042C59.393 53.9727 59.2955 56.9034 58.5153 59.834C61.6361 62.667 64.7082 66.2815 67.7315 70.6775C68.2191 65.8908 69.4381 61.0551 71.3887 56.1707C72.1689 54.51 72.9003 53.0935 73.583 51.9212C74.2656 50.7489 75.0946 49.479 76.0699 48.1113C74.5095 45.2784 73.7049 42.25 73.6561 39.0263C73.6074 35.8025 74.5338 32.7742 76.4356 29.9412C78.3373 27.1082 81.2875 24.6904 85.286 22.6878C89.2846 20.6851 94.551 19.4884 101.085 19.0977Z" fill="#373125"/>
<path d="M101.085 19.0977C105.181 18.8046 109.204 19.171 113.154 20.1967C117.104 21.2224 120.615 22.4924 123.687 24.0066C126.759 25.5207 129.246 27.1326 131.147 28.8422C133.049 30.5517 134.5 32.3277 134.5 33.5C134.5 34.6723 133.269 35.0454 131.806 35.2897C130.343 35.5339 128.514 35.7537 126.32 35.9491C124.126 36.1444 121.712 36.5108 119.079 37.0481C116.445 37.5853 113.959 38.782 111.618 40.6381C110.057 41.8104 108.57 43.1048 107.156 44.5213C105.742 45.9378 104.328 47.3054 102.914 48.6242C101.5 49.943 100.037 51.1641 98.5251 52.2876C97.0135 53.411 95.3799 54.2658 93.6245 54.8519C92.7467 55.145 91.674 55.438 90.4061 55.7311C89.1383 56.0242 87.7973 56.0974 86.3832 55.9509C84.9691 55.8044 83.5062 55.3403 81.9945 54.5588C80.4829 53.7773 79.0444 52.4585 77.679 50.6024L76.0699 48.1113L58.5153 59.834L57.6376 62.4716C56.5648 64.8162 55.3213 66.5746 53.9072 67.7468C52.4931 68.9191 51.0546 69.7251 49.5917 70.1647C48.1288 70.6043 46.7391 70.7996 45.4225 70.7508C44.1059 70.7019 42.96 70.5798 41.9847 70.3845C40.2293 70.0914 38.5713 69.5297 37.0109 68.6993C35.4505 67.869 33.8901 66.9409 32.3297 65.9152C30.7693 64.8894 29.1845 63.7904 27.5753 62.6182C25.9662 61.4459 24.3326 60.4202 22.6747 59.541C20.139 58.0756 17.5302 57.2941 14.8483 57.1964C12.1663 57.0987 9.72817 57.172 7.53384 57.4162C5.33952 57.6604 3.5353 57.7581 2.12118 57.7093C0.70706 57.6604 0 57.001 0 55.7311C0 54.4611 0.804585 52.8493 2.41376 50.8955C4.02293 48.9417 6.16849 47.0123 8.85044 45.1074C11.5324 43.2025 14.6776 41.4929 18.286 39.9787C21.8945 38.4645 25.698 37.5121 29.6965 37.1213C35.8406 36.5352 40.9363 36.8527 44.9836 38.0738C49.0309 39.2949 52.2005 41.0289 54.4924 43.2757C56.7842 45.5226 58.2227 48.1113 58.8079 51.042C59.393 53.9727 59.2955 56.9034 58.5153 59.834L76.0699 48.1113C74.5095 45.2784 73.7049 42.25 73.6561 39.0263C73.6074 35.8025 74.5338 32.7742 76.4356 29.9412C78.3373 27.1082 81.2875 24.6904 85.286 22.6878C89.2846 20.6851 94.551 19.4884 101.085 19.0977ZM58.5153 59.834C53.0539 55.145 46.2758 51.677 40.2293 50.3093C34.1827 48.9417 27.9411 49.0882 21.5044 50.749C21.3093 50.749 21.2606 50.7734 21.3581 50.8222C21.4556 50.8711 21.6019 50.8955 21.7969 50.8955C24.6252 50.6024 27.5022 50.4803 30.428 50.5291C33.3537 50.578 36.3039 51.0176 39.2784 51.8479C42.2529 52.6783 45.2031 53.8994 48.1288 55.5113C51.0546 57.1232 54.8093 59.7363 57.6376 62.4716L58.5153 59.834ZM111.179 31.553C111.374 31.553 111.52 31.5286 111.618 31.4798C111.715 31.4309 111.618 31.4065 111.325 31.4065C104.206 30.7227 97.7693 31.8217 92.0153 34.7035C86.2613 37.5853 80.4585 42.5431 76.0699 48.1113L77.679 50.6024C80.3122 46.9879 83.6037 43.2757 86.3832 40.9312C89.1627 38.5867 91.9909 36.7306 94.8679 35.3629C97.7449 33.9953 100.549 33.0428 103.279 32.5055C106.01 31.9682 108.643 31.6507 111.179 31.553Z" fill="#1C7C43"/>
<rect x="215" y="72" width="8" height="11" fill="#373125"/>
<rect x="238" y="101" width="7" height="11" fill="#373125"/>
<rect x="307" y="19" width="7" height="10" fill="#373125"/>
<rect x="333" y="41" width="8" height="10" fill="#373125"/>
<path d="M350 43.5224L336.689 12L324.946 43.5224H350ZM232.054 74.8023L218.763 43.3001L207 74.8023H232.054ZM252.45 104.964L241.652 79.3882L232.121 104.964H252.45ZM318.98 21.8633L310.153 0.928711L302.331 21.8633H318.98Z" fill="#1C7C43"/>
<path d="M293.87 107C280.173 107 267.601 102.257 260.227 94.299C255.628 89.336 253.427 83.5783 253.88 77.6373C254.332 71.6964 257.695 67.3812 262.037 62.4548C265.045 59.0565 264.765 57.1 264.423 56.0976C263.97 54.8752 261.695 53.5503 259.33 53.0897C256.965 52.6292 243.485 50.2183 239.119 45.1697C237.93 43.8752 237.045 42.3328 236.527 40.654C236.009 38.9753 235.87 37.2024 236.122 35.4637C237.492 26.65 249.147 20 263.223 20C277.58 20 288.514 26.87 288.66 35.9649C288.721 39.2364 286.704 42.3006 285.285 44.803C283.867 47.3054 284.561 50.776 286.644 52.3956C288.728 54.0152 299.607 57.4859 303.773 58.8741C307.94 60.2623 329.642 63.5795 331.782 77.4051C332.226 80.4358 331.99 83.5274 331.091 86.4557C330.192 89.384 328.653 92.0757 326.584 94.3357C319.785 102.245 307.543 107 293.87 107Z" fill="#2444F5"/>
<path d="M303.057 98.9983C302.773 99.0394 302.484 99.0256 302.206 98.9575C301.928 98.8895 301.667 98.7685 301.438 98.6016C301.209 98.4347 301.016 98.2251 300.87 97.9848C300.724 97.7445 300.628 97.4781 300.588 97.2009C300.548 96.9237 300.564 96.6412 300.636 96.3694C300.708 96.0976 300.834 95.8419 301.006 95.6168C301.179 95.3918 301.395 95.2019 301.642 95.0579C301.889 94.9138 302.163 94.8186 302.447 94.7775C313.61 92.9248 319.836 87.4774 320.949 84.2853C322.061 81.0931 321.646 78.6274 320.37 76.7909C319.094 74.9545 318.73 74.5832 318.456 74.0366C318.182 73.49 318.327 72.0344 319.654 71.8425C320.981 71.6505 322.713 73.1098 323.547 74.3104C324.823 76.1469 326.386 79.9623 324.628 85.2687C322.869 90.5751 315.739 97.1615 303.057 98.9983Z" fill="#F6F5E8"/>
</svg>
