<svg width="36" height="39" viewBox="0 0 36 39" fill="none" xmlns="http://www.w3.org/2000/svg">
<path d="M35.9895 23.5469C36.4708 22.8809 20.2454 -0.138646 19.3222 0.000629434C18.9195 0.0615624 15.1284 4.98842 11.0131 10.5943C11.0131 10.5943 10.5 8.56818 9.83452 6.47693C9.28451 6.16791 4.67326 7.45621 4.23619 7.99155C3.79913 8.52689 6.58847 16.7137 6.58847 16.7137C2.90536 21.8755 -0.109875 26.328 0.00307329 26.6936C0.0767355 26.9286 2.54687 26.872 6.1465 26.6457C6.1465 26.6457 7.72778 38.6843 7.99296 38.9237C8.25815 39.1631 14.5489 38.7627 14.5489 38.7627C14.2592 36.6997 13.4243 28.4215 18.4432 27.786C18.4432 27.786 24.1839 26.3846 22.0428 38.5799C22.0428 38.5799 27.2188 38.7453 27.7295 38.4406C28.2452 38.1359 32.3309 24.1823 32.3309 24.1823C34.5064 23.9037 35.8962 23.6731 35.9895 23.5469Z" fill="black"/>
</svg>
