<svg width="35" height="28" viewBox="0 0 35 28" fill="none" xmlns="http://www.w3.org/2000/svg">
<path d="M17.2991 0.333494C18.3537 0.807537 19.2638 2.45705 19.9161 3.9948C13.4009 4.27614 6.77639 5.0084 5.62022 6.04513C3.93285 7.57517 2.55013 17.3566 2.265 22.7985C1.43693 17.9925 -0.95352 3.41284 0.413569 2.14102C2.05408 0.618691 15.1781 -0.618445 17.2991 0.333494Z" fill="black"/>
<path fill-rule="evenodd" clip-rule="evenodd" d="M34.7626 5.85629C33.7001 4.23761 9.10036 5.0932 6.78412 7.18978C4.46789 9.28635 2.73364 26.8953 3.60076 27.562C4.46789 28.2288 31.2902 28.2288 32.1573 26.8953C33.0283 25.5618 35.825 7.47497 34.7626 5.85629ZM21.4473 14.8047C21.4473 14.8047 25.5931 14.2743 25.988 14.789C26.23 15.1051 22.7369 17.8866 22.7369 17.8866C22.7369 17.8866 24.9356 22.2014 24.5917 22.4657C24.1084 22.8356 22.3119 21.6653 20.9528 20.7799C20.1851 20.2798 19.5569 19.8706 19.3839 19.8813C19.2235 19.8907 18.6752 20.3158 17.9872 20.8492C16.6202 21.909 14.7014 23.3965 14.1762 22.9022C13.88 22.6238 16.1153 18.1807 16.1153 18.1807C16.1153 18.1807 12.842 16.1564 13.006 15.7731C13.1715 15.3914 17.3062 15.2803 17.3062 15.2803C17.3062 15.2803 18.9286 10.0441 19.4731 10.0003C20.0192 9.95649 21.4473 14.8047 21.4473 14.8047Z" fill="black"/>
</svg>
