<svg width="33" height="34" viewBox="0 0 33 34" fill="none" xmlns="http://www.w3.org/2000/svg">
<path d="M2.211 28.7268C2.211 28.7268 1.1055 31.0997 0 33.0779C0 33.0779 0.372588 33.4571 1.3289 34C1.3289 34 3.86925 31.8907 5.10859 30.6828C5.10859 30.6788 3.65428 28.3336 2.211 28.7268ZM31.7831 2.62438C27.9139 -2.95532 21.2809 2.09702 21.2809 2.09702C30.5519 3.88734 29.5721 12.3798 29.5721 12.3798C35.6608 8.70378 31.7831 2.62438 31.7831 2.62438Z" fill="black"/>
<path d="M15.4872 20.5236C17.7145 17.7653 27.4088 9.45939 27.9139 8.95221C27.4336 7.69478 27.0847 6.84292 25.9792 6.3156C22.9391 8.42489 12.6266 18.3161 12.6266 18.3161C16.7085 13.0629 24.5808 5.27293 24.5974 5.26096C21.5572 3.41533 19.6105 3.98548 19.6105 3.98548C13.9927 8.92736 6.78938 17.3381 4.08191 20.5715C3.74244 20.9507 3.37399 21.3858 2.9807 21.8928C2.9807 21.8928 6.11458 19.3939 7.14127 20.6154C8.16796 21.8369 7.86575 24.2799 7.86575 24.2799C7.86575 24.2799 9.91498 21.781 11.1197 23.0584C12.3244 24.3358 11.5419 26.0802 11.1197 26.5433C11.1197 26.5433 12.8667 24.8587 13.231 25.4974C13.5912 26.1361 13.289 27.5891 12.2043 28.9264C12.2043 28.9264 12.403 28.7029 12.6845 28.3556C20.9808 18.5397 28.743 12.9071 28.743 12.9071C28.743 11.8525 28.7357 11.4802 28.4666 10.5342C24.3567 12.8869 15.4872 20.5236 15.4872 20.5236Z" fill="black"/>
<path d="M12.5355 26.5393C12.4734 26.0762 11.1197 26.5393 11.1197 26.5393C11.3308 26.0762 11.0286 24.8268 10.4573 24.1282C9.886 23.4296 7.86575 24.2759 7.86575 24.2759C7.86575 23.6931 7.05433 22.2121 6.1477 21.6014C5.24521 20.9906 2.98484 21.8928 2.98484 21.8928C2.76375 25.4974 2.48737 27.6722 2.48737 27.6722C5.10859 26.9934 5.10859 30.6828 5.10859 30.6828C9.12037 29.5178 12.2043 28.9264 12.2043 28.9264C13.1068 27.4414 12.5355 26.5393 12.5355 26.5393Z" fill="black"/>
</svg>
